<?xml version="1.0" encoding="UTF-8"?>
<svg id="illuer_blå_bg" xmlns="http://www.w3.org/2000/svg" viewBox="0 0 306.11 270.56">
  <defs>
    <style>
      .cls-1 {
        fill: #ff9400;
      }

      .cls-2 {
        fill: #0354f0;
      }

      .cls-3 {
        fill: #ffe6c4;
      }
    </style>
  </defs>
  <path class="cls-3" d="M215.36,94.82c1.65-.56,3.02-1.45,4.68-1.78.76-.15,1.4-.84,2.26-.88.53-.02,1.05-.33,1.6-.4.72-.08,1.2-.34,1.9-.8.43-.25.67-.44,1.62-.87.74-.33,1.16-.44,1.88-.96.63-.45,1.89-.64,2.57-1.1,1.38-.91,2.6-1.12,3.97-2.36,1.27-.95,2.71-1.52,3.86-2.19,1.52-.81,3.03-1.63,4.52-2.46.35-.2.76-.32,1.13-.44.82-.26,1.44-.73,2.09-1.29.61-.52,1.93-1.34,3.18-2.09,1.23-.77,2.36-1.49,2.61-1.75.32-.38,1.95-1.65,3.45-3,.77-.65,1.49-1.33,2.07-1.85.58-.52,1-.9,1.11-1,.32-.25.65-.42.75-.74.58-.33,1.04-1.18,1.54-1.43.95-.89,1.34-1.18,2.27-2.42.77-.93,1.92-1.65,2.66-2.59l-.1.2c.07-.19.11-.45.11-.68.58-2.81.36-4.68.27-5.07-.21-.73.09-1.09-.17-1.8-.31-.96-.15-3.04-.46-3.24-.24-.16-.33-.56-.5-.89l.06.17c-.07-.1-.15-.19-.23-.26-.76-.65-1.17-1.87-1.24-3.14-.04-.63-.58-1.32-.42-1.97.06-.28.18-.6.26-.9.1-.31.27-.65.42-.97.24-.32.42-.68.77-.93.16-.13.33-.28.5-.38.18-.08.37-.17.55-.25,1.02-.37,1.96-.34,2.8-.23.86.09,1.64.32,2.43.53.03,0,.06.02.09.03l.05.02c.94.43,1.71,1.02,2.41,1.65,1.23,1.11,2.28,2.43,2.8,3.86,1.27,2.06,1.53,3.28,1.82,4.32.15.38.2.82.19,1.27,0,.64-.54,1.16-1.18,1.15-.6,0-1.08-.47-1.14-1.05v-.02c-.01-.11-.02-.28-.01-.35v-.18s.05-.32.05-.32c.02-.2.05-.4.07-.59.04-.38.05-.76-.03-1.13-.29-1.49-.26-1.17.13-3.25.22-.36.62-1.49.49-1.88.36-1.06.49-2.07.54-2.16.78-1.61.11-1.42,1.02-3.06.21-.97.46-1.46.24-1.99-.11-.28,0-.68.26-1.11.25-.4.32-.76.36-1.21.17-1.86,1.62-3.68,2.36-5.56.74-.94,1.34-2.19,2.81-3.03l.3-.17-.9.84c.41-.68,1.03-.96,1.37-1.05.39-.1.61-.1.86-.09.39.03.69.12.92.21.47.18.8.41,1.09.64.56.46.95.97,1.25,1.48.58,1.02.8,2.04.8,2.98.01.52.24,1.49.38,2.08.25,1.01-.22,1.84-.11,2.76.12,1.09-.36,1.67-.67,2.33-.27.52-.48,1.01-.41,1.72.09.99-.2,2.11-.35,3.18-.16,1.12-.74,2.08-.79,3.18-.02.25-.05.46-.14.76-.03.12-.1.31-.19.5-.03.06-.09.16-.14.23-.08.1-.03.09-.29.35-.1.1-.22.18-.33.25-.01.01-.22.12-.42.18-.2.06-.42.07-.62.06-.37-.02-.83-.24-1.1-.53-.17-.18-.3-.37-.39-.64-.09-.26-.11-.53-.08-.78.17-1.1.51-2.07.46-3.07-.05-.93.42-1.47.59-2.38.78-.73,1.25-1.86,1.69-3.22.48-1.43.9-2.92,2.11-4.21.36-.4.69-1.16,1.14-1.74.45-.56.96-1.15,1.62-1.58,1.21-.82,2.58-.97,3.98-1.14.19-.02.39,0,.57.04.34.09.66.28.89.53.1.11.2.23.27.35.06.1.12.21.17.32.29.76.24,1.14.25,1.52,0,.37-.04.68-.08.99-.09.58-.19,1.16-.29,1.83-.13.88-.79,2.36-1.04,3.2-.55,1.88-.42,3.57-1.42,5.07-.24.8-.6,1.63-.52,2.38.06.45.05.91.02,1.25l-.02.21s0,.05,0,.05c-.03,0,.07,0-.09,0-.11,0-.2,0-.28,0-.17,0-.33.01-.5.04-.6.04-1,.25-.98.31.06-.01-.02-.47-.36-.97l-1.1.17.04-.06c.14-.18.33-.39.39-.55.45-1.23.97-2.43,2-3.37.57-.97,1.24-1.85,2.15-2.65.43-.38.79-.85,1.23-1.33.45-.46,1-.97,1.95-1.2.73-.18,1.71-.24,2.59.09.87.32,1.49.87,1.93,1.37.22.25.4.51.55.78.13.27.24.55.35.83.25.58.25,1.15.3,1.74.05.42-.04.82-.06,1.23-.02.4-.05.78-.07,1.12,0,1.94-.53,3.62-1.14,5.22-.66,1.57-1.49,3.04-2.49,4.39-.73,1.02-1.23,2.07-1.89,3.22-.38,1.01-.88,1.5-1.43,1.78-.29.14-.36.47-.39.87-.63,1.68-1.99,2.5-2.38,3.29-.53,1.14-1.17,2.23-2.16,3.13-.41.37-.95,1.02-1.15,1.46-.44,1.01-1.01,1.73-1.77,2.53-1.03,1.07-1.94,2.27-2.45,3.65-.41,1.11-1.22,2.15-1.98,3.21-.98,1.37-2.25,2.5-2.96,4.11-.07.16-.25.38-.39.52-.84.84-1.62,1.71-2.31,2.64-.68.94-1.28,1.94-1.81,3.03-.23.48-.77,1.14-1.19,1.53-.73.66-1.46,1.31-2.09,2.03-.63.72-1.2,1.5-1.74,2.34-.19.31-.58.74-.88.96-1.21.93-2.41,1.9-3.56,2.95-1.11,1.08-2.31,2.07-3.49,3.06l-1.43,1.17-1.5,1.05c-1.01.68-2.01,1.38-3.07,1.96-.58.31-1.13.57-1.64,1.01-1.34,1.14-2.84,2.05-4.5,2.57-1.03.35-2.01.87-2.84,1.53-1.39,1.11-2.95,1.72-4.63,2.2-.78.21-1.64.51-2.41.88-2,.86-4.13,1.42-6.05,2.42-1.96,1-4.11,1.35-6.11,2.22-1.18.49-2.21,1.26-3.53,1.45-1.31.21-2.44.7-3.65,1.15-1.07.4-2.06.38-3.02.45-1.05.08-1.74-1.16-1.05-1.77.04-.04.43-.38.57-.38.35-.23,2.51-1.33,4.39-1.9,1.03-.32,2.06-.68,3.09-.81.84-.13,1.59-.4,2.3-.86.85-.55,1.89-1,2.9-1.23.83-.19,1.66-.4,2.48-.66.81-.28,1.61-.57,2.41-.88,1.6-.63,3.21-1.25,4.78-1.93.97-.43,1.96-.85,2.94-1.26.38-.16.84-.24,1.15-.43l1.38-.81,1.37-.83c.92-.54,1.86-1.06,2.8-1.57,1.88-1.03,3.67-2.21,5.44-3.38,1.01-.78,1.69-1.25,2.6-2.1.37-.35.74-.66,1.13-.95.38-.3.75-.62,1.16-.93.81-.63,1.76-1.26,2.87-2.17.66-.37,1.34-.91,2.02-1.33.54-.34,1.01-.72,1.39-1.23.85-1.2,1.85-2.28,2.79-3.43.92-1.17,1.92-2.27,2.74-3.51,2.39-2.59,5.1-6.69,5.27-7.11.63-.86,1.31-1.69,1.99-2.52.54-.66,1.11-1.27,1.66-1.92.72-.85,1.28-1.76,1.6-2.69.34-.96.91-1.82,1.7-2.55,1.4-1.29,2.52-2.78,3.3-4.53.78-1.74,1.87-3.25,3.2-4.65,1.16-1.23,2.07-2.64,2.61-4.23.38-1.17,1.12-2.21,1.89-3.2.36-.47.9-1.02,1.02-1.47.15-.52.55-1.27.84-1.94.29-.67.55-1.24.54-1.38-.03-.27.2-.79.33-1.09.21-.45.33-.88.46-1.3.15-.43.23-.85.28-1.28.16-.91-.15-1.71-.35-2.35-.14-.21-.21-.53-.34-.7-.11-.18-.14-.23-.04-.25.1-.05.2-.11.14-.12-.07.01-.22.08-.4.22-.36.28-.74.75-1.22,1.16-.84.7-1.6,1.71-2.29,2.73-.71,1.05-1.35,2.23-1.63,3.32-.06.25-.21.45-.41.58l-.34.23c-.11.08-.23.14-.34.21-.19.09-.33.15-.61.21-.16.03-.33.04-.49.04-.15,0-.43-.04-.64-.11-.22-.07-.42-.17-.61-.3-.18-.13-.38-.31-.46-.42-.12-.14-.25-.34-.32-.48-.06-.11-.11-.23-.15-.35-.08-.22-.1-.35-.13-.52-.04-.26-.06-.47-.06-.65,0-.36.03-.63.07-.91.09-.53.23-1.01.37-1.46.3-1.03,1.29-4.12,1.55-4.54,1.05-1.8,1.43-4.1,1.81-6.09.09-.49.13-.98.13-1.41,0-.21,0-.42-.03-.56,0-.13-.08-.28,0,.01.01.03.04.11.08.19.03.06.1.18.2.3.18.22.55.51.94.59l.83.06c-.43.04-.92,0-1.36.2-.39.16-.58.72-1.04.69-.59-.02-.98.27-1.4.99-.49.89-.68,1.83-1.43,2.89-.51.73-.67,1.69-1.17,2.6-.55.99-.99,2.27-1.18,3.43-.2,1.2-.74,2.27-.91,3.32l-.08-.87c-.05-.16-.12-.29-.2-.41-.1-.14-.12-.18-.34-.38-.2-.17-.45-.29-.69-.36-.22-.06-.48-.09-.74-.05-.13.02-.25.05-.37.1-.11.04-.24.11-.24.11-.06.03-.13.07-.19.12-.12.08-.24.21-.31.3-.08.07-.16.24-.14.19-.02.03,0-.07.01-.14.07-.5.22-1.12.39-1.67.17-.56.36-1.13.52-1.73.3-1.13.52-2.26.68-3.47.17-1.21.31-2.3.19-3.36-.18-2.08-.35-4.16-.78-5.36-.06-.18-.15-.32-.18-.39-.01-.03-.03-.05.06-.03.06.01.11.03.33.03.06,0,.1,0,.18-.02.1-.01.2-.04.29-.07.12-.04.31-.13.44-.23.16-.11.38-.33.48-.54l-.81.75c-.41.15-.96.68-1.4,1.36-1.09,1.68-1.82,3.88-2.9,5.84-.31.58-.36,1.16-.49,1.75-.66,3.08-1.2,6.15-2.23,9.16-.31.91-.43,2.08-.52,3.1-.02.19-.03.39-.03.58,0,.09,0,.19,0,.26v.11s.02-.1,0-.14l-3.26.11c-.05-.36-.21-.83-.4-1.3-.06-.93-.51-1.94-1.05-2.86-.54-.94-1.18-1.81-1.72-2.68-.22-.37-.44-.56-.78-.77-.46-.24-.98-.46-1.37-.67l-.27-.15.19.07c-.62-.17-1.27-.37-1.86-.41-.31-.06-.58-.05-.83-.04-.29-.03-.43.07-.63.08-.26.15-.19.06-.32.29-.1.24-.19.78-.17,1.38.28,1.01.82,2.06,1.35,3.11l.12.25s.05.1.06.15l.03.1c.68,2.11,1.01,4.34,1.25,6.51.16,1.4.11,2.68-.1,4.09-.06.44-.14.88-.23,1.33-.1.46-.18.85-.35,1.42-.05.18-.14.35-.24.49-1.59,2.3-3.34,4.46-5.25,6.46-2.51,2.58-5.23,4.91-8.09,7.03-.87.67-1.83,1.21-2.76,1.76-.76.46-1.56.9-2.15,1.47-1.22,1.2-2.71,2.13-4.22,3.05-4.34,2.65-8.81,5.05-13.35,7.26-1.57.77-3.19,1.18-4.8,1.99-1.29.65-2.75,1.29-4.18,1.57-3.85,1.58-7.75,3.05-11.69,4.41-1.24.43-2.49.84-3.75,1.22-.66.2-1.27.24-1.71.13-.66-.04-.86.48-1.55-.55-.17-.09.21-1.04.42-1.19,1.41-1.06,2.79-1.14,4.63-2.06,1.26-.63,2.99-1.13,4.38-1.7Z"/>
  <path class="cls-1" d="M171.48,182.62c-27.14,2.79-47.79-2.03-61.91-14.47-14.18-12.41-22.35-29.42-24.56-50.98-2.21-21.56,2.33-39.84,13.69-54.9,11.33-15.06,30.3-23.94,56.89-26.68,26.59-2.73,47.63,2.04,61.52,14.51,13.89,12.44,21.95,29.46,24.17,51.02,2.21,21.56-2.23,39.83-13.29,54.86-11.07,15.01-29.9,23.9-56.47,26.63"/>
  <path class="cls-3" d="M153.79,28.99c2.68-12.44,10.67-28.49,32.59-28.99-.69,8.77-5.35,29.31-29.49,35.9.4,1.2.7,2.31.92,3.29l.13.62.02.14c.21,1.41-.73,2.76-2.14,3.04-1.42.28-2.8-.6-3.15-1.98l-.03-.14-.11-.54c-1.27-5.68-5.67-15.95-16.44-19.75l-.54-.18-.13-.05c-1.33-.51-2.05-1.98-1.6-3.36.45-1.37,1.89-2.14,3.27-1.77l.13.04.66.22c7.81,2.75,12.81,8.18,15.9,13.51Z"/>
  <ellipse class="cls-2" cx="175.85" cy="94.49" rx="3.92" ry="5.23" transform="translate(-7.82 16.28) rotate(-5.19)"/>
  <ellipse class="cls-2" cx="206.09" cy="87.68" rx="3.92" ry="5.23" transform="translate(-7.08 18.98) rotate(-5.19)"/>
  <path class="cls-2" d="M207.16,108.24c-.55.83-4.09,3.13-5.06,3.51-2.68,1.03-8.44,1.63-11.31,1.71-1.4.04-4.62-.66-5.62-1.64-2.63-2.61.69-3.25,3.08-3.42,1.93-.13,2.98.65,4.62.74.93.05,5.59-.78,6.62-1.07,2.25-.64,4.31-3.32,5.88-3.54,2.59-.36,3.02,1.88,1.79,3.72h0Z"/>
  <path class="cls-3" d="M105.36,111.53c-1.67.5-3.1,1.3-4.79,1.51-.77.09-1.47.73-2.33.69-.53-.02-1.08.24-1.64.24-.73,0-1.23.21-1.98.58-.46.19-.72.35-1.72.66-.78.24-1.21.27-2,.68-.7.36-1.98.34-2.73.67-1.53.67-2.77.62-4.38,1.55-1.46.66-3.01.88-4.32,1.22-1.69.4-3.4.76-5.11,1.07-.41.07-.83.06-1.23.06-.86,0-1.63.18-2.44.48-1.53.6-6.29.88-6.98,1.11-.48.15-2.56.55-4.63.79-2.06.26-4.11.39-4.43.36-.42-.03-.8-.12-1.11.04-.67-.12-1.66.12-2.22-.09-.68-.05-1.15-.12-1.66-.17-.5-.06-1.03-.06-1.86-.14-.61-.06-1.22-.24-1.82-.48-.6-.26-1.17-.53-1.74-.69l-.08-.02c-.05-.02-.11-.04-.15-.07-.32-.23-.57-.41-.89-.56-2.49-1.93-3.66-3.49-4.04-3.75-.63-.53-.61-.99-1.2-1.55-.84-.77-1.42-2.94-1.71-3.08-.24-.1-.42-.43-.62-.72l-.06-.17c-.07-.14-.15-.28-.25-.38-.66-.65-.92-1.66-1.16-2.62-.05-.26-.26-.42-.44-.59-.18-.16-.36-.25-.39-.45-.04-.14-.09-.29-.16-.45-.07-.08-.15-.25-.24-.3-.08-.06-.18-.14-.29-.13-.1-.06-.25.04-.39.06-.41.21-.88.61-1.29,1.14-.43.49-.78,1.11-1.15,1.69l.07-.13c-.26.65-.41,1.42-.48,2.21-.13,1.36.03,2.78-.03,4.13.47,2.08.89,3.04,1.38,3.64.22.2.4.37.55.54l-.95.91c-.21.13-.41.26-.6.41l-.14.11s-.1.08-.08.07h0s.04.05.01.02l-.08-.08-.18-.18c-.13-.12-.27-.25-.4-.36-.28-.23-.58-.44-.92-.56-1.38-.49-1.08-.37-2.66-1.65-.2-.36-1-1.2-1.4-1.24-.77-.76-1.61-1.26-1.68-1.33-1.14-1.3-1.21-.61-2.39-1.98-.81-.48-1.2-.83-1.76-.75-.28.04-.62-.13-.95-.48-.31-.31-.63-.44-1.03-.54-1.62-.39-3.18-1.85-4.78-1.89-.83-.34-1.75-.19-2.2-.11l-.15.02-.61-1.9s.05.27.24.44c.17.18.39.32.59.44.21.11.4.19.59.25l.07.02h0s0,0,0,0v.02c-.03.07-.04.26-.03.47.02.43.15.99.29,1.61.08.35.6.9.98,1.16.64.44.81,1.22,1.5,1.61.81.43.99,1.04,1.38,1.6.36.45.7.88,1.35,1.21.94.47,1.69,1.23,2.54,1.85.86.63,1.45,1.57,2.32,1.89.21.08.41.17.57.24.07.03.16.07.15.06-.18.52-.38.84-.41,1.25-.02.06-.04.11-.03.17,0,.06.03.12.02.12.02.03.02.01,0,.01,0,0-.02,0-.03,0l-1.53.4c.02.07.04.14.07.2l.46.64c-.62-.54-1.31-1.19-2.11-1.44-.81-.25-1.11-.83-1.87-1.2-.41-.9-1.37-1.57-2.58-2.04-1.29-.5-2.56-.72-3.85-1.31-.41-.18-1.08-.1-1.61-.08-.53,0-1.04.09-1.52.11-.93.09-1.86-.09-2.67.53l-.54-1.04s-.02-.02-.01-.01c.05.03.4,0,.83-.24l.18-.09c.07-.04.13-.07.11-.06,0,0,0,0,.01,0l.06.06c.1.1.25.25.42.39.34.29.75.59,1.25.88.67.4,1.82,1.42,2.54,1.87,1.62,1.01,3.3,1.27,4.51,2.65.73.45,1.43,1.05,2.23,1.27.5.14.98.36,1.45.7.24.18.48.38.75.68.13.15.29.34.47.65.05.09.1.19.15.29.07.15.12.31.16.47.05.28.09.47.05.83-.05.37-.18.71-.4,1.01-.19.26-.34.37-.52.5-.21.14-.32.18-.45.23-.31.12-.41.1-.6.14l-.22.04c-.28.05-.56,0-.79-.15-.07-.04-.14-.08-.21-.09-1.15-.21-2.31-.4-3.38-1.01-.98-.18-1.9-.4-2.82-.66-.88-.26-1.81.19-2.35.12-.1-.01-.2-.02-.22,0-.03,0-.04,0-.03,0-.06-.09-.18-.21-.18-.22-.11-.11-.09-.07-.01-.04.08.04.16.06.23.06.06.02.17.04.21.05h.03c.13.09.27.71.47,1.24.09.2.15.43.28.64.15.21.3.41.47.55,2.07,1.61,4.59,2.95,7.21,4.56,1.01.57,2.05.88,3.24,1.24,1,.14,1.56.46,1.97.91.21.23.53.22.9.12,1.71.08,2.88,1.05,3.74,1.13,1.22.05,2.41.25,3.61.74.49.21,1.29.43,1.76.42,1.07-.04,1.95.11,2.99.43,1.39.44,2.86.59,4.28.39,1.15-.18,2.5.01,3.79.17,1.67.2,3.27.8,4.99.63.17-.02.44.03.63.09,2.24.67,4.48.94,6.78.6.5-.08,1.32,0,1.86.12,1.84.46,3.65.61,5.52.24.34-.08.89-.09,1.23-.02,1.43.28,2.9.36,4.37.29.74-.02,1.47-.07,2.21-.11.74-.07,1.47-.14,2.2-.21,2.34-.17,4.65-.47,6.97-.57.63-.02,1.22-.06,1.83-.26,1.61-.54,3.27-.7,4.95-.73,1.05-.02,2.12-.22,3.07-.59,1.6-.6,3.17-.92,4.88-1,.79-.04,1.68-.14,2.48-.33,2.07-.5,4.2-.8,6.2-1.5,2.03-.69,4.13-1,6.15-1.69,1.18-.42,2.25-1.05,3.54-1.25,1.28-.2,2.41-.67,3.59-1.11,1.05-.39,2.03-.36,2.99-.42,1.04-.07,1.76,1.16,1.08,1.77-.04.04-.43.38-.57.37-.35.23-2.52,1.31-4.41,1.88-1.04.3-2.07.69-3.1.77-.86.07-1.62.29-2.36.71-.89.5-1.97.88-2.99,1.04-1.69.28-3.38.6-5.06,1-1.68.39-3.35.86-5.06,1.18-1.05.22-2.11.41-3.17.6-.41.07-.87.05-1.22.17-2.04.65-4.17,1.08-6.3,1.51-2.15.35-4.3.7-6.43,1.05-1.28.21-2.12.29-3.36.61-1.02.28-1.97.32-3.03.39-1.06.04-2.23.1-3.7.09-.77-.14-1.67-.18-2.47-.3-.64-.09-1.25-.11-1.89-.02-2.95.41-6.06.23-9.08.19-3.58-.43-8.48-.91-8.93-.84-1.06-.13-2.11-.34-3.15-.54-.83-.18-1.64-.35-2.46-.53-1.09-.22-2.13-.24-3.1-.09-1,.17-2.05.09-3.08-.26-1.82-.66-3.65-.95-5.6-.95-.97.02-1.92-.09-2.86-.31-.94-.2-1.86-.5-2.77-.9-1.59-.67-3.22-1.14-4.95-1.3-.63-.07-1.26-.23-1.88-.45-.61-.24-1.2-.56-1.77-.89-.54-.3-1.17-.81-1.65-.94-1.13-.26-3.24-1.65-3.52-1.71-.29-.04-.83-.41-1.13-.66-.44-.37-.86-.71-1.28-1.05-.4-.38-.79-.76-1.21-1.17-.79-.91-1.78-1.73-2.3-3.1-.22-.52-.45-1.11-.45-1.92-.03-.78.28-1.75.81-2.29.61-.63,1.27-.93,1.82-1.13.56-.2,1.04-.29,1.51-.37.93-.14,1.76-.17,2.57,0,1.36.3,2.69.63,3.99,1.01,1.22.36,2.34.68,3.55.94l-1.04-.11s-.09,0-.13.01c-.06.01-.2.05-.29.1-.08.04-.19.1-.27.17-.08.07-.16.14-.29.29-.21.28-.34.6-.37.94-.01.18-.01.24,0,.37,0,.1.05.25.05.28.01.09.09.26.09.28.05.12.05.15.05.18-.06.07-.35-.15-.63-.35-.31-.24-.63-.48-.94-.72-.7-.56-3.4-2.26-3.76-2.61-1.48-1.48-3.62-2.37-5.53-3.64-.47-.32-.97-.62-1.49-1.01-.26-.2-.53-.42-.83-.75-.15-.17-.32-.38-.49-.69-.15-.32-.41-.82-.31-1.69.05-.37.19-.73.41-1.07.15-.24.36-.44.58-.59.87-.58,1.91-.87,2.89-1.1.69-.17,1.53-.64,2.13-.34.75.36,1.33.42,2.45.44,1.32.04,2.59.03,4.01.78.94.51,2.04.77,3.02,1.47,1.04.76,2.27,1.57,3.39,2.22,1.11.65,1.85,1.54,2.77,2.35l.03.03c.22.19.38.43.48.68.09.22.13.42.14.62.02.14,0,.56-.15.88-.15.34-.34.57-.63.79-.14.1-.3.19-.46.25-.08.03-.16.05-.23.07l-.09.02c-.22.04-.47.04-.69.01-.14-.02-.17-.03-.26-.06-.37-.1-.39-.14-.57-.22-.2-.1-.4-.2-.6-.3-1.45-.72-2.16-1.63-3.12-2.5-.88-.82-1.77-1.62-2.66-2.32-.89-.67-1.96-1.33-3.01-2.03-1.05-.69-2.04-1.58-2.85-2.74-.8-1.15-1.47-2.59-1.46-4.37.01-.53.07-1.09.26-1.71.11-.31.23-.63.48-1.01.14-.19.27-.39.58-.64.12-.1.38-.27.64-.37.19-.07.4-.12.6-.14.25-.02.57.02.82.1l-1.11-.03c1.5-.32,2.75-.12,3.93.12,2.66.61,4.97,1.72,6.83,3.25.54.45,1.1.65,1.67.96,2.91,1.58,5.61,3.42,7.82,5.84.67.73,1.62,1.44,2.48,2.14l.51.41.27.22.15.13c.05.04.21.22.3.33.54.72.39,1.74-.33,2.28-.64.48-1.51.42-2.07-.1l-.12-.11c-.7-.64-1.16-1.3-1.57-1.98-.37-1.3-.7-2.55-.91-3.83-.21-1.28-.28-2.58-.03-3.79.09-.49.14-.85.11-1.34-.03-.65-.03-1.41.24-2.11l.22-.56h0c.02-.07.05-.13.09-.18.44-.65.8-1.32,1.35-1.97.13-.16.25-.33.39-.49l.49-.48c.29-.32.75-.62,1.2-.89.21-.14.55-.23.83-.32.28-.11.61-.14.96-.13.17,0,.34,0,.51.02.16.03.32.08.48.13.32.1.63.22.85.38,1.02.64,1.5,1.45,1.84,2.2.85,1.21,1.44,2.43,1.89,3.7l.15.43-.1-.25c.85,1.67,1.85,3.31,3.1,4.64.83.86,1.55,1.64,2.4,2.45.29.27.58.54.88.78.28.24.65.5.86.64l-.55-.22c2.25.57,4.73.7,7.2.7,3.33,0,6.7-.33,10.07-.74,1.04-.12,2.1-.2,3.14-.26.86-.05,1.74-.15,2.48-.43,1.54-.58,3.2-.92,4.87-1.28,4.8-1.05,9.58-2.25,14.32-3.62,1.64-.47,3.26-.62,4.93-1.19,1.33-.46,2.82-.91,4.25-1.04,3.91-1.16,7.81-2.39,11.69-3.66l3.67-1.21c.64-.21,1.23-.26,1.67-.16.65.02.81-.5,1.54.49.17.08-.14,1.04-.35,1.21-1.37,1.12-2.76,1.22-4.59,2.14-1.27.63-3.01,1.09-4.43,1.61Z"/>
  <path class="cls-3" d="M111.46,175.59c-.72.52-1.16,1.31-2.03,1.6-.4.13-.53.72-1.05.73-.32,0-.53.26-.85.29-.42.03-.63.22-.94.57-.2.18-.3.34-.8.61-.39.21-.63.23-1.01.58-.34.31-1.09.2-1.47.44-.79.5-1.49.3-2.33.97-.78.43-1.62.4-2.31.53-.9.11-1.79.19-2.69.24-.21.01-.44-.07-.64-.13-.45-.14-.85-.06-1.27.12-.81.34-3.27.02-3.63.17-.49.24-4.33.48-4.65.39-.21-.04-.4-.15-.56,0-.34-.16-.84.11-1.12-.11-.69-.11-.94-.18-1.76-.16-.78.01-1.57-.88-2.31-.63-1.54-.08-2.51-.11-2.74-.04-.41.14-.56-.19-.97-.05-.55.19-1.6-.5-1.7-.28-.08.23-.2.17-.2.38.06.46.11.28-.18.3-.07,0,0,.07.07.09.06.11.12.29.02.4-.35.43-.53.92-.55,1.49-.05,1.22-.08,2.44-.15,3.65-.04.77-.06,1.56-.42,2.25-.04,1.17-.16,1.73-.11,2.21.22.6-.19,1.14.12,1.69.43.76.37.6.24,1.66-.17.18-.41.76-.22.96-.2.54-.17,1.06-.19,1.1-.49.83.13.72-.44,1.58-.01.5-.13.75.2,1.02.17.14.17.34.02.57-.14.21-.11.4-.03.62.35.93-.43,1.93-.15,2.87-.16.52.02,1.1-.07,1.63-.08.44-.13.87-.23,1.3-.12.54-.19.53-.37.77-.09.12.09.3.25.34.26.05,0,.42.3.44.31-.04.16.32.26.57.06.2.2.38.44.25.08-.05.15-.07.23-.1.08-.02.11-.02.3-.03h.9c.61,0,1.13.43,1.67.26.76-.24,1.48.32,2.18,0,.46-.21.72.13,1.17.09.37.59.97.75,1.66.69.74-.05,1.45-.25,2.22.05.24.09.62-.1.94-.14.32-.04.64-.1.96-.08.65.05,1.18.56,1.86.49.63-.08,1.1.01,1.73-.07.42-.05,1.2.2,1.64.21.98.03,1.78-.6,2.65-.06.43,0,.88.14,1.26-.13.48-.33.97-.37,1.51-.14.1.04.23.11.31.08.62-.22,1.23-.4,1.87-.1.53-.08,1.04-.1,1.58.02.52.11,1-.39,1.56-.21.45.15.84.04,1.24-.14.4-.18.83-.18,1.27-.11.31.05.67.12.95.02,1.56-.55,3.11-.73,4.76-.48.62.1,1.17-.09,1.81-.2.49-.27.84-.16,1.15.12.16.14.3.02.44-.21.8-.52,1.6.06,2.01-.14.58-.29,1.17-.49,1.86-.32.28.07.71.07.92-.07.48-.33.93-.38,1.48-.34.75.05,1.48-.11,2.05-.66.46-.45,1.09-.58,1.69-.76.76-.23,1.66-.12,2.29-.75.06-.06.19-.09.29-.1,1.17-.03,2.2-.47,2.87-1.46.14-.22.48-.39.75-.46.92-.19,1.71-.63,2.15-1.52.08-.16.28-.34.45-.4,1.43-.48,2.38-1.69,3.39-2.76.82-.86,1.63-1.73,2.58-2.49.26-.21.51-.38.66-.69.4-.81,1.03-1.41,1.83-1.83.5-.26.89-.67,1.11-1.17.38-.84.98-1.42,1.8-1.84.38-.19.76-.46,1.05-.77.74-.81,1.7-1.41,2.32-2.33.62-.93,1.62-1.48,2.29-2.35.39-.51.58-1.19,1.18-1.54.6-.34.94-.87,1.34-1.39.36-.46.92-.58,1.41-.77.54-.21,1.65.64,1.63,1.2,0,.04-.02.36-.1.37-.06.23-.62,1.37-1.34,2.08-.39.39-.75.82-1.25,1.06-.42.2-.7.49-.85.93-.18.52-.53.99-.99,1.28-1.51.96-2.66,2.3-3.93,3.53-.39.38-.8.75-1.21,1.11-.16.14-.41.22-.51.38-1.17,1.88-2.91,3.31-4.28,5.03-.41.52-.71.82-1.04,1.41-.53.96-1.31,1.45-2.46,2.45-.41.15-.79.41-1.2.58-.33.13-.58.33-.77.61-.91,1.31-2.29,2.24-3.58,3.24-1.76.85-4.13,1.95-4.32,2.13-.54.2-1.11.32-1.66.42-.45.08-.9.11-1.34.17-.58.09-1.09.3-1.49.7-.42.41-.94.59-1.53.5-1.04-.15-1.98,0-2.88.54-.9.54-1.87.65-2.9.48-.9-.16-1.75-.01-2.55.46-.59.35-1.26.37-1.94.24-.32-.06-.72-.2-.96-.09-.54.25-1.78.21-1.9.35-.12.14-.44.12-.62.12-.55,0-1.02.01-1.55.06-.54.05-1.05.33-1.6.42-.43.07-.97.15-1.31,0-.8-.35-1.51.19-2.27.07-.65-.1-1.33-.09-1.99-.09-.78,0-1.55.09-2.26.44-.38.19-.87.14-1.32.09-.5-.05-2.17-.13-2.42-.24-1.04-.5-2.23-.2-3.35-.16-.55.02-1.1.2-1.65.2-.43,0-.85-.22-1.29-.27-.29-.03-.67.31-.89,0-.28-.4-.55-.46-1.06-.35-.61.14-1.18.46-1.91.21-.49-.17-1.04.02-1.6-.19-.6-.22-1.32-.36-1.97-.33-.83.03-1.47-.54-2.19-.43-.69.11-1.2-.19-1.79-.31-.28-.06-.53-.1-.82-.12-.44-.03-.88-.07-1.31-.18-.86-.19-1.7-.53-2.51-1.04-.81-.49-1.47-1.35-1.73-2.35-.15-.5-.17-1.02-.13-1.53.03-.24.08-.53.14-.71.05-.14.11-.28.17-.42.37-.81.51-1.65.58-2.54.09-1.2.12-2.42.66-3.53.16-.32.07-.63.06-.95-.04-1.65.02-3.26.68-4.83.2-.47.2-1.07.21-1.61,0-.54-.09-1.08-.14-1.62.51-1.09.3-2.39.8-3.49.1-.22.12-.39.06-.62-.09-.3-.21-.64-.17-.94.09-.76.06-1.53.07-2.3,0-.38.03-.76.08-1.14.03-.19.06-.38.1-.56.06-.23.13-.45.19-.69.06-1.18.86-2.4,2.1-2.83.26-.09.53-.16.81-.18.14-.01.28-.02.41-.02l.32.02.81.05c.54.04,1.08.05,1.62.01.65-.05,1.24,0,1.88.07,1.72.19,3.46.2,5.19.22,1.73.02,3.46-.02,5.2-.07.53-.01,1.08.06,1.61.12.44.05.89.08,1.28-.1.8-.37,1.65-.45,2.51-.55,2.47-.31,4.98-.61,7.05-1.32.72-.24,1.47-.22,2.12-.65.52-.34,1.1-.71,1.81-.83,1.58-1.05,3.2-2.42,4.86-3.71l1.57-1.21c.28-.21.6-.28.9-.22.39,0,.25-.46,1.12.35.14.07.38.89.34,1.04-.29,1-1.05,1.15-1.68,2.02-.44.6-1.22,1.09-1.79,1.61Z"/>
  <path class="cls-3" d="M209.38,170.33c1.04.46,2.14.51,3.06,1.17.42.3,1.09.13,1.49.58.25.28.65.33.92.61.36.36.71.43,1.27.49.32.07.54.06,1.19.3.5.19.73.38,1.34.43.53.05,1.14.71,1.69.82,1.11.23,1.66.9,2.97,1,1.07.25,1.92.91,2.72,1.35l.4.24c.53.32.81.91.76,1.49v.02c-.1,1.07-.31,2.19-.7,3.25-.1.29-.3.54-.48.77-.39.49-.58,1-.72,1.59-.27,1.12-2.15,3.58-2.27,4.08-.13.67-2.43,4.99-2.7,5.3-.18.21-.39.36-.36.62-.36.29-.44.98-.81,1.18-.54.7-.75.95-1.26,1.86-.48.87-1.76,1.33-2,2.27-1.03,1.69-1.63,2.76-1.7,3.05-.12.52-.5.55-.62,1.07-.16.71-1.37,1.57-1.27,1.84.11.29-.19.61-.16.94.07.71-.4,1.31-.99,1.8-.31.25-.15.83-.47,1.01-.58.32-1.04.79-1.41,1.43l-2.36,4.05c-.25.42-.5.86-.78,1.27-.14.2-.29.4-.44.59-.08.09-.16.18-.25.27l-.13.13-.09.07c-.3.82,0,1.29.28,1.47.45.08.59.51,1.14.13.98-.5.79-.43,2.24-.31.26.18,1.04.44,1.3.27.73.24,1.41.26,1.47.3,1.07.6.97-.04,2.04.67.64.1.96.27,1.33-.02.19-.15.45-.1.73.09.25.18.49.19.79.15,1.22-.17,2.39.81,3.6.68.64.25,1.37.16,2.03.34,1.08.29,2.17.47,3.13,1.06.25.16.83.15,1.19.09.6-.11,1.01.41,1.58.31.67-.11.97.32,1.38.58.33.21.65.4,1.13.31.67-.13,1.37.09,2.05.16.69.06,1.36.56,1.95.41.3-.12.57-.1.86-.13.28-.03.58-.14.7-.44.13-.38.48-.27.64-.59.3.05.58-.05.75-.25.1-.12.14-.18.23-.39.07-.2.14-.41.19-.63.22-.94.29-1.89.9-2.76.19-.27.15-.8.25-1.21.09-.41.18-.83.34-1.21.33-.8,1.07-1.29,1.31-2.15.22-.8.55-1.33.77-2.14.15-.54.8-1.38,1.04-1.9.53-1.17.41-2.38,1.39-3.19.25-.5.63-.99.61-1.55-.02-.71.25-1.31.78-1.83.1-.09.23-.22.26-.32.19-.82.43-1.62,1.1-2.22.27-.65.6-1.24,1.06-1.79.44-.53.35-1.34.9-1.87.43-.42.62-.92.76-1.46.14-.55.44-1.02.83-1.46.27-.31.6-.67.72-1.02.73-2.03,1.82-3.83,3.36-5.36.57-.57.88-1.25,1.3-1.96.18-.67.53-.94.97-1.06.23-.06.24-.29.18-.58.19-1.12,1.19-1.57,1.29-2.11.14-.76.34-1.47.86-2.12.22-.27.46-.73.43-1.04-.04-.69.14-1.2.42-1.82.39-.82.53-1.75.22-2.64-.25-.71-.18-1.49-.19-2.26-.02-.98.28-2.02-.24-2.96-.05-.09-.07-.25-.06-.37.14-1.42-.25-2.79-1.28-3.81-.23-.22-.43-.66-.5-.99-.23-1.13-.78-2.14-1.8-2.74-.18-.12-.41-.34-.49-.54-.72-1.65-2.32-2.69-3.83-3.5-.62-.35-1.17-.58-1.99-1-.74-.39-1.44-.83-2.1-1.3-.36-.26-.66-.52-1.09-.65-1.11-.37-2.01-.99-2.78-1.77-.48-.49-1.08-.83-1.72-.94-.53-.1-1.01-.24-1.47-.44-.49-.22-.97-.51-1.42-.86-.42-.33-.93-.64-1.44-.84-1.31-.52-2.51-1.33-3.86-1.69-1.38-.37-2.53-1.22-3.87-1.65-.79-.25-1.65-.25-2.36-.76-.71-.51-1.49-.71-2.29-.97-.35-.12-.64-.31-.9-.53-.05-.05-.07-.08-.07-.11-.02.06.06-.21.08-.33.03-.14.05-.24.05-.34.02-.18,0-.29-.01-.33v-.03s-.11-.19-.11-.19c0,.01.02.03.04.05.05.04.1.05.07.04-.02,0-.1,0-.15.01-.1.04-.07.06-.06.02.01-.06-.03.13-.05.21-.03.1-.07.2-.15.26-.08.07-.23.09-.39.01-.16-.08-.3-.24-.36-.44-.02-.05-.09-.29-.03-.56.04-.27.29-.59.48-.65.16-.14.6-.32,1.03-.29.21,0,.4.04.56.07.13.03.27.06.42.09.58.13,1.28.32,1.87.58.65.29,1.33.53,1.87.97.45.37.93.57,1.5.6.69.04,1.4.26,1.98.64,1.9,1.26,4.04,2.05,6.1,3,.64.29,1.28.6,1.91.92.25.12.47.35.71.41,2.9.71,5.23,2.69,7.67,3.89.74.36,1.2.62,1.97.81.59.13,1.27.42,1.9.81.64.4,1.32.89,2.12,1.55.33.46.76.91,1.07,1.39.24.39.54.68.9.94,1.72,1.18,2.92,3.04,4.03,4.84.48,1.17,1,2.57,1.34,3.75.34,1.17.55,2.09.63,2.24.11.75.12,1.51.1,2.25-.02.59-.12,1.17-.19,1.75-.09.76-.05,1.48.17,2.16.23.7.18,1.44-.16,2.13-.6,1.22-.95,2.42-1.02,3.79-.07,1.36-.65,2.61-1.55,3.63-.78.9-1.35,1.87-1.62,3.01-.2.84-.74,1.53-1.36,2.11-.3.28-.72.59-.82.89-.23.7-1.2,1.91-1.18,2.12.02.21-.23.52-.36.71-.4.56-.75,1.04-1.08,1.63-.34.59-.49,1.28-.79,1.9-.23.49-.53,1.1-.89,1.38-.84.65-.85,1.71-1.44,2.46-.5.65-.93,1.39-1.33,2.12-.47.86-.87,1.74-.96,2.7-.05.52-.38,1.02-.67,1.5-.33.54-1.29,2.38-1.52,2.62-1,.98-1.33,2.48-1.82,3.79-.24.65-.33,1.34-.57,1.98-.19.5-.58.93-.82,1.42-.16.33.02.88-.38,1.05-.5.21-.67.52-.76,1.16-.1.77-.01,1.53-.52,2.34-.33.55-.34,1.25-.74,1.88-.56,1.06-1.42,2.13-2.34,2.9-.58.5-1.3.74-1.98.85-.69.12-1.35.12-2.03.19-.74.04-1.06-.05-1.47-.16-.39-.12-.78-.25-1.18-.37-1.52-.43-3.05-.69-4.63-.56-1.56.13-3.13-.17-4.57-.84-1.04-.49-2.11-.76-3.26-.99-1.55-.3-3.12-.59-4.46-1.34-.39-.22-.79-.19-1.19-.23-2.07-.25-4-.5-5.91-1.11-.29-.09-.62-.13-.95-.13l-.5.02c-.27,0-.58,0-.86-.05-1.14-.17-2.26-.81-2.92-1.85-.45-1.22-.42-2.71.25-3.83.09-.16.14-.24.19-.31l.16-.24.34-.47c.23-.31.48-.6.76-.86.23-.21.35-.39.42-.68.1-.38.2-.82.42-1.14,1.09-1.65,1.79-3.56,3.21-4.98.35-.75.67-1.52,1.06-2.25.67-1.25,1.47-2.45,2.05-3.72.36-.78.76-1.43,1.23-2.14,1.25-1.89,2.39-3.85,3.54-5.8,1.16-1.94,2.27-3.9,3.39-5.86.35-.6.77-1.17,1.17-1.73.34-.46.67-.94.78-1.47.24-1.1.72-2.03,1.04-2.91.34-.93.5-1.86.57-2.91l1.03,2.07c-1.69-1.01-3.45-1.89-5.28-2.67-1-.43-1.83-1.1-2.92-1.44-.87-.27-1.82-.62-2.58-1.21-2.5-.96-5.07-1.89-7.62-2.99-.8-.35-1.61-.72-2.39-1.12-.42-.2-.71-.52-.83-.85-.26-.4-.67-.11-.33-1.26-.01-.16.73-.68.91-.68,1.24-.04,1.86.65,3.18.93.9.19,1.94.73,2.87,1.04Z"/>
  <g>
    <path class="cls-3" d="M46.02,173.04c-1.7,8.2-5.83,16.89-8.55,24.81-1.73,5.05-4.27,8.96-4.57,14.29-.07,1.3-.04,2.76.88,3.68.43.43,1.01.68,1.59.88,1.75.62,3.73.92,5.43.18,2.69-1.16,3.73-4.33,5.27-6.82,1.6-2.58,4.01-4.64,6.8-5.82,1.5-.64,3.21-1.1,4.15-2.43.83-1.17.84-2.7.99-4.13.3-2.94,1.31-5.76,2.3-8.54,1.18-3.29,4.43-8.62.16-10.86-1.5-.79-15.67-4.46-15.67-5.28"/>
    <path class="cls-3" d="M46.14,176.95c-.2.6-.03,1.26-.49,1.75-.21.22.09.64-.27.83-.22.12-.2.35-.41.49-.27.18-.28.38-.23.71,0,.19.05.32-.06.68-.08.28-.21.4-.14.76.06.31-.41.62-.4.93.04.64-.44.92-.19,1.7.07.63-.27,1.1-.4,1.56-.22.58-.46,1.16-.72,1.72-.06.13-.21.24-.33.33-.28.21-.34.49-.31.83.04.63-1,2.02-.96,2.31.05.4-.74,2.9-.88,3.08-.09.12-.24.2-.13.36-.23.16-.09.58-.36.68-.26.41-.37.55-.53,1.09-.14.51-1.14.76-1.03,1.33-.36,1.03-.56,1.68-.53,1.86.06.32-.28.33-.22.65.08.45-.74.91-.57,1.09.19.19.02.37.15.58.28.45.04.8-.34,1.07-.2.14.12.51-.11.6-.41.16-.69.43-.81.8-.28.79-.51,1.58-.75,2.36-.15.5-.25,1-.66,1.39-.13.77-.28,1.12-.23,1.45.19.42-.21.74.11,1.12.44.52.38.4.3,1.07-.17.11-.36.49-.15.6-.15.34-.04.62-.06.64-.35.52.23.33-.12.84.1.2.08.33.43.23.18-.06.22-.04.15.08-.06.11.02.12.12.07.22-.12.26-.02.44.12.16.14.42.3.74.19.28.19.65.03.94.12.48.14.92.14,1.34.53.11.1.35-.03.46-.17.18-.24.43.15.58-.09.15-.28.36.03.6.14.18.08.37.13.45-.1.09-.34.37-.4.55-.62.18-.22.66-.16.68-.54,0-.49.64-.62.52-1.18-.09-.37.28-.37.35-.67.61.02.89-.3,1.01-.78.13-.51.12-1.08.62-1.48.15-.12.09-.47.16-.71.06-.24.13-.5.27-.71.3-.44.94-.51,1.17-.99.23-.45.52-.68.77-1.12.17-.3.78-.56,1.03-.79.55-.51.67-1.41,1.55-1.38.28-.2.64-.28.76-.66.15-.48.49-.72.98-.71.09,0,.21.01.26-.04.34-.41.76-.78,1.32-.66.34-.22.67-.34,1.05-.35.37,0,.44-.57.79-.52.28.04.42-.15.46-.37.04-.23.16-.29.32-.32.12-.02.26-.06.24-.17-.13-.6-.07-1.27.46-2.41.2-.41.12-.88.16-1.38-.15-.43.05-.67.4-.81.18-.07.09-.21-.08-.38-.27-.74.53-1.12.47-1.46-.08-.5-.05-.98.35-1.37.17-.16.33-.43.28-.63-.11-.45.03-.76.3-1.09.36-.44.55-.95.35-1.56-.15-.51.02-.9.22-1.4.24-.63.84-1.02.75-1.72,0-.07.04-.15.1-.2.7-.59,1.03-1.3.75-2.15-.07-.18.03-.42.16-.55.45-.44.67-1.02.25-1.47-.06-.09-.09-.2-.03-.27.13-.15.21-.32.22-.45.04-.15,0-.27-.05-.38-.09-.23-.31-.35-.52-.51-.08-.07-.22-.11-.32-.18l-.08-.05-.04-.03h-.02s0-.02,0-.02h0s0,0,0,0h0c.15-.29-.34.65.34-.65l-.04.07-.15.27-.14.27c-.05.1-.02.03-.03.05h0s0,0,0,0l-.1-.04c-.29-.13-.67-.3-1.03-.5-.2-.11-.38-.22-.62-.19-.65.09-1.21-.13-1.69-.57-.31-.28-.68-.39-1.08-.31-.67.13-1.22-.07-1.72-.53-.23-.21-.51-.39-.8-.46-.75-.19-1.41-.67-2.19-.71-.8-.04-1.43-.58-2.21-.7-.46-.07-.98.12-1.38-.22-.39-.34-.85-.37-1.34-.49-.44-.11-.66-.54-1-1-.07-.1-.2-.37-.17-.59.04-.07-.02-.3.04-.44.05-.15.14-.23.24-.26.2-.08.43,0,.62-.06.09-.03.17-.1.19-.2,0-.12.09-.11.11-.17.02,0,.02-.07.07-.1.05-.03.1-.05.1-.02.11-.05.94-.11,1.58.13.34.14.71.22.99.52.23.25.5.33.83.24.4-.12.8-.06,1.11.17,1.02.76,2.23,1.01,3.39,1.42.36.13.72.27,1.07.42.14.06.26.22.39.22,1.59,0,3,.67,4.55.96.47.09.74.19,1.31.22.61.08.92.33,1.35.63.38.36.79.78,1.16,1.44.1.4.16.85.18,1.23-.03.32,0,.58.15.84.6,1.28.23,2.61.09,3.76-.6,1.29-1.21,2.95-1.16,3.14-.16.35-.38.66-.59.97-.17.25-.37.46-.53.7-.21.34-.26.72-.11,1.12.16.42.09.77-.23,1.06-.56.5-.8,1.11-.62,1.84.18.72-.02,1.31-.48,1.86-.4.48-.49,1.06-.2,1.65.21.44.1.81-.14,1.24-.11.2-.32.46-.25.64.16.42-.14,1.37-.05,1.51.1.13,0,.4-.06.55-.18.46-.37.87-.62,1.34-.25.47-.42,1.06-.79,1.49-.29.34-.7.7-1.05.71-.8.03-1.09.72-1.7.81-.49.07-.95.22-1.34.38-.46.18-.85.43-1.06.95-.11.28-.37.36-.63.46-.29.1-1.11.63-1.29.64-.8.01-1.14.77-1.52,1.31-.19.27-.24.65-.43.91-.14.21-.45.29-.61.5-.12.14.07.51-.26.46-.42-.06-.55.07-.57.43-.03.42.13.9-.27,1.26-.26.24-.22.68-.55.97-.36.32-.65.76-.82,1.23-.22.61-.94.81-1.17,1.4-.23.59-.79.81-1.28,1.11-.95.57-1.87,1.08-2.86,1.76-.99.69-2.27.72-3.23.23-.71-.35-1.35-.54-2.06-.71-.46-.12-.94-.22-1.49-.51-.53-.27-1.14-.79-1.41-1.46-.16-.38-.41-.59-.61-.9-.48-.78-.68-1.58-.71-2.29-.03-.72.1-1.34.4-1.93.17-.36.17-.81.18-1.23,0-.41-.05-.83-.08-1.25.58-.76.5-1.77,1.16-2.44.13-.14.18-.25.14-.43-.04-.24-.09-.51,0-.72.43-1.03.48-2.22,1.32-3.03.09-.45.14-.91.27-1.34.22-.74.56-1.43.67-2.17.06-.45.21-.82.38-1.23.47-1.08.86-2.34,1.29-3.5.44-1.17.87-2.34,1.33-3.48.14-.35.37-.68.59-.99.18-.26.35-.54.32-.85-.08-.66.13-1.23.33-1.81.58-1.67,1.15-3.33,1.65-5.01.18-.58.63-1.02.74-1.64.09-.49.23-1.02.66-1.4.43-1.37.83-2.73,1.17-4.1l.33-1.29c.06-.23.24-.39.5-.47.27-.16-.13-.36,1.05-.24.15-.02.88.36.95.46.46.71.03,1.12.12,1.89.07.54-.18,1.15-.28,1.69Z"/>
  </g>
  <path class="cls-3" d="M61.71,181.22c.36.05.71-.29,1.04.02.15.14.35-.26.51.03.1.18.23.09.33.25.14.21.25.16.43,0,.1-.05.17-.14.39-.15.17-.01.25.07.44-.1.17-.16.41.2.58.09.35-.24.59.12.98-.37.34-.27.65-.11.94-.14.36.01.72.05,1.08.1.08.01.17.11.24.2.17.19.33.15.52.01.34-.26,1.31.25,1.46.11.05-.05.19-.09.37-.12.16-.03.39-.09.91-.01.25.05.58.15.91.39.33.24.58.61.69.9.21.58.15.8.15.87-.04.17-.16.26,0,.33-.17.13.11.34-.12.45-.11.27-.18.37-.15.7.02.32-.85.61-.57.92-.03.62,0,1.02.1,1.11.16.17-.15.23.02.39.23.23-.37.64-.14.7.24.07.15.2.35.3.42.2.33.44.07.65-.13.11.3.26.11.36-.33.17-.48.37-.48.6.01.5.05.99.05,1.49,0,.31.04.64-.27.92.04.48-.04.7.06.9.26.25-.1.46.26.69.5.31.41.25.37.68-.16.07-.34.31-.14.39-.15.22-.07.43-.09.45-.41.34.2.29-.28.65.04.2-.06.31.3.42.18.06.2.14.08.23-.12.09-.07.16.04.25.45.38-.22.79.17,1.17-.1.21.15.45.12.67-.05.36,0,.72-.4,1.04-.1.08.01.27.14.38.21.19-.22.33-.02.52.23.21-.15.32-.34.45-.09.06-.17.12-.19.19l-.23.72c-.17.52-.73.8-1.25.64h-.01c-.05-.02-.11,0-.17.06-.22.23-.44.11-.67.14-.23.03-.43-.36-.64-.15-.3.3-.59-.17-.89.22-.19.26-.3-.06-.49.02-.15-.55-.4-.65-.68-.55-.31.11-.61.37-.92.11-.1-.08-.26.14-.39.2-.13.06-.27.14-.4.13-.27-.02-.48-.51-.76-.4-.26.1-.45.02-.72.12-.18.07-.49-.18-.67-.19-.4-.01-.76.61-1.1.06-.18,0-.36-.14-.53.11-.21.32-.42.35-.63.11-.04-.04-.09-.11-.12-.09-.27.19-.53.35-.78.02-.22.07-.43.05-.65-.1-.21-.14-.44.33-.66.11-.17-.18-.34-.1-.52.05-.18.15-.35.11-.53,0-.12-.08-.27-.18-.38-.11-.68.4-1.34.41-1.98-.06-.24-.17-.48-.07-.75-.06-.23.19-.36.04-.45-.29-.05-.17-.12-.06-.2.13-.38.38-.64-.32-.83-.19-.27.18-.53.27-.78-.02-.1-.12-.28-.21-.38-.11-.23.23-.42.18-.64.01-.09-.06-.17-.11-.26-.14l-.71-.21c-.57-.16-.92-.72-.84-1.3.03-.24-.06-.47-.35-.68-.32-.25-.3-.57-.29-.86,0-.39.41-.76.06-1.16-.03-.04-.01-.1.02-.14.44-.51.52-.99.06-1.55-.1-.12-.07-.31.04-.42.37-.38.52-.76.16-1.24-.07-.09-.06-.21.01-.28.63-.55.51-1.23.58-1.87.06-.51.15-1,.41-1.46.07-.12.15-.23.07-.39-.2-.4-.09-.74.26-1.03.22-.18.26-.4.12-.65-.24-.41-.13-.74.23-1.02.17-.13.3-.3.32-.47.06-.45.42-.83.32-1.3-.1-.48.31-.85.28-1.31-.02-.27-.3-.59-.06-.81.24-.23.17-.5.16-.77-.01-.24.34-.37.6-.51.28-.16,1.65.06,1.99.3.02.02.21.15.16.17.09.11.38.67.28,1.07-.06.22-.06.45-.3.62-.2.14-.23.3-.07.51.19.25.21.49.04.68-.55.61-.6,1.34-.8,2.03-.06.22-.15.43-.23.64-.03.08-.17.15-.15.23.28.96-.16,1.8-.14,2.71,0,.27-.04.44.09.73.2.47-.08.77-.25,1.34-.2.12-.29.29-.46.42-.14.11-.18.23-.11.37.31.65.13,1.24.25,1.86-.29.68-.24,1.66-.12,1.74-.02.21-.11.41-.19.62-.06.16-.18.32-.24.49-.08.22.01.42.3.59.29.16.36.33.2.54l-1.51-1.46.03.03c.37.39.75.44,1.17.09.41-.35.8-.29,1.18.04.33.29.68.3,1.05-.06.27-.27.53-.18.79.04.12.1.27.29.37.21.24-.18.72,0,.78-.12.06-.12.18-.08.26-.06.22.06.41.1.62.1.22,0,.44-.23.67-.27.18-.04.4-.08.52.1.29.42.61-.08.91.08.25.14.53.17.79.19.31.03.63-.02.93-.36.16-.19.35-.12.53-.06.2.07.86.14.96.26.4.5.89.19,1.34.12.22-.03.45-.23.67-.24.17-.01.34.19.51.22.12.02.28-.34.36-.03.1.39.21.43.42.28.25-.18.49-.53.78-.34.2.13.42-.1.65.06.24.18.53.23.79.15.33-.11.6.39.91.21.3-.17.52.09.78.2.26.11.52.17.79.14l-1.75,1.59c-.03-.22-.13-.45-.32-.68-.4-.49-.4-.99-.04-1.46.26-.34.31-.69.27-1.05-.05-.49-.15-1,.26-1.46.12-.13,0-.26-.04-.39-.2-.68-.3-1.35.23-1.99.16-.19.11-.44.07-.66-.04-.22-.17-.45-.26-.67.43-.45.13-.98.56-1.43.09-.09.1-.16.02-.25-.11-.12-.25-.26-.23-.39.09-.62-.29-1.27.19-1.87-.08-.26-.2-.53-.24-.79-.07-.45,0-.91-.15-1.35-.09-.27-.08-.52-.04-.79.11-.71.1-1.44.13-2.16v-.38s.01.12.08.31c.06.18.22.46.42.62.43.35.65.3.62.31l-.42-.03c-.22-.02-.44-.12-.66-.22-.18-.08-.36-.15-.53,0-.35.3-.71.3-1.07.31-1.04.02-2.08.04-3.11.1-.36.02-.69-.28-1.06-.2-.3.07-.63.08-.91-.21l-2.57-.07c-.27,0-.54-.02-.81-.04-.14-.01-.26-.16-.33-.4-.12-.24-.2.2-.24-.98-.02-.14.14-.93.19-1.02.37-.6.63-.24,1.07-.51.3-.19.67-.08.98-.13Z"/>
  <path class="cls-3" d="M215.91,222.63c-.34.11-.52.56-.97.41-.19-.07-.26.37-.52.15-.16-.14-.26,0-.43-.13-.2-.16-.3-.09-.5.08-.11.07-.2.16-.5.17-.15,0-.26-.05-.39-.05l.45-1.94s.09-.03.16-.09c.14-.13.28.24.44.13.29-.22.48.15.81-.36.27-.28.55-.13.8-.18.32-.01.65,0,.98.01.08,0,.17.1.25.18.18.17.33.12.49-.03.3-.29,1.31.15,1.46.02.11-.1.56-.18,1.05-.18.48-.01,1.01.09,1.05.13.07.06.11.18.21.05.09.19.34-.04.4.19.24.16.32.24.64.28.31.04.4.95.75.74.58.16.97.23,1.08.17.2-.11.18.2.38.09.29-.15.49.54.62.35.15-.21.24-.07.4-.23.34-.32.55-.14.66.18.06.17.37-.17.39.05.03.37.14.6.36.71l.04.02c.38.18.59.58.54.98l-.02.17c-.06.45-.1.9-.16,1.35-.04.29-.06.6-.41.81-.03.45-.14.65-.08.85.22.27-.17.41.15.68.44.37.37.29.27.69-.17.04-.38.23-.2.34-.18.18-.13.39-.16.4-.46.25.15.31-.38.55,0,.19-.1.28.23.44.17.08.18.16.04.23-.13.06-.09.14,0,.24.38.42-.33.7,0,1.12-.11.1.1.41.04.59-.09.33-.1.67-.53.92-.11.06-.02.26.09.38.19.21-.26.28-.09.48.2.23-.19.28-.39.38-.17.08-.31.16-.17.33.2.24.06.43.06.65,0,.22-.42.35-.23.59.26.33-.25.54.09.89.21.26-.1.27-.1.58-.07.01-.14.03-.2.05-.12.2-.3.42-.49.59l-.15.11c-.13.11-.42.28-.68.33-.28.06-.52.04-.76-.03-.25-.07-.5-.24-.67-.42-.3-.39-.29-.59-.3-.66-.03-.37-.02-.45-.11-.59-.08-.13-.2-.24-.26-.24.6-.16,1.11-.3,1.32-.46.04-.02.08-.09.08-.08h0s0-.02,0-.02h0s0,0,0,0v1.55s0,0,0,0h0s0,0,0,0h-.03s-.08-.05-.12-.08c-.1-.07-.25.15-.38.21-.13.07-.26.15-.39.15-.27,0-.48-.5-.76-.39-.26.1-.44.02-.7.12-.17.07-.48-.19-.65-.2-.39-.01-.76.59-1.07.03-.17-.02-.34-.15-.52.09-.22.31-.43.33-.62.07-.03-.05-.08-.12-.11-.09-.27.18-.54.32-.75-.03-.22.05-.42.02-.62-.15-.19-.16-.45.3-.64.05-.15-.19-.32-.13-.5,0-.19.13-.35.08-.51-.05-.11-.09-.24-.21-.36-.15-.7.33-1.33.26-1.88-.28-.21-.2-.45-.13-.71-.14-.24.16-.34,0-.39-.34-.02-.17-.1-.08-.21.11-.41.33-.56-.39-.75-.29-.28.15-.54.2-.73-.12-.08-.13-.23-.24-.34-.16-.25.19-.42.12-.6-.07-.24-.26-.53-.32-.88,0-.28.27-.53.18-.78.12-.32-.07-.56-.52-.96-.24-.04.03-.09,0-.12-.04-.28-.39-.61-.55-1-.4-.34.14-.73-.03-.86-.37v-.04s-.66-1.97-.66-1.97c-.04-.11-.09-.22-.18-.34-.09-.12-.03-.28.09-.36.41-.28.6-.61.28-1.07-.06-.08-.05-.19.03-.25.67-.43.59-1.06.7-1.64.09-.46.2-.91.47-1.32.08-.11.16-.21.09-.36-.18-.39-.06-.7.3-.95.23-.16.28-.37.15-.6-.22-.4-.1-.7.27-.95.17-.12.31-.26.34-.43.07-.42.45-.76.37-1.21-.08-.46.35-.78.33-1.21,0-.26-.28-.57-.03-.77.25-.2.2-.46.19-.72,0-.23.36-.33.62-.45.29-.14,1.65.13,1.98.38.02.02.2.15.15.17.09.1.35.65.23,1.02-.07.2-.08.42-.32.56-.2.12-.24.27-.09.47.18.24.19.47.02.64-.58.54-.65,1.23-.88,1.86-.07.2-.16.39-.26.58-.04.07-.18.13-.16.21.24.91-.23,1.68-.25,2.54,0,.26-.06.41.05.69.18.46-.12.73-.33,1.27-.2.1-.31.25-.5.37-.15.09-.19.2-.14.34.25.65,0,1.21.03,1.82-.09.15-.17.31-.23.48l-1.15-1.79c.56.17,1.15.21,1.23.13.2.06.39.17.58.29.15.09.29.24.44.34.2.13.41.09.65-.15.24-.25.45-.26.61-.01.28.44.64.54,1.07.24.43-.3.78-.19,1.09.19.27.33.59.38.98.07.28-.23.51-.11.72.13.1.11.21.32.31.25.24-.15.67.08.74-.04.07-.12.18-.06.24-.03.19.08.36.14.56.16.2.02.43-.18.64-.21.17-.02.37-.04.47.14.23.44.57-.03.83.16.22.15.47.2.71.24.29.05.57.02.87-.31.16-.18.33-.1.48-.03.18.07.77.17.85.29.34.51.8.2,1.21.14.2-.03.4-.24.6-.25.15-.01.3.18.46.21.11.02.24-.35.32-.04.1.39.2.42.39.26.11-.09.21-.23.32-.32.03-.01-.02-.02.09-.03.24,0,.51.05.77.14.13.05.25.1.36.17.12.07.22.14.25.17.2.15.38.35.53.56.08.12.12.19.18.3.18.37.18.5.18.68-.05.36.22.57.08.66-.06-.02-.02.09-.24-.36-.05-.08-.1-.16-.16-.24l-.17-.21c-.14-.15-.31-.28-.51-.39-.42-.21-.78-.27-1.21-.23-.42.03-.92.31-1.11.51-.25.19-.48.61-.53.82.01-.02.02-.04.02-.06,0-.05,0-.11-.01-.16-.07-.28.46-.44.33-.75-.13-.29.15-.46.3-.68.27-.41.34-.87,0-1.38-.34-.51-.27-.97.14-1.36.31-.29.39-.58.4-.96.03-.52,0-.97.48-1.34.14-.11.04-.24.02-.37-.1-.66-.09-1.3.52-1.81.18-.15.17-.39.17-.61,0-.21-.1-.44-.16-.66.49-.35.27-.89.77-1.24.1-.07.12-.13.05-.23-.09-.13-.2-.29-.17-.4.1-.3.06-.62.09-.93l.81,1.8c-.22-.09-.41-.22-.54-.52-.24,0-.48.03-.7-.01-.37-.06-.72-.24-1.13-.19-.25.03-.45-.03-.66-.13-.58-.25-1.22-.36-1.87-.51l-.49-.11-.34-.06c-.24-.03-.49-.06-.78-.07-.17-.01-.35-.11-.54-.2-.15-.08-.32-.13-.46.03-.29.33-.61.35-.94.39-.97.11-2.02.25-3.29.23-.35,0-.67-.24-1.02-.34l.98-4.28s-.06-.01-.08-.03c-.06-.08,0-.11.21.14.46-.12,1.15-.43,1.88-.76.24-.11.49-.22.78-.31.15-.05.35.03.51.22.22.17.19-.28.6.82.06.12.17.93.16,1.02-.08.67-.42.43-.67.86-.17.29-.53.35-.78.53Z"/>
  <g>
    <path class="cls-3" d="M200.47,244.84l38.1,1.46c2.4.09,4.01-2.5,2.8-4.58-1.65-2.84-4.21-4.76-11.94-5.71-2.21-.27-4.74-.38-6.17-2.08-.31-.37-.56-.81-.93-1.13-.66-.55-1.58-.62-2.44-.66-3.18-.16-6.36-.31-9.54-.47-2.24-.11-5.14-.9-7.35-.63-2.42.3-2.4,2.67-2.9,4.72-.13.54-.89,4.16-1.49,6.64-.3,1.22.6,2.4,1.85,2.45Z"/>
    <path class="cls-3" d="M203.77,243.92c.54.05,1.05-.27,1.56.04.23.14.51-.25.76.04.15.18.34.09.5.25.21.21.38.16.64.02.16-.05.25-.13.58-.14.25,0,.38.08.66-.09.24-.15.61.21.87.1.52-.23.88.14,1.45-.35.5-.26.98-.09,1.4-.12.54.02,1.08.06,1.62.12.13.01.25.12.37.21.25.19.5.15.77.02.51-.25,1.96.27,2.18.14.31-.18,2.62-.25,2.81-.18.13.05.24.16.34.01.2.17.51-.1.67.12.41.12.56.18,1.06.16.47-.02.94.86,1.39.58.93.04,1.52,0,1.66-.09.25-.16.34.15.59-.01.34-.22.96.38,1.05.15.1-.24.3-.15.43-.34.29-.42.64-.32.98-.06.17.13.38-.29.53-.11.26.33.56.49.91.49l2.23-.03c.47,0,.95-.03,1.38.29.71-.03,1.05.05,1.35-.04.36-.26.7.11,1.03-.25.45-.49.36-.41,1-.37.11.16.47.35.59.15.33.15.65.07.68.1.49.41.49-.18.92.28.17-.04.29.02.29-.35,0-.18.03-.22.13-.12.09.09.13.03.13-.1,0-.25.1-.26.22-.3.13-.03.26-.11.15-.31.15-.07-.03-.29,0-.37.07-.17.02-.26.34-.54.08-.08-.07-.16-.23-.15-.06,0-.08-.01-.09-.04-.02-.04-.03-.1-.03-.16-.01-.12-.02-.24-.16-.28-.33-.07-.11-.39-.07-.66.03-.2.04-.39-.2-.42-.35-.02-.45-.3-.68-.44-.21-.15-.2-.61-.53-.59-.46.06-.55-.53-1.06-.34-.31.13-.32-.21-.57-.23.02-.59-.28-.8-.67-.84-.44-.01-.88.11-1.25-.24-.12-.11-.38.05-.56.07-.19.02-.39.06-.57.02-.36-.1-.58-.63-1-.59-.38.03-.64-.09-1.03-.03-.26.04-.68-.28-.94-.3-.59-.07-1.12.49-1.59-.09-.26-.03-.53-.18-.8.05-.34.29-.68.29-1.01,0-.06-.05-.14-.13-.2-.11-.45.14-.94.22-1.33-.22-.4-.03-.8-.17-1.15-.46-.32-.28-.93-.04-1.25-.5-.23-.36-.55-.51-.94-.66-.38-.16-.67-.53-.76-.83-.07-.22-.1-.42-.21-.43-.08-.01-.14,0-.17.02-.03.03.06-.07.09-.1,0,0-.01.02-.02.02l-.06.08-.08.13s-.02.02-.02.02c-.02.01-.04.01-.07,0-.13-.03-.45-.17-.9-.41-.35-.18-.72-.08-1.12-.07-.33.19-.53.03-.68-.3-.08-.17-.18-.07-.3.13-.56.37-.96-.33-1.24-.2-.39.18-.78.26-1.17-.04-.16-.12-.42-.21-.57-.12-.34.22-.63.17-.96,0-.45-.23-.91-.26-1.37.11-.37.3-.79.24-1.19.21-.53-.04-.99-.44-1.65-.14-.06.03-.16,0-.22-.04-.75-.49-1.45-.65-2.24-.24-.17.09-.42.04-.57-.08-.52-.4-1.06-.57-1.62-.19-.1.07-.25.08-.34,0-.71-.6-1.7-.27-1.68-.15l-.11.12c-.07.08-.19.21-.34.42-.08.12-.18.23-.12.43.16.48.03.96-.36,1.46-.24.3-.34.7-.22,1.03.19.59.04,1.08-.36,1.53-.19.21-.34.46-.38.71-.11.66-.53,1.25-.49,1.94.04.7-.42,1.27-.45,1.95.02.27.39.15.2.24-.16.11,0,.15.07.1.05-.04-.08.27,0,.51.01.25.22,1.66-.17,2-.02.03-.26.2-.31.14-.1.04-.45.09-.9-.02-.45-.11-.96-.43-1.25-.87-.32-.47-.57-1.04-.42-1.59.12-.42.18-.83.06-1.18-.16-.36-.15-.72.04-1,.64-.93.77-2.01,1.07-3.05.09-.32.2-.64.32-.95.04-.12.19-.23.18-.35-.04-.35-.04-.69,0-1.03.03-.33.08-.62.13-.95.12-.66.24-1.34.42-2.16.11-.49.27-.81.47-1.39.17-.49.58-.88,1.06-1.15.5-.26,1.08-.37,1.72-.43.31.14.63.18.91.32.23.11.43.13.65.05,1.01-.38,2.02-.15,2.98-.2,1.09.38,2.54.46,2.66.34.28.04.59.13.93.23.26.08.51.2.77.28.34.1.67.04.98-.23.32-.28.64-.31.96-.08.56.4,1.14.46,1.74.11.6-.35,1.18-.28,1.76.07.51.3,1.03.32,1.56-.04.39-.26.79-.17,1.17.05.18.1.43.3.6.23.39-.18,1.37.16,1.53.11.15-.08.43.06.6.16.47.27.92.68,1.23,1.03.32.36.7.52.87.63.13.07.26.14.24.34-.03.49.49.21.69.46.19.22.5.34.81.43.37.1.8.12,1.23-.18.23-.16.49-.07.74,0,.27.09,1.29.24,1.43.39.59.56,1.36.33,2.07.36.35,0,.72-.13,1.07-.09.27.04.51.27.78.35.18.06.49-.25.57.09.1.43.26.49.62.43.42-.07.88-.34,1.31,0,.28.22.71.1,1.02.4.34.3.78.56,1.23.67.58.16.78.84,1.32.99.53.16.74.63,1.01,1.02.53.74,1.06,1.39,1.88,1.86.2.12.38.26.54.41.18.21.37.5.49.79.24.6.29,1.3.11,1.92-.26.9-.51,1.66-.9,2.45-.5,1.03-1.51,2.04-2.74,2.01-.34,0-.57.17-.87.26-.19.07-.38.09-.58.13l-.48.06c-.25.03-.5.04-.75.03-.5-.02-.99-.13-1.48-.4-.29-.16-.66-.11-1-.08-.33.03-.66.17-.99.26-.68-.43-1.48-.14-2.15-.58-.14-.09-.24-.1-.38-.02-.18.11-.39.24-.57.22-.93-.1-1.9.28-2.8-.22-.39.08-.79.2-1.18.23-.67.06-1.36-.02-2.02.13-.41.09-.77.07-1.17.03-1.07-.12-2.15-.11-3.23-.16-1.08-.04-2.16-.07-3.23-.13-.33-.02-.66-.13-.99-.23-.27-.09-.54-.16-.79-.01-.52.29-1.06.29-1.6.29-1.55,0-3.1,0-4.66.04-.54.01-1.03-.29-1.59-.22-.44.06-.93.07-1.36-.23l-3.84-.12c-.4-.01-.81-.03-1.21-.06-.21-.02-.39-.16-.5-.4-.18-.24-.3.2-.37-.98-.04-.14.19-.93.27-1.01.54-.59.94-.22,1.59-.49.44-.18,1-.06,1.47-.11Z"/>
  </g>
  <g>
    <path class="cls-3" d="M270.68,243.66s-11.64,3.41-28.46,3.54h-69.37c-16.82-.13-26.63-3.37-26.63-3.37-2.72.23-5.22,1.36-2.72,4.99,2.27,2.95,17.24,4.08,24.27,4.31,4.28.14,74.68.16,79.53,0,7.03-.23,22-1.36,24.27-4.31,2.5-3.63,0-4.76-2.72-4.99"/>
    <path class="cls-3" d="M262.44,246.5c-1.43.21-2.69.74-4.11.64-.64-.05-1.3.44-2,.24-.43-.13-.92.02-1.37-.09-.6-.14-1.03-.03-1.7.18-.4.09-.64.2-1.5.29-.67.08-1.02.01-1.73.25-.62.2-1.66-.07-2.32.07-1.35.31-2.34.01-3.82.54-1.31.32-2.59.17-3.69.21-1.42,0-2.85-.02-4.27-.06-.34,0-.68-.11-.99-.19-.69-.18-1.33-.13-2.03,0-1.32.27-5.18-.2-5.77-.06-.8.2-6.88.35-7.39.28-.34-.04-.64-.15-.89,0-.54-.16-1.32.12-1.78-.1-1.1-.1-1.5-.16-2.8-.12-1.24.04-2.56-.82-3.71-.53-2.47,0-4.01.05-4.36.15-.63.17-.92-.14-1.55.03-.86.24-2.57-.34-2.79-.11-.23.25-.77.16-1.1.36-.71.43-1.66.34-2.57.1-.47-.13-.98.31-1.38.13-.72-.32-1.53-.47-2.44-.45l-5.86.12c-1.24.02-2.5.07-3.66-.23-1.87.06-2.78,0-3.54.09-.93.27-1.84-.08-2.68.29-1.15.51-.9.42-2.6.4-.32-.15-1.27-.33-1.56-.12-.89-.14-1.71-.05-1.79-.07-1.42-.42-1.15.19-2.62-.31-.8.03-1.23-.09-1.61.26-.2.18-.53.19-.91.05-.36-.13-.65-.09-1.01,0-1.45.38-3.17-.39-4.66-.12-.86-.16-1.77-.02-2.65-.13-1.43-.2-2.86-.34-4.15-.93-.34-.15-1.07-.15-1.53-.1-.77.1-1.32-.44-2.05-.38-.86.07-1.26-.39-1.79-.7-.42-.25-.83-.47-1.44-.45-.86.04-1.69-.28-2.62-.53l.66.08h-.04c-.73.12-1.57-.1-1.9.34-.22.3-.24.34-.27.33-.04,0-.05.3.28.54.17.13.3.34.35.54.04.1.09.2.14.31.03.05.05.11.09.16.02.02.02,0,.03,0-.16.22,0,.57.3.8.29.25.74.42,1.23.54,1.07.24,2.17.24,3.33.72.37.15.97.04,1.47.06.5.02,1.01.02,1.51.1,1.03.16,1.85.76,2.94.77,1.01,0,1.75.16,2.77.14.68-.01,1.92.33,2.62.38,1.57.11,2.88-.45,4.26.15.69.03,1.42.19,2.03-.05.77-.31,1.59-.37,2.46-.13.16.04.37.11.5.08,1.02-.21,2.02-.38,3.06-.06.87-.08,1.7-.07,2.57.07.83.13,1.66-.36,2.56-.14.71.17,1.36.08,2.03-.08.68-.16,1.37-.13,2.07-.03.5.07,1.08.17,1.53.09,2.61-.43,5.18-.48,7.81-.04.98.16,1.92.04,2.97.02.85-.2,1.39-.06,1.82.26.22.16.48.06.76-.14,1.41-.4,2.57.28,3.28.14,1.01-.2,2.02-.3,3.09-.02.44.11,1.13.19,1.51.09.88-.24,1.62-.2,2.51-.05,1.2.2,2.42.21,3.58-.18.93-.32,2.03-.28,3.1-.27,1.38,0,2.74.4,4.14.05.14-.04.37-.02.52.02,1.9.41,3.76.46,5.65-.06.41-.11,1.1-.1,1.55,0,1.56.33,3.07.42,4.62,0,.28-.08.74-.09,1.03-.03,2.41.54,4.91.3,7.36.26,1.96-.04,3.9-.04,5.84.12.53.04,1.01.1,1.54,0,1.37-.3,2.73-.33,4.11-.13.86.13,1.75.06,2.56-.18,1.36-.42,2.67-.5,4.07-.35.65.07,1.38.08,2.05-.02,1.72-.25,3.48-.23,5.1-.76,1.62-.53,3.37-.62,4.67-1.36.34-.2.63-.54.64-.66,0,0,0-.02,0-.02l.05-.13c.04-.09.08-.17.13-.25.11-.16.18-.33.32-.47.22-.27.33-.59.29-.69-.04-.1-.04,0-.15-.08-.23-.12-.71-.64-1.33-.95-.66-.34-.88-1.74-.11-2.04.04-.03.49-.17.61-.1.19-.01.83-.06,1.75.21.45.16.99.39,1.49.9.5.51.8,1.3.81,1.97-.02,1.47-.58,2.44-1.26,3.16l-.21.22-.3.28c-.2.2-.37.29-.54.44-.34.25-.66.48-.96.75-.74.62-1.7,1.01-2.59,1.14-2.93.37-5.73.88-8.59,1.17-.89.08-1.77.14-2.66.18-.34.02-.72-.07-1.02,0-3.46.75-7.11.78-10.63.93-1.06.06-1.75.05-2.77.23-1.68.29-3.1.07-5.49,0-.63-.17-1.35-.24-2.01-.38-.52-.12-1.03-.13-1.54-.05-2.4.41-4.93.31-7.38.5-2.94-.21-6.97-.11-7.33,0-.88-.02-1.76-.09-2.63-.17-.69-.08-1.37-.16-2.07-.24-.91-.09-1.77,0-2.54.28-.79.29-1.64.34-2.51.13-1.54-.37-3.06-.4-4.61-.03-1.54.38-3.08.34-4.66.02-1.37-.28-2.76-.27-4.12.11-1,.28-2.06.21-3.1,0-.49-.09-1.1-.27-1.5-.19-.9.19-2.85.03-3.06.16-.21.13-.71.09-1,.07-.86-.05-1.62-.08-2.47-.06-.86.01-1.71.25-2.58.31-.69.05-1.55.1-2.08-.07-1.24-.4-2.41.11-3.62-.04-1.02-.13-2.1-.14-3.16-.15-1.24-.01-2.46.05-3.61.41-.62.19-1.37.15-2.1.07-.81-.08-3.48-.26-3.87-.4-1.65-.58-3.58-.39-5.36-.48-.88-.04-1.76.07-2.65,0-.69-.06-1.37-.34-2.07-.46-.47-.08-1.09.2-1.44-.17-.44-.46-.87-.57-1.71-.56-.99,0-1.96.18-3.16-.32-.8-.34-1.76-.37-2.73-.97-.51-.32-1.1-.66-1.77-1.25-.15-.12-.36-.35-.54-.55l-.13-.16-.07-.11-.14-.22c-.19-.29-.39-.56-.55-.86-.43-.72-.72-1.64-.58-2.81.04-.29.12-.59.21-.87.12-.28.24-.57.41-.82.33-.5.73-.91,1.11-1.22.73-.61,1.43-.81,2.05-.93.63-.1,1.2-.1,1.78-.1h.31c.14,0,.27.03.39.08l.05.02c1.67.7,3.57,1.12,5.44,1.06,1.86-.06,3.74.21,5.55.81,1.31.43,2.65.61,4.06.7,1.91.11,3.85.12,5.69.61.54.14,1.01.04,1.52.01,1.31-.06,2.59-.14,3.89-.11,1.31,0,2.62.1,3.93.34.79.15,1.76.09,2.63.04.87-.04,1.73-.19,2.59-.29,1.83.41,3.9.09,5.72.5.37.08.65.09,1,0,.47-.11,1-.26,1.49-.25,2.47.06,4.96-.35,7.41.11,1.03-.1,2.05-.23,3.09-.28,1.77-.09,3.58-.04,5.31-.2,1.06-.1,2.02-.1,3.09-.07,2.83.08,5.68.03,8.52.03h8.52c.88.01,1.76.11,2.62.2.71.08,1.45.14,2.09-.02,1.35-.31,2.75-.33,4.18-.35l6.13-.09c2.04-.04,4.01-.12,6.02-.27,1.38-.09,2.7.1,4.13-.11,1.13-.18,2.39-.31,3.55-.16,3.3-.37,6.59-.86,9.83-1.51l3.05-.64c.53-.12,1.01-.09,1.37.06.53.1.66-.39,1.25.67.15.1-.12,1.01-.3,1.14-1.19.94-2.35.85-3.93,1.48-1.1.43-2.58.61-3.8.87Z"/>
  </g>
  <path class="cls-3" d="M162.36,253.44c-.29.14-.32.58-.73.54-.2-.01-.06.39-.36.28-.19-.07-.21.08-.39.04-.24-.05-.28.06-.28.29-.03.11,0,.21-.13.37-.09.13-.21.14-.18.39.03.21-.38.16-.36.35.06.34-.34.36.08.67.25.16.08.26.12.54,0,.32-.03.74-.09,1.14-.02.1-.12.19-.21.27-.2.18-.17.34-.04.54.23.37-.32,1.29-.18,1.44.16.23.28,1.65.23,1.75-.04.07-.15.15.01.19-.16.13.13.28-.07.39-.08.25-.12.34-.04.59.08.21-.67.72-.31.86.18.47.42.6.52.57.18-.04.04.24.25.21.29-.04.21.65.41.5.2-.16.23-.01.42-.13.38-.25.49-.07.52.25.02.16.35-.14.33.05-.03.35.06.58.25.67.42.18.85.32,1.28.46.28.09.56.14.74.5.44.07.64.19.84.13.27-.21.41.18.67-.15.34-.46.26-.38.61-.32.04.16.23.35.3.15.17.15.33.06.35.08.29.39.19-.21.51.22.14-.06.25,0,.25-.37,0-.19.05-.22.16-.12.1.09.14.03.18-.1.14-.51.69-.02.85-.52.21.02.28-.3.46-.35.29-.09.53-.28.97-.09.11.05.19-.14.2-.3.02-.27.35.02.36-.23,0-.29.29-.04.5.04.16.06.32.11.3-.1,0-.3.09-.3.13-.4.03-.06.43,0,.31-.26-.09-.17,0-.23.07-.32.07-.1.13-.21-.02-.39-.19-.23.14-.2.11-.38.55.03.71-.16.68-.44-.03-.29-.24-.63.07-.86.1-.07-.09-.26-.13-.39-.04-.13-.1-.27-.07-.39.05-.25.57-.37.5-.65-.07-.27.03-.44-.04-.7-.05-.18.24-.45.25-.62.04-.39-.55-.79.02-1.07.02-.17.16-.34-.09-.52-.31-.23-.33-.43-.07-.62.05-.03.12-.08.09-.12-.19-.27-.34-.53,0-.76-.06-.22-.03-.42.12-.63.15-.2-.33-.44-.1-.65.18-.17.1-.33-.04-.51-.15-.18-.12-.34,0-.52.08-.12.18-.26.11-.38-.41-.67-.43-1.29,0-1.94.16-.24.04-.47.01-.73-.2-.21-.06-.33.26-.44.16-.06.05-.12-.15-.18-.03-.02-.05-.04-.06-.06l-.02-.03h0s0-.02,0-.02c.56-.02,1.11-.04,1.66-.06.09,0,.18-.01.26-.02.04.01.11-.03.11-.02.02.03.07.03.15.07.08.03.12.03.25.07.37.11,1.01.25,1.59.37,0,.01-.06.08-.12.13-.12.11-.28.2-.22.3.16.28.22.55-.1.78-.13.09-.23.26-.14.37.2.26.14.44-.05.65-.25.28-.3.59.04.95.28.29.19.57.14.86-.07.37-.52.65-.27,1.15.02.05-.01.12-.06.17-.07.07-.14.15-.22.26-.04.05-.08.12-.14.22l-.12.21-.11.17c-.09.12-.14.19-.28.33-.13.13-.29.24-.45.33-.1.05-.12.07-.29.13-.18.06-.39.1-.59.1-.21,0-.41-.03-.59-.09-.17-.05-.25-.09-.37-.16-.22-.12-.45-.33-.56-.48-.1-.13-.2-.3-.26-.44h0s0-.05,0-.05c0-.03,0-.05-.01-.07-.05-.08-.21-.11-.48-.02-.12.04-.15-.02-.14-.13.08-.38-.12-.65-.58-.42-.08.04-.17.02-.18-.06-.15-.69-.74-.69-1.2-.77-.38-.07-.76-.14-1.13-.35-.1-.06-.2-.13-.32-.03-.31.26-.57.2-.88-.07-.19-.18-.39-.17-.56.04-.27.33-.54.34-.89.09-.16-.12-.34-.17-.49-.12-.38.11-.84-.04-1.17.26-.32.31-.81.14-1.14.41-.19.16-.25.57-.55.49-.3-.07-.45.16-.63.32-.15.16-.46-.03-.73-.13-.29-.11-1.1-1.24-1.14-1.66,0-.03-.02-.26.03-.23.02-.14.28-.77.7-.95.22-.11.43-.26.73-.17.24.07.4-.01.5-.26.12-.3.34-.47.61-.43.88.14,1.58-.2,2.38-.29.24-.04.49-.03.74-.03.1,0,.21.11.29.06.91-.58,1.96-.34,2.98-.41.31-.02.51.01.84-.09.56-.18.93.14,1.58.45.11.23.29.37.4.58.09.16.21.25.38.24.82-.06,1.44.45,2.17.91.29.43.65.95.89,1.45l.05.09s.03.06,0-.02c-.04-.08-.08-.15-.13-.22-.11-.18-.73-.81-1.66-.49-.2.07-.35.17-.49.31-.1.1-.1.1-.15.16-.09.13-.08.12-.11.17l-.05.1s-.01-.02-.02-.06c0-.08-.01-.16-.04-.18.06-.18.17-.37.29-.57.09-.16.23-.3.33-.46.12-.21.08-.44-.17-.67-.26-.24-.27-.46-.03-.65.43-.33.51-.71.2-1.16-.31-.45-.22-.83.16-1.21.08-.09.15-.17.21-.29l.06-.15.04-.1.03-.07.02-.04s.05-.1.07-.14c.06-.09.13-.18.2-.26.04-.04.08-.08.12-.11l.11-.08c.1-.07.25-.15.47-.2.21-.05.5-.05.75.04.26.09.45.24.57.38.12.12.2.29.22.32l.02.04c.04.1.08.2.1.31.03.14.02.11.02.14v.05c0,.14,0,.12,0,.19.02.18.12.37.32.55.28.26.21.55,0,.83-.09.13-.28.29-.2.39.18.24.02.75.15.81.12.06.08.19.06.26-.05.23-.09.42-.08.65,0,.23.23.46.28.69.04.18.08.41-.1.54-.42.3.07.64-.1.95-.14.26-.18.54-.22.82-.04.33,0,.65.32.98.18.18.1.38.03.56-.07.2-.2.9-.33.99-.53.38-.27.92-.26,1.41,0,.24.18.5.16.74-.02.19-.24.34-.3.52-.04.12.29.35-.03.39-.4.05-.46.16-.36.41.12.3.41.63.16.91-.16.18-.02.5-.25.71-.25.23-.38.53-.42.87-.05.44-.6.54-.65.99-.05.44-.4.59-.78.86-.16.12-.32.24-.46.37-.14.11-.25.19-.36.3-.22.21-.39.47-.51.81-.24.67-.78,1-1.44.95-.48-.04-.85.1-1.22.3-.5.28-1.05.59-1.72.35-.19-.07-.31.08-.47.15-.84.4-1.83.49-2.54-.11-.22-.18-.5-.17-.76-.18-.26,0-.53.08-.79.12-.4-.52-1.06-.39-1.41-.96-.07-.12-.14-.15-.26-.11-.17.06-.36.13-.49.06-.62-.33-1.48-.32-1.85-1.11-.3-.08-.63-.15-.91-.3-.49-.27-.84-.64-1.38-.95-.41-.29-.66-.66-.83-1.07-.43-1.08-.62-2-.69-2.88-.06-.87-.05-1.68.02-2.46.02-.24.13-.47.25-.69.09-.19.17-.37.03-.55-.28-.37-.25-.75-.25-1.06.01-.45-.04-.81-.04-1.55,0-.37.06-.92.23-1.42.17-.5.39-.92.6-1.25.29-.46.78-.58.99-.96.17-.31.44-.62.89-.65.74-.71,1.61-1.38,2.69-1.87.34-.15.7-.28,1.07-.36.2-.04.4.05.55.27.2.2.24-.25.49.9.04.13.02.94,0,1.04-.19.65-.5.37-.75.78-.15.27-.47.32-.67.52Z"/>
  <path class="cls-3" d="M245.53,253.44c-.29.14-.32.58-.73.54-.2-.01-.06.39-.36.28-.19-.07-.21.08-.39.04-.24-.05-.28.06-.28.29-.03.11,0,.21-.13.37-.09.13-.21.14-.18.39.03.21-.38.16-.36.35.06.34-.34.36.08.67.25.16.08.26.12.54,0,.32-.03.74-.09,1.14-.02.1-.12.19-.21.27-.2.18-.17.34-.04.54.23.37-.32,1.29-.18,1.44.16.23.28,1.65.23,1.75-.04.07-.15.15.01.19-.16.13.13.28-.07.39-.08.25-.12.34-.04.59.08.21-.67.72-.31.86.18.47.42.6.52.57.18-.04.04.24.25.21.29-.04.21.65.41.5.2-.16.23-.01.42-.13.38-.25.49-.07.52.25.02.16.35-.14.33.05-.03.35.06.58.25.67.42.18.85.32,1.28.46.28.09.56.14.74.5.44.07.64.19.84.13.27-.21.41.18.67-.15.34-.46.26-.38.61-.32.04.16.23.35.3.15.17.15.33.06.35.08.29.39.19-.21.51.22.14-.06.25,0,.25-.37,0-.19.05-.22.16-.12.1.09.14.03.18-.1.14-.51.69-.02.85-.52.21.02.28-.3.46-.35.29-.09.53-.28.97-.09.11.05.19-.14.2-.3.02-.27.35.02.36-.23,0-.29.29-.04.5.04.16.06.32.11.3-.1,0-.3.09-.3.13-.4.03-.06.43,0,.31-.26-.09-.17,0-.23.07-.32.07-.1.13-.21-.02-.39-.19-.23.14-.2.11-.38.55.03.71-.16.68-.44-.03-.29-.24-.63.07-.86.1-.07-.09-.26-.13-.39-.04-.13-.1-.27-.07-.39.05-.25.57-.37.5-.65-.07-.27.03-.44-.04-.7-.05-.18.24-.45.25-.62.04-.39-.55-.79.02-1.07.02-.17.16-.34-.09-.52-.31-.23-.33-.43-.07-.62.05-.03.12-.08.09-.12-.19-.27-.34-.53,0-.76-.06-.22-.03-.42.12-.63.15-.2-.33-.44-.1-.65.18-.17.1-.33-.04-.51-.15-.18-.12-.34,0-.52.08-.12.18-.26.11-.38-.41-.67-.43-1.29,0-1.94.16-.24.04-.47.01-.73-.2-.21-.06-.33.26-.44.16-.06.05-.12-.15-.18-.03-.02-.05-.04-.06-.06l-.02-.03h0s0-.02,0-.02c.56-.02,1.11-.04,1.66-.06.09,0,.18-.01.26-.02.04.01.11-.03.11-.02.02.03.07.03.15.07.08.03.12.03.25.07.37.11,1.01.25,1.59.37,0,.01-.06.08-.13.13-.12.11-.28.2-.22.3.16.28.22.55-.1.78-.13.09-.23.26-.14.37.2.26.14.44-.05.65-.25.28-.3.59.04.95.28.29.19.57.14.86-.07.37-.52.65-.27,1.15.02.05-.01.12-.06.17-.07.07-.14.15-.22.26-.04.05-.08.12-.14.22l-.12.21-.11.17c-.09.12-.14.19-.28.33-.13.13-.29.24-.45.33-.1.05-.12.07-.29.13-.18.06-.39.1-.59.1-.21,0-.41-.03-.59-.09-.17-.05-.25-.09-.37-.16-.22-.12-.45-.33-.56-.48-.1-.13-.2-.3-.26-.44h0s0-.05,0-.05c0-.03,0-.05-.01-.07-.05-.08-.21-.11-.48-.02-.12.04-.15-.02-.14-.13.08-.38-.12-.65-.58-.42-.08.04-.17.02-.18-.06-.15-.69-.74-.69-1.2-.77-.38-.07-.76-.14-1.13-.35-.1-.06-.2-.13-.32-.03-.31.26-.57.2-.88-.07-.19-.18-.39-.17-.56.04-.27.33-.54.34-.89.09-.16-.12-.34-.17-.49-.12-.38.11-.84-.04-1.17.26-.32.31-.81.14-1.14.41-.19.16-.25.57-.55.49-.3-.07-.45.16-.63.32-.15.16-.46-.03-.73-.13-.29-.11-1.1-1.24-1.14-1.66,0-.03-.02-.26.03-.23.02-.14.28-.77.7-.95.22-.11.43-.26.73-.17.24.07.4-.01.5-.26.12-.3.34-.47.61-.43.88.14,1.58-.2,2.38-.29.24-.04.49-.03.74-.03.1,0,.21.11.29.06.91-.58,1.96-.34,2.98-.41.31-.02.51.01.84-.09.56-.18.93.14,1.58.45.11.23.29.37.4.58.09.16.21.25.38.24.82-.06,1.44.45,2.17.91.29.43.65.95.89,1.45l.05.09s.03.06,0-.02c-.04-.08-.08-.15-.13-.22-.11-.18-.73-.81-1.66-.49-.2.07-.35.17-.49.31-.1.1-.1.1-.15.16-.09.13-.08.12-.11.17l-.05.1s-.01-.02-.02-.06c0-.08-.01-.16-.04-.18.06-.18.17-.37.29-.57.09-.16.23-.3.33-.46.12-.21.08-.44-.17-.67-.26-.24-.27-.46-.03-.65.43-.33.51-.71.2-1.16-.31-.45-.22-.83.16-1.21.08-.09.15-.17.21-.29l.06-.15.04-.1.03-.07.02-.04s.05-.1.07-.14c.06-.09.13-.18.2-.26.04-.04.08-.08.12-.11l.11-.08c.1-.07.25-.15.47-.2.21-.05.5-.05.75.04.26.09.45.24.57.38.12.12.2.29.22.32l.02.04c.04.1.08.2.1.31.03.14.02.11.02.14v.05c0,.14,0,.12,0,.19.02.18.12.37.32.55.28.26.21.55,0,.83-.09.13-.28.29-.2.39.18.24.02.75.15.81.12.06.08.19.06.26-.05.23-.09.42-.08.65,0,.23.23.46.28.69.04.18.08.41-.1.54-.42.3.07.64-.1.95-.14.26-.18.54-.22.82-.04.33,0,.65.32.98.18.18.1.38.03.56-.07.2-.2.9-.33.99-.53.38-.27.92-.26,1.41,0,.24.18.5.16.74-.02.19-.24.34-.3.52-.04.12.29.35-.03.39-.4.05-.46.16-.36.41.12.3.41.63.16.91-.16.18-.02.5-.25.71-.25.23-.38.53-.42.87-.05.44-.6.54-.65.99-.05.44-.4.59-.78.86-.16.12-.32.24-.46.37-.14.11-.25.19-.36.3-.22.21-.39.47-.51.81-.24.67-.78,1-1.44.95-.48-.04-.85.1-1.22.3-.5.28-1.05.59-1.72.35-.19-.07-.31.08-.47.15-.84.4-1.83.49-2.54-.11-.22-.18-.5-.17-.76-.18-.26,0-.53.08-.79.12-.4-.52-1.06-.39-1.41-.96-.07-.12-.14-.15-.26-.11-.17.06-.36.13-.49.06-.62-.33-1.48-.32-1.85-1.11-.3-.08-.63-.15-.91-.3-.49-.27-.84-.64-1.38-.95-.41-.29-.66-.66-.83-1.07-.43-1.08-.62-2-.69-2.88-.06-.87-.05-1.68.02-2.46.02-.24.13-.47.25-.69.09-.19.17-.37.03-.55-.28-.37-.25-.75-.25-1.06.01-.45-.04-.81-.04-1.55,0-.37.06-.92.23-1.42.17-.5.39-.92.6-1.25.29-.46.78-.58.99-.96.17-.31.44-.62.89-.65.74-.71,1.61-1.38,2.69-1.87.34-.15.7-.28,1.07-.36.2-.04.4.05.55.27.2.2.24-.25.49.9.04.13.02.94,0,1.04-.19.65-.5.37-.75.78-.15.27-.47.32-.67.52Z"/>
</svg>