<?xml version="1.0" encoding="UTF-8"?>
<svg id="illuer_blå_bg" xmlns="http://www.w3.org/2000/svg" viewBox="0 0 277.95 315.52">
  <defs>
    <style>
      .cls-1 {
        fill: #ff9400;
      }

      .cls-2 {
        fill: #0354f0;
      }

      .cls-3 {
        fill: #ffe6c4;
      }
    </style>
  </defs>
  <path class="cls-3" d="M178.86,157.67c-.3.73-.25,1.54-.8,2.14-.25.27-.03.78-.43,1.02-.25.14-.26.43-.5.6-.31.21-.36.46-.37.86-.03.23-.01.39-.19.83-.14.34-.29.48-.29.92,0,.39-.56.74-.61,1.13-.09.79-.66,1.11-.58,2.07-.07.77-.56,1.32-.81,1.89-.38.7-.8,1.38-1.23,2.05-.11.16-.29.27-.45.37-.36.23-.5.56-.59.97-.16.77-1.74,2.32-1.83,2.66-.07.49-1.99,3.33-2.27,3.49-.15.12-.35.18-.32.39-.32.13-.38.66-.71.71-.49.4-.68.52-1.14,1.1-.43.56-1.59.47-1.82,1.14-.96.98-1.59,1.58-1.66,1.79-.14.37-.47.25-.63.6-.22.49-1.32.66-1.27.92.06.28-.24.39-.27.66-.06.58-.55.84-1.11.95-.28.06-.27.58-.57.56-.52-.04-.98.09-1.41.39-.44.33-.93.6-1.39.9-.47.29-.93.6-1.43.84-.63.31-1.25.7-1.97.67-.96.45-1.46.57-1.83.83-.41.42-1.02.24-1.36.73-.49.67-.37.59-1.33.79-.22-.11-.79-.15-.91.08-.27,0-.5.03-.7.08-.22.07-.45.11-.48.09-.37-.09-.4-.13-.53-.13-.11,0-.18.02-.26.05-.16.05-.32.08-.72-.14-.43.05-.67-.03-.86.33-.1.19-.28.21-.49.1-.2-.11-.36-.06-.54.06-.76.48-1.73-.15-2.51.27-.47-.08-.95.19-1.42.17-.78-.02-1.54.05-2.28-.31-.19-.1-.58.04-.81.17-.39.23-.74-.19-1.12.02-.44.24-.7-.12-1.02-.3-.25-.14-.49-.27-.81-.09-.44.25-.94.15-1.42.21-.49.05-.97-.32-1.41-.09-.61.33-1.3-.11-1.88.3-.38.27-.66-.03-1.05.07-.4-.53-.94-.61-1.55-.48-.65.14-1.26.42-1.97.2-.22-.07-.54.16-.82.24-.28.07-.56.17-.84.17-.59,0-1.09-.46-1.69-.33-.56.12-.98.06-1.53.18-.37.08-1.08-.14-1.47-.12-.87.03-1.56.68-2.36.17-.38,0-.79-.11-1.12.16-.42.34-.86.39-1.34.17-.09-.04-.21-.1-.28-.07-.55.22-1.09.4-1.67.1-.47.09-.93.09-1.41-.04-.46-.12-.9.37-1.4.17-.4-.16-.75-.07-1.11.1-.37.16-.74.15-1.14.05-.27-.07-.6-.15-.84-.07-1.42.46-2.83.53-4.28.12-.54-.15-1.05-.02-1.63.02-.46.21-.76.07-1.01-.25-.13-.16-.26-.05-.41.15-.77.42-1.42-.26-1.8-.11-.55.21-1.1.32-1.69.05-.24-.11-.62-.18-.83-.07-.48.25-.89.22-1.38.07-.66-.19-1.33-.19-1.96.22-.51.33-1.11.3-1.7.3-.76,0-1.51-.37-2.27,0-.08.04-.2.02-.29-.01-1.05-.39-2.07-.43-3.1.12-.22.12-.6.11-.85.02-.86-.31-1.69-.39-2.53.05-.15.08-.41.1-.57.04-1.33-.51-2.69-.25-4.04-.18-1.07.06-2.14.09-3.2-.06-.29-.04-.56-.09-.84.02-.76.29-1.52.26-2.28,0-.48-.17-.97-.16-1.42.04-.76.33-1.5.31-2.26.03-.36-.13-.76-.22-1.14-.2-.97.05-1.94-.21-2.89,0-.97.22-1.93-.1-2.89.04-.57.08-1.1.44-1.69.25-.58-.18-1.13-.05-1.7.03-.51.07-.93-.24-1.35-.45-.46-.23-.63-1.62-.26-2,.02-.02.23-.24.29-.19.18-.12,1.25-.53,2.13-.53.49,0,.98-.05,1.44.14.38.16.74.15,1.1-.06.44-.24.95-.32,1.41-.21,1.53.39,3.09.26,4.64.29.48,0,.96.04,1.45.07.19.01.39.13.55.09,1.9-.5,3.87-.28,5.8-.52.58-.07.95-.07,1.51-.26.92-.31,1.69-.1,3-.06.34.16.74.22,1.1.36.29.11.56.12.84.03,1.31-.43,2.69-.36,4.03-.58,1.61.18,3.81.04,4.01-.08.48,0,.96.08,1.44.14.38.05.75.17,1.13.22.5.08.97-.01,1.38-.3.43-.3.89-.36,1.37-.16.85.36,1.68.37,2.52-.02.84-.39,1.68-.37,2.55-.07.76.26,1.51.24,2.25-.16.54-.29,1.12-.23,1.7-.04.27.09.61.26.82.18.49-.2,1.56-.06,1.67-.19.11-.13.39-.09.55-.08.47.04.89.06,1.35.04.47-.02.93-.27,1.4-.34.37-.05.84-.11,1.14.05.69.39,1.31-.14,1.98,0,.56.11,1.15.12,1.73.12.68,0,1.35-.08,1.96-.45.33-.2.75-.15,1.14-.11.44.05,1.88.06,2.1.17.92.46,1.95.11,2.91,0,.48-.05.94-.27,1.41-.31.37-.03.75.15,1.13.17.26,0,.55-.36.77-.06.28.38.52.41.95.24.51-.2.98-.57,1.63-.41.44.11.89-.14,1.4,0,.54.15,1.18.18,1.73.07.7-.14,1.33.33,1.98.13.62-.2,1.14.04,1.7.13,1.07.16,2.12.14,3.14-.31,1.01-.44,2.08-.48,3.13-.16.76.23,1.51.25,2.3.18,1.06-.09,2.14-.24,3.18.14.3.11.56-.02.84-.07.36-.06.72-.12,1.08-.17l.54-.05.32-.02.39-.07c.17-.03.33-.04.5-.06.34-.02.69-.02,1.05.03.44.04.9-.18,1.32-.36.42-.19.8-.43,1.17-.7,1.03.04,1.9-.65,2.93-.72.21,0,.35-.07.47-.22.17-.2.35-.46.57-.58.57-.3,1.1-.67,1.63-1.05.52-.39,1.06-.72,1.73-.9.38-.4.73-.83,1.13-1.19.68-.63,1.43-1.21,2-1.94.34-.46.7-.79,1.13-1.15.55-.49,1.08-1.03,1.59-1.56l1.47-1.69c.96-1.15,1.87-2.34,2.76-3.56.27-.38.62-.7.96-1.03.27-.27.53-.57.6-.94.14-.77.51-1.41.89-2.06,1.07-1.89,2.04-3.83,2.91-5.82.3-.69.86-1.21,1.09-1.96.19-.59.43-1.24.94-1.69.69-1.67,1.33-3.35,1.91-5.05l.54-1.6c.09-.28.3-.48.57-.57.3-.19-.09-.44,1.09-.27.15-.03.84.45.9.59.37.9-.15,1.38-.16,2.35-.01.67-.38,1.41-.55,2.08Z"/>
  <path class="cls-1" d="M86.99,227.05c-27.13,2.79-47.77-2.03-61.89-14.47-14.17-12.41-22.34-29.41-24.55-50.96-2.21-21.55,2.33-39.83,13.68-54.89,11.32-15.06,30.29-23.94,56.87-26.67,26.58-2.73,47.61,2.04,61.5,14.51,13.88,12.44,21.94,29.45,24.16,51,2.21,21.55-2.23,39.82-13.29,54.84-11.06,15-29.89,23.9-56.45,26.62"/>
  <path class="cls-3" d="M69.3,73.47c2.68-12.43,10.67-28.48,32.58-28.98-.69,8.76-5.35,29.3-29.48,35.89.4,1.2.7,2.31.92,3.28l.13.62.02.14c.21,1.41-.73,2.76-2.14,3.04-1.42.28-2.8-.6-3.15-1.98l-.03-.14-.11-.54c-1.27-5.68-5.67-15.95-16.44-19.74l-.54-.18-.13-.05c-1.33-.51-2.05-1.98-1.6-3.36.45-1.37,1.89-2.14,3.27-1.77l.13.04.66.22c7.81,2.75,12.8,8.17,15.89,13.5Z"/>
  <ellipse class="cls-2" cx="73.87" cy="127.2" rx="3.92" ry="5.23" transform="translate(-27.34 20.46) rotate(-13.33)"/>
  <ellipse class="cls-2" cx="103.64" cy="120.21" rx="3.92" ry="5.23" transform="translate(-24.92 27.13) rotate(-13.33)"/>
  <path class="cls-2" d="M103.72,148.26c-.57.81-4.16,3.03-5.14,3.39-2.7.97-8.47,1.44-11.34,1.46-1.4,0-4.61-.76-5.58-1.77-2.57-2.67.76-3.24,3.15-3.35,1.94-.09,2.97.72,4.6.84.92.07,5.6-.65,6.64-.92,2.26-.59,4.38-3.22,5.96-3.41,2.59-.3,2.97,1.95,1.71,3.76h0Z"/>
  <path class="cls-3" d="M45.54,223.26c-.04.91.29,1.76-.01,2.63-.14.4.26.85-.03,1.27-.18.26-.09.58-.24.85-.21.36-.16.65,0,1.08.05.26.14.42.15.96.01.43-.07.65.11,1.11.16.4-.2,1.04-.08,1.47.24.87-.12,1.48.38,2.42.27.83.11,1.64.15,2.34-.01.91-.04,1.81-.09,2.72-.01.21-.11.43-.2.63-.19.44-.15.85,0,1.3.26.84-.24,3.3-.1,3.68.19.52.3,4.39.22,4.72-.05.21-.16.4,0,.57-.17.34.11.85-.11,1.13-.11.7-.17.95-.14,1.78.03.79-.84,1.62-.56,2.36-.02,1.57.02,2.56.11,2.78.17.4-.15.58.02.99.23.55-.36,1.64-.13,1.78.25.15.15.49.35.71.42.46.33,1.06.08,1.64-.13.3.3.63.12.88-.33.45-.48.97-.47,1.55l.07,3.74c0,.79.04,1.6-.26,2.33.05,1.19-.03,1.77.07,2.26.27.59-.1,1.17.27,1.71.5.74.41.58.38,1.66-.16.2-.34.81-.14.99-.15.57-.06,1.09-.08,1.14-.41.89.2.72-.28,1.65.04.51-.05.78.31,1.01.18.12.21.33.08.57-.12.23-.07.41.04.63.45.9-.21,2,.19,2.93-.1.55.15,1.11.13,1.66-.04.9,0,1.8-.39,2.65-.1.22.02.68.14.95.1.2.06.4.02.58l-1.95-1.97c.24.06.47.14.72.03.51-.23.82.13,1.18.32.29.15.57.28.94.11.52-.24,1.1-.14,1.65-.18.57-.04,1.12.34,1.64.11.72-.32,1.51.14,2.19-.27.45-.27.76.05,1.22-.05.46.54,1.08.63,1.79.51.76-.13,1.47-.4,2.29-.16.26.07.63-.15.96-.22.32-.07.66-.15.98-.15.68,0,1.26.48,1.96.36.65-.11,1.14-.04,1.79-.15.44-.08,1.25.16,1.71.15,1.01,0,1.84-.65,2.75-.12.44,0,.92.12,1.31-.14.23-.15.46-.24.7-.27l-2.08,1.97c-.02-.28.04-.57.18-.86.05-.1.12-.23.1-.31-.17-.66-.31-1.3.05-1.95-.05-.56,0-1.09.16-1.64.16-.53-.3-1.08-.05-1.64.19-.45.13-.86,0-1.3-.13-.44-.08-.88.04-1.32.09-.31.2-.68.15-.97-.34-1.69-.29-3.32.24-4.98.2-.62.11-1.22.12-1.89-.17-.55,0-.89.33-1.15.17-.13.07-.3-.12-.49-.35-.92.38-1.62.26-2.08-.16-.65-.23-1.31.09-1.97.13-.27.23-.71.14-.96-.21-.57-.14-1.04.04-1.61.25-.75.3-1.53-.05-2.29-.28-.61-.2-1.31-.16-1.99.06-.88.5-1.72.2-2.64-.03-.09,0-.24.04-.33.48-1.19.6-2.37.14-3.6-.1-.27-.06-.71.05-.99.38-.98.53-1.93.17-2.94-.07-.19-.07-.48,0-.66.62-1.5.48-3.11.52-4.67.04-1.25.1-2.49.33-3.71.06-.33.14-.64.05-.98-.22-.9-.13-1.79.2-2.65.21-.54.24-1.11.08-1.65-.26-.91-.18-1.76.17-2.63.16-.4.28-.87.29-1.3.03-1.13.37-2.24.24-3.36-.13-1.14.26-2.23.2-3.36-.04-.66-.34-1.32-.11-1.98.23-.67.15-1.31.11-1.98-.03-.59.32-1.06.57-1.54.27-.52,1.67-.6,2.02-.15.02.03.22.29.17.35.1.22.42,1.49.34,2.52-.04.57-.03,1.14-.26,1.66-.19.43-.21.85-.04,1.29.21.53.24,1.13.09,1.66-.52,1.75-.52,3.57-.68,5.37-.05.56-.12,1.12-.2,1.67-.03.22-.16.44-.14.64.34,2.25-.05,4.52.03,6.78.02.68-.01,1.11.13,1.78.23,1.09-.04,1.97-.19,3.49-.19.39-.28.84-.46,1.25-.14.32-.17.64-.1.98.32,1.55.13,3.16.23,4.73-.32,1.85-.36,4.43-.26,4.66-.05.56-.16,1.11-.27,1.66-.09.44-.23.86-.32,1.3-.12.57-.07,1.13.19,1.63.26.52.28,1.06.04,1.61-.43.96-.51,1.92-.19,2.93.32,1,.22,1.98-.15,2.96-.32.86-.36,1.74-.03,2.63.24.65.13,1.32-.11,1.97-.11.31-.31.69-.25.94.16.58-.07,1.81.05,1.96.12.14.06.46.03.64-.08.55-.14,1.03-.15,1.57-.02.55.19,1.1.22,1.66.02.44.04.99-.15,1.32-.44.77.03,1.54-.17,2.3-.16.64-.22,1.33-.26,2-.06.79-.04,1.57.28,2.31.08.18.1.38.1.59l-.03,2.04-2.22.09c-.24.01-.5-.02-.74-.05-.51-.06-2.19-.1-2.44-.21-1.06-.48-2.27-.14-3.39-.05-.56.05-1.1.25-1.65.28-.43.02-.87-.17-1.32-.19-.3-.01-.65.35-.9.05-.31-.39-.59-.42-1.1-.26-.6.19-1.15.56-1.91.38-.51-.12-1.05.13-1.63-.03-.63-.16-1.37-.2-2.01-.1-.82.13-1.55-.35-2.3-.16-.72.18-1.32-.06-1.98-.16-1.24-.18-2.47-.18-3.67.25-.24.09-.49.16-.74.21l-1.69.36-.53-2.61c-.19-.96-.14-1.95.14-2.91.26-.88.3-1.75.26-2.67-.05-1.24-.17-2.5.25-3.7.12-.35,0-.65-.04-.98-.21-1.69-.31-3.36.2-5.02.16-.5.1-1.12.07-1.68-.04-.56-.18-1.1-.27-1.66.42-1.16.12-2.49.54-3.65.09-.24.1-.41.01-.64-.11-.3-.25-.64-.23-.95.08-1.57-.31-3.17.17-4.72-.09-.66-.21-1.31-.25-1.97-.07-1.13,0-2.28-.16-3.39-.09-.68-.09-1.29-.05-1.97.11-1.81.08-3.62.1-5.44l.08-5.44c.01-.56.11-1.12.21-1.67.08-.45.15-.92,0-1.34-.3-.86-.3-1.76-.31-2.67l-.12-7.82c-.02-.9.28-1.75.19-2.68-.07-.74-.09-1.56.21-2.3l.05-6.46.04-2.04c.01-.36.16-.66.39-.85.24-.31-.2-.5.98-.67.14-.07.93.27,1.02.4.6.88.24,1.58.52,2.64.19.73.08,1.68.13,2.46Z"/>
  <g>
    <path class="cls-3" d="M42.38,312.72l1.24-19.67h25.78s-.78,6.11,9.36,6.84c7.54,1.6,9.89,8.52,9.06,11.14-.83,2.62-24.05,2.17-24.05,2.17l-21.79-1.51"/>
    <path class="cls-3" d="M41.57,308.82c.07-.64-.24-1.24.1-1.83.15-.27-.23-.61.07-.89.19-.17.1-.4.27-.58.22-.24.18-.44.04-.75-.05-.18-.12-.3-.12-.68,0-.3.09-.45-.07-.78-.14-.29.24-.72.13-1.02-.22-.62.17-1.03-.3-1.71-.25-.59-.06-1.15-.07-1.64.04-.63.1-1.27.18-1.9.02-.15.13-.29.22-.43.2-.29.17-.58.05-.91-.23-.6.34-2.29.22-2.56,0-.02-.02-.04-.02-.16v-.72s1.36-.55,1.36-.55c.45-.18,2.92-.32,3.13-.26.15.04.28.15.4,0,.24.16.59-.12.79.1.49.1.67.16,1.25.12.55-.04,1.14.82,1.66.53,1.1,0,1.79-.05,1.94-.15.28-.17.41.14.69-.03.39-.24,1.15.34,1.24.11.1-.25.34-.16.49-.36.32-.43.74-.34,1.14-.1.21.13.44-.31.62-.13.32.32.68.47,1.09.45l2.61-.12c.55-.02,1.12-.06,1.63.23.83-.06,1.24,0,1.58-.09.41-.27.82.08,1.19-.29.51-.51.4-.42,1.16-.4.14.15.57.33.7.12.4.14.76.05.8.07.63.4.5-.21,1.16.26.22-.03.38,0,.5-.07l1.36,1.54s.11.05.25.08c.18.04.21.12.09.24-.1.11-.05.2.08.28.26.16.27.37.3.61.03.23.09.48.38.55.05.27.42.32.57.51.27.33.62.55.81,1.11.06.15.34.17.53.13.31-.07.36.38.67.3.35-.1.38.31.54.54.12.19.26.37.52.27.36-.13.7.03,1.05.06.36.02.64.49,1.01.29.46-.24.89.17,1.33-.04l.24.03s.09-.02.14-.04c.4-.17.58.2.95.2.21.59.61.85,1.17.94.6.07,1.23.12,1.69.61.15.14.5.13.76.21.26.08.53.16.75.31.44.36.51.99.99,1.29.44.29.69.59,1.1.92.3.22.53.87.72,1.17.24.32.57.54.83.82.27.26.47.57.37,1.02.16.33.19.72.54.93.46.26.62.7.51,1.22-.02.09-.05.22-.01.28.15.25.29.52.36.8.06.29.04.61-.11.92.07.53.03,1.08-.27,1.67-.03.05-.18.46-.36.77-.21.37-.32.48-.48.68-.08.09-.16.18-.25.26-.08.08-.13.11-.21.16-.14.09-.3.17-.48.2-.49.02-.81.23-1.11.47-.32.27-.66.3-1.04.29-.26-.02-.55-.06-.76.05-1.17.64-2.38.82-3.63.49-.47-.12-.88.03-1.36.1-.37.23-.63.1-.85-.21-.11-.16-.22-.04-.34.17-.62.44-1.18-.22-1.49-.06-.44.22-.9.34-1.39.08-.2-.11-.52-.17-.68-.06-.39.25-.73.22-1.13.08-.55-.19-1.1-.18-1.61.22-.42.33-.91.29-1.39.29-.62,0-1.24-.39-1.87-.03-.06.04-.17.02-.24-.02-.86-.41-1.69-.46-2.55.06-.19.11-.5.1-.7,0-.73-.33-1.32-.43-2.15-.03-.13.07-.34.07-.46,0-1.05-.61-2.18-.45-3.27-.48-.88-.02-1.74-.08-2.6-.3-.23-.06-.45-.13-.69-.04-.64.23-1.25.15-1.85-.18-.38-.2-.78-.23-1.16-.07-.64.27-1.24.19-1.84-.14-.28-.16-.6-.27-.91-.28-.79-.02-1.56-.35-2.35-.21-.8.14-1.56-.24-2.35-.17-.47.04-.93.35-1.4.12-.46-.22-.92-.13-1.39-.1-.42.03-.74-.31-1.06-.56-.36-.27-.37-1.66-.04-2.02.02-.02.21-.22.25-.17.16-.1,1.05-.43,1.77-.36.39.04.79.02,1.15.25.3.19.59.2.9.03.38-.21.79-.25,1.16-.1,1.21.5,2.49.49,3.74.64.39.05.78.11,1.17.18.15.03.31.16.44.13,1.58-.35,3.16.01,4.74-.08.47-.03.78,0,1.24-.14.77-.24,1.38.03,2.44.17.27.19.59.28.87.45.23.13.45.17.68.09.27-.08.55-.13.82-.17l.21-.02s.05,0,.07-.01h.1s.41-.05.41-.05c.55-.04,1.1-.06,1.65-.15,1.3.22,3.09.11,3.25,0,.39.01.78.09,1.17.16.31.06.61.17.92.23.4.08.79,0,1.12-.3.35-.3.72-.36,1.11-.16.69.35,1.37.36,2.04-.04.67-.4,1.34-.39,2.05-.11.62.24,1.23.2,1.8-.22.42-.31.88-.27,1.35-.11.22.07.5.23.67.13.37-.22,1.22-.16,1.3-.3.07-.14.29-.12.41-.12.37,0,.69-.02,1.04-.09.35-.08.65-.37.95-.51.26-.1.51-.24.75-.13.23.12.44.02.45-.07.07-.06-.03-.07-.08-.04-.01,0-.02.02-.03.03-.04.04-.09.08-.12.14-.07.08-.12.29-.1.31.15-.13.23-.43.21-.78,0-.2-.03-.4-.13-.6-.08-.19-.23-.37-.46-.52-.23-.15-.25-.41-.3-.66-.01-.29-.39-1.15-.38-1.33.13-.79-.6-1.21-1.09-1.62-.23-.23-.63-.27-.86-.48-.18-.17-.27-.44-.45-.63-.13-.12-.49.04-.44-.27.07-.41-.06-.54-.4-.56-.39-.05-.86.18-1.16-.19-.21-.25-.61-.1-.86-.37-.27-.31-.71-.42-1.1-.44-.11,0-.21-.03-.31-.08l.28.04c-.46-.11-.86-.42-1.32-.32-.57.14-1-.21-1.47-.4-.45-.18-.9-.32-1.37-.44-.47-.11-.96-.13-1.5-.15-.54,0-1.07-.1-1.55-.38-.49-.24-.91-.65-1.23-1.13-.46-.7-.96-1.29-1.49-1.98-.7-.91-1.24-2.12-.95-3.3.09-.36-.05-.57-.05-1.05h0c-.37-.43,3.26,3.7,1.72,1.95h0s0,0,0,0h-.01s-.03,0-.03,0h-.06s-.11.03-.11.03l-.22.04-.44.06c-.29.04-.59.06-.88.06-.59,0-1.17-.1-1.75-.34-.35-.15-.78-.09-1.17-.04-.39.04-.77.19-1.16.29-.82-.41-1.74-.09-2.56-.5-.17-.08-.29-.09-.45,0-.21.11-.45.26-.66.25-1.1-.06-2.22.35-3.31-.11-.46.1-.92.23-1.38.28-.79.08-1.6.04-2.37.2-.47.1-.9.1-1.38.07-1.26-.08-2.54-.03-3.8-.03-1.27,0-2.54.02-3.8,0h-.24s1.97-1.86,1.97-1.86c-.05.31-.14.62-.24.92-.1.31-.18.64-.04.93.28.62.25,1.25.23,1.88-.06,1.82-.11,3.65-.13,5.47,0,.63-.33,1.2-.27,1.86.05.52.04,1.1-.28,1.6l-.26,4.51c-.03.47-.06.95-.1,1.42-.02.25-.18.45-.42.58-.25.21.19.36-1,.41-.14.04-.92-.24-1-.33-.57-.65-.19-1.11-.43-1.88-.17-.52-.03-1.18-.06-1.73Z"/>
  </g>
  <path class="cls-3" d="M95.34,225.06c-.01.95.35,1.82.07,2.73-.13.42.29.88,0,1.32-.17.28-.07.6-.22.9-.19.39-.14.68.03,1.12.06.27.15.43.18,1,.02.44-.05.67.14,1.15.17.42-.17,1.09-.04,1.53.27.89-.07,1.55.45,2.51.3.85.16,1.7.22,2.43.02.94.02,1.89,0,2.83,0,.22-.1.45-.18.66-.17.46-.12.89.03,1.35.28.87-.13,3.44.02,3.83.21.53.43,4.56.37,4.9-.04.23-.14.43.01.59-.15.36.14.88-.08,1.18-.09.73-.14,1-.09,1.86.05.82-.79,1.71-.48,2.47.03,1.64.1,2.66.2,2.89.18.42-.13.61.05,1.03.25.57-.31,1.71-.08,1.85.25.15.17.51.37.73.44.46.37,1.1.13,1.7-.12.31.32.65.15.91-.31.48-.45,1.02-.42,1.63l.19,3.89c.03.82.1,1.66-.19,2.43.08,1.24.03,1.84.14,2.35.28.61-.06,1.22.32,1.77.52.75.43.59.44,1.72-.15.21-.31.85-.1,1.04-.13.6-.03,1.14-.05,1.19-.38.94.22.74-.22,1.72.05.53-.03.81.34,1.05.19.12.22.33.1.59-.11.24-.06.43.06.66.48.92-.15,2.09.28,3.04-.06.47.1.93.16,1.4l-2.11-2.07c.11-.01.22-.02.32-.01.94.03,1.87-.02,2.76.36.23.1.71-.02.99-.16.48-.22.9.2,1.35,0,.53-.23.85.13,1.23.32.3.15.59.28.97.11.54-.24,1.14-.14,1.72-.18.6-.04,1.17.34,1.7.11.75-.32,1.57.14,2.28-.27.46-.27.79.05,1.27-.05.48.54,1.13.63,1.87.51.79-.13,1.53-.4,2.39-.16.27.07.66-.15.99-.22.34-.07.68-.15,1.03-.15.71,0,1.31.48,2.04.36.68-.11,1.18-.04,1.86-.15.26-.04.64.01,1,.07l-1.63,1.59c.05-.3.1-.57.1-.78.02-1.05-.6-1.93-.05-2.86.01-.46.15-.95-.11-1.37-.32-.52-.34-1.06-.1-1.64.04-.1.11-.24.09-.33-.19-.68-.35-1.35-.01-2.03-.06-.58-.04-1.13.11-1.71.15-.55-.33-1.11-.1-1.7.18-.47.1-.9-.04-1.35-.15-.45-.11-.91,0-1.38.08-.33.18-.72.12-1.02-.39-1.74-.39-3.45.09-5.19.18-.65.08-1.27.07-1.97-.19-.57-.03-.92.3-1.21.17-.14.06-.31-.13-.51-.38-.95.33-1.7.2-2.18-.18-.67-.26-1.35.03-2.05.12-.29.21-.74.11-1-.22-.59-.17-1.08,0-1.67.22-.79.25-1.6-.12-2.38-.3-.63-.24-1.36-.22-2.07.03-.92.45-1.81.12-2.75-.03-.09-.01-.25.03-.35.45-1.25.53-2.49.04-3.75-.11-.28-.08-.73.02-1.03.35-1.03.48-2.03.08-3.07-.07-.19-.08-.5-.01-.69.58-1.58.38-3.25.38-4.88,0-1.3.02-2.59.22-3.87.05-.35.12-.67.02-1.02-.25-.93-.19-1.85.12-2.76.19-.57.21-1.16.03-1.72-.29-.94-.23-1.83.09-2.74.15-.42.25-.91.25-1.37,0-1.17.3-2.34.14-3.5-.17-1.18.2-2.33.1-3.5-.06-.69-.38-1.36-.17-2.06.21-.7.11-1.37.05-2.06-.05-.62.29-1.11.52-1.62.26-.55,1.65-.68,2.02-.22.02.03.23.29.18.36.11.22.47,1.54.42,2.61-.03.59,0,1.18-.21,1.73-.18.46-.18.89,0,1.34.22.54.28,1.16.13,1.72-.47,1.84-.41,3.73-.52,5.61-.03.58-.09,1.17-.15,1.75-.02.23-.15.47-.12.67.4,2.33.09,4.7.23,7.05.04.7.02,1.16.18,1.85.26,1.13.02,2.06-.09,3.64-.18.41-.26.89-.42,1.31-.13.34-.15.67-.07,1.02.37,1.61.23,3.28.37,4.91-.26,1.94-.23,4.62-.12,4.86-.03.58-.12,1.16-.22,1.74-.07.46-.2.9-.28,1.36-.1.6-.03,1.17.23,1.69.28.53.31,1.1.09,1.67-.4,1.01-.46,2.02-.1,3.06.35,1.03.28,2.05-.06,3.09-.3.9-.31,1.82.04,2.73.26.67.17,1.37-.05,2.06-.1.32-.29.73-.22.99.17.6-.02,1.89.11,2.03.12.14.07.47.05.67-.06.57-.11,1.07-.11,1.64,0,.57.22,1.14.27,1.72.04.46.07,1.03-.11,1.38-.42.82.07,1.6-.1,2.4-.14.67-.18,1.39-.2,2.09-.03.82,0,1.63.35,2.39.18.41.11.91.05,1.38-.07.53-.16,2.27-.28,2.54-.35.75-.31,1.58-.24,2.41l.14,1.54-1.96.23c-.37.04-.75.1-1.11.12-.58.05-1.14.25-1.72.28-.45.02-.91-.17-1.37-.19-.31-.01-.68.35-.94.05-.33-.39-.62-.42-1.14-.26-.63.19-1.2.56-1.99.38-.53-.12-1.09.13-1.7-.03-.65-.16-1.42-.2-2.09-.1-.85.13-1.61-.35-2.39-.16-.75.18-1.38-.06-2.06-.16-1.29-.18-2.57-.18-3.82.25-1.24.42-2.54.44-3.8.1-.55-.15-1.09-.22-1.65-.24l-1.9-.07.04-1.76c0-.37,0-.75-.04-1.14-.09-1.29-.25-2.59.13-3.85.11-.37-.02-.68-.07-1.02-.26-1.75-.42-3.48.04-5.23.14-.53.07-1.17.01-1.75-.06-.58-.21-1.14-.32-1.71.39-1.23.04-2.59.43-3.81.08-.25.08-.43,0-.66-.12-.31-.27-.66-.26-.98.03-1.64-.41-3.29.02-4.92-.11-.68-.25-1.36-.32-2.04-.11-1.17-.08-2.37-.27-3.52-.12-.7-.13-1.34-.11-2.05.05-1.88-.04-3.77-.07-5.66l-.1-5.66c0-.58.08-1.17.16-1.74.07-.47.12-.96-.04-1.39-.33-.89-.36-1.82-.4-2.77l-.37-8.13c-.05-.94.22-1.82.11-2.79-.09-.77-.14-1.63.14-2.4l-.15-6.72-.02-2.12c0-.37.14-.69.37-.9.23-.34-.22-.51.96-.73.14-.08.94.25,1.03.38.62.9.29,1.63.6,2.73.21.76.13,1.74.21,2.56Z"/>
  <g>
    <path class="cls-3" d="M94.31,312.72l1.24-19.67h25.78s-.78,6.11,9.36,6.84c7.54,1.6,9.89,8.52,9.06,11.14-.83,2.62-24.05,2.17-24.05,2.17l-21.79-1.51"/>
    <path class="cls-3" d="M93.5,308.82c.07-.64-.24-1.24.1-1.83.15-.27-.23-.61.07-.89.19-.17.1-.4.27-.58.22-.24.18-.44.04-.75-.05-.18-.12-.3-.12-.68,0-.3.09-.45-.07-.78-.14-.29.24-.72.13-1.02-.22-.62.17-1.03-.3-1.71-.25-.59-.06-1.15-.07-1.64.04-.63.1-1.27.18-1.9.02-.15.13-.29.22-.43.2-.29.17-.58.05-.91-.23-.6.34-2.29.22-2.56,0-.02-.02-.04-.02-.16v-.72s1.36-.55,1.36-.55c.45-.18,2.92-.32,3.13-.26.15.04.28.15.4,0,.24.16.59-.12.79.1.49.1.67.16,1.25.12.55-.04,1.14.82,1.66.53,1.1,0,1.79-.05,1.94-.15.28-.17.41.14.69-.03.39-.24,1.15.34,1.24.11.1-.25.34-.16.49-.36.32-.43.74-.34,1.14-.1.21.13.44-.31.62-.13.32.32.68.47,1.09.45l2.61-.12c.55-.02,1.12-.06,1.63.23.83-.06,1.24,0,1.58-.09.41-.27.82.08,1.19-.29.51-.51.4-.42,1.16-.4.14.15.57.33.7.12.4.14.76.05.8.07.63.4.5-.21,1.16.26.22-.03.38,0,.5-.07l1.36,1.54s.11.05.25.08c.18.04.21.12.09.24-.1.11-.05.2.08.28.26.16.27.37.3.61.03.23.09.48.38.55.05.27.42.32.57.51.27.33.62.55.81,1.11.06.15.34.17.53.13.31-.07.36.38.67.3.35-.1.38.31.54.54.12.19.26.37.52.27.36-.13.7.03,1.05.06.36.02.64.49,1.01.29.46-.24.89.17,1.33-.04l.24.03s.09-.02.14-.04c.4-.17.58.2.95.2.21.59.61.85,1.17.94.6.07,1.22.12,1.69.61.15.14.5.13.76.21.26.08.53.16.75.31.44.36.51.99.99,1.29.44.29.69.59,1.1.92.3.22.53.87.72,1.17.24.32.57.54.83.82.27.26.47.57.37,1.02.16.33.19.72.54.93.46.26.62.7.51,1.22-.02.09-.05.22-.01.28.15.25.29.52.36.8.06.29.04.61-.11.92.07.53.03,1.08-.27,1.67-.03.05-.18.46-.36.77-.21.37-.32.48-.48.68-.08.09-.16.18-.25.26-.08.08-.13.11-.21.16-.14.09-.3.17-.48.2-.49.02-.81.23-1.11.47-.33.27-.66.3-1.04.29-.26-.02-.55-.06-.76.05-1.17.64-2.38.82-3.63.49-.47-.12-.88.03-1.36.1-.37.23-.63.1-.85-.21-.11-.16-.22-.04-.34.17-.62.44-1.18-.22-1.49-.06-.44.22-.9.34-1.39.08-.2-.11-.52-.17-.68-.06-.39.25-.73.22-1.13.08-.55-.19-1.1-.18-1.61.22-.42.33-.91.29-1.39.29-.62,0-1.24-.39-1.87-.03-.06.04-.17.02-.24-.02-.86-.41-1.69-.46-2.54.06-.19.11-.5.1-.7,0-.73-.33-1.32-.43-2.15-.03-.13.07-.34.07-.46,0-1.05-.61-2.18-.45-3.27-.48-.88-.02-1.75-.08-2.6-.3-.23-.06-.45-.13-.69-.04-.64.23-1.25.15-1.85-.18-.38-.2-.78-.23-1.16-.07-.64.27-1.24.19-1.84-.14-.28-.16-.6-.27-.91-.28-.79-.02-1.56-.35-2.35-.21-.8.14-1.56-.24-2.35-.17-.47.04-.93.35-1.4.12-.46-.22-.92-.13-1.39-.1-.42.03-.74-.31-1.06-.56-.36-.27-.37-1.66-.04-2.02.02-.02.21-.22.25-.17.16-.1,1.05-.43,1.77-.36.39.04.79.02,1.15.25.3.19.59.2.9.03.38-.21.79-.25,1.16-.1,1.21.5,2.49.49,3.74.64.39.05.78.11,1.17.18.15.03.31.16.44.13,1.58-.35,3.16.01,4.74-.08.47-.03.78,0,1.24-.14.77-.24,1.38.03,2.44.17.27.19.59.28.87.45.23.13.45.17.68.09.27-.08.55-.13.82-.17l.21-.02s.05,0,.07-.01h.1s.41-.05.41-.05c.55-.04,1.1-.06,1.65-.15,1.3.22,3.09.11,3.25,0,.39.01.78.09,1.17.16.31.06.61.17.92.23.4.08.79,0,1.12-.3.35-.3.72-.36,1.11-.16.69.35,1.37.36,2.04-.04.67-.4,1.34-.39,2.05-.11.62.24,1.23.2,1.8-.22.42-.31.88-.27,1.35-.11.22.07.5.23.67.13.37-.22,1.22-.16,1.3-.3.07-.14.29-.12.41-.12.37,0,.69-.02,1.04-.09.35-.08.65-.37.95-.51.26-.1.51-.24.75-.13.23.12.44.02.45-.07.07-.06-.03-.07-.08-.04-.01,0-.02.02-.03.03-.04.04-.09.08-.12.14-.07.08-.12.29-.1.31.15-.13.23-.43.21-.78,0-.2-.03-.4-.13-.6-.08-.19-.23-.37-.46-.52-.23-.15-.25-.41-.3-.66-.01-.29-.39-1.15-.38-1.33.13-.79-.6-1.21-1.09-1.62-.23-.23-.63-.27-.86-.48-.18-.17-.27-.44-.45-.63-.13-.12-.49.04-.44-.27.07-.41-.06-.54-.4-.56-.39-.05-.86.18-1.16-.19-.21-.25-.61-.1-.86-.37-.27-.31-.71-.42-1.1-.44-.11,0-.21-.03-.31-.08l.28.04c-.46-.11-.86-.42-1.32-.32-.57.14-1-.21-1.47-.4-.45-.18-.9-.32-1.37-.44-.47-.11-.96-.13-1.5-.15-.54,0-1.07-.1-1.55-.38-.49-.24-.91-.65-1.23-1.13-.46-.7-.96-1.29-1.49-1.98-.7-.91-1.24-2.12-.95-3.3.09-.36-.05-.57-.05-1.05h0c-.37-.43,3.26,3.7,1.72,1.95h0s0,0,0,0h-.01s-.03,0-.03,0h-.06s-.11.03-.11.03l-.22.04-.44.06c-.29.04-.59.06-.88.06-.59,0-1.17-.1-1.75-.34-.35-.15-.78-.09-1.17-.04-.39.04-.77.19-1.16.29-.82-.41-1.74-.09-2.56-.5-.17-.08-.29-.09-.45,0-.21.11-.45.26-.66.25-1.1-.06-2.21.35-3.31-.11-.46.1-.92.23-1.38.28-.79.08-1.6.04-2.37.2-.47.1-.9.1-1.38.07-1.26-.08-2.54-.03-3.8-.03-1.27,0-2.54.02-3.8,0h-.24s1.97-1.86,1.97-1.86c-.05.31-.14.62-.24.92-.1.31-.18.64-.04.93.28.62.25,1.25.23,1.88-.06,1.82-.11,3.65-.13,5.47,0,.63-.33,1.2-.27,1.86.05.52.04,1.1-.28,1.6l-.26,4.51c-.03.47-.06.95-.1,1.42-.02.25-.18.45-.42.58-.25.21.19.36-1,.41-.14.04-.92-.24-1.01-.33-.57-.65-.19-1.11-.43-1.88-.17-.52-.03-1.18-.06-1.73Z"/>
  </g>
  <path class="cls-3" d="M31.46,164.15c1.21,1.07,2.58,1.72,3.62,2.89.47.54,1.36.68,1.79,1.35.27.42.77.67,1.09,1.08.41.54.86.78,1.57,1.09.41.21.69.29,1.5.8.64.39.91.69,1.7.96.69.23,1.47,1.13,2.17,1.41,1.45.53,2.21,1.43,3.91,1.74,1.4.45,2.6,1.22,3.73,1.72,1.42.72,2.88,1.35,4.31,2.04.34.15.66.38.95.59.64.46,1.33.69,2.11.85.74.13,2.08.67,3.33,1.19,1.26.48,2.42.93,2.76.96.45.07,2.33.49,4.16.93,1.83.41,3.64.76,3.91.87.36.13.66.3.97.2.56.27,1.47.15,1.93.45,1.19.33,1.62.46,3.07.61,1.37.15,2.74,1.21,4.07,1,2.76.28,4.5.24,4.9.17.71-.15,1.03.18,1.74.03.97-.21,2.89.32,3.13.09.26-.25.86-.17,1.23-.37.78-.43,1.84-.44,2.86-.25.54.09,1.07-.37,1.53-.22.83.29,1.74.3,2.77.18,1.09-.15,2.18-.26,3.26-.46l3-.55.17-.03.23-.04c.07-.02.18,0,.16-.1.01-.15.04-.29.09-.43.03-.11.04-.09.12-.32.06-.18.15-.36.24-.52.17-.34.38-.65.61-.93.56-1.04,1.14-1.73,1.64-2.21.49-.51.91-.81,1.26-1.14.38-.47.91-.71,1.39-1,.5-.23.99-.46,1.39-.84,1.16-.91.91-.84,2.95-1.29.1.02.26.02.43.02.11,0,.23,0,.35-.01.14,0,.29-.02.44-.03.58-.05,1.14-.14,1.45-.29.41-.03.8-.06,1.17-.11h.07s.02.06.02.06l.05.13c.03.09.06.17.09.26.06.16.12.32.17.46.22.57.38.95.4,1.03.14.67.29,1.15.33,1.3.07.21.15.35.23.5.16.29.31.59.38,1.46.18.41.29.74.42,1,.07.16.09.13.15.17.05.03.12.03.23,0,.11-.02.15-.05.22,0,.12.09.22.24.33.41.2.33.45.5.8.63,1.37.54,2.57,2.04,4.12,2.25.77.42,1.69.47,2.52.69,1.37.35,2.74.47,4.11.77.18.04.45.03.73-.02l.21-.04c.14-.04.27-.08.4-.12.28-.09.54-.18.76-.26.78-.28,1.51-.39,2.17-.47.67-.08,1.26-.21,2.1-.53.29-.11.56-.21.77-.28.08.31.05.65,0,1.01-.1.48-.23.91-.33,1.33-.19.79-.41,1.44-.45,2.27-.05.6-.26,1.31-.65,2.01-.15.36-.42.7-.67,1.03-.25.33-.48.71-.77.96-.89,1.01-2.1,1.22-2.96,1.9-.63.4-1.4.69-2.14.79-.37.08-.74.15-1.1.22-.35.06-.7.14-1.03.27-.88.38-1.5,0-2.4.1-.13-.08-.26-.15-.41-.21l.37-3.32c.55.44,1.54.58,2.55.49.6-.06,1.17-.15,1.76-.24.53-.05,1.06-.15,1.61-.21.55-.07,1.16-.2,1.71-.26.05.09.09.19.14.29.26.5.74.66.95.85.08.06.23.12.22.21.02.21.07.48.11.76.02.13.04.26.05.39v.1s.28.03.28.03l.52.06.25.03.12.02s-.02.05-.03.08l-.15.31c-.1.2-.19.4-.31.6-.41.8-.94,1.52-1.46,2.33-.28.37-.53.73-.87,1.01-.16.15-.31.3-.47.44-.14.12-.26.19-.39.29-.25.19-.51.36-.79.52-.28.17-.56.33-.88.48-.85.5-2.59.61-3.47.66-1.47.13-2.75.38-3.99.19l.53-3.71c.6.15,1.19.34,1.72.6,1.11.25,2.13.58,3.36.63.79.04,1.56.14,2.28.29l.27.06c.06.03.25,0,.14.12-.09.16-.19.33-.29.5-.2.32-.42.65-.67.98-.17.23-.43.54-.51.72-.14.35-.3.71-.56,1.08l-.37.56c-.13.19-.32.37-.49.56-.35.36-.68.76-1.15,1.05-.43.29-.94.65-1.33.82-.93.67-1.93,1.19-3.06,1.41-.54.12-1.01.38-1.53.56-.51.2-1.06.4-1.65.34-.47-.03-.9,0-1.32.05-.42.03-.83.09-1.26.17-.87.2-1.73.02-2.61-.14-.61-.14-1.27-.39-1.83-.41-1.41-.07-2.78-.13-4.16-.2-.68-.04-1.35-.08-2.04-.12l-1.01-.06c-.07,0-.2,0-.22-.02-.02,0-.01,0-.02-.01.09-.02-.02,0-.05,0l-.58.02c-1.16.03-2.2.32-3.41.54-.94.38-1.6.27-2.14.01-.28-.13-.55,0-.86.24-1.59.57-3,.06-3.8.22-1.15.27-2.33.44-3.57.23-.51-.08-1.31-.17-1.75-.06-1.01.25-1.88.21-2.91.07-1.39-.22-2.79-.31-4.16.03-1.11.3-2.38.1-3.61,0-1.6-.12-3.12-.73-4.78-.6-.17.01-.43-.04-.6-.1-1.07-.33-2.11-.67-3.19-.85-1.07-.19-2.16-.25-3.29-.25-.49,0-1.27-.18-1.76-.39-1.71-.68-3.33-1.29-5.2-1.32-.34,0-.85-.16-1.16-.32-2.51-1.31-5.32-1.99-7.99-2.97-2.14-.76-4.21-1.63-6.2-2.67-.53-.29-1.02-.58-1.61-.74-1.58-.41-3-1.18-4.3-2.14-.81-.6-1.71-1.1-2.65-1.39-1.58-.48-2.9-1.3-4.14-2.36-.57-.5-1.24-1.02-1.93-1.41-1.75-1.04-3.3-2.38-5.07-3.34-1.8-1-3.24-2.42-4.93-3.55-1-.65-2.11-1.1-2.96-2.01-.83-.92-1.8-1.56-2.77-2.3-.85-.66-1.3-1.48-1.81-2.25-.56-.86.23-2.03,1.04-1.78.05.02.51.16.57.27.35.18,2.24,1.35,3.63,2.51.76.64,1.57,1.24,2.19,1.97.51.62,1.1,1.05,1.82,1.36.86.37,1.76.91,2.45,1.58,2.3,2.16,5.05,3.85,7.74,5.56.84.52,1.66,1.09,2.51,1.6.33.2.63.52.94.65,3.65,1.53,7.14,3.57,10.85,5.01,1.12.41,1.83.72,2.96,1.01.92.24,1.75.51,2.64.89.89.38,1.86.82,3.12,1.28.6.39,1.35.72,2,1.1.52.28,1.06.46,1.64.55,1.35.21,2.69.53,4.05.82l2.03.47c.68.14,1.36.25,2.04.36,3.15.98,7.64,1.54,8.06,1.46.97.14,1.93.37,2.89.55.77.15,1.52.3,2.28.45,1.01.18,1.98.19,2.86-.08.9-.26,1.84-.27,2.81-.02,1.71.42,3.43.39,5.15.02,1.71-.48,3.4-.51,5.19-.34,1.55.1,3.1-.06,4.55-.63,1.06-.46,2.23-.57,3.41-.56.28,0,.6.01.9.02h.22c.14-.02.25-.04.36-.04.18,0,.29-.02.42-.04,1.09-.29,3.42-.03,3.68-.12.25-.11.85-.02,1.19.04,1.01.16,1.91.31,2.92.5.92.16,1.84.11,2.73.1.71.06,1.56-.04,2.11.13.64.18,1.25.05,1.83-.08.56-.21,1.12-.37,1.68-.52.5-.08.98-.26,1.46-.47.25-.09.46-.24.69-.36l.34-.19c.1-.06.09-.06.14-.09.33-.21.62-.65.03-.61-.06,0-.11.01-.17.02-.04,0-.13,0-.16,0-.08,0-.12-.04-.16-.07-.08-.06-.51-.16-.7-.26l.58-4.07c.47.08.65.11.73.15,1.66.65,3.66.2,4.95-.52.33-.17.61-.4.85-.65.17-.15.14-.17.14-.2,0-.03,0-.05,0-.06,0-.02.27-.06.36-.19.03-.04-.1-.03-.18-.01-.08.01-.11.03.17-.15.25-.16.42-.31.55-.43.18-.16-.06-.05-.31.08-.22.12-.42.26-.53.36-.08.07-.12.12-.15.14-.01.01-.02.02-.03.01,0,0,0,0-.01-.01-.04,0,.06-.02-.09-.02-.98-.06-2.02.18-3.15-.03-.6-.11-1.24-.22-1.89-.34l.44-4.03c.57.02,1.15.02,1.69-.03,1.22-.23,2.45.12,3.4-.49.24-.11.44-.24.64-.36.19-.12.43-.17.6-.29.19-.11.38-.2.58-.3l.26-.19c.1-.07.18-.13.22-.15.27-.15.51-.45.58-.74.04-.14.03-.28-.03-.36-.04-.03-.04-.11-.15-.04-.11.06-.22.13-.32.2l-.13.09c-.2.15-.3.25-.37.32l-.07.08-.02.02s.04,0-.05,0h-.23c-.62.05-1.24.06-1.86.04-.62-.07-1.23-.18-1.83-.31-1.72-.48-3.39-.87-5.08-1.51-2.28-.83-4.49-2.11-5.98-3.98-.23-.28-.43-.48-.71-.73l-.53-.51c-.16-.18-.23-.43-.34-.65-.32-.71-.63-1.42-.95-2.12l-.58-1.38c-.03-.05-.03-.16-.07-.19-.07,0-.13-.01-.21-.03l-.13-.03s-.03-.02-.09-.01l-.25.03c-.34.04-.68.06-1.03.08-.83.07-1.78.44-2.54.88-.79.41-1.39,1.01-1.95,1.58-.59.33-1.14.8-1.53,1.39-.22.28-.37.6-.53.9-.07.16-.15.31-.21.47l-.1.27c-.06.18-.1.34-.14.52-.29.39-.55.73-.73,1-.06.16-.28.25-.45.35-.2.11-.37.21-.52.32-.34.04-.63.11-.98.22l-.3.09-.2.08-.41.15c-.28.1-.56.17-.84.21-.71.09-1.41.24-2.11.35l-2.13.31c-1.42.21-2.84.35-4.27.18-1.18.16-2.35.4-3.55.47-2.05.1-4.14.12-6.16.17-1.23.05-2.36.04-3.58-.12-1.64-.19-3.28-.3-4.92-.55l-2.46-.32-2.44-.43c-3.25-.56-6.45-1.38-9.62-2.29-.97-.31-1.91-.71-2.84-1.11-.77-.31-1.54-.67-2.3-.78-.79-.12-1.57-.31-2.34-.56-.77-.26-1.53-.57-2.3-.87-4.41-1.77-8.68-3.85-12.82-6.19-1.42-.82-2.6-1.86-4.05-2.72-1.18-.66-2.42-1.51-3.36-2.51-3.19-2.26-6.24-4.72-9.16-7.34-.91-.84-1.82-1.69-2.69-2.58-.46-.46-.75-.97-.83-1.4-.23-.58-.78-.53-.14-1.58.02-.18,1.01-.27,1.22-.18,1.49.7,2.12,1.81,3.69,2.89,1.08.74,2.26,1.91,3.36,2.75Z"/>
  <path class="cls-3" d="M160.21,163.33c-.62.75-.88,1.67-1.68,2.23-.36.25-.33.88-.83,1.06-.31.12-.43.44-.74.58-.4.19-.54.46-.69.92-.12.25-.15.44-.49.91-.26.37-.46.51-.61,1.01-.13.44-.82.77-.99,1.21-.35.88-1.03,1.2-1.22,2.29-.3.87-.94,1.46-1.35,2.09-.58.77-1.17,1.53-1.78,2.28-.14.18-.36.3-.55.42-.42.26-.65.64-.82,1.11-.32.88-2.25,2.69-2.37,3.1-.17.55-2.48,3.95-2.74,4.19-.17.16-.38.26-.36.49-.35.2-.43.79-.79.91-.26.27-.44.45-.62.65-.05.06-.1.12-.15.18-.07.09-.14.19-.22.29-.15.21-.32.44-.52.73-.09.14-.2.26-.31.38-.15.04-.35-.02-.52-.04-.35-.05-.7-.14-1.02-.22-.35-.08-.54-.15-.76-.19-.21-.04-.42-.03-.62.05-.86,0-1.57-.09-2.08-.08-.52,0-.86,0-.99,0-.47.09-.62-.25-1.09-.16-.67.16-1.7-.76-1.9-.58-.23.19-.57,0-.87.12-.63.22-1.27-.15-1.78-.62-.25-.26-.78-.07-.96-.37-.16-.27-.34-.51-.56-.71-.21-.23-.44-.44-.72-.62-1.19-.78-2.28-1.72-3.19-2.83-.59-.68-1.14-1.47-1.29-2.35-.44-.76-.67-1.4-.84-1.88-.01-.06-.06-.13-.04-.18l.1-.15c.06-.1.12-.19.18-.27.11-.17.19-.33.29-.49.4-.97.97-1.13,1.04-1.83.07-.93.03-.74.75-1.64.25-.08.78-.48.74-.77.48-.4.74-.89.79-.92.89-.52.3-.73,1.27-1.24.29-.45.54-.63.4-1.05-.07-.21.04-.4.3-.54.24-.12.32-.31.37-.56.21-1.04,1.44-1.58,1.71-2.6.42-.41.58-1.04.95-1.49.61-.74,1.14-1.53,1.99-2.02.22-.13.42-.59.49-.9.12-.52.72-.61.84-1.1.14-.58.63-.61,1.01-.8.31-.16.59-.31.69-.73.14-.58.6-1.01.92-1.5.34-.51.99-.74,1.14-1.31.21-.8,1.08-1.19,1.2-2.01.08-.54.53-.62.75-1.06.72-.06,1.2-.53,1.56-1.2.39-.71.63-1.49,1.35-2.03.22-.17.29-.62.44-.94.16-.31.3-.65.51-.92.44-.57,1.2-.77,1.55-1.44.33-.62.7-.98,1.03-1.6.22-.42.93-.96,1.22-1.35.65-.86.67-1.94,1.67-2.39.29-.38.69-.7.73-1.19.05-.62.35-1.08.9-1.41.1-.06.24-.14.27-.22.25-.67.52-1.31,1.21-1.68.29-.51.64-.96,1.11-1.34.45-.37.4-1.11.94-1.47.43-.28.63-.69.78-1.14.15-.46.46-.82.83-1.14.26-.23.58-.48.7-.77.73-1.67,1.75-3.08,3.18-4.24.53-.43.82-1.01,1.24-1.59.19-.58.53-.78.96-.82.22-.02.24-.22.2-.5.26-1,1.28-1.21,1.47-1.68.26-.66.6-1.27,1.26-1.68.27-.17.62-.49.69-.76.17-.62.51-.99,1-1.38.33-.26.62-.56.85-.89.11-.17.21-.35.3-.54.04-.1.08-.19.11-.29.02-.09.14-.31.2-.47.17-.41.4-.82.67-1.24.4-.1.84-.18,1.28-.25l.94-.14c.49-.07.88-.03,1.46-.06.43,0,.87-.19,1.28.02.19.05.4.1.58.14.13.02.25.02.39.02.11,0,.26.06.35.13,1.19.77,2.37,1.34,3.87,1.39.32.03.77.28,1.03.52.9.79,1.74,1.49,2.97,1.81.22.08.51.29.64.48,1.1,1.54,2.57,2.8,3.57,4.54.38.69.74,1.41.94,2.18.06.2.11.37.16.59l.12.87c.03.29.09.57.09.85l-.04.83c0,.3-.03.58-.1.83-.05.26-.07.54-.08.84-.08.45-.2.89-.38,1.29-.08.19-.2.44-.3.6-.09.13-.21.31-.33.44-.64-.19-1.27-.4-1.89-.68-.52-.23-1-.39-1.47-.54-.24-.07-.47-.13-.71-.18-.21-.04-.54-.1-.65-.1-1.04-.02-1.93-.39-2.73-1.04-.37-.31-.81-.59-1.25-.78-1.15-.49-2.13-1.3-3.3-1.75-1.2-.47-2.06-1.43-3.13-2.1-.32-.2-.67-.35-1.01-.52-.33-.19-.63-.43-.86-.76-.46-.64-1.02-1.12-1.6-1.65-.53-.45-.57-1.17-.74-1.73-.17-.65.91-1.51,1.49-1.36.04.01.36.09.36.17.11.05.43.27.78.58.38.29.84.63,1.16,1.01.37.42.84.74,1.09,1.26.22.43.58.67,1.03.78.54.15,1.08.41,1.46.82,1.27,1.34,2.99,2.15,4.66,2.96l1.57.76c.2.1.39.3.59.33.34.06.68.12,1.01.19l.47.11.29.05,1.04.24c.31.19.34-.23.35-.45.02-.26-.01-.52-.08-.76-.04-.17-.09-.31-.14-.44-.03-.08-.04-.1-.11-.22-.06-.12-.14-.24-.22-.36-.58-.81-.69-1.62-1.52-2.79-.05-.2-.12-.4-.21-.6-.1-.19-.21-.37-.3-.57-.15-.31-.34-.57-.65-.71-.72-.33-1.34-.76-2.04-1.12-.66-.41-1.38-.74-2.11-1.01-.38-.28-.84-.5-1.31-.71-.47-.21-.93-.41-1.36-.57-.88-.26-1.58-.43-1.71-.41l-.2-.07c-.06-.02-.07-.03-.11-.05-.07-.03-.1-.07-.16-.08l-.17-.03h-.43c-.46.02-.97-.03-1.39-.03-.16-.02-.33,0-.45.07-.06.16-.09.34-.04.51.05.06-.01.23-.06.36-.05.14-.11.26-.19.38-.15.24-.36.45-.63.62-.93.6-1.58,1.4-1.91,2.46-.34,1.06-1,1.86-1.9,2.52-.78.57-1.34,1.32-1.6,2.28-.19.71-.68,1.23-1.27,1.67-.28.21-.67.43-.77.69-.22.6-1.14,1.55-1.13,1.74.02.19-.22.43-.36.58-.39.44-.73.82-1.07,1.29-.34.47-.5,1.07-.81,1.57-.24.4-.56.89-.91,1.07-.83.43-.9,1.36-1.51,1.92-.52.47-.98,1.05-1.42,1.61-.52.66-.97,1.35-1.15,2.18-.1.45-.45.82-.79,1.17-.37.4-1.49,1.79-1.74,1.93-1.06.6-1.58,1.83-2.23,2.83-.32.5-.51,1.08-.84,1.56-.26.38-.7.64-1,1-.2.24-.14.76-.54.79-.51.03-.72.25-.91.77-.24.62-.3,1.31-.93,1.84-.42.36-.57.96-1.07,1.36-.53.43-1.04,1.03-1.38,1.64-.43.77-1.28,1.09-1.61,1.84-.32.72-.9,1.08-1.4,1.58-.94.93-1.73,1.97-2.16,3.25-.43,1.26-1.22,2.33-2.27,3.15-.77.6-1.35,1.31-1.9,2.12-.74,1.09-1.45,2.23-2.54,3-.32.23-.42.56-.59.86-.9,1.56-1.88,3.04-3.35,4.15-.44.33-.79.89-1.12,1.39-.08.12-.16.25-.23.38-.03.06-.08.14-.1.18v.07c-.01.1,0,.18.02.24-.19.03-.18.12-.19.21,0,.05.01.1.03.15l.02.06s.01.04.05.12c.26.52.56,1.01.72,1.59.07.23.18.36.38.48.26.16.58.3.78.51,1.01,1.13,2.42,1.69,3.53,2.74.61.2,1.24.29,1.84.48.53.11,1.06.26,1.58.39.54.08,1.09.15,1.62.16.65.01,1.25,0,1.9.11.79.13,2.1.03,1.93.06.05.01.06-.04.08-.07l.09-.14.85-1.18c1.14-1.56,2.27-3.12,3.44-4.65.36-.47.79-.9,1.21-1.31.35-.34.69-.71.83-1.15.29-.92.85-1.69,1.42-2.48l4.82-6.78c.55-.78,1.32-1.33,1.84-2.18.41-.68.92-1.39,1.62-1.84l4.15-5.47,1.33-1.71c.24-.3.55-.47.86-.49.39-.12.16-.54,1.21.02.15.02.57.79.56.95-.08,1.1-.81,1.48-1.27,2.55-.32.74-1,1.47-1.46,2.17Z"/>
  <path class="cls-3" d="M164.26,159.56c.64-.05,1.13-.5,1.77-.36.3.06.49-.4.84-.23.23.11.4-.05.64.03.31.11.48-.04.7-.29.14-.13.22-.23.54-.42.25-.15.43-.15.62-.45.16-.27.71-.21.9-.47.35-.53.91-.51,1.1-1.29.23-.59.76-.8,1.05-1.19l.65-.64.63-.68c.07-.08.15-.09.35-.24.07-.04.14-.08.21-.11.27-.08.45-.24.65-.35.15-.11.26-.22.36-.37.39-.54,2.09-1.11,2.22-1.39.08-.19.66-.71,1.18-1.22.53-.51,1.03-1.01,1.12-1.07.13-.07.3-.09.26-.27.28-.06.31-.48.58-.49.36-.3.56-.37.82-.85.13-.22.46-.32.75-.46.27-.14.53-.32.52-.6.24-.47.35-.89.45-1.18.05-.31.05-.51.03-.59-.12-.31.24-.29.1-.67-.06-.16-.04-.35,0-.54.26-.37.48-.76.63-.82.02-.03.03-.05.02-.07-.08-.23.25-.38.15-.82,0-.13.07-.21.16-.28-.19-.05-.13-.13-.11-.18.03-.06.07-.1.12-.14.11-.07.23-.15.4-.2.22-.07-.07-.47.16-.49.41-.06.68-.29.77-.63.19-.71.18-1.4-.06-2.05-.16-.41-.37-.78-.4-1.32-.2-.3-.44-.49-.58-.67-.16-.16-.27-.3-.43-.36-.48-.04-.56-.56-1.05-.49-.69.15-.59.12-1.12-.24.04-.18-.06-.42-.17-.21,0-.07-.3-.13-.42-.15-.15-.02-.25-.02-.27-.04-.58-.5-.55.12-1.15-.44-.37-.01-.56-.13-.77.21-.11.17-.26.17-.42.03-.15-.13-.29-.1-.46-.01-.7.37-1.41-.36-2.11-.02-.38-.13-.8.09-1.19.04-.63-.08-1.26-.06-1.84-.45-.15-.11-.47.02-.66.15-.31.23-.59-.2-.88.02-.33.25-.54-.1-.8-.27-.1-.07-.2-.12-.3-.14-.12-.02-.19,0-.21.09-.07.26-.21.17-.31.26-.05.06-.58-.16-.44.1.11.15.06.2,0,.27-.04.07-.04.18.24.23.36.04,0,.11.16.16-.54.24-.42.5-.15.57l.11.02.18.07c.12.05.24.09.36.15.37.21.81.51,1.12.86.18.22.8.34,1.26.55.44.2.95.41,1.34.66.82.52.61.96,1.33,1.39.68.42.76.69,1.15,1.03.23.24.1.53.23.73.13.22.41.44.49.73-.08.4-.06.51-.53.5-.14.1-.5.12-.27.37.3.33.19.55-.54.5-.14-.01-.34-.04-.35,0-.06.17-.15.35-.48.42-.29.08-.84.03-1.53-.16-.68.05-1.52-.02-2.4-.19-.42-.08-.71,0-1.05.07-.33.07-.71.14-1.13.05-.31-.08-.68-.08-.84-.05-.14.03-.28.1-.41.19-.27.18-.55.19-.86.13-.21-.04-.47-.1-.63.01-.96.63-1.7.93-2.55,1.01-.33.04-.45.32-.56.52.15.14.03.06-.32.02-.17-.02-.09.05.12.1.2.08.11.08,0,.16-.12.07-.25.19-.15.19.29,0,.36-.09.3.19,0,.12,0,.21.19.17.39-.11.67,0,1,.24.45.32.99.44,1.58.14.47-.24.95-.12,1.44-.04.63.11,1.2.59,1.97.36.08-.02.2.02.27.07.24.15.47.28.79.43.16.08.33.15.66.33.1.06.21.13.3.21.02.01.15.12.25.24.1.12.2.25.27.38.04.07.07.14.1.2.05.1.13.38.14.59.01.24,0,.41-.07.68-.07.25-.21.51-.38.7-.1.12-.14.14-.18.19-.05.04-.1.08-.15.12-.1.07-.22.14-.33.19-.14.06-.21.08-.32.11-.34.08-.44.07-.57.09l-.29.02c-.17.01-.3.02-.44.04-.27.04-.51.11-.76.21-.22.09-.55.04-.75-.08-.69-.42-1.37-.6-2.12-.25-.14.06-.34.06-.47-.02-1.03-.64-2.18-.48-3.24-.43-.85.04-1.65.09-2.42.06-.21,0-.41-.02-.57.12-.43.39-.79.5-1.22.44-.28-.03-.43.14-.35.35.04.09.07.14.08.21,0,.08,0,.14-.02.2-.03.1-.12.11-.25.22-.14.09-.17.27-.09.42.21.35.48,1.04,1.16,1.31.67.26,1.12.92,1.87,1.15.44.14.97,0,1.32.37.35.36.82.41,1.27.5.4.08.62.49.88.8.27.34.02,1.71-.41,1.98-.03.02-.27.16-.31.1-.19.06-1.23.13-1.97-.19-.4-.17-.83-.3-1.13-.66-.24-.29-.53-.42-.92-.4-.47.02-.93-.14-1.24-.48-.51-.55-1.06-1.03-1.61-1.57-.54-.53-1.1-1.16-1.42-2.01-.2-.53-.26-1.13-.17-1.7.05-.22.19-.43.22-.6.02-.52.19-1.08.53-1.56.33-.48.77-.85,1.23-1.11.92-.54,1.86-.75,2.75-1.01.54-.15.89-.17,1.4-.38.85-.34,1.58-.13,2.75-.02.3.18.65.27.95.44.24.14.48.17.74.1,1.19-.31,2.39-.06,3.55-.1.33.09.69.17,1.02.22l.22.03h.09s.02,0,.02,0h.01s0,0,0,0c0,0,0-.01,0,.06.03.45.06.78.12,1.02.05.26.18.29.1.28-.2.05-.37.36-.6.86-.19.39-.11.26-.13.28h-.05s-.1-.03-.14-.04c-.1-.02-.22-.03-.31-.04-.2-.02-.34-.01-.39,0-.38-.08-.77-.22-1.16-.36-.31-.11-.61-.28-.93-.39-.41-.15-.83-.14-1.25.07-.43.22-.86.18-1.24-.12-.34-.27-.68-.45-1.06-.57-.19-.06-.39-.1-.59-.12-.27-.04-.55-.07-.85-.12-1.3-.14-2.38-1.18-2.25-2.43.05-.52.23-.99.35-1.47.12-.48.24-.96.35-1.52.03-.19.14-.43.22-.58.08-.15.19-.29.31-.42.24-.25.54-.44.86-.56.3-.12.7-.17.86-.36.36-.46,1.46-.74,1.52-.89.07-.16.35-.21.51-.24.47-.09.87-.15,1.31-.25.44-.1.84-.4,1.29-.51.35-.09.79-.18,1.07-.02.48.37.3-.13.5.02.2.12.37.14.52.15.17.02.3-.03-.37-.4-.37-.2-.27-.14-.11-.09.15.05.41.13.79.2.74.17.71.1.53.02-.19-.09-.55-.19-.72-.24-.18-.06-.66-.13-.72-.14-.05,0,.26-.02.24-.06-.02-.03-.55.05-.14-.04.49-.13.43-.21.19-.18-.14.02-.3.07-.39.12l-.09.05s.06.05-.09-.12c-.14-.18-.3-.27-.54-.44-.29-.21-.6-.46-.83-.81-.48-.72-.97-1.49-1.27-2.23-.38-.98.17-1.81.44-2.6.26-.82,1.09-1.12,1.86-1.35.73-.23,1.5-.35,2.24-.48.52-.1,1-.24,1.48-.47.95-.46,1.97-.46,2.89-.07.67.29,1.33.36,2.03.38.94.02,1.91,0,2.76.52.25.15.49.06.74.05.64-.02,1.28-.01,1.9.09.16.03.31.06.46.1.24.06.48.12.72.19l.2.06c.06.04.11.09.16.13l.3.26c.22.19.3.3.41.46.26.35.72.55,1.1.83.38.28.85.41,1.26.72.21.54.59.91.87,1.44.15.25.31.49.41.76.09.28.15.57.16.86.02.23.04.39.17.58.17.25.41.55.41.87.11,1.54-.07,3.3-1.25,4.26l-.35.7-.21.34-.11.17s-.03.05-.06.09l-.16.17s-.01.04-.02.06c-.02.05-.05.08-.08.12-.06.03,0,.13-.01.18,0,.13,0,.26.01.39l-.06.67c-.02.31-.06.62-.14.9-.1.28-.21.55-.34.83-.7,1.47-1.56,2.78-2.57,3.91-1.01,1.11-2.12,2.08-3.28,2.92-.36.27-.78.43-1.18.61-.34.14-.67.28-.86.58-.19.31-.44.56-.7.77-.12.1-.3.23-.32.25-.02.02-.02.03-.03.05h0c.08-.08-.09.12-.15.2l-.25.31-.5.62-1.09,1.17-1.19,1.09c-.43.33-.84.69-1.29,1-.63.44-1.39.56-2.04.98-.52.35-1.17.65-1.85.59-1.69.61-3.47.97-5.25,1.05-.56.03-1.12.02-1.68-.02-.29-.03-.54-.18-.68-.43-.23-.26-.42.17-.44-1.01-.04-.14.29-.91.39-.99.67-.55,1.14-.18,1.89-.48.5-.21,1.16-.15,1.69-.29Z"/>
  <path class="cls-1" d="M186.61,89.83c.18-.31,0-.74.42-.92.19-.08-.11-.41.22-.44.2-.02.16-.17.35-.21.24-.05.24-.17.16-.39-.01-.12-.07-.21,0-.41.05-.16.16-.2.06-.44-.09-.21.34-.3.29-.5-.11-.41.31-.5-.02-1.02-.14-.4.11-.63.17-.9.13-.32.28-.64.45-.95.04-.07.16-.11.27-.16.23-.09.24-.26.16-.47-.14-.4.62-1.13.54-1.32-.12-.26.26-1.71.35-1.81.07-.06.19-.1.07-.21.19-.08-.01-.35.23-.39.18-.22.27-.3.33-.62.06-.3.98-.35.79-.71.19-.58.25-.96.19-1.07-.12-.2.2-.18.09-.38-.17-.27.5-.52.29-.63-.22-.12-.1-.23-.27-.36-.37-.29-.22-.49.07-.64.15-.08-.23-.32-.03-.36.36-.08.55-.24.6-.46.1-.48.17-.96.28-1.43.07-.3.1-.61.45-.82.04-.47.16-.67.11-.88-.21-.29.18-.43-.13-.71-.43-.39-.36-.31-.25-.72.17-.04.39-.23.21-.35.19-.18.14-.4.17-.41.47-.25-.14-.31.39-.57,0-.2.11-.29-.22-.45-.17-.08-.18-.17-.04-.23.13-.06.09-.14,0-.25-.39-.43.32-.73-.02-1.15.12-.19-.09-.45-.03-.66.09-.34.1-.68.53-.94.11-.07.02-.26-.09-.39-.19-.21.26-.29.09-.49-.2-.23.19-.29.39-.4.17-.09.31-.17.17-.34-.21-.23-.06-.44-.08-.66-.02-.23.39-.38.19-.61-.28-.32.21-.56-.16-.88-.24-.21.08-.29.01-.47.55-.1.68-.33.59-.62-.09-.31-.32-.61-.05-.9.09-.09-.12-.26-.17-.39-.05-.13-.12-.27-.1-.39.04-.26.54-.43.45-.71-.08-.26,0-.44-.1-.7-.07-.17.19-.47.19-.64.02-.39-.6-.76-.05-1.07.01-.17.15-.34-.11-.51-.32-.21-.35-.41-.1-.61.04-.04.11-.08.09-.12-.19-.26-.35-.51-.01-.75-.06-.22-.04-.42.11-.63.15-.2-.33-.42-.1-.63.18-.17.08-.33-.07-.5-.16-.17-.13-.34-.03-.51.07-.12.17-.26.09-.37-.43-.65-.47-1.27-.04-1.91.16-.24.04-.47.02-.73-.2-.21-.05-.34.27-.45.16-.06.06-.12-.14-.18-.4-.34.29-.64.15-.81-.2-.24-.29-.49-.04-.76.11-.11.17-.28.06-.37-.25-.21-.22-.39-.09-.61.18-.3.17-.61-.24-.87-.33-.21-.31-.48-.32-.74-.01-.34.36-.7-.02-1.01-.04-.03-.02-.09,0-.13.38-.5.4-.96-.15-1.37-.12-.09-.12-.26-.03-.38.31-.41.33-.79-.14-1.12-.09-.06-.12-.17-.06-.25.45-.64.13-1.22,0-1.81-.1-.47-.18-.94-.08-1.43.03-.13.06-.26-.06-.37-.32-.29-.32-.63-.09-1.02.14-.24.12-.46-.11-.63-.38-.28-.42-.6-.2-.99.1-.18.15-.37.1-.54-.13-.42.05-.9-.23-1.27-.29-.38-.05-.87-.27-1.27-.13-.23-.51-.39-.38-.69.13-.3-.04-.51-.16-.74-.11-.21.16-.47.33-.71.19-.26,1.52-.68,1.92-.61.03,0,.25.05.21.09.13.05.62.44.69.85.04.22.13.44-.02.69-.12.21-.08.37.14.49.27.15.39.36.32.6-.26.78,0,1.46.1,2.18.03.22.04.45.04.67,0,.09-.1.2-.04.27.67.77.48,1.73.82,2.58.1.26.11.43.32.66.35.39.18.77.2,1.38-.15.18-.19.37-.31.55-.1.15-.1.27,0,.39.48.56.51,1.2.73,1.81-.16.76,0,1.78.13,1.86,0,.22-.06.45-.13.68-.05.18-.16.36-.21.54-.07.23.03.45.32.63.3.19.37.4.17.63-.35.41-.35.79.05,1.17.41.38.36.78.04,1.18-.28.36-.27.7.11,1.05.28.25.2.52,0,.79-.09.13-.28.28-.19.38.19.23.03.72.16.78.13.05.08.18.07.26-.05.22-.08.41-.07.63.01.22.25.44.31.66.05.18.1.4-.07.53-.39.3.08.62-.08.92-.14.25-.18.53-.2.8-.03.32,0,.63.35.94.18.17.11.36.05.54-.07.2-.16.87-.28.96-.5.39-.2.89-.14,1.35.03.23.23.46.23.69,0,.17-.21.33-.25.5-.03.12.32.3,0,.36-.4.08-.45.19-.31.41.16.26.49.52.28.8-.14.19.07.43-.11.65-.19.23-.27.52-.2.79.08.34-.43.57-.28.89.15.31-.13.52-.26.76-.24.46-.34.94,0,1.48.33.54.27,1.04-.16,1.46-.31.3-.4.64-.41,1.01-.02.5.02,1.02-.46,1.41-.15.11-.05.25-.04.39.08.7.05,1.38-.59,1.92-.19.16-.19.42-.19.64,0,.23.09.47.14.71-.51.36-.3.95-.82,1.29-.11.07-.13.13-.07.24.08.14.18.31.14.43-.23.59,0,1.31-.61,1.78.02.28.08.56.06.83-.04.46-.2.89-.18,1.36.02.29-.06.52-.17.77-.3.66-.48,1.37-.7,2.06-.21.69-.45,1.38-.72,2.05-.08.21-.25.39-.41.56-.13.14-.25.3-.17.51.18.43.06.77-.04,1.12-.33.99-.67,1.99-.97,2.99-.12.35-.52.54-.58.93-.05.3-.16.62-.54.78-.34.8-.71,1.58-1.08,2.37-.12.25-.25.5-.39.74-.07.13-.26.17-.5.14-.27,0,.08.29-.99-.21-.13-.04-.77-.54-.83-.62-.38-.58.05-.66-.03-1.16-.05-.34.19-.62.27-.93Z"/>
  <path class="cls-1" d="M191.09,116.61c.3-.11.43-.55.83-.41.18.06.16-.37.41-.18.16.12.22-.01.37.09.2.13.27.04.34-.16.06-.09.07-.19.24-.29.13-.08.23-.03.31-.27.06-.2.41.02.5-.15.18-.35.52-.12.62-.71.16-.37.48-.34.69-.48.29-.12.6-.23.91-.32.07-.02.18.04.28.09.21.11.33,0,.42-.18.17-.37,1.16-.24,1.22-.43.1-.25,1.31-.89,1.44-.87.09.01.19.09.19-.07.17.11.23-.22.41-.05.27,0,.37.03.63-.1.25-.13.82.58.97.22.52-.19.83-.35.87-.47.08-.21.24.06.31-.15.1-.29.66.13.62-.11-.03-.25.11-.21.11-.42,0-.46.24-.45.51-.29.14.09.11-.36.25-.22.26.25.48.34.67.26.41-.17.8-.36,1.21-.52.26-.1.51-.24.85-.03.38-.19.59-.18.73-.34.12-.32.42-.05.49-.45.1-.56.07-.46.44-.55.11.13.37.24.37.02.23.08.38-.06.41-.04.42.29.18-.27.63.08.16-.09.28-.04.25-.4-.01-.19.05-.23.17-.14.11.09.16.02.2-.11.18-.53.73-.02.93-.5.21.03.33-.27.53-.3.32-.05.61-.18,1,.12.1.08.23-.08.29-.23.1-.25.35.12.45-.11.12-.27.31.06.48.21.14.12.26.22.35.02.12-.28.34-.23.52-.31.19-.09.46.24.59-.03.17-.37.55,0,.69-.45.09-.3.27-.02.41-.15.28.49.51.54.73.37.23-.18.43-.49.76-.32.1.05.19-.19.29-.28.1-.09.2-.2.31-.22.24-.05.53.38.75.22.2-.15.39-.12.59-.28.14-.11.46.06.62.03.35-.08.52-.77.93-.31.16-.02.34.07.44-.21.12-.35.29-.42.53-.22.04.04.1.09.13.06.19-.24.39-.44.68-.17.18-.11.37-.13.59-.02.21.1.32-.41.55-.23.19.14.32.03.45-.14.13-.18.29-.18.46-.1.12.05.27.13.36.04.53-.53,1.11-.63,1.76-.25.24.14.44,0,.68-.05.17-.22.31-.08.44.22.07.16.11.05.16-.16.28-.43.61.23.76.07.21-.22.43-.34.7-.09.11.1.27.17.35.06.18-.26.35-.23.57-.1.29.18.56.15.8-.24.19-.32.45-.29.69-.29.32,0,.64.38.95.02.03-.04.08-.02.12.01.45.4.87.44,1.29-.1.09-.12.25-.11.36-.02.36.32.7.4,1.06-.03.06-.08.17-.1.24-.04.55.51,1.12.34,1.68.31.45-.02.9,0,1.33.18.12.05.23.11.35.01.33-.26.65-.2.95.09.19.19.39.19.59.02.34-.29.65-.27.94.08.13.15.29.27.45.28.41.02.77.35,1.19.21.43-.14.78.24,1.19.17.24-.04.52-.35.73-.13.21.22.46.13.71.09.22-.03.34.31.48.55.15.26-.04,1.64-.26,1.99-.01.02-.13.22-.15.17-.09.1-.58.43-.93.37-.19-.04-.39-.02-.54-.24-.12-.18-.27-.2-.44-.02-.21.21-.42.25-.58.1-.55-.49-1.18-.47-1.78-.61-.19-.04-.38-.11-.56-.18-.07-.02-.14-.15-.21-.11-.8.43-1.56.14-2.34.3-.23.05-.38.03-.61.2-.38.27-.67.04-1.19-.05-.13-.18-.29-.25-.43-.4-.11-.12-.22-.15-.34-.06-.53.42-1.08.34-1.61.55-.64-.19-1.52-.06-1.59.05-.19,0-.39-.08-.58-.16-.15-.06-.31-.17-.46-.23-.2-.08-.39,0-.54.29-.16.29-.33.36-.54.17-.36-.34-.7-.34-1,.07-.3.41-.64.4-1.01.11-.32-.25-.63-.21-.88.2-.19.3-.42.25-.67.07-.12-.08-.27-.25-.35-.16-.17.21-.61.09-.65.22-.03.13-.14.1-.21.1-.19-.02-.36-.02-.54.02-.18.04-.33.3-.51.39-.14.07-.32.15-.46,0-.33-.36-.5.19-.78.08-.24-.09-.48-.07-.7-.04-.27.03-.52.13-.71.52-.1.21-.27.18-.43.15-.18-.04-.75.02-.86-.07-.44-.4-.79.01-1.15.18-.18.08-.32.32-.5.39-.14.05-.33-.1-.48-.1-.1,0-.15.39-.29.11-.18-.36-.28-.37-.42-.18-.16.23-.27.62-.56.5-.2-.08-.32.19-.55.08-.25-.12-.5-.11-.69.05-.24.19-.59-.22-.8.03-.2.24-.45.05-.7,0-.45-.07-.87.03-1.16.55-.29.51-.7.63-1.19.4-.36-.17-.65-.12-.94.02-.39.19-.77.43-1.28.16-.15-.08-.21.07-.31.14-.49.38-1,.66-1.7.34-.21-.09-.4.02-.57.12-.17.1-.3.3-.45.46-.51-.27-.84.18-1.35-.09-.1-.05-.16-.04-.21.06-.06.14-.13.31-.24.33-.54.11-.93.67-1.58.4-.19.16-.35.36-.55.49-.34.21-.73.3-1.03.59-.18.18-.38.25-.61.29-.61.14-1.19.38-1.77.61-.58.23-1.15.47-1.74.67-.18.06-.4.05-.61.03-.17-.01-.35-.01-.42.18-.16.4-.43.53-.71.67-.8.4-1.61.79-2.38,1.24-.27.15-.65,0-.9.23-.2.17-.44.31-.8.15l-1.98.96c-.21.1-.41.2-.62.29-.11.05-.26-.04-.43-.22-.2-.16-.05.26-.64-.76-.09-.11-.35-.87-.35-.97,0-.68.38-.48.59-.9.15-.29.49-.35.71-.52Z"/>
  <path class="cls-1" d="M189.07,103.56c.33-1,.31-2.03.91-2.9.28-.39.08-1.01.52-1.38.26-.23.31-.6.57-.84.34-.32.41-.64.45-1.16.05-.3.05-.5.28-1.09.18-.46.36-.66.4-1.22.05-.49.69-1.01.79-1.51.2-1.02.87-1.48.92-2.69.22-.98.83-1.73,1.21-2.46.58-.89,1.12-1.81,1.78-2.65.15-.2.38-.35.58-.5.45-.31.66-.74.88-1.23.2-.47.82-1.21,1.44-1.87.64-.64,1.24-1.21,1.33-1.43.1-.31.94-1.29,1.79-2.23.86-.94,1.8-1.75,1.95-1.87.22-.14.45-.21.5-.45.42-.13.71-.71,1.11-.76.72-.42.96-.6,1.75-1.18.76-.55,2.02-.43,2.6-1.1,1.58-.93,2.55-1.54,2.75-1.71.35-.36.68-.17,1.02-.53.24-.25.71-.38,1.12-.48.42-.07.79-.12.82-.26.07-.29.47-.36.63-.64.35-.58,1.04-.81,1.77-.76.38.02.61-.51.95-.43.61.15,1.23.11,1.88-.1l2.12-.53,1.06-.27c.36-.07.72-.12,1.08-.18.91-.14,1.84-.34,2.72-.14,1.38-.15,2.06-.12,2.61-.27.68-.33,1.37.02,1.98-.34.85-.5.67-.42,1.95-.39.24.16.94.32,1.17.15.67.19,1.28.15,1.34.17,1.02.48.87-.14,1.92.41.6-.01.91.13,1.23-.16.17-.16.42-.13.69.05.25.17.47.16.75.1,1.17-.24,2.27.72,3.43.61.6.28,1.31.21,1.94.44,1.01.4,2.07.7,2.86,1.48.21.2.76.3,1.12.34.61.07.86.64,1.42.75.67.13.81.64,1.08,1.04.21.34.41.64.88.78.34.08.62.3.9.53.27.24.55.47.8.74.27.27.46.59.64.9.17.33.34.63.63.85.39.32.62.81.82,1.28.17.5.37.96.66,1.41.43.58.15,1.11.3,1.77-.27.34-.45.71-.55,1.12-.16.4-.2.85-.3,1.33-.15,1.02-.42,2.05-1.23,2.83-.27.21-.38.77-.64,1.13-.25.36-.49.76-.83,1.03-.34.3-.74.48-1.14.62-.39.17-.78.31-1.14.59-.32.27-.64.45-.96.61-.32.17-.63.34-1,.54-.49.3-1.55.39-2.09.55-1.21.3-2.18,1.12-3.38.66-.56.06-1.15-.1-1.65.17-.63.3-1.42.28-2.1-.1-.12-.07-.28-.17-.4-.17-.89.04-1.75-.12-2.45-.72-.66-.25-1.32-.5-1.84-1.01-.51-.45-1.35-.38-1.81-1.01-.37-.47-.83-.71-1.33-.96-.51-.24-.93-.62-1.25-1.11-.23-.34-.48-.74-.79-.95-1.7-1.28-2.95-3.08-3.49-5.17-.17-.79-.62-1.4-.9-2.2-.41-.58-.43-1.04-.2-1.46.12-.22-.03-.38-.28-.55-.69-1.01-.14-2.06-.35-2.59-.34-.76-.43-1.59-.2-2.44.08-.35.19-.89.11-1.19-.18-.7-.16-1.31.11-1.98.36-.91.47-1.84.35-2.8-.12-.79.12-1.65.45-2.43.19-.51.48-.98.72-1.47.27-.47.52-.94.6-1.52.02-.11.11-.27.19-.36.49-.59.99-1.14,1.35-1.76.37-.62.62-1.31.85-2.04.09-.33.41-.75.69-.98.94-.82,1.79-1.56,2.23-2.77.08-.22.3-.5.49-.62,1.67-.94,2.8-2.47,4.19-3.7,1.06-1.04,2.23-1.91,3.46-2.68.34-.21.65-.39.91-.71.69-.81,1.57-1.38,2.58-1.73.63-.23,1.17-.6,1.61-1.07.72-.81,1.59-1.31,2.62-1.6.47-.14.99-.32,1.43-.58,1.13-.66,2.4-1.05,3.43-1.84,1.08-.76,2.38-1.03,3.49-1.71.65-.4,1.16-1.04,1.97-1.18.79-.14,1.42-.55,2.09-.93.6-.33,1.24-.27,1.84-.29.66-.03,1.36,1.18,1.06,1.73-.02.03-.19.34-.28.33-.18.2-1.31,1.14-2.38,1.59-.59.25-1.16.55-1.79.61-.52.06-.94.28-1.29.67-.42.47-.99.83-1.59.99-2,.48-3.72,1.62-5.54,2.53-.57.28-1.11.6-1.68.89-.22.11-.51.15-.67.3-.95.85-2.01,1.55-3.02,2.31-1.03.75-2.11,1.43-3.01,2.31-.55.51-.95.81-1.41,1.39-.75.97-1.6,1.49-2.92,2.55-.44.18-.83.5-1.26.73-.34.18-.6.42-.8.75-.47.73-.94,1.47-1.47,2.16-.26.35-.53.69-.78,1.04-.23.37-.46.73-.67,1.11-1.43,1.49-2.62,4.05-2.59,4.33-.26.54-.64,1.03-.89,1.57-.22.42-.49.82-.72,1.25-.29.56-.33,1.18-.2,1.75.12.59.09,1.14-.2,1.69-.57.96-.62,2.04-.28,3.08.21.52.32,1.02.33,1.53.05.51.05,1.02-.04,1.57-.09.48,0,.94.11,1.39.06.22.14.44.25.65.12.2.27.4.43.58.24.27.4.57.5.9.13.32.21.66.26,1.02.05.34.05.8.27.99.23.22.47.63.68,1,.22.35.43.65.52.67.18.04.34.34.43.51.3.49.61.89.98,1.32.4.42.96.65,1.4,1.01.37.26.82.58.97.95.41.81,1.32.86,1.91,1.35.25.24.53.43.83.58.3.15.6.34.92.45.37.13.74.27,1.12.31.38.02.75.01,1.11-.1.39-.17.76-.03,1.21.02.5.08,2.17.04,2.43.06,1.13.33,2.29-.32,3.25-.84.25-.11.46-.3.67-.47.22-.16.42-.34.63-.49.35-.21.78-.3,1.14-.53.24-.16.23-.66.61-.58.47.09.7-.1.89-.55.2-.56.18-1.13.59-1.59.15-.16.21-.37.24-.58.02-.1.04-.21.08-.31.02-.1.05-.21.11-.31.28-.44.29-1.04.12-1.52-.24-.57-.02-1.31-.54-1.81-.23-.23-.42-.46-.54-.73-.14-.26-.3-.53-.47-.8-.72-.97-1.79-1.75-3.08-1.99-.64-.12-1.25-.29-1.82-.56-.6-.23-1.14-.59-1.7-.96-.4-.28-.82-.5-1.26-.69-.45-.17-.92-.3-1.41-.42-1.31-.3-2.69-.52-3.88-1.15-.35-.19-.69-.13-1.05-.16-.93.01-1.84.06-2.75-.02-.45-.03-.9-.1-1.35-.18-.46-.06-.92-.15-1.38-.27-.55-.15-1.24-.1-1.86-.06-.62.02-1.21.25-1.8.38-.65-.16-1.34-.14-2.03-.12-.68.06-1.36.14-2.02.03-.27-.05-.47-.03-.7.09-.31.17-.66.33-.99.41-.85.16-1.68.43-2.51.65-.83.24-1.64.51-2.53.53-.67.28-1.28.68-1.93.99-.55.27-1.14.48-1.69.76-.55.29-1.09.58-1.59.92-.62.39-1.18.75-1.83,1.08-.43.23-.87.46-1.29.71l-1.22.83c-.83.53-1.58,1.17-2.35,1.78-1.54,1.23-2.93,2.62-4.31,4.03-.41.45-.88.86-1.34,1.25-.39.32-.76.68-.92,1.14-.33.94-.93,1.71-1.46,2.55-1.59,2.36-2.97,4.87-4.14,7.48-.39.9-1.06,1.62-1.37,2.61-.26.78-.56,1.63-1.13,2.28-.84,2.22-1.57,4.49-2.16,6.79l-.54,2.17c-.09.38-.3.67-.57.84-.3.3.11.55-1.09.55-.15.06-.88-.43-.94-.59-.41-1.11.11-1.83.12-3.09.01-.87.39-1.9.59-2.79Z"/>
  <rect class="cls-3" x="205.95" y="42.89" width="11.02" height="9.55" transform="translate(14.82 138.88) rotate(-37.59)"/>
  <rect class="cls-3" x="254.82" y="50.75" width="11.02" height="9.55" transform="translate(168.15 305.24) rotate(-81.78)"/>
  <rect class="cls-3" x="247.41" y="116.64" width="11.02" height="9.55" transform="translate(-4.88 232.09) rotate(-48.88)"/>
  <rect class="cls-3" x="213.66" y="87.25" width="11.02" height="9.55" transform="translate(76.14 281.89) rotate(-75.78)"/>
  <rect class="cls-3" x="203.77" y="122.37" width="9.86" height="8.54" transform="translate(-14.06 26.78) rotate(-7.1)"/>
  <rect class="cls-3" x="174.39" y="42.46" width="11.02" height="9.55" transform="translate(105.18 217.56) rotate(-81.03)"/>
  <rect class="cls-1" x="223.92" y="19.06" width="7.96" height="6.9" transform="translate(39.29 152.4) rotate(-40.2)"/>
  <rect class="cls-1" x="175.63" y="106.04" width="7.96" height="6.9" transform="translate(22.66 249.54) rotate(-73.11)"/>
  <rect class="cls-1" x="258.53" y="98.47" width="7.96" height="6.9" transform="translate(437.97 -118.34) rotate(107.32)"/>
  <rect class="cls-1" x="173.3" y="72.58" width="7.96" height="6.9" transform="translate(362.51 22.2) rotate(140.58)"/>
  <circle class="cls-3" cx="204.48" cy="66.57" r="3.05"/>
  <circle class="cls-3" cx="174.95" cy="64.1" r="3.05"/>
  <circle class="cls-3" cx="230.17" cy="124.62" r="3.05"/>
  <circle class="cls-3" cx="205.55" cy="98.97" r="3.05"/>
  <circle class="cls-3" cx="205.99" cy="26.84" r="3.05"/>
  <circle class="cls-3" cx="274.89" cy="73.07" r="3.05"/>
  <circle class="cls-3" cx="180.14" cy="29.42" r="3.05"/>
  <circle class="cls-3" cx="254.88" cy="14.53" r="3.05"/>
  <circle class="cls-3" cx="217.04" cy="3.05" r="3.05"/>
</svg>