<?xml version="1.0" encoding="UTF-8"?>
<svg id="illuer_blå_bg" xmlns="http://www.w3.org/2000/svg" viewBox="0 0 218.58 271.03">
  <defs>
    <style>
      .cls-1 {
        fill: #ff9400;
      }

      .cls-2 {
        fill: #0354f0;
      }

      .cls-3 {
        fill: #ffe6c4;
      }
    </style>
  </defs>
  <path class="cls-1" d="M86.99,182.56c-27.13,2.79-47.77-2.03-61.89-14.47-14.17-12.41-22.34-29.41-24.55-50.96-2.21-21.55,2.33-39.83,13.68-54.89,11.32-15.06,30.29-23.94,56.87-26.67,26.58-2.73,47.61,2.04,61.5,14.51,13.88,12.44,21.94,29.45,24.16,51,2.21,21.55-2.23,39.82-13.29,54.84-11.06,15-29.89,23.9-56.45,26.62"/>
  <path class="cls-3" d="M69.3,28.98c2.68-12.43,10.67-28.48,32.58-28.98-.69,8.76-5.35,29.3-29.48,35.89.4,1.2.7,2.31.92,3.28l.13.62.02.14c.21,1.41-.73,2.76-2.14,3.04-1.42.28-2.8-.6-3.15-1.98l-.03-.14-.11-.54c-1.27-5.68-5.67-15.95-16.44-19.74l-.54-.18-.13-.05c-1.33-.51-2.05-1.98-1.6-3.36.45-1.37,1.89-2.14,3.27-1.77l.13.04.66.22c7.81,2.75,12.8,8.17,15.89,13.5Z"/>
  <ellipse class="cls-2" cx="91.35" cy="94.46" rx="3.92" ry="5.23" transform="translate(-8.16 8.64) rotate(-5.19)"/>
  <ellipse class="cls-2" cx="121.59" cy="87.65" rx="3.92" ry="5.23" transform="translate(-7.42 11.35) rotate(-5.19)"/>
  <path class="cls-2" d="M122.65,108.2c-.55.83-4.09,3.13-5.06,3.5-2.68,1.03-8.43,1.63-11.31,1.71-1.4.04-4.62-.66-5.62-1.64-2.63-2.61.69-3.25,3.08-3.42,1.93-.13,2.98.65,4.61.74.93.05,5.59-.78,6.62-1.07,2.25-.64,4.31-3.32,5.88-3.54,2.59-.36,3.01,1.88,1.79,3.72h0Z"/>
  <path class="cls-3" d="M16.92,108.27c-.16.75.07,1.5-.33,2.18-.18.31.15.74-.18,1.05-.21.19-.15.47-.34.68-.25.28-.23.52-.13.9.02.22.09.37.05.82-.03.36-.14.53-.01.94.11.36-.31.84-.23,1.22.16.75-.27,1.22.13,2.07.2.72-.04,1.38-.07,1.97-.1.75-.19,1.51-.32,2.26-.03.18-.15.35-.25.51-.22.35-.21.7-.11,1.08.19.73-.47,2.74-.35,3.07.15.45.05,3.69-.03,3.96-.06.18-.18.33-.03.47-.18.28.08.71-.15.94-.13.58-.21.79-.2,1.48,0,.66-.88,1.33-.62,1.96-.06,1.32-.03,2.15.06,2.34.16.34-.16.49,0,.83.22.47-.39,1.37-.16,1.49.24.13.15.42.34.6.42.39.32.9.06,1.38-.13.25.29.54.11.74-.33.38-.49.81-.49,1.3l.04,3.15c0,.66.04,1.35-.27,1.96.04,1.01-.04,1.49.06,1.91.26.5-.1.99.26,1.44.5.63.41.49.38,1.4-.16.17-.34.68-.14.84-.15.48-.06.92-.08.96-.41.75.2.61-.27,1.39.04.43-.05.66.31.86.19.1.21.28.08.48-.12.19-.07.35.04.54.45.76-.2,1.69.2,2.47-.09.46.16.93.13,1.4-.04.76.01,1.52-.37,2.23-.1.19.02.57.15.8.22.39-.2.73,0,1.1.23.43-.14.69-.32.99-.15.24-.28.48-.11.79.24.44.13.93.17,1.39.04.48-.34.94-.12,1.38.04.08.07.15.09.23v.15c.07.59-.3,1.13,0,1.69.22.42-.13.65-.09,1.05-.59.32-.75.83-.73,1.46.03.66.18,1.32-.18,1.98-.11.2.04.57.06.86,0,.29.03.59-.03.88-.13.59-.73.97-.76,1.59-.05.59-.23.98-.3,1.57-.05.4-.5,1.02-.67,1.41-.16.43-.19.89-.31,1.33-.09.43-.32.85-.79,1.1-.14.22-.25.34-.34.47-.09.14-.15.29-.12.48.1.49-.06.81-.45,1.07-.07.05-.17.11-.18.17-.02.52-.04.99-.48,1.33-.07.4-.15.75-.38,1.1-.1.17-.04.37,0,.56.06.19.12.36-.01.54-.18.28-.09.55.08.78.19.23.18.45.16.68-.05.18-.03.37.08.47.32.19.63.38.93.56.12.11.3.2.46.34.17.17.27.2.42.4.1.09.22.09.33.1.11-.02.22-.1.33-.12.13-.3.29-.15.58.03.15.1.17-.05.14-.26.09-.26.29-.42.53-.46.23-.07.46-.15.52-.3.08-.21.15-.45.27-.64.13-.19.3-.35.55-.49.2-.12.46-.34.45-.57,0-.49.21-.77.53-1.11.45-.44.7-1.03.54-1.71-.12-.55.09-1.05.27-1.55.2-.6.7-1.12.64-1.8l4,1.25c0,.05.01.1.02.16.01.07-.04.17-.1.24-.7.76-1.03,1.7-.75,2.75.06.23-.03.56-.17.76-.49.69-.72,1.44-.38,2.23.06.14.06.36-.02.49-.63,1.07-.34,2.32,0,3.02.12.29.27.46.38.59.12.13.22.24.44.4.11.06.25.16.37.05.28-.27.33-.25.87-.29.32-.02.57-.3.62-.68.08-.63.37-1.1.91-1.58.25-.22.47-.52.58-.84.27-.83.79-1.62.82-2.54.03-.93.54-1.74.58-2.67.03-.55-.23-1.11.05-1.63.27-.52.23-1.06.23-1.62,0-.49.37-.85.63-1.23.29-.42,1.69-.4,2.02,0,.02.03.21.26.15.31.09.19.36,1.3.22,2.18-.08.48-.11.98-.38,1.4-.23.35-.28.7-.15,1.1.15.48.12,1.01-.1,1.44-.73,1.42-1.03,2.98-1.67,4.46-.19.46-.44.91-.7,1.35-.1.17-.32.3-.36.47-.29.99-.91,1.97-1.93,2.7-1.03.75-2.57.94-3.77.6-.76-.19-1.24-.49-1.94-.93-.58-.39-.94-.93-1.15-1.52-.23-.6-.32-1.25-.39-2,.12-.42.15-.86.29-1.24.11-.31.14-.59.05-.9-.34-1.42,0-2.85.12-4.23.56-1.57,1.17-3.72,1.15-3.97l.04-.09.06-.14c.33-.8,1.24-1.19,2.04-.86.77.31,1.15,1.16.9,1.94-.14.45-.33.88-.54,1.3-.17.36-.39.68-.58,1.03-.24.45-.34.93-.23,1.44.11.53-.05,1-.44,1.37-.72.65-1.11,1.38-1.29,2.36-.15.98-.82,1.76-1.75,2.27-.45.2-.78.46-1.18.72-.19.13-.38.28-.55.45-.2.15-.41.31-.62.5-.62.55-1.62.6-2.41.3-.39-.1-.75-.45-1.06-.44-.37.02-.79-.22-1.19-.41-.39-.2-.69-.47-.79-.45-.2.02-.47-.25-.61-.43-.44-.48-.74-.97-1.06-1.51-.14-.28-.33-.54-.51-.82-.15-.27-.31-.56-.42-.87-.12-.47-.27-1.1-.08-1.46.18-.43.17-.82.16-1.21-.03-.4-.05-.78.1-1.15.25-.61.45-1.24.69-1.85.27-.71.52-1.39.52-2.17,0-.43.3-.81.57-1.16.08-.1.2-.25.34-.43.11-.15.25-.32.37-.49.19-.24.39-.49.47-.56.78-.43.8-1.49.98-2.32.09-.43,0-.9.1-1.32.06-.34.33-.63.44-.97.07-.23-.23-.59.11-.72.43-.17.52-.38.44-.82-.09-.52-.36-1.02-.09-1.6.19-.39.01-.86.24-1.31.24-.48.36-1.08.33-1.62-.04-.67.5-1.23.37-1.83v.17s0,0,0,0c-.18-.61.06-1.12.16-1.68.18-1.05.18-2.09-.24-3.1-.42-1.01-.43-2.06-.08-3.09.26-.75.29-1.48.24-2.26-.06-1.05-.18-2.11.23-3.13.12-.3,0-.55-.04-.83-.22-1.43-.32-2.84.2-4.25.16-.42.1-.95.07-1.42-.04-.47-.17-.93-.27-1.4.42-.98.13-2.1.56-3.08.09-.2.1-.35.02-.54-.11-.26-.25-.54-.23-.81.1-1.33-.28-2.69.22-3.99-.08-.56-.19-1.11-.23-1.68-.06-.96.03-1.93-.11-2.88-.08-.58-.06-1.1,0-1.67.14-1.53.17-3.07.26-4.63.1-1.54.19-3.09.35-4.63.05-.47.18-.94.32-1.4.11-.38.21-.77.1-1.13-.24-.76-.18-1.52-.11-2.29l.59-6.64c.07-.77.46-1.44.47-2.24,0-.64.09-1.33.46-1.91.26-1.81.54-3.62.85-5.43.1-.57.2-1.14.32-1.71.06-.3.25-.53.51-.65.28-.22-.13-.45,1.06-.39.15-.03.88.39.95.51.46.83.02,1.35.15,2.28.09.64-.14,1.41-.18,2.07Z"/>
  <path class="cls-3" d="M25.33,199.58c.41-.1.65-.5,1.1-.4.22.05.23-.39.52-.22.18.09.26-.06.45,0,.25.09.34-.03.43-.26.07-.11.07-.23.26-.4.14-.13.27-.13.32-.4.04-.22.47-.18.53-.41.09-.45.57-.4.43-1.08-.01-.47.35-.63.47-.94.2-.35.43-.69.67-1.02.05-.09.18-.13.29-.18.25-.11.28-.31.24-.56-.05-.24.17-.55.35-.87.17-.32.35-.62.31-.73-.06-.15.04-.66.11-1.17.06-.52.15-1.01.2-1.08.07-.09.19-.16.06-.26.19-.13-.03-.42.22-.51.01-.02.03-.05.04-.06l-.02.24c.09-.3.14-.44.12-.83-.03-.4.84-.81.55-1.19.02-.8-.03-1.3-.12-1.42-.17-.21.14-.3-.02-.5-.23-.28.36-.83.13-.9-.25-.08-.15-.25-.35-.36-.43-.24-.33-.54-.08-.83.13-.15-.3-.32-.12-.45.33-.23.48-.49.47-.79l-.08-1.9c0-.4-.05-.81.26-1.18-.05-.61.03-.9-.07-1.15-.27-.3.09-.6-.27-.87-.5-.38-.42-.3-.39-.85.16-.1.34-.41.13-.5.15-.29.06-.55.08-.58.41-.45-.2-.37.27-.84-.04-.26.05-.4-.31-.52-.19-.06-.21-.17-.08-.29.12-.12.07-.21-.04-.32-.45-.46.21-1.02-.19-1.49.09-.28-.16-.56-.13-.85.04-.46,0-.91.38-1.34.1-.11-.02-.35-.15-.49-.22-.24.21-.44.01-.66-.23-.26.14-.41.33-.6.15-.15.28-.29.11-.47-.24-.27-.12-.56-.16-.84-.04-.29.35-.57.13-.83-.31-.37.15-.77-.25-1.12-.26-.23.05-.39-.04-.62.54-.23.64-.54.52-.91-.13-.39-.4-.75-.16-1.17.07-.13-.15-.32-.22-.49-.07-.17-.15-.34-.15-.5,0-.35.48-.64.36-1-.11-.33-.04-.58-.15-.91-.08-.22.16-.64.15-.87,0-.52-.65-.94-.12-1.4,0-.23.12-.47-.14-.67-.33-.26-.37-.52-.14-.8.04-.05.11-.12.08-.16-.21-.33-.38-.66-.06-.99-.08-.28-.07-.55.07-.84.13-.27-.36-.54-.14-.83.17-.23.08-.44-.08-.66-.16-.22-.13-.44-.03-.67.07-.16.17-.35.09-.5-.43-.85-.48-1.69-.04-2.54.16-.32.04-.62.02-.97-.2-.28-.06-.45.26-.59.16-.07.06-.15-.14-.25-.4-.46.28-.83.14-1.07-.2-.33-.3-.66-.02-1,.11-.14.19-.36.09-.49-.24-.29-.2-.53-.05-.82.2-.39.21-.78-.18-1.17-.32-.31-.28-.67-.27-1.01,0-.45.4-.89.05-1.35-.04-.05-.02-.12.02-.17.42-.62.45-1.19-.04-1.9-.11-.14-.09-.38.02-.52.35-.5.48-.99.1-1.53-.07-.1-.08-.25,0-.34.59-.75.43-1.59.46-2.41.02-.65.08-1.29.31-1.91.06-.17.14-.32.05-.5-.22-.49-.13-.94.21-1.36.21-.26.25-.55.1-.85-.25-.5-.15-.94.21-1.35.16-.19.29-.42.32-.64.06-.58.41-1.11.33-1.71-.09-.61.33-1.12.32-1.71,0-.35-.28-.74-.03-1.05.25-.31.21-.65.21-1.01,0-.31.37-.49.64-.69.29-.22,1.67,0,1.99.3.02.02.2.19.15.21.09.13.34.83.22,1.33-.07.27-.08.57-.33.79-.2.19-.24.39-.09.64.18.3.2.6.03.85-.57.81-.62,1.73-.81,2.62-.06.28-.14.55-.22.82-.03.11-.17.21-.14.31.3,1.17-.09,2.28-.02,3.43.02.34,0,.56.13.91.23.57-.03.99-.16,1.75-.19.18-.27.41-.44.61-.13.16-.16.32-.09.49.35.8.2,1.6.35,2.39-.27.88-.13,2.2-.03,2.32-.02.28-.09.57-.17.85-.06.22-.18.44-.24.67-.09.29,0,.57.28.83.29.26.34.54.13.82-.37.49-.4.99-.03,1.49.38.51.34,1,.02,1.51-.28.44-.27.89.11,1.34.28.33.21.67,0,1.01-.09.16-.27.36-.19.48.19.29.03.92.16.99.13.07.09.23.07.33-.05.28-.08.52-.06.8.01.28.25.56.31.84.05.22.1.5-.07.67-.4.4.11.78-.04,1.17-.13.33-.14.68-.15,1.02-.01.4.05.8.41,1.17.19.2.14.45.09.68-.06.26-.1,1.11-.21,1.24-.48.53-.14,1.15-.05,1.72.05.28.25.56.28.84.02.22-.17.44-.19.67-.01.15.35.33.05.46-.38.16-.42.3-.26.56.19.31.56.59.38.98-.12.26.13.53-.03.83-.17.32-.22.69-.12,1.02.12.42-.37.78-.19,1.17.18.37-.07.67-.18,1.01-.19.63-.2,1.25.21,1.87.41.61.42,1.25.07,1.86-.26.45-.29.89-.25,1.36.06.63.17,1.27-.24,1.88-.12.18,0,.33.04.5.22.86.32,1.71-.19,2.56-.15.25-.1.57-.06.85.04.28.18.56.28.85-.42.59-.11,1.27-.54,1.85-.09.12-.1.21-.01.32.11.16.25.33.24.49-.08.8.32,1.62-.16,2.4.09.34.21.67.26,1.01.07.58.01,1.16.17,1.73.1.35.09.66.05,1-.09.83-.07,1.66-.08,2.49v.18s-.03.14-.03.14l-.06.29c-.24.97-.36,1.94-.74,2.9-.1.29-.29.56-.47.82-.15.21-.27.44-.24.7.1.56-.11,1.04-.3,1.53-.31.69-.69,1.37-1.08,2.04-.46.65-.87,1.32-1.45,1.92-.19.21-.42.36-.66.51-.25.13-.5.27-.7.48-.31.36-.76.66-1.31.64-1.17.67-2.47,1.14-3.82,1.32-.42.06-.86.09-1.3.08-.24-.01-.43-.16-.55-.4-.19-.25-.37.18-.35-1.01,0-.14.28-.9.34-.99.44-.57.75-.23,1.22-.56.31-.22.73-.21,1.06-.35Z"/>
  <path class="cls-3" d="M45.54,178.77c-.04.91.29,1.76-.01,2.63-.14.4.26.85-.03,1.27-.18.26-.09.58-.24.86-.21.36-.16.65,0,1.08.05.26.14.42.15.96.01.43-.07.65.11,1.11.16.4-.2,1.04-.08,1.47.24.87-.12,1.48.38,2.42.27.83.11,1.64.15,2.34-.01.91-.04,1.81-.09,2.72-.01.21-.11.43-.2.63-.19.44-.15.85,0,1.3.26.84-.24,3.3-.1,3.68.19.52.3,4.39.22,4.72-.05.21-.16.4,0,.57-.17.34.11.85-.11,1.13-.11.7-.17.95-.14,1.78.03.79-.84,1.62-.56,2.36-.02,1.57.02,2.56.11,2.78.17.4-.15.58.02.99.23.55-.36,1.64-.13,1.78.25.15.15.49.35.71.42.46.33,1.06.08,1.64-.13.3.3.63.12.88-.33.45-.48.97-.47,1.55l.07,3.74c0,.79.04,1.6-.26,2.33.05,1.19-.03,1.77.07,2.26.27.59-.1,1.17.27,1.71.5.74.41.58.38,1.66-.16.2-.34.81-.14.99-.15.57-.06,1.09-.08,1.14-.41.89.2.72-.28,1.65.04.51-.05.78.31,1.01.18.12.21.33.08.57-.12.23-.07.41.04.63.45.9-.21,2.01.19,2.93-.1.55.15,1.11.13,1.66-.04.9,0,1.8-.39,2.65-.1.22.02.68.14.95.1.2.06.4.02.58l-1.95-1.97c.24.06.47.14.72.03.51-.24.82.13,1.18.32.29.15.57.28.94.11.52-.24,1.1-.14,1.65-.18.57-.04,1.12.34,1.64.11.72-.32,1.51.14,2.19-.27.45-.27.76.05,1.22-.05.46.54,1.08.63,1.79.51.76-.13,1.47-.4,2.29-.16.26.07.63-.15.96-.22.32-.07.66-.15.98-.15.68,0,1.26.48,1.96.36.65-.11,1.14-.04,1.79-.15.44-.08,1.25.16,1.71.15,1.01,0,1.84-.65,2.75-.12.44,0,.92.12,1.31-.14.23-.15.46-.24.7-.27l-2.08,1.97c-.02-.28.04-.57.18-.86.05-.1.12-.23.1-.31-.17-.66-.31-1.3.05-1.95-.05-.56,0-1.09.16-1.64.16-.53-.3-1.08-.05-1.64.19-.45.13-.86,0-1.3-.13-.44-.08-.88.04-1.32.09-.31.2-.68.15-.97-.34-1.69-.29-3.32.24-4.98.2-.62.11-1.22.12-1.89-.17-.55,0-.89.33-1.15.17-.13.07-.3-.12-.49-.35-.92.38-1.62.26-2.08-.16-.65-.23-1.31.09-1.97.13-.27.23-.71.14-.96-.21-.57-.14-1.05.04-1.61.25-.75.3-1.53-.05-2.29-.28-.61-.2-1.31-.16-1.99.06-.88.5-1.72.2-2.64-.03-.09,0-.24.04-.33.48-1.19.6-2.37.14-3.61-.1-.27-.06-.71.05-.99.38-.98.53-1.93.17-2.94-.07-.19-.07-.48,0-.66.62-1.5.48-3.11.52-4.67.04-1.25.1-2.49.33-3.71.06-.33.14-.64.05-.98-.22-.9-.13-1.79.2-2.65.21-.54.24-1.11.08-1.65-.26-.91-.18-1.76.16-2.63.16-.4.28-.87.29-1.3.03-1.13.37-2.24.24-3.36-.13-1.14.26-2.23.2-3.36-.04-.66-.34-1.32-.11-1.98.23-.66.15-1.31.11-1.98-.03-.59.32-1.06.57-1.54.27-.52,1.67-.6,2.02-.15.02.03.22.29.17.35.1.22.42,1.49.34,2.52-.04.57-.03,1.14-.26,1.66-.19.43-.21.85-.04,1.29.21.53.24,1.13.09,1.66-.52,1.75-.52,3.57-.68,5.37-.05.56-.12,1.12-.2,1.67-.03.22-.16.44-.14.64.34,2.25-.05,4.52.03,6.78.02.68-.01,1.11.13,1.78.23,1.09-.04,1.97-.19,3.49-.19.39-.28.84-.46,1.25-.14.32-.17.64-.1.98.32,1.55.13,3.15.23,4.73-.32,1.85-.36,4.43-.26,4.66-.05.56-.16,1.11-.27,1.66-.09.44-.23.86-.32,1.3-.12.57-.07,1.13.19,1.63.26.52.28,1.06.04,1.61-.43.96-.51,1.92-.19,2.93.32,1,.22,1.98-.15,2.96-.32.86-.36,1.74-.03,2.63.24.65.13,1.32-.11,1.97-.11.31-.31.69-.25.94.16.58-.07,1.81.05,1.96.12.14.06.46.03.64-.08.55-.14,1.03-.15,1.57-.02.55.19,1.1.22,1.66.02.44.04.99-.15,1.32-.44.77.03,1.54-.17,2.3-.16.64-.22,1.33-.26,2-.06.79-.04,1.57.28,2.31.08.18.1.38.1.59l-.03,2.04-2.22.09c-.24,0-.5-.02-.74-.05-.51-.06-2.19-.1-2.44-.21-1.06-.48-2.27-.14-3.39-.05-.56.05-1.1.25-1.65.28-.43.02-.87-.17-1.32-.19-.3-.01-.65.35-.9.05-.31-.39-.59-.42-1.1-.26-.6.19-1.15.56-1.91.38-.51-.12-1.05.13-1.63-.03-.63-.16-1.37-.2-2.01-.1-.82.13-1.55-.35-2.3-.16-.72.18-1.32-.06-1.98-.16-1.24-.18-2.47-.18-3.67.25-.24.09-.49.16-.74.21l-1.69.36-.53-2.61c-.19-.96-.14-1.95.14-2.91.26-.88.3-1.75.26-2.67-.05-1.24-.17-2.5.25-3.7.12-.35,0-.65-.04-.98-.21-1.69-.31-3.36.2-5.02.16-.5.1-1.12.07-1.68-.04-.56-.18-1.1-.27-1.65.42-1.17.12-2.49.54-3.65.09-.24.1-.41.01-.64-.11-.3-.25-.64-.23-.95.08-1.57-.31-3.17.17-4.72-.09-.66-.21-1.31-.25-1.97-.07-1.13,0-2.28-.16-3.39-.09-.68-.09-1.29-.05-1.97.11-1.81.08-3.62.1-5.44l.08-5.44c.01-.56.11-1.12.21-1.67.08-.45.15-.92,0-1.34-.3-.86-.3-1.76-.31-2.67l-.12-7.82c-.02-.9.28-1.74.19-2.68-.07-.74-.09-1.57.21-2.3l.05-6.46.04-2.04c.01-.36.16-.66.39-.86.24-.32-.2-.5.98-.67.14-.07.93.27,1.02.4.6.88.24,1.58.52,2.64.19.73.08,1.68.13,2.46Z"/>
  <g>
    <path class="cls-3" d="M42.38,268.23l1.24-19.67h25.78s-.78,6.11,9.36,6.84c7.54,1.6,9.89,8.52,9.06,11.14s-24.05,2.17-24.05,2.17l-21.79-1.51"/>
    <path class="cls-3" d="M41.57,264.33c.07-.64-.24-1.24.1-1.84.15-.27-.23-.61.07-.89.19-.17.1-.4.27-.58.22-.24.18-.44.04-.75-.05-.18-.12-.3-.12-.68,0-.3.09-.45-.07-.78-.14-.29.24-.72.13-1.02-.22-.62.17-1.03-.3-1.71-.25-.59-.06-1.15-.07-1.64.04-.63.1-1.27.18-1.9.02-.15.13-.29.22-.43.2-.29.17-.59.05-.91-.23-.6.34-2.29.22-2.56,0-.02-.02-.04-.02-.16v-.72s1.36-.55,1.36-.55c.45-.18,2.92-.32,3.13-.26.15.04.28.15.4,0,.24.16.59-.12.79.1.49.1.67.16,1.25.12.55-.04,1.14.82,1.66.53,1.1,0,1.79-.05,1.94-.15.28-.17.41.14.69-.03.39-.24,1.15.34,1.24.11.1-.25.34-.16.49-.36.32-.43.74-.34,1.14-.1.21.13.44-.31.62-.13.32.32.68.47,1.09.45l2.61-.12c.55-.02,1.12-.07,1.63.23.83-.06,1.24,0,1.58-.09.41-.27.82.08,1.19-.29.51-.51.4-.42,1.16-.4.14.15.57.33.7.12.4.14.76.05.8.07.63.4.5-.21,1.16.26.22-.03.38,0,.5-.07l1.36,1.54s.11.05.25.08c.18.04.21.12.09.24-.1.11-.05.2.08.28.26.16.27.37.3.61.03.23.09.48.38.55.05.27.42.32.57.51.27.33.62.55.81,1.11.06.15.34.17.53.13.31-.07.36.38.67.3.35-.1.38.31.54.54.12.19.26.37.52.27.36-.13.7.03,1.05.06.36.02.64.49,1.01.29.46-.24.89.17,1.33-.04l.24.03s.09-.02.14-.04c.4-.17.58.2.95.2.21.59.61.85,1.17.94.6.07,1.23.12,1.69.61.15.14.5.13.76.21.26.08.53.16.75.31.44.36.51.99.99,1.29.44.29.69.59,1.1.92.3.22.53.87.72,1.17.24.32.57.54.83.82.27.26.47.57.37,1.02.16.33.19.72.54.93.46.26.62.7.51,1.22-.02.09-.05.22-.01.28.15.25.29.52.36.8.06.29.04.61-.11.91.07.53.03,1.08-.27,1.67-.03.05-.18.46-.36.77-.21.37-.32.48-.48.68-.08.09-.16.18-.25.26-.08.08-.13.11-.21.16-.14.09-.3.17-.48.2-.49.02-.81.23-1.11.47-.33.27-.66.3-1.04.29-.26-.02-.55-.06-.76.05-1.17.64-2.38.82-3.63.49-.47-.12-.88.03-1.36.1-.37.23-.63.1-.85-.21-.11-.16-.22-.04-.34.16-.62.44-1.18-.22-1.49-.06-.44.22-.9.34-1.39.08-.2-.11-.52-.17-.68-.06-.39.25-.73.22-1.13.08-.55-.19-1.1-.18-1.61.22-.42.33-.91.29-1.39.3-.62,0-1.24-.39-1.87-.03-.06.04-.17.02-.24-.02-.86-.41-1.69-.46-2.54.06-.19.11-.5.1-.7,0-.73-.33-1.32-.43-2.15-.03-.13.07-.34.07-.46,0-1.05-.61-2.18-.45-3.27-.48-.88-.03-1.75-.08-2.6-.3-.23-.06-.45-.13-.69-.04-.64.23-1.25.15-1.85-.18-.38-.2-.78-.23-1.16-.07-.64.27-1.24.19-1.84-.14-.28-.16-.6-.27-.91-.28-.79-.02-1.56-.35-2.35-.21-.8.14-1.56-.24-2.35-.18-.47.04-.93.35-1.4.13-.46-.22-.92-.13-1.39-.1-.42.03-.74-.31-1.06-.55-.36-.27-.37-1.66-.04-2.02.02-.02.21-.22.25-.17.16-.1,1.05-.43,1.77-.36.39.04.79.02,1.15.25.3.19.59.2.9.03.38-.21.79-.25,1.16-.1,1.21.5,2.49.49,3.74.64.39.05.78.11,1.17.18.15.03.31.16.44.13,1.58-.35,3.16.01,4.74-.08.47-.03.78,0,1.24-.14.77-.24,1.38.03,2.44.16.27.19.59.28.87.45.23.13.45.17.68.09.27-.08.55-.13.82-.17l.21-.02s.05,0,.07-.01h.1s.41-.05.41-.05c.55-.04,1.1-.06,1.65-.15,1.3.22,3.09.11,3.25,0,.39.01.78.09,1.17.16.31.06.61.17.92.23.4.08.79,0,1.12-.3.35-.3.72-.36,1.11-.16.69.35,1.37.36,2.04-.04.67-.4,1.34-.39,2.05-.11.62.24,1.23.2,1.8-.22.42-.31.88-.27,1.35-.11.22.07.5.23.67.13.37-.22,1.22-.16,1.3-.3.07-.14.29-.12.41-.12.37,0,.69-.02,1.04-.09.35-.08.65-.37.95-.51.26-.1.51-.24.75-.13.23.13.44.02.45-.07.07-.06-.03-.07-.08-.04-.01,0-.02.02-.03.03-.04.03-.09.08-.12.14-.07.08-.12.29-.1.31.15-.13.23-.43.21-.78,0-.2-.03-.4-.13-.6-.08-.19-.23-.37-.46-.52-.23-.15-.25-.41-.3-.66-.01-.29-.39-1.15-.38-1.33.13-.79-.6-1.21-1.09-1.62-.23-.23-.63-.27-.86-.48-.18-.17-.27-.44-.45-.63-.13-.12-.49.04-.44-.27.07-.41-.06-.54-.4-.56-.39-.05-.86.18-1.16-.19-.21-.25-.61-.1-.86-.37-.27-.31-.71-.42-1.1-.44-.11,0-.21-.03-.31-.08l.28.04c-.46-.11-.86-.42-1.32-.32-.57.14-1-.21-1.47-.4-.45-.18-.9-.32-1.37-.44-.47-.11-.96-.13-1.5-.15-.54,0-1.07-.1-1.55-.38-.49-.24-.91-.65-1.23-1.13-.46-.7-.96-1.29-1.49-1.97-.7-.91-1.24-2.12-.95-3.3.09-.36-.05-.57-.05-1.05h0c-.37-.43,3.26,3.7,1.72,1.95h0s0,0,0,0h0s-.01,0-.01,0h-.03s-.06.02-.06.02l-.11.02-.22.04-.44.06c-.29.04-.59.06-.88.06-.59,0-1.17-.1-1.75-.34-.35-.15-.78-.09-1.17-.04-.39.04-.77.19-1.16.29-.82-.41-1.74-.09-2.56-.5-.17-.08-.29-.09-.45,0-.21.11-.45.26-.66.25-1.1-.06-2.22.35-3.31-.11-.46.1-.92.23-1.38.28-.79.09-1.6.04-2.37.2-.47.1-.9.1-1.38.07-1.26-.08-2.54-.03-3.8-.03-1.27,0-2.54.02-3.8,0h-.24s1.97-1.86,1.97-1.86c-.05.31-.14.62-.24.92-.1.31-.18.64-.04.93.28.62.25,1.25.23,1.88-.06,1.82-.11,3.65-.13,5.47,0,.63-.33,1.2-.27,1.86.05.52.04,1.1-.28,1.6l-.26,4.51c-.03.47-.06.95-.1,1.42-.02.25-.18.45-.42.58-.25.21.19.36-1,.41-.14.04-.92-.24-1-.33-.57-.65-.19-1.11-.43-1.88-.17-.52-.03-1.18-.06-1.73Z"/>
  </g>
  <path class="cls-3" d="M95.34,180.57c-.01.95.35,1.82.07,2.73-.13.42.29.88,0,1.32-.17.28-.07.6-.22.9-.19.39-.14.68.03,1.12.06.27.15.43.18,1,.02.44-.05.67.14,1.15.17.42-.17,1.09-.04,1.53.27.89-.07,1.55.45,2.51.3.85.16,1.7.22,2.43.02.94.01,1.89,0,2.83,0,.22-.1.45-.18.66-.17.46-.12.89.03,1.35.28.87-.13,3.44.02,3.83.21.53.43,4.56.37,4.9-.04.22-.14.43.01.59-.15.36.14.88-.08,1.18-.09.73-.14,1-.09,1.86.05.82-.79,1.71-.48,2.47.03,1.64.1,2.66.2,2.89.18.42-.13.61.05,1.03.25.57-.31,1.71-.08,1.85.25.15.17.51.37.73.44.46.37,1.1.13,1.7-.12.31.32.64.15.91-.31.48-.45,1.02-.42,1.63l.19,3.89c.03.82.1,1.66-.19,2.43.08,1.24.03,1.84.14,2.35.28.61-.06,1.22.32,1.77.52.75.43.59.44,1.72-.15.21-.31.85-.1,1.04-.13.6-.03,1.14-.05,1.19-.38.94.22.74-.22,1.72.05.53-.03.81.34,1.05.19.12.22.33.1.59-.11.24-.06.43.06.66.48.92-.15,2.09.28,3.04-.06.47.1.93.16,1.4l-2.11-2.07c.11-.01.22-.02.32-.01.94.03,1.87-.02,2.76.36.23.1.71-.02.99-.16.48-.22.9.2,1.35,0,.53-.24.85.13,1.23.32.3.15.59.28.97.11.54-.24,1.14-.14,1.72-.18.6-.04,1.17.34,1.7.11.75-.32,1.57.14,2.28-.27.46-.27.79.05,1.27-.05.48.54,1.13.63,1.87.51.79-.13,1.53-.4,2.39-.16.27.07.66-.15,1-.22.34-.07.68-.15,1.03-.15.71,0,1.31.48,2.04.36.68-.11,1.18-.04,1.86-.15.26-.04.64.01,1,.07l-1.63,1.59c.05-.3.1-.57.1-.78.02-1.05-.6-1.93-.05-2.86.01-.46.15-.95-.11-1.37-.32-.52-.34-1.06-.1-1.64.04-.1.11-.24.09-.33-.19-.68-.35-1.35-.01-2.03-.06-.58-.04-1.13.11-1.71.15-.55-.33-1.11-.1-1.7.18-.47.1-.9-.04-1.35-.15-.45-.11-.91,0-1.38.08-.33.18-.72.12-1.02-.39-1.74-.39-3.45.09-5.19.18-.65.08-1.27.07-1.97-.19-.57-.03-.93.3-1.21.17-.14.06-.31-.13-.51-.38-.95.33-1.7.2-2.18-.18-.67-.26-1.35.03-2.05.12-.29.21-.74.11-1-.22-.59-.17-1.08,0-1.67.22-.79.25-1.6-.12-2.38-.3-.63-.24-1.36-.22-2.07.03-.92.45-1.81.12-2.75-.03-.09-.01-.24.03-.35.45-1.25.53-2.49.04-3.76-.11-.28-.08-.73.02-1.03.35-1.03.48-2.03.08-3.07-.07-.19-.08-.5-.01-.69.58-1.58.38-3.25.38-4.88,0-1.3.02-2.59.22-3.87.05-.35.12-.67.02-1.02-.25-.93-.19-1.85.12-2.76.19-.57.21-1.16.03-1.72-.29-.94-.23-1.83.09-2.74.15-.42.25-.91.25-1.37,0-1.17.3-2.34.14-3.5-.17-1.18.2-2.33.1-3.5-.06-.69-.38-1.36-.17-2.06.21-.7.11-1.37.05-2.06-.05-.62.29-1.11.52-1.62.26-.55,1.65-.68,2.02-.22.02.03.23.29.18.36.11.22.47,1.54.42,2.61-.03.59,0,1.18-.21,1.73-.18.46-.18.89,0,1.34.22.54.28,1.16.13,1.72-.47,1.84-.41,3.73-.52,5.61-.03.58-.09,1.17-.15,1.75-.02.23-.15.47-.12.67.4,2.33.09,4.7.23,7.05.04.7.02,1.16.18,1.85.26,1.13.02,2.06-.09,3.64-.18.41-.26.89-.42,1.31-.13.34-.15.67-.07,1.02.37,1.61.23,3.28.37,4.91-.26,1.94-.23,4.62-.12,4.86-.03.58-.12,1.16-.22,1.74-.07.46-.2.9-.28,1.36-.1.6-.03,1.17.23,1.69.28.53.31,1.1.09,1.67-.4,1.01-.46,2.02-.1,3.06.35,1.03.28,2.05-.06,3.09-.3.91-.31,1.82.04,2.73.26.67.17,1.37-.05,2.06-.1.32-.29.73-.22.99.17.6-.02,1.89.11,2.03.12.14.07.47.05.67-.06.57-.11,1.07-.11,1.64,0,.57.22,1.14.27,1.72.04.46.07,1.03-.11,1.38-.42.82.07,1.6-.1,2.4-.14.67-.18,1.39-.2,2.09-.03.82,0,1.63.35,2.39.18.41.11.91.05,1.38-.07.53-.16,2.28-.28,2.54-.35.75-.31,1.58-.24,2.41l.14,1.54-1.96.23c-.37.04-.75.1-1.11.12-.58.05-1.14.25-1.72.28-.45.02-.91-.17-1.37-.19-.31-.01-.68.35-.94.05-.33-.39-.62-.42-1.14-.26-.63.19-1.2.56-1.99.38-.53-.12-1.09.13-1.7-.03-.65-.16-1.42-.2-2.09-.1-.85.13-1.61-.35-2.39-.16-.75.18-1.38-.06-2.06-.16-1.29-.18-2.57-.18-3.82.25-1.24.42-2.54.45-3.8.1-.55-.15-1.09-.22-1.65-.24l-1.9-.07.04-1.76c0-.37,0-.75-.04-1.14-.09-1.29-.25-2.59.13-3.85.11-.37-.02-.68-.07-1.02-.26-1.75-.42-3.48.04-5.23.14-.53.07-1.17.01-1.75-.06-.58-.21-1.14-.32-1.71.39-1.23.04-2.59.43-3.81.08-.25.08-.43,0-.66-.12-.31-.27-.66-.26-.98.03-1.64-.41-3.29.02-4.92-.11-.68-.25-1.36-.32-2.04-.11-1.17-.08-2.37-.27-3.52-.12-.7-.13-1.34-.11-2.05.05-1.88-.04-3.77-.07-5.66l-.1-5.66c0-.58.08-1.17.16-1.74.07-.47.12-.96-.04-1.39-.33-.89-.36-1.82-.4-2.77l-.37-8.13c-.05-.94.22-1.82.11-2.79-.09-.77-.14-1.63.14-2.4l-.15-6.72-.02-2.12c0-.37.14-.69.37-.9.23-.34-.22-.51.96-.73.14-.08.94.25,1.03.38.62.9.29,1.63.6,2.73.21.76.13,1.74.21,2.56Z"/>
  <g>
    <path class="cls-3" d="M94.31,268.23l1.24-19.67h25.78s-.78,6.11,9.36,6.84c7.54,1.6,9.89,8.52,9.06,11.14s-24.05,2.17-24.05,2.17l-21.79-1.51"/>
    <path class="cls-3" d="M93.5,264.33c.07-.64-.24-1.24.1-1.84.15-.27-.23-.61.07-.89.19-.17.1-.4.27-.58.22-.24.18-.44.04-.75-.05-.18-.12-.3-.12-.68,0-.3.09-.45-.07-.78-.14-.29.24-.72.13-1.02-.22-.62.17-1.03-.3-1.71-.25-.59-.06-1.15-.07-1.64.04-.63.1-1.27.18-1.9.02-.15.13-.29.22-.43.2-.29.17-.59.05-.91-.23-.6.34-2.29.22-2.56,0-.02-.02-.04-.02-.16v-.72s1.36-.55,1.36-.55c.45-.18,2.92-.32,3.13-.26.15.04.28.15.4,0,.24.16.59-.12.79.1.49.1.67.16,1.25.12.55-.04,1.14.82,1.66.53,1.1,0,1.79-.05,1.94-.15.28-.17.41.14.69-.03.39-.24,1.15.34,1.24.11.1-.25.34-.16.49-.36.32-.43.74-.34,1.14-.1.21.13.44-.31.62-.13.32.32.68.47,1.09.45l2.61-.12c.55-.02,1.12-.07,1.63.23.83-.06,1.24,0,1.58-.09.41-.27.82.08,1.19-.29.51-.51.4-.42,1.16-.4.14.15.57.33.7.12.4.14.76.05.8.07.63.4.5-.21,1.16.26.22-.03.38,0,.5-.07l1.36,1.54s.11.05.25.08c.18.04.21.12.09.24-.1.11-.05.2.08.28.26.16.27.37.3.61.03.23.09.48.38.55.05.27.42.32.57.51.27.33.62.55.81,1.11.06.15.34.17.53.13.31-.07.36.38.67.3.35-.1.38.31.54.54.12.19.26.37.52.27.36-.13.7.03,1.05.06.36.02.64.49,1.01.29.46-.24.89.17,1.33-.04l.24.03s.09-.02.14-.04c.4-.17.58.2.95.2.21.59.61.85,1.17.94.6.07,1.23.12,1.69.61.15.14.5.13.76.21.26.08.53.16.75.31.44.36.51.99.99,1.29.44.29.69.59,1.1.92.3.22.53.87.72,1.17.24.32.57.54.83.82.27.26.47.57.37,1.02.16.33.19.72.54.93.46.26.62.7.51,1.22-.02.09-.05.22-.01.28.15.25.29.52.36.8.06.29.04.61-.11.91.07.53.03,1.08-.27,1.67-.03.05-.18.46-.36.77-.21.37-.32.48-.48.68-.08.09-.16.18-.25.26-.08.08-.13.11-.21.16-.14.09-.3.17-.48.2-.49.02-.81.23-1.11.47-.33.27-.66.3-1.04.29-.26-.02-.55-.06-.76.05-1.17.64-2.38.82-3.63.49-.47-.12-.88.03-1.36.1-.37.23-.63.1-.85-.21-.11-.16-.22-.04-.34.16-.62.44-1.18-.22-1.49-.06-.44.22-.9.34-1.39.08-.2-.11-.52-.17-.68-.06-.39.25-.73.22-1.13.08-.55-.19-1.1-.18-1.61.22-.42.33-.91.29-1.39.3-.62,0-1.24-.39-1.87-.03-.06.04-.17.02-.24-.02-.86-.41-1.69-.46-2.54.06-.19.11-.5.1-.7,0-.73-.33-1.32-.43-2.15-.03-.13.07-.34.07-.46,0-1.05-.61-2.18-.45-3.27-.48-.88-.03-1.75-.08-2.6-.3-.23-.06-.45-.13-.69-.04-.64.23-1.25.15-1.85-.18-.38-.2-.78-.23-1.16-.07-.64.27-1.24.19-1.84-.14-.28-.16-.6-.27-.91-.28-.79-.02-1.56-.35-2.35-.21-.8.14-1.56-.24-2.35-.18-.47.04-.93.35-1.4.13-.46-.22-.92-.13-1.39-.1-.42.03-.74-.31-1.06-.55-.36-.27-.37-1.66-.04-2.02.02-.02.21-.22.25-.17.16-.1,1.05-.43,1.77-.36.39.04.79.02,1.15.25.3.19.59.2.9.03.38-.21.79-.25,1.16-.1,1.21.5,2.49.49,3.74.64.39.05.78.11,1.17.18.15.03.31.16.44.13,1.58-.35,3.16.01,4.74-.08.47-.03.78,0,1.24-.14.77-.24,1.38.03,2.44.16.27.19.59.28.87.45.23.13.45.17.68.09.27-.08.55-.13.82-.17l.21-.02s.05,0,.07-.01h.1s.41-.05.41-.05c.55-.04,1.1-.06,1.65-.15,1.3.22,3.09.11,3.25,0,.39.01.78.09,1.17.16.31.06.61.17.92.23.4.08.79,0,1.12-.3.35-.3.72-.36,1.11-.16.69.35,1.37.36,2.04-.04.67-.4,1.34-.39,2.05-.11.62.24,1.23.2,1.8-.22.42-.31.88-.27,1.35-.11.22.07.5.23.67.13.37-.22,1.22-.16,1.3-.3.07-.14.29-.12.41-.12.37,0,.69-.02,1.04-.09.35-.08.65-.37.95-.51.26-.1.51-.24.75-.13.23.13.44.02.45-.07.07-.06-.03-.07-.08-.04-.01,0-.02.02-.03.03-.04.03-.09.08-.12.14-.07.08-.12.29-.1.31.15-.13.23-.43.21-.78,0-.2-.03-.4-.13-.6-.08-.19-.23-.37-.46-.52-.23-.15-.25-.41-.3-.66-.01-.29-.39-1.15-.38-1.33.13-.79-.6-1.21-1.09-1.62-.23-.23-.63-.27-.86-.48-.18-.17-.27-.44-.45-.63-.13-.12-.49.04-.44-.27.07-.41-.06-.54-.4-.56-.39-.05-.86.18-1.16-.19-.21-.25-.61-.1-.86-.37-.27-.31-.71-.42-1.1-.44-.11,0-.21-.03-.31-.08l.28.04c-.46-.11-.86-.42-1.32-.32-.57.14-1-.21-1.47-.4-.45-.18-.9-.32-1.37-.44-.47-.11-.96-.13-1.5-.15-.54,0-1.07-.1-1.55-.38-.49-.24-.91-.65-1.23-1.13-.46-.7-.96-1.29-1.49-1.97-.7-.91-1.24-2.12-.95-3.3.09-.36-.05-.57-.05-1.05h0c-.37-.43,3.26,3.7,1.72,1.95h0s0,0,0,0h0s-.01,0-.01,0h-.03s-.06.02-.06.02l-.11.02-.22.04-.44.06c-.29.04-.59.06-.88.06-.59,0-1.17-.1-1.75-.34-.35-.15-.78-.09-1.17-.04-.39.04-.77.19-1.16.29-.82-.41-1.74-.09-2.56-.5-.17-.08-.29-.09-.45,0-.21.11-.45.26-.66.25-1.1-.06-2.22.35-3.31-.11-.46.1-.92.23-1.38.28-.79.09-1.6.04-2.37.2-.47.1-.9.1-1.38.07-1.26-.08-2.54-.03-3.8-.03-1.27,0-2.54.02-3.8,0h-.24s1.97-1.86,1.97-1.86c-.05.31-.14.62-.24.92-.1.31-.18.64-.04.93.28.62.25,1.25.23,1.88-.06,1.82-.11,3.65-.13,5.47,0,.63-.33,1.2-.27,1.86.05.52.04,1.1-.28,1.6l-.26,4.51c-.03.47-.06.95-.1,1.42-.02.25-.18.45-.42.58-.25.21.19.36-1,.41-.14.04-.92-.24-1-.33-.57-.65-.19-1.11-.43-1.88-.17-.52-.03-1.18-.06-1.73Z"/>
  </g>
  <path class="cls-3" d="M157.61,128.44c.69.31,1.45.23,2.02.75.26.24.74-.02.98.36.15.23.42.23.6.44.23.28.47.3.85.26.22,0,.37-.04.8.06.34.08.49.21.9.12.36-.08.78.4,1.15.35.74-.1,1.17.37,2.01,0,.7-.14,1.32.08,1.88.13l2.16.26c.17.02.34.13.49.23.34.2.68.15,1.04.02.67-.23,2.63.12,2.92-.07.2-.1,1.04-.31,1.85-.51.81-.21,1.58-.44,1.71-.45.17,0,.35.06.42-.12.31.09.57-.33.85-.19.54-.09.76-.1,1.32-.41.54-.26,1.52.15,1.89-.39,1.06-.66,1.65-1.18,1.72-1.38.14-.33.45-.19.58-.52.18-.44,1.17-.65,1.1-.89-.1-.26.17-.37.13-.65-.07-.57.31-.88.8-1.07.26-.1.1-.59.37-.62.48-.08.89-.29,1.17-.68l1.77-2.5c.35-.54.69-1.12,1.28-1.45.51-.84.83-1.2.94-1.61.02-.56.58-.78.49-1.35-.13-.78-.1-.6.35-1.37.21-.07.61-.42.5-.65.35-.34.47-.76.51-.78.7-.46.11-.61.87-1.08.15-.39.33-.56.09-.89-.12-.17-.07-.33.13-.46.19-.12.21-.28.19-.49-.07-.85.86-1.41.81-2.26.27-.37.23-.89.42-1.3.32-.67.54-1.36,1.17-1.86.16-.13.18-.53.13-.79-.07-.43.44-.59.38-.99-.07-.47.36-.58.63-.8.22-.17.42-.35.36-.69-.09-.48.18-.89.27-1.34.1-.46.61-.77.52-1.24-.12-.65.49-1.15.27-1.8-.16-.42.21-.59.22-.97.62-.22.84-.69.86-1.28,0-.24,0-.49-.01-.71v-.02s.21-.49.21-.49c.19-.44.38-.79.77-1.06.2-.14.22-.54.35-.81.13-.27.26-.55.45-.77.4-.47,1.11-.52,1.45-1.05.33-.49.69-.74,1.04-1.22.24-.32.94-.63,1.26-.88.68-.57.94-1.53,1.95-1.56.11-.07.15-.09.17-.11l.1-.07c.06-.03.13-.17.12-.36-.02-.23,0-.39.1-.53.09-.16.24-.28.45-.38.08-.03.19-.08.2-.14.08-.52.19-1,.71-1.29.13-.42.33-.76.64-1.09.29-.33.01-.9.39-1.21.29-.27.32-.61.29-.97-.03-.37.12-.67.31-.98.14-.21.32-.46.31-.7,0-.67-.01-1.32.14-1.93.13-.62.29-1.22.62-1.83.2-.46.12-.92.13-1.43-.16-.42-.04-.66.28-.88.16-.11.05-.23-.15-.37-.21-.33-.13-.64-.05-.91.07-.27.18-.51.09-.67-.26-.46-.38-.91-.25-1.45.06-.22.06-.57-.08-.72-.17-.17-.25-.35-.31-.53-.07-.18-.1-.37-.1-.59-.02-.59-.19-1.18-.84-1.45-.42-.19-.62-.54-.81-.91l-.17-.31-.09-.19c-.25-.54-.23-1.28-.88-1.57-.07-.03-.11-.11-.13-.19-.16-.91-.79-1.59-1.75-1.64-.21-.01-.43-.19-.55-.36-.38-.64-1.01-1.01-1.76-.83-.14.04-.32,0-.42-.1-.81-.79-2.12-.63-2.66-.37-.65.26-1.33.68-1.95,1.06-.17.1-.33.2-.35.4-.05.55-.12.67-.38.8-.16.13-.15.25.19.38.5.2.74.46,1.07,1.03.13.27.4.51.69.65.76.36,1.52.98,2.49,1.24,1.01.28,1.77,1.1,2.69,1.74.54.37,1.27.64,1.54,1.34.25.68.68,1.19,1.02,1.79.29.54.13,1.11.04,1.61-.11.56-1.45.95-1.9.7-.03-.02-.28-.15-.25-.21-.15-.14-.77-.9-1.12-1.48-.17-.35-.44-.62-.51-1.03-.1-.32-.29-.56-.66-.6-.42-.06-.79-.23-1.05-.55-.9-1.06-2.39-1.5-3.79-2.32-.44-.26-.87-.58-1.26-.94-.15-.15-.25-.38-.41-.48-.23-.16-.46-.32-.67-.51-.19-.21-.39-.41-.56-.67-.38-.55-.57-1.29-.52-1.99.11-1.44.91-2.42,1.63-3.27.46-.5.81-.76,1.28-1.25.39-.41.85-.65,1.41-.83.26-.09.61-.15.98-.21.35-.02.73-.06,1.11-.04.41.15.85.26,1.23.44.29.17.59.21.9.2,1.5-.1,2.92.59,4.26,1.25.68.6,1.49,1.27,2.07,1.91.62.6,1.01,1.14,1.15,1.18.29.45.52.94.7,1.43.12.35.19.72.29,1.06l-.09-.16.05.13c.19.5.49.89.96,1.15.51.27.75.73.73,1.29,0,.49.05.94.2,1.36.1.43.29.84.58,1.24.62.79.62,1.74.43,2.68-.23.81-.22,1.58.16,2.38.24.58.11,1.2-.14,1.78-.11.27-.36.59-.31.82.11.53-.22,1.6-.15,1.74.1.14-.01.41-.06.57-.17.46-.27.88-.42,1.34-.13.47-.05,1-.14,1.49-.09.38-.22.86-.49,1.08-.61.52-.43,1.31-.85,1.88-.36.48-.68,1.01-.97,1.54-.39.62-.67,1.24-.82,2.02-.04.21-.13.41-.27.59-.16.19-.36.37-.54.54-.11.1-.23.24-.53.45-.14.1-.28.2-.43.31l-.23.15-.12.07c-.32.18-.64.33-.75.35-.94.08-1.48.95-2.05,1.6-.29.32-.44.76-.72,1.08-.21.26-.59.37-.83.61-.17.16-.07.61-.42.56-.45-.07-.62.09-.74.49-.14.48-.11,1.05-.54,1.38-.03.02-.04.03-.05.04l.29-.72c-.16.43-.07.88-.32,1.31-.29.49-.5,1.09-.56,1.65-.07.72-.72,1.17-.72,1.85-.02.65-.41,1.06-.68,1.56-.52.94-.85,1.93-.82,3.04.03,1.1-.33,2.12-1.06,2.95-.53.6-.83,1.28-1.12,2.02-.38.99-.7,2.04-1.54,2.78-.24.22-.24.5-.33.77-.42,1.4-1.06,2.71-2.18,3.72-.35.29-.58.77-.79,1.2-.21.43-.33.91-.49,1.36-.89.62-1.28,1.73-2.17,2.32-.19.12-.27.24-.32.44-.06.27-.13.59-.3.79-.87,1.03-1.38,2.4-2.64,3.09-.3.49-.57,1-.91,1.47-.65.79-1.44,1.51-2.14,2.26-.41.5-.9.8-1.44,1.14-1.46.84-2.94,1.67-4.54,2.19-1.58.53-3.21.93-4.84,1.1-.5.06-1.02,0-1.52-.05-.41-.03-.83-.1-1.19.06-.76.35-1.57.32-2.39.32-2.33-.07-4.63-.36-6.89-.78-.78-.15-1.43-.61-2.24-.74-.65-.09-1.35-.29-1.87-.75-1.78-.57-3.54-1.23-5.25-1.97-.54-.24-1.08-.48-1.61-.76-.28-.14-.46-.39-.51-.68-.14-.33-.49-.02-.09-1.14.02-.15.64-.72.77-.75.92-.21,1.28.35,2.2.45.63.06,1.3.46,1.93.64Z"/>
  <path class="cls-3" d="M198.76,82.12c-.23-.28-.5-.5-.53-.96-.01-.21-.43-.03-.35-.36.05-.2.11-.41.14-.6.04-.25-.13-.29-.53-.09-.22.11-.43.26-.44.03,0-.23-.09-.38-.35-.36-.23.02-.41-.05-.61-.06-.42-.02-.13-.84-.75-.66-.43.12-.57-.23-.8-.41-.27-.22-.52-.42-.77-.65-.06-.06-.07-.18-.08-.29-.03-.24-.18-.29-.4-.25-.34.06-.66.14-.96.2l-.39-.26-.26-.1c-.26-.11-.24-.28.07-.54.28-.25.28-.46.05-.54-.33-.12-.68-.31-1.03-.49-.63-.28-.66-.9-.4-1.43.11-.22.19-.44.25-.65.04-.14-.12-.22-.27-.34-.3-.25-.33-.43-.08-.59.59-.35.89-.67,1.14-1.13.1-.23.25-.43.38-.63.13-.21.24-.44.33-.69.08-.24.26-.33.5-.27.38.1.74.31,1.06.48.15.09.22.03.28-.11.11-.23.25-.42.39-.65.2-.31.39-.04.57.26.1.16.16.07.18-.17.02-.26.04-.54.12-.77.16-.48.6-.67.89-.41.15.13.31.26.43.44.22.33.44.47.69.48.54,0,1.09-.02,1.63.06.34.05.71.04.95.42.25.42.55.44.98.2.34-.19.68-.28,1.06-.54.52-.34.56-.32.62.47.01.19.07.21.25.06.12-.1.35-.27.36-.24.19.55.72.74.67,1.47-.03.4.26.24.57.02.16-.12.26-.07.27.1.01.16.11.18.27.16.65-.06.88.5,1.49.59.11.28.19.58.33.82.25.38.54.76.41,1.31-.04.15.17.29.36.35.32.11-.01.48.27.6.33.15.02.44-.11.67-.1.18-.19.35.03.48.24.16.27.34.32.68l-3.4.18c0,.06,0,.03-.02.01-.05-.07.31-.3.05-.39-.36-.09-.28-.36-.75-.36-.29.01-.17-.15.09-.39.43-.37.41-.62.17-.73-.24-.13-.59-.12-.59-.48,0-.11-.24-.05-.37-.07-.13-.02-.27-.03-.34-.1-.15-.14.04-.66-.24-.7-.25-.04-.55.01-.79-.01-.17-.01-.29-.11-.42-.18-.29-.18-.64-.23-.69-.85-.14-.07-.24-.26-.48-.08-.29.23-.48.21-.57-.09-.02-.05-.04-.13-.07-.12-.3.11-.56.2-.67-.2-.21,0-.4-.05-.54-.26-.15-.19-.48.24-.61-.04-.11-.22-.28-.18-.47-.07-.2.12-.35.06-.48-.08-.1-.1-.21-.23-.33-.17-.34.14-.64.19-.93.14l-.43-.07-.34-.23c-.44-.29-.81-.64-1.04-1.19-.16-.44-.43-.73-.87-1.01-.38-.24-.28-.52-.06-.81.11-.15-.03-.2-.26-.27-.66-.2-.75-.5-.38-.94.18-.2.47-.28.34-.61-.2-.49-.15-1.01.28-1.35.17-.15.37-.34.36-.52-.03-.42.18-.7.53-.83.23-.1.42-.22.56-.4.15-.15.25-.35.3-.65.08-.5.48-.66.83-.84.47-.26,1.06.02,1.42-.5.04-.05.12-.04.19-.02.38.14.71.2,1.03.15.32-.02.62-.15.96-.43.15-.13.4-.09.55.02.53.39.96.55,1.6.3.12-.05.28-.02.36.07.58.79,1.44.95,1.99,1.24.49.23.93.52,1.29.94.09.12.17.24.35.23.47-.03.76.22.89.68.08.29.28.42.57.4.49-.03.77.21.87.69.05.22.14.42.29.52.39.27.56.79,1.04.94.49.16.6.72,1.03.95.25.13.69.06.76.4.07.34.34.44.59.59.22.14.13.52.1.83-.02.35-.89,1.18-1.29,1.32-.03,0-.03-.07-.01-.13.02-.06.08-.14.12-.21.11-.21.04-.29-.14-.14-.76.66-1.13.63-1.39.34-.14-.16-.33-.28-.34-.57,0-.24-.13-.35-.39-.32-.31.04-.53-.06-.59-.29-.22-.78-.83-1.16-1.34-1.65-.16-.15-.3-.32-.45-.49-.06-.07-.05-.22-.14-.23-.97-.15-1.54-.86-2.38-1.17-.25-.09-.52-.13-.82-.1-.5.04-.91-.1-1.02-.72-.03-.2-.13-.33-.19-.52-.05-.16-.14-.22-.28-.18-.31.1-.57.14-.81.12-.24-.01-.49.02-.72.07-.35.16-.6-.07-1.01-.71-.08-.13-.14-.01-.13.22.02.42-.05.61-.18.63-.15.04-.32.01-.51,0-.15-.02-.3-.05-.45-.05-.21,0-.31.17-.23.49.08.32,0,.41-.21.36-.45-.12-.64.14-.37.46.17.15.23.22.2.26.02.04-.09.05-.27.12-.12.06-.17.14-.15.2.02.06.19.09.37.04.24-.07.29.02.21.26-.04.11-.1.32.02.3.26-.06.45-.17.04.48-.09.15-.14.31-.2.47.12-.12.23-.23.34-.36.1-.12.2-.27.29-.37l-.53-.21s.01-.03.02-.05c.08-.11.21-.21.29-.18.22.1.4.35.63.39.23.04.51-.14.76-.15.19,0,.44,0,.53.22.21.5.67.09.95.33.23.21.51.3.78.43.32.14.66.21,1.1-.02.24-.12.42.02.59.16.19.16.22.41.07.82-.1.26-.21.53-.32.8-.03.08-.05.18-.05.24.01.11.11.05.25-.17l.59-.99c.14-.22.46-.37.51-.21.19.68.66.87,1.16,1.09.24.12.57.11.81.25.18.11.23.39.37.56.1.11.49-.05.36.27-.17.4-.09.5.19.57.34.09.82.06.93.48.06.29.43.38.47.72.03.38.18.73.43,1,.31.36-.01.91.29,1.24.29.36.12.74.05,1.19v.11s-.03.17-.03.17l-3.55.19c.07-.03.04-.26-.04-.39-.09-.14-.25-.27-.5-.34-.53-.16-.7-.4-.58-.89.07-.35-.06-.6-.29-.77-.14-.13-.31-.23-.44-.36-.12-.14-.21-.32-.23-.59-.01-.16-.17-.13-.27-.16-.29-.06-.56-.12-.78-.27-.24-.12-.42-.34-.56-.7-.09-.2-.32-.23-.51-.26-.19-.04-.42.04-.62.1-.12-.26-.31-.34-.5-.43-.2-.08-.41-.12-.58-.37-.07-.1-.13-.12-.22-.04-.13.1-.26.22-.37.19-.55-.11-1.11.24-1.61-.2-.22.1-.42.24-.6.33-.33.11-.62.17-.82.4-.06.17-.18.2-.28.23-.3.09-.31.24-.33.36-.03.14.03.37.13.56.02.07,0,.17-.02.29,0,.03,0,.06,0,.09l-.34-.23c.11.11.24.18.42.15.53-.08.88.14,1.24.35,1.01.62,1.92,1.28,2.82,1.94.31.23.38.69.73.88.29.15.55.37.57.8.65.61,1.29,1.24,1.91,1.88.2.2.39.41.57.63.1.12.07.31-.05.53-.16.29-.34.59-.55.88-.09.12-.32.29-.42.32-.7.16-1.3.17-1.81.07-.35-.07-.54-.33-.8-.51Z"/>
  <path class="cls-3" d="M158.16,102.61c.29.23.76.12.91.55.07.2.43-.05.43.28,0,.21.16.19.18.38.03.25.16.26.39.21.12,0,.22-.04.42.05.16.07.2.18.45.11.22-.07.29.36.5.33.42-.07.49.36,1.05.06.42-.12.64.15.91.22.33.13.65.29.97.45.08.04.12.16.17.26.1.23.27.24.48.17.39-.15,1.17.58,1.36.47.25-.12,1.71.04,1.82.09.07.05.13.17.21.03.11.18.33-.08.41.15.25.12.34.18.65.16.29,0,.61.83.89.53.61,0,.97-.15,1.04-.24.12-.18.24.11.36-.09.15-.27.68.2.68-.03,0-.24.13-.21.15-.42.03-.46.24-.44.52-.28.15.09.09-.37.23-.24.27.23.51.28.7.17.38-.26.75-.52,1.08-.83.21-.2.42-.39.81-.38.27-.37.48-.47.53-.67-.07-.35.34-.3.18-.68-.24-.52-.2-.41.04-.72.17.03.43-.07.29-.24.23-.1.25-.31.28-.32.52-.08-.04-.32.53-.41.05-.19.17-.25-.11-.49-.15-.12-.13-.2.02-.23.14-.03.13-.11.06-.23-.27-.48.46-.63.22-1.1.14-.14.03-.38.07-.56l-.07.23s0-.06.02-.08c.12-.36.14-.74.59-1,.12-.07.04-.28-.06-.42-.17-.24.28-.31.12-.53-.18-.26.21-.3.42-.41.17-.08.32-.17.19-.36-.19-.26-.03-.48-.02-.71.01-.24.44-.38.26-.64-.24-.36.28-.58-.06-.95-.22-.24.12-.3.07-.51.57-.07.71-.3.67-.61-.05-.34-.25-.69.06-.97.1-.09-.09-.29-.13-.44-.04-.15-.09-.3-.06-.43.07-.28.59-.41.54-.72-.05-.29.07-.47.02-.76-.03-.2.27-.48.31-.66.09-.41-.46-.89.14-1.14.04-.18.21-.35-.02-.56-.28-.28-.27-.49.01-.67.05-.03.13-.07.11-.11-.14-.31-.25-.61.12-.81-.02-.24.03-.46.22-.65.18-.19-.25-.51.01-.7.21-.15.16-.34.05-.54-.11-.21-.05-.38.09-.55.1-.11.23-.24.18-.38-.26-.77-.16-1.45.42-2.04.22-.22.16-.49.19-.77-.15-.27.03-.37.37-.41.17-.02.08-.11-.09-.23-.31-.46.43-.6.34-.82-.13-.31-.17-.59.16-.81.14-.09.25-.25.18-.37-.18-.28-.1-.47.1-.66.27-.27.35-.58.04-.97-.25-.31-.15-.59-.08-.87.09-.36.56-.62.29-1.07-.03-.04,0-.1.05-.13.52-.4.68-.87.28-1.48-.09-.13-.03-.31.09-.4.41-.33.6-.7.28-1.2-.06-.09-.05-.21.03-.27.67-.5.58-1.21.69-1.85.08-.52.19-1.02.46-1.49.07-.13.16-.24.09-.4-.18-.42-.06-.77.3-1.07.22-.18.28-.42.14-.68-.22-.43-.11-.77.26-1.07.17-.14.31-.31.33-.49.07-.47.45-.86.36-1.36-.09-.5.34-.88.33-1.37,0-.28-.28-.62-.03-.85.25-.23.19-.52.19-.81,0-.25.35-.38.61-.53.28-.16,1.65.08,1.98.34.02.02.2.16.15.18.09.11.36.71.24,1.12-.06.23-.08.47-.32.64-.2.14-.24.31-.09.53.18.26.19.52.02.71-.57.63-.64,1.39-.87,2.11-.07.22-.16.44-.26.66-.04.08-.18.15-.16.24.24,1.01-.22,1.88-.23,2.84,0,.29-.05.46.06.77.18.5-.12.82-.32,1.42-.2.12-.31.3-.49.43-.15.11-.19.24-.14.39.25.71.01,1.35.05,2.03-.38.71-.52,1.78-.43,1.9-.07.22-.2.43-.32.64-.1.17-.26.32-.36.48-.14.22-.11.46.12.72.24.27.24.5-.02.68-.45.31-.58.7-.3,1.19.27.48.14.87-.26,1.21-.35.29-.42.66-.13,1.09.21.32.08.58-.18.81-.12.11-.33.23-.28.35.13.28-.14.75-.02.83.11.08.04.2,0,.27-.1.21-.17.4-.21.63-.04.23.14.5.15.74,0,.19,0,.42-.19.52-.46.23-.03.65-.25.93-.18.24-.26.51-.33.79-.08.32-.1.65.19,1.02.15.2.05.39-.04.56-.1.19-.3.87-.44.95-.56.32-.35.89-.37,1.37,0,.24.14.5.12.73-.02.18-.24.32-.31.49-.04.12.28.34-.04.38-.4.04-.46.15-.36.39.13.29.43.59.19.86-.16.18.02.45-.18.66-.22.22-.33.51-.29.8.05.36-.49.55-.37.9.11.34-.18.52-.34.77-.29.46-.4.96-.1,1.55.3.58.21,1.09-.24,1.51-.18.17-.29.35-.37.55l-.06.2c-.09.16-.15.33-.19.51-.15.55-.22,1.15-.85,1.48-.18.09-.13.27-.16.43-.11.8-.49,1.57-1.32,1.94-.27.1-.4.36-.53.6-.13.23-.17.54-.29.8-.69.13-.91.82-1.63.84-.14,0-.21.05-.24.18-.04.18-.08.41-.23.47-.34.18-.63.46-.95.69-.33.2-.71.36-1.14.3-.26.19-.53.42-.83.57-.51.25-1.08.31-1.6.56-.32.14-.62.17-.96.18-.89-.04-1.76,0-2.62-.1-.85-.1-1.69-.23-2.49-.46-.25-.07-.47-.22-.69-.38-.18-.13-.36-.25-.58-.16-.47.19-.86.06-1.25-.06-1.13-.36-2.23-.77-3.31-1.22-.37-.16-.57-.58-.98-.7-.32-.09-.66-.24-.8-.66-.82-.47-1.63-.97-2.42-1.5-.25-.17-.49-.35-.73-.54-.13-.1-.15-.3-.08-.54.03-.27-.31.03.34-.96.06-.12.67-.67.76-.71.65-.27.67.18,1.19.19.36,0,.62.3.92.42Z"/>
  <path class="cls-3" d="M206.08,76.45l-.07.06c-.32-.97-1.08-2.5-2.78-3.79,1.85,1.36,2.57,2.8,2.84,3.73Z"/>
  <path class="cls-3" d="M211.66,32.02l-2.83,26.63c-2.08-.93-4.12-1.04-5.28-.67-2.33.73-4.96,3.2-3.64,5.39.19.32.42.6.67.86-4.58-1.42-8.76,3.08-4.59,5.59,2.81.57,4.85,1.4,6.34,2.29-.79-.46-1.72-.86-2.84-1.16-7.66-1.62-8.25,3.1-6.19,4.86,2.52,1.32,5.69,4.51,7.15,6.05l-2.9,2.79-16.18-1.72c-3.07-.32-5.29-3.07-4.96-6.14l5.09-47.99c.32-3.06,3.07-5.28,6.13-4.96l19.06,2.02c3.07.33,5.29,3.08,4.96,6.14Z"/>
</svg>