<?xml version="1.0" encoding="UTF-8"?>
<svg id="illuer_hvid_bg" xmlns="http://www.w3.org/2000/svg" viewBox="0 0 271.17 271.03">
  <defs>
    <style>
      .cls-1 {
        fill: #ff9400;
      }

      .cls-2 {
        fill: #0354f0;
      }
    </style>
  </defs>
  <path class="cls-2" d="M236.5,28.63c1.14-.33,2.44-.56,3.8-.77.51-.08,1.02-.16,1.53-.24.19-.03.47-.07.58-.08l.39-.02c.26-.02.48-.18.54-.43.03-.12.01-.26-.02-.37-.01-.12.02-.23.09-.35l.02-.05c.06-.15.01-.43,0-.66-.06-.23-.12-.47-.14-.72-.1-.68-.5-1.13-1.18-1.58-.42-.27-.67-.43-1.6-.95-.73-.4-1.12-.65-2.04-.82-.8-.15-1.96-.84-2.86-.91-.28-.03-.55-.05-.8-.08-.09,0-.17-.04-.25-.01-.08.04-.15.08-.22.12l-.22.14-.39.27c-.52.38-1.05.83-1.57,1.45-.62.62-1.3,1.16-1.94,1.66l-.32.25c-.06.04-.09.07-.12.16-.14.3-.27.6-.4.88-.68,1.62-1.19,3.31-1.24,5.04-.04.41-.08.82-.16,1.21-.1.43-.04.85.03,1.26.05.41.2.81.39,1.21.3.76.8,2.28,1.51,3.62.18.33.36.66.54.96.09.15.19.29.27.43.05.07.07.12.14.21.08.1.16.2.24.3.58.77,1.17,1.32,1.42,1.55.02.02.03.03.15.14-.13.35-.83,1.28-1.69,2.51-.55.79-1.2,1.72-1.87,2.64-1.35,1.83-2.68,3.59-2.92,3.84-.32.34-.66.59-.75.96-.59.48-1.03,1.5-1.58,1.85-1.01,1.11-1.4,1.5-2.49,2.92-1.03,1.35-2.84,2.21-3.6,3.62-2.13,2.61-3.43,4.27-3.67,4.7-.42.77-.91.88-1.32,1.65-.57,1.06-2.52,2.48-2.53,2.86-.01.4-.55.91-.69,1.39-.3,1.02-1.2,1.96-2.19,2.75-.51.41-.63,1.22-1.12,1.52-.88.54-1.71,1.29-2.51,2.25l-4.96,5.92-.23.27.16.52c.09.31.17.63.25.94.18.7.31,1.39.38,2.08.78,2.43,1.07,3.64,1.47,4.61.62,1.13.64,2.44,1.31,3.42.29.43.48.69.61.93.11.16.13.13.17.23.04.02.07.06.13.1.19.16.43.36.74.61.24.39,1.15,1.34,1.59,1.43.22.22.44.42.65.6.17.14.32.27.45.38.12.1.21.14.22.17.1.21.22.35.3.42.02.02.04.04.06.04l.04-.06s.05-.09.07-.13c.1-.19.12-.27.56-.44.61-.81,1.09-1.25,1.11-1.84.02-.31.28-.67.71-1,.4-.31.61-.65.82-1.08.86-1.77,2.86-3.21,3.78-4.99.81-.86,1.36-1.94,2.12-2.85,1.24-1.48,2.4-3.01,3.83-4.19.38-.31.89-1.15,1.15-1.69.44-.91,1.31-1.32,1.73-2.17.5-1.01,1.19-1.28,1.82-1.78.5-.4.97-.78,1.33-1.5.49-1.02,1.35-1.92,2.05-2.89.72-1,1.75-1.68,2.25-2.68.7-1.4,2.09-2.46,2.67-3.87.37-.92,1.04-1.26,1.56-2.09,1.02-.45,1.91-1.45,2.74-2.73.89-1.36,1.6-2.75,2.85-4,.39-.39.7-1.16,1.06-1.76.37-.59.72-1.21,1.15-1.77.38-.5.81-.92,1.24-1.34l.64-.63.16-.17.24-.29c.16-.2.32-.4.48-.6.23-.11.48-.23.73-.36.13-.08.24-.11.33-.12.36-.07.77-.17,1.16-.26l.29.02h.15s.29,0,.29,0c.19,0,.35-.03.53-.05.35-.06.72-.13,1.11-.29.71-.25,2.2-.66,2.93-1.18,1.66-1.09,2.37-2.7,3.97-3.68.58-.68,1.3-1.34,1.56-2.18.18-.53.38-.96.74-1.47.3-.44.67-.87,1.11-1.28.16-.15.37-.34.45-.5.61-1.23,1.2-2.43,2.2-3.44.55-1.02,1.12-1.96,1.8-2.9.65-.91.7-2.08,1.37-3.04.54-.77.75-1.58.84-2.39.1-.82.29-1.58.42-2.25.09-.46.13-.99-.05-1.14-.2-.23-.48-.25-.47-.18-.01.01-.02.03-.02.04.03,0-.07.02-.14.04l-.22.06c-.3.09-.62.21-.94.34-1.29.54-2.68,1.35-4.1,2.24-1.07.67-1.87,1.59-2.79,2.59-.6.93-1.16,1.36-1.73,1.57-.07.02-.13.07-.16.08-.04-.02.12.09-.24-.17l-.74-.5c-.08-.06-.17-.12-.26-.17l-.14-.07s-.06-.06-.06-.02c.01-.08-.05-.07-.13-.17-.08-.09-.16-.18-.25-.27l-.67-.64-.15-.14h0s.02-.03.02-.03c.03-.07.16-.39.39-.72.37-.6.8-1.07,1.2-1.56.39-.48.73-.94.81-1.35.22-1.19.37-2.37.75-3.64.16-.52.25-1.38.11-1.83-.3-1.04-.4-1.88-.59-2.81-.07-.3-.16-.59-.29-.81-.06-.1-.13-.21-.19-.28-.05-.06-.09-.09-.15-.13-.13-.06-.2-.06-.45,0l-.44.06c-.14.04-.27.11-.4.17-.81.39-1.69.75-2.6,1.49-1.13.91-2.47,2.08-3.11,3.81-.06.18-.23.42-.37.58l-.64.81-.39.49c-.09.11-.12.15-.27.32-.22.23-.48.44-.74.59l-2.44-2.83c1.12-1.27,1.84-2.92,1.94-4.63,0-.25.06-.57.14-.89.06-.32.14-.64.24-.89.28-.87.41-1.76.32-2.59-.07-.83-.44-1.58-.94-1.91-.08-.07-.2-.13-.26-.21-.06-.07-.02-.03-.02-.09.02-.04-.01-.07-.03-.1-.01-.02-.02-.03-.04-.05l-.2-.05c-.28-.08-.55-.11-.84-.11-.56,0-1.13.16-1.68.46-1.1.59-2.07,1.71-2.89,2.93-.6.9-1.14,1.88-1.62,2.9l-.35.77c-.09.2-.1.22-.13.27-.04.09-.14.2-.16.31l.09.07s.1.09.17.12c.06.03.03.01.16.06.17.06.34.11.52.16,1.91.51,3.71,1.35,5.34,2.68l.79.65.42.35c.18.16.39.33.55.52.73.71,1.23,1.65,1.13,2.65,0,.21-.01.42-.03.64v.36s-.03.68-.03.68c-.02.44-.05.87-.09,1.29-.07.84-.15,1.64-.2,2.4-.04.69.12,1.43.43,1.68.18.17.37.27.7.35.31.09.78.06,1.24,0,.48-.08.98-.23,1.48-.42.26-.12.42-.17.96-.44l1.33-.79c.48-.31.87-.46,1.29-.65l.63-.27.31-.13c.08-.02.13,0,.19,0h.72c.13.04.22-.02.37.06.17.12.23.25.29.36.21.47.35,1,.34,1.83-.02.85-.31,1.91-.42,2.88-.04.29-.06.58-.08.88,0,.16,0,.31.02.46.02.3.07.58.12.83.1.51.27.87.28,1,.07.22.18.32.62.35.42.02.97-.1,1.54-.28,1.02-.32,2.03-.39,3.04-.6,1.09-.24,2.04.83,1.35,1.59-.04.05-.45.47-.61.49-.19.14-.87.6-1.86,1.05-.98.44-2.28.93-3.77.8-.78-.06-1.83-.4-2.48-1.09-.33-.34-.59-.75-.75-1.17-.16-.4-.22-.79-.24-1.15-.03-.6,0-1.13,0-1.64v-.75c0-.15,0-.19-.02-.25-.01-.06-.03-.11-.05-.16-.17-.49-.16-.69.05-1.35.02-.07.04-.14.03-.2,0-.08-.06-.08-.08-.06-.06.01-.13.04-.2.06l-.52.21-.64.26-.43.17c-.24.09-.47.2-.73.28-.98.35-2.06.63-3.28.58-.61-.06-1.27-.17-1.86-.53-.58-.34-1.09-.84-1.4-1.39-.77-1.38-.83-2.76-.81-4.03.01-.5.16-1.02.16-1.45-.01-.62.02-1.25.07-1.86.04-.73.14-.94.03-1.26-.08-.15-.19-.27-.31-.37-.06-.05-.12-.1-.19-.15l-.31-.23c-.44-.3-.93-.59-1.44-.87-1.01-.55-2.09-1.06-3.18-1.52-.56-.24-1.06-.44-1.69-.68-.85-.33-1.73-.64-2.64-.94-.17-.06-.34-.11-.46-.15-.03-.08,0-.2.04-.31.03-.11.06-.22.09-.33.06-.22.12-.42.18-.63.11-.41.24-.81.37-1.21.22-.67.45-1.33.71-2.13.38-1.17.9-2.18,1.63-3.24.74-1.04,1.64-2.18,3.15-3.34.87-.48,1.93-1.02,2.99-1.18.84-.12,1.62-.2,2.46-.26h.73s.9.12.9.12c.16,0,.29.1.41.19l.39.27c.28.18.49.39.67.58.76.79,1.25,1.76,1.52,2.72.58,1.94.45,3.86.21,5.69-.32,1.3-.82,2.69-1.4,3.93-.57,1.25-1.28,2.31-1.8,3.08l-1.29-1.08c-.14-.33-.35-.62-.61-.83-.05-.04-.16-.13-.18-.13l-.03.04s0,0,0,0l.1-.16c.07-.11.17-.28.24-.41.16-.29.3-.54.42-.75.24-.44.37-.71.41-.81.67-1.06,1.46-2.08,2.39-3,.74-.73,1.57-1.37,2.51-1.9,1.22-.7,2.47-1.3,3.76-1.63.33-.13.67-.16,1.02-.18.31,0,.82-.07,1.28.11.93.26,1.77,1.1,2.1,1.8.64,1.29.83,2.46,1.03,3.6.19,1.15.32,2.27.46,3.44.25,2.31-.3,4.73-1.76,6.78-.63.89-1.35,1.73-2.18,2.5-.03.03-.07.07-.09.11l-.12.16c-.06.07-.05.07-.23.26l-.02.02h0s-.1.1-.16.13c-.14.1-.32.17-.51.21-.09.02-.18.03-.27.03h-.13s-.07,0-.18-.03c-.17-.04-.48-.13-.76-.46-.3-.33-.38-.84-.33-1.11.03-.27.16-.49.13-.43v-.02s.05-.07.05-.07l.09-.14.08-.11.12-.17.22-.32c.28-.42.55-.83.8-1.25.76-1.24,1.91-2.27,3.18-3.1.6-.39,1.41-.8,1.82-1.2.47-.46,1.34-1.06,2.17-1.51.83-.46,1.62-.76,1.76-.88.26-.24,1.06-.45,1.54-.53l.27-.04c.12-.02.25-.04.37-.05.24-.02.48-.04.72-.06h.18c.06,0,.11.03.17.05l.33.14.65.27c.2.1.42.26.59.37.18.12.35.24.5.4.16.16.31.32.46.49.13.18.25.37.37.57.46.8.71,1.63.81,2.39.06.39.09.77.09,1.13.01.38-.03.72-.07,1.08-.14,1.1-.5,2.37-.94,3.04-1.02,1.56-1.29,3.24-2.24,4.69-.8,1.21-1.59,2.5-2.4,3.74-.94,1.46-1.85,2.89-2.48,4.38-.17.4-.43.81-.74,1.22-.24.33-.61.79-.92,1.16-.18.22-.44.57-.78.97-.35.4-.76.86-1.15,1.3-.82.86-1.64,1.63-1.91,1.78-1.08.66-2.1,1.47-3.27,2.22-1.13.77-2.42,1.47-3.81,1.86-.49.15-1,.27-1.51.36-.26.04-.54.1-.78.11l-.37.03h-.17s-.01.02-.01.02c-.02.02-.04.04-.05.04,0,0,0,0,0,0,0,.02-.02.02-.03.02h-.05s-.02,0-.02,0c0,0-.06.06-.08.09l-.19.2c-.25.27-.5.54-.72.83-.39.5-.56,1.33-1.12,1.57-.71.31-1.1.76-1.63,1.72-.63,1.14-1.06,2.3-2.18,3.49-.75.8-1.27,1.85-2.15,2.76-.95.97-1.95,2.2-2.72,3.35-.98,1.47-2.32,2.4-3.16,3.79-.81,1.33-1.8,2.19-2.75,3.24-1.79,1.97-3.42,4.04-4.69,6.32-1.25,2.26-2.92,4.36-4.82,6.18-1.39,1.32-2.58,2.76-3.78,4.32-1.62,2.1-3.23,4.28-5.18,6.02-.57.51-.89,1.09-1.3,1.66l-.8,1.1-1.43,1.82-.77.96c-.26.27-.49.88-.83.38l-1.91-1.51-.95-.77-.57-.48-1.01-.89c-.33-.3-.66-.61-.98-.92l-1.04-1.04c-.21-.2-.43-.4-.69-.63-.1-.37-.2-.76-.31-1.16-.07-.24-.14-.49-.22-.74-.16-.49-.33-.99-.48-1.46-.38-1.13-.85-2.21-1.29-3.31-.16-1.26-.52-2.54-.88-3.83-.18-.64-.36-1.28-.51-1.92-.08-.34-.15-.68-.23-1.01-.12-.51-.22-1-.3-1.46-.03-.14-.05-.27-.07-.38.45-.45.75-.81,1.1-1.31l.2-.3.13-.22.27-.44c.19-.29.39-.57.62-.82,2.25-2.5,4.16-5.35,6.66-7.6.84-1.13,1.63-2.29,2.51-3.4,1.48-1.9,3.1-3.76,4.48-5.69.85-1.18,1.67-2.2,2.62-3.29,2.51-2.94,4.91-5.99,7.31-9.03l3.57-4.57,3.09-4.03s.1-.09.13-.14c-.03-.06-.05-.11-.08-.2l-.03-.07v-.04s-.1-.15-.1-.15l-.35-.58c-.53-.94-1.03-1.91-1.56-2.75-1.14-1.73-1.74-3.92-1.85-6.16-.12-1.54.08-3.09.39-4.58.15-.75.43-1.46.64-2.19.1-.37.29-.69.43-1.04l.51-1.12c.06-.13.12-.27.21-.4l.06-.1.02-.02h0s.05.02.03,0h0s.04-.06.04-.06c.05-.06.1-.13.15-.19.11-.12.21-.24.33-.35l.34-.28.83-.66,1.64-1.24,1.68-1.21.44-.3c.19-.13.53-.36.8-.49.15-.07.28-.17.44-.21l.47-.07.12-.02h.03s0,0,0,0c0-.05.02.11,0-.11h.07s.24,0,.24,0h.47s1.17.22,1.17.22c2.05.43,3.88,1.25,5.97,2.29.84.41,1.72,1.01,2.5,1.8.78.77,1.41,1.87,1.63,2.97.1.29.21.58.25.89l.08.45c.03.16.09.31-.05.54l.16,1.22c.01.38-.05.7-.2,1.05-.29.7-.86,1.24-1.55,1.59-.35.18-.72.32-1.1.43l-.58.15-.41.08c-.47.09-.99.16-1.36.21-.26.04-.48.05-.7.13-.07.03-.21.08-.16.18.16.12.34.15.51.23.08.03.05.17.08.43,0,.02,0,.03.03.05l.12.07c.08.05.16.09.23.13.15.08.29.15.43.27.12.1.25.26.31.47.09.23.1.51-.06.8,0,.13-.26.12-.59.15-.31.04-.6.14-.74.12-.24-.04-.41-.04-.71-.11-.29-.06-.57-.12-.85-.18-.57-.13-1.15-.29-1.71-.47-1.13-.36-2.09-.78-3.09-1.33-.22-.13-.41-.27-.59-.44-.16-.17-.35-.41-.3-.75.17-.58.61-.93,1.06-1.23.57-.36,1.2-.62,1.89-.85Z"/>
  <path class="cls-1" d="M139.74,182.56c-27.13,2.79-47.77-2.03-61.89-14.47-14.17-12.41-22.34-29.41-24.55-50.96-2.21-21.55,2.33-39.83,13.68-54.89,11.32-15.06,30.29-23.94,56.87-26.67,26.58-2.73,47.61,2.04,61.5,14.51,13.88,12.44,21.94,29.45,24.16,51,2.21,21.55-2.23,39.82-13.29,54.84-11.06,15-29.89,23.9-56.45,26.62"/>
  <path class="cls-2" d="M122.06,28.98c2.68-12.43,10.67-28.48,32.58-28.98-.69,8.76-5.35,29.3-29.48,35.89.4,1.2.7,2.31.92,3.28l.13.62.02.14c.21,1.41-.73,2.76-2.14,3.04-1.42.28-2.8-.6-3.15-1.98l-.03-.14-.11-.54c-1.27-5.68-5.67-15.95-16.44-19.74l-.54-.18-.13-.05c-1.33-.51-2.05-1.98-1.6-3.36.45-1.37,1.89-2.14,3.27-1.77l.13.04.66.22c7.81,2.75,12.8,8.17,15.89,13.5Z"/>
  <ellipse class="cls-2" cx="127.1" cy="94.23" rx="3.92" ry="5.23" transform="translate(-8 11.87) rotate(-5.19)"/>
  <ellipse class="cls-2" cx="157.56" cy="91.53" rx="3.92" ry="5.23" transform="translate(-7.63 14.61) rotate(-5.19)"/>
  <path class="cls-2" d="M153.67,119.3c-.68.73-4.54,2.41-5.57,2.63-2.81.58-8.59.23-11.44-.16-1.38-.19-4.45-1.41-5.27-2.54-2.16-3.01,1.21-3.1,3.6-2.87,1.93.19,2.83,1.13,4.43,1.48.91.2,5.64.15,6.71.03,2.32-.26,4.79-2.57,6.38-2.53,2.61.07,2.66,2.35,1.16,3.96h0Z"/>
  <path class="cls-2" d="M98.29,178.77c-.04.91.29,1.76-.01,2.63-.14.4.26.85-.03,1.27-.18.26-.09.58-.24.86-.21.36-.16.65,0,1.08.05.26.14.42.15.96.01.43-.07.65.11,1.11.16.4-.2,1.04-.08,1.47.24.87-.12,1.48.38,2.42.27.83.11,1.64.15,2.34-.01.91-.04,1.81-.09,2.72-.01.21-.11.43-.2.63-.19.44-.15.85,0,1.3.26.84-.24,3.3-.1,3.68.19.52.3,4.39.22,4.72-.05.21-.16.4,0,.57-.17.34.11.85-.11,1.13-.11.7-.17.95-.14,1.78.03.79-.84,1.62-.56,2.36-.02,1.57.02,2.56.11,2.78.17.4-.15.58.02.99.23.55-.36,1.63-.13,1.78.25.15.15.49.35.71.42.46.33,1.06.08,1.64-.13.3.3.63.12.88-.33.45-.48.97-.47,1.55l.07,3.74c0,.79.04,1.6-.26,2.33.05,1.19-.03,1.77.07,2.26.27.59-.1,1.17.27,1.71.5.74.41.58.38,1.66-.16.2-.34.81-.14,1-.15.57-.06,1.09-.08,1.14-.41.89.2.72-.28,1.65.04.51-.05.78.31,1.02.18.12.21.33.08.57-.12.23-.07.41.04.63.45.9-.21,2.01.19,2.93-.1.55.15,1.11.13,1.66-.04.9,0,1.8-.39,2.65-.1.22.02.68.14.95.1.2.06.4.02.58l-1.95-1.97c.24.06.47.14.72.03.51-.24.82.13,1.18.32.29.15.57.28.94.11.52-.24,1.1-.14,1.65-.18.57-.04,1.12.34,1.64.11.72-.32,1.51.14,2.19-.27.45-.27.76.05,1.22-.05.46.54,1.08.63,1.79.51.76-.13,1.47-.4,2.29-.16.26.07.63-.15.96-.22.32-.07.66-.15.98-.15.68,0,1.26.48,1.96.36.65-.11,1.14-.04,1.79-.16.44-.08,1.25.16,1.71.15,1.01,0,1.84-.65,2.75-.12.44,0,.92.12,1.31-.14.23-.15.46-.24.7-.27l-2.08,1.97c-.02-.28.04-.57.18-.86.05-.1.12-.23.1-.31-.17-.66-.31-1.3.05-1.95-.05-.56,0-1.09.16-1.64.16-.53-.3-1.08-.05-1.64.19-.45.13-.86,0-1.3-.13-.44-.08-.88.04-1.32.09-.31.2-.68.15-.97-.34-1.69-.29-3.32.24-4.98.2-.62.11-1.22.12-1.89-.17-.55,0-.89.33-1.15.17-.13.07-.3-.12-.49-.35-.92.38-1.62.26-2.08-.16-.65-.23-1.31.09-1.97.13-.27.23-.71.14-.96-.21-.57-.14-1.05.04-1.61.25-.75.3-1.53-.05-2.29-.28-.61-.2-1.31-.16-1.99.06-.88.5-1.72.2-2.64-.03-.09,0-.24.04-.33.48-1.19.6-2.37.14-3.6-.1-.27-.06-.71.05-.99.38-.98.53-1.93.17-2.94-.07-.19-.07-.48,0-.66.62-1.5.48-3.11.52-4.67.04-1.25.1-2.49.33-3.71.06-.33.14-.64.05-.98-.22-.9-.13-1.79.2-2.65.21-.54.24-1.11.08-1.65-.26-.91-.18-1.76.16-2.63.16-.4.28-.87.29-1.3.03-1.13.37-2.24.24-3.36-.13-1.14.26-2.23.2-3.36-.04-.66-.34-1.32-.11-1.98.23-.67.15-1.31.11-1.98-.03-.59.32-1.06.57-1.54.27-.52,1.67-.6,2.02-.15.02.03.22.29.17.35.1.22.42,1.49.34,2.52-.04.56-.03,1.14-.26,1.66-.19.43-.21.85-.04,1.29.21.53.24,1.13.09,1.66-.52,1.75-.52,3.57-.68,5.37-.05.56-.12,1.12-.2,1.67-.03.22-.16.44-.14.64.34,2.25-.05,4.52.03,6.78.02.68-.01,1.11.13,1.78.23,1.09-.04,1.98-.19,3.49-.19.39-.28.84-.46,1.25-.14.32-.17.64-.1.98.32,1.55.13,3.15.23,4.73-.32,1.85-.36,4.43-.26,4.66-.05.56-.16,1.11-.27,1.66-.09.44-.23.86-.32,1.3-.12.57-.07,1.13.19,1.63.26.52.28,1.06.04,1.61-.43.96-.51,1.92-.19,2.93.32,1,.22,1.98-.15,2.96-.32.86-.36,1.74-.03,2.63.24.65.13,1.32-.11,1.97-.11.31-.31.69-.25.94.16.58-.07,1.81.05,1.96.12.14.06.46.03.64-.08.55-.14,1.03-.15,1.57-.02.55.19,1.1.22,1.66.02.44.04.99-.15,1.32-.44.77.03,1.54-.17,2.3-.16.64-.22,1.33-.26,2-.06.79-.04,1.57.28,2.31.08.18.1.38.1.59l-.03,2.04-2.22.09c-.24.01-.5-.02-.74-.05-.51-.06-2.19-.1-2.44-.21-1.06-.48-2.27-.14-3.39-.05-.56.05-1.1.25-1.65.28-.43.02-.87-.17-1.32-.19-.3-.01-.65.35-.9.05-.31-.39-.59-.42-1.1-.26-.6.19-1.15.56-1.91.38-.51-.12-1.05.13-1.63-.03-.63-.16-1.37-.2-2.01-.1-.82.13-1.55-.35-2.3-.16-.72.18-1.32-.06-1.98-.16-1.24-.18-2.47-.18-3.67.25-.24.09-.49.16-.74.21l-1.69.36-.53-2.61c-.19-.96-.14-1.95.14-2.91.26-.88.3-1.75.26-2.67-.05-1.24-.17-2.5.25-3.7.12-.35,0-.65-.04-.98-.21-1.69-.31-3.36.2-5.02.16-.5.1-1.12.07-1.68-.04-.56-.18-1.1-.27-1.65.42-1.17.12-2.49.54-3.65.09-.24.1-.41.01-.64-.11-.3-.25-.64-.23-.95.08-1.57-.31-3.17.17-4.72-.09-.66-.21-1.31-.25-1.97-.07-1.13,0-2.28-.16-3.39-.09-.68-.09-1.29-.05-1.97.11-1.81.08-3.62.1-5.44l.08-5.44c.01-.56.11-1.12.21-1.67.08-.45.15-.92,0-1.34-.3-.86-.3-1.76-.31-2.67l-.12-7.82c-.02-.9.28-1.75.19-2.68-.07-.74-.09-1.57.21-2.3l.05-6.46.04-2.04c.01-.36.16-.66.39-.86.24-.31-.2-.49.98-.67.14-.07.93.27,1.02.4.6.88.24,1.58.52,2.64.19.73.08,1.68.13,2.46Z"/>
  <g>
    <path class="cls-2" d="M95.13,268.23l1.24-19.67h25.78s-.78,6.11,9.36,6.84c7.54,1.6,9.89,8.52,9.06,11.14-.83,2.62-24.05,2.17-24.05,2.17l-21.79-1.51"/>
    <path class="cls-2" d="M94.33,264.33c.07-.64-.24-1.24.1-1.84.15-.27-.23-.61.07-.89.19-.17.1-.4.27-.58.22-.24.18-.44.04-.75-.05-.18-.12-.3-.12-.68,0-.3.09-.45-.07-.78-.14-.29.24-.72.13-1.02-.22-.62.17-1.03-.3-1.71-.25-.59-.06-1.15-.07-1.64.04-.63.1-1.27.18-1.9.02-.15.13-.29.22-.43.2-.29.17-.59.05-.91-.23-.6.34-2.29.22-2.56,0-.02-.02-.04-.02-.16v-.72s1.36-.55,1.36-.55c.45-.18,2.92-.32,3.13-.26.15.04.28.15.4,0,.24.16.59-.12.79.1.49.1.67.16,1.25.12.55-.04,1.14.82,1.66.53,1.1,0,1.79-.05,1.94-.15.28-.17.41.14.69-.03.39-.24,1.15.34,1.24.11.1-.25.34-.16.49-.36.32-.43.74-.35,1.14-.1.21.13.44-.31.62-.13.32.32.68.47,1.09.45l2.61-.12c.55-.02,1.12-.06,1.63.23.83-.06,1.24,0,1.58-.09.41-.27.82.08,1.19-.29.51-.51.4-.42,1.16-.4.14.15.57.33.7.12.4.14.76.05.8.07.63.4.5-.21,1.16.26.22-.03.38,0,.5-.07l1.36,1.54s.11.05.25.08c.18.04.21.12.09.24-.1.11-.05.2.08.28.26.16.27.37.3.61.03.23.09.48.38.55.05.27.42.32.57.51.27.33.62.55.81,1.11.06.15.34.17.53.13.31-.07.36.38.67.3.35-.1.38.31.54.54.12.19.26.37.52.27.36-.13.7.03,1.05.06.36.02.64.49,1.01.29.46-.24.89.17,1.33-.04l.24.03s.09-.02.14-.04c.4-.17.58.2.95.2.21.59.61.85,1.17.94.6.07,1.23.12,1.69.61.15.15.5.13.76.21.26.08.53.16.75.31.44.36.51.99.99,1.29.44.29.69.59,1.1.92.3.22.53.87.72,1.17.24.32.57.54.83.82.27.26.47.57.37,1.02.16.33.19.72.54.93.46.26.62.7.51,1.22-.02.09-.05.22-.01.28.15.25.29.52.36.8.06.29.04.61-.11.92.07.53.03,1.08-.27,1.67-.03.05-.18.46-.36.77-.21.37-.32.48-.48.68-.08.09-.16.18-.25.26-.08.08-.13.11-.21.16-.14.09-.3.17-.48.2-.49.02-.81.23-1.11.47-.33.27-.66.3-1.04.29-.26-.02-.55-.06-.76.05-1.17.64-2.38.82-3.63.49-.47-.12-.88.03-1.36.1-.37.23-.63.1-.85-.21-.11-.16-.22-.04-.34.17-.62.44-1.18-.22-1.49-.06-.44.22-.9.34-1.39.08-.2-.11-.52-.17-.68-.06-.39.25-.73.22-1.13.08-.55-.19-1.1-.18-1.61.22-.42.33-.91.29-1.39.3-.62,0-1.24-.39-1.87-.03-.06.04-.17.02-.24-.02-.86-.41-1.69-.46-2.54.06-.19.11-.5.1-.7,0-.73-.33-1.32-.43-2.15-.03-.13.07-.34.07-.46,0-1.05-.61-2.18-.45-3.27-.48-.88-.03-1.75-.08-2.6-.3-.23-.06-.45-.13-.69-.04-.64.23-1.25.15-1.85-.18-.38-.2-.78-.23-1.16-.07-.64.27-1.24.19-1.84-.14-.28-.16-.6-.27-.91-.28-.79-.02-1.56-.35-2.35-.21-.8.14-1.56-.24-2.35-.17-.47.04-.93.35-1.4.12-.46-.22-.92-.13-1.39-.1-.42.03-.74-.31-1.06-.55-.36-.27-.37-1.66-.04-2.02.02-.02.21-.22.25-.17.16-.1,1.05-.43,1.77-.36.39.04.79.02,1.15.25.3.19.59.2.9.03.38-.21.79-.25,1.16-.1,1.21.5,2.49.49,3.74.64.39.05.78.11,1.17.18.15.03.31.16.44.13,1.58-.35,3.16.01,4.74-.08.47-.03.78,0,1.24-.14.77-.24,1.38.03,2.44.16.27.19.59.28.87.45.23.13.45.17.68.09.27-.08.55-.13.82-.17l.21-.02s.05,0,.07-.01h.1s.41-.05.41-.05c.55-.04,1.1-.06,1.65-.15,1.3.22,3.09.11,3.25,0,.39.01.78.09,1.17.16.31.06.61.17.92.23.4.08.79,0,1.12-.3.35-.3.72-.36,1.11-.16.69.35,1.37.36,2.04-.04.67-.4,1.34-.39,2.05-.11.62.24,1.23.2,1.8-.22.42-.31.88-.27,1.35-.11.22.07.5.23.67.13.37-.22,1.22-.16,1.3-.3.07-.14.29-.12.41-.12.37,0,.69-.02,1.04-.09.35-.08.65-.37.95-.51.26-.1.51-.24.75-.13.23.12.44.02.45-.07.07-.06-.03-.07-.08-.04-.01,0-.02.02-.03.03-.04.03-.09.08-.12.14-.07.08-.12.29-.1.31.15-.13.23-.43.21-.78,0-.2-.03-.4-.13-.6-.08-.19-.23-.37-.46-.52-.23-.15-.25-.41-.3-.66-.01-.29-.39-1.15-.38-1.33.13-.79-.6-1.21-1.09-1.62-.23-.23-.63-.27-.86-.48-.18-.17-.27-.44-.45-.63-.13-.12-.49.04-.44-.27.07-.41-.06-.54-.4-.56-.39-.05-.86.18-1.16-.19-.21-.25-.61-.1-.86-.37-.27-.31-.71-.42-1.1-.44-.11,0-.21-.03-.31-.08l.28.04c-.46-.11-.86-.42-1.32-.32-.57.14-1-.21-1.47-.4-.45-.18-.9-.32-1.37-.44-.47-.11-.96-.13-1.5-.15-.54,0-1.07-.1-1.55-.38-.49-.24-.91-.65-1.23-1.13-.46-.7-.96-1.29-1.49-1.97-.7-.91-1.24-2.12-.95-3.3.09-.36-.05-.57-.05-1.05h0c-.37-.44,3.26,3.7,1.72,1.95h0s0,0,0,0h-.01s-.03,0-.03,0h-.06s-.11.03-.11.03l-.22.04-.44.06c-.29.04-.59.06-.88.06-.59,0-1.17-.1-1.75-.34-.35-.15-.78-.09-1.17-.04-.39.04-.77.19-1.16.29-.82-.41-1.74-.09-2.56-.5-.17-.08-.29-.09-.45,0-.21.11-.45.26-.66.25-1.1-.06-2.22.35-3.31-.11-.46.1-.92.23-1.38.28-.79.09-1.6.04-2.37.2-.47.1-.9.1-1.38.07-1.26-.08-2.54-.03-3.8-.03-1.27,0-2.54.02-3.8,0h-.24s1.97-1.86,1.97-1.86c-.05.31-.14.62-.24.92-.1.31-.18.64-.04.93.28.62.25,1.25.23,1.88-.06,1.82-.11,3.65-.13,5.47,0,.63-.33,1.2-.27,1.86.05.52.04,1.1-.28,1.6l-.26,4.51c-.03.47-.06.95-.1,1.42-.02.25-.18.45-.42.58-.25.21.19.36-1,.42-.14.04-.92-.24-1-.33-.57-.65-.19-1.11-.43-1.88-.17-.52-.03-1.18-.06-1.73Z"/>
  </g>
  <path class="cls-2" d="M148.09,180.57c-.01.95.35,1.82.07,2.73-.13.42.29.88,0,1.32-.17.28-.07.6-.22.9-.19.39-.14.68.03,1.12.06.27.15.43.18,1,.02.44-.05.67.14,1.15.17.42-.17,1.09-.04,1.53.27.89-.07,1.55.45,2.51.3.85.16,1.7.22,2.43.02.94.01,1.89,0,2.83,0,.22-.1.45-.18.66-.17.46-.12.89.03,1.35.28.87-.13,3.44.02,3.83.21.53.43,4.56.37,4.9-.04.22-.14.43.01.59-.15.36.14.88-.08,1.18-.09.73-.14,1-.09,1.86.05.82-.79,1.71-.48,2.47.03,1.64.1,2.66.2,2.89.18.42-.13.61.05,1.03.25.57-.31,1.71-.08,1.85.25.15.17.51.37.73.44.46.37,1.1.13,1.7-.12.31.32.65.15.91-.31.48-.45,1.02-.42,1.63l.19,3.89c.03.82.1,1.66-.19,2.43.08,1.24.03,1.84.14,2.35.28.61-.06,1.22.32,1.77.52.75.43.59.44,1.72-.15.21-.31.85-.1,1.04-.13.6-.03,1.14-.05,1.19-.38.94.22.74-.22,1.72.05.53-.03.81.34,1.05.19.12.22.33.1.59-.11.24-.06.43.06.66.48.92-.15,2.09.28,3.04-.06.47.1.93.16,1.4l-2.11-2.07c.11-.01.22-.02.32-.01.94.03,1.87-.02,2.76.36.23.1.71-.02.99-.16.48-.22.9.2,1.35,0,.53-.24.85.13,1.23.32.3.15.59.28.97.11.54-.24,1.14-.14,1.72-.18.6-.04,1.17.34,1.7.11.75-.32,1.57.14,2.28-.27.46-.27.79.05,1.27-.05.48.54,1.13.63,1.87.51.79-.13,1.53-.4,2.39-.16.27.07.66-.15,1-.22.34-.07.68-.15,1.02-.15.71,0,1.31.48,2.04.36.68-.11,1.18-.04,1.86-.16.26-.04.64.01,1,.07l-1.63,1.59c.05-.3.1-.57.1-.78.02-1.05-.6-1.93-.05-2.86.01-.46.15-.95-.11-1.37-.32-.52-.34-1.06-.1-1.64.04-.1.11-.24.09-.33-.19-.68-.35-1.35-.01-2.03-.06-.58-.04-1.13.11-1.71.15-.55-.33-1.11-.1-1.7.18-.47.1-.9-.04-1.35-.15-.45-.11-.91,0-1.38.08-.33.18-.72.12-1.02-.39-1.74-.39-3.45.09-5.19.18-.65.08-1.27.07-1.97-.19-.57-.03-.93.3-1.21.17-.14.06-.31-.13-.51-.38-.95.33-1.7.2-2.18-.18-.67-.26-1.35.03-2.05.12-.29.21-.74.11-1-.22-.59-.17-1.08,0-1.67.22-.79.25-1.6-.12-2.38-.3-.63-.24-1.36-.22-2.07.03-.92.45-1.81.12-2.75-.03-.09-.01-.25.03-.35.45-1.25.53-2.49.04-3.76-.11-.28-.08-.73.02-1.03.35-1.03.48-2.02.08-3.07-.07-.19-.08-.5-.01-.69.58-1.58.38-3.25.38-4.88,0-1.3.02-2.59.22-3.87.05-.35.12-.67.02-1.02-.25-.93-.19-1.85.12-2.76.19-.57.21-1.16.03-1.72-.29-.94-.23-1.83.09-2.74.15-.42.25-.91.25-1.37,0-1.17.3-2.34.14-3.5-.17-1.18.2-2.33.1-3.5-.06-.69-.38-1.36-.17-2.06.21-.7.11-1.37.05-2.06-.05-.62.29-1.11.52-1.62.26-.55,1.65-.68,2.02-.22.02.03.23.29.18.36.11.22.47,1.54.42,2.61-.03.59,0,1.18-.21,1.73-.18.46-.18.89,0,1.34.22.54.28,1.16.13,1.72-.47,1.84-.41,3.73-.52,5.61-.03.58-.09,1.17-.15,1.75-.02.23-.15.47-.12.67.4,2.33.09,4.7.23,7.05.04.7.02,1.16.18,1.85.26,1.13.02,2.06-.09,3.64-.18.41-.26.89-.42,1.31-.13.34-.15.67-.07,1.02.37,1.61.23,3.28.37,4.91-.26,1.94-.23,4.62-.12,4.86-.03.58-.12,1.16-.22,1.74-.07.46-.2.9-.28,1.36-.1.6-.03,1.17.23,1.69.28.53.31,1.1.09,1.67-.4,1.01-.46,2.02-.1,3.06.35,1.03.28,2.05-.06,3.09-.3.91-.31,1.82.04,2.73.26.67.17,1.37-.05,2.06-.1.32-.29.73-.22.99.17.6-.02,1.89.11,2.03.12.14.07.47.05.67-.06.57-.11,1.07-.11,1.64,0,.57.22,1.14.27,1.72.04.46.07,1.03-.11,1.38-.42.82.07,1.6-.1,2.4-.14.67-.18,1.39-.2,2.09-.03.82,0,1.63.35,2.39.18.41.11.91.05,1.38-.07.53-.16,2.27-.28,2.54-.35.75-.31,1.58-.24,2.41l.14,1.54-1.96.23c-.37.04-.75.1-1.11.12-.58.05-1.14.25-1.72.28-.45.02-.91-.17-1.37-.19-.31-.01-.68.35-.94.05-.33-.39-.62-.42-1.14-.26-.63.19-1.2.56-1.99.38-.53-.12-1.09.13-1.7-.03-.65-.16-1.42-.2-2.09-.1-.85.13-1.61-.35-2.39-.16-.75.18-1.38-.06-2.06-.16-1.29-.18-2.57-.18-3.82.25-1.24.42-2.54.45-3.8.1-.55-.15-1.09-.22-1.65-.24l-1.9-.07.04-1.76c0-.37,0-.75-.04-1.14-.09-1.29-.25-2.59.13-3.85.11-.37-.02-.68-.07-1.02-.26-1.75-.42-3.48.04-5.23.14-.53.07-1.17.01-1.75-.06-.58-.21-1.14-.32-1.71.39-1.23.04-2.59.43-3.81.08-.25.08-.43,0-.66-.12-.31-.27-.66-.26-.98.03-1.64-.41-3.29.02-4.92-.11-.68-.25-1.36-.32-2.04-.11-1.17-.08-2.37-.27-3.52-.12-.7-.13-1.34-.11-2.05.05-1.88-.04-3.77-.07-5.66l-.1-5.66c0-.58.08-1.17.16-1.74.07-.47.12-.96-.04-1.39-.33-.89-.36-1.82-.4-2.77l-.37-8.13c-.05-.94.22-1.82.11-2.79-.09-.77-.14-1.63.14-2.4l-.15-6.72-.02-2.12c0-.37.14-.69.37-.9.23-.34-.22-.51.96-.73.14-.08.94.25,1.03.38.62.9.29,1.63.6,2.73.21.76.13,1.74.21,2.56Z"/>
  <g>
    <path class="cls-2" d="M147.06,268.23l1.24-19.67h25.78s-.78,6.11,9.36,6.84c7.54,1.6,9.89,8.52,9.06,11.14-.83,2.62-24.05,2.17-24.05,2.17l-21.79-1.51"/>
    <path class="cls-2" d="M146.25,264.33c.07-.64-.24-1.24.1-1.84.15-.27-.23-.61.07-.89.19-.17.1-.4.27-.58.22-.24.18-.44.04-.75-.05-.18-.12-.3-.12-.68,0-.3.09-.45-.07-.78-.14-.29.24-.72.13-1.02-.22-.62.17-1.03-.3-1.71-.25-.59-.06-1.15-.07-1.64.04-.63.1-1.27.18-1.9.02-.15.13-.29.22-.43.2-.29.17-.59.05-.91-.23-.6.34-2.29.22-2.56,0-.02-.02-.04-.02-.16v-.72s1.36-.55,1.36-.55c.45-.18,2.92-.32,3.13-.26.15.04.28.15.4,0,.24.16.59-.12.79.1.49.1.67.16,1.25.12.55-.04,1.14.82,1.66.53,1.1,0,1.79-.05,1.94-.15.28-.17.41.14.69-.03.39-.24,1.15.34,1.24.11.1-.25.34-.16.49-.36.32-.43.74-.35,1.14-.1.21.13.44-.31.62-.13.32.32.68.47,1.09.45l2.61-.12c.55-.02,1.12-.06,1.63.23.83-.06,1.24,0,1.58-.09.41-.27.82.08,1.19-.29.51-.51.4-.42,1.16-.4.14.15.57.33.7.12.4.14.76.05.8.07.63.4.5-.21,1.16.26.22-.03.38,0,.5-.07l1.36,1.54s.11.05.25.08c.18.04.21.12.09.24-.1.11-.05.2.08.28.26.16.27.37.3.61.03.23.09.48.38.55.05.27.42.32.57.51.27.33.62.55.81,1.11.06.15.34.17.53.13.31-.07.36.38.67.3.35-.1.38.31.54.54.12.19.26.37.52.27.36-.13.7.03,1.05.06.36.02.64.49,1.01.29.46-.24.89.17,1.33-.04l.24.03s.09-.02.14-.04c.4-.17.58.2.95.2.21.59.61.85,1.17.94.6.07,1.23.12,1.69.61.15.15.5.13.76.21.26.08.53.16.75.31.44.36.51.99.99,1.29.44.29.69.59,1.1.92.3.22.53.87.72,1.17.24.32.57.54.83.82.27.26.47.57.37,1.02.16.33.19.72.54.93.46.26.62.7.51,1.22-.02.09-.05.22-.01.28.15.25.29.52.36.8.06.29.04.61-.11.92.07.53.03,1.08-.27,1.67-.03.05-.18.46-.36.77-.21.37-.32.48-.48.68-.08.09-.16.18-.25.26-.08.08-.13.11-.21.16-.14.09-.3.17-.48.2-.49.02-.81.23-1.11.47-.33.27-.66.3-1.04.29-.26-.02-.55-.06-.76.05-1.17.64-2.38.82-3.63.49-.47-.12-.88.03-1.36.1-.37.23-.63.1-.85-.21-.11-.16-.22-.04-.34.17-.62.44-1.18-.22-1.49-.06-.44.22-.9.34-1.39.08-.2-.11-.52-.17-.68-.06-.39.25-.73.22-1.13.08-.55-.19-1.1-.18-1.61.22-.42.33-.91.29-1.39.3-.62,0-1.24-.39-1.87-.03-.06.04-.17.02-.24-.02-.86-.41-1.69-.46-2.54.06-.19.11-.5.1-.7,0-.73-.33-1.32-.43-2.15-.03-.13.07-.34.07-.46,0-1.05-.61-2.18-.45-3.27-.48-.88-.03-1.75-.08-2.6-.3-.23-.06-.45-.13-.69-.04-.64.23-1.25.15-1.85-.18-.38-.2-.78-.23-1.16-.07-.64.27-1.24.19-1.84-.14-.28-.16-.6-.27-.91-.28-.79-.02-1.56-.35-2.35-.21-.8.14-1.56-.24-2.35-.17-.47.04-.93.35-1.4.12-.46-.22-.92-.13-1.39-.1-.42.03-.74-.31-1.06-.55-.36-.27-.37-1.66-.04-2.02.02-.02.21-.22.25-.17.16-.1,1.05-.43,1.77-.36.39.04.79.02,1.15.25.3.19.59.2.9.03.38-.21.79-.25,1.16-.1,1.21.5,2.49.49,3.74.64.39.05.78.11,1.17.18.15.03.31.16.44.13,1.58-.35,3.16.01,4.74-.08.47-.03.78,0,1.24-.14.77-.24,1.38.03,2.44.16.27.19.59.28.87.45.23.13.45.17.68.09.27-.08.55-.13.82-.17l.21-.02s.05,0,.07-.01h.1s.41-.05.41-.05c.55-.04,1.1-.06,1.65-.15,1.3.22,3.09.11,3.25,0,.39.01.78.09,1.17.16.31.06.61.17.92.23.4.08.79,0,1.12-.3.35-.3.72-.36,1.11-.16.69.35,1.37.36,2.04-.04.67-.4,1.34-.39,2.05-.11.62.24,1.23.2,1.8-.22.42-.31.88-.27,1.35-.11.22.07.5.23.67.13.37-.22,1.22-.16,1.3-.3.07-.14.29-.12.41-.12.37,0,.69-.02,1.04-.09.35-.08.65-.37.95-.51.26-.1.51-.24.75-.13.23.12.44.02.45-.07.07-.06-.03-.07-.08-.04-.01,0-.02.02-.03.03-.04.03-.09.08-.12.14-.07.08-.12.29-.1.31.15-.13.23-.43.21-.78,0-.2-.03-.4-.13-.6-.08-.19-.23-.37-.46-.52-.23-.15-.25-.41-.3-.66-.01-.29-.39-1.15-.38-1.33.13-.79-.6-1.21-1.09-1.62-.23-.23-.63-.27-.86-.48-.18-.17-.27-.44-.45-.63-.13-.12-.49.04-.44-.27.07-.41-.06-.54-.4-.56-.39-.05-.86.18-1.16-.19-.21-.25-.61-.1-.86-.37-.27-.31-.71-.42-1.1-.44-.11,0-.21-.03-.31-.08l.28.04c-.46-.11-.86-.42-1.32-.32-.57.14-1-.21-1.47-.4-.45-.18-.9-.32-1.37-.44-.47-.11-.96-.13-1.5-.15-.54,0-1.07-.1-1.55-.38-.49-.24-.91-.65-1.23-1.13-.46-.7-.96-1.29-1.49-1.97-.7-.91-1.24-2.12-.95-3.3.09-.36-.05-.57-.05-1.05h0c-.37-.44,3.26,3.7,1.72,1.95h0s0,0,0,0h-.01s-.03,0-.03,0h-.06s-.11.03-.11.03l-.22.04-.44.06c-.29.04-.59.06-.88.06-.59,0-1.17-.1-1.75-.34-.35-.15-.78-.09-1.17-.04-.39.04-.77.19-1.16.29-.82-.41-1.74-.09-2.56-.5-.17-.08-.29-.09-.45,0-.21.11-.45.26-.66.25-1.1-.06-2.22.35-3.31-.11-.46.1-.92.23-1.38.28-.79.09-1.6.04-2.37.2-.47.1-.9.1-1.38.07-1.26-.08-2.54-.03-3.8-.03-1.27,0-2.54.02-3.8,0h-.24s1.97-1.86,1.97-1.86c-.05.31-.14.62-.24.92-.1.31-.18.64-.04.93.28.62.25,1.25.23,1.88-.06,1.82-.11,3.65-.13,5.47,0,.63-.33,1.2-.27,1.86.05.52.04,1.1-.28,1.6l-.26,4.51c-.03.47-.06.95-.1,1.42-.02.25-.18.45-.42.58-.25.21.19.36-1,.42-.14.04-.92-.24-1-.33-.57-.65-.19-1.11-.43-1.88-.17-.52-.03-1.18-.06-1.73Z"/>
  </g>
  <path class="cls-2" d="M58.44,96.49c-.76-.98-1.75-1.64-2.27-2.75-.24-.5-.93-.72-1.08-1.35-.09-.39-.43-.66-.55-1.05-.16-.51-.44-.78-.93-1.13-.27-.24-.46-.35-.95-.91-.38-.44-.5-.72-1.04-1.09-.47-.32-.74-1.22-1.2-1.59-.93-.75-1.18-1.63-2.37-2.31-.92-.69-1.49-1.65-2.12-2.37-.77-.96-1.52-1.94-2.25-2.92-.17-.23-.28-.53-.38-.79-.23-.58-.61-.99-1.1-1.37-.92-.72-2.62-3.64-3.04-3.95-.59-.42-3.94-4.47-4.16-4.87-.14-.26-.22-.53-.47-.61-.16-.47-.8-.83-.86-1.27-.5-.81-.66-1.12-1.38-1.99-.68-.83-.7-2.25-1.54-2.87-1.29-1.7-2.14-2.72-2.4-2.91-.47-.33-.37-.71-.84-1.04-.64-.45-1.06-1.98-1.36-1.99-.32-.01-.53-.44-.86-.55-.34-.11-.62-.33-.85-.62-.06-.07-.11-.15-.16-.23l-.07-.12s-.01-.04-.02-.06c-.01-.07-.02-.16-.03-.26v-.05c-.03-.13-.15-.17-.26-.05-.07.06-.12.09-.15.03-.03-.05-.07-.11-.12-.15-.03-.02-.04-.04-.1-.07l-.23-.06c-.15-.03-.31-.06-.47-.09-.33-.08-.68-.1-1.04-.17-1.89-.26-3.62-1.02-5.13-2.01-.46-.33-.95-.66-1.37-1.03-.41-.39-.78-.8-1.07-1.25-.61-.58-1.04-1.03-1.39-1.38-.33-.38-.57-.66-.83-.88-.77-.45-.96-1.33-1.69-1.69-.5-.25-.71-.35-.89-.54-.14-.12-.36-.45-.78-1.04-.04-.32-.39-1.1-.7-1.19-.34-.72-.82-1.26-.84-1.34-.36-1.25-.73-.71-1.04-2.04-.41-.57-.54-.93-1.01-1.02-.24-.04-.42-.28-.49-.63-.07-.33-.24-.53-.49-.74-1.03-.86-1.2-2.54-2.12-3.54-.25-.75-.8-1.39-1.08-2.16-.44-1.25-.9-2.58-.67-4.03.04-.19,0-.47-.04-.76-.03-.31-.08-.64-.13-.89-.09-.92.48-1.64.88-2.54.21-.56.64-.88.99-1.08.37-.13.8-.31,1.21-.34.33-.05.64-.11.95-.18.33.06.67.07,1.08.05.95-.09,1.78.3,2.59.61.84.32,1.36,1.06,2.11,1.26,1.08.3,1.72,1.36,2.73,1.67.67.21.81.75,1.35,1.12.12.84.67,1.5,1.44,2.15.41.34.83.66,1.23,1.03.2.19.38.39.56.62l.14.19.08.12.08.12.05.09.03.05v.02s.06.08.1.21c.04.13.08.31.08.54.03.48-.38,1.14-.77,1.33-.36.21-.65.22-.7.23-.21.02-.47-.01-.7-.1-.11-.04-.22-.1-.32-.16-.08-.05-.21-.16-.18-.14l-.02-.02-.09-.09-.03-.04-.05-.07-.08-.11c-.04-.06-.1-.16-.09-.17,0-.03-.04-.07-.06-.07-.1-.08-.22-.15-.34-.22-.23-.16-.49-.32-.69-.5-.39-.37-.79-.77-1.06-1.22-.58-.97-.49-1.98-.94-2.93-.41-.91-.5-1.63-.77-2.58-.19-.64-.06-1.88-.07-2.54-.02-1.47-.52-2.86.39-4.17.2-.7.59-1.36.75-2.12.11-.49.33-.95.8-1.42.49-.45,1.13-.78,1.83-.84.26-.03.56.03.74-.02.56-.16,1.13-.29,1.72-.22.29.03.59.04.87.14.28.1.55.23.81.39.95.23,1.77.7,2.44,1.34.62.61,1.56.81,2.04,1.62.34.64.81,1.06,1.31,1.48.51.42.87.99,1.13,1.59.19.43.38.93.65,1.23.2.24.41.47.61.7l.14.16s.06.05.09.08l.04.04.02.02s.04-.03-.03.03l-.18.15c-.12.1-.13.07-.2.12-.46.23-.83.62-1.03,1.11l-1.96,1.57c-1.21-1.4-2.03-3.11-2.34-4.95-.15-.96-.52-1.79-.72-2.81-.37-.78-.23-1.38.04-1.81.16-.23.04-.47-.16-.76-.12-.35-.12-.71-.09-1.04.02-.33.1-.64.21-.92.18-.56.45-1.01.49-1.4.16-1.09.61-2.31,1.9-3.09.3-.16.65-.39.99-.6.39-.06.76-.14,1.02-.25.98-.39,1.84-.35,2.81-.02,1.28.46,2.4,1.03,3.62,1.44,1,.34,1.81,1.19,2.48,2.02.88,1.09,1.24,2.39,2.17,3.37.1.1.18.3.21.45.11.41.21.81.33,1.21.13.42.21.67.47,1.34.48,1.22.91,2.44,1.52,3.85-.17.1-.35.2-.53.3-.54.32-1.71.72-2.46.92-.31.08-.62.17-.93.25-.16.03-.32.07-.48.1-.32.08-.62.18-.92.3-.59.24-1.14.58-1.63,1.05-.18.17-.5.35-.74.4-.97.2-1.9.63-2.53,1.13-.13.1-.17.16-.18.27,0,.05.03.1.04.14v.03s.05.18.05.18l.07.41c.28,1.76.5,3.62-.02,5.66-.15.56-.35,1.06-.52,1.71-.22.84-.84,1.78-1.78,2.33-.94.57-1.98.64-2.79.49-1.04-.18-1.92-.4-2.77-.49-.36-.04-.72-.09-1.03-.2l-.45-.15s-.03,0-.04,0c-.07-.04-.12-.16-.31-.43-.17-.24-.44-.51-.59-.59-.04-.04-.13-.06-.13.02-.01.05-.01.1-.02.15,0,.1,0,.19,0,.31,0,.22.04.53.17.8l.04.1s.03.19.04.28c.03.22.04.43.05.66,0,.45-.02.91-.11,1.39-.09.48-.23.99-.48,1.51-.26.55-.65,1.06-1.12,1.48-.54.48-1.28.86-1.91,1.01-.64.17-1.26.18-1.82.02-1.1-.33-2.03-.5-2.99-.78-.85-.25-1.36-.83-1.89-1.32-.58-.55-.14-1.88.55-1.97.04,0,.43-.05.49.03.3.02,1.95.35,3.14.68.66.19,1.29.25,1.81.42.45.14.81.02.9-.31.05-.2.08-.35.11-.51.05-.18.13-.4.22-.66.17-.42.23-.96.24-1.51,0-.1-.02-.38-.03-.6l-.08-.68-.21-1.34c-.15-.9-.1-1.59,0-2.13.06-.27.08-.52.25-.78.04-.07.14-.13.21-.13l.19.04.38.09c.52.05,1.58.62,2.48,1.11.38.22.76.57,1.08.69.12.05.24.09.36.13l.2.06.13.04.51.15c.34.07.68.18,1.01.24.66.15,1.3.19,1.82.12.52-.09.87-.27,1.14-.67.27-.39.45-.98.49-1.62.05-.77.07-1.32-.14-2.12-.18-.66-.26-1.27-.33-1.98-.04-.43-.09-.89-.14-1.39-.1-.69.07-1.46.61-2.11.33-.29.72-.59,1.09-.81.31-.17.61-.32.9-.43.47-.17.87-.38,1.24-.69.85-.71,1.81-1.26,2.79-1.75l1.48-.71.37-.17.19-.09.07-.04c.08-.05.16-.1.22-.15.14-.02.3-.06.47-.1.06-.14-.06-.39-.12-.59-.03-.09-.08-.21-.14-.34-.08-.19-.19-.44-.29-.64-.4-.82-.75-1.38-.86-1.46-.32-.63-.62-1.27-.95-1.88-.27-.48-.5-.98-.82-1.42-.41-.58-.99-.98-1.6-1.08-.63-.11-1.11-.29-1.57-.67-.41-.33-.92-.54-1.45-.52-.25-.02-.56.06-.75.12-.15.08-.28.16-.31.33l-.06.21c-.03.09-.08.19-.13.27-.1.18-.17.39-.29.57-.18.42-.44.85-.68,1.38-.44.92-.41,2.07.11,3.03.4.71.48,1.49.56,2.32.02.39.03.91.22,1.16.2.3.47.78.68,1.23.24.42.45.79.54.83.19.07.38.41.49.6.06.11.13.22.18.31l-2.16,2.51c-.22-.14-.42-.31-.6-.5-.11-.11-.13-.16-.16-.19l-.09-.13c-.12-.17-.23-.35-.3-.47-.15-.26-.31-.51-.47-.78-.39-.64-.95-1.1-1.39-1.64-.34-.44-.78-.93-.9-1.36-.3-1.01-1.3-1.26-1.84-1.88-.5-.48-1.13-.91-1.77-1.04l-.28-.09-.29-.02c-.19,0-.38-.03-.56,0-.17.05-.4.11-.51.17-.1.05-.09.15-.08.23,0,.05.02.1.03.15-.05.05-.16.16-.27.28-.12.14-.36.57-.53,1.09-.17.51-.3,1.05-.37,1.19-.64,1.16-.28,2.71.04,3.99.16.65.51,1.22.72,1.8.16.46.18.98.37,1.44.14.31.64.44.52.82-.14.48.02.79.5,1.04.07.04.14.08.21.1l.11.04.05.02h.03s.08.07.08.07c.16.1.32.22.44.34l.11.07s.03.02.04.02h.02s.04-.03-.04.03l-.24.22-.48.45-.38.36c-.11.1-.21.22-.31.33-.04.01-.08.04-.08.08,0,.03,0,.03-.01.01-.02-.01-.04.02-.05.03-.1.06-.23.12-.33.19-.08.06-.27.18-.43.29l-.48.33-.52.37h0s-.05-.03-.08-.06c-.06-.05-.13-.12-.2-.19-.14-.15-.27-.32-.39-.53-.33-.56-.98-.9-1.39-1.53-.45-.68-1.11-1.37-1.79-1.82-.86-.57-1.29-1.51-2.18-1.86-.83-.33-1.32-.88-1.99-1.27-.31-.18-.63-.33-.95-.44-.31-.11-.71-.19-.75-.17-.12-.02-.24.11-.29.2-.09.11-.16.29-.13.44.06.29.08.61.1,1.15.03.54.08,1.21.09,1.94.04,1.07.42,2.13.96,3.17.72,1.41,1.62,2.78,2.09,4.35.13.46.45.74.72,1.08,1.38,1.77,2.72,3.52,3.63,5.59.32.66.82,1.26,1.3,1.83.46.59,1.05.99,1.57,1.47.32.71.88,1.26,1.42,1.85.57.53,1.12,1.08,1.6,1.65.19.24.36.4.64.46.38.09.79.2,1.12.38.68.37,1.41.64,2.12.77.36.09.71.11,1.06.16.17,0,.33.04.52.04h.28s.15.02.15.02h.28s1.15.31,1.15.31c.12.02.24.09.37.18l.7.27c.89,1.05,1.24,1.35,1.73,1.94.99,1.17,1.88,2.45,2.92,3.53.64.67,1.14,1.33,1.67,2.08,1.41,2,2.96,3.91,4.45,5.85l4.51,5.81c.46.6.86,1.26,1.25,1.9.32.53.66,1.07,1.13,1.41.97.72,1.73,1.66,2.51,2.61,2.24,2.73,4.49,5.44,6.77,8.13.79.93,1.29,2,2.15,2.92.69.73,1.41,1.58,1.82,2.54l5.55,6.75,1.74,2.13c.3.38.46.78.45,1.14.1.48.58.38-.16,1.33-.04.16-.94.33-1.12.26-1.22-.52-1.56-1.47-2.7-2.4-.79-.64-1.52-1.69-2.25-2.48Z"/>
  <path class="cls-2" d="M31.5,32.09c.18-.04.23-.14.29-.2.07-.07.15-.11.59-.1.43,0-.31-.18.46-.16.5,0,.39-.06.88-.09.65-.04.67-.12.38-.24-.1-.08-.22-.11-.31-.32-.11-.14.01-.23-.61-.25-.52,0,.16-.28-.31-.27-.44.02-.49-.02-.63-.05-.13-.03-.36-.03-.9.14-.64.19-.55.05-.77.06-.19-.02-.35-.06-.54-.12-.07-.02-.03-.11-.17-.22-.27-.22-.56-.21-.89-.12-.16.04-.38.02-.64-.03-.35-.08-.76-.22-1.12-.38-.73-.32-1.16-.84-1.33-.93-.13-.07-.47-.38-.62-.86-.17-.44-.06-1.13-.03-1.72-.12-1.02.21-1.6.25-1.73.1-.17.26-.28.17-.47.28-.19.23-.71.54-.82.43-.41.56-.58,1-1.07.2-.25.57-.33.92-.38.34-.07.64-.13.78-.39.92-.65,1.53-.97,1.63-1.13.18-.28.43-.06.62-.32.27-.38,1.18-.11,1.19-.35.01-.27.27-.26.34-.51.17-.5.61-.56,1.06-.43.23.07.34-.41.56-.28.39.22.76.3,1.15.19.17-.06.5-.1.78-.16l.43-.08.22-.04.11-.02c.02.1.07.04.1.07.14.03.28.06.42.1l.4.2c.13.07.26.15.4.23l.29.18c.45.28.93.55,1.16,1.08.68.41.95.69,1.28.8.48.01.58.53,1.09.45.7-.11.56-.11,1.14.37,0,.06.02.11.06.19.06.09.12.18.19.26.13.18.28.32.42.34.18.26.25.54.35.72.09.2.13.24.14.27-.09.75.41.38.26,1.17.2.3.17.52.56.56.2.02.27.16.21.37-.06.2.03.31.19.42.31.25.41.61.44.98.02.38.04.76.3,1.05-.01.42.33.78.33,1.21,0,.68.17,1.37-.27,1.99-.11.16,0,.5.13.71.21.36-.23.62-.09.97.18.41-.22.59-.45.81-.18.18-.33.36-.23.65.15.42-.07.81-.13,1.21-.08.42-.59.66-.5,1.09.13.62-.55.94-.38,1.57.1.42-.3.47-.37.81-.62.04-.92.37-1.09.85-.09.26-.15.54-.27.79-.1.23-.31.56-.43.5-.11.02.04.2.08.25.03.06.1.11.07.14,0,0-.03.02-.05.02-.13.04-.42.19-.22.29.1.04.14.08.19.13l.08.07c.07.07.14.14.23.21.23.18.37.75.55.98.41.52,1.24.57,1.19,1.36.18.23.27.55.64.59.46.05.7.3.74.73,0,.08.01.19.06.21.42.21.82.43.83.97.28.24.49.52.61.89.11.36.71.33.78.75.05.34.29.5.59.62.3.12.46.37.56.66.07.21.15.46.33.56,1.01.59,1.72,1.4,2.07,2.53.13.42.47.65.77.98.38.15.41.42.27.76-.07.18.08.19.31.16.69.21.46,1.02.76,1.16.42.2.77.47.83.99.03.21.15.49.33.55.42.13.58.4.7.79.16.52.48.92,1.09,1.05.49.1.76.48,1.03.83.36.45.42,1.15,1.07,1.37.06.02.11.11.13.18.19.88.65,1.51,1.56,1.79.2.06.37.29.42.5.17.71.5,1.26,1.24,1.49.14.04.27.18.3.31.24,1.12,1.09,1.77,1.79,2.53.56.61,1.09,1.22,1.49,1.95.11.2.2.39.42.49.59.27.93.74,1.09,1.36.1.39.34.68.71.82.62.25.96.69,1.11,1.33.07.29.2.59.4.8.51.54.78,1.28,1.4,1.71.63.44.86,1.21,1.44,1.68.34.28.87.37,1.02.84.15.46.51.7.85.98.3.25.27.7.32,1.09.05.42-.92,1.42-1.4,1.45-.03,0-.3.02-.29-.05-.18-.03-1.02-.39-1.45-.92-.24-.29-.52-.54-.6-.94-.07-.33-.25-.53-.58-.62-.4-.1-.71-.35-.85-.71-.45-1.16-1.31-2-2.04-2.95-.23-.29-.44-.6-.64-.91-.08-.12-.09-.32-.2-.39-1.3-.82-2.09-2.13-3.2-3.13-.33-.3-.51-.53-.92-.74-.68-.36-.89-.95-1.49-1.76-.04-.31-.18-.59-.24-.89-.05-.24-.17-.42-.38-.53-.96-.51-1.57-1.39-2.37-2.06-.62-1.08-1.78-2.32-1.97-2.37-.22-.29-.4-.63-.57-.96-.14-.27-.23-.56-.36-.83-.18-.35-.47-.58-.89-.65-.44-.07-.7-.32-.77-.73-.12-.73-.5-1.25-1.2-1.52-.7-.27-1.08-.79-1.25-1.51-.15-.62-.52-1.07-1.18-1.28-.48-.15-.7-.55-.82-1.02-.06-.22-.08-.54-.24-.61-.38-.18-.77-.92-.93-.9-.15.01-.25-.18-.32-.29-.19-.31-.36-.58-.59-.85-.24-.28-.64-.41-.91-.66-.22-.2-.48-.45-.48-.73,0-.66-.71-.73-.91-1.22-.17-.41-.44-.79-.7-1.14-.31-.42-.67-.79-1.25-.95-.31-.08-.46-.37-.61-.64-.16-.3-.81-1.2-.82-1.41-.04-.85-.79-1.28-1.31-1.82-.07-.07-.13-.11-.22-.19l-.38-.35c-.26-.24-.52-.49-.75-.77-.36-.44-.49-.92-.78-1.35-.08-.13-.29-.27-.44-.4.07-.17.19-.35.52-.45.75-.23.99-.42,1.24-.92.13-.3.23-.64.4-.98l.07-.13.02-.07s.03-.09.05-.13c.04-.09.11-.16.21-.22.27-.17.22-.57.53-.77.34-.22.56-.59.65-.96.08-.48.7-.66.69-1.15-.04-.46.32-.69.52-1.04.17-.32.31-.67.37-1.02.03-.36-.03-.73-.19-1.09-.14-.36-.27-.7-.26-1.04,0-.34.11-.67.24-1.02.19-.51.25-1.02.06-1.53-.1-.34-.22-.68-.28-1.03-.09-.35-.15-.7-.06-1.1.05-.24-.13-.37-.23-.53-.29-.42-.6-.82-.8-1.27-.08-.17-.05-.2-.06-.28-.01-.05.02-.06-.03-.16-.07-.11-.14-.23-.21-.36-.16-.31-.52-.51-.83-.68-.32-.18-.69-.27-1.03-.4-.38-.78-1.26-1.01-1.64-1.76-.08-.15-.17-.22-.33-.23h-.17s-.09.03-.09.03c-.06.02-.1.03-.13,0-.14-.17-.34.02-.53.08-.47.14-.95.24-1.47.15-.37.19-.71.45-1.08.61-.61.3-1.28.5-1.76.93-.31.25-.59.42-.92.58-.88.44-1.5,1.1-1.84,1.74-.12.19-.18.39-.25.59-.06.17-.09.48-.11.55.01.08-.03.15-.02.23.02.06-.01.16.01.27.01.09.1.18.21.05.03-.03.04-.06.08-.09.04-.02.12-.03.18-.04.12-.02.26-.03.39-.03.27,0,.53.03.83.06,1.59.17,3.35.31,4.78.66,1.44.35,2.4.88,3.04,1.49l.08.08c.33.44.32.89.54,1.54.13.71.06,1.07-.5,1.39-.29.47-.69.97-1.58,1.47-.88.5-2.22.92-3.49,1.33l-1.21.4c-.19.07-.41.14-.58.21l-.23.09c-.15.06-.29-.02-.44-.2-.04-.05-.05-.04-.08-.06.02,0,.02-.02,0-.05-.02-.08-.19-.16-.65-.52-.13-.05-.63-.73-.57-.88.2-.93,1.05-.86,1.22-1.23.14-.26.54-.29.75-.42Z"/>
</svg>