<?xml version="1.0" encoding="UTF-8"?>
<svg id="illuer_hvid_bg" xmlns="http://www.w3.org/2000/svg" viewBox="0 0 165.23 271.03">
  <defs>
    <style>
      .cls-1 {
        fill: #ff9400;
      }

      .cls-2 {
        fill: #0354f0;
      }
    </style>
  </defs>
  <path class="cls-2" d="M138.58,112.53c-.08.76.22,1.49-.12,2.2-.15.33.23.73-.08,1.07-.19.21-.1.48-.27.71-.22.3-.18.54-.04.91.05.22.12.36.13.81,0,.36-.09.54.08.93.15.34-.23.87-.11,1.23.23.73-.15,1.24.34,2.04.27.7.1,1.37.13,1.96-.02.76-.05,1.52-.1,2.28-.01.18-.11.36-.2.53-.19.37-.14.71,0,1.09.26.7-.2,2.77-.05,3.08.19.43.41,3.67.36,3.94-.04.18-.14.34.01.47-.16.29.15.7-.06.95-.08.59-.13.8-.06,1.5.06.66-.75,1.41-.43,2.01.07,1.32.17,2.14.28,2.33.19.33-.11.5.09.83.26.45-.26,1.4-.02,1.5.25.11.18.4.4.57.46.35.4.87.19,1.37-.11.26.34.5.18.73-.3.41-.41.85-.36,1.34l.35,3.13c.07.66.17,1.34-.08,1.98.14,1,.11,1.49.24,1.89.31.47,0,.99.4,1.41.56.57.46.44.52,1.36-.14.18-.27.71-.05.85-.1.49.03.92,0,.96-.33.79.26.59-.14,1.41.08.42.01.66.39.82.19.08.23.26.13.47-.1.2-.03.35.09.53.53.71-.04,1.7.44,2.44-.05.47.25.91.27,1.38.03.76.16,1.51-.15,2.26-.08.2.08.57.23.78.26.37-.13.74.1,1.09.27.41-.07.7-.23,1.02-.12.26-.23.5-.03.79.28.41.22.91.31,1.37.09.48-.25.97.02,1.38.37.54,0,1.31.44,1.85.3.37,0,.66.12,1.05-.51.43-.57.96-.43,1.57.15.64.44,1.26.21,1.98-.07.22.15.55.22.83.07.28.15.58.14.87-.02.6-.52,1.09-.44,1.71.08.58-.05,1.01,0,1.6.04.4-.33,1.11-.38,1.51-.1.46-.03.92-.05,1.36-.06.45-.14.88-.58,1.22-.2.42-.55.88-.46,1.23.09.5-.06.87-.46,1.15-.07.05-.18.12-.18.19-.04.54-.07,1.04-.55,1.39-.07.42-.22.78-.46,1.12-.25.35.16.81-.12,1.13-.1.13-.14.27-.14.41.02.13.08.26.15.38.06.13.11.23.13.33.02.1-.03.22-.04.31-.04.14-.09.33.03.38.32.17.49.18.77.32.1.08.3.16.47.28.18.13.29.17.46.35.11.06.22.06.34.06.11-.05.2-.13.32-.15.1-.33.28-.17.58-.04.16.08.17-.06.12-.27.06-.28.25-.45.48-.51.22-.1.45-.2.48-.36.05-.22.1-.47.21-.67.11-.2.26-.38.5-.55.19-.13.42-.39.39-.61-.05-.49.13-.79.42-1.16.4-.48.59-1.09.37-1.75-.18-.53,0-1.05.11-1.57.14-.61.57-1.16.47-1.82l4.09.85c.01.06.02.12.04.18.02.07-.03.18-.08.25-.62.83-.86,1.79-.48,2.81.08.22.03.56-.09.77-.42.73-.57,1.5-.16,2.25.08.14.1.35.03.49-.52,1.13-.11,2.34.29,3,.15.28.31.43.43.55.13.11.25.22.48.35.12.05.27.13.37.01.25-.3.31-.29.83-.37.32-.05.54-.35.55-.74.01-.64.26-1.13.75-1.66.23-.24.42-.57.49-.9.19-.85.63-1.69.57-2.61-.06-.93.37-1.78.32-2.72-.03-.55-.33-1.08-.11-1.63.22-.54.12-1.08.07-1.63-.05-.49.28-.88.51-1.29.25-.44,1.64-.57,2.01-.19.02.02.23.24.18.29.11.18.49,1.26.43,2.15-.03.49-.01.98-.24,1.43-.19.37-.21.72-.05,1.11.2.46.22.99.04,1.44-.59,1.49-.73,3.06-1.22,4.6-.15.48-.34.95-.57,1.41-.08.18-.28.33-.31.5-.19,1.02-.71,2.05-1.65,2.87-.95.85-2.46,1.19-3.69.97-.78-.11-1.28-.36-2.02-.73-.62-.32-1.03-.83-1.3-1.4-.29-.57-.45-1.21-.59-1.96.07-.42.07-.87.17-1.27.07-.32.08-.6-.03-.9-.48-1.38-.29-2.83-.3-4.22.4-1.62.8-3.81.76-4.06l.04-.12.05-.15c.25-.83,1.12-1.3,1.95-1.05.79.24,1.26,1.05,1.08,1.84-.1.45-.24.89-.4,1.32-.14.37-.32.72-.48,1.08-.19.48-.24.96-.09,1.45.17.51.05,1-.3,1.41-.65.71-.97,1.48-1.05,2.47-.04.99-.65,1.83-1.51,2.43-.83.49-1.38,1.11-2.16,1.9-.55.61-1.54.77-2.36.55-.41-.05-.8-.37-1.1-.32-.37.05-.82-.13-1.23-.28-.41-.15-.75-.41-.85-.38-.2.04-.51-.22-.67-.4-.5-.47-.86-1-1.18-1.59-.15-.31-.37-.6-.5-.9-.15-.3-.31-.63-.36-.94-.12-.52-.15-1.13.04-1.49.47-.78.11-1.58.47-2.28.29-.57.53-1.17.77-1.74.29-.67.53-1.33.52-2.07-.01-.41.25-.77.5-1.1.19-.25.29-.47.46-.71.14-.28.27-.59.36-.65.67-.59.52-1.6.52-2.46,0-.44-.16-.87-.16-1.31,0-.34.22-.68.25-1.03.02-.24-.34-.53-.03-.72.39-.24.42-.47.27-.89-.18-.49-.56-.93-.4-1.55.1-.42-.15-.85-.02-1.33.14-.52.14-1.13,0-1.65-.18-.66.25-1.28,0-1.89-.24-.62-.05-1.13,0-1.69.08-1.06-.02-2.09-.54-3.06-.52-.96-.63-2.01-.38-3.06.18-.77.14-1.5.02-2.27-.16-1.03-.38-2.08-.07-3.13.09-.31-.05-.55-.12-.82-.35-1.4-.59-2.79-.21-4.24.11-.44.01-.95-.07-1.42-.08-.47-.26-.91-.4-1.37.33-1.02-.08-2.1.26-3.12.07-.21.07-.35-.03-.54-.13-.25-.3-.52-.31-.78-.03-1.33-.54-2.65-.17-3.99-.13-.55-.3-1.09-.39-1.64-.15-.95-.16-1.92-.39-2.85-.14-.57-.17-1.09-.17-1.66,0-1.53-.13-3.07-.19-4.62-.05-1.55-.11-3.09-.1-4.63,0-.48.09-.96.18-1.43.08-.39.14-.78-.01-1.14-.31-.73-.33-1.5-.33-2.27l-.05-6.66c0-.77.32-1.48.25-2.27-.05-.63-.04-1.33.28-1.95.09-1.83.19-3.65.32-5.48.04-.58.09-1.15.15-1.73.03-.3.2-.55.44-.7.26-.25-.17-.44,1.02-.49.14-.05.91.3.99.42.54.78.15,1.34.37,2.25.15.63,0,1.41.02,2.08Z"/>
  <path class="cls-2" d="M156.8,201.56c.39-.07.55-.53,1-.42.22.04.15-.42.46-.27.19.08.25-.06.44-.01.24.05.31-.08.35-.32.05-.12.04-.22.2-.4.11-.15.23-.18.22-.45-.02-.24.46-.21.45-.46-.02-.46.44-.52.21-1.11-.11-.46.17-.71.26-1.01.18-.35.28-.76.45-1.13.04-.09.16-.15.27-.22.24-.14.25-.34.15-.58-.19-.44.53-1.47.4-1.68-.15-.25-.11-1.81-.05-2.07v.26c-.01-.15,0-.18,0-.2.04-.11.14-.21-.02-.28.15-.18-.15-.41.05-.57.08-.36.12-.49.05-.9-.07-.39.76-.88.44-1.22-.06-.79-.15-1.27-.26-1.38-.19-.19.12-.3-.07-.49-.26-.26.28-.85.04-.9-.25-.05-.18-.23-.39-.32-.45-.19-.38-.5-.16-.81.12-.16-.33-.29-.16-.43.3-.25.43-.52.39-.81l-.26-1.85c-.05-.39-.13-.79.14-1.18-.11-.59-.06-.89-.18-1.12-.29-.27.04-.59-.35-.83-.53-.32-.44-.25-.47-.79.15-.11.3-.43.08-.51.12-.3,0-.55.03-.58.36-.48-.24-.34.19-.85-.06-.25.01-.39-.36-.48-.19-.04-.22-.14-.11-.28.1-.12.05-.21-.07-.31-.49-.41.11-1.02-.34-1.44.07-.28-.21-.54-.21-.82,0-.45-.09-.9.25-1.35.09-.12-.05-.34-.19-.46-.24-.21.17-.45-.05-.65-.25-.24.1-.42.27-.62.14-.16.25-.31.07-.48-.26-.24-.18-.54-.24-.81-.07-.28.3-.59.05-.83-.34-.33.08-.77-.35-1.07-.28-.2.02-.39-.1-.61.51-.27.57-.59.42-.94-.16-.37-.47-.7-.27-1.13.06-.13-.18-.3-.27-.46-.08-.16-.19-.31-.2-.48-.03-.34.42-.67.26-1.01-.14-.32-.1-.56-.24-.88-.1-.21.09-.64.07-.86-.06-.5-.73-.86-.25-1.36-.02-.22.08-.47-.2-.64-.35-.22-.42-.47-.21-.77.04-.05.09-.13.06-.17-.24-.3-.44-.61-.16-.97-.1-.27-.12-.53-.01-.83.11-.28-.41-.5-.22-.8.15-.24.04-.44-.14-.64-.18-.2-.17-.42-.1-.66.05-.16.13-.36.04-.5-.51-.79-.64-1.61-.29-2.48.13-.33-.02-.61-.08-.95-.23-.25-.1-.44.21-.6.16-.08.04-.16-.17-.23-.44-.42.2-.84.04-1.06-.23-.3-.36-.62-.12-.98.1-.15.16-.38.04-.49-.26-.26-.25-.5-.13-.8.17-.4.14-.79-.29-1.12-.35-.27-.34-.62-.37-.96-.04-.44.32-.91-.08-1.32-.04-.04-.03-.12,0-.17.18-.32.26-.63.23-.93-.03-.37-.16-.63-.44-.95-.12-.13-.12-.36-.03-.51.31-.53.39-1.01-.05-1.51-.08-.09-.1-.24-.04-.34.52-.79.27-1.6.23-2.4-.03-.64-.04-1.27.13-1.9.05-.17.11-.33,0-.5-.27-.46-.21-.91.08-1.35.19-.28.19-.56.02-.84-.29-.47-.24-.9.07-1.34.14-.2.25-.44.25-.66,0-.57.3-1.13.16-1.7-.15-.59.22-1.13.15-1.71-.04-.34-.35-.7-.13-1.02.22-.32.14-.66.11-1.01-.03-.31.32-.52.57-.74.27-.24,1.66-.15,2.01.11.02.02.22.16.17.19.1.12.42.78.35,1.28-.04.28-.02.56-.25.8-.18.2-.2.41-.02.64.21.27.25.57.11.83-.49.84-.44,1.75-.55,2.64-.04.28-.09.55-.14.83-.02.11-.15.22-.11.31.41,1.12.13,2.25.31,3.37.05.33.04.55.22.88.29.53.06.97,0,1.73-.17.2-.23.43-.38.63-.12.17-.13.33-.04.49.42.75.35,1.55.57,2.31-.04.23-.06.48-.07.73,0,.11,0,.23,0,.34.01.12.02.24.04.35.06.45.15.79.21.85.01.28-.04.57-.09.85-.04.23-.14.45-.18.68-.06.3.05.56.36.78.32.23.39.49.21.79-.32.52-.31,1.01.12,1.47.42.46.43.95.16,1.48-.23.46-.18.9.24,1.3.31.29.27.64.1.98-.08.16-.24.37-.15.49.22.27.12.9.26.96.13.06.11.22.1.31-.02.28-.03.52.01.79.04.27.3.52.39.79.07.21.15.48,0,.67-.36.43.19.75.08,1.15-.09.34-.08.68-.05,1.02.03.4.13.78.52,1.1.21.18.18.42.15.65-.03.26,0,1.1-.09,1.24-.42.57-.03,1.14.11,1.69.07.27.31.52.36.8.04.21-.12.45-.12.67,0,.15.38.29.09.44-.37.19-.39.33-.2.57.22.28.61.53.47.92-.09.26.18.51.05.81-.13.33-.13.7-.01,1.01.16.4-.29.8-.07,1.16.21.35,0,.67-.08,1-.13.63-.08,1.25.39,1.81.47.56.54,1.18.24,1.82-.21.46-.21.9-.12,1.36.12.61.29,1.23-.06,1.86-.1.19.03.33.09.49.3.82.48,1.65.05,2.52-.13.26-.05.57.02.84s.23.53.36.8c-.36.62.01,1.25-.36,1.87-.07.13-.08.21.02.32.13.14.28.3.28.45,0,.79.47,1.55.07,2.37.12.32.28.64.35.96.13.56.12,1.14.33,1.68.13.33.15.64.15.98-.01.91.11,1.81.18,2.72l.07.84v.18s0,.14,0,.14c-.08.67-.15,1.33-.25,1.99-.04.3-.18.58-.34.86-.13.23-.24.46-.13.71.2.53.14,1.02-.02,1.51-.21.71-.36,1.43-.68,2.15-.15.36-.27.72-.45,1.08l-.58,1.07c-.28.5-.89.72-1.19,1.24-.29.39-.7.79-1.25.86-1.12.86-2.52,1.43-3.94,1.61-.45.05-.9.07-1.36.03-.24-.02-.44-.19-.54-.43-.18-.26-.39.15-.29-1.03,0-.14.36-.88.41-.96.46-.55.73-.18,1.2-.51.29-.21.69-.19.99-.34Z"/>
  <path class="cls-1" d="M91.22,182.56c-27.13,2.79-47.77-2.03-61.89-14.47-14.17-12.41-22.34-29.41-24.55-50.96-2.21-21.55,2.33-39.83,13.68-54.89,11.32-15.06,30.29-23.94,56.87-26.67,26.58-2.73,47.61,2.04,61.5,14.51,13.88,12.44,21.94,29.45,24.16,51,2.21,21.55-2.23,39.82-13.29,54.84-11.06,15-29.89,23.9-56.45,26.62"/>
  <path class="cls-2" d="M73.53,28.98c2.68-12.43,10.67-28.48,32.58-28.98-.69,8.76-5.35,29.3-29.48,35.89.4,1.2.7,2.31.92,3.28l.13.62.02.14c.21,1.41-.73,2.76-2.14,3.04-1.42.28-2.8-.6-3.15-1.98l-.03-.14-.11-.54c-1.27-5.68-5.67-15.95-16.44-19.74l-.54-.18-.13-.05c-1.33-.51-2.05-1.98-1.6-3.36.45-1.37,1.89-2.14,3.27-1.77l.13.04.66.22c7.81,2.75,12.8,8.17,15.89,13.5Z"/>
  <ellipse class="cls-2" cx="97.46" cy="111.5" rx="5.23" ry="3.92" transform="translate(-20.28 201.32) rotate(-86.19)"/>
  <ellipse class="cls-2" cx="128.39" cy="109.5" rx="5.23" ry="3.92" transform="translate(10.58 230.32) rotate(-86.19)"/>
  <path class="cls-2" d="M103.97,127.93c.67-.73,4.52-2.45,5.55-2.67,2.8-.6,8.59-.29,11.44.08,1.38.18,4.46,1.37,5.29,2.5,2.18,2.99-1.19,3.1-3.58,2.89-1.93-.17-2.84-1.11-4.44-1.45-.91-.2-5.64-.11-6.71.02-2.32.28-4.77,2.61-6.36,2.58-2.61-.05-2.68-2.33-1.19-3.95h0Z"/>
  <path class="cls-2" d="M99.67,96.89c-.09.99-2.12,4.69-2.81,5.48-1.87,2.17-6.66,5.42-9.16,6.85-1.21.69-4.38,1.6-5.73,1.21-3.55-1.06-.93-3.19,1.1-4.47,1.64-1.03,2.93-.84,4.42-1.53.84-.39,4.56-3.32,5.33-4.07,1.68-1.62,2.23-4.96,3.51-5.9,2.11-1.54,3.55.23,3.34,2.43h0Z"/>
  <path class="cls-2" d="M127.59,95.66c.03.99,1.84,4.8,2.48,5.64,1.74,2.28,6.33,5.81,8.74,7.38,1.17.76,4.28,1.86,5.64,1.54,3.6-.85,1.12-3.13-.83-4.52-1.58-1.12-2.88-1.01-4.32-1.79-.82-.44-4.35-3.59-5.08-4.38-1.58-1.72-1.93-5.08-3.16-6.1-2.02-1.66-3.55.02-3.47,2.23h0Z"/>
  <path class="cls-2" d="M49.77,178.77c-.04.91.29,1.76-.01,2.63-.14.4.26.85-.03,1.27-.18.26-.09.58-.24.85-.21.36-.16.65,0,1.08.05.26.14.42.15.96.01.43-.07.65.11,1.11.16.4-.2,1.04-.08,1.47.24.87-.12,1.48.38,2.42.27.83.11,1.64.15,2.34-.01.91-.04,1.81-.09,2.72-.01.21-.11.43-.2.63-.19.44-.15.85,0,1.3.26.84-.24,3.3-.1,3.68.19.52.3,4.39.22,4.72-.05.21-.16.4,0,.57-.17.34.11.85-.11,1.13-.11.7-.17.95-.14,1.78.03.79-.84,1.62-.56,2.36-.02,1.57.02,2.56.11,2.78.17.4-.15.58.02.99.23.55-.36,1.64-.13,1.78.25.15.15.49.35.71.42.46.33,1.06.08,1.64-.13.3.3.63.12.88-.33.45-.48.97-.47,1.55l.07,3.74c0,.79.04,1.6-.26,2.33.05,1.19-.03,1.77.07,2.26.27.59-.1,1.17.27,1.71.5.74.41.58.38,1.66-.16.2-.34.81-.14.99-.15.57-.06,1.09-.08,1.14-.41.89.2.72-.28,1.65.04.51-.05.78.31,1.02.18.12.21.33.08.57-.12.23-.07.41.04.63.45.9-.21,2.01.19,2.93-.1.55.15,1.11.13,1.66-.04.9,0,1.8-.39,2.65-.1.22.02.68.14.95.1.2.07.4.02.58l-1.95-1.97c.24.06.47.14.72.03.51-.24.82.13,1.18.32.29.15.57.28.94.11.52-.24,1.1-.14,1.65-.18.57-.04,1.12.34,1.64.11.72-.32,1.51.14,2.19-.27.45-.27.76.05,1.22-.05.46.54,1.08.63,1.79.51.76-.13,1.47-.4,2.29-.16.26.07.63-.15.96-.22.32-.07.66-.15.98-.15.68,0,1.26.48,1.96.36.65-.11,1.14-.04,1.79-.15.44-.08,1.25.16,1.71.15,1.01,0,1.84-.65,2.75-.12.44,0,.92.12,1.31-.14.23-.15.46-.24.7-.27l-2.08,1.97c-.02-.28.04-.57.18-.86.05-.1.12-.23.1-.31-.17-.66-.31-1.3.05-1.95-.05-.56,0-1.09.16-1.64.16-.53-.3-1.08-.05-1.64.19-.45.13-.86,0-1.3-.13-.44-.08-.88.04-1.32.09-.31.2-.68.15-.97-.34-1.69-.29-3.32.24-4.98.2-.62.11-1.22.12-1.89-.17-.55,0-.89.33-1.15.17-.13.07-.3-.12-.49-.35-.92.38-1.62.26-2.08-.16-.65-.23-1.31.09-1.97.13-.27.23-.71.14-.96-.21-.57-.14-1.05.04-1.61.25-.75.3-1.53-.05-2.29-.28-.61-.2-1.31-.16-1.99.06-.88.5-1.72.2-2.64-.03-.09,0-.24.04-.33.48-1.19.6-2.37.14-3.61-.1-.27-.06-.71.05-.99.38-.98.53-1.93.17-2.94-.07-.19-.07-.48,0-.66.62-1.5.48-3.11.52-4.67.04-1.25.1-2.49.33-3.71.06-.33.14-.64.05-.98-.22-.9-.13-1.79.2-2.65.21-.54.24-1.11.08-1.65-.26-.91-.18-1.76.16-2.63.16-.4.28-.87.29-1.3.03-1.13.37-2.24.24-3.36-.13-1.14.26-2.23.2-3.36-.04-.66-.34-1.32-.11-1.98.23-.67.15-1.31.11-1.98-.03-.59.32-1.06.57-1.54.27-.52,1.67-.6,2.02-.15.02.03.22.29.17.35.1.22.42,1.49.34,2.52-.04.57-.03,1.14-.26,1.66-.19.43-.21.85-.04,1.29.21.53.24,1.13.09,1.66-.52,1.75-.52,3.57-.68,5.37-.05.56-.12,1.12-.2,1.67-.03.22-.16.44-.14.64.34,2.25-.05,4.52.03,6.78.02.68-.01,1.11.13,1.78.23,1.09-.04,1.98-.19,3.49-.19.39-.28.84-.46,1.25-.14.32-.17.64-.1.98.32,1.55.13,3.15.23,4.73-.32,1.85-.36,4.43-.26,4.66-.05.56-.16,1.11-.27,1.66-.09.44-.23.86-.32,1.3-.12.57-.07,1.13.19,1.63.26.52.28,1.06.04,1.61-.43.96-.51,1.92-.19,2.93.32,1,.22,1.98-.15,2.96-.32.86-.36,1.74-.03,2.63.24.65.13,1.32-.11,1.97-.11.31-.31.69-.25.94.16.58-.07,1.81.05,1.96.12.14.06.46.03.64-.08.55-.14,1.03-.15,1.57-.02.55.19,1.1.22,1.66.02.44.04.99-.15,1.32-.44.77.03,1.54-.17,2.3-.16.64-.22,1.33-.26,2-.06.79-.04,1.57.28,2.31.08.18.1.38.1.59l-.03,2.04-2.22.09c-.24,0-.5-.02-.74-.05-.51-.06-2.19-.1-2.44-.21-1.06-.48-2.27-.14-3.39-.05-.56.05-1.1.25-1.65.28-.43.02-.87-.17-1.32-.19-.3-.01-.65.35-.9.05-.31-.38-.59-.42-1.1-.26-.6.19-1.15.56-1.91.38-.51-.12-1.05.12-1.63-.03-.63-.16-1.37-.2-2.01-.1-.82.13-1.55-.35-2.3-.16-.72.18-1.32-.06-1.98-.16-1.24-.18-2.47-.18-3.67.25-.24.09-.49.16-.74.21l-1.69.36-.53-2.61c-.19-.96-.14-1.95.14-2.91.26-.88.3-1.75.26-2.67-.05-1.24-.17-2.5.25-3.7.12-.35,0-.65-.04-.98-.21-1.69-.31-3.36.2-5.02.16-.5.1-1.12.07-1.68s-.18-1.1-.27-1.65c.42-1.17.12-2.49.54-3.65.09-.24.1-.41.01-.64-.11-.3-.25-.64-.23-.95.08-1.57-.31-3.17.17-4.72-.09-.66-.21-1.31-.25-1.97-.07-1.13,0-2.28-.16-3.39-.09-.68-.09-1.29-.05-1.97.11-1.81.08-3.62.1-5.44l.08-5.44c.01-.56.11-1.12.21-1.67.08-.45.15-.92,0-1.34-.3-.86-.3-1.76-.31-2.67l-.12-7.82c-.02-.9.28-1.75.19-2.68-.07-.74-.09-1.57.21-2.3l.05-6.46.04-2.04c.01-.36.16-.66.39-.85.24-.32-.2-.5.98-.67.14-.07.93.27,1.02.4.6.88.24,1.58.52,2.64.19.73.08,1.68.13,2.46Z"/>
  <g>
    <path class="cls-2" d="M46.61,268.23l1.24-19.67h25.78s-.78,6.11,9.36,6.84c7.54,1.6,9.89,8.52,9.06,11.14s-24.05,2.17-24.05,2.17l-21.79-1.51"/>
    <path class="cls-2" d="M45.8,264.33c.07-.64-.24-1.24.1-1.83.15-.27-.23-.61.07-.89.19-.17.1-.4.27-.58.22-.24.18-.44.04-.75-.05-.18-.12-.3-.12-.68,0-.3.09-.45-.07-.78-.14-.29.24-.72.13-1.02-.22-.62.17-1.03-.3-1.71-.25-.59-.06-1.15-.07-1.64.04-.63.1-1.27.18-1.9.02-.15.13-.29.22-.43.2-.29.17-.58.05-.91-.23-.6.34-2.29.22-2.56,0-.02-.02-.04-.02-.16v-.72s1.36-.55,1.36-.55c.45-.18,2.92-.32,3.13-.26.15.04.28.15.4,0,.24.16.59-.12.79.1.49.1.67.16,1.25.12.55-.04,1.14.82,1.66.53,1.1,0,1.79-.05,1.94-.15.28-.17.41.14.69-.03.39-.24,1.15.34,1.24.11.1-.25.34-.16.49-.36.32-.43.74-.35,1.14-.1.21.13.44-.31.62-.13.32.32.68.47,1.09.45l2.61-.12c.55-.02,1.12-.06,1.63.23.83-.06,1.24,0,1.58-.09.41-.27.82.08,1.19-.29.51-.51.4-.42,1.16-.4.14.16.57.33.7.12.4.14.76.05.8.07.63.4.5-.21,1.16.26.22-.03.38,0,.5-.07l1.36,1.54s.11.05.25.08c.18.04.21.12.09.24-.1.11-.05.2.08.28.26.16.27.37.3.61.03.23.09.48.38.55.05.27.42.32.57.51.27.33.62.55.81,1.11.06.15.34.17.53.13.31-.07.36.38.67.3.35-.1.38.31.54.54.12.19.26.37.52.27.36-.13.7.03,1.05.06.36.02.64.49,1.01.29.46-.24.89.17,1.33-.04l.24.03s.09-.02.14-.04c.4-.17.58.2.95.2.21.59.61.85,1.17.94.6.07,1.23.12,1.69.61.15.14.5.13.76.21.26.08.53.16.75.31.44.36.51.99.99,1.29.44.29.69.59,1.1.92.3.22.53.87.72,1.17.24.32.57.54.83.82.27.26.47.57.37,1.02.16.33.19.72.54.93.46.26.62.7.51,1.22-.02.09-.05.22-.01.28.15.25.29.52.36.8.06.29.04.61-.11.92.07.53.03,1.08-.27,1.67-.03.05-.18.46-.36.77-.21.37-.32.48-.48.68-.08.09-.16.18-.25.26-.08.08-.13.11-.21.16-.14.09-.3.17-.48.2-.49.02-.81.23-1.11.47-.33.27-.66.3-1.04.29-.26-.02-.55-.06-.76.05-1.17.64-2.38.82-3.63.49-.47-.12-.88.03-1.36.1-.37.23-.63.1-.85-.21-.11-.16-.22-.04-.34.17-.62.44-1.18-.22-1.49-.06-.44.22-.9.34-1.39.08-.2-.11-.52-.17-.68-.06-.39.25-.73.22-1.13.08-.55-.19-1.1-.18-1.61.22-.42.33-.91.29-1.39.3-.62,0-1.24-.39-1.87-.03-.06.04-.17.02-.24-.02-.86-.41-1.69-.46-2.54.06-.19.11-.5.1-.7,0-.73-.33-1.32-.43-2.15-.03-.13.07-.34.07-.46,0-1.05-.61-2.18-.45-3.27-.48-.88-.03-1.75-.08-2.6-.3-.23-.06-.45-.13-.69-.04-.64.23-1.25.15-1.85-.18-.38-.2-.78-.23-1.16-.07-.64.27-1.24.19-1.84-.14-.28-.16-.6-.27-.91-.28-.79-.02-1.56-.35-2.35-.21-.8.14-1.56-.25-2.35-.18-.47.04-.93.35-1.4.12-.46-.22-.92-.13-1.39-.1-.42.03-.74-.31-1.06-.55-.36-.27-.37-1.66-.04-2.02.02-.02.21-.22.25-.17.16-.1,1.05-.43,1.77-.36.39.04.79.02,1.15.25.3.19.59.2.9.03.38-.21.79-.25,1.16-.1,1.21.5,2.49.49,3.74.64.39.05.78.11,1.17.18.15.03.31.16.44.13,1.58-.35,3.16.01,4.74-.08.47-.03.78,0,1.24-.14.77-.24,1.38.03,2.44.16.27.19.59.28.87.45.23.13.45.17.68.09.27-.08.55-.13.82-.17l.21-.02s.05,0,.07-.01h.1s.41-.05.41-.05c.55-.04,1.1-.06,1.65-.15,1.3.22,3.09.11,3.25,0,.39.01.78.09,1.17.16.31.06.61.17.92.23.4.08.79,0,1.12-.3.35-.3.72-.36,1.11-.16.69.35,1.37.36,2.04-.04.67-.4,1.34-.39,2.05-.11.62.24,1.23.2,1.8-.22.42-.31.88-.27,1.35-.11.22.07.5.23.67.13.37-.22,1.22-.16,1.3-.3.07-.14.29-.12.41-.12.37,0,.69-.02,1.04-.09.35-.08.65-.37.95-.51.26-.1.51-.24.75-.13.23.12.44.02.45-.07.07-.06-.03-.07-.08-.04-.01,0-.02.02-.03.03-.04.03-.09.08-.12.14-.07.08-.12.29-.1.31.15-.13.23-.43.21-.78,0-.2-.03-.4-.13-.6-.08-.19-.23-.37-.46-.52-.23-.15-.25-.41-.3-.66-.01-.29-.39-1.15-.38-1.33.13-.79-.6-1.21-1.09-1.62-.23-.23-.63-.27-.86-.48-.18-.17-.27-.44-.45-.63-.13-.12-.49.04-.44-.27.07-.41-.06-.54-.4-.56-.39-.05-.86.18-1.16-.19-.21-.25-.61-.1-.86-.37-.27-.31-.71-.42-1.1-.44-.11,0-.21-.03-.31-.08l.28.04c-.46-.11-.86-.42-1.32-.32-.57.14-1-.21-1.47-.4-.45-.18-.9-.32-1.37-.44-.47-.11-.96-.13-1.5-.15-.54,0-1.07-.1-1.55-.38-.49-.24-.91-.65-1.23-1.13-.46-.7-.96-1.29-1.49-1.97-.7-.91-1.24-2.12-.95-3.3.09-.36-.05-.57-.05-1.05h0c-.37-.44,3.26,3.7,1.72,1.95h0s0,0,0,0h0s-.01,0-.01,0h-.03s-.06.02-.06.02l-.11.02-.22.04-.44.06c-.29.04-.59.06-.88.06-.59,0-1.17-.1-1.75-.34-.35-.15-.78-.09-1.17-.04-.39.05-.77.19-1.16.29-.82-.41-1.74-.09-2.56-.5-.17-.08-.29-.09-.45,0-.21.11-.45.26-.66.25-1.1-.06-2.22.35-3.31-.11-.46.1-.92.23-1.38.28-.79.08-1.6.04-2.37.2-.47.1-.9.1-1.38.07-1.26-.08-2.54-.03-3.8-.03-1.27,0-2.54.02-3.8,0h-.24s1.97-1.86,1.97-1.86c-.05.31-.14.62-.24.92-.1.31-.18.64-.04.93.28.62.25,1.25.23,1.88-.06,1.82-.11,3.65-.13,5.47,0,.63-.33,1.21-.27,1.86.05.52.04,1.1-.28,1.6l-.26,4.51c-.03.47-.06.95-.1,1.42-.02.25-.18.45-.42.58-.25.21.19.36-1,.42-.14.04-.92-.24-1-.33-.57-.65-.19-1.11-.43-1.88-.17-.52-.03-1.18-.06-1.73Z"/>
  </g>
  <path class="cls-2" d="M99.57,180.57c-.01.95.35,1.82.07,2.73-.13.42.29.88,0,1.32-.17.28-.07.6-.22.9-.19.39-.14.68.03,1.12.06.27.15.43.18,1,.02.44-.05.67.14,1.15.17.42-.17,1.09-.04,1.53.27.89-.07,1.55.45,2.51.3.85.16,1.7.22,2.43.02.94.01,1.89,0,2.83,0,.22-.1.45-.18.66-.17.46-.12.89.03,1.35.28.87-.13,3.44.02,3.83.21.53.43,4.56.37,4.9-.04.22-.14.43.01.59-.15.36.14.88-.08,1.18-.09.73-.14,1-.09,1.86.05.82-.79,1.71-.48,2.47.03,1.64.1,2.66.2,2.89.18.42-.13.61.05,1.03.25.57-.31,1.71-.08,1.85.25.15.17.51.37.73.44.46.37,1.1.13,1.7-.12.31.32.65.15.91-.31.48-.45,1.02-.42,1.63l.19,3.89c.03.82.1,1.66-.19,2.43.08,1.24.03,1.84.14,2.35.28.61-.06,1.22.32,1.77.52.75.43.59.44,1.72-.15.21-.31.85-.1,1.04-.13.6-.03,1.14-.05,1.19-.38.94.22.74-.22,1.72.05.53-.03.81.34,1.05.19.12.22.33.1.59-.11.24-.06.43.06.66.48.92-.15,2.09.28,3.04-.06.47.1.93.16,1.4l-2.11-2.07c.11-.01.22-.02.32-.01.94.03,1.87-.02,2.76.36.23.1.71-.02.99-.16.48-.22.9.2,1.35,0,.53-.24.85.13,1.23.32.3.15.59.28.97.11.54-.24,1.14-.14,1.72-.18.6-.04,1.17.34,1.7.11.75-.32,1.57.14,2.28-.27.46-.27.79.05,1.27-.05.48.54,1.13.63,1.87.51.79-.13,1.53-.4,2.39-.16.27.07.66-.15.99-.22.34-.07.68-.15,1.03-.15.71,0,1.31.48,2.04.36.68-.11,1.18-.04,1.86-.15.26-.04.64.01,1,.07l-1.63,1.59c.05-.3.1-.57.1-.78.02-1.05-.6-1.93-.05-2.86.01-.46.15-.95-.11-1.37-.32-.52-.34-1.06-.1-1.64.04-.1.11-.24.09-.33-.19-.68-.35-1.35-.01-2.03-.06-.58-.04-1.13.11-1.71.15-.55-.33-1.11-.1-1.7.18-.47.1-.9-.04-1.35-.15-.45-.11-.91,0-1.38.08-.33.18-.72.12-1.02-.39-1.74-.39-3.45.09-5.19.18-.65.08-1.27.07-1.97-.19-.57-.03-.93.3-1.21.17-.14.06-.31-.13-.51-.38-.95.33-1.7.2-2.18-.18-.67-.26-1.35.03-2.05.12-.29.21-.74.11-1-.22-.59-.17-1.08,0-1.67.22-.79.25-1.6-.12-2.38-.3-.63-.24-1.36-.22-2.07.03-.92.45-1.81.12-2.75-.03-.09-.01-.24.03-.35.45-1.25.53-2.49.04-3.76-.11-.28-.08-.73.02-1.03.35-1.03.48-2.02.08-3.07-.07-.19-.08-.5-.01-.69.58-1.58.38-3.25.38-4.88,0-1.3.02-2.59.22-3.87.05-.35.12-.67.02-1.02-.25-.93-.19-1.85.12-2.76.19-.57.21-1.16.03-1.72-.29-.94-.23-1.83.09-2.74.15-.42.25-.91.25-1.37,0-1.17.3-2.34.14-3.5-.17-1.18.2-2.33.1-3.5-.06-.69-.38-1.36-.17-2.06.21-.7.11-1.37.05-2.06-.05-.62.29-1.11.52-1.62.26-.55,1.65-.68,2.02-.22.02.03.23.29.18.36.11.22.47,1.54.42,2.61-.03.59,0,1.18-.21,1.73-.18.46-.18.89,0,1.34.22.54.28,1.17.13,1.72-.47,1.84-.41,3.73-.52,5.61-.03.58-.09,1.17-.15,1.75-.02.23-.15.47-.12.67.4,2.33.09,4.7.23,7.05.04.7.02,1.16.18,1.85.26,1.13.02,2.06-.09,3.64-.18.41-.26.89-.42,1.31-.13.34-.15.67-.07,1.02.37,1.61.23,3.28.37,4.91-.26,1.94-.23,4.62-.12,4.86-.03.58-.12,1.16-.22,1.74-.07.46-.2.9-.28,1.36-.1.6-.03,1.17.23,1.69.28.53.31,1.1.09,1.67-.4,1.01-.46,2.02-.1,3.06.35,1.03.28,2.05-.06,3.09-.3.91-.31,1.82.04,2.73.26.67.17,1.37-.05,2.06-.1.32-.29.73-.22.99.17.6-.02,1.89.11,2.03.12.14.07.47.05.67-.06.57-.11,1.07-.11,1.64,0,.57.22,1.14.27,1.72.04.46.07,1.03-.11,1.38-.42.82.07,1.6-.1,2.4-.14.68-.18,1.39-.2,2.09-.03.82,0,1.63.35,2.39.18.41.11.91.05,1.38-.07.53-.16,2.28-.28,2.54-.35.75-.31,1.58-.24,2.41l.14,1.54-1.96.23c-.37.04-.75.1-1.11.12-.58.05-1.14.25-1.72.28-.45.02-.91-.17-1.37-.19-.31-.01-.68.35-.94.05-.33-.38-.62-.42-1.14-.26-.63.19-1.2.56-1.99.38-.53-.12-1.09.12-1.7-.03-.65-.16-1.42-.2-2.09-.1-.85.13-1.61-.35-2.39-.16-.75.18-1.38-.06-2.06-.16-1.29-.18-2.57-.18-3.82.25-1.24.42-2.54.45-3.8.1-.55-.15-1.09-.22-1.65-.24l-1.9-.07.04-1.76c0-.37,0-.75-.04-1.14-.09-1.29-.25-2.59.13-3.85.11-.37-.02-.68-.07-1.02-.26-1.75-.42-3.48.04-5.23.14-.53.07-1.17.01-1.75-.06-.58-.21-1.14-.32-1.71.39-1.23.04-2.59.43-3.81.08-.25.08-.43,0-.66-.12-.31-.27-.66-.26-.98.03-1.64-.41-3.29.02-4.92-.11-.68-.25-1.36-.32-2.04-.11-1.17-.08-2.37-.27-3.52-.12-.7-.13-1.34-.11-2.05.05-1.88-.04-3.77-.07-5.66l-.1-5.66c0-.58.08-1.17.16-1.74.07-.47.12-.96-.04-1.39-.33-.89-.36-1.82-.4-2.77l-.37-8.13c-.05-.94.22-1.82.11-2.79-.09-.77-.14-1.63.14-2.4l-.15-6.72-.02-2.12c0-.37.14-.69.37-.9.23-.33-.22-.51.96-.73.14-.08.94.25,1.03.38.62.9.29,1.63.6,2.73.21.76.13,1.74.21,2.56Z"/>
  <g>
    <path class="cls-2" d="M98.54,268.23l1.24-19.67h25.78s-.78,6.11,9.36,6.84c7.54,1.6,9.89,8.52,9.06,11.14-.83,2.62-24.05,2.17-24.05,2.17l-21.79-1.51"/>
    <path class="cls-2" d="M97.73,264.33c.07-.64-.24-1.24.1-1.83.15-.27-.23-.61.07-.89.19-.17.1-.4.27-.58.22-.24.18-.44.04-.75-.05-.18-.12-.3-.12-.68,0-.3.09-.45-.07-.78-.14-.29.24-.72.13-1.02-.22-.62.17-1.03-.3-1.71-.25-.59-.06-1.15-.07-1.64.04-.63.1-1.27.18-1.9.02-.15.13-.29.22-.43.2-.29.17-.58.05-.91-.23-.6.34-2.29.22-2.56,0-.02-.02-.04-.02-.16v-.72s1.36-.55,1.36-.55c.45-.18,2.92-.32,3.13-.26.15.04.28.15.4,0,.24.16.59-.12.79.1.49.1.67.16,1.25.12.55-.04,1.14.82,1.66.53,1.1,0,1.79-.05,1.94-.15.28-.17.41.14.69-.03.39-.24,1.15.34,1.24.11.1-.25.34-.16.49-.36.32-.43.74-.35,1.14-.1.21.13.44-.31.62-.13.32.32.68.47,1.09.45l2.61-.12c.55-.02,1.12-.06,1.63.23.83-.06,1.24,0,1.58-.09.41-.27.82.08,1.19-.29.51-.51.4-.42,1.16-.4.14.16.57.33.7.12.4.14.76.05.8.07.63.4.5-.21,1.16.26.22-.03.38,0,.5-.07l1.36,1.54s.11.05.25.08c.18.04.21.12.09.24-.1.11-.05.2.08.28.26.16.27.37.3.61.03.23.09.48.38.55.05.27.42.32.57.51.27.33.62.55.81,1.11.06.15.34.17.53.13.31-.07.36.38.67.3.35-.1.38.31.54.54.12.19.26.37.52.27.36-.13.7.03,1.05.06.36.02.64.49,1.01.29.46-.24.89.17,1.33-.04l.24.03s.09-.02.14-.04c.4-.17.58.2.95.2.21.59.61.85,1.17.94.6.07,1.23.12,1.69.61.15.14.5.13.76.21.26.08.53.16.75.31.44.36.51.99.99,1.29.44.29.69.59,1.1.92.3.22.53.87.72,1.17.24.32.57.54.83.82.27.26.47.57.37,1.02.16.33.19.72.54.93.46.26.62.7.51,1.22-.02.09-.05.22-.01.28.15.25.29.52.36.8.06.29.04.61-.11.92.07.53.03,1.08-.27,1.67-.03.05-.18.46-.36.77-.21.37-.32.48-.48.68-.08.09-.16.18-.25.26-.08.08-.13.11-.21.16-.14.09-.3.17-.48.2-.49.02-.81.23-1.11.47-.33.27-.66.3-1.04.29-.26-.02-.55-.06-.76.05-1.17.64-2.38.82-3.63.49-.47-.12-.88.03-1.36.1-.37.23-.63.1-.85-.21-.11-.16-.22-.04-.34.17-.62.44-1.18-.22-1.49-.06-.44.22-.9.34-1.39.08-.2-.11-.52-.17-.68-.06-.39.25-.73.22-1.13.08-.55-.19-1.1-.18-1.61.22-.42.33-.91.29-1.39.3-.62,0-1.24-.39-1.87-.03-.06.04-.17.02-.24-.02-.86-.41-1.69-.46-2.54.06-.19.11-.5.1-.7,0-.73-.33-1.32-.43-2.15-.03-.13.07-.34.07-.46,0-1.05-.61-2.18-.45-3.27-.48-.88-.03-1.75-.08-2.6-.3-.23-.06-.45-.13-.69-.04-.64.23-1.25.15-1.85-.18-.38-.2-.78-.23-1.16-.07-.64.27-1.24.19-1.84-.14-.28-.16-.6-.27-.91-.28-.79-.02-1.56-.35-2.35-.21-.8.14-1.56-.25-2.35-.18-.47.04-.93.35-1.4.12-.46-.22-.92-.13-1.39-.1-.42.03-.74-.31-1.06-.55-.36-.27-.37-1.66-.04-2.02.02-.02.21-.22.25-.17.16-.1,1.05-.43,1.77-.36.39.04.79.02,1.15.25.3.19.59.2.9.03.38-.21.79-.25,1.16-.1,1.21.5,2.49.49,3.74.64.39.05.78.11,1.17.18.15.03.31.16.44.13,1.58-.35,3.16.01,4.74-.08.47-.03.78,0,1.24-.14.77-.24,1.38.03,2.44.16.27.19.59.28.87.45.23.13.45.17.68.09.27-.08.55-.13.82-.17l.21-.02s.05,0,.07-.01h.1s.41-.05.41-.05c.55-.04,1.1-.06,1.65-.15,1.3.22,3.09.11,3.25,0,.39.01.78.09,1.17.16.31.06.61.17.92.23.4.08.79,0,1.12-.3.35-.3.72-.36,1.11-.16.69.35,1.37.36,2.04-.04.67-.4,1.34-.39,2.05-.11.62.24,1.23.2,1.8-.22.42-.31.88-.27,1.35-.11.22.07.5.23.67.13.37-.22,1.22-.16,1.3-.3.07-.14.29-.12.41-.12.37,0,.69-.02,1.04-.09.35-.08.65-.37.95-.51.26-.1.51-.24.75-.13.23.12.44.02.45-.07.07-.06-.03-.07-.08-.04-.01,0-.02.02-.03.03-.04.03-.09.08-.12.14-.07.08-.12.29-.1.31.15-.13.23-.43.21-.78,0-.2-.03-.4-.13-.6-.08-.19-.23-.37-.46-.52-.23-.15-.25-.41-.3-.66-.01-.29-.39-1.15-.38-1.33.13-.79-.6-1.21-1.09-1.62-.23-.23-.63-.27-.86-.48-.18-.17-.27-.44-.45-.63-.13-.12-.49.04-.44-.27.07-.41-.06-.54-.4-.56-.39-.05-.86.18-1.16-.19-.21-.25-.61-.1-.86-.37-.27-.31-.71-.42-1.1-.44-.11,0-.21-.03-.31-.08l.28.04c-.46-.11-.86-.42-1.32-.32-.57.14-1-.21-1.47-.4-.45-.18-.9-.32-1.37-.44-.47-.11-.96-.13-1.5-.15-.54,0-1.07-.1-1.55-.38-.49-.24-.91-.65-1.23-1.13-.46-.7-.96-1.29-1.49-1.97-.7-.91-1.24-2.12-.95-3.3.09-.36-.05-.57-.05-1.05h0c-.37-.44,3.26,3.7,1.72,1.95h0s0,0,0,0h0s-.01,0-.01,0h-.03s-.06.02-.06.02l-.11.02-.22.04-.44.06c-.29.04-.59.06-.88.06-.59,0-1.17-.1-1.75-.34-.35-.15-.78-.09-1.17-.04-.39.05-.77.19-1.16.29-.82-.41-1.74-.09-2.56-.5-.17-.08-.29-.09-.45,0-.21.11-.45.26-.66.25-1.1-.06-2.22.35-3.31-.11-.46.1-.92.23-1.38.28-.79.08-1.6.04-2.37.2-.47.1-.9.1-1.38.07-1.26-.08-2.54-.03-3.8-.03-1.27,0-2.54.02-3.8,0h-.24s1.97-1.86,1.97-1.86c-.05.31-.14.62-.24.92-.1.31-.18.64-.04.93.28.62.25,1.25.23,1.88-.06,1.82-.11,3.65-.13,5.47,0,.63-.33,1.21-.27,1.86.05.52.04,1.1-.28,1.6l-.26,4.51c-.03.47-.06.95-.1,1.42-.02.25-.18.45-.42.58-.25.21.19.36-1,.42-.14.04-.92-.24-1-.33-.57-.65-.19-1.11-.43-1.88-.17-.52-.03-1.18-.06-1.73Z"/>
  </g>
  <path class="cls-2" d="M12.81,118.08c-.16.75.07,1.5-.33,2.18-.18.31.15.74-.18,1.05-.21.19-.15.47-.34.68-.25.28-.23.52-.13.9.02.22.09.37.05.82-.03.36-.14.53-.01.94.11.36-.31.84-.23,1.22.16.75-.27,1.23.13,2.07.2.72-.04,1.38-.07,1.97-.1.75-.19,1.51-.32,2.26-.03.18-.15.35-.25.51-.22.35-.21.7-.11,1.08.19.73-.47,2.74-.35,3.07.15.45.05,3.69-.03,3.96-.06.18-.18.33-.03.47-.18.28.08.71-.15.94-.13.58-.21.79-.2,1.48,0,.66-.88,1.33-.62,1.96-.06,1.32-.03,2.15.06,2.34.16.35-.16.49,0,.83.22.47-.39,1.37-.16,1.49.24.13.15.42.34.6.42.39.32.9.06,1.38-.13.25.29.54.11.74-.33.38-.49.81-.49,1.3l.04,3.15c0,.66.04,1.35-.27,1.96.04,1.01-.04,1.49.06,1.91.26.5-.1.99.26,1.44.5.63.41.49.38,1.4-.16.17-.34.68-.14.84-.15.48-.06.92-.08.96-.41.75.2.61-.27,1.39.04.43-.05.66.31.86.19.1.21.28.08.48-.12.19-.07.35.04.54.45.76-.2,1.69.2,2.47-.09.46.16.93.13,1.4-.04.76.01,1.52-.37,2.23-.1.19.02.57.15.8.22.39-.2.73,0,1.1.23.43-.14.69-.32.99-.15.24-.28.48-.11.79.24.44.13.93.17,1.4.04.48-.34.94-.12,1.38.04.08.07.15.09.23v.15c.07.59-.3,1.13,0,1.69.22.42-.13.65-.09,1.06-.59.32-.75.83-.73,1.46.03.66.18,1.32-.18,1.98-.11.2.04.57.06.86,0,.29.03.59-.03.88-.13.59-.73.97-.76,1.59-.05.59-.23.98-.3,1.57-.05.4-.5,1.02-.67,1.41-.16.43-.19.89-.31,1.33-.09.43-.32.85-.79,1.1-.14.21-.26.34-.34.47-.09.14-.15.29-.12.48.1.5-.06.81-.45,1.07-.07.05-.17.11-.18.17-.02.52-.04.99-.48,1.33-.07.4-.15.75-.38,1.1-.1.17-.04.37,0,.56.06.19.12.36-.01.54-.18.28-.09.55.08.78.19.23.18.45.16.68-.05.18-.03.37.08.47.32.19.63.38.93.56.12.11.3.2.46.34.17.17.27.2.42.4.1.09.22.09.33.1.11-.02.22-.1.33-.12.13-.3.29-.15.58.03.15.1.17-.05.14-.26.09-.26.29-.42.53-.46.23-.07.46-.15.52-.3.08-.21.15-.45.27-.64.13-.19.3-.35.55-.49.2-.12.46-.34.45-.57,0-.49.21-.77.53-1.11.45-.44.7-1.03.54-1.71-.12-.55.09-1.05.27-1.55.2-.6.7-1.12.64-1.8l4,1.25c0,.05.01.1.02.16.01.07-.04.17-.1.24-.7.76-1.03,1.7-.75,2.75.06.23-.03.56-.17.76-.49.69-.72,1.44-.38,2.23.06.14.06.36-.02.49-.63,1.07-.34,2.32,0,3.02.12.29.27.46.38.59.12.13.22.24.44.4.11.06.25.16.37.05.28-.27.33-.25.87-.29.32-.02.57-.3.62-.68.08-.63.37-1.1.91-1.58.25-.22.47-.52.58-.84.27-.83.79-1.62.82-2.54.03-.93.54-1.74.58-2.67.03-.55-.23-1.11.05-1.63.27-.52.23-1.06.23-1.62,0-.49.37-.85.63-1.23.29-.42,1.68-.4,2.02,0,.02.03.21.26.15.31.09.19.36,1.3.22,2.18-.08.48-.11.98-.38,1.4-.23.35-.28.7-.15,1.1.15.48.12,1.01-.1,1.44-.73,1.42-1.03,2.98-1.67,4.46-.19.46-.44.91-.7,1.35-.1.17-.32.3-.36.47-.29.99-.91,1.97-1.93,2.7-1.03.75-2.57.94-3.77.6-.76-.19-1.24-.49-1.94-.93-.58-.39-.94-.93-1.15-1.52-.23-.6-.32-1.25-.39-2,.12-.42.15-.86.29-1.24.11-.31.14-.59.05-.9-.34-1.42,0-2.85.12-4.23.56-1.57,1.17-3.72,1.15-3.97l.04-.09.06-.14c.33-.8,1.24-1.19,2.04-.86.77.31,1.15,1.16.9,1.94-.14.45-.33.88-.54,1.3-.17.36-.39.68-.58,1.03-.24.46-.34.93-.23,1.44.11.53-.05,1-.44,1.37-.72.65-1.11,1.38-1.29,2.36-.15.98-.82,1.76-1.75,2.27-.45.2-.78.46-1.18.72-.19.13-.38.28-.55.45-.2.15-.41.31-.62.5-.62.55-1.62.6-2.41.3-.39-.1-.75-.45-1.06-.44-.37.02-.79-.22-1.19-.41-.39-.2-.69-.47-.79-.45-.2.02-.47-.25-.61-.43-.44-.48-.74-.97-1.06-1.51-.14-.28-.33-.54-.51-.82-.15-.27-.31-.56-.42-.87-.12-.47-.27-1.1-.08-1.46.18-.43.17-.82.16-1.21-.03-.4-.05-.78.1-1.15.25-.61.45-1.24.69-1.85.27-.71.52-1.39.52-2.17,0-.43.3-.81.57-1.16.08-.1.2-.25.34-.43.11-.15.25-.32.37-.49.19-.24.39-.49.47-.56.78-.43.8-1.49.98-2.32.09-.43,0-.9.1-1.32.06-.34.33-.63.44-.97.07-.23-.23-.59.11-.72.43-.17.52-.38.44-.82-.09-.52-.36-1.02-.09-1.6.19-.39.01-.86.24-1.31.24-.48.36-1.08.33-1.62-.04-.67.5-1.23.37-1.83v.17s0,0,0,0c-.18-.61.06-1.12.16-1.68.18-1.05.18-2.09-.24-3.1-.42-1.01-.43-2.06-.08-3.09.26-.75.29-1.48.24-2.26-.06-1.05-.18-2.11.23-3.12.12-.3,0-.55-.04-.83-.22-1.43-.32-2.84.2-4.25.16-.42.1-.95.07-1.42-.04-.47-.17-.93-.27-1.4.42-.98.13-2.1.56-3.08.09-.2.1-.35.02-.54-.11-.26-.25-.54-.23-.81.1-1.33-.28-2.69.22-3.99-.08-.56-.19-1.11-.23-1.67-.06-.96.03-1.93-.11-2.88-.08-.58-.06-1.1,0-1.67.14-1.53.17-3.07.26-4.62.1-1.54.19-3.09.35-4.63.05-.47.18-.94.32-1.4.11-.38.21-.77.1-1.13-.24-.76-.18-1.52-.11-2.29l.59-6.64c.07-.77.46-1.44.47-2.24,0-.64.09-1.33.46-1.91.26-1.81.54-3.62.85-5.43.1-.57.2-1.14.32-1.71.06-.3.25-.53.51-.65.28-.22-.13-.46,1.06-.39.15-.03.88.39.95.51.46.83.02,1.35.15,2.28.09.64-.14,1.41-.18,2.07Z"/>
  <path class="cls-2" d="M21.21,209.4c.41-.1.65-.5,1.1-.4.22.05.23-.39.52-.22.18.09.26-.06.45,0,.25.09.34-.03.43-.26.07-.11.07-.23.26-.4.14-.13.27-.13.32-.4.04-.22.47-.18.53-.41.09-.45.57-.4.43-1.08-.01-.47.35-.63.47-.94.2-.35.43-.69.67-1.02.05-.09.18-.13.29-.18.25-.11.28-.31.24-.56-.05-.24.17-.55.35-.87.17-.32.35-.62.31-.73-.06-.15.04-.66.11-1.17.06-.52.15-1.01.2-1.08.07-.09.19-.16.06-.26.19-.13-.03-.42.22-.51.01-.02.03-.05.04-.06l-.02.24c.09-.3.14-.44.12-.83-.03-.4.84-.81.55-1.19.02-.8-.03-1.3-.12-1.42-.17-.21.14-.29-.02-.5-.23-.28.36-.83.13-.9-.25-.08-.15-.25-.35-.36-.43-.24-.33-.54-.08-.83.13-.15-.3-.32-.12-.45.33-.23.48-.49.47-.79l-.08-1.9c0-.4-.05-.81.26-1.18-.05-.61.03-.9-.07-1.15-.27-.3.09-.6-.27-.87-.5-.38-.42-.3-.39-.85.16-.1.34-.41.13-.5.15-.29.06-.55.08-.58.41-.45-.2-.37.27-.84-.04-.26.05-.4-.31-.52-.19-.06-.21-.17-.08-.29.12-.11.07-.21-.04-.32-.45-.46.21-1.02-.19-1.49.09-.28-.16-.56-.13-.85.04-.46,0-.91.38-1.34.1-.11-.02-.35-.15-.49-.22-.24.21-.44.01-.66-.23-.26.14-.41.33-.6.15-.15.28-.29.11-.47-.24-.27-.12-.56-.16-.84-.04-.29.35-.57.13-.83-.31-.37.15-.77-.25-1.12-.26-.23.05-.39-.04-.62.54-.23.64-.54.52-.91-.13-.39-.4-.75-.16-1.17.07-.13-.15-.32-.22-.49-.07-.17-.15-.34-.15-.5,0-.35.48-.64.36-1-.11-.33-.04-.58-.15-.91-.08-.22.16-.64.15-.87,0-.52-.65-.94-.12-1.4,0-.23.12-.47-.14-.67-.33-.25-.37-.52-.14-.8.04-.05.11-.12.08-.16-.21-.33-.38-.66-.06-.99-.08-.28-.07-.55.07-.84.13-.27-.36-.54-.14-.83.17-.23.08-.44-.08-.66-.16-.22-.13-.44-.03-.67.07-.16.17-.35.09-.5-.43-.85-.48-1.69-.04-2.54.16-.32.04-.62.02-.97-.2-.28-.06-.45.26-.59.16-.07.06-.15-.14-.25-.4-.46.28-.83.14-1.06-.2-.33-.3-.66-.02-1,.11-.14.19-.36.09-.49-.24-.29-.2-.53-.05-.82.2-.39.21-.78-.18-1.17-.32-.31-.28-.67-.27-1.01,0-.45.4-.88.05-1.35-.04-.05-.02-.12.02-.17.42-.62.45-1.19-.04-1.9-.11-.14-.09-.38.02-.52.35-.5.48-.99.1-1.53-.07-.1-.08-.25,0-.34.59-.75.43-1.59.46-2.41.02-.65.08-1.29.31-1.91.06-.17.14-.32.05-.5-.22-.49-.13-.94.21-1.36.21-.26.25-.55.1-.85-.25-.5-.15-.94.21-1.35.16-.19.29-.42.32-.64.06-.58.41-1.11.33-1.71-.09-.61.33-1.12.32-1.71,0-.35-.28-.74-.03-1.05.25-.31.21-.65.21-1.01,0-.31.37-.49.64-.69.29-.22,1.67,0,1.99.3.02.02.2.19.15.21.09.13.34.83.22,1.33-.07.27-.08.56-.33.79-.2.19-.24.39-.09.64.18.3.2.6.03.85-.57.81-.62,1.73-.81,2.62-.06.28-.14.55-.22.82-.03.11-.17.21-.14.31.3,1.17-.09,2.29-.02,3.43.02.34,0,.56.13.91.23.57-.03.99-.16,1.75-.19.18-.27.41-.44.61-.13.16-.16.32-.09.49.35.8.2,1.6.35,2.39-.27.88-.13,2.2-.03,2.32-.02.28-.09.57-.17.85-.06.22-.18.44-.24.67-.09.29,0,.57.28.83.29.26.34.54.13.82-.37.49-.4.99-.03,1.49.38.5.34,1,.02,1.51-.28.44-.27.89.11,1.34.28.33.21.67,0,1.01-.09.16-.27.35-.19.48.19.29.03.92.16.99.13.07.09.23.07.33-.05.28-.08.52-.06.8.01.28.25.56.31.84.05.22.1.5-.07.67-.4.4.11.78-.04,1.17-.13.33-.14.68-.15,1.02-.01.4.05.8.41,1.17.19.2.14.45.09.68-.06.26-.1,1.11-.21,1.24-.48.53-.14,1.15-.05,1.72.05.28.25.56.28.84.02.22-.17.44-.19.67-.01.15.35.33.05.46-.39.16-.42.3-.26.56.19.31.56.59.38.97-.12.26.13.53-.03.83-.17.32-.22.69-.12,1.02.12.42-.37.78-.19,1.17.18.37-.07.67-.18,1.01-.19.63-.2,1.25.21,1.87.41.61.42,1.25.07,1.86-.26.45-.29.89-.25,1.36.06.63.17,1.27-.24,1.88-.12.18,0,.33.04.5.22.86.32,1.71-.19,2.56-.15.25-.1.57-.06.85.04.28.18.56.28.85-.42.59-.11,1.27-.54,1.85-.09.12-.1.21-.01.32.11.16.25.33.24.49-.08.8.32,1.62-.16,2.4.09.34.21.67.26,1.01.07.58.01,1.16.17,1.73.1.35.09.66.05,1-.09.83-.07,1.66-.08,2.49v.18s-.03.14-.03.14l-.06.29c-.24.97-.36,1.94-.74,2.9-.1.29-.29.56-.47.82-.15.21-.27.44-.24.7.1.56-.11,1.04-.3,1.53-.31.69-.69,1.37-1.08,2.04-.46.65-.87,1.32-1.45,1.92-.19.21-.42.36-.66.51-.25.13-.5.27-.7.48-.31.36-.76.66-1.31.65-1.17.67-2.47,1.14-3.82,1.32-.42.06-.86.09-1.3.08-.24-.01-.43-.16-.55-.4-.19-.25-.37.18-.35-1.01,0-.14.28-.9.34-.99.44-.57.75-.23,1.22-.56.31-.22.73-.21,1.06-.35Z"/>
</svg>