<?xml version="1.0" encoding="UTF-8"?>
<svg id="illuer_hvid_bg" xmlns="http://www.w3.org/2000/svg" viewBox="0 0 217.34 272.6">
  <defs>
    <style>
      .cls-1 {
        fill: #ff9400;
      }

      .cls-2 {
        fill: #0354f0;
      }
    </style>
  </defs>
  <path class="cls-1" d="M130.35,185.02c27.13,2.79,47.77-2.03,61.89-14.47,14.17-12.41,22.34-29.41,24.55-50.96,2.21-21.55-2.33-39.83-13.68-54.89-11.32-15.06-30.29-23.94-56.87-26.67-26.58-2.73-47.61,2.04-61.5,14.51-13.88,12.44-21.94,29.45-24.16,51-2.21,21.55,2.23,39.82,13.29,54.84,11.06,15,29.89,23.9,56.45,26.62"/>
  <path class="cls-2" d="M201.57,117.17c.13.73.6,1.34.45,2.09-.07.34.39.63.17,1.02-.13.24,0,.48-.1.73-.15.33-.06.55.15.86.09.2.2.31.29.74.07.34.02.53.25.87.21.3-.06.87.11,1.19.35.66.06,1.21.66,1.9.37.63.28,1.31.39,1.87.09.73.13,1.47.17,2.21,0,.17-.07.36-.14.53-.15.37-.07.7.1,1.05.32.66,0,2.69.15,2.99.23.41.54,3.54.47,3.8-.04.18-.14.33.02.46-.15.29.15.68-.06.92-.08.57-.13.78-.07,1.45.06.64-.77,1.34-.46,1.93.04,1.27.12,2.06.22,2.24.18.32-.13.48.06.8.25.44-.31,1.33-.07,1.44.25.11.17.39.38.56.44.35.37.85.13,1.32-.12.25.32.5.15.71-.31.38-.45.8-.42,1.27l.18,3.01c.03.63.09,1.29-.2,1.88.08.96.01,1.43.12,1.82.28.47-.07.95.31,1.37.52.58.43.45.42,1.33-.15.17-.32.66-.11.81-.14.46-.04.88-.06.92-.39.73.22.58-.24,1.33.05.41-.04.63.33.81.19.09.21.26.09.46-.11.19-.06.34.05.51.47.72-.17,1.62.24,2.36-.09.44.17.89.16,1.34-.03.73.03,1.45-.35,2.14-.1.18.03.55.16.77.04.06.06.12.06.18l-.05-.44c.1.26-.1.6.13.84.32.34.03.66-.08.98-.09.26-.16.51.08.75.34.34.35.81.51,1.23.16.43-.09.95.23,1.28.46.46.2,1.19.74,1.6.36.26.13.59.32.91-.41.5-.34,1-.06,1.5.31.53.74.97.74,1.65,0,.21.31.41.46.62.15.22.33.41.42.65.19.49-.08,1.08.26,1.51.3.41.42.73.73,1.1.23.22.27.73.55,1.13.52.72,1.43,1.09,1.33,2.07.17.37.22.8.6,1.04.46.31.68.76.58,1.34-.02.1-.04.24,0,.31.34.54.64,1.15.37,1.85.07.27.09.54.08.82-.01.28-.04.55-.16.84-.11.27-.03.55-.03.86,0,.31-.01.63-.21.91-.37.43-.44.88-.62,1.39-.14.53-.54.93-1,1.23-.32.21-.74.36-.96.62-.34.35-.73.6-1.13.87-.47.21-.96.41-1.5.49-.56.04-1.13.09-1.66-.09-.27-.07-.54-.15-.79-.26-.23-.13-.46-.27-.67-.42-.34-.21-.6-.41-.9-.59-.32-.17-.6-.36-.87-.58-.59-.22-.71-.6-.65-1.01.03-.21-.15-.25-.43-.26-.42-.21-.6-.57-.71-.9-.09-.33-.12-.63-.29-.77-.48-.38-.84-.86-.87-1.52,0-.27-.1-.65-.28-.79-.41-.34-.54-.74-.58-1.25-.05-.69-.26-1.3-.83-1.78-.45-.39-.6-.99-.74-1.56-.04-.15-.06-.31-.08-.47l-.07-.63c-.12-1.17.73-2.22,1.9-2.34,1.09-.11,2.08.63,2.31,1.68.14.65.13,1.24.58,1.74.06.06.07.19.07.28-.1,1.11.09,2.07.8,3,.16.2.21.59.17.85-.18.92-.18,1.74.29,2.64.08.17.1.44.04.62-.27.73-.39,1.46-.56,2.26-.17.79-.38,1.67-.95,2.51-.43.67-1.11,1.28-1.86,1.62-.76.35-1.49.5-2.3.43-.43-.04-.83-.13-1.28-.14-1.24-.03-2.26-.84-2.66-1.71-.25-.56-.59-1-1.01-1.34-.72-.57-1.05-1.34-1.07-2.19,0-.39-.07-.81-.2-1.16-.35-.91-.34-1.9-.74-2.76-.41-.88-.27-1.86-.56-2.75-.17-.52-.59-.99-.48-1.58.11-.58-.08-1.09-.22-1.62-.12-.48.15-.91.32-1.33.19-.46,1.56-.73,1.97-.43.03.02.26.19.22.25.13.16.64,1.1.73,1.91.05.45.16.88.03,1.33-.11.37-.05.7.2.99.3.36.46.8.42,1.24-.13,1.44.32,2.81.73,4.13l.38,1.22c.05.16.02.37.12.48.57.65,1.05,1.3,1.57,1.76.51.47,1.04.7,1.58.55.31-.08.58-.15.74-.44.13-.22.22-.34.38-.49.16-.14.36-.38.53-.8.23-.17.36-.46.54-.72.16-.21.18-.45.11-.69-.36-1.11-.39-2.3-.78-3.44-.03-1.44-.69-3.34-.86-3.47-.11-.42-.17-.85-.24-1.27-.01-.08-.02-.16-.03-.23l2.58-.81c0,.26,0,.53.01.79.04.45.24.84.63,1.11.4.28.57.64.53,1.11-.09.83.18,1.55.85,2.05.66.5.96,1.09,1.09,1.88.07.33.2.62.4.85.22.2.48.38.81.42.24.02.41.12.55.23.14.09.24.25.35.43.09.13.22.38.36.36.16-.09.35-.02.52-.03.17-.02.33,0,.35-.07.04-.15.18-.15.27-.16.25.02.53-.15.79-.27.23-.19.31-.52.41-.74.06-.07.1-.18.15-.26.05-.09.15-.13.25-.17.24-.09.33-.27.31-.49,0-.21-.04-.41.05-.62.18-.34.19-.79.15-1.22-.03-.51-.22-1.03-.7-1.38-.24-.19-.32-.5-.36-.81-.06-.34-.52-1.4-.53-1.6.02-.44-.15-.81-.42-1.12-.16-.19-.32-.37-.48-.56-.17-.21-.38-.43-.51-.65-.27-.42-.71-.77-.92-1.2-.17-.34-.18-.77-.29-1.12-.08-.24-.54-.38-.33-.69.25-.39.2-.62-.09-.96-.35-.4-.86-.72-.89-1.37-.03-.44-.4-.78-.4-1.29,0-.54-.15-1.14-.39-1.62-.32-.61-.02-1.32-.37-1.86-.33-.52-.23-1.06-.28-1.6-.09-1.02-.34-1.99-.99-2.84-.2-.26-.36-.53-.48-.83l-.06-.5c-.13-.67-.07-1.37.17-2.04.25-.71.27-1.41.21-2.15-.08-.99-.21-2.01.18-2.98.11-.28-.01-.53-.06-.79-.25-1.35-.38-2.69.1-4.04.14-.41.08-.9.03-1.35-.05-.45-.2-.88-.31-1.32.39-.95.05-2,.45-2.95.08-.19.09-.33,0-.51-.12-.24-.27-.51-.26-.76.04-1.27-.4-2.54.03-3.8-.11-.53-.25-1.05-.32-1.58-.11-.9-.08-1.83-.28-2.72-.12-.54-.13-1.03-.12-1.58.04-1.45-.07-2.91-.12-4.36l-.2-4.34c-.02-.44.05-.89.12-1.34.05-.36.08-.74-.1-1.06-.37-.66-.42-1.37-.52-2.08-.24-2.05-.54-4.09-.91-6.12-.14-.7.05-1.4-.16-2.11-.17-.57-.31-1.2-.12-1.82-.31-1.67-.66-3.33-1.05-4.97l-.37-1.54c-.06-.27.01-.53.19-.74.16-.3-.3-.3.78-.77.11-.1.95-.09,1.07,0,.78.52.59,1.17,1.08,1.94.34.53.42,1.31.61,1.92Z"/>
  <path class="cls-2" d="M191.97,204.16c-.51-.15-1.1-.04-1.46-.51-.14-.23-.56-.01-.64-.39-.03-.23-.25-.23-.29-.46-.04-.29-.19-.34-.48-.37-.15-.05-.28-.03-.52-.22-.18-.16-.2-.31-.52-.37-.27-.07-.29-.55-.5-.66-.49-.24-.4-.72-1.13-.87-.47-.25-.56-.74-.79-1.07-.26-.45-.39-.93-.57-1.4-.04-.11,0-.26.04-.39.07-.29-.05-.47-.25-.66-.39-.35-.35-1.75-.52-1.9-.23-.19-.74-1.84-.78-2.16l-.03-.21v-.11c0-.17.01-.2.02-.22.05-.11.16-.2,0-.29.16-.17-.11-.43.11-.57.11-.35.17-.48.14-.9-.03-.4.84-.81.55-1.19.01-.8-.03-1.29-.12-1.41-.17-.21.14-.29-.03-.5-.23-.28.36-.82.13-.9-.25-.08-.15-.25-.35-.36-.43-.24-.34-.54-.09-.83.13-.15-.3-.32-.12-.45.33-.23.48-.48.47-.78l-.08-1.89c0-.4-.05-.81.25-1.18-.05-.6.02-.9-.07-1.15-.27-.3.09-.59-.27-.87-.5-.38-.42-.3-.39-.85.16-.1.34-.4.13-.5.15-.29.06-.55.08-.58.4-.45-.2-.37.27-.83-.04-.26.05-.39-.31-.52-.19-.06-.21-.17-.08-.29.12-.11.07-.21-.04-.32-.45-.46.2-1.01-.2-1.48.09-.28-.16-.56-.13-.84.04-.46,0-.91.38-1.34.1-.11-.02-.34-.15-.48-.22-.24.21-.43.01-.66-.23-.26.14-.41.33-.59.15-.14.28-.28.11-.47-.24-.27-.13-.56-.16-.84-.04-.29.35-.56.13-.83-.31-.37.15-.76-.25-1.11-.26-.23.05-.39-.04-.62.51-.21.63-.5.54-.85v.14s-.02-.05-.02-.05c-.16-.37-.46-.71-.26-1.15.06-.14-.18-.31-.26-.46-.08-.16-.18-.32-.2-.48-.03-.35.42-.68.27-1.02-.14-.32-.09-.57-.23-.89-.1-.21.1-.65.08-.87-.05-.51-.73-.88-.24-1.38-.02-.22.08-.47-.2-.65-.35-.22-.41-.48-.21-.78.04-.05.1-.13.07-.17-.24-.31-.44-.62-.15-.98-.1-.27-.12-.54,0-.84.11-.28-.4-.51-.21-.81.15-.24.04-.45-.13-.65-.18-.21-.17-.43-.09-.67.06-.17.14-.36.05-.5-.5-.81-.62-1.64-.26-2.52.13-.33-.01-.62-.07-.96-.23-.26-.09-.45.21-.61.16-.08.04-.16-.16-.24-.44-.43.21-.85.05-1.07-.23-.31-.35-.63-.11-1,.1-.15.16-.38.05-.49-.26-.27-.24-.51-.12-.81.17-.4.14-.8-.28-1.14-.34-.28-.33-.64-.36-.98-.03-.45.33-.91-.07-1.34-.04-.04-.03-.12,0-.17.18-.32.27-.63.24-.93-.01-.16-.06-.28-.13-.49-.07-.14-.17-.28-.31-.42-.12-.12-.12-.34-.03-.48.3-.51.37-.99-.09-1.45-.08-.08-.11-.23-.05-.32.48-.8.18-1.58.06-2.35-.09-.62-.17-1.23-.07-1.86.02-.17.06-.33-.06-.49-.32-.41-.33-.85-.11-1.32.14-.3.1-.58-.12-.82-.37-.4-.4-.82-.17-1.3.11-.22.16-.47.12-.68-.12-.55.07-1.15-.22-1.67-.29-.52-.05-1.13-.28-1.65-.13-.31-.53-.55-.4-.92.13-.37-.06-.65-.2-.96-.12-.27.14-.58.31-.86.18-.31,1.52-.7,1.94-.56.03,0,.26.09.22.13.13.08.65.63.74,1.15.05.29.14.57,0,.87-.12.25-.08.46.16.64.28.22.41.51.33.8-.25.97,0,1.87.08,2.79.03.29.03.58.02.87,0,.11-.11.25-.05.34.62,1.06.51,2.26.84,3.38.1.34.11.56.32.88.35.52.17,1,.18,1.79-.15.22-.2.46-.33.68-.1.18-.11.34,0,.5.46.75.43,1.58.66,2.38-.04.24-.06.51-.07.78-.01.2.02.49.04.71.05.46.14.8.2.86,0,.28-.05.57-.1.85-.04.23-.14.45-.19.68-.06.3.05.57.35.8.31.24.39.51.2.8-.33.52-.32,1.01.1,1.48.42.47.42.97.15,1.49-.24.46-.19.9.23,1.31.31.3.26.65.09.99-.08.16-.24.37-.15.49.21.28.11.91.25.97.13.06.1.22.1.32-.02.28-.03.53,0,.8.04.28.3.53.38.8.07.22.14.49-.01.67-.36.43.18.76.07,1.16-.1.34-.08.69-.06,1.03.02.4.12.79.51,1.12.21.18.18.43.15.66-.03.26,0,1.11-.11,1.25-.43.57-.04,1.15.1,1.71.07.28.3.53.35.81.04.22-.13.45-.13.68,0,.15.38.3.09.45-.37.19-.39.33-.21.57.22.29.6.53.46.93-.07.18.04.36.07.55v.23c.01.08,0,.17-.05.26-.17.32-.22.69-.12,1.02.12.42-.37.78-.18,1.16.18.37-.07.67-.18,1-.19.62-.2,1.25.22,1.86.41.61.42,1.24.07,1.85-.26.44-.29.88-.25,1.35.06.63.18,1.27-.23,1.87-.12.18,0,.33.04.5.22.86.32,1.7-.19,2.54-.15.25-.1.57-.06.85.04.28.18.56.28.84-.42.59-.11,1.26-.53,1.84-.09.12-.1.21-.01.32.11.15.25.33.24.49-.08.8.32,1.61-.15,2.39.09.33.22.67.26,1,.08.57.02,1.16.17,1.72.1.34.09.66.05,1-.1.91-.06,1.83-.08,2.75v.87s-.04-.39-.04-.39c.13.57.26,1.14.37,1.71.04.26.02.54.01.81,0,.22,0,.45.2.59.42.28.53.68.72,1.03.26.51.48,1.06.8,1.5.15.23.29.47.45.68l.51.59c.22.27.26.65.56.86.26.13.5.26.54.68.65.42,1.36.68,2.09.76.23,0,.46.03.68.02.12,0,.22.13.32.35.14.21.09-.22.4.91.08.12.13.93.06,1.03-.39.68-.84.38-1.44.63-.44.18-.99,0-1.44-.06Z"/>
  <path class="cls-2" d="M143.03,29.01C140.35,16.58,132.36.53,110.45.03c.69,8.76,5.35,29.3,29.48,35.89-.4,1.2-.7,2.31-.92,3.28l-.13.62-.02.14c-.21,1.41.73,2.76,2.14,3.04,1.42.28,2.8-.6,3.15-1.98l.03-.14.11-.54c1.27-5.68,5.67-15.95,16.44-19.74l.54-.18.13-.05c1.33-.51,2.05-1.98,1.6-3.36-.45-1.37-1.89-2.14-3.27-1.77l-.13.04-.66.22c-7.81,2.75-12.8,8.17-15.89,13.5Z"/>
  <ellipse class="cls-2" cx="96.39" cy="89.97" rx="5.87" ry="4.41" transform="translate(-16.67 157.82) rotate(-74)"/>
  <path class="cls-2" d="M95.64,116.69c.53.84,4.01,3.22,4.98,3.63,2.65,1.09,8.39,1.83,11.26,1.98,1.39.07,4.64-.55,5.65-1.51,2.69-2.55-.61-3.27-3-3.49-1.93-.18-3,.58-4.63.63-.93.03-5.57-.91-6.59-1.23-2.23-.69-4.23-3.42-5.8-3.68-2.58-.42-3.06,1.81-1.88,3.67h0Z"/>
  <path class="cls-2" d="M124.13,180.63c-.05.9.28,1.73-.03,2.58-.14.39.25.84-.04,1.25-.18.25-.09.57-.25.84-.21.36-.16.64-.01,1.06.05.25.14.41.15.95,0,.42-.08.63.1,1.09.15.4-.21,1.02-.09,1.44.24.85-.13,1.45.36,2.38.27.81.1,1.61.13,2.3-.02.89-.05,1.78-.11,2.67-.01.21-.12.42-.2.62-.19.43-.15.83-.02,1.27.25.83-.26,3.24-.12,3.61.19.51.27,4.31.2,4.63-.05.21-.16.4,0,.56-.17.34.11.83-.12,1.11-.12.68-.18.93-.15,1.75.02.78-.85,1.59-.57,2.31-.03,1.54,0,2.51.1,2.73.16.4-.15.57.02.97.23.54-.37,1.6-.14,1.74.24.15.15.48.35.7.42.45.33,1.04.07,1.61-.13.29.3.62.11.87-.33.44-.49.95-.48,1.52l.05,3.67c0,.77.04,1.57-.28,2.28.04,1.17-.04,1.74.05,2.22.26.58-.1,1.15.26,1.68.49.73.41.57.37,1.63-.16.2-.34.79-.14.98-.15.56-.07,1.07-.09,1.12-.41.87.2.71-.29,1.62.04.5-.06.77.3,1,.18.12.2.32.08.56-.12.22-.07.41.04.62.45.89-.22,1.97.17,2.87-.1.54.15,1.09.12,1.63-.05.89,0,1.77-.4,2.59-.1.22.01.67.14.94.06.13.07.25.05.37l-.24,2.01-1.63-.07c-.31-.01-.61-.17-.9,0-.49.26-.81-.08-1.17-.25-.29-.13-.58-.24-.92-.05-.49.27-1.07.2-1.61.28-.56.08-1.12-.27-1.61-.02-.68.36-1.49-.05-2.13.4-.42.29-.75,0-1.19.12-.48-.51-1.1-.56-1.79-.4-.71.16-1.37.46-2.15.31l-1.71-.32.09-.96v-.09c.04-.26-.25-.58-.37-.88-.12-.3-.27-.61-.32-.92-.11-.66.26-1.3.02-1.96-.22-.61-.24-1.09-.46-1.7-.15-.41-.06-1.24-.15-1.68-.18-.98-.95-1.66-.59-2.63-.08-.43-.04-.91-.37-1.24-.41-.42-.54-.91-.41-1.49.02-.1.06-.25.02-.32-.32-.59-.6-1.17-.4-1.87-.17-.52-.26-1.03-.22-1.6.04-.54-.53-.96-.42-1.55.09-.47-.07-.86-.3-1.24-.23-.39-.28-.82-.26-1.27.01-.32.04-.7-.08-.96-.71-1.53-1.04-3.11-.9-4.81.05-.64-.17-1.19-.31-1.84-.29-.49-.21-.85.06-1.17.14-.17,0-.3-.23-.44-.55-.8,0-1.64-.22-2.05-.31-.58-.52-1.2-.36-1.9.06-.29.06-.73-.08-.95-.33-.5-.37-.97-.32-1.54.07-.78-.06-1.53-.57-2.18-.42-.52-.5-1.21-.61-1.87-.14-.85.09-1.76-.41-2.56-.05-.08-.06-.22-.04-.33.2-1.25.04-2.4-.68-3.47-.16-.24-.22-.66-.18-.96.15-1.02.08-1.97-.51-2.85-.11-.16-.17-.44-.14-.63.26-1.57-.25-3.08-.56-4.58-.25-1.2-.47-2.4-.53-3.62-.01-.33-.01-.64-.17-.95-.42-.81-.54-1.67-.41-2.57.08-.56-.02-1.12-.3-1.6-.46-.81-.58-1.64-.44-2.55.06-.42.07-.89-.01-1.31-.23-1.08-.15-2.22-.53-3.26-.39-1.06-.25-2.19-.57-3.25-.19-.62-.63-1.18-.56-1.87.07-.69-.16-1.28-.34-1.92-.16-.56.07-1.09.2-1.6.14-.56,1.49-.96,1.93-.6.03.02.28.22.24.3.15.18.75,1.32.91,2.32.09.55.23,1.09.12,1.64-.09.46-.01.86.26,1.24.32.46.49,1.02.46,1.56-.11,1.79.31,3.53.56,5.28.08.55.14,1.09.19,1.64.02.21-.06.46.01.64.84,2.07.98,4.33,1.57,6.46.18.64.24,1.07.53,1.67.47.99.41,1.89.61,3.38-.1.41-.08.87-.16,1.3-.06.34-.02.65.12.96.67,1.41.85,2.98,1.3,4.46.12,1.84.66,4.31.81,4.51.08.54.1,1.1.12,1.65.02.44-.03.88-.01,1.31.02.57.19,1.09.55,1.51.37.44.52.95.41,1.52-.2,1.01-.06,1.95.48,2.84.54.88.67,1.84.53,2.86-.12.9.04,1.74.57,2.51.38.57.43,1.23.35,1.91-.04.32-.15.73-.03.96.28.52.35,1.75.5,1.86.15.11.16.42.18.6.05.54.1,1.01.21,1.53.11.53.43,1.01.59,1.53.12.41.27.94.16,1.29-.26.84.38,1.46.36,2.23-.01.65.09,1.32.2,1.97.13.77.32,1.51.8,2.14.26.34.29.82.32,1.27.03.5.28,2.13.21,2.4-.29,1.11.25,2.22.53,3.28.14.53.44,1.01.56,1.55.09.41-.01.87.04,1.3.04.29.46.57.2.86-.32.37-.31.65-.07,1.11.11.22.25.42.38.63l-2.18-1.72c.35-.15.72-.27,1.17-.19.5.09,1.02-.19,1.6-.07.62.13,1.35.12,1.98-.01.8-.17,1.54.26,2.26.03.7-.23,1.3-.02,1.95.04,1.22.11,2.43.03,3.58-.47.3-.13.6-.23.91-.31l-2.12,2.21c-.14-.88-.07-1.78.2-2.66.27-.86.31-1.72.27-2.62-.05-1.21-.15-2.45.27-3.63.12-.34,0-.64-.03-.96-.2-1.66-.29-3.3.23-4.93.16-.49.11-1.1.07-1.65-.03-.55-.17-1.08-.26-1.63.43-1.14.13-2.44.56-3.57.09-.23.1-.4.02-.62-.11-.3-.25-.63-.23-.94.09-1.54-.29-3.11.2-4.63-.08-.65-.2-1.29-.24-1.94-.06-1.11,0-2.24-.14-3.33-.09-.67-.08-1.27-.03-1.93.12-1.77.1-3.56.13-5.33l.11-5.33c.02-.55.12-1.1.22-1.64.08-.44.15-.9,0-1.31-.3-.85-.29-1.73-.3-2.62l-.07-7.67c-.02-.89.29-1.71.21-2.62-.06-.73-.08-1.54.22-2.26l.09-6.34.05-2c.01-.35.16-.65.4-.84.24-.31-.2-.49.98-.65.14-.07.93.27,1.02.39.59.87.23,1.55.5,2.6.19.72.07,1.65.12,2.42Z"/>
  <path class="cls-2" d="M60.64,132.8c-.75.13-1.36.6-2.13.44-.35-.08-.65.39-1.04.17-.24-.14-.49,0-.74-.12-.33-.15-.55-.07-.88.14-.2.09-.32.19-.77.27-.35.06-.54,0-.9.23-.31.21-.88-.1-1.22.06-.69.33-1.24,0-1.98.57-.67.31-1.37.21-1.96.26-.76.03-1.53,0-2.3-.05-.18,0-.36-.12-.53-.21-.36-.2-.71-.17-1.09-.04-.36.11-1.06,0-1.7-.12-.64-.14-1.23-.3-1.39-.24-.23.05-1.17.02-2.09-.13-.92-.12-1.81-.36-1.93-.43-.17-.09-.3-.24-.48-.13-.24-.24-.74-.12-.91-.41-.54-.29-.72-.43-1.41-.68-.67-.22-.92-1.35-1.61-1.37-.58-.34-1.06-.62-1.4-.83-.34-.22-.57-.34-.68-.36-.38-.08-.33-.4-.7-.5-.52-.15-.85-1.19-1.06-1.13-.26.08-.4-.2-.68-.2-.29,0-.53-.12-.69-.31-.15-.18-.24-.43-.3-.7-.06-.28-.57-.22-.56-.5.01-.5-.14-.93-.45-1.3-.66-.81-1.27-1.65-1.89-2.49-.39-.53-.76-1.1-.83-1.78-.56-.82-.76-1.26-1.03-1.58-.47-.3-.39-.9-.92-1.12-.73-.31-.62-.22-1-1.06.07-.22,0-.76-.24-.81-.08-.49-.34-.85-.34-.9.04-.84-.45-.46-.32-1.37-.2-.37-.21-.62-.62-.66-.21-.02-.3-.18-.26-.41.03-.22-.07-.35-.25-.48-.7-.54-.4-1.65-1.05-2.24-.07-.47-.45-.84-.57-1.29-.21-.73-.48-1.45-.3-2.24.05-.21-.18-.54-.36-.73-.32-.32.02-.75-.27-1.06-.33-.37-.03-.7.08-1.04.08-.27.17-.53-.06-.79-.32-.37-.33-.87-.46-1.32-.13-.47.16-.99-.13-1.38-.41-.55-.06-1.28-.53-1.81-.26-.3-.1-.54-.13-.9l1.05,1.53c-.07-.04-.13-.06-.2-.08-.13-.67-.54-1-1.12-1.21-.62-.22-1.29-.33-1.74-.91-.14-.18-.53-.18-.8-.29-.27-.1-.55-.21-.77-.38-.47-.35-.57-1.04-1.1-1.32-.5-.27-.77-.59-1.26-.88-.34-.19-.69-.85-.97-1.11-.62-.6-1.58-.68-1.72-1.63-.26-.28-.42-.68-.84-.77-.54-.12-.85-.46-.95-.99-.02-.1-.04-.23-.1-.27-.51-.33-.96-.72-1.02-1.37-.32-.38-.55-.79-.69-1.28-.1-.48-.75-.66-.8-1.21-.02-.44-.25-.74-.55-1.02-.31-.28-.42-.67-.47-1.09-.03-.29-.07-.63-.21-.86-.87-1.28-1.27-2.79-1.03-4.35.08-.58-.05-1.09-.14-1.69-.25-.47-.07-.8.24-1.04.16-.13.06-.27-.14-.43-.43-.82.36-1.44.23-1.84-.17-.58-.17-1.17.19-1.72.15-.22.27-.59.22-.82-.13-.52,0-.93.25-1.38.33-.61.56-1.23.36-1.97-.05-.2-.06-.39-.05-.59l.08-.21c.11-.41.33-.8.54-1.19.22-.37.54-.67.81-.99.29-.32.56-.63.7-1.09.02-.09.14-.18.23-.23,1.1-.62,1.95-1.24,2.66-2.33.16-.23.54-.46.84-.5,1.03-.18,1.88-.39,2.71-1.07.16-.12.44-.2.64-.18.81.11,1.57.09,2.41.12.41,0,.84.04,1.32.12.5.09.89.21,1.28.36,1.23.5,2.31,1.23,3.08,2.37.21.3.37.62.66.9.39.38.7.91.82,1.54.13.62.05,1.35-.25,1.93-.18.38-.37.71-.55,1.04-.17.3-.31.54-.41.86-.39.99-1.22,1.61-2.11,1.81-.41.08-.84.22-1.18.4-.88.48-1.84.58-2.5,1.14-.66.55-1.5.67-1.97,1.27-.28.35-.27.85-.66,1.07-.38.24-.51.65-.6,1.07-.09.37-.49.57-.79.85-.32.3-1.71.17-2-.28-.02-.03-.17-.29-.11-.34-.07-.19-.13-1.45.41-2.33.15-.23.28-.48.44-.7.18-.21.38-.4.61-.54.4-.21.66-.48.83-.91.11-.24.27-.48.46-.67.2-.18.43-.32.67-.41,1.6-.52,2.96-1.13,4.22-1.72.38-.18.76-.36,1.11-.55.14-.07.33-.09.42-.2.23-.34.42-.65.58-.97.2-.33.22-.51.24-.75.05-.43-.24-1.07-.8-1.53-.34-.26-.55-.47-1.01-.57-.37-.08-.64-.22-.94-.39-.15-.09-.3-.17-.48-.26-.17-.07-.28-.14-.52-.17-.2-.21-.52-.27-.81-.41-.24-.1-.47-.11-.7.02-1.01.55-2.11.84-2.98,1.55-.62.23-1.28.68-1.73,1.12-.45.45-.75.85-.74.96-.25.3-.57.55-.83.86-.22.23-.5.43-.69.7-.14.18-.25.39-.29.6l.04-.11c0,.2.02.41.1.62.17.46.1.87-.22,1.22-.51.64-.76,1.39-.48,2.2.13.4.16.78.1,1.15-.04.37-.14.73-.33,1.11-.35.65-.28,1.35.08,1.99.32.47.28.96.12,1.48-.06.24-.19.56-.08.74.23.4.29,1.34.44,1.42.14.07.16.31.17.45.07.41.15.76.28,1.15.13.39.52.68.71,1.05.15.29.38.63.32.94-.13.72.61.98.74,1.56.14.48.39.95.66,1.38.32.51.71.97,1.33,1.18.32.12.5.44.69.73.19.34,1.01,1.31,1.06,1.53.22.92,1.12,1.35,1.83,1.84.35.25.8.36,1.14.61.26.2.42.55.67.78.17.16.61.02.58.38-.03.46.12.61.54.71.49.11,1.04.04,1.43.5.27.31.74.31,1.04.66.21.25.54.49.79.6l1,.45.14,1.21c.01.13.05.3.1.45.2.6-.2,1.23.08,1.79.26.53.12,1.03.11,1.56.01.99.22,1.96.87,2.78.62.81.93,1.73.85,2.76-.03.74.16,1.41.43,2.08.41.9.83,1.79.83,2.82,0,.3.2.48.34.7.7,1.16,1.39,2.27,1.51,3.69.05.42.34.83.58,1.2.25.37.58.68.87,1.01.12,1,.94,1.72,1.07,2.73.04.2.11.32.28.42.23.13.5.27.63.48.33.53.74,1,1.15,1.48.42.47.79.96.99,1.59.4.35.81.69,1.18.97.31.27.59.57.92.81.32.26.63.51,1.02.67.45.21.8.47,1.21.74,1.07.76,2.32,1.27,3.6,1.69,1.28.42,2.62.74,3.99.96.42.09.84.22,1.25.37.34.12.7.22,1.03.09.69-.25,1.38-.23,2.09-.22,2.02,0,4.06-.14,6.09-.43.7-.1,1.4.11,2.11-.08.57-.16,1.21-.27,1.83-.08,1.68-.28,3.36-.62,5.02-1.02l1.56-.38c.27-.07.54,0,.75.19.31.16.31-.3.78.78.1.11.08.95,0,1.07-.53.78-1.18.6-1.97,1.09-.54.34-1.33.42-1.95.62Z"/>
  <path class="cls-2" d="M17.05,83.35c.28-.24.52-.53.99-.57.21-.01.05-.44.38-.35.2.06.41.12.6.16.25.05.3-.12.13-.53-.09-.22-.23-.46.01-.45.24,0,.4-.07.41-.34,0-.24.1-.41.15-.63.1-.44.87-.05.83-.7-.03-.47.39-.56.66-.76.3-.24.64-.45.98-.65.08-.05.22-.02.34,0,.27.05.39-.09.47-.32.14-.37.34-.71.54-1.07l-.39.26-.05-.12c-.06-.1.05-.01.35.26.26.25.45.33.37.16-.11-.22-.18-.38-.4-.55-.34-.27-.24-.22.13-.27.13-.02.23-.06.31-.11.05-.04-.14-.05-.3-.06-.33,0-.37.01-.14-.06.45-.13.63-.38.5-.47-.04-.06-.09-.11-.17-.13-.08-.03-.15-.04-.32.04-.14.08-.15.03-.08-.17.11-.32.13-.63.14-.98,0-.16-.07-.18-.17-.12-.19.12-.38.23-.54.36-.22.19-.2-.15-.23-.47-.02-.18-.1-.11-.19.12-.09.24-.18.51-.28.71-.2.42-.41.51-.59.27-.09-.13-.18-.27-.27-.46-.15-.34-.34-.5-.55-.46-.45.07-.9.15-1.33.27-.28.07-.56.15-.89-.08-.35-.23-.61-.08-.75.33-.11.32-.22.64-.24,1.05-.01.58-.02.53-.57.05-.13-.11-.17-.08-.12.14.03.15.08.41.06.4-.46-.24-.67.08-1.26-.29-.34-.21-.25.12-.08.46.09.18.05.24-.09.19-.13-.04-.15.03-.12.17.12.54-.31.59-.16,1.07-.16.06-.4.08-.5.2-.19.19-.26.44-.74.47-.12.01-.07.2.02.33.14.21-.29.15-.16.35.16.23-.21.17-.43.22-.18.04-.32.09-.19.24.16.14.11.31.11.31l-3.4-.18v-.32c0-.39.44-.58.28-.9-.22-.46.09-.84-.14-1.34-.16-.34.13-.48.5-.44.6.05.82-.15.92-.49.09-.37.09-.83.54-.97.14-.04.08-.34.14-.5.06-.16.12-.33.23-.44.25-.23.77-.05.95-.33.17-.27.26-.64.44-.92.13-.17.32-.28.5-.39.39-.27.76-.62,1.38-.31.18-.09.42-.07.46-.39.05-.42.26-.54.58-.41.06.02.14.06.16.02.18-.3.39-.58.78-.38.2-.17.43-.22.7-.16.26.06.33-.49.63-.35.24.11.38-.03.52-.24.14-.2.33-.22.55-.16.15.04.33.1.43,0,.28-.29.6-.49.93-.58l-.77.3c.1-.13.34-.14.6-.07.15.05.36-.04.14-.22-.18-.14,0-.03.34.06.17.05.09-.02-.12-.09-.14-.05-.27-.09-.32-.1.01,0,.02,0,.02,0,.04,0-.01,0,.13.02.2.02.46,0,.31-.03-.18-.03-.31,0-.06-.18.12-.07.13-.18.02-.17-.27.05-.23-.02-.21-.21.02-.12,0-.23-.07-.28-.09-.04-.24-.02-.42.1-.28.18-.39.09-.52.01-.13-.11-.24-.53-.54-.27-.03.03-.06,0-.08-.03-.09-.23-.23-.38-.39-.41-.16,0-.34.12-.48.38-.06.1-.16.11-.24.02-.27-.31-.6-.38-.72.14-.02.09-.08.12-.15.07-.57-.38-.87.02-1.38.39-.39.26-.77.53-1.25.63-.13.03-.26.05-.3.21-.12.42-.41.57-.85.53-.28-.03-.46.1-.5.38-.07.47-.35.62-.8.6-.21-.01-.41.02-.53.14-.31.3-.83.36-1.02.79-.19.44-.74.47-.97.86-.13.23-.07.65-.39.69-.32.04-.41.3-.53.53-.11.2-.47.1-.76.08-.31-.03-1.25-.78-1.42-1.18-.01-.02.08-.04.13-.03.07.01.15.06.22.1.22.1.3.03.13-.15-.7-.73-.66-1.13-.34-1.41.17-.16.32-.36.62-.36.25,0,.37-.12.36-.39-.01-.33.13-.55.38-.6.84-.17,1.33-.74,1.95-1.15.19-.13.4-.24.61-.35.08-.04.24,0,.27-.08.43-.94,1.37-1.27,2.03-1.96.2-.2.37-.43.51-.73.23-.5.62-.8,1.26-.61.26.07.49.04.73.09.19.05.33,0,.44-.15.26-.33.62-.49.98-.65.37-.15.77-.19,1.16-.34.6-.16,1.19.03,1.47.85.06.16.17.07.27-.15.17-.39.41-.54.65-.46.27.11.52.28.76.45.19.14.32.37.49.52.22.2.48.27.86.21.4-.08.7.07.75.48.12.66.35,1.06.98,1.44.29.22.49.53.57.86.04.36-.02.74-.19,1.07-.19.29-.31.55-.37.83-.06.28-.11.54-.07.9.06.56-.33.82-.74.98-.2.08-.48.1-.53.23-.11.33-.21.65-.69.05-.11-.13-.27-.22-.39-.32.05.17.1.33.16.5.05.15.14.32.16.46l-.53.21s0,.04,0,.06c-.02.14-.09.29-.16.29-.21,0-.45-.15-.65-.09-.2.06-.33.35-.52.45-.15.08-.33.18-.49.05-.39-.31-.5.28-.81.22-.27-.05-.52,0-.75.09-.27.1-.51.26-.6.7-.05.23-.23.24-.38.27-.18.03-.37-.12-.6-.48-.15-.24-.3-.49-.44-.74-.05-.07-.11-.15-.17-.18-.09-.06-.1.06,0,.29l.49,1.04c.11.24.1.55-.03.48-.54-.25-.84.04-1.09.31-.12.15-.12.43-.24.55-.1.1-.33.03-.44.11-.08.05.11.4-.17.23-.34-.22-.45-.18-.43.05.02.28.21.63-.07.68-.18.04-.05.31-.28.35-.22.05-.37.22-.35.41.03.23-.5.23-.37.48.15.2-.13.29-.24.37l-.03.02-.02-.05-3.55-.19c.13-.42.22-.63.26-.93.04-.29.02-.58-.06-.92-.19-.73.13-1.37.76-1.7.47-.23.73-.56.99-.94.17-.26.34-.53.57-.73.22-.21.5-.37.86-.39.21-.01.24-.2.33-.34.25-.34.55-.63.89-.85.35-.19.76-.3,1.22-.24.28.05.51-.11.73-.25.21-.15.4-.37.62-.55.33.12.61.06.9,0,.28-.05.56-.06.86.1.12.07.2.06.28-.04.11-.14.24-.31.38-.32.7,0,1.41-.52,2.16,0,.31-.1.63-.22.97-.21.57-.03,1.16.18,1.81.22.41.08.76.23,1.11.5.93.67,1.86,1.79,2.09,3.1.24,1.29-.05,2.57-.74,3.59-.21.32-.53.55-.86.74l-.23.14-.34.23c-.11.02-.2.08-.23.22-.08.41-.32.59-.57.78-.71.56-1.42,1.22-2.09,1.94-.23.24-.67.24-.86.55-.15.25-.36.49-.77.47-.59.58-1.17,1.18-1.74,1.78-.18.19-.36.38-.55.56-.1.1-.28.08-.52-.03-.3-.14-.61-.29-.92-.48-.12-.07-.33-.28-.37-.38-.24-.68-.28-1.29-.2-1.81.06-.36.33-.57.51-.85Z"/>
  <path class="cls-2" d="M60.74,111.34c-.38.15-.59.62-1.07.51-.22-.05-.25.4-.54.21-.18-.12-.27.03-.45-.06-.23-.13-.33-.03-.45.19-.09.1-.12.2-.34.31-.18.08-.3.04-.43.29-.12.21-.51-.01-.65.17-.29.36-.67.12-.92.73-.28.38-.68.35-.99.47-.41.11-.82.21-1.24.26-.1.01-.22-.06-.33-.12-.24-.14-.41-.04-.59.14-.34.34-1.55.07-1.7.22-.2.25-2.03.55-2.2.46-.1-.04-.2-.15-.27,0-.17-.16-.4.14-.54-.09-.33-.12-.45-.18-.85-.16-.39.03-.7-.89-1.07-.63-.73-.09-1.19-.16-1.32-.08-.23.13-.24-.19-.46-.08-.32.15-.65-.54-.78-.34-.15.22-.27.07-.44.23-.35.32-.62.13-.79-.2-.09-.17-.41.16-.45-.06-.07-.4-.22-.64-.48-.75-.54-.26-1.09-.55-1.58-.9-.3-.23-.66-.44-.72-.9-.44-.36-.59-.61-.82-.71-.41-.02-.29-.48-.75-.45-.62.03-.51.04-.83-.4.07-.17.05-.52-.17-.48-.03-.31-.25-.48-.24-.51.12-.57-.39-.19-.18-.82-.15-.19-.13-.35-.5-.28-.19.03-.26-.05-.2-.21.05-.15-.03-.21-.18-.26-.63-.2-.21-.97-.76-1.22-.01-.23-.24-.38-.37-.57l-.07-.23s-.04-.08-.04-.12c-.07-.39-.22-.76.05-1.21.07-.12-.1-.28-.26-.37-.27-.15.1-.41-.14-.55-.29-.17.04-.38.18-.58.11-.16.21-.31,0-.42-.29-.16-.25-.44-.36-.66-.11-.24.21-.56-.07-.72-.39-.23-.03-.68-.5-.87-.31-.13-.04-.34-.18-.51.47-.32.49-.61.3-.88-.21-.29-.55-.54-.41-.94.04-.13-.22-.23-.32-.36-.1-.12-.22-.24-.26-.38-.07-.29.33-.65.14-.92-.18-.25-.16-.48-.35-.73-.12-.17.01-.57-.04-.76-.12-.43-.83-.63-.42-1.14-.05-.19.02-.42-.28-.53-.38-.13-.47-.34-.31-.64.03-.05.08-.13.04-.15-.27-.23-.51-.46-.28-.82-.14-.22-.19-.45-.12-.72.07-.26-.46-.37-.32-.66.11-.24-.02-.39-.22-.54-.2-.15-.22-.34-.18-.56.03-.15.08-.33-.02-.44-.6-.61-.83-1.3-.59-2.12.09-.31-.09-.53-.19-.81-.26-.18-.15-.37.13-.56.14-.1.02-.14-.19-.17-.49-.29.09-.77-.09-.93-.26-.23-.43-.48-.24-.84.08-.15.11-.35-.02-.43-.29-.18-.31-.39-.22-.67.11-.38.04-.71-.43-.93-.37-.18-.41-.49-.48-.78-.09-.38.2-.84-.25-1.14-.04-.03-.04-.1-.02-.15.27-.62.19-1.14-.45-1.52-.14-.08-.18-.27-.12-.42.21-.5.2-.94-.32-1.26-.1-.06-.14-.18-.1-.27.35-.78-.06-1.41-.27-2.07-.17-.52-.32-1.05-.3-1.62,0-.15.03-.3-.11-.42-.36-.31-.42-.7-.25-1.14.11-.28.05-.52-.19-.7-.4-.3-.46-.68-.28-1.13.09-.21.13-.43.06-.62-.16-.47-.01-1.02-.32-1.45-.32-.43-.12-.99-.36-1.44-.14-.26-.54-.45-.43-.79.11-.34-.08-.58-.22-.85-.13-.24.13-.52.29-.79.17-.29,1.5-.71,1.92-.62.03,0,.26.06.22.1.13.06.65.5.75.94.05.25.16.48.02.76-.11.23-.06.41.18.54.28.16.42.4.36.66-.21.86.09,1.61.23,2.4.04.24.07.49.09.74,0,.1-.09.23-.03.3.69.84.7,1.88,1.14,2.79.13.27.17.46.42.7.4.39.29.83.39,1.49-.12.21-.13.43-.23.64-.08.17-.06.31.06.43.56.56.65,1.27,1,1.89,0,.85.39,1.92.52,1.99.05.24.03.5.02.76-.01.2-.08.42-.09.62-.02.27.12.48.45.62.34.15.45.36.3.65-.25.51-.18.93.3,1.26.47.33.54.76.35,1.26-.17.44-.06.81.4,1.09.34.21.34.51.22.84-.06.16-.19.37-.08.45.25.2.23.77.37.8.14.03.13.17.14.26.02.25.04.46.11.69.07.23.36.41.48.63.09.18.2.4.08.58-.3.43.28.63.22.99-.05.31.01.61.08.9.08.34.22.66.65.88.23.12.23.34.23.55,0,.23.15.96.06,1.09-.35.56.11,1,.32,1.46.11.23.37.41.45.64.07.18-.07.41-.04.61.02.13.42.2.15.37-.34.22-.34.35-.13.53.25.21.67.37.58.73-.06.24.24.42.15.7-.09.31-.05.63.12.88.21.32-.17.74.1,1.02.26.27.09.58.07.88-.04.57.1,1.09.65,1.51.54.41.7.94.5,1.54-.09.26-.1.49-.06.72l-.06-.2c.04.14.1.27.18.4.26.43.52.85.4,1.43-.04.18.12.23.22.32.24.25.48.48.66.75.18.26.24.6.25.99,0,.24.2.4.37.54.16.15.41.2.63.27,0,.3.16.48.3.67.16.17.33.33.37.63.02.12.07.17.19.16.16-.01.35-.06.44.01.24.18.52.29.8.4.28.1.53.25.7.59.28,0,.55-.03.8.01.42.06.83.22,1.27.16.27-.05.5,0,.74.07.33.09.68.13,1.02.17l1.06.02c.71,0,1.43-.06,2.15-.13.22-.02.46.04.7.1.19.05.39.07.54-.11.29-.37.64-.45,1-.55,1.02-.29,2.03-.64,3.01-1.09.34-.15.76,0,1.09-.23.26-.19.56-.34.96-.19.83-.35,1.64-.74,2.44-1.15l.75-.38c.13-.06.31,0,.49.17.23.14.07-.28.72.7.1.1.38.86.37.97-.05.72-.49.57-.79,1.05-.2.33-.63.43-.93.64Z"/>
  <path class="cls-2" d="M11.72,79.62l.07.06c.32-.97,1.08-2.5,2.78-3.79-1.85,1.36-2.57,2.8-2.84,3.73Z"/>
  <path class="cls-2" d="M6.14,35.19l2.83,26.63c2.08-.93,4.12-1.04,5.28-.67,2.33.73,4.96,3.2,3.64,5.39-.19.32-.42.6-.67.86,4.58-1.42,8.76,3.08,4.59,5.59-2.81.57-4.85,1.4-6.34,2.29.79-.46,1.72-.86,2.84-1.16,7.66-1.62,8.25,3.1,6.19,4.86-2.52,1.32-5.69,4.51-7.15,6.05l2.9,2.79,16.18-1.72c3.07-.32,5.29-3.07,4.96-6.14l-5.09-47.99c-.32-3.06-3.07-5.28-6.13-4.96l-19.06,2.02c-3.07.33-5.29,3.08-4.96,6.14Z"/>
  <g>
    <path class="cls-2" d="M108.53,250.5s-2.91,7.39-4.31,8.51c-.14-.14-12.77.38-12.49,9.51,0,3.76,24.24.82,32.39-.44.14-.14-.88-7.07-1.44-17.47-1.12-.09-14.15-.11-14.15-.11Z"/>
    <path class="cls-2" d="M108.36,253.63c-.22.44-.1,1-.56,1.31-.21.14.05.53-.3.62-.22.05-.21.25-.41.32-.27.09-.28.25-.25.53-.01.15.03.27-.09.54-.09.22-.22.29-.18.6.04.28-.45.42-.46.69,0,.14-.04.24-.11.36-.08.14-.16.27-.25.39-.17.25-.34.48-.45.99-.02.05-.05.09-.07.13-.41.21-.84.11-1.25.1-.11-.06-.06.57-.19.41-.1,0-.19.01-.27.02l-1.39.11c-.11,0-.23-.07-.34-.14-.25-.15-.45-.06-.63.13-.35.33-1.64.21-1.78.4-.09.14-.57.4-1.03.63-.44.26-.89.48-.97.49-.11.01-.23-.04-.23.13-.22-.06-.28.3-.5.18-.34.07-.47.1-.75.36-.26.23-1.14-.18-1.19.31-.57.51-.75.95-.74,1.09.03.25-.27.14-.24.39.08.32-.63.52-.46.68.2.16.05.26.2.42.31.33.21.54-.1.72-.16.1.23.33.03.39-.39.12-.53.37-.53.62l.02.29c-.02.24.08.48.3.59.19.12.37.13.48.47.42.05.79.19,1.02.12.32-.21.57.16.88-.17.41-.46.32-.39.86-.33.09.16.39.36.49.16.28.15.55.07.58.1.45.42.38-.2.85.28.26-.04.41.05.53-.31.06-.19.17-.21.3-.09.12.11.22.07.33-.05.46-.46,1.05.17,1.52-.24.29.08.57-.18.86-.17.47.02.94-.06,1.4.3.12.1.36-.04.49-.18.23-.23.46.18.68-.04.26-.25.44.11.64.28.16.14.32.26.5.07.26-.26.57-.17.86-.24.3-.07.62.3.87.05.35-.34.81.07,1.13-.36.21-.28.41.01.64-.1.29.51.63.58.99.42.39-.16.74-.47,1.2-.28.14.06.32-.18.48-.27.16-.08.33-.19.5-.2.36-.03.72.41,1.07.25.33-.15.6-.1.93-.26.22-.1.68.08.92.05.53-.07.89-.76,1.43-.29.23-.03.5.06.67-.23.22-.36.48-.43.81-.24.06.03.14.09.18.06.31-.25.63-.46,1.02-.19.28-.12.56-.14.87-.05.3.09.51-.43.84-.26.24.14.52,0,.61-.16,0-.16,0-.13.07-.04.05.06.14.15.12.07-.08-.21-.22-.31-.24-.32-.01,0,.09.07.31.04.08-.01.09-.04.07-.07-.02-.07-.08-.3-.11-.46-.23-.27-.1-.47.2-.65.15-.09.04-.17-.17-.24-.45-.44.19-.91.03-1.13-.23-.32-.37-.66-.12-1.05.1-.16.15-.4.04-.52-.27-.28-.25-.54-.13-.85.16-.43.14-.85-.29-1.21-.35-.29-.34-.67-.36-1.04-.03-.47.32-.97-.07-1.42-.04-.04-.03-.12,0-.18.36-.68.36-1.32-.2-1.93-.12-.13-.13-.37-.05-.53.29-.56.35-1.08-.1-1.59-.08-.06-.11-.32-.05-.26.27-.05.33-.2.33-.28-.01-.08-.04-.14-.16-.08-.07.02-.11.03-.2.01-.04,0-.08-.02-.12-.04-.05-.02-.04-.05-.25-.09-.17-.05-.33-.1-.52,0-.49.27-.95.23-1.4-.06-.28-.18-.59-.18-.88,0-.49.31-.94.27-1.39-.03-.21-.14-.46-.23-.69-.22-.6.03-1.19-.25-1.78-.06-.6.19-1.18-.15-1.78-.03-.35.07-.69.41-1.05.21-.36-.19-.7-.08-1.05,0-.31.06-.57-.26-.83-.49-.28-.24-.37-1.63-.13-2.01.01-.02.15-.23.19-.19.11-.11.79-.5,1.34-.47.3.01.61-.03.9.17.23.17.46.16.69-.03.28-.23.6-.3.89-.17.95.43,1.92.33,2.89.4.3.02.6.06.9.11.12.02.24.14.34.1,1.22-.45,2.44-.19,3.66-.38.47-.06.86-.04,1.45-.21.5-.14.98-.15,1.45-.12.23.02.47.04.73.07.1-.03.04.11.05.17,0,.08,0,.16,0,.24,0,.16,0,.33,0,.5-.14.47-.19.9-.31,1.3-.1.32-.1.55,0,.78.06.13.11.28.16.43l.07.23.05.16c.06.2.11.41.15.62.08.42.13.83.25,1.24-.14,1,.07,2.36.19,2.47,0,.3-.05.6-.1.9-.04.24-.14.48-.18.72-.06.31.05.6.35.83.31.24.39.52.21.84-.32.55-.3,1.07.12,1.56.43.48.44,1,.18,1.57-.23.49-.17.96.26,1.38.16.15.23.32.24.5,0,.05,0,.08,0,.14,0,.08,0,.16-.01.24-.01.16-.04.31-.08.46-.07.28-.22.58-.11.81.09.26.06.63.02.94-.07.27-.14.51-.1.58.09.17-.05.32-.04.49-.37.18-.64.36-.99.54-.47.09-.84.38-1.36.52-.39.11-1.01.24-1.12.09-.48-.34-.8.22-1.23.13-.36-.08-.73-.04-1.1,0-.42.04-.83.16-1.17.56-.18.22-.45.19-.7.17-.28-.02-1.18.04-1.33-.05-.62-.41-1.23,0-1.82.16-.29.08-.56.32-.85.37-.23.04-.49-.12-.73-.11-.16,0-.31.39-.48.1-.21-.37-.36-.39-.61-.2-.3.22-.56.61-.99.48-.28-.09-.55.18-.88.05-.35-.13-.75-.14-1.09,0-.43.16-.86-.29-1.25-.06-.38.21-.72,0-1.08-.08-.68-.13-1.34-.09-1.96.38-.62.46-1.3.52-1.98.2-.49-.23-.97-.24-1.47-.18-.67.08-1.37.23-2.03-.18-.19-.12-.36,0-.54.05-.93.21-1.88.31-2.79-.27-.27-.17-.62-.15-.95-.14-.32.01-.66.1-1.01.14-.15-.13-.33-.22-.51-.3-.16-.08-.41-.13-.67-.24-.25-.11-.5-.22-.73-.34-.22-.14-.4-.33-.53-.52-.11-.16-.18-.27-.38-.33-.28-.07-.54-.25-.68-.48-.06-.2-.09-.41-.19-.58l-.11-.6v-.77s0-.39,0-.39v-.26c.02-.34.18-.68.41-.98.02-.42-.04-.89.08-1.31.24-.71.57-1.41.9-2.08.19-.42.41-.8.77-1.07.46-.38.87-.84,1.34-1.16.46-.35.92-.71,1.42-.97l.73-.42.75-.34c.5-.24,1.01-.41,1.53-.58.32-.11.66-.11,1-.11.28,0,.55-.02.75-.22.42-.41.93-.55,1.46-.65.37-.08.74-.15,1.12-.21.19-.03.37-.06.58-.09.14-.01.1-.02.12-.02h.01s.02-.04.01-.06c0-.02,0-.03-.01-.04.01-.04-.08.08.05-.15.18-.37.63-.59.75-1.04.1-.37.26-.75.68-.97.47-1,.91-2.03,1.35-3.07l.42-.98c.08-.17.27-.26.53-.27.28-.07-.1-.31,1.03.03.14.01.82.47.88.57.39.66-.08.88-.03,1.52.03.44-.26.87-.37,1.29Z"/>
  </g>
  <path class="cls-2" d="M171.84,180.63c-.05.9.28,1.73-.03,2.58-.14.39.25.84-.04,1.25-.18.25-.09.57-.25.84-.21.36-.16.64-.01,1.06.05.25.14.41.15.95,0,.42-.08.63.1,1.09.15.4-.21,1.02-.09,1.44.24.85-.13,1.45.36,2.38.27.81.1,1.61.13,2.3-.02.89-.05,1.78-.11,2.67-.01.21-.12.42-.2.62-.19.43-.15.83-.02,1.27.25.83-.26,3.24-.12,3.61.19.51.27,4.31.2,4.63-.05.21-.16.4,0,.56-.17.34.11.83-.12,1.11-.12.68-.18.93-.15,1.75.02.78-.85,1.59-.57,2.31-.03,1.54,0,2.51.1,2.73.16.4-.15.57.02.97.23.54-.37,1.6-.14,1.74.24.15.15.48.35.7.42.45.33,1.04.07,1.61-.13.29.3.62.11.87-.33.44-.49.95-.48,1.52l.05,3.67c0,.77.04,1.57-.28,2.28.04,1.17-.04,1.74.05,2.22.26.58-.1,1.15.26,1.68.49.73.41.57.37,1.63-.16.2-.34.79-.14.98-.15.56-.07,1.07-.09,1.12-.41.87.2.71-.29,1.62.04.5-.06.77.3,1,.18.12.2.32.08.56-.12.22-.07.41.04.62.45.89-.22,1.97.17,2.87-.1.54.15,1.09.12,1.63-.05.89,0,1.77-.4,2.59-.1.22.01.67.14.94.06.13.07.25.05.37l-.24,2.01-1.63-.07c-.31-.01-.61-.17-.9,0-.49.26-.81-.08-1.17-.25-.29-.13-.58-.24-.92-.05-.49.27-1.07.2-1.61.28-.56.08-1.12-.27-1.61-.02-.68.36-1.49-.05-2.13.4-.42.29-.75,0-1.19.12-.48-.51-1.1-.56-1.79-.4-.71.16-1.37.46-2.15.31l-1.71-.32.09-.96v-.09c.04-.26-.25-.58-.37-.88-.12-.3-.27-.61-.32-.92-.11-.66.26-1.3.02-1.96-.22-.61-.24-1.09-.46-1.7-.15-.41-.06-1.24-.15-1.68-.18-.98-.95-1.66-.59-2.63-.08-.43-.04-.91-.37-1.24-.41-.42-.54-.91-.41-1.49.02-.1.06-.25.02-.32-.32-.59-.6-1.17-.4-1.87-.17-.52-.26-1.03-.22-1.6.04-.54-.53-.96-.42-1.55.09-.47-.07-.86-.3-1.24-.23-.39-.28-.82-.26-1.27.01-.32.04-.7-.08-.96-.71-1.53-1.04-3.11-.9-4.81.05-.64-.17-1.19-.31-1.84-.29-.49-.21-.85.06-1.17.14-.17,0-.3-.23-.44-.55-.8,0-1.64-.22-2.05-.31-.58-.52-1.2-.36-1.9.06-.29.06-.73-.08-.95-.33-.5-.37-.97-.32-1.54.07-.78-.06-1.53-.57-2.18-.42-.52-.5-1.21-.61-1.87-.14-.85.09-1.76-.41-2.56-.05-.08-.06-.22-.04-.33.2-1.25.04-2.4-.68-3.47-.16-.24-.22-.66-.18-.96.15-1.02.08-1.97-.51-2.85-.11-.16-.17-.44-.14-.63.26-1.57-.25-3.08-.56-4.58-.25-1.2-.47-2.4-.53-3.62-.01-.33-.01-.64-.17-.95-.42-.81-.54-1.67-.41-2.57.08-.56-.02-1.12-.3-1.6-.46-.81-.58-1.64-.44-2.55.06-.42.07-.89-.01-1.31-.23-1.08-.15-2.22-.53-3.26-.39-1.06-.25-2.19-.57-3.25-.19-.62-.63-1.18-.56-1.87.07-.69-.16-1.28-.34-1.92-.16-.56.07-1.09.2-1.6.14-.56,1.49-.96,1.93-.6.03.02.28.22.24.3.15.18.75,1.32.91,2.32.09.55.23,1.09.12,1.64-.09.46-.01.86.26,1.24.32.46.49,1.02.46,1.56-.11,1.79.31,3.53.56,5.28.08.55.14,1.09.19,1.64.02.21-.06.46.01.64.84,2.07.98,4.33,1.57,6.46.18.64.24,1.07.53,1.67.47.99.41,1.89.61,3.38-.1.41-.08.87-.16,1.3-.06.34-.02.65.12.96.67,1.41.85,2.98,1.3,4.46.12,1.84.66,4.31.81,4.51.08.54.1,1.1.12,1.65.02.44-.03.88-.01,1.31.02.57.19,1.09.55,1.51.37.44.52.95.41,1.52-.2,1.01-.06,1.95.48,2.84.54.88.67,1.84.53,2.86-.12.9.04,1.74.57,2.51.38.57.43,1.23.35,1.91-.04.32-.15.73-.03.96.28.52.35,1.75.5,1.86.15.11.16.42.18.6.05.54.1,1.01.21,1.53.11.53.43,1.01.59,1.53.12.41.27.94.16,1.29-.26.84.38,1.46.36,2.23-.01.65.09,1.32.2,1.97.13.77.32,1.51.8,2.14.26.34.29.82.32,1.27.03.5.28,2.13.21,2.4-.29,1.11.25,2.22.53,3.28.14.53.44,1.01.56,1.55.09.41-.01.87.04,1.3.04.29.46.57.2.86-.32.37-.31.65-.07,1.11.11.22.25.42.38.63l-2.18-1.72c.35-.15.72-.27,1.17-.19.5.09,1.02-.19,1.6-.07.62.13,1.35.12,1.98-.01.8-.17,1.54.26,2.26.03.7-.23,1.3-.02,1.95.04,1.22.11,2.43.03,3.58-.47.3-.13.6-.23.91-.31l-2.12,2.21c-.14-.88-.07-1.78.2-2.66.27-.86.31-1.72.27-2.62-.05-1.21-.15-2.45.27-3.63.12-.34,0-.64-.03-.96-.2-1.66-.29-3.3.23-4.93.16-.49.11-1.1.07-1.65-.03-.55-.17-1.08-.26-1.63.43-1.14.13-2.44.56-3.57.09-.23.1-.4.02-.62-.11-.3-.25-.63-.23-.94.09-1.54-.29-3.11.2-4.63-.08-.65-.2-1.29-.24-1.94-.06-1.11,0-2.24-.14-3.33-.09-.67-.08-1.27-.03-1.93.12-1.77.1-3.56.13-5.33l.11-5.33c.02-.55.12-1.1.22-1.64.08-.44.15-.9,0-1.31-.3-.85-.29-1.73-.3-2.62l-.07-7.67c-.02-.89.29-1.71.21-2.62-.06-.73-.08-1.54.22-2.26l.09-6.34.05-2c.01-.35.16-.65.4-.84.24-.31-.2-.49.98-.65.14-.07.93.27,1.02.39.59.87.23,1.55.5,2.6.19.72.07,1.65.12,2.42Z"/>
  <g>
    <path class="cls-2" d="M156.24,250.5s-2.91,7.39-4.31,8.51c-.14-.14-12.77.38-12.49,9.51,0,3.76,24.24.82,32.39-.44.14-.14-.88-7.07-1.44-17.47-1.12-.09-14.15-.11-14.15-.11Z"/>
    <path class="cls-2" d="M156.08,253.63c-.22.44-.1,1-.56,1.31-.21.14.05.53-.3.62-.22.05-.21.25-.41.32-.27.09-.28.25-.25.53-.01.15.03.27-.09.54-.09.22-.22.29-.18.6.04.28-.45.42-.46.69,0,.14-.04.24-.11.36-.08.14-.16.27-.25.39-.17.25-.34.48-.45.99-.02.05-.05.09-.07.13-.41.21-.84.11-1.25.1-.11-.06-.06.57-.19.41-.1,0-.19.01-.27.02l-1.39.11c-.11,0-.23-.07-.34-.14-.25-.15-.45-.06-.63.13-.35.33-1.64.21-1.78.4-.09.14-.57.4-1.03.63-.44.26-.89.48-.97.49-.11.01-.23-.04-.23.13-.22-.06-.28.3-.5.18-.34.07-.47.1-.75.36-.26.23-1.14-.18-1.19.31-.57.51-.75.95-.74,1.09.03.25-.27.14-.24.39.08.32-.63.52-.46.68.2.16.05.26.2.42.31.33.21.54-.1.72-.16.1.23.33.03.39-.39.12-.53.37-.53.62l.02.29c-.02.24.08.48.3.59.19.12.37.13.48.47.42.05.79.19,1.02.12.32-.21.57.16.88-.17.41-.46.32-.39.86-.33.09.16.39.36.49.16.28.15.55.07.58.1.45.42.38-.2.85.28.26-.04.41.05.53-.31.06-.19.17-.21.3-.09.12.11.22.07.33-.05.46-.46,1.05.17,1.52-.24.29.08.57-.18.86-.17.47.02.94-.06,1.4.3.12.1.36-.04.49-.18.23-.23.46.18.68-.04.26-.25.44.11.64.28.16.14.32.26.5.07.26-.26.57-.17.86-.24.3-.07.62.3.87.05.35-.34.81.07,1.13-.36.21-.28.41.01.64-.1.29.51.63.58.99.42.39-.16.74-.47,1.2-.28.14.06.32-.18.48-.27.16-.08.33-.19.5-.2.36-.03.72.41,1.07.25.33-.15.6-.1.93-.26.22-.1.68.08.92.05.53-.07.89-.76,1.43-.29.23-.03.5.06.67-.23.22-.36.48-.43.81-.24.06.03.14.09.18.06.31-.25.63-.46,1.02-.19.28-.12.56-.14.87-.05.3.09.51-.43.84-.26.24.14.52,0,.61-.16,0-.16,0-.13.07-.04.05.06.14.15.12.07-.08-.21-.22-.31-.24-.32-.01,0,.09.07.31.04.08-.01.09-.04.07-.07-.02-.07-.08-.3-.11-.46-.23-.27-.1-.47.2-.65.15-.09.04-.17-.17-.24-.45-.44.19-.91.03-1.13-.23-.32-.37-.66-.12-1.05.1-.16.15-.4.04-.52-.27-.28-.25-.54-.13-.85.16-.43.14-.85-.29-1.21-.35-.29-.34-.67-.36-1.04-.03-.47.32-.97-.07-1.42-.04-.04-.03-.12,0-.18.36-.68.36-1.32-.2-1.93-.12-.13-.13-.37-.05-.53.29-.56.35-1.08-.1-1.59-.08-.06-.11-.32-.05-.26.27-.05.33-.2.33-.28-.01-.08-.04-.14-.16-.08-.07.02-.11.03-.2.01-.04,0-.08-.02-.12-.04-.05-.02-.04-.05-.25-.09-.17-.05-.33-.1-.52,0-.49.27-.95.23-1.4-.06-.28-.18-.59-.18-.88,0-.49.31-.94.27-1.39-.03-.21-.14-.46-.23-.69-.22-.6.03-1.19-.25-1.78-.06-.6.19-1.18-.15-1.78-.03-.35.07-.69.41-1.05.21-.36-.19-.7-.08-1.05,0-.31.06-.57-.26-.83-.49-.28-.24-.37-1.63-.13-2.01.01-.02.15-.23.19-.19.11-.11.79-.5,1.34-.47.3.01.61-.03.9.17.23.17.46.16.69-.03.28-.23.6-.3.89-.17.95.43,1.92.33,2.89.4.3.02.6.06.9.11.12.02.24.14.34.1,1.22-.45,2.44-.19,3.66-.38.47-.06.86-.04,1.45-.21.5-.14.98-.15,1.45-.12.23.02.47.04.73.07.1-.03.04.11.05.17,0,.08,0,.16,0,.24,0,.16,0,.33,0,.5-.14.47-.19.9-.31,1.3-.1.32-.1.55,0,.78.06.13.11.28.16.43l.07.23.05.16c.06.2.11.41.15.62.08.42.13.83.25,1.24-.14,1,.07,2.36.19,2.47,0,.3-.05.6-.1.9-.04.24-.14.48-.18.72-.06.31.05.6.35.83.31.24.39.52.21.84-.32.55-.3,1.07.12,1.56.43.48.44,1,.18,1.57-.23.49-.17.96.26,1.38.16.15.23.32.24.5,0,.05,0,.08,0,.14,0,.08,0,.16-.01.24-.01.16-.04.31-.08.46-.07.28-.22.58-.11.81.09.26.06.63.02.94-.07.27-.14.51-.1.58.09.17-.05.32-.04.49-.37.18-.64.36-.99.54-.47.09-.84.38-1.36.52-.39.11-1.01.24-1.12.09-.48-.34-.8.22-1.23.13-.36-.08-.73-.04-1.1,0-.42.04-.83.16-1.17.56-.18.22-.45.19-.7.17-.28-.02-1.18.04-1.33-.05-.62-.41-1.23,0-1.82.16-.29.08-.56.32-.85.37-.23.04-.49-.12-.73-.11-.16,0-.31.39-.48.1-.21-.37-.36-.39-.61-.2-.3.22-.56.61-.99.48-.28-.09-.55.18-.88.05-.35-.13-.75-.14-1.09,0-.43.16-.86-.29-1.25-.06-.38.21-.72,0-1.08-.08-.68-.13-1.34-.09-1.96.38-.62.46-1.3.52-1.98.2-.49-.23-.97-.24-1.47-.18-.67.08-1.37.23-2.03-.18-.19-.12-.36,0-.54.05-.93.21-1.88.31-2.79-.27-.27-.17-.62-.15-.95-.14-.32.01-.66.1-1.01.14-.15-.13-.33-.22-.51-.3-.16-.08-.41-.13-.67-.24-.25-.11-.5-.22-.73-.34-.22-.14-.4-.33-.53-.52-.11-.16-.18-.27-.38-.33-.28-.07-.54-.25-.68-.48-.06-.2-.09-.41-.19-.58l-.11-.6v-.77s0-.39,0-.39v-.26c.02-.34.18-.68.41-.98.02-.42-.04-.89.08-1.31.24-.71.57-1.41.9-2.08.19-.42.41-.8.77-1.07.46-.38.87-.84,1.34-1.16.46-.35.92-.71,1.42-.97l.73-.42.75-.34c.5-.24,1.01-.41,1.53-.58.32-.11.66-.11,1-.11.28,0,.55-.02.75-.22.42-.41.93-.55,1.46-.65.37-.08.74-.15,1.12-.21.19-.03.37-.06.58-.09.14-.01.1-.02.12-.02h.01s.02-.04.01-.06c0-.02,0-.03-.01-.04.01-.04-.08.08.05-.15.18-.37.63-.59.75-1.04.1-.37.26-.75.68-.97.47-1,.91-2.03,1.35-3.07l.42-.98c.08-.17.27-.26.53-.27.28-.07-.1-.31,1.03.03.14.01.82.47.88.57.39.66-.08.88-.03,1.52.03.44-.26.87-.37,1.29Z"/>
  </g>
  <path class="cls-2" d="M98.58,84.63s-3.82-3.43-9.97-1.91c-4.55,1.2-3.8-.62-4.28-1.26s-2.1-.18-1.86.94,1.12,4.47,6.78,3.67c1.6-.08,3.14,1.24,3.01,2.42s3.78.54,3.78.54l2.54-4.39Z"/>
  <ellipse class="cls-2" cx="128.39" cy="97.62" rx="5.87" ry="4.41" transform="translate(11.16 208.4) rotate(-80.63)"/>
  <path class="cls-2" d="M128.7,91.85s4.92-1.46,9.82,2.54c3.6,3.03,3.7,1.07,4.41.7s1.97.74,1.28,1.65-2.92,3.56-7.7.41c-1.41-.76-3.37-.22-3.75.89s-3.64-1.13-3.64-1.13l-.42-5.06Z"/>
  <path class="cls-2" d="M110.45.03s29.56-2.41,34.02,36.33c.16.16-29.83-.25-34.02-36.33Z"/>
  <path class="cls-2" d="M193.27,26.63s-22.63-19.17-48.81,9.73c-.23.04,24.39,17.17,48.81-9.73Z"/>
</svg>