<?xml version="1.0" encoding="UTF-8"?>
<svg id="illuer_hvid_bg" xmlns="http://www.w3.org/2000/svg" viewBox="0 0 313.36 280.53">
  <defs>
    <style>
      .cls-1 {
        fill: none;
      }

      .cls-2 {
        fill: #ff9400;
      }

      .cls-3 {
        fill: #0354f0;
      }
    </style>
  </defs>
  <path class="cls-1" d="M233.93,24.83l-2.79,14.53s10.97-2.75,25.47,1.11l-3.64,19.58c-14.57-3.91-25.61-1.15-25.61-1.15l6.54-34.07h0l4.05-21.1s.01,0,.03-.01c.62-.14,11.27-2.6,25.26,1.07l-3.94,21.16c-13.81-3.68-24.41-1.36-25.38-1.13Z"/>
  <path class="cls-1" d="M302.79,60.82v.04c-.79.11-8.85.83-30.01-12.78-1.58-1.01-3.15-1.93-4.71-2.76l-3.65,19.62c1.51.8,3.04,1.7,4.57,2.68,21.4,13.75,29.39,12.88,30.04,12.77.03,0,.04,0,.04,0l3.75-19.54v-.03s-.02,0-.03,0Z"/>
  <path class="cls-1" d="M307.36,46.69l-.02.1s.02,0,.04,0l4.07-21.21s-7.73,1.59-30.07-12.77c-1.64-1.05-3.26-2-4.88-2.85l-3.94,21.2c1.56.83,3.14,1.75,4.72,2.77,22.34,14.36,30.08,12.77,30.08,12.77Z"/>
  <g>
    <path class="cls-2" d="M263.25,4.79l-3.94,21.16c-13.81-3.68-24.41-1.36-25.38-1.13l4.06-21.11c.62-.14,11.27-2.6,25.26,1.07Z"/>
    <path class="cls-2" d="M263.73,7.94c-.12.49.13,1-.24,1.42-.17.19.18.5-.14.68-.2.11-.14.3-.32.42-.24.16-.21.32-.1.58.03.15.1.25.06.55-.03.23-.13.34,0,.62.12.25-.29.53-.21.78.16.51-.25.78.16,1.37.2.49-.04.9-.06,1.29-.09.49-.2.97-.33,1.45-.03.11-.15.21-.25.3-.22.2-.22.43-.12.7.18.5-.52,1.74-.42,1.97.14.31-.09,2.42-.19,2.59-.06.11-.19.19-.06.31-.19.16.03.48-.21.59-.04.09-.08.17-.11.24-.04.11-.07.22-.11.32-.06.21-.11.44-.16.8-.05.35-.3.58-.51.75-.21.18-.38.31-.31.72-.05.26-.09.51-.11.64-.79-.17-1.22-.23-1.32-.18-.25.12-.47-.26-.73-.14-.19.08-.52-.09-.78-.25-.26-.15-.46-.29-.53-.19-.18.21-.3.1-.47.27-.33.37-.62.23-.88-.07-.13-.16-.39.24-.49.04-.18-.36-.42-.56-.74-.61l-2-.2c-.42-.06-.86-.04-1.21-.39-.64-.01-.95-.12-1.22-.05-.34.24-.62-.14-.94.21-.43.47-.34.4-.91.33-.1-.16-.41-.37-.52-.16-.29-.15-.58-.07-.6-.1-.46-.42-.39.19-.87-.3-.27.03-.42-.06-.55.3-.07.19-.18.21-.31.08-.12-.11-.22-.07-.34.04-.48.46-1.06-.21-1.55.22-.29-.08-.58.18-.87.16-.48-.03-.94.06-1.41-.3-.12-.09-.36.04-.49.18-.23.24-.47-.17-.68.05-.25.26-.44-.1-.65-.27-.17-.14-.33-.25-.5-.06-.26.27-.53.19-.88.28-.49.11-.9-.22-1.33.07-.3.19-.71.25-1.03.29-.35.05-.66.09-1.15.4-.66.41-.74.11-1.28.33.06-.4-.11-.53-.48-.46-.04-.08,0-.26-.01-.39-.04-.47-.22-.95.19-1.84.13-.26-.06-.47-.08-.76-.02-.27-.05-.57.02-.89.07-.33.25-.65.41-.93s.31-.59.28-.74c-.04-.37.08-.62.03-.99-.03-.25.28-.64.32-.89.1-.55-.45-1.11.16-1.5.05-.24.21-.47,0-.73-.28-.33-.26-.61.03-.87.05-.05.13-.11.11-.16-.14-.39-.24-.76.14-1.06-.02-.31.04-.6.24-.87.19-.26-.24-.64.03-.9.21-.21.17-.45.06-.71-.11-.26-.04-.49.11-.72.1-.16.23-.34.19-.51-.25-.98-.13-1.86.47-2.69.22-.31.17-.65.21-1.02-.15-.33.04-.49.38-.58.18-.05.09-.15-.09-.29-.3-.56.45-.83.36-1.1-.06-.21-.11-.33-.08-.6.05-.33.15-.65.35-.91.16-.22.31-.55.27-.84-.05-.33-.04-.62.02-.86,0-.08.08-.07.14-.09.07,0,.14-.01.21-.02.14-.01.29-.01.45,0,.84.02,1.45-.09,2.08-.6.33-.38.71-.4,1.11-.44.51-.07,1.04.27,1.51-.14.05-.04.13-.03.19,0,.73.34,1.39.34,2.04-.23.14-.12.39-.12.56-.04.58.29,1.12.37,1.68-.06.1-.08.27-.1.37-.04.88.51,1.77.3,2.66.26.71,0,1.41.01,2.1.21.19.06.36.13.55.04.52-.24,1.02-.16,1.49.16.29.2.61.24.93.09.53-.25,1.02-.16,1.47.19.21.16.46.3.7.32.63.06,1.21.43,1.86.34.66-.07,1.21.38,1.85.37.38,0,.8-.27,1.13.02.33.28.7.24,1.08.26.34.02.53.39.74.67.23.3-.04,1.67-.37,1.98-.02.02-.2.19-.23.14-.14.08-.89.31-1.42.16-.29-.08-.6-.11-.83-.37-.2-.21-.42-.25-.68-.1-.32.18-.64.19-.9,0-.85-.61-1.84-.64-2.79-.85l-.88-.22c-.11-.03-.22-.17-.33-.14-1.24.31-2.44-.04-3.65.07-.36.05-.6.03-.95.19-.58.26-1.05.02-1.86-.05-.21-.17-.46-.24-.68-.39-.18-.12-.35-.14-.53-.04-.82.43-1.67.34-2.49.59-1.01-.16-2.36.07-2.47.21-.3.02-.6-.03-.9-.07-.24-.03-.48-.12-.72-.15-.3-.05-.64.1-.76.4-.06.3-.05.36-.27.18-.18-.14-.43-.24-.5-.17-.03.11.02.31.18.5.06.07.12.14.17.2.02.02.03.05.04.06,0,.02.01.02,0,.11-.05.26-.19.51-.4.75-.36.42-.44.89-.16,1.43.21.39.07.74-.2,1.06-.12.15-.34.33-.29.48.13.34-.15.98-.04,1.08.11.09.04.26,0,.36-.1.29-.18.54-.23.83-.04.3.13.63.13.94,0,.24,0,.55-.21.7-.48.35-.05.84-.27,1.23-.19.33-.28.69-.36,1.05-.09.42-.11.85.17,1.31.15.24.05.5-.05.73-.11.26-.32,1.16-.46,1.27-.58.48-.37,1.19-.4,1.81-.01.31.14.64.1.94-.01.12-.08.25-.12.21-.05,0-.1.02-.12.04-.02.04.36-.01.04.06-.41.11-.47.21-.3.19.19,0,.62-.27.41-.11-.14.14.13-.08-.03.07h0c-.17.2-.11.23,0,.11.1-.15-.05.36.12.14.18-.21.26.03.45.1.7.11,1.4.03,2.04-.44.64-.48,1.36-.53,2.06-.22.51.22,1,.25,1.52.19.7-.09,1.41-.2,2.08.21.2.12.37,0,.55-.04.95-.18,1.91-.29,2.81.3.27.17.62.14.93.12.32-.02.63-.14.95-.2.61.49,1.38.25,1.97.74.12.1.21.13.35.06.18-.09.39-.2.56-.16.86.19,1.82-.07,2.59.57.38-.02.76-.08,1.14-.05.42.04.4.03.5.04.08,0,.17-.01.2-.09.04-.1.09-.08.18-.03h0s.07-.1.08-.18v-.12s.02-.03.02-.03l.02-.1.07-.36c.18-.97.35-1.95.55-2.92.06-.3.21-.58.36-.86.12-.23.23-.47.12-.72-.22-.52-.14-1-.07-1.5.2-1.41.4-2.82.57-4.24.06-.49.43-.89.42-1.41,0-.41.05-.86.41-1.21l.62-3.48c.07-.37.14-.73.22-1.09.04-.19.21-.33.46-.39.26-.13-.15-.3,1.02-.19.14-.01.89.31.97.39.51.58.1.89.28,1.52.12.43-.07.92-.08,1.35Z"/>
  </g>
  <g>
    <path class="cls-2" d="M307.36,46.69l-.02.1s.01,0,.02,0c1.91-9.88,4.09-21.21,4.09-21.21,0,0-7.73,1.59-30.07-12.77-1.64-1.05-3.26-2-4.88-2.85l-3.94,21.2c1.56.83,3.14,1.75,4.72,2.77,22.34,14.36,30.08,12.77,30.08,12.77Z"/>
    <path class="cls-2" d="M307.03,42.94c.15-.62-.08-1.26.33-1.81.18-.25-.15-.63.18-.87.21-.15.15-.38.34-.55.25-.21.23-.42.14-.74-.02-.19-.08-.31-.03-.69.04-.3.15-.43.03-.78-.11-.31.32-.68.26-1-.13-.64.3-1-.08-1.74-.17-.62.09-1.15.14-1.64.12-.62.26-1.24.42-1.86.04-.15.16-.28.27-.4.24-.27.25-.56.16-.89-.16-.61.66-2.35.48-2.18-.04-.03-.07-.12-.07-.29-.03-.06-.04-.14-.06-.22v-.12s-.01-.04-.02-.05l-.08.02c-.18.03-.29.03-.3,0-.01-.04,0-.15-.13,0,0-.03,0-.05-.02-.05-.07-.03-.19.11-.21-.07,0-.01-.07-.03-.02-.04-.05-.02-.11-.04-.15-.06-.1-.03-.19-.06-.28-.09-.18-.05-.38-.09-.69-.12-.59-.08-1-1.05-1.57-.89-1.09-.29-1.78-.43-1.96-.4-.33.08-.36-.26-.68-.18-.45.1-1.01-.68-1.17-.51-.18.2-.38.03-.59.17-.45.29-.84.06-1.14-.31-.16-.19-.53.13-.63-.11-.18-.43-.47-.7-.86-.85-.84-.3-1.67-.6-2.48-.96-.51-.22-1.06-.42-1.4-.91-.78-.32-1.11-.57-1.47-.63-.5.05-.7-.45-1.21-.29-.69.21-.56.2-1.23-.19-.05-.21-.35-.57-.56-.45-.29-.32-.66-.41-.68-.45-.37-.65-.55-.06-.9-.79-.34-.13-.46-.3-.78-.07-.17.12-.3.07-.39-.13-.08-.18-.22-.2-.41-.19-.78.08-1.13-.88-1.9-.86-.29-.27-.76-.25-1.09-.47-.53-.36-1.1-.65-1.41-1.29-.08-.17-.42-.23-.65-.22-.39.02-.41-.49-.78-.49-.43,0-.42-.42-.54-.71-.09-.23-.19-.45-.5-.44-.44.02-.72-.26-1.07-.42-.36-.16-.48-.68-.91-.66-.22.05-.2.02-.28-.05-.06-.06-.14-.12-.18.09-.03.29-.1-.11-.15-.03-.12-.38-.26-.64-.38-.8-.1-.12-.26-.3-.2-.03.05.44.25.83.02.8-.08.01.1.27.16.35.05.1.12.18.12.22,0,.01-.01.02-.03.03l-.08.15c-.06.1-.14.2-.21.3-.14.2-.27.4-.26.66.03.47-.11.79-.08,1.26.02.32-.31.83-.37,1.15-.12.7.4,1.38-.23,1.91-.06.31-.24.61-.03.93.26.4.24.76-.06,1.1-.05.06-.14.14-.12.21.12.48.21.95-.19,1.35,0,.4-.07.76-.28,1.12-.2.34.22.79-.07,1.15-.23.28-.19.58-.09.91.1.32.02.62-.14.92-.11.21-.25.45-.22.66.11.61.12,1.2.02,1.77-.04.26-.13.62-.21.79-.05,0-.13.01-.25.07-.09.05-.11.09-.1.12.02.02.1.01.14.02.22-.11.06-.03-.08.26-.04.07-.03.09,0,.07.01,0,.03-.03.06-.06.04-.02.09-.04.15-.06.76-.02.88.84,1.23.89.5.06.96.22,1.23.7.11.2.34.42.55.43.47,0,.72.21.98.55.34.45.8.75,1.44.69.52-.05.91.24,1.3.49.51.33.82.98,1.54.98.07,0,.15.07.19.13.51.78,1.2,1.24,2.18,1.21.21,0,.47.16.6.33.44.61.98,1.02,1.78.97.15,0,.33.07.41.19.67.99,1.77,1.26,2.74,1.71.78.37,1.55.72,2.25,1.22.19.14.36.28.61.28.66.01,1.19.29,1.64.78.28.31.64.46,1.05.42.68-.04,1.2.17,1.66.66.21.22.48.42.77.51.73.21,1.37.71,2.15.74.78,0,1.41.54,2.17.56.45.03.9-.24,1.3.01.4.27.82.17,1.23.14.35-.04.62.28.91.49.14.11.26.51.36.92.13.41.15.86-.02,1.07-.02.02-.21.26-.27.21-.15.12-1.17.53-1.94.4-.43-.04-.85-.09-1.21-.34-.3-.21-.59-.27-.94-.15-.42.15-.88.14-1.22-.1-1.15-.73-2.41-1.02-3.61-1.5-.37-.16-.73-.33-1.09-.51-.14-.07-.25-.24-.39-.25-1.64-.16-3.05-1.02-4.57-1.52-.46-.15-.74-.29-1.24-.32-.81-.08-1.28-.57-2.22-1.12-.17-.28-.44-.49-.63-.75-.15-.21-.34-.34-.59-.37-1.14-.16-2.1-.79-3.16-1.16-1.04-.85-2.65-1.68-2.85-1.67-.33-.22-.64-.48-.93-.75-.23-.22-.43-.48-.66-.7-.3-.29-.67-.42-1.11-.37-.46.06-.81-.1-1.03-.49-.39-.68-.95-1.08-1.74-1.09-.78-.02-1.33-.39-1.76-1.01-.19-.27-.42-.48-.68-.62l-.28-.13c-.11-.05-.23-.1-.36-.14-.25-.09-.52-.16-.82-.23-.44-.1-.85-.28-1.2-.49-.08-.06-.19-.1-.23-.17l.1-.32c.07-.22.15-.43.24-.64.17-.4.44-.85.41-1.13-.03-.87.24-1.49.14-1.66-.11-.11-.03-.33.01-.45.12-.37.21-.7.26-1.07.06-.38-.11-.79-.09-1.19,0-.31.03-.7.24-.9.5-.47.09-1.08.33-1.58.21-.43.31-.9.41-1.36.11-.54.15-1.09-.11-1.65-.14-.3-.02-.63.08-.93.12-.34.38-1.49.52-1.64.61-.64.43-1.53.48-2.32.03-.39-.11-.8-.06-1.19.04-.3.28-.57.35-.87.03-.12-.05-.19-.06-.39-.01-.22.01-.43.19-.54.44-.28.53-.54.5-1.25-.04-.83-.2-1.95.13-2.78.11-.27.15-.64.19-1.04.02-.2.05-.4.08-.59l.03-.14s.08.05.13.08c.09.06.18.13.28.21.83.68,1.63,1.19,2.35,1.49.46.2.92.56,1.32.89.41.33.77.63,1.22.78.26.1.33.12.44.18.11.06.2.13.29.21.17.16.32.35.5.51.69.6,1.41,1.05,2.34,1.13.92.08,1.66.51,2.2,1.25.39.54.9.86,1.47,1.14.77.37,1.59.7,2.11,1.47.15.22.39.22.61.29,1.13.36,2.2.8,2.98,1.79.24.29.65.43,1.01.56.36.13.76.17,1.15.25.53.74,1.49.84,2.05,1.54.11.15.22.2.4.19.24-.02.5-.05.69.05.96.51,2.12.53,2.94,1.36.45.07.92.1,1.35.21.74.2,1.47.47,2.22.54.46.05.85.14,1.27.29.57.21,1.14.34,1.71.46.29.07.57.1.86.14l.43.06.91.06.67.04.82.7.32.26.28.21.12.09.15.18.3.37.59.74-.14.68c-.07.35-.17.71-.27,1.06l-.16.51-.08.23-.06.14c-.13.3-.26.61-.16.92.19.65.09,1.27-.01,1.9-.29,1.8-.57,3.61-.83,5.41-.09.63-.48,1.15-.51,1.81-.02.52-.1,1.1-.48,1.55l-.83,4.44c-.09.47-.18.93-.28,1.4-.05.24-.23.43-.49.52-.19.12-.04.26-.36.3l-1.19,1.1v-.07l-1.44-1.53c.13,0,.32,0,.61.02.08-.01.33.09.55.2l.12.13v-.07s.04-.03.04-.03c-.17-.09-.31-.18-.34-.22-.48-.71-.05-1.13-.19-1.92-.1-.54.12-1.17.16-1.72Z"/>
  </g>
  <path class="cls-1" d="M305.57,46.33l-2.79,14.53c-.78.11-8.84.83-30.01-12.78-1.58-1.01-3.15-1.93-4.71-2.76l-3.65,19.62c-4.58-2.45-9.05-4.13-13.24-5.25l3.64-19.58c-14.5-3.86-25.47-1.11-25.47-1.11l2.79-14.53c.97-.23,11.57-2.55,25.38,1.13l3.94-21.16c4.18,1.1,8.66,2.75,13.25,5.17l-3.94,21.2c1.56.83,3.14,1.75,4.72,2.77,22.34,14.36,30.08,12.77,30.08,12.77Z"/>
  <g>
    <path class="cls-2" d="M256.61,40.47l-3.64,19.58c-14.57-3.91-25.61-1.15-25.61-1.15l6.54-34.07h0s.02,0,.02,0l-2.79,14.53s10.97-2.75,25.47,1.11Z"/>
    <path class="cls-2" d="M256.94,44.46c-.15.63.08,1.27-.32,1.82-.18.25.16.63-.18.88-.21.15-.15.38-.34.55-.25.22-.23.42-.13.75.02.19.09.31.04.69-.04.3-.15.44-.02.79.11.31-.32.69-.25,1,.14.64-.29,1.01.09,1.75.17.62-.08,1.15-.13,1.65-.12.63-.25,1.25-.41,1.87-.04.15-.16.28-.27.4-.24.27-.24.56-.16.9.1.17-.14,1.24-.35,2.01-.22.81-.42,1.47-.4,1.75,0,.06,0,.15-.04.47-.3.02-1.33-.16-2.36-.36-.52-.11-1.03-.22-1.42-.3-.45-.11-.53-.12-.6-.15-.14-.07-.24-.2-.38-.07-.2-.2-.59,0-.74-.25-.45-.19-.61-.29-1.18-.36-.54-.04-.98-.98-1.53-.77-1.08-.18-1.76-.17-1.93-.1-.29.14-.39-.18-.68-.04-.4.18-1.1-.45-1.21-.22-.12.24-.35.13-.51.32-.34.41-.74.29-1.13.02-.2-.14-.44.29-.61.11-.3-.33-.65-.49-1.06-.49-.86.02-1.72.07-2.57.11-.54.03-1.09.09-1.61-.18-.82.11-1.22.06-1.55.19-.38.31-.81-.01-1.14.39-.47.56-.28.46-1.13.54-.28-.13-.94-.19-1.19.06-.32-.02-.63.02-.87.06-.25.06-.43.11-.46.11-.42-.11-.64-.01-.9.09-.25.1-.54.2-.82.02-.33.1-.53.13-.76.22-.08-.04-.14-.09-.32-.02-.21.08-.18-.16.02-.58.19-.38.17-.54.09-.71-.17-.36.01-1.06.19-1.69.18-.65.35-1.24.26-1.83.25-.82.03-1.04.13-1.47.15-.62.21-1.25.7-1.76.13-.14.07-.47-.03-.69-.16-.36.31-.56.17-.9-.16-.4.24-.54.47-.75.18-.17.35-.34.23-.63-.17-.4.01-.78.04-1.18.03-.41.48-.71.33-1.11-.22-.55.34-1.02.03-1.56-.2-.36.15-.52.12-.85.59-.21.76-.63.74-1.14-.02-.55-.2-1.09.14-1.61.11-.16-.07-.46-.09-.7-.02-.24-.06-.48-.02-.71.01-.06.03-.11.05-.17l.11-.27c.08-.19.17-.36.26-.53.17-.34.32-.64.34-1.07.05-.83.21-1.33.27-2.22.04-.63.4-1.26.49-1.77.11-.58.1-1.41.15-2.16.04-.74.14-1.39.39-1.28.1-.54.26-.72.23-1.95-.04-1.56.09-2.44.31-2.37.04.01.1.06.11-.13.02-.38.05-.75.07-1.1.01-.22.02-.21.03-.31.01-.07.02-.13.04-.18.06-.18.14-.12.25.31.09-.41.2-.5.35-.25.13.2.14-1.28.3-.84.12.31.19-.05.26-.51.07-.46.17-.48.27-.38.07.07.15.14.21-.07.11-.41.23-.68.35-.86.06-.09.13-.17.18-.2.04-.01.07,0,.1,0h.02s0,0,0,0h0s0,0,0,0h0l-.11,2.36h0s-.01.03-.01.03l-.02.06-.05.12-.09.24c-.06.16-.11.32-.17.49-.12.39-.26.75-.41,1.15-.15.3-.21.52-.2.76,0,.12-.05.2-.13.27-.29.45-.28,1.07-.4,1.32-.19.34-.38.68-.41,1.21-.02.21-.07.52-.16.63-.21.24-.31.54-.35.97-.06.57-.19,1.08-.57,1.3-.31.18-.45.61-.6,1.03-.2.52-.09,1.35-.56,1.62-.05.03-.07.13-.06.21.03.53,0,1-.12,1.36l-.05.13s.04-.16.05-.24c.05-.24.09-.5.13-.77v-.1s.01-.04.02-.05h.05s.2.07.2.07c.13.04.27.07.41.11.28.07.56.15.86.23.16.08.21-.02.33-.04.11-.03.22-.06.35-.08.12-.02.25-.03.37-.04.09,0,.14,0,.2.02.79.21,1.48.21,2.16-.29.12-.09.34-.14.48-.08,1.17.42,2.3.1,3.44.01.91-.07,1.81-.1,2.71.08.24.05.47.1.71,0,.65-.26,1.3-.19,1.92.12.39.19.8.22,1.2.06.67-.26,1.29-.2,1.9.17.28.17.61.3.92.32.82.05,1.58.44,2.4.37.84-.08,1.57.38,2.39.43.48.02,1-.23,1.44.06.44.29.91.29,1.39.33.43.04.69.44.98.73.32.32.06,1.69-.33,1.99-.02.02-.24.18-.28.13-.17.07-1.11.25-1.79.07-.38-.11-.77-.15-1.09-.41-.26-.22-.55-.27-.88-.14-.39.16-.8.15-1.15-.04-1.14-.59-2.4-.71-3.63-.88-.38-.06-.76-.15-1.15-.23-.15-.03-.3-.16-.44-.13-1.57.34-3.13,0-4.68.21-.46.06-.77.04-1.21.23-.73.32-1.35.09-2.39.1-.28-.15-.6-.21-.9-.33-.24-.1-.46-.09-.68.01-.51.24-1.03.39-1.56.5l-.79.18-.39.1c-.1.03-.31.09-.31.11-.12-.03-.27-.04-.41-.03-.06,0-.17.04-.19,0,.01-.07.03-.13.04-.19.06-.23.13-.33.18-.26.01-.15-.01-.42-.03-.74-.01-.25-.06-.65-.06-.97,0-.41.08-.45.23.24.16.71.18.85.13.01-.09-1.48,0-2.15.13-.79.12,1.37.1,1.25.14-.61.03-1.61.12-2,.1.06-.01,1.52,0,1.07.08-.37.03-.66.1-1.97.09-1.49-.02.47,0,.51,0,.49h0c-.02.16-.04.11-.06.64-.04.87-.04.65-.04.59,0-.2-.02-.29-.05-.09-.03.21-.07,1.68-.08,2.06-.01.32-.02.62-.03-.22-.02-.98-.03-.73-.04-.38,0,.36,0,.82-.03.54-.04-.46-.07-.38-.1-.29-.03.1-.05.54.08,1.77.07.65.05.46.02.35-.03-.14-.07-.13-.15-.34-.16-.45-.21-.37-.2-.22,0,.17.07.41.09.53.02.13.19.37.21.4.02.02-.16-.05-.19,0-.01.04.08,0,.11.12.03.12.03.22-.14.28-.42.14-.49.33-.4.71.11.45.39.9.12,1.39-.18.33-.02.75-.24,1.12-.24.4-.38.9-.37,1.37.02.59-.55,1-.47,1.56.08.53-.23.9-.42,1.34-.34.82-.5,1.67-.24,2.58.26.9.11,1.77-.38,2.54-.18.28-.31.57-.4.87-.04.15-.08.3-.11.46-.03.16-.06.35-.04.33.03.23.18.14-.34.72-.15.18-.04.15.05.11l.03-.02c.29-.17.44-.28.54-.29.05,0,.09.01.15.06.08.04.03.13.45.21.38.11.82,0,1.22-.08.4-.08.78-.27,1.17-.39.87.35,1.81-.02,2.66.38.17.08.3.08.46,0,.21-.12.46-.26.68-.25,1.13.05,2.3-.32,3.4.19.48-.08.95-.16,1.44-.18.82-.03,1.65.09,2.46.03.5-.04.94,0,1.43.1,1.29.28,2.6.42,3.88.7l.97.19.29.06.12.03c.16.04.31.08.48.13h.04s.11.01.19,0c.08-.01.16-.1.03-.23-.06-.05-.11-.1-.16-.15-.04-.06-.02-.29-.02-.42.01-.32.06-.63.11-.95.28-1.81.55-3.62.79-5.44.08-.63.47-1.16.5-1.82.02-.53.1-1.1.47-1.56l.8-4.47c.09-.47.18-.94.28-1.4.05-.25.23-.43.49-.52.27-.18-.14-.38,1.04-.29.14-.02.89.35.96.45.49.71.05,1.13.2,1.92.1.54-.11,1.18-.15,1.73Z"/>
  </g>
  <g>
    <path class="cls-2" d="M304.57,61.22l-3.76,19.54c-.64.1-8.64.97-30.04-12.77-1.53-.98-3.06-1.88-4.57-2.68l3.65-19.62c1.56.83,3.13,1.75,4.71,2.76,21.17,13.61,29.23,12.89,30.01,12.78Z"/>
    <path class="cls-2" d="M304.9,65.07c-.15.6.08,1.22-.32,1.75-.18.24.16.61-.18.84-.21.14-.15.37-.34.53-.25.21-.23.4-.13.72.02.18.09.3.04.67-.04.29-.15.42-.02.76.11.3-.32.66-.25.97.14.62-.29.97.09,1.69.17.6-.08,1.11-.13,1.59-.12.6-.25,1.2-.4,1.8-.04.14-.16.27-.27.38-.24.26-.24.54-.16.86.08.3-.08.84-.24,1.34-.2.7-.42,1.45-.4,1.66,0,.15-.04.51-.14.97-.02.12-.05.24-.08.37-.02.06-.02.14-.06.18l-.19.04c-.26.05-.53.09-.81.13-.28.03-.56.07-.83.09-.28,0-.55,0-.78-.01-.47,0-.81-.05-.89-.08-.19-.07-.29-.19-.43-.06-.23-.19-.63.03-.8-.23-.48-.2-.65-.27-1.23-.37-.56-.1-.92-1.05-1.48-.92-1.05-.29-1.71-.46-1.88-.42-.32.07-.34-.26-.66-.19-.45.11-.95-.7-1.12-.52-.18.2-.37.03-.58.16-.45.29-.81.06-1.1-.31-.15-.19-.52.12-.61-.11-.17-.42-.44-.7-.81-.84-.81-.3-1.61-.6-2.39-.95-.5-.22-1.02-.41-1.35-.89-.75-.32-1.07-.56-1.42-.62-.48.06-.68-.44-1.17-.28-.68.22-.55.2-1.2-.17-.05-.2-.33-.56-.54-.44-.28-.31-.63-.4-.65-.44-.35-.64-.54-.05-.87-.77-.33-.13-.45-.3-.76-.06-.16.12-.3.07-.38-.12-.08-.18-.21-.2-.4-.18-.76.09-1.09-.86-1.84-.82-.28-.27-.74-.24-1.06-.45-.51-.35-1.06-.63-1.36-1.26-.08-.17-.41-.23-.63-.21-.38.02-.39-.48-.75-.47-.42.01-.4-.41-.51-.7-.09-.23-.18-.44-.49-.43-.43.03-.7-.25-1.04-.4-.35-.15-.46-.67-.87-.64-.29.02-.48-.14-.68-.28-.1-.07-.2-.14-.31-.19-.06-.02-.12-.04-.18-.04h-.1c-.05-.01-.11-.02-.17-.03-.63-.06-.79-.52-1.33-.72.06-.68-.76-.81-.45-1.66,0-.38-.02-.76,0-1.18.01-.21.04-.43.08-.64.04-.19.08-.27.17-.41.1-.16-.07-.45-.1-.68-.03-.23-.07-.47-.03-.68.09-.45.63-.75.6-1.24-.03-.45.1-.77.07-1.22-.02-.31.31-.81.36-1.11.12-.68-.41-1.34.22-1.85.06-.3.23-.59.02-.9-.27-.39-.24-.74.06-1.07.05-.06.13-.14.12-.2-.12-.47-.22-.92.18-1.31,0-.38.07-.73.27-1.08.2-.33-.22-.77.06-1.11.22-.27.19-.57.09-.88-.1-.32-.02-.6.13-.89.09-.11.29-.68.28-1.02-.01-1.11.09-2.32.29-3.44.1-.56.22-1.09.36-1.56l.11-.35.06-.16c.02-.05.02-.14.11-.05.26.2.53.41.79.62.77.64,1.33.83,2.08,1.23.59.11,1.01.53,1.22,1.02.11.25.29.23.55.15.27.04.53.16.75.29.22.13.24.2.34.32.16.21.27.43.44.46.49.06.94.2,1.19.68.1.2.31.42.5.42.45,0,.69.2.94.53.33.44.77.73,1.39.66.51-.06.88.23,1.27.46.5.3.8.94,1.5.94.07,0,.14.07.18.13.49.76,1.15,1.23,2.11,1.16.21-.01.46.14.58.31.42.61.94,1,1.72.95.14-.01.32.07.4.18.65.94,1.71,1.21,2.66,1.65.76.32,1.51.66,2.18,1.16.18.13.34.28.59.27.65-.02,1.17.25,1.59.74.27.31.62.46,1.01.4.66-.08,1.17.15,1.61.64.21.22.47.4.74.48.71.22,1.33.7,2.08.71.75.03,1.37.5,2.1.54.43,0,.88-.24,1.26,0,.39.25.8.18,1.19.13.34-.04.6.29.88.49.24.23.63,1.58.32,1.99-.02.03-.2.25-.26.2-.16.14-1.12.51-1.89.41-.4-.07-.83-.07-1.17-.34-.28-.22-.57-.27-.91-.14-.41.16-.84.12-1.18-.09-1.11-.71-2.34-.98-3.5-1.45-.36-.14-.72-.3-1.06-.49-.13-.07-.24-.24-.38-.25-1.61-.11-2.96-.98-4.44-1.43-.44-.14-.71-.28-1.2-.31-.8-.05-1.26-.52-2.16-1.06-.17-.28-.42-.48-.6-.74-.15-.21-.33-.32-.58-.35-1.13-.12-2.03-.75-3.07-1.1-1.03-.79-2.57-1.62-2.78-1.59-.32-.21-.61-.47-.9-.73-.23-.21-.42-.46-.65-.67-.29-.28-.65-.41-1.08-.35-.45.06-.79-.09-1-.47-.37-.67-.91-1.05-1.69-1.09-.77-.04-1.3-.38-1.71-.99-.08-.12-.22-.27-.27-.33-.04-.06-.08-.1-.14-.12-.11-.05-.24-.01-.32.17-.1.27-.11.17-.33-.19-.09-.16-.3-.49-.3-.4.11.42-.05.47.04.65.1.16.06.17.04.19-.06.06-.11.15-.11.26,0,.06.05.13.11.19.03.19.07.39.07.58,0,.3-.03.67-.23.87-.49.46-.08,1.04-.32,1.53-.2.41-.3.87-.4,1.32-.11.53-.14,1.05.12,1.6.14.29.03.61-.08.9-.12.33-.37,1.44-.51,1.59-.6.62-.42,1.48-.47,2.25-.02.38.11.78.07,1.15-.03.29-.27.55-.35.84-.05.2.27.5-.06.61-.42.14-.49.32-.39.68.06.22.16.44.21.66.01.06.02.11.03.17.01.03.03.02.03.03.01,0,0,.01-.05.02-.13.05.13,0-.04.09-.16.1-.08.19,0,.13.05,0-.02-.04.08.05.11.09.2.19.29.3.19.2.37.4.65.45.53.1.76.52,1.11.83.66.59,1.36,1.02,2.27,1.09.9.06,1.62.49,2.13,1.21.37.53.86.85,1.42,1.11.75.36,1.54.68,2.03,1.43.15.22.38.22.59.28,1.1.34,2.13.77,2.87,1.74.23.29.62.42.97.55.35.13.74.16,1.11.24.51.73,1.44.82,1.96,1.52.11.14.21.2.38.19.23-.02.49-.05.68.05.92.51,2.06.52,2.83,1.36.44.07.89.1,1.31.21.72.2,1.42.49,2.15.55.45.05.82.17,1.23.32,1.09.41,2.23.64,3.33.83.25.05.59.08.77.11.08.01.1,0,.16.01.08,0,.23.04.23-.09.02-.05.11-.06.22-.12.07.05.22-.42.11-.68-.2-.63-.09-1.23,0-1.84.28-1.74.55-3.49.79-5.24.08-.61.47-1.11.5-1.75.02-.51.09-1.06.47-1.5l.8-4.3c.08-.45.17-.9.28-1.35.05-.24.23-.41.49-.5.27-.17-.14-.37,1.04-.27.14-.02.89.35.96.45.49.7.05,1.09.2,1.86.1.52-.11,1.13-.15,1.67Z"/>
  </g>
  <path class="cls-3" d="M220.53,119.38c.57-.35.87-.97,1.54-1.12.32-.07.31-.59.72-.57.26.01.37-.21.63-.23.33-.03.45-.22.56-.55.09-.18.13-.3.37-.61.19-.24.36-.3.44-.67.08-.31.61-.46.71-.77.19-.62.69-.82.63-1.62.02-.64.44-1.03.59-1.5l.37-.84c.12-.28.21-.58.32-.86.05-.14.19-.25.31-.36.26-.24.25-.55.18-.87-.02-.06-.02-.14-.02-.22,0-.04,0-.08.01-.13v-.07c.02-.06.04-.15.04-.18.02-.08.04-.16.06-.24l.02-.06v-.02s.02,0,.03,0v-.03s.06-.12.06-.12c.05-.16.15-.35.23-.46.14-.23.27-.4.4-.58.24-.35.45-.64.44-.77,0-.21.28-.96.54-1.68.27-.72.49-1.42.56-1.52.1-.13.24-.22.13-.38.23-.18.06-.6.33-.72.21-.44.33-.6.41-1.17.06-.52,1.01-1,.74-1.56.07-1.11-.09-1.77-.21-1.9-.21-.24.09-.42-.14-.65-.35-.28.06-1.11-.29-1.21-.21-.03-.29-.19-.43-.33-.03-.07-.07-.14-.13-.19-.12-.11-.19-.25-.23-.41-.02-.08-.04-.16-.04-.25,0-.07.02-.15.04-.22.06-.27.22-.56.21-.88.04-.09.13-.15.17-.24-.18.05-.17-.08-.21-.14-.03-.07-.04-.13.04-.17.36-.2.55-.53.53-.89-.04-.78-.29-1.5-.68-2.06-.1-.2-.28-.34-.41-.51-.11-.2-.27-.35-.36-.61-.29-.22-.58-.3-.77-.41-.19-.11-.36-.16-.54-.15-.45.15-.71-.34-1.15-.01-.58.43-.42.32-1.14.25-.06-.08-.19-.17-.33-.21-.14-.04-.28-.04-.28.06-.08-.07-.16-.09-.21-.09-.05.02-.08.06-.09.05-.4-.23-.05.27-.85.25-.27.24-.48.3-.4.68.04.2-.06.31-.28.32-.2.01-.28.13-.34.32-.23.76-1.27.78-1.52,1.53-.37.19-.5.66-.82.91-.51.42-.96.9-1.67,1.05-.19.04-.34.36-.39.6-.08.39-.59.3-.67.67-.09.43-.5.33-.82.4-.25.05-.49.12-.53.43-.07.44-.41.68-.63,1.02-.22.34-.76.41-.79.84-.02.57-.7.78-.54,1.35.19.2-.1.1-.05.21-.58,0-.79.32-.63.5.18.21.52.11.51.41.02.1.27-.12.35-.19.1-.07.17-.17.22-.17.05,0,.09.11.18.2.02.05.15.07.26.07.11,0,.23-.02.33-.08.4-.23.75-.27,1.15-.53.27-.17.91-.16,1.22-.29.7-.28,1.03-1.11,1.88-.88.32-.13.71-.15.92-.51.3-.45.62-.65,1.53-.57.12.01.26.03.39.04.09.01.18.02.25.03.14.03.25.05.36.07.12.03.18.04.33.1.19.09.39.22.56.37.08.08.16.16.23.25.04.05.06.07.11.15.05.09.11.19.15.29.09.21.14.43.15.65.01.19,0,.39-.05.59-.13.46-.22.55-.33.73-.05.07-.14.18-.17.21l-.1.11c-.16.16-.24.22-.32.29-.31.24-.44.31-.61.41-.3.16-.57.21-.88.15-.4.22-.78.33-1.22.33-.42,0-.63.59-1.1.52-.37-.05-.63.14-.86.39-.23.26-.53.34-.86.37-.23.02-.51.03-.67.19-.89.87-1.76,1.38-2.8,1.65-.39.11-.56.43-.75.7,0,.33-.19.34-.53.3-.17-.02-.12.1.03.25.11.24,0,.33-.11.43-.12.1-.27.21-.2.31.2.21.3.1.08.38-.09.11-.07.26.05.2.26-.14.24-.11.32.06,0,.11.29.18.51.16.24-.02.48-.13.71-.34.36-.35.83-.36,1.3-.43.61-.09,1.3.19,1.89-.3.06-.05.17-.05.25-.03.49.11.96.13,1.44.04.24-.05.48-.12.74-.22.15-.05.27-.11.46-.17.09-.03.17-.06.32-.09.13-.03.24-.06.54-.05h.17s.09.02.09.02c.05.01.14.04.21.06.15.05.3.12.45.2.07.04.15.09.21.13l.07.05c.05.04.11.09.16.14.1.1.2.22.29.34.09.12.16.25.22.39.06.12.15.4.18.63.09.46-.09,1.1-.16,1.21-.09.23-.23.45-.39.63-.13.14-.15.15-.23.23-.07.06-.14.12-.22.18l-.11.08c-.06.04-.17.1-.21.12-.38.19-.54.2-.71.21-.98-.02-1.64.04-2.26.66-.11.11-.31.19-.46.16-1.23-.2-2.28.38-3.28.82-.81.35-1.57.71-2.33.97-.21.07-.4.13-.51.33-.29.53-.61.77-1.03.88-.27.07-.36.29-.2.44.14.14.2.13.22.3.03.14-.05.23-.13.37-.09.14-.06.31.06.39.3.21.86.71,1.6.61.71-.09,1.46.26,2.24.1.46-.1.87-.47,1.36-.33.5.14.94-.05,1.39-.2.4-.13.8.12,1.19.26.41.15.88,1.47.63,1.92-.02.03-.16.28-.22.24-.14.15-1.03.73-1.86.83-.45.05-.9.15-1.34,0-.37-.13-.69-.1-1.03.11-.41.25-.91.33-1.36.19-.74-.23-1.48-.38-2.25-.62-.76-.24-1.59-.53-2.27-1.22-.42-.42-.74-.97-.86-1.54-.05-.22.03-.46-.05-.63-.21-.49-.26-1.15-.11-1.73.14-.59.44-1.1.78-1.52.69-.84,1.51-1.39,2.27-1.94.46-.33.79-.48,1.2-.87.69-.63,1.45-.7,2.61-1.04.35.06.72.01,1.07.05.28.04.52-.02.74-.18.51-.37,1.07-.61,1.64-.82l.83-.31c.25-.1.56-.23.64-.31h0s.13.29.13.29l.27.53c.09.14.18.28.23.35l.09.09s.06.02.05.02c.02,0-.02,0-.03.03v.02c-.05.05-.03.03-.04.04l-.03.04c-.04.06-.05.12-.06.2-.09.26-.09.44-.1.78l-.02.28s0,0,0,.01h0s-.08-.01-.08-.01c-.05,0-.14,0-.21,0-.32.02-.69.09-1.01.16-.65.14-1.18.31-1.25.38-.43.07-.87.07-1.31.07-.35,0-.71-.06-1.07-.08-.47-.02-.89.11-1.28.42-.4.32-.9.39-1.41.15-1.08-.45-2.12-.7-3.12-1.45-.97-.75-1.12-2.5-.61-3.4.44-.9.8-1.63,1.01-2.55.16-.68.71-1.12,1.3-1.35.28-.11.66-.17.79-.36.3-.46,1.28-.86,1.32-1.02.04-.16.29-.26.44-.31.43-.17.8-.31,1.19-.5.4-.19.71-.58,1.1-.8.31-.17.71-.38,1.02-.31.72.16,1.1-.51,1.71-.55.51-.04,1.02-.18,1.47-.33.13-.04.25-.09.35-.14.05-.03.09-.05.12-.07.02-.01.02-.02.02-.03h0s.1.18.1.18c.07.14.15.28.24.41.25.45.54.77.62.76-.04.03-.11.06-.14.33.02.06-.04.33-.01.48,0,.18.05.33.07.62.08.72.1.45.07.58-.05.21-.36.25-.66.31-.33.06-1.52.49-1.75.46-.93-.14-1.68.52-2.51.9-.41.19-.77.53-1.23.68-.36.12-.71.03-1.42.13-.39.05-.95.48-1.24.16-.35-.39-.63-.43-1.3-.43-.76-.02-1.67-.19-2.09-1.14-.27-.59-.68-1.19-.59-2,.1-.87.5-1.8.74-2.67.05-.14.11-.27.18-.4.05-.09.1-.16.15-.24.11-.14.24-.27.36-.39.24-.25.48-.46.58-.79.21-.61.71-.86,1.12-1.21.78-.66,1.42-1.37,1.78-2.35.35-.97,1.06-1.69,2-2.08.68-.29,1.21-.72,1.72-1.23.69-.68,1.38-1.41,2.38-1.68.29-.08.41-.32.59-.51.24-.25.48-.49.76-.71l.21-.17.33-.22c.22-.16.48-.29.74-.4.13-.04.25-.15.4-.14h.42c.26.03.62.07.79.1.35.08.7.17,1.04.33.41.22.94.25,1.43.29.49.1,1.01.1,1.54.19.43.46.96.67,1.44,1.1.5.35.92.87,1.13,1.43.06.25.14.39.33.54.27.19.54.44.64.74.54,1.48.93,3.08.12,4.5l-.04.17c.02.11.05.21.07.28-.02.06.11.11.14.16l.03.03c.08.12.15.24.22.37l.24.71.25.71c.06.24.12.47.2.7.22.61.22,1.17.2,1.79-.1,1.62-.36,3.17-.8,4.62-.44,1.45-1.01,2.83-1.68,4.12-.21.4-.5.75-.78,1.09-.12.14-.23.27-.32.42-.09.16-.13.28-.07.32.04.05.09.09.12.12,0,0,0,.03.02,0,.01-.03.02-.05.02-.02v.11s0,.23,0,.23c0,.15-.02.31-.04.46-.04.31-.08.62-.17.92-.53,2.21-1.53,4.3-2.82,6.14-.23.32-.51.57-.79.83-.29.24-.58.49-.81.81-.37.51-.86,1.01-1.51,1.21-1.33,1.2-2.78,2.22-4.3,3.11-.48.28-.97.54-1.48.78-.27.12-.55.11-.8-.04-.33-.11-.29.36-.89-.66-.1-.1-.2-.94-.15-1.06.34-.82.94-.74,1.5-1.37.37-.43,1.01-.7,1.46-1.07Z"/>
  <path class="cls-3" d="M210.66,96.23c.86-.78,1.44-1.77,2.64-2.2.14-.05.26-.12.38-.21.14-.09.29-.19.43-.29.25-.17.43-.27.72-.24.35.03.63-.21.98-.24.47-.03.74-.25,1.07-.66.22-.21.32-.39.79-.78.36-.32.61-.43.85-.92.19-.42.93-.72,1.09-1.19.17-.45.37-.77.53-1.13.16-.35.24-.76.08-1.22-.16-.68-.14-1.42-.39-1.76-.24-.44-.73-.79-1.6-1-.19-.05-.4-.17-.6-.28-.22-.11-.45-.16-.7-.16-.12,0-.24,0-.37.03-.12.02-.28.05-.31.08-.02.01-.03.02-.07.03-.05.03-.11.03-.18.05-.06.03-.12.08-.19.13-.05.02-.46.37-.78.65-.18.15-.35.3-.51.44-.1.09-.15.13-.35.28-.09.06-.17.12-.25.18-.27.19-.46.34-.52.43-.17.27-1.16,1.08-1.98,2-.22.22-.43.44-.63.64-.18.22-.35.43-.5.61-.3.36-.53.62-.6.68-.2.15-.4.27-.38.51-.35.23-.44.84-.81.99-.47.63-.69.85-1.06,1.71-.15.42-.54.75-.86,1.13-.3.38-.58.79-.56,1.23-.44,1.78-.37,2.94-.3,3.19.14.46-.14.67.04,1.13.06.15.08.35.09.55.01.23-.04.38-.02.69.02.62.03,1.09.2,1.25.26.26.37.68.57,1.08,0,.08-.08.13-.11.19-.16.31-.59.6-1.11.83-.26.12-.54.22-.83.31-.14.04-.28.08-.43.12-.14.03-.2.03-.31.05-.4.04-.59.6-.95.57-.65-.06-1.3.07-1.96.38-1.44.58-2.89,1.14-4.35,1.69-.92.36-1.9.62-2.86.59-1.42.44-2.13.59-2.7.82-.67.41-1.46.2-2.04.69-.81.68-.63.55-1.98.8-.28-.11-1.06-.19-1.26.04-.73-.05-1.37.12-1.44.11-1.16-.26-.88.34-2.09-.02-.63.08-.98.01-1.25.39-.14.19-.4.23-.72.13-.29-.1-.53-.03-.8.09-1.12.57-2.54-.15-3.7.27-.69-.08-1.41.16-2.11.08-1.14-.12-2.29-.08-3.32-.6-.27-.13-.86-.07-1.21.02-.61.15-1.06-.31-1.63-.21-.68.13-1-.3-1.42-.56-.34-.21-.66-.39-1.14-.3-.68.1-1.38-.16-2.08-.26-.72-.11-1.29-.68-1.98-.61-.97.08-1.8-.66-2.76-.54-.31.03-.55-.06-.77-.17-.14-.07-.14-.09-.2-.12-.05-.03-.1-.05-.16-.05-.04-.15-.07-.27-.11-.37-.08-.12-.2-.14-.33-.12h-.05s-.11.05-.11.05l-.22.09c-.15.06-.29.14-.44.22-.82.45-1.54,1.03-2.57,1.18-.32.05-.67.42-1.01.63-.35.21-.7.44-1.07.58-.78.3-1.62.11-2.38.54-.71.39-1.29.55-1.99.94-.47.27-1.49.41-2.01.62-1.16.46-1.87,1.42-3.1,1.34-.51.2-1.09.29-1.45.72-.44.53-1.02.8-1.75.83-.03,0-.07,0-.1,0l-.03-.02s-.04-.01-.04,0c-.09.26.18.34-.38.22,0,.09-.06.1-.5.12h-.06s.24.09.43.11c.19.03.3.03.18.08-.18.09.08.14.28.08.1-.03.14-.04.16-.03,0,0,.01.02.01.03h0s.08.08.08.08l.16.14c.3.26.64.58.98.7,1.97.69,3.72,1.69,5.27,3.13.58.54,1.27.81,1.99,1.22.67.17.96.52,1.09.97.07.23.29.24.59.19,1.16.23,1.58,1.29,2.13,1.45.78.24,1.51.56,2.08,1.24.2.19.04.16.24.26.17.09.37.16.52.16.69.01,1.21.22,1.8.59.81.46,1.7.77,2.66.61.78-.13,1.56.16,2.35.33,1.02.23,1.94.89,3.07.71.11-.02.28.03.39.09.68.33,1.36.59,2.07.71.71.1,1.44.08,2.19-.08.33-.07.84.02,1.17.16,1.15.44,2.3.64,3.51.33.22-.06.57-.03.79.03.9.3,1.84.41,2.78.45.47.02.95.02,1.42.02.47-.03.95-.05,1.41-.08,1.5-.08,2.99-.04,4.47-.03.4.01.78.04,1.18-.09,1.04-.37,2.1-.35,3.18-.23.68.09,1.36-.01,1.97-.28,1.02-.47,2.04-.52,3.14-.46.51.03,1.08.01,1.59-.11,1.32-.33,2.73-.27,3.98-.82,1.26-.56,2.64-.6,3.91-1.08.37-.14.72-.34,1.07-.52.35-.2.71-.37,1.12-.41.83-.09,1.52-.47,2.25-.8.65-.3,1.31-.19,1.95-.19.7,0,1.4,1.23,1.03,1.76-.02.03-.23.33-.33.32-.2.19-1.53,1.09-2.76,1.5-.67.23-1.33.51-2.02.54-.56.04-1.07.15-1.53.49-.55.4-1.25.67-1.94.73-1.13.08-2.21.36-3.32.55l-3.32.63c-.69.11-1.38.24-2.07.3-.27.02-.58-.06-.81.01-1.33.42-2.72.66-4.12.87-1.4.15-2.81.22-4.2.43-.83.14-1.38.15-2.2.33-1.34.3-2.47.14-4.38.04-.49-.19-1.07-.28-1.58-.45-.41-.13-.8-.17-1.22-.09-.97.19-1.95.16-2.94.12-.99-.04-1.98-.09-2.96-.13-1.14-.28-2.52-.47-3.64-.65-1.12-.19-1.99-.3-2.14-.27-.69-.13-1.36-.37-2.02-.6-.53-.19-1.02-.42-1.55-.61-.68-.26-1.36-.37-2.03-.26-.69.12-1.36-.04-1.97-.45-.54-.35-1.08-.65-1.66-.86-.29-.1-.59-.19-.9-.26-.15-.04-.31-.06-.47-.09l-.26-.04c-.12-.03-.25-.04-.36-.09-.28-.11-.35-.11-.52-.17-.15-.05-.29-.1-.43-.16-.28-.12-.55-.26-.81-.41-.52-.32-.99-.71-1.44-1.16-.78-.79-1.71-1.34-2.82-1.57-.81-.17-1.49-.66-2.08-1.25-.28-.28-.6-.68-.9-.77-.7-.2-1.93-1.13-2.14-1.1-.2.02-.52-.21-.71-.35-.55-.39-1.05-.72-1.62-1.05-.29-.17-.61-.29-.93-.4-.36-.14-.52-.15-1.18-.51-.86-.47-2.02-1.11-2.46-1.57-.5-.54-1.19-.92-2-1.34-.8-.41-1.71-.86-2.28-1.29l-.04-.03c1.58-.49,2.92-.99,4.25-1.5.79-.3,1.54-.61,2.26-.95.68-.33,1.61-.8,1.8-1.07.37-.35.95-.52,1.49-.67.6-.17,2.54-.89,2.87-.89,1.39-.03,2.65-.88,3.9-1.47.62-.29,1.16-.73,1.79-1,.49-.21,1.06-.23,1.58-.41.35-.12.62-.62,1.01-.45.5.22.83.13,1.35-.25.62-.45,1.12-1.03,2.05-1.21.62-.12,1.15-.58,1.87-.7.05,0,.25-.06.38-.1l.45-.13c.3-.1.6-.19.9-.29.45.2.8.35,1.18.49.18.07.41.15.54.19l.33.08c.93.19,1.62.89,2.53.95.88.03,1.49.47,2.24.72.7.24,1.41.45,2.13.55.73.09,1.46.1,2.2,0,.73-.09,1.46-.15,2.18-.07.72.07,1.44.24,2.14.44,1.03.29,2.07.45,3.17.38,1.48-.07,2.96-.15,4.42.12.43.09.78-.05,1.17-.12,1-.15,1.98-.37,2.97-.5.99-.14,1.99-.1,3.01-.08.62.03,1.34-.17,1.98-.34.64-.18,1.26-.42,1.87-.69,1.45.02,2.89-.7,4.35-.68.3-.02.5-.08.72-.25.31-.23.64-.5,1-.62.9-.29,1.76-.69,2.64-1.04.86-.41,1.71-.79,2.66-.96l.51-.31c.08-.06.11-.11.16-.16.09-.1.15-.17.22-.23.01,0,.02-.02,0-.03-.04-.09-.07-.17-.1-.26-.03-.14-.03-.03-.09-.53-.1-.75-.16-1.49-.22-2.23-.08-.94.02-1.8.22-2.72.54-2.45,1.5-4.81,2.88-6.86.36-.5.68-1.03,1.09-1.49l1.2-1.39c.42-.44.87-.84,1.31-1.25.22-.2.44-.42.67-.61l.71-.54c.29-.22.6-.43.91-.63l.47-.29.06-.03.03-.02h0s0,0,0,0c-.18-.26,1.57,2.23.83,1.17h0s-.02-.04-.02-.04l-.04-.06-.16-.22c-.2-.28-.47-.6-.67-.8,0,0,.01,0,.02,0,.03,0,.1-.06.15-.1.21-.15.43-.33.64-.53.11-.1.2-.2.3-.32l.35-.43c.25-.31.54-.61.88-.83.34-.23.74-.31,1.16-.35.71-.03.9-.05,1.3-.05.36,0,.75.01,1.15.06.98.11,2.09.33,3.21,1.01,1.13.67,2.03,1.96,2.34,3.17.07.29.14.6.19.89l.07.87c.02.58-.06,1.21-.19,1.74-.25,1.1-.7,2.08-1.25,2.94-.77,1.2-1.86,1.89-2.81,2.81-.77.73-1.75,1.41-2.8,1.64-.33.18-.67.34-1.02.5l-.53.23c-.12.06-.13.07-.21.1-.36.21-.84.58-1.28.95-.9.78-1.78,1.66-2.58,2.58-.5.58-.97,1.17-1.35,1.73-.2.3-.42.43-.71.48-.14.04-.1.11-.19.14-.04-.03-.23-.13-.83-.04-.07.02-.3.02-.52-.08-.22-.1-.42-.33-.43-.42-.11-.7.14-1.19.4-1.67.28-.46.63-.91.95-1.53.44-.86,1.33-1.68,2.01-2.41Z"/>
  <path class="cls-2" d="M87.67,192.06c-27.13,2.79-47.77-2.03-61.89-14.47-14.17-12.41-22.34-29.41-24.55-50.96-2.21-21.55,2.33-39.83,13.68-54.89,11.32-15.06,30.29-23.94,56.87-26.67,26.58-2.73,47.61,2.04,61.5,14.51,13.88,12.44,21.94,29.45,24.16,51,2.21,21.55-2.23,39.82-13.29,54.84-11.06,15-29.89,23.9-56.45,26.62"/>
  <path class="cls-3" d="M69.99,38.48c2.68-12.43,10.67-28.48,32.58-28.98-.69,8.76-5.35,29.3-29.48,35.89.4,1.2.7,2.31.92,3.28l.13.62.02.14c.21,1.41-.73,2.76-2.14,3.04-1.42.28-2.8-.6-3.15-1.98l-.03-.14-.11-.54c-1.27-5.68-5.67-15.95-16.44-19.74l-.54-.18-.13-.05c-1.33-.51-2.05-1.98-1.6-3.36.45-1.37,1.89-2.14,3.27-1.77l.13.04.66.22c7.81,2.75,12.8,8.17,15.89,13.5Z"/>
  <ellipse class="cls-3" cx="75.03" cy="103.73" rx="3.92" ry="5.23" transform="translate(-9.07 7.21) rotate(-5.19)"/>
  <ellipse class="cls-3" cx="105.49" cy="101.03" rx="3.92" ry="5.23" transform="translate(-8.7 9.95) rotate(-5.19)"/>
  <path class="cls-3" d="M101.6,128.8c-.68.73-4.54,2.41-5.57,2.63-2.81.58-8.59.23-11.44-.16-1.38-.19-4.45-1.41-5.27-2.54-2.16-3.01,1.21-3.1,3.6-2.87,1.93.19,2.83,1.13,4.43,1.48.91.2,5.64.15,6.71.03,2.32-.26,4.79-2.57,6.38-2.53,2.61.07,2.66,2.35,1.16,3.96h0Z"/>
  <path class="cls-3" d="M46.23,188.27c-.04.91.29,1.76-.01,2.63-.14.4.26.85-.03,1.27-.18.26-.09.58-.24.85-.21.36-.16.65,0,1.08.05.26.14.42.15.96.01.43-.07.65.11,1.11.16.4-.2,1.04-.08,1.47.24.87-.12,1.48.38,2.42.27.83.11,1.64.15,2.34-.01.91-.04,1.81-.09,2.72-.01.21-.11.43-.2.63-.19.44-.15.85,0,1.3.26.84-.24,3.3-.1,3.68.19.52.3,4.39.22,4.72-.05.21-.16.4,0,.57-.17.34.11.85-.11,1.13-.11.7-.17.95-.14,1.78.03.79-.84,1.62-.56,2.36-.02,1.57.02,2.56.11,2.78.17.4-.15.58.02.99.23.55-.36,1.64-.13,1.78.25.15.15.49.35.71.42.46.33,1.06.08,1.64-.13.3.3.63.12.88-.33.45-.48.97-.47,1.55l.07,3.74c0,.79.04,1.6-.26,2.33.05,1.19-.03,1.77.07,2.26.27.59-.1,1.17.27,1.71.5.74.41.58.38,1.66-.16.2-.34.81-.14.99-.15.57-.06,1.09-.08,1.14-.41.89.2.72-.28,1.65.04.51-.05.78.31,1.01.18.12.21.33.08.57-.12.23-.07.41.04.63.45.9-.21,2.01.19,2.93-.1.55.15,1.11.13,1.66-.04.9,0,1.8-.39,2.65-.1.22.02.68.14.95.1.2.06.4.02.58l-1.95-1.97c.24.06.47.14.72.03.51-.24.82.13,1.18.32.29.15.57.28.94.11.52-.24,1.1-.14,1.65-.18.57-.04,1.12.34,1.64.11.72-.32,1.51.14,2.19-.27.45-.27.76.05,1.22-.05.46.54,1.08.63,1.79.51.76-.13,1.47-.4,2.29-.16.26.07.63-.15.96-.22.32-.07.66-.15.98-.15.68,0,1.26.48,1.96.36.65-.11,1.14-.04,1.79-.15.44-.08,1.25.16,1.71.15,1.01,0,1.84-.65,2.75-.12.44,0,.92.12,1.31-.14.23-.15.46-.24.7-.27l-2.08,1.97c-.02-.28.04-.57.18-.86.05-.1.12-.23.1-.31-.17-.66-.31-1.3.05-1.95-.05-.56,0-1.09.16-1.64.16-.53-.3-1.08-.05-1.64.19-.45.13-.86,0-1.3-.13-.44-.08-.88.04-1.32.09-.31.2-.68.15-.97-.34-1.69-.29-3.32.24-4.98.2-.62.11-1.22.12-1.89-.17-.55,0-.89.33-1.15.17-.13.07-.3-.12-.49-.35-.92.38-1.62.26-2.08-.16-.65-.23-1.31.09-1.97.13-.27.23-.71.14-.96-.21-.57-.14-1.04.04-1.61.25-.75.3-1.53-.05-2.29-.28-.61-.2-1.31-.16-1.99.06-.88.5-1.72.2-2.64-.03-.09,0-.24.04-.33.48-1.19.6-2.37.14-3.61-.1-.27-.06-.71.05-.99.38-.98.53-1.93.17-2.94-.07-.19-.07-.48,0-.66.62-1.5.48-3.11.52-4.67.04-1.25.1-2.49.33-3.71.06-.33.14-.64.05-.98-.22-.9-.13-1.79.2-2.65.21-.54.24-1.11.08-1.65-.26-.91-.18-1.76.17-2.63.16-.4.28-.87.29-1.3.03-1.13.37-2.24.24-3.36-.13-1.14.26-2.23.2-3.36-.04-.66-.34-1.32-.11-1.98.23-.67.15-1.31.11-1.98-.03-.59.32-1.06.57-1.54.27-.52,1.67-.6,2.02-.15.02.03.22.29.17.35.1.22.42,1.49.34,2.52-.04.57-.03,1.14-.26,1.66-.19.43-.21.85-.04,1.29.21.53.24,1.13.09,1.66-.52,1.75-.52,3.57-.68,5.37-.05.56-.12,1.12-.2,1.67-.03.22-.16.44-.14.64.34,2.25-.05,4.52.03,6.78.02.68-.01,1.11.13,1.78.23,1.09-.04,1.97-.19,3.49-.19.39-.28.84-.46,1.25-.14.32-.17.64-.1.98.32,1.55.13,3.16.23,4.73-.32,1.85-.36,4.43-.26,4.66-.05.56-.16,1.11-.27,1.66-.09.44-.23.86-.32,1.3-.12.57-.07,1.13.19,1.63.26.52.28,1.06.04,1.61-.43.96-.51,1.92-.19,2.93.32,1,.22,1.98-.15,2.96-.32.86-.36,1.74-.03,2.63.24.65.13,1.32-.11,1.97-.11.31-.31.69-.25.94.16.58-.07,1.81.05,1.96.12.14.06.46.03.64-.08.55-.14,1.03-.15,1.57-.02.55.19,1.1.22,1.66.02.44.04.99-.15,1.32-.44.77.03,1.54-.17,2.3-.16.64-.22,1.33-.26,2-.06.79-.04,1.57.28,2.31.08.18.1.38.1.59l-.03,2.04-2.22.09c-.24.01-.5-.02-.74-.05-.51-.06-2.19-.1-2.44-.21-1.06-.48-2.27-.14-3.39-.05-.56.05-1.1.25-1.65.28-.43.02-.87-.17-1.32-.19-.3-.01-.65.35-.9.05-.31-.39-.59-.42-1.1-.26-.6.19-1.15.56-1.91.38-.51-.12-1.05.13-1.63-.03-.63-.16-1.37-.2-2.01-.1-.82.13-1.55-.35-2.3-.16-.72.18-1.32-.06-1.98-.16-1.24-.18-2.47-.18-3.67.25-.24.09-.49.16-.74.21l-1.69.36-.53-2.61c-.19-.96-.14-1.95.14-2.91.26-.88.3-1.75.26-2.67-.05-1.24-.17-2.5.25-3.7.12-.35,0-.65-.04-.98-.21-1.69-.31-3.36.2-5.02.16-.5.1-1.12.07-1.68-.04-.56-.18-1.1-.27-1.65.42-1.17.12-2.49.54-3.65.09-.24.1-.41.01-.64-.11-.3-.25-.64-.23-.95.08-1.57-.31-3.17.17-4.72-.09-.66-.21-1.31-.25-1.97-.07-1.13,0-2.28-.16-3.39-.09-.68-.09-1.29-.05-1.97.11-1.81.08-3.62.1-5.44l.08-5.44c.01-.56.11-1.12.21-1.67.08-.45.15-.92,0-1.34-.3-.86-.3-1.76-.31-2.67l-.12-7.82c-.02-.9.28-1.75.19-2.68-.07-.74-.09-1.57.21-2.3l.05-6.46.04-2.04c.01-.36.16-.66.39-.85.24-.31-.2-.5.98-.67.14-.07.93.27,1.02.4.6.88.24,1.58.52,2.64.19.73.08,1.68.13,2.46Z"/>
  <g>
    <path class="cls-3" d="M43.07,277.73l1.24-19.67h25.78s-.78,6.11,9.36,6.84c7.54,1.6,9.89,8.52,9.06,11.14-.83,2.62-24.05,2.17-24.05,2.17l-21.79-1.51"/>
    <path class="cls-3" d="M42.26,273.83c.07-.64-.24-1.24.1-1.84.15-.27-.23-.61.07-.89.19-.17.1-.4.27-.58.22-.24.18-.44.04-.75-.05-.18-.12-.3-.12-.68,0-.3.09-.45-.07-.78-.14-.29.24-.72.13-1.02-.22-.62.17-1.03-.3-1.71-.25-.59-.06-1.15-.07-1.64.04-.63.1-1.27.18-1.9.02-.15.13-.29.22-.43.2-.29.17-.59.05-.91-.23-.6.34-2.29.22-2.56,0-.02-.02-.04-.02-.16v-.72s1.36-.55,1.36-.55c.45-.18,2.92-.32,3.13-.26.15.04.28.15.4,0,.24.16.59-.12.79.1.49.1.67.16,1.25.12.55-.04,1.14.82,1.66.53,1.1,0,1.79-.05,1.94-.15.28-.17.41.14.69-.03.39-.24,1.15.34,1.24.11.1-.25.34-.16.49-.36.32-.43.74-.34,1.14-.1.21.13.44-.31.62-.13.32.32.68.47,1.09.45l2.61-.12c.55-.02,1.12-.06,1.63.23.83-.06,1.24,0,1.58-.09.41-.27.82.08,1.19-.29.51-.51.4-.42,1.16-.4.14.16.57.33.7.12.4.14.76.05.8.07.63.4.5-.21,1.16.26.22-.03.38,0,.5-.07l1.36,1.54s.11.05.25.08c.18.04.21.12.09.24-.1.11-.05.2.08.28.26.16.27.37.3.61.03.23.09.48.38.55.05.27.42.32.57.51.27.33.62.55.81,1.11.06.15.34.17.53.13.31-.07.36.38.67.3.35-.1.38.31.54.54.12.19.26.37.52.27.36-.13.7.03,1.05.06.36.02.64.49,1.01.29.46-.24.89.17,1.33-.04l.24.03s.09-.02.14-.04c.4-.17.58.2.95.2.21.59.61.85,1.17.94.6.07,1.23.12,1.69.61.15.14.5.13.76.21.26.08.53.16.75.31.44.36.51.99.99,1.29.44.29.69.59,1.1.92.3.22.53.87.72,1.17.24.32.57.54.83.82.27.26.47.57.37,1.02.16.33.19.72.54.93.46.26.62.7.51,1.22-.02.09-.05.22-.01.28.15.25.29.52.36.8.06.29.04.61-.11.91.07.53.03,1.08-.27,1.67-.03.05-.18.46-.36.77-.21.37-.32.48-.48.68-.08.09-.16.18-.25.26-.08.08-.13.11-.21.16-.14.09-.3.17-.48.2-.49.02-.81.23-1.11.47-.32.27-.66.3-1.04.29-.26-.02-.55-.06-.76.05-1.17.64-2.38.82-3.63.49-.47-.12-.88.03-1.36.1-.37.23-.63.1-.85-.21-.11-.16-.22-.04-.34.17-.62.44-1.18-.22-1.49-.06-.44.22-.9.34-1.39.08-.2-.11-.52-.17-.68-.06-.39.25-.73.22-1.13.08-.55-.19-1.1-.18-1.61.22-.42.33-.91.29-1.39.3-.62,0-1.24-.39-1.87-.03-.06.04-.17.02-.24-.02-.86-.41-1.69-.46-2.55.06-.19.11-.5.1-.7,0-.73-.33-1.32-.43-2.15-.03-.13.07-.34.07-.46,0-1.05-.61-2.18-.45-3.27-.48-.88-.03-1.74-.08-2.6-.3-.23-.06-.45-.13-.69-.04-.64.23-1.25.15-1.85-.18-.38-.2-.78-.23-1.16-.07-.64.27-1.24.19-1.84-.14-.28-.16-.6-.27-.91-.28-.79-.02-1.56-.35-2.35-.21-.8.14-1.56-.24-2.35-.18-.47.04-.93.35-1.4.12-.46-.22-.92-.13-1.39-.1-.42.03-.74-.31-1.06-.55-.36-.27-.37-1.66-.04-2.02.02-.02.21-.22.25-.17.16-.1,1.05-.43,1.77-.36.39.04.79.02,1.15.25.3.19.59.2.9.03.38-.21.79-.25,1.16-.1,1.21.5,2.49.49,3.74.64.39.05.78.11,1.17.18.15.03.31.16.44.13,1.58-.35,3.16.01,4.74-.08.47-.03.78,0,1.24-.14.77-.24,1.38.03,2.44.16.27.19.59.28.87.45.23.13.45.17.68.09.27-.08.55-.13.82-.17l.21-.02s.05,0,.07-.01h.1s.41-.05.41-.05c.55-.04,1.1-.06,1.65-.15,1.3.22,3.09.11,3.25,0,.39.01.78.09,1.17.16.31.06.61.17.92.23.4.08.79,0,1.12-.3.35-.3.72-.36,1.11-.16.69.35,1.37.36,2.04-.04.67-.4,1.34-.39,2.05-.11.62.24,1.23.2,1.8-.22.42-.31.88-.27,1.35-.11.22.07.5.23.67.13.37-.22,1.22-.16,1.3-.3.07-.14.29-.12.41-.12.37,0,.69-.02,1.04-.09.35-.08.65-.37.95-.51.26-.1.51-.24.75-.13.23.13.44.02.45-.07.07-.06-.03-.07-.08-.04-.01,0-.02.02-.03.03-.04.03-.09.08-.12.14-.07.08-.12.29-.1.31.15-.13.23-.43.21-.78,0-.2-.03-.4-.13-.6-.08-.19-.23-.37-.46-.52-.23-.15-.25-.41-.3-.66-.01-.29-.39-1.15-.38-1.33.13-.79-.6-1.21-1.09-1.62-.23-.23-.63-.27-.86-.48-.18-.17-.27-.44-.45-.63-.13-.12-.49.04-.44-.27.07-.41-.06-.54-.4-.56-.39-.05-.86.18-1.16-.19-.21-.25-.61-.1-.86-.37-.27-.31-.71-.42-1.1-.44-.11,0-.21-.03-.31-.08l.28.04c-.46-.11-.86-.42-1.32-.32-.57.14-1-.21-1.47-.4-.45-.18-.9-.32-1.37-.44-.47-.11-.96-.13-1.5-.15-.54,0-1.07-.1-1.55-.38-.49-.24-.91-.65-1.23-1.13-.46-.7-.96-1.29-1.49-1.97-.7-.91-1.24-2.12-.95-3.3.09-.36-.05-.57-.05-1.05h0c-.37-.44,3.26,3.7,1.72,1.95h0s0,0,0,0h0s-.01,0-.01,0h-.03s-.06.02-.06.02l-.11.02-.22.04-.44.06c-.29.04-.59.06-.88.06-.59,0-1.17-.1-1.75-.34-.35-.15-.78-.09-1.17-.04-.39.05-.77.19-1.16.29-.82-.41-1.74-.09-2.56-.5-.17-.08-.29-.09-.45,0-.21.11-.45.26-.66.25-1.1-.06-2.22.35-3.31-.11-.46.1-.92.23-1.38.28-.79.08-1.6.04-2.37.2-.47.1-.9.1-1.38.07-1.26-.08-2.54-.03-3.8-.03-1.27,0-2.54.02-3.8,0h-.24s1.97-1.86,1.97-1.86c-.05.31-.14.62-.24.92-.1.31-.18.64-.04.93.28.62.25,1.25.23,1.88-.06,1.82-.11,3.65-.13,5.47,0,.63-.33,1.2-.27,1.86.05.52.04,1.1-.28,1.6l-.26,4.51c-.03.47-.06.95-.1,1.42-.02.25-.18.45-.42.58-.25.21.19.36-1,.41-.14.04-.92-.24-1-.33-.57-.65-.19-1.11-.43-1.88-.17-.52-.03-1.18-.06-1.73Z"/>
  </g>
  <path class="cls-3" d="M96.02,190.07c-.01.95.35,1.82.07,2.73-.13.42.29.88,0,1.32-.17.28-.07.6-.22.9-.19.39-.14.68.03,1.12.06.27.15.43.18,1,.02.44-.05.67.14,1.15.17.42-.17,1.09-.04,1.53.27.89-.07,1.55.45,2.51.3.85.16,1.7.22,2.43.02.94.02,1.89,0,2.83,0,.22-.1.45-.18.66-.17.46-.12.89.03,1.35.28.87-.13,3.44.02,3.83.21.53.43,4.56.37,4.9-.04.22-.14.43.01.59-.15.36.14.88-.08,1.18-.09.73-.14,1-.09,1.86.05.82-.79,1.71-.48,2.47.03,1.64.1,2.66.2,2.89.18.42-.13.61.05,1.03.25.57-.31,1.71-.08,1.85.25.15.17.51.37.73.44.46.37,1.09.13,1.7-.12.31.32.64.15.91-.31.48-.45,1.02-.42,1.63l.19,3.89c.03.82.1,1.66-.19,2.43.08,1.24.03,1.84.14,2.35.28.61-.06,1.22.32,1.77.52.75.43.59.44,1.72-.15.21-.31.85-.1,1.04-.13.6-.03,1.14-.05,1.19-.38.94.22.74-.22,1.72.05.53-.03.81.34,1.05.19.12.22.33.1.59-.11.24-.06.43.06.66.48.92-.15,2.09.28,3.04-.06.47.1.93.16,1.4l-2.11-2.07c.11-.01.22-.02.32-.01.94.03,1.87-.02,2.76.36.23.1.71-.02.99-.16.48-.22.9.2,1.35,0,.53-.24.85.13,1.23.32.3.15.59.28.97.11.54-.24,1.14-.14,1.72-.18.6-.04,1.17.34,1.7.11.75-.32,1.57.14,2.28-.27.46-.27.79.05,1.27-.05.48.54,1.13.63,1.87.51.79-.13,1.53-.4,2.39-.16.27.07.66-.15.99-.22.34-.07.68-.15,1.03-.15.71,0,1.31.48,2.04.36.68-.11,1.18-.04,1.86-.15.26-.04.64.01,1,.07l-1.63,1.59c.05-.3.1-.57.1-.78.02-1.05-.6-1.93-.05-2.86.01-.46.15-.95-.11-1.37-.32-.52-.34-1.06-.1-1.64.04-.1.11-.24.09-.33-.19-.68-.35-1.34-.01-2.03-.06-.58-.04-1.13.11-1.71.15-.55-.33-1.11-.1-1.7.18-.47.1-.9-.04-1.35-.15-.45-.11-.91,0-1.38.08-.33.18-.72.12-1.02-.39-1.74-.39-3.45.09-5.19.18-.65.08-1.27.07-1.97-.19-.57-.03-.93.3-1.21.17-.14.06-.31-.13-.51-.38-.95.33-1.7.2-2.18-.18-.67-.26-1.35.03-2.05.12-.29.21-.74.11-1-.22-.59-.17-1.08,0-1.67.22-.79.25-1.6-.12-2.38-.3-.63-.24-1.36-.22-2.07.03-.92.45-1.81.12-2.75-.03-.09-.01-.24.03-.35.45-1.25.53-2.49.04-3.76-.11-.28-.08-.73.02-1.03.35-1.03.48-2.02.08-3.07-.07-.19-.08-.5-.01-.69.58-1.58.38-3.25.38-4.88,0-1.3.02-2.59.22-3.87.05-.35.12-.67.02-1.02-.25-.93-.19-1.85.12-2.76.19-.57.21-1.16.03-1.72-.29-.94-.23-1.83.09-2.74.15-.42.25-.91.25-1.37,0-1.17.3-2.34.14-3.5-.17-1.18.2-2.33.1-3.5-.06-.69-.38-1.36-.17-2.06.21-.7.11-1.37.05-2.06-.05-.62.29-1.11.52-1.62.26-.55,1.65-.68,2.02-.22.02.03.23.29.18.36.11.22.47,1.54.42,2.61-.03.59,0,1.18-.21,1.73-.18.46-.18.89,0,1.34.22.54.28,1.16.13,1.72-.47,1.84-.41,3.73-.52,5.61-.03.58-.09,1.17-.15,1.75-.02.23-.15.47-.12.67.4,2.33.09,4.7.23,7.05.04.7.02,1.16.18,1.85.26,1.13.02,2.06-.09,3.64-.18.41-.26.89-.42,1.31-.13.34-.15.67-.07,1.02.37,1.61.23,3.28.37,4.91-.26,1.94-.23,4.62-.12,4.86-.03.58-.12,1.16-.22,1.74-.07.46-.2.9-.28,1.36-.1.6-.03,1.17.23,1.69.28.53.31,1.1.09,1.67-.4,1.01-.46,2.02-.1,3.06.35,1.03.28,2.05-.06,3.09-.3.91-.31,1.82.04,2.73.26.67.17,1.37-.05,2.06-.1.32-.29.73-.22.99.17.6-.02,1.89.11,2.03.12.14.07.47.05.67-.06.57-.11,1.07-.11,1.64,0,.57.22,1.14.27,1.72.04.46.07,1.03-.11,1.38-.42.82.07,1.6-.1,2.4-.14.67-.18,1.39-.2,2.09-.03.82,0,1.63.35,2.39.18.41.11.91.05,1.38-.07.53-.16,2.28-.28,2.54-.35.75-.31,1.58-.24,2.41l.14,1.54-1.96.23c-.37.04-.75.1-1.11.12-.58.05-1.14.25-1.72.28-.45.02-.91-.17-1.37-.19-.31-.01-.68.35-.94.05-.33-.39-.62-.42-1.14-.26-.63.19-1.2.56-1.99.38-.53-.12-1.09.13-1.7-.03-.65-.16-1.42-.2-2.09-.1-.85.13-1.61-.35-2.39-.16-.75.18-1.38-.06-2.06-.16-1.29-.18-2.57-.18-3.82.25-1.24.42-2.54.45-3.8.1-.55-.15-1.09-.22-1.65-.24l-1.9-.07.04-1.76c0-.37,0-.75-.04-1.14-.09-1.29-.25-2.59.13-3.85.11-.37-.02-.68-.07-1.02-.26-1.75-.42-3.48.04-5.23.14-.53.07-1.17.01-1.75-.06-.58-.21-1.14-.32-1.71.39-1.23.04-2.59.43-3.81.08-.25.08-.43,0-.66-.12-.31-.27-.66-.26-.98.03-1.64-.41-3.29.02-4.92-.11-.68-.25-1.36-.32-2.04-.11-1.17-.08-2.37-.27-3.52-.12-.7-.13-1.34-.11-2.05.05-1.88-.04-3.77-.07-5.66l-.1-5.66c0-.58.08-1.17.16-1.74.07-.47.12-.96-.04-1.39-.33-.89-.36-1.82-.4-2.77l-.37-8.13c-.05-.94.22-1.82.11-2.79-.09-.77-.14-1.63.14-2.4l-.15-6.72-.02-2.12c0-.37.14-.69.37-.9.23-.34-.22-.51.96-.73.14-.08.94.25,1.03.38.62.9.29,1.63.6,2.73.21.76.13,1.74.21,2.56Z"/>
  <g>
    <path class="cls-3" d="M94.99,277.73l1.24-19.67h25.78s-.78,6.11,9.36,6.84c7.54,1.6,9.89,8.52,9.06,11.14-.83,2.62-24.05,2.17-24.05,2.17l-21.79-1.51"/>
    <path class="cls-3" d="M94.19,273.83c.07-.64-.24-1.24.1-1.84.15-.27-.23-.61.07-.89.19-.17.1-.4.27-.58.22-.24.18-.44.04-.75-.05-.18-.12-.3-.12-.68,0-.3.09-.45-.07-.78-.14-.29.24-.72.13-1.02-.22-.62.17-1.03-.3-1.71-.25-.59-.06-1.15-.07-1.64.04-.63.1-1.27.18-1.9.02-.15.13-.29.22-.43.2-.29.17-.59.05-.91-.23-.6.34-2.29.22-2.56,0-.02-.02-.04-.02-.16v-.72s1.36-.55,1.36-.55c.45-.18,2.92-.32,3.13-.26.15.04.28.15.4,0,.24.16.59-.12.79.1.49.1.67.16,1.25.12.55-.04,1.14.82,1.66.53,1.1,0,1.79-.05,1.94-.15.28-.17.41.14.69-.03.39-.24,1.15.34,1.24.11.1-.25.34-.16.49-.36.32-.43.74-.34,1.14-.1.21.13.44-.31.62-.13.32.32.68.47,1.09.45l2.61-.12c.55-.02,1.12-.06,1.63.23.83-.06,1.24,0,1.58-.09.41-.27.82.08,1.19-.29.51-.51.4-.42,1.16-.4.14.16.57.33.7.12.4.14.76.05.8.07.63.4.5-.21,1.16.26.22-.03.38,0,.5-.07l1.36,1.54s.11.05.25.08c.18.04.21.12.09.24-.1.11-.05.2.08.28.26.16.27.37.3.61.03.23.09.48.38.55.05.27.42.32.57.51.27.33.62.55.81,1.11.06.15.34.17.53.13.31-.07.36.38.67.3.35-.1.38.31.54.54.12.19.26.37.52.27.36-.13.7.03,1.05.06.36.02.64.49,1.01.29.46-.24.89.17,1.33-.04l.24.03s.09-.02.14-.04c.4-.17.58.2.95.2.21.59.61.85,1.17.94.6.07,1.22.12,1.69.61.15.14.5.13.76.21.26.08.53.16.75.31.44.36.51.99.99,1.29.44.29.69.59,1.1.92.3.22.53.87.72,1.17.24.32.57.54.83.82.27.26.47.57.37,1.02.16.33.19.72.54.93.46.26.62.7.51,1.22-.02.09-.05.22-.01.28.15.25.29.52.36.8.06.29.04.61-.11.91.07.53.03,1.08-.27,1.67-.03.05-.18.46-.36.77-.21.37-.32.48-.48.68-.08.09-.16.18-.25.26-.08.08-.13.11-.21.16-.14.09-.3.17-.48.2-.49.02-.81.23-1.11.47-.33.27-.66.3-1.04.29-.26-.02-.55-.06-.76.05-1.17.64-2.38.82-3.63.49-.47-.12-.88.03-1.36.1-.37.23-.63.1-.85-.21-.11-.16-.22-.04-.34.17-.62.44-1.18-.22-1.49-.06-.44.22-.9.34-1.39.08-.2-.11-.52-.17-.68-.06-.39.25-.73.22-1.13.08-.55-.19-1.1-.18-1.61.22-.42.33-.91.29-1.39.3-.62,0-1.24-.39-1.87-.03-.06.04-.17.02-.24-.02-.86-.41-1.69-.46-2.54.06-.19.11-.5.1-.7,0-.73-.33-1.32-.43-2.15-.03-.13.07-.34.07-.46,0-1.05-.61-2.18-.45-3.27-.48-.88-.03-1.75-.08-2.6-.3-.23-.06-.45-.13-.69-.04-.64.23-1.25.15-1.85-.18-.38-.2-.78-.23-1.16-.07-.64.27-1.24.19-1.84-.14-.28-.16-.6-.27-.91-.28-.79-.02-1.56-.35-2.35-.21-.8.14-1.56-.24-2.35-.18-.47.04-.93.35-1.4.12-.46-.22-.92-.13-1.39-.1-.42.03-.74-.31-1.06-.55-.36-.27-.37-1.66-.04-2.02.02-.02.21-.22.25-.17.16-.1,1.05-.43,1.77-.36.39.04.79.02,1.15.25.3.19.59.2.9.03.38-.21.79-.25,1.16-.1,1.21.5,2.49.49,3.74.64.39.05.78.11,1.17.18.15.03.31.16.44.13,1.58-.35,3.16.01,4.74-.08.47-.03.78,0,1.24-.14.77-.24,1.38.03,2.44.16.27.19.59.28.87.45.23.13.45.17.68.09.27-.08.55-.13.82-.17l.21-.02s.05,0,.07-.01h.1s.41-.05.41-.05c.55-.04,1.1-.06,1.65-.15,1.3.22,3.09.11,3.25,0,.39.01.78.09,1.17.16.31.06.61.17.92.23.4.08.79,0,1.12-.3.35-.3.72-.36,1.11-.16.69.35,1.37.36,2.04-.04.67-.4,1.34-.39,2.05-.11.62.24,1.23.2,1.8-.22.42-.31.88-.27,1.35-.11.22.07.5.23.67.13.37-.22,1.22-.16,1.3-.3.07-.14.29-.12.41-.12.37,0,.69-.02,1.04-.09.35-.08.65-.37.95-.51.26-.1.51-.24.75-.13.23.13.44.02.45-.07.07-.06-.03-.07-.08-.04-.01,0-.02.02-.03.03-.04.03-.09.08-.12.14-.07.08-.12.29-.1.31.15-.13.23-.43.21-.78,0-.2-.03-.4-.13-.6-.08-.19-.23-.37-.46-.52-.23-.15-.25-.41-.3-.66-.01-.29-.39-1.15-.38-1.33.13-.79-.6-1.21-1.09-1.62-.23-.23-.63-.27-.86-.48-.18-.17-.27-.44-.45-.63-.13-.12-.49.04-.44-.27.07-.41-.06-.54-.4-.56-.39-.05-.86.18-1.16-.19-.21-.25-.61-.1-.86-.37-.27-.31-.71-.42-1.1-.44-.11,0-.21-.03-.31-.08l.28.04c-.46-.11-.86-.42-1.32-.32-.57.14-1-.21-1.47-.4-.45-.18-.9-.32-1.37-.44-.47-.11-.96-.13-1.5-.15-.54,0-1.07-.1-1.55-.38-.49-.24-.91-.65-1.23-1.13-.46-.7-.96-1.29-1.49-1.97-.7-.91-1.24-2.12-.95-3.3.09-.36-.05-.57-.05-1.05h0c-.37-.44,3.26,3.7,1.72,1.95h0s0,0,0,0h0s-.01,0-.01,0h-.03s-.06.02-.06.02l-.11.02-.22.04-.44.06c-.29.04-.59.06-.88.06-.59,0-1.17-.1-1.75-.34-.35-.15-.78-.09-1.17-.04-.39.05-.77.19-1.16.29-.82-.41-1.74-.09-2.56-.5-.17-.08-.29-.09-.45,0-.21.11-.45.26-.66.25-1.1-.06-2.21.35-3.31-.11-.46.1-.92.23-1.38.28-.79.08-1.6.04-2.37.2-.47.1-.9.1-1.38.07-1.26-.08-2.54-.03-3.8-.03-1.27,0-2.54.02-3.8,0h-.24s1.97-1.86,1.97-1.86c-.05.31-.14.62-.24.92-.1.31-.18.64-.04.93.28.62.25,1.25.23,1.88-.06,1.82-.11,3.65-.13,5.47,0,.63-.33,1.2-.27,1.86.05.52.04,1.1-.28,1.6l-.26,4.51c-.03.47-.06.95-.1,1.42-.02.25-.18.45-.42.58-.25.21.19.36-1,.41-.14.04-.92-.24-1.01-.33-.57-.65-.19-1.11-.43-1.88-.17-.52-.03-1.18-.06-1.73Z"/>
  </g>
  <path class="cls-3" d="M12.81,127.81c-.16.75.07,1.5-.33,2.18-.18.31.16.74-.18,1.05-.21.19-.15.47-.34.68-.25.28-.23.52-.13.9.02.22.09.37.05.82-.03.36-.14.53-.01.94.11.36-.31.84-.23,1.22.16.75-.27,1.22.13,2.07.2.72-.04,1.38-.07,1.97-.1.75-.19,1.51-.32,2.26-.03.18-.15.35-.25.51-.22.35-.21.7-.11,1.08.19.73-.47,2.74-.35,3.07.15.45.05,3.69-.03,3.96-.06.18-.18.33-.03.47-.18.28.08.71-.15.94-.13.58-.21.79-.2,1.48,0,.66-.88,1.33-.62,1.96-.06,1.32-.03,2.15.06,2.34.16.34-.16.49,0,.83.22.47-.39,1.37-.16,1.49.24.13.15.42.34.6.42.39.32.9.06,1.38-.13.25.29.54.11.74-.33.38-.49.81-.49,1.3l.04,3.15c0,.66.04,1.35-.27,1.96.04,1.01-.04,1.49.06,1.91.26.5-.1.99.26,1.44.5.63.41.49.38,1.4-.16.17-.34.68-.14.84-.15.48-.06.92-.08.96-.41.75.2.61-.27,1.39.04.43-.05.66.31.86.19.1.21.28.08.48-.12.19-.07.35.04.54.45.76-.2,1.69.2,2.47-.09.46.16.93.13,1.4-.04.76.01,1.52-.37,2.23-.1.19.02.57.15.8.22.39-.2.73,0,1.1.23.43-.14.69-.32.99-.15.24-.28.48-.11.79.24.44.13.93.17,1.4.04.48-.34.94-.12,1.38.04.08.07.15.09.23v.15c.07.59-.3,1.13,0,1.69.22.42-.13.65-.09,1.05-.59.32-.75.83-.73,1.46.03.66.18,1.32-.18,1.98-.11.2.04.57.06.86.01.29.03.59-.03.88-.13.59-.73.97-.76,1.59-.05.59-.23.98-.3,1.57-.05.4-.5,1.02-.67,1.41-.16.43-.19.89-.31,1.33-.09.43-.32.85-.79,1.1-.14.22-.25.34-.34.47-.09.14-.15.29-.12.48.1.49-.06.81-.45,1.07-.07.05-.17.11-.18.17-.02.52-.04.99-.48,1.33-.07.4-.15.75-.38,1.09-.1.17-.04.37,0,.56.06.19.12.36-.01.54-.18.28-.09.55.08.78.19.23.18.45.16.68-.05.18-.03.37.08.47.32.19.63.38.93.56.12.11.3.2.46.34.17.17.27.2.42.4.1.09.22.09.33.1.11-.02.22-.1.33-.12.13-.3.29-.15.58.03.15.1.17-.05.14-.26.09-.26.29-.42.53-.46.23-.07.46-.15.52-.3.08-.21.15-.45.27-.64.13-.19.3-.35.55-.49.2-.12.46-.34.45-.57,0-.49.21-.77.53-1.11.45-.44.7-1.03.54-1.71-.12-.55.09-1.05.27-1.55.2-.6.7-1.12.64-1.8l4,1.25c0,.05.01.1.02.16.01.07-.04.17-.1.24-.7.76-1.03,1.7-.75,2.75.06.23-.03.56-.17.76-.48.69-.72,1.44-.38,2.23.06.14.06.36-.02.49-.63,1.07-.34,2.32,0,3.02.12.29.27.46.38.59.12.13.22.24.44.4.11.06.25.16.37.05.28-.27.33-.25.87-.29.32-.02.57-.3.62-.68.08-.63.37-1.1.91-1.58.25-.22.47-.52.58-.84.27-.83.79-1.62.82-2.54.03-.93.54-1.74.58-2.67.03-.55-.23-1.11.05-1.63.27-.52.23-1.06.23-1.62,0-.49.37-.85.63-1.23.29-.42,1.69-.4,2.02,0,.02.03.21.26.15.31.09.19.36,1.3.22,2.18-.08.48-.11.98-.38,1.4-.23.35-.28.7-.15,1.1.15.48.12,1.01-.1,1.44-.73,1.42-1.03,2.98-1.67,4.46-.19.46-.44.91-.7,1.35-.1.17-.32.3-.36.47-.29.99-.91,1.97-1.93,2.7-1.03.75-2.57.94-3.77.6-.76-.19-1.24-.49-1.94-.93-.58-.39-.94-.93-1.15-1.52-.23-.6-.32-1.25-.39-2,.11-.42.15-.86.29-1.24.11-.31.14-.59.05-.9-.34-1.42,0-2.85.12-4.23.56-1.57,1.17-3.72,1.15-3.97l.04-.09.06-.14c.33-.8,1.24-1.19,2.04-.86.77.31,1.15,1.16.9,1.94-.14.45-.33.88-.54,1.3-.17.36-.39.68-.58,1.03-.24.45-.34.93-.23,1.44.11.53-.05,1-.44,1.37-.72.65-1.11,1.38-1.29,2.36-.15.98-.82,1.76-1.75,2.27-.45.2-.78.46-1.18.72-.19.13-.38.28-.55.45-.2.15-.41.31-.62.5-.62.55-1.62.6-2.41.3-.39-.1-.75-.45-1.06-.44-.37.02-.79-.22-1.19-.41-.39-.2-.69-.47-.79-.45-.2.02-.47-.25-.61-.43-.44-.48-.74-.97-1.06-1.51-.14-.28-.33-.54-.51-.82-.15-.27-.31-.56-.42-.87-.12-.47-.27-1.1-.08-1.46.18-.43.17-.82.16-1.21-.03-.4-.05-.78.1-1.15.25-.61.45-1.24.69-1.84.27-.71.52-1.39.52-2.17,0-.43.3-.81.57-1.16.08-.1.2-.25.34-.43.11-.15.25-.32.37-.49.19-.24.39-.49.47-.56.78-.43.8-1.49.98-2.32.09-.43,0-.9.1-1.32.06-.34.33-.63.44-.97.07-.23-.23-.59.11-.72.43-.17.52-.38.44-.82-.09-.52-.36-1.02-.09-1.6.19-.39.01-.86.24-1.31.24-.48.36-1.08.33-1.62-.04-.67.5-1.23.37-1.83v.17s0,0,0,0c-.18-.61.06-1.12.16-1.68.18-1.05.18-2.09-.24-3.1-.42-1.01-.43-2.06-.08-3.09.26-.75.29-1.48.24-2.26-.06-1.05-.18-2.11.23-3.13.12-.3,0-.55-.04-.83-.22-1.43-.32-2.84.2-4.25.16-.42.1-.95.07-1.42-.04-.47-.17-.93-.27-1.4.42-.98.13-2.1.56-3.08.09-.2.1-.35.02-.54-.11-.26-.25-.54-.23-.81.1-1.33-.28-2.69.22-3.99-.08-.56-.19-1.11-.23-1.68-.06-.96.03-1.93-.11-2.88-.08-.58-.06-1.1,0-1.67.14-1.53.17-3.07.26-4.62.1-1.54.19-3.09.35-4.63.05-.47.18-.94.32-1.4.11-.38.21-.77.1-1.13-.24-.76-.18-1.52-.11-2.29l.59-6.64c.07-.77.46-1.44.47-2.24,0-.64.09-1.33.46-1.91.26-1.81.54-3.62.85-5.43.1-.57.2-1.14.32-1.71.06-.3.25-.53.51-.65.28-.22-.13-.45,1.06-.39.15-.03.88.39.95.51.46.83.02,1.35.15,2.28.09.64-.14,1.41-.18,2.07Z"/>
  <path class="cls-3" d="M21.21,219.12c.41-.1.65-.5,1.1-.4.22.05.23-.39.52-.22.18.09.26-.06.45,0,.25.09.34-.03.43-.26.07-.11.07-.23.26-.4.14-.13.27-.13.32-.4.04-.22.47-.18.53-.41.09-.45.57-.4.43-1.08-.01-.47.35-.63.47-.94.2-.35.43-.69.67-1.02.05-.08.18-.13.29-.18.25-.11.28-.31.24-.56-.05-.24.17-.55.35-.87.17-.32.35-.62.31-.73-.06-.15.04-.66.11-1.17.06-.52.15-1.01.2-1.08.07-.09.19-.16.06-.26.19-.13-.03-.42.22-.51.01-.02.03-.05.04-.06l-.02.24c.09-.3.14-.44.12-.83-.03-.4.84-.81.55-1.19.02-.8-.03-1.3-.12-1.42-.17-.21.14-.29-.02-.5-.23-.28.36-.83.13-.9-.25-.08-.15-.25-.35-.36-.43-.24-.33-.54-.08-.83.13-.15-.3-.32-.12-.45.33-.23.48-.49.47-.79l-.08-1.9c0-.4-.05-.81.26-1.18-.05-.61.03-.9-.07-1.15-.27-.3.09-.6-.27-.87-.5-.38-.42-.3-.39-.85.16-.1.34-.41.13-.5.15-.29.06-.55.08-.58.41-.45-.2-.37.27-.84-.04-.26.05-.4-.31-.52-.19-.06-.21-.17-.08-.29.12-.11.07-.21-.04-.32-.45-.46.21-1.02-.19-1.49.09-.28-.16-.56-.13-.85.04-.46,0-.91.38-1.34.1-.11-.02-.35-.15-.49-.22-.24.21-.44.01-.66-.23-.26.14-.41.33-.6.15-.15.28-.29.11-.47-.24-.27-.12-.56-.16-.84-.04-.29.35-.57.13-.83-.31-.37.15-.77-.25-1.12-.26-.23.05-.39-.04-.62.54-.23.64-.54.52-.91-.13-.39-.4-.75-.16-1.17.07-.13-.15-.32-.22-.49-.07-.17-.15-.34-.15-.5,0-.35.48-.64.36-1-.11-.33-.04-.58-.15-.91-.08-.22.16-.64.15-.87,0-.52-.65-.94-.12-1.4,0-.23.12-.47-.14-.67-.33-.26-.37-.52-.14-.8.04-.05.11-.12.08-.16-.21-.33-.38-.66-.06-.99-.08-.28-.07-.55.07-.84.13-.27-.36-.54-.14-.83.17-.23.08-.44-.08-.66-.16-.22-.13-.45-.03-.67.07-.16.17-.35.09-.5-.43-.85-.48-1.69-.04-2.54.16-.32.04-.62.02-.97-.2-.28-.06-.45.26-.59.16-.07.06-.15-.14-.25-.4-.46.28-.83.14-1.07-.2-.33-.3-.66-.02-1,.11-.14.19-.36.09-.49-.24-.29-.2-.53-.05-.82.2-.39.21-.78-.18-1.17-.32-.31-.28-.67-.27-1.01,0-.45.4-.89.05-1.35-.04-.05-.02-.12.02-.17.42-.62.45-1.19-.04-1.9-.11-.14-.09-.38.02-.52.35-.5.48-.99.1-1.53-.07-.1-.08-.25,0-.34.59-.75.43-1.59.46-2.41.02-.65.08-1.29.31-1.91.06-.17.14-.32.05-.5-.22-.49-.13-.94.21-1.36.21-.26.25-.55.1-.85-.25-.5-.15-.94.21-1.35.16-.19.29-.42.32-.64.06-.58.41-1.11.33-1.71-.09-.61.33-1.12.32-1.71,0-.35-.28-.74-.03-1.05.25-.31.21-.65.21-1.01,0-.31.37-.49.64-.69.29-.22,1.67,0,1.99.3.02.02.2.19.15.21.09.13.34.83.22,1.33-.07.27-.08.57-.33.79-.2.19-.24.39-.09.64.18.3.2.6.03.85-.57.81-.62,1.73-.81,2.62-.06.28-.14.55-.22.82-.03.11-.17.21-.14.31.3,1.17-.09,2.29-.02,3.43.02.34,0,.56.13.91.23.57-.03.99-.16,1.75-.19.18-.27.41-.44.61-.13.16-.16.32-.09.49.35.8.2,1.6.35,2.39-.27.88-.13,2.2-.03,2.32-.02.28-.09.57-.17.85-.06.22-.18.44-.24.67-.09.29,0,.57.28.83.29.26.34.54.13.82-.37.49-.4.99-.03,1.49.38.5.34,1,.02,1.51-.28.44-.27.89.11,1.34.28.33.21.67,0,1.01-.09.16-.27.36-.19.48.19.29.03.92.16.99.13.07.09.23.07.33-.05.28-.08.52-.06.8.01.28.25.56.31.84.05.22.1.5-.07.67-.4.4.11.78-.04,1.17-.13.33-.14.68-.15,1.02-.01.4.05.8.41,1.17.19.2.14.45.09.68-.06.26-.1,1.11-.21,1.24-.48.53-.14,1.15-.05,1.72.05.28.25.56.28.84.02.22-.17.44-.19.67-.01.15.35.33.05.46-.39.16-.42.3-.26.56.19.31.56.59.38.98-.12.26.13.53-.03.83-.17.32-.22.69-.12,1.02.12.42-.37.78-.19,1.17.18.37-.07.67-.18,1.01-.19.63-.2,1.25.21,1.87.41.61.42,1.25.07,1.86-.26.45-.29.89-.25,1.36.06.63.17,1.27-.24,1.88-.12.18,0,.33.04.5.22.86.32,1.71-.19,2.56-.15.25-.1.57-.06.85.04.28.18.56.28.85-.42.59-.11,1.27-.54,1.85-.09.12-.1.21-.01.32.11.16.25.33.24.49-.08.8.32,1.62-.16,2.4.09.34.21.67.26,1.01.07.58.01,1.16.17,1.73.1.35.09.66.05,1-.09.83-.07,1.66-.08,2.49v.18s-.03.14-.03.14l-.06.29c-.24.97-.36,1.94-.74,2.9-.1.29-.29.56-.47.82-.15.21-.27.44-.24.7.1.56-.11,1.04-.3,1.53-.31.69-.69,1.37-1.08,2.04-.46.65-.87,1.32-1.45,1.92-.19.21-.42.36-.66.51-.26.13-.5.27-.7.48-.31.36-.76.66-1.31.65-1.17.67-2.47,1.14-3.82,1.32-.42.06-.86.09-1.3.08-.24-.01-.43-.16-.55-.4-.19-.25-.37.18-.35-1.01,0-.14.28-.9.34-.99.44-.57.75-.23,1.22-.56.31-.22.73-.21,1.06-.35Z"/>
  <g>
    <path class="cls-3" d="M218.13,83.93c.29-.84.44-1.71.19-2.44-.14-.42.05-1.01-.15-1.32-.19-.28.7-2.14.63-3.16-.05-.75.31-1.02.26-1.77-.03-.42.21-2.18.67-5-.07-1.36,1.02-2.73,1.22-4.15.2-1.49.34-1.94.64-3.17.3-.48.17-1.42.43-2.01-.1-.31.06-.64.17-1.02.16-.57,1.15-7.53,1.1-8.48-.03-.69,1.15-5.03,1.13-6.57,0-.82.06-1.57.37-2.32.14-.34.3-.72.37-1.1.3-1.61.59-3.24.86-4.86.16-1.27.55-2.7.51-4.21-.23-1.76.31-2.81.31-4.4,0-.78.54-1.87.5-2.62-.05-.85.1-1.23.21-2,.14-.98.1-1.27.12-1.75-.03-.79,0-1.31.31-1.93.23-.48.23-1.06.48-1.5.41-.72.14-1.58.39-2.27.55-1.52.45-3.07.75-4.7.17-1.42.54-3.09.56-4.43.03-1.95.58-3.15.23-4.81-.05-.24-.74-.96-.9-.85-1.22.15-.83.53-1.16,1.06-.29.32-.52.84-.63,1.48l-.61,3.64-1.87,11.56c-.5,1.28-.71,2.75-.86,4.1-.18,1.68-.71,3.15-.94,4.77-.69,4.67-1.39,9.35-2.08,14.03-.25,1.63-.5,3.24-.44,4.83.03.77-.17,1.59-.38,2.39-.25.97-.51,1.96-.68,2.96l-1.6,9.73c-.53,3.25-1.02,6.5-1.63,9.73-.23,1.21-.41,2.31-.51,3.53-.16,2.01-.55,4.06-.79,6.1-.15,1.19-.21,2.38-.31,3.57-.01.04-.02.08-.04.12,1.04-.39,2.09-.64,3.15-.73Z"/>
    <path class="cls-3" d="M236.84,1.34c-.39-.5-1.04-.87-1.75-1.07-.17-.06-.35-.1-.54-.13-.18-.04-.36-.07-.54-.09-.18-.02-.35-.04-.52-.05-.17,0-.27,0-.39,0-.94.02-1.64.16-1.84.22-.13-.05-.6.18-.64.21-.8.42-.38,1.78.53,1.99.42.1.82.24,1.22.37.2.06.4.12.6.17.11.04.13.05.22.05.1,0,.2,0,.31.02.1.02.25.06.19.18-.02.14-.07.31-.17.42-.01,0-.03.08-.05.16l-.05.22c-.03.15-.05.3-.07.45-.04.3-.05.6-.06.89-.02.6,0,1.19-.05,1.79-.17,2.04-.79,3.98-.89,6.04-.1,2.03-.67,4.01-.92,6.04-.1.79-.32,1.62-.56,2.33-.52,1.55-.78,3.08-.7,4.73.05.98-.1,2.01-.42,2.97-.51,1.54-.78,3.12-.74,4.76.02.62-.12,1.17-.25,1.76-.48,2.19-.8,4.42-1.09,6.67-.36,2.82-.55,5.72-1.48,8.39-.11.32-.17.85-.14,1.19.16,1.84-.19,3.55-.77,5.29-.17.51-.3,1.29-.25,1.78.2,2.24-.16,4.36-.88,6.48-.06.17-.12.43-.1.6.12,1.66-.5,3.16-.74,4.74-.18,1.22-.41,2.48-.25,3.59.2,1.38-.02,2.78-.42,4.13-.3,1-.46,1.85-.37,2.89.04.45-.15,1.23-.34,1.72-.12.31-.21.62-.28.92,1.24.29,2.44.8,3.58,1.53.1-.78.13-1.57.08-2.36-.11-1.83.17-3.57.79-5.27.35-.97.45-1.94.29-2.89-.15-.92-.09-1.92.15-2.94.18-.78.41-1.54.59-2.33.22-.98.45-1.98.61-2.98-.05-.43.52-5.06,1.21-8.39.22-2.84.74-5.71.73-8.52,0-.61.1-1.18.3-1.76.25-.72.44-1.54.71-2.23.46-2.73.91-4.3.91-6.28,0-1.2.12-1.99.24-3.21.39-4.06,1.23-8.14,1.36-12.2.01-.35.19-.75.27-1.14.19-1,.37-2,.54-3.01.53-3.23.9-6.51,1.78-9.64.27-.95.35-2.03.25-2.99-.08-.8.02-1.55.3-2.32.08-.21.14-.43.2-.65l.08-.33.04-.17.05-.27c.12-.72.23-1.46.33-2.19l-.17-.3Z"/>
    <path class="cls-3" d="M220.48,117.63c-1.14.2-2.47.21-3.74.05-.02.17-.03.34-.05.51-.49,1.15-.49,2.32-.45,3.51,0,.15-.1.39-.16.56-.38.97-.48,1.9-.28,2.83.16.74-.09,1.57-.21,2.37-.76,1.56-.35,3.13-.61,4.95-.12.81-.56,2.24-.61,3.04-.06,1.19-.26,2.05-.33,3.23-.07,1.28-.7,2.24-.89,3.47-.09.59-.1,1.2-.12,1.79-.02.59.1,1.3-.05,1.74-.12.36-.2.71-.26,1.05-.03.17-.05.34-.07.52-.02.17-.04.37-.03.41,0,.16.01.33.02.52v.24c-.02.05-.08.08-.14.12-.11.07-.24.13-.36.15-.1.02-.19.04-.29.05-.12.03-.24.01-.36.01-.47,0-.88-.16-1.18-.43-.15.01-.29,0-.43-.02-.12-.04-.24-.08-.36-.12-.23-.09-.45-.15-.75-.14-.12.01-.23,0-.35-.03-.11-.02-.26-.09-.25-.07-.09-.03-.17-.1-.23-.18-.03-.04-.06-.08-.09-.12-.02-.04.01-.1.01-.14,0-.05,0-.09,0-.14,0-.02-.01-.05-.02-.08l-.02-.04s0-.08,0-.11c-.07-.96.47-1.87.59-2.91.12-1,.4-2.03.31-2.99-.06-.68.15-1.16.38-1.66.29-.62.74-1.1.66-2.06-.07-.82.47-1.47.38-2.33-.05-.51-.04-1.34.13-1.73.63-1.46.83-3.07,1.13-4.69.18-.99.09-2.03.34-2.99-.13-1.71.83-3.6.64-5.27-.05-.41-.04-.75.14-1.14.19-.42.23-.8.08-1.04-.29-.47-.12-.95-.02-1.86.05-.1.09-.19.12-.28-1.89-1.63-1.27-4.25-.17-6.44.96-1.91,1.11-2.93,1.07-5.15-.03-1.94-.2-3.85-.36-5.78-.07-.77-.12-1.59-.14-2.41-.58,1.89-.7,4.05-1.38,5.89-.06,1-.08,2-.2,3-.12,1-.24,2.12-.54,3-.98,2.91-1.35,5.92-1.62,8.97-.05.59-.02,1.15-.24,1.76-.75,2.09-.99,4.36-1.28,6.59-.22,1.65-.5,3.21-1.01,4.75-.69,2.12-1.04,4.36-.97,6.56.07,2.22-.29,4.42-.83,6.6-.16.58-.31,1.13-.47,1.7-.07.28-.14.57-.18.87-.02.15-.04.3-.06.46-.03.26-.05.52-.08.79l-.05.45c-.01.15,0,.29,0,.43v.42s-.01.21-.01.21v.11s.04.06.06.09c.33.46.68.92,1.13,1.34.42.4,1.07.87,1.42,1.04.21.12.43.22.66.31.23.09.46.16.71.21,1.54.36,3.25.31,4.63.16,1.12-.09,1.81-.65,2.58-1.06.46-.68.53-1.52.81-2.24.05-.14.09-.27.14-.41.04-.14.09-.28.1-.34.03-.16.06-.31.07-.47.04-.3.05-.59.04-.88,0-.57-.06-1.11-.07-1.66-.02-.93.09-1.43.56-1.94.37-.4.1-1.09.2-1.62.14-.79.45-1.56.54-2.34.12-1,.06-2,.17-3,.21-2.03.2-4.24.96-6.08.18-.44.67-3.45.86-4.35.17-.81.35-1.67.27-2.4-.17-1.34-.02-2.75.2-4.17.08-.52.17-1.05.26-1.57Z"/>
  </g>
</svg>