<?xml version="1.0" encoding="UTF-8"?>
<svg id="illuer_blå_bg" xmlns="http://www.w3.org/2000/svg" viewBox="0 0 290.35 271.03">
  <defs>
    <style>
      .cls-1 {
        fill: #ff9400;
      }

      .cls-2 {
        fill: #0354f0;
      }

      .cls-3 {
        fill: #ffe6c4;
      }
    </style>
  </defs>
  <path class="cls-3" d="M222.28,114.41c.73-.26,1.37-.66,1.99-1.05.62-.39,1.29-.67,1.98-.96.65-.24,1.08-.98,1.85-1.12.49-.07.85-.5,1.33-.65.62-.21.99-.54,1.48-1.1.33-.3.48-.53,1.16-1.18.53-.49.87-.68,1.33-1.34.43-.54,1.41-1.1,1.82-1.72.82-1.24,1.86-1.75,2.42-3.36.63-1.28,1.66-2.21,2.24-3.27l1.28-1.92c.43-.64.89-1.26,1.25-1.95.18-.32.44-.59.68-.85.52-.57.81-1.22,1.05-1.95.1-.35.36-.82.62-1.36.25-.55.55-1.16.84-1.75.59-1.17,1.15-2.25,1.21-2.57.02-.11.08-.3.17-.55.05-.14.1-.29.16-.45.08-.21.17-.43.27-.67.46-.97,1.38-1.84,2.12-2.45.75-.63,1.39-1.14,1.8-1.6.45-.43.68-.8.78-.87.21-.23.45-.42.46-.69.39-.37.49-1.15.82-1.5.24-.49.41-.83.52-1.22.11-.4.28-.8.34-1.48.2-1.26,1.17-2.58.93-3.91.01-.7.02-1.34.03-1.91,0-.67.17-1.38.5-1.83.7-.89,1.49-1.06,1.72-1.18.45-.19.89-.18,1.19-.12.33.04.62.12,1.05.11.59.01,1.37.38,1.95.79.58.42.99.86,1.18.85.38,0,.84.51,1.27.71.95.39,1.65,1.61,1.82,2.81.1.61.67,1.16.59,1.72-.16.99-.3,1.97-.39,3.1-.15,1.18-.43,2.33-.82,3.43-.19.55-.44,1.07-.66,1.61l-.39.77-.2.38-.1.19-.06.11c-.19.32-.37.67-.6.93-.11.14-.24.29-.4.45-.11.08-.07.2-.03.26l.11.2c.62.23,1.07.12,1.43.14.54.04.95.07,1.32.09,1.12-.1,2.07.48,3.08.34,1.39-.15,1.11-.17,2.97.4.31.24,1.29.74,1.66.65.93.44,1.82.67,1.9.72,1.37.9,1.28.24,2.66,1.25.85.29,1.27.56,1.79.37.27-.09.62.02.98.31.33.27.65.35,1.06.41,1.67.24,3.18,1.67,4.85,2.18l.14.09.23.14c.15.08.31.19.47.29l.92.61c.63.4,1.3.81,1.91,1.29.02.18.03.36.04.54.02.23.02.53.01.85.02.31-.05.62-.11.92-.04.31-.2.58-.3.87-.17.25-.28.54-.5.75-.78.91-2.08,1.43-3.41,1.47-.18,0-.39.03-.62.06-.21.04-.53.06-.68.09-.36.06-.71.12-.98.19-.91.21-1.64-.27-2.46-.16-.98.13-1.48-.33-2.09-.62-.49-.24-.96-.45-1.63-.41-.96.06-1.95-.28-2.92-.47-1.01-.2-1.84-.81-2.77-.83-.65,0-1.28-.21-1.88-.39-.15-.04-.29-.08-.41-.11-.08-.02-.09-.02-.1-.02,0,0,0,.02,0-.02l.03-.27c.02-.16.02-.42.06-.5.08-.16.11-.34.09-.51-.02-.17-.14-.37-.11-.33.04,0,.08-.02.1-.06.06-.04.13-.1.18-.15l.41-.47.23-.29.11-.15.06-.08h0s.02,0,.04.02l.16.07c.13.05.27.09.41.12.78.15,1.11.7,1.85,1.02.43.87,1.33,1.51,2.46,2.07,1.2.6,2.44,1.07,3.51,2.11.33.32,1.01.53,1.52.83.51.3,1.04.6,1.51.98.97.8,1.45,1.86,2.45,2.7.93.81,1.48,1.55,2.29,2.56.27.34.57.91.8,1.54.21.52.47,1.55.55,2.16.11.71.13,1.36-.07,1.98-.19.62-.59,1.15-1.1,1.5-.51.36-1.13.57-1.81.62-.34.02-.69,0-1.03-.04-.17-.03-.33-.07-.51-.1-.12-.04-.22-.08-.34-.13-.9-.13-1.72-.47-2.5-.42-.98.06-1.91-.21-2.78-.78-.16-.1-.36-.25-.51-.28-1.16-.22-2.29-.51-3.25-1.27-.93-.32-1.79-.72-2.62-1.26-.8-.51-1.84-.46-2.66-1.08-.64-.49-1.34-.72-2.02-.83-.16-.03-.33-.06-.4-.06,0,0-.03,0-.02,0h0s.03-.11.05-.15l.11-.4.17-.69c.04-.18.05-.44.08-.53,0-.06,0-.13,0-.2,0-.05,0-.07-.02-.1-.02-.02.01,0,0,0,.02,0,.08,0,.11-.02.07-.04.24-.12.33-.21.14-.11.33-.24.47-.38l.56-.52c.29-.28.14-.16.18-.18l.04.04.15.15.37.37c.37.37.83.84,1.28,1.08,2.59,1.38,5,3.1,7.02,5.48.75.89,1.63,1.56,2.52,2.53.85.67,1.17,1.4,1.2,2.09.02.35.27.61.63.97.27.46.46,1.05.45,1.71,0,.66-.24,1.39-.61,1.89l.23-1.54c.1.63.08,1.42-.29,2.17-.39.77-.98,1.13-1.37,1.39-1.05.6-1.85.61-2.6.61-.74-.03-1.39-.21-2.02-.49-.5-.24-1.28-.54-1.74-.59-1.07-.1-1.89-.47-2.78-1.01-1.2-.74-2.45-1.36-3.81-1.63-1.1-.23-2.19-.88-3.24-1.51-1.36-.82-2.45-1.98-3.98-2.57-.15-.06-.36-.22-.48-.35-.78-.78-1.59-1.48-2.45-2.11l-.16-.12c-.06-.04-.04-.02-.06-.04-.03-.01-.05-.03-.08-.04-.05-.02-.1-.03-.15-.02-.08.03-.15.05-.12.3.03.18.04.14-.05.1-.02,0-.04-.01-.06-.02,0,0-.03,0-.03-.01l-.11.13-.43.52c-.28.35-.55.7-.79,1.07-.5.73-.94,1.49-1.3,2.34-.14.31-.44.74-.7.97-2.11,1.88-3.83,4.17-5.83,6.19-1.6,1.6-3.29,3.11-5.18,4.32-.5.35-1,.61-1.43,1.05-.57.59-1.21,1.08-1.9,1.51-.68.44-1.41.78-2.17,1.05-.94.37-1.86.83-2.63,1.44-1.31,1-2.76,1.63-4.37,1.93-.74.16-1.57.35-2.31.61-.95.36-1.95.58-2.94.8-.98.25-1.97.43-2.93.74-1.96.62-3.99.58-5.98.89-1.17.23-2.3.56-3.53.45-1.22-.14-2.37-.07-3.57.01-1.07.03-1.92-.36-2.78-.63-.94-.3-1.08-1.7-.3-2.03.05-.02.49-.21.61-.15.38-.09,2.53-.33,4.29-.34.97.04,1.94-.06,2.85.09.76.13,1.48.1,2.19-.19.85-.34,1.85-.47,2.77-.52,3.06,0,6.09-.87,9.01-1.83.92-.27,1.81-.63,2.73-.93.36-.11.77-.18,1.05-.35,3.28-1.98,6.77-3.75,9.69-6.28.88-.74,1.45-1.23,2.19-2.08,1.17-1.44,2.44-2.28,4.26-4.15.57-.39,1.16-.92,1.72-1.37.46-.36.83-.77,1.11-1.27.67-1.15,1.4-2.28,2.13-3.41.36-.57.72-1.14,1.06-1.72l.54-.95c.28-.48.55-1.01.85-1.47.38-.54.78-.98,1.16-1.46.05-.05.1-.14.16-.17l.21.14.42.27.84.54c.28.19.55.34.84.55.29.21.57.42.85.63.43.31.7.51,1.04.74,1.28.89,2.32,1.51,2.51,1.57.79.54,1.56,1.13,2.33,1.7.61.45,1.19.93,1.81,1.37.82.57,1.69.96,2.56,1.1.9.14,1.73.5,2.5,1.08,1.34,1.02,2.91,1.68,4.54,1.72.72.02,1.42.04,2.13.06.13,0,.27,0,.34-.01.03,0,.1,0,.09,0,0,0,0,0,.02.01l.08.16.04.1c.06.13.2.29.21.31.02.03.06.06.09.07,0,0-.02,0-.02,0,.04.02-.14-.06-.2-.05-.02,0-.16-.03-.24-.03-.04,0-.09,0-.13,0-.02,0,0,0,0,0,.01-.02.02-.06.04-.1l.18-1.17c.05,0,.11-.01.13-.14.01-.13-.03-.34-.14-.56-.22-.45-.65-.9-1.16-1.27-.82-.58-1.53-1.4-2.21-2.3-.32-.42-.7-1-1.08-1.21-.85-.49-2.43-1.93-2.7-1.97-.26-.04-.67-.41-.91-.61-.73-.61-1.38-1.13-2.15-1.68-.39-.28-.81-.51-1.24-.75-.44-.25-.85-.46-1.36-.87-.12-.1-.21-.17-.43-.42l-.08-.09c-.04-.06-.1-.14-.14-.21l-.06-.11-.03-.06-.07-.17c-.05-.12-.08-.24-.11-.37l-.03-.19c0-.09-.01-.07,0-.26,0-.31.1-.67.28-.96.08-.15.18-.28.29-.38.08-.08.15-.15.25-.21.18-.13.39-.24.6-.31.11-.04.21-.06.32-.08h.11c.21-.04.55-.01.58,0,.42.07.49.11.67.16.14.05.26.09.37.14.45.18.79.37,1.04.58,1.13.95,2.5,1.04,3.65,1.73.97.59,2.05,1.09,3.11,1.56,1.24.55,2.5.99,3.76,1.06.67.04,1.41.35,2.09.59.38.14,1.22.39,1.92.51.24.04.17.04.22.05.03.01.05.02.08.03.05.02.1.03.14.06.14.1.33.09.4-.01.08-.1.04-.25,0-.37-.03-.06-.06-.12-.09-.18-.07-.15-.17-.34-.27-.5-.2-.34-.45-.67-.7-1-.5-.66-1.2-1.16-1.82-1.76-.49-.47-.88-1.1-1.41-1.59-.36-.33-1.04-.42-1.17-.91-.17-.63-.52-.94-1.3-1.32-.94-.44-1.9-.67-2.87-1.51-.66-.57-1.56-.85-2.34-1.49-.84-.7-1.91-1.37-2.95-1.85-.33-.16-.63-.34-.95-.56l-.26-.19c-.09-.07-.2-.14-.42-.35-.06-.06-.12-.12-.17-.18l-.08-.09-.06-.08c-.06-.08-.11-.17-.16-.26-.1-.19-.17-.39-.21-.6-.02-.12-.03-.16-.03-.34,0-.24.04-.55.18-.86.14-.31.37-.59.6-.77.12-.09.23-.16.34-.22.11-.05.05-.02.09-.04l.17-.06c.43-.17,1.13-.09,1.03-.08.16.03.34.07.41.1.76.25,1.32.49,2,.56,1.27.15,2.19.64,3.27,1,2.01.67,4.1,1.1,6.11.9.98-.1,1.95-.15,2.81-.21h.09s.01,0,.01,0h0s.02.03.04.04c.04.03.13.08.28.09.13,0,.25-.03.31-.11.03-.04.06-.08.07-.12-.02-.03-.04-.06-.07-.09-.08-.1-.23-.17-.36-.23l-.05-.02h-.03s-.08-.06-.08-.06l-.34-.18c-.23-.12-.45-.24-.68-.35-.47-.22-.94-.45-1.4-.69-.94-.46-1.86-.96-2.73-1.54-.5-.35-1.03-.43-1.57-.6-2.76-.86-5.48-1.69-8.08-2.96-.78-.37-1.82-.6-2.74-.75-.92-.17-1.85-.19-2.69-.18-1.71-.25-3.39-.38-4.44-1.32-.23-.22-.5-.49-.55-.83.08-.31.19-.62.3-.92.11-.31.22-.61.35-.9.04-.14.18-.31.32-.48l.4-.49c.22-.26.39-.48.53-.7.07-.11.14-.22.21-.34.07-.13.13-.25.14-.32.12-.5.28-1.03.49-1.49.58-1.13.88-2.35,1.04-3.52.15-1.18.13-2.28.06-3.4-.35-.88-.92-1.59-1.55-2.21-.54-.53-1.17-.98-1.84-1.27-.33-.14-.68-.24-1-.28-.34-.05-.58,0-.61.04-.09.07-.14.13-.18.2-.02.04-.03.07-.04.11v.07s-.03.41-.03.41c-.05.76-.05,1.46-.11,2.27-.09.84-.12,1.67-.26,2.52-.23,1.69-.64,3.42-1.38,5.11-.72,1.69-1.99,3.3-3.38,4.44-.67.57-1.36,1.06-1.8,1.46-.47.43-.69.69-.85,1.12-.39.87-.9,1.8-1.38,2.66-.4.72-.79,1.46-.96,2.21-.15.79-.47,1.51-.81,2.24-.34.73-.72,1.45-1.1,2.17l-.82,1.56-.95,1.49-1.91,2.99c-1.46,1.87-2.81,3.83-4.5,5.54-.57.6-1.13,1.17-1.77,1.67-.64.5-1.29,1-1.89,1.6-.93,1-2.2,1.87-3.45,2.45-3.24,2.26-6.79,4.1-10.6,5.31-1.2.38-2.43.7-3.69.91-.65.14-1.27.05-1.66-.13-.62-.16-.93.31-1.37-.85-.12-.13.43-.96.62-1.07,1.4-.77,2.62-.64,4.31-1.4,1.14-.53,2.68-.95,3.88-1.55Z"/>
  <path class="cls-1" d="M157.95,182.56c-27.13,2.79-47.77-2.03-61.89-14.47-14.17-12.41-22.34-29.41-24.55-50.96-2.21-21.55,2.33-39.83,13.68-54.89,11.32-15.06,30.29-23.94,56.87-26.67,26.58-2.73,47.61,2.04,61.5,14.51,13.88,12.44,21.94,29.45,24.16,51,2.21,21.55-2.23,39.82-13.29,54.84-11.06,15-29.89,23.9-56.45,26.62"/>
  <path class="cls-3" d="M140.26,28.98c2.68-12.43,10.67-28.48,32.58-28.98-.69,8.76-5.35,29.3-29.48,35.89.4,1.2.7,2.31.92,3.28l.13.62.02.14c.21,1.41-.73,2.76-2.14,3.04-1.42.28-2.8-.6-3.15-1.98l-.03-.14-.11-.54c-1.27-5.68-5.67-15.95-16.44-19.74l-.54-.18-.13-.05c-1.33-.51-2.05-1.98-1.6-3.36.45-1.37,1.89-2.14,3.27-1.77l.13.04.66.22c7.81,2.75,12.8,8.17,15.89,13.5Z"/>
  <ellipse class="cls-2" cx="162.31" cy="94.46" rx="3.92" ry="5.23" transform="translate(-7.87 15.06) rotate(-5.19)"/>
  <ellipse class="cls-2" cx="192.55" cy="87.65" rx="3.92" ry="5.23" transform="translate(-7.13 17.76) rotate(-5.19)"/>
  <path class="cls-2" d="M171.32,109.67c.55-.83,4.09-3.13,5.06-3.5,2.68-1.03,8.43-1.63,11.31-1.71,1.4-.04,4.62.66,5.62,1.64,2.63,2.61-.69,3.25-3.08,3.42-1.93.13-2.98-.65-4.61-.74-.93-.05-5.59.78-6.62,1.07-2.25.64-4.31,3.32-5.88,3.54-2.59.36-3.01-1.88-1.79-3.72h0Z"/>
  <path class="cls-2" d="M162.21,79.69c.06.99-1.36,4.96-1.91,5.85-1.51,2.44-5.73,6.4-7.97,8.2-1.09.87-4.08,2.27-5.47,2.09-3.67-.49-1.42-3.01.39-4.58,1.46-1.27,2.77-1.29,4.12-2.2.77-.52,3.98-4,4.63-4.85,1.41-1.87,1.42-5.25,2.55-6.38,1.84-1.85,3.54-.32,3.67,1.88h0Z"/>
  <path class="cls-2" d="M189.59,74.1c.19.97,2.57,4.46,3.33,5.18,2.08,1.98,7.16,4.75,9.78,5.93,1.27.57,4.52,1.17,5.82.64,3.43-1.4.61-3.27-1.53-4.34-1.74-.86-3-.55-4.54-1.09-.88-.31-4.86-2.86-5.7-3.53-1.83-1.45-2.7-4.72-4.07-5.53-2.25-1.33-3.51.58-3.08,2.74h0Z"/>
  <path class="cls-3" d="M116.5,178.77c-.04.91.29,1.76-.01,2.63-.14.4.26.85-.03,1.27-.18.26-.09.58-.24.85-.21.36-.16.65,0,1.08.05.26.14.42.15.96.01.43-.07.65.11,1.11.16.4-.2,1.04-.08,1.47.24.87-.12,1.48.38,2.42.27.83.11,1.64.15,2.34-.01.91-.04,1.81-.09,2.72-.01.21-.11.43-.2.63-.19.44-.15.85,0,1.3.26.84-.24,3.3-.1,3.68.19.52.3,4.39.22,4.72-.05.21-.16.4,0,.57-.17.34.11.85-.11,1.13-.11.7-.17.95-.14,1.78.03.79-.84,1.62-.56,2.36-.02,1.57.02,2.56.11,2.78.17.4-.15.58.02.99.23.55-.36,1.64-.13,1.78.24.15.15.49.35.71.42.46.33,1.06.08,1.64-.13.3.3.63.12.88-.33.45-.48.97-.47,1.55l.07,3.74c0,.79.04,1.6-.26,2.33.05,1.19-.03,1.77.07,2.26.27.59-.1,1.17.27,1.71.5.74.41.58.38,1.66-.16.2-.34.81-.14.99-.15.57-.06,1.09-.08,1.14-.41.89.2.72-.28,1.65.04.51-.05.78.31,1.01.18.12.21.33.08.57-.12.23-.07.41.04.63.45.9-.21,2.01.19,2.93-.1.55.15,1.11.13,1.66-.04.9,0,1.8-.39,2.65-.1.22.02.68.14.95.1.2.06.4.02.58l-1.95-1.97c.24.06.47.14.72.03.51-.24.82.13,1.18.32.29.15.57.28.94.11.52-.24,1.1-.14,1.65-.18.57-.04,1.12.34,1.64.11.72-.32,1.51.14,2.19-.27.45-.27.76.05,1.22-.05.46.54,1.08.63,1.79.51.76-.13,1.47-.4,2.29-.16.26.07.63-.15.96-.22.32-.07.66-.15.98-.15.68,0,1.26.48,1.96.36.65-.11,1.14-.04,1.79-.16.44-.08,1.25.16,1.71.15,1.01,0,1.84-.65,2.75-.12.44,0,.92.12,1.31-.14.23-.15.46-.24.7-.27l-2.08,1.97c-.02-.28.04-.57.18-.86.05-.1.12-.23.1-.31-.17-.66-.31-1.3.05-1.95-.05-.56,0-1.09.16-1.64.16-.53-.3-1.08-.05-1.64.19-.45.13-.86,0-1.3-.13-.44-.08-.88.04-1.32.09-.31.2-.68.15-.97-.34-1.69-.29-3.32.24-4.98.2-.62.11-1.22.12-1.89-.17-.55,0-.89.33-1.15.17-.13.07-.3-.12-.49-.35-.92.38-1.62.26-2.08-.16-.65-.23-1.31.09-1.97.13-.27.23-.71.14-.96-.21-.57-.14-1.05.04-1.61.25-.75.3-1.53-.05-2.29-.28-.61-.2-1.31-.16-1.99.06-.88.5-1.72.2-2.64-.03-.09,0-.24.04-.33.48-1.19.6-2.37.14-3.61-.1-.27-.06-.71.05-.99.38-.98.53-1.93.17-2.94-.07-.19-.07-.48,0-.66.62-1.5.48-3.11.52-4.67.04-1.25.1-2.49.33-3.71.06-.33.14-.64.05-.98-.22-.9-.13-1.79.2-2.65.21-.54.24-1.11.08-1.65-.26-.91-.18-1.76.16-2.63.16-.4.28-.87.29-1.3.03-1.13.37-2.24.24-3.36-.13-1.14.26-2.23.2-3.36-.04-.66-.34-1.32-.11-1.98.23-.66.15-1.31.11-1.98-.03-.59.32-1.06.57-1.54.27-.52,1.67-.6,2.02-.15.02.03.22.29.17.35.1.22.42,1.49.34,2.52-.04.57-.03,1.14-.26,1.66-.19.43-.21.85-.04,1.29.21.53.24,1.13.09,1.66-.52,1.75-.52,3.57-.68,5.37-.05.56-.12,1.12-.2,1.67-.03.22-.16.44-.14.64.34,2.25-.05,4.52.03,6.78.02.68-.01,1.11.13,1.78.23,1.09-.04,1.97-.19,3.49-.19.39-.28.84-.46,1.25-.14.32-.17.64-.1.98.32,1.55.13,3.16.23,4.73-.32,1.85-.36,4.43-.26,4.66-.05.56-.16,1.11-.27,1.66-.09.44-.23.86-.32,1.3-.12.57-.07,1.13.19,1.63.26.52.28,1.06.04,1.61-.43.96-.51,1.92-.19,2.93.32,1,.22,1.98-.15,2.96-.32.86-.36,1.74-.03,2.63.24.65.13,1.32-.11,1.97-.11.31-.31.69-.25.94.16.58-.07,1.81.05,1.96.12.14.06.46.03.64-.08.55-.14,1.03-.15,1.57-.02.55.19,1.1.22,1.66.02.44.04.99-.15,1.32-.44.77.03,1.54-.17,2.3-.16.64-.22,1.33-.26,2-.06.79-.04,1.57.28,2.31.08.18.1.38.1.59l-.03,2.04-2.22.09c-.24,0-.5-.02-.74-.05-.51-.06-2.19-.1-2.44-.21-1.06-.48-2.27-.14-3.39-.05-.56.05-1.1.25-1.65.28-.43.02-.87-.17-1.32-.19-.3-.01-.65.35-.9.05-.31-.39-.59-.42-1.1-.26-.6.19-1.15.56-1.91.38-.51-.12-1.05.13-1.63-.03-.63-.16-1.37-.2-2.01-.1-.82.13-1.55-.35-2.3-.16-.72.18-1.32-.06-1.98-.16-1.24-.18-2.47-.18-3.67.25-.24.09-.49.16-.74.21l-1.69.36-.53-2.61c-.19-.96-.14-1.95.14-2.91.26-.88.3-1.75.26-2.67-.05-1.24-.17-2.5.25-3.7.12-.35,0-.65-.04-.98-.21-1.69-.31-3.36.2-5.02.16-.5.1-1.12.07-1.68-.04-.56-.18-1.1-.27-1.66.42-1.16.12-2.49.54-3.65.09-.24.1-.41.01-.64-.11-.3-.25-.64-.23-.95.08-1.57-.31-3.17.17-4.72-.09-.66-.21-1.31-.25-1.97-.07-1.13,0-2.28-.16-3.39-.09-.68-.09-1.29-.05-1.97.11-1.81.08-3.62.1-5.44l.08-5.44c.01-.56.11-1.12.21-1.67.08-.45.15-.92,0-1.34-.3-.86-.3-1.76-.31-2.67l-.12-7.82c-.02-.9.28-1.74.19-2.68-.07-.74-.09-1.57.21-2.3l.05-6.46.04-2.04c.01-.36.16-.66.39-.85.24-.32-.2-.5.98-.67.14-.07.93.27,1.02.4.6.88.24,1.58.52,2.64.19.73.08,1.68.13,2.46Z"/>
  <g>
    <path class="cls-3" d="M113.34,268.23l1.24-19.67h25.78s-.78,6.11,9.36,6.84c7.54,1.6,9.89,8.52,9.06,11.14s-24.05,2.17-24.05,2.17l-21.79-1.51"/>
    <path class="cls-3" d="M112.53,264.33c.07-.64-.24-1.24.1-1.84.15-.27-.23-.61.07-.89.19-.17.1-.4.27-.58.22-.24.18-.44.04-.75-.05-.18-.12-.3-.12-.68,0-.3.09-.45-.07-.78-.14-.29.24-.72.13-1.02-.22-.62.17-1.03-.3-1.71-.25-.59-.06-1.15-.07-1.64.04-.63.1-1.27.18-1.9.02-.15.13-.29.22-.43.2-.29.17-.59.05-.91-.23-.6.34-2.29.22-2.56,0-.02-.02-.04-.02-.16v-.72s1.36-.55,1.36-.55c.45-.18,2.92-.32,3.13-.26.15.04.28.15.4,0,.24.16.59-.12.79.1.49.1.67.16,1.25.12.55-.04,1.14.82,1.66.53,1.1,0,1.79-.05,1.94-.15.28-.17.41.14.69-.03.39-.24,1.15.34,1.24.11.1-.25.34-.16.49-.36.32-.43.74-.34,1.14-.1.21.13.44-.31.62-.13.32.32.68.47,1.09.45l2.61-.12c.55-.02,1.12-.06,1.63.23.83-.06,1.24,0,1.58-.09.41-.27.82.08,1.19-.29.51-.51.4-.42,1.16-.4.14.15.57.33.7.12.4.14.76.05.8.07.63.4.5-.21,1.16.26.22-.03.38,0,.5-.07l1.36,1.54s.11.05.25.08c.18.04.21.12.09.24-.1.11-.05.2.08.28.26.16.27.37.3.61.03.23.09.48.38.55.05.27.42.32.57.51.27.33.62.55.81,1.11.06.15.34.17.53.13.31-.07.36.38.67.3.35-.1.38.31.54.54.12.19.26.37.52.27.36-.13.7.03,1.05.06.36.02.64.49,1.01.29.46-.24.89.17,1.33-.04l.24.03s.09-.02.14-.04c.4-.17.58.2.95.2.21.59.61.85,1.17.94.6.07,1.22.12,1.69.61.15.14.5.13.76.21.26.08.53.16.75.31.44.36.51.99.99,1.29.44.29.69.59,1.1.92.3.22.53.87.72,1.17.24.32.57.54.83.82.27.26.47.57.37,1.02.16.33.19.72.54.93.46.26.62.7.51,1.22-.02.09-.05.22-.01.28.15.25.29.52.36.8.06.29.04.61-.11.91.07.53.03,1.08-.27,1.67-.03.05-.18.46-.36.77-.21.37-.32.48-.48.68-.08.09-.16.18-.25.26-.08.08-.13.11-.21.16-.14.09-.3.17-.48.2-.49.02-.81.23-1.11.47-.33.27-.66.3-1.04.29-.26-.02-.55-.06-.76.05-1.17.64-2.38.82-3.63.49-.47-.12-.88.03-1.36.1-.37.23-.63.1-.85-.21-.11-.16-.22-.04-.34.17-.62.44-1.18-.22-1.49-.06-.44.22-.9.34-1.39.08-.2-.11-.52-.17-.68-.06-.39.25-.73.22-1.13.08-.55-.19-1.1-.18-1.61.22-.42.33-.91.29-1.39.3-.62,0-1.24-.39-1.87-.03-.06.04-.17.02-.24-.02-.86-.41-1.69-.46-2.55.06-.19.11-.5.1-.7,0-.73-.33-1.32-.43-2.15-.03-.13.07-.34.07-.46,0-1.05-.61-2.18-.45-3.27-.48-.88-.03-1.74-.08-2.6-.3-.23-.06-.45-.13-.69-.04-.64.23-1.25.15-1.85-.18-.38-.2-.78-.23-1.16-.07-.64.27-1.24.19-1.84-.14-.28-.16-.6-.27-.91-.28-.79-.02-1.56-.35-2.35-.21-.8.14-1.56-.24-2.35-.18-.47.04-.93.35-1.4.13-.46-.22-.92-.13-1.39-.1-.42.03-.74-.31-1.06-.55-.36-.27-.37-1.66-.04-2.02.02-.02.21-.22.25-.17.16-.1,1.05-.43,1.77-.36.39.04.79.02,1.15.25.3.19.59.2.9.03.38-.21.79-.25,1.16-.1,1.21.5,2.49.49,3.74.64.39.05.78.11,1.17.18.15.03.31.16.44.13,1.58-.35,3.16.01,4.74-.08.47-.03.78,0,1.24-.14.77-.24,1.38.03,2.44.16.27.19.59.28.87.45.23.13.45.17.68.09.27-.08.55-.13.82-.17l.21-.02s.05,0,.07-.01h.1s.41-.05.41-.05c.55-.04,1.1-.06,1.65-.15,1.3.22,3.09.11,3.25,0,.39.01.78.09,1.17.16.31.06.61.17.92.23.4.08.79,0,1.12-.3.35-.3.72-.36,1.11-.16.69.35,1.37.36,2.04-.04.67-.4,1.34-.39,2.05-.11.62.24,1.23.2,1.8-.22.42-.31.88-.27,1.35-.11.22.07.5.23.67.13.37-.22,1.22-.16,1.3-.3.07-.14.29-.12.41-.12.37,0,.69-.02,1.04-.09.35-.08.65-.37.95-.51.26-.1.51-.24.75-.13.23.12.44.02.45-.07.07-.06-.03-.07-.08-.04-.01,0-.02.02-.03.03-.04.04-.09.08-.12.14-.07.08-.12.29-.1.31.15-.13.23-.43.21-.78,0-.2-.03-.4-.13-.6-.08-.19-.23-.37-.46-.52-.23-.15-.25-.41-.3-.66-.01-.29-.39-1.15-.38-1.33.13-.79-.6-1.21-1.09-1.62-.23-.23-.63-.27-.86-.48-.18-.17-.27-.44-.45-.63-.13-.12-.49.04-.44-.27.07-.41-.06-.54-.4-.56-.39-.05-.86.18-1.16-.19-.21-.25-.61-.1-.86-.37-.27-.31-.71-.42-1.1-.44-.11,0-.21-.03-.31-.08l.28.04c-.46-.11-.86-.42-1.32-.32-.57.14-1-.21-1.47-.4-.45-.18-.9-.32-1.37-.44-.47-.11-.96-.13-1.5-.15-.54,0-1.07-.1-1.55-.38-.49-.24-.91-.65-1.23-1.13-.46-.7-.96-1.29-1.49-1.97-.7-.91-1.24-2.12-.95-3.3.09-.36-.05-.57-.05-1.05h0c-.37-.43,3.26,3.7,1.72,1.95h0s0,0,0,0h0s-.01,0-.01,0h-.03s-.06.02-.06.02l-.11.02-.22.04-.44.06c-.29.04-.59.06-.88.06-.59,0-1.17-.1-1.75-.34-.35-.15-.78-.09-1.17-.04-.39.04-.77.19-1.16.29-.82-.41-1.74-.09-2.56-.5-.17-.08-.29-.09-.45,0-.21.11-.45.26-.66.25-1.1-.06-2.22.35-3.31-.11-.46.1-.92.23-1.38.28-.79.09-1.6.04-2.37.2-.47.1-.9.1-1.38.07-1.26-.08-2.54-.03-3.8-.03-1.27,0-2.54.02-3.8,0h-.24s1.97-1.86,1.97-1.86c-.05.31-.14.62-.24.92-.1.31-.18.64-.04.93.28.62.25,1.25.23,1.88-.06,1.82-.11,3.65-.13,5.47,0,.63-.33,1.2-.27,1.86.05.52.04,1.1-.28,1.6l-.26,4.51c-.03.47-.06.95-.1,1.42-.02.25-.18.45-.42.58-.25.21.19.36-1,.41-.14.04-.92-.24-1-.33-.57-.65-.19-1.11-.43-1.88-.17-.52-.03-1.18-.06-1.73Z"/>
  </g>
  <path class="cls-3" d="M166.29,180.57c-.01.95.35,1.82.07,2.73-.13.42.29.88,0,1.32-.17.28-.07.6-.22.9-.19.39-.14.68.03,1.12.06.27.15.43.18,1,.02.44-.05.67.14,1.15.17.42-.17,1.09-.04,1.53.27.89-.07,1.55.45,2.51.3.85.16,1.7.22,2.43.02.94.01,1.89,0,2.83,0,.22-.1.45-.18.66-.17.46-.12.89.03,1.35.28.87-.13,3.44.02,3.83.21.53.43,4.56.37,4.9-.04.22-.14.43.01.59-.15.36.14.88-.08,1.18-.09.73-.14,1-.09,1.86.05.82-.79,1.71-.48,2.47.03,1.64.1,2.66.2,2.89.18.42-.13.61.05,1.03.25.57-.31,1.71-.08,1.85.25.15.17.51.37.73.44.46.37,1.1.13,1.7-.12.31.32.64.15.91-.31.48-.45,1.02-.42,1.63l.19,3.89c.03.82.1,1.66-.19,2.43.08,1.24.03,1.84.14,2.35.28.61-.06,1.22.32,1.77.52.75.43.59.44,1.72-.15.21-.31.85-.1,1.04-.13.6-.03,1.14-.05,1.19-.38.94.22.74-.22,1.72.05.53-.03.81.34,1.05.19.12.22.33.1.59-.11.24-.06.43.06.66.48.92-.15,2.09.28,3.04-.06.47.1.93.16,1.4l-2.11-2.07c.11-.01.22-.02.32-.01.94.03,1.87-.02,2.76.36.23.1.71-.02.99-.16.48-.22.9.2,1.35,0,.53-.24.85.13,1.23.32.3.15.59.28.97.11.54-.24,1.14-.14,1.72-.18.6-.04,1.17.34,1.7.11.75-.32,1.57.14,2.28-.27.46-.27.79.05,1.27-.05.48.54,1.13.63,1.87.51.79-.13,1.53-.4,2.39-.16.27.07.66-.15.99-.22.34-.07.68-.15,1.03-.15.71,0,1.31.48,2.04.36.68-.11,1.18-.04,1.86-.16.26-.04.64.01,1,.07l-1.63,1.59c.05-.3.1-.57.1-.78.02-1.05-.6-1.93-.05-2.86.01-.46.15-.95-.11-1.37-.32-.52-.34-1.06-.1-1.64.04-.1.11-.24.09-.33-.19-.68-.35-1.35-.01-2.03-.06-.58-.04-1.13.11-1.71.15-.55-.33-1.11-.1-1.7.18-.47.1-.9-.04-1.35-.15-.45-.11-.91,0-1.38.08-.33.18-.72.12-1.02-.39-1.74-.39-3.45.09-5.19.18-.65.08-1.27.07-1.97-.19-.57-.03-.93.3-1.21.17-.14.06-.31-.13-.51-.38-.95.33-1.7.2-2.18-.18-.67-.26-1.35.03-2.05.12-.29.21-.74.11-1-.22-.59-.17-1.08,0-1.67.22-.79.25-1.6-.12-2.38-.3-.63-.24-1.36-.22-2.07.03-.92.45-1.81.12-2.75-.03-.09-.01-.24.03-.35.45-1.25.53-2.49.04-3.76-.11-.28-.08-.73.02-1.03.35-1.03.48-2.03.08-3.07-.07-.19-.08-.5-.01-.69.58-1.58.38-3.25.38-4.88,0-1.3.02-2.59.22-3.87.05-.35.12-.67.02-1.02-.25-.93-.19-1.85.12-2.76.19-.57.21-1.16.03-1.72-.29-.94-.23-1.83.09-2.74.15-.42.25-.91.25-1.37,0-1.17.3-2.34.14-3.5-.17-1.18.2-2.33.1-3.5-.06-.69-.38-1.36-.17-2.06.21-.7.11-1.37.05-2.06-.05-.62.29-1.11.52-1.62.26-.55,1.65-.68,2.02-.22.02.03.23.29.18.36.11.22.47,1.54.42,2.61-.03.59,0,1.18-.21,1.73-.18.46-.18.89,0,1.34.22.54.28,1.16.13,1.72-.47,1.84-.41,3.73-.52,5.61-.03.58-.09,1.17-.15,1.75-.02.23-.15.47-.12.67.4,2.33.09,4.7.23,7.05.04.7.02,1.16.18,1.85.26,1.13.02,2.06-.09,3.64-.18.41-.26.89-.42,1.31-.13.34-.15.67-.07,1.02.37,1.61.23,3.28.37,4.91-.26,1.94-.23,4.62-.12,4.86-.03.58-.12,1.16-.22,1.74-.07.46-.2.9-.28,1.36-.1.6-.03,1.17.23,1.69.28.53.31,1.1.09,1.67-.4,1.01-.46,2.02-.1,3.06.35,1.03.28,2.05-.06,3.09-.3.91-.31,1.82.04,2.73.26.67.17,1.37-.05,2.06-.1.32-.29.73-.22.99.17.6-.02,1.89.11,2.03.12.14.07.47.05.67-.06.57-.11,1.07-.11,1.64,0,.57.22,1.14.27,1.72.04.46.07,1.03-.11,1.38-.42.82.07,1.6-.1,2.4-.14.67-.18,1.39-.2,2.09-.03.82,0,1.63.35,2.39.18.41.11.91.05,1.38-.07.53-.16,2.28-.28,2.54-.35.75-.31,1.58-.24,2.41l.14,1.54-1.96.23c-.37.04-.75.1-1.11.12-.58.05-1.14.25-1.72.28-.45.02-.91-.17-1.37-.19-.31-.01-.68.35-.94.05-.33-.39-.62-.42-1.14-.26-.63.19-1.2.56-1.99.38-.53-.12-1.09.13-1.7-.03-.65-.16-1.42-.2-2.09-.1-.85.13-1.61-.35-2.39-.16-.75.18-1.38-.06-2.06-.16-1.29-.18-2.57-.18-3.82.25-1.24.42-2.54.45-3.8.1-.55-.15-1.09-.22-1.65-.24l-1.9-.07.04-1.76c0-.37,0-.75-.04-1.14-.09-1.29-.25-2.59.13-3.85.11-.37-.02-.68-.07-1.02-.26-1.75-.42-3.48.05-5.23.14-.53.07-1.17.01-1.75-.06-.58-.21-1.14-.32-1.71.39-1.23.04-2.59.43-3.81.08-.25.08-.43,0-.66-.12-.31-.27-.66-.26-.98.03-1.64-.41-3.29.02-4.92-.11-.68-.25-1.36-.32-2.05-.11-1.17-.08-2.37-.27-3.52-.12-.7-.13-1.34-.11-2.05.05-1.88-.04-3.77-.07-5.66l-.1-5.66c0-.58.08-1.17.16-1.74.07-.47.12-.96-.04-1.39-.33-.89-.36-1.82-.4-2.77l-.37-8.13c-.05-.94.22-1.82.11-2.79-.09-.77-.14-1.63.14-2.4l-.15-6.72-.02-2.12c0-.37.14-.69.37-.9.23-.34-.22-.51.96-.73.14-.08.94.25,1.03.38.62.9.29,1.63.6,2.73.21.76.13,1.74.21,2.56Z"/>
  <g>
    <path class="cls-3" d="M165.27,268.23l1.24-19.67h25.78s-.78,6.11,9.36,6.84c7.54,1.6,9.89,8.52,9.06,11.14s-24.05,2.17-24.05,2.17l-21.79-1.51"/>
    <path class="cls-3" d="M164.46,264.33c.07-.64-.24-1.24.1-1.84.15-.27-.23-.61.07-.89.19-.17.1-.4.27-.58.22-.24.18-.44.04-.75-.05-.18-.12-.3-.12-.68,0-.3.09-.45-.07-.78-.14-.29.24-.72.13-1.02-.22-.62.17-1.03-.3-1.71-.25-.59-.06-1.15-.07-1.64.04-.63.1-1.27.18-1.9.02-.15.13-.29.22-.43.2-.29.17-.59.05-.91-.23-.6.34-2.29.22-2.56,0-.02-.02-.04-.02-.16v-.72s1.36-.55,1.36-.55c.45-.18,2.92-.32,3.13-.26.15.04.28.15.4,0,.24.16.59-.12.79.1.49.1.67.16,1.25.12.55-.04,1.14.82,1.66.53,1.1,0,1.79-.05,1.94-.15.28-.17.41.14.69-.03.39-.24,1.15.34,1.24.11.1-.25.34-.16.49-.36.32-.43.74-.34,1.14-.1.21.13.44-.31.62-.13.32.32.68.47,1.09.45l2.61-.12c.55-.02,1.12-.06,1.63.23.83-.06,1.24,0,1.58-.09.41-.27.82.08,1.19-.29.51-.51.4-.42,1.16-.4.14.15.57.33.7.12.4.14.76.05.8.07.63.4.5-.21,1.16.26.22-.03.38,0,.5-.07l1.36,1.54s.11.05.25.08c.18.04.21.12.09.24-.1.11-.05.2.08.28.26.16.27.37.3.61.03.23.09.48.38.55.05.27.42.32.57.51.27.33.62.55.81,1.11.06.15.34.17.53.13.31-.07.36.38.67.3.35-.1.38.31.54.54.12.19.26.37.52.27.36-.13.7.03,1.05.06.36.02.64.49,1.01.29.46-.24.89.17,1.33-.04l.24.03s.09-.02.14-.04c.4-.17.58.2.95.2.21.59.61.85,1.17.94.6.07,1.23.12,1.69.61.15.14.5.13.76.21.26.08.53.16.75.31.44.36.51.99.99,1.29.44.29.69.59,1.1.92.3.22.53.87.72,1.17.24.32.57.54.83.82.27.26.47.57.37,1.02.16.33.19.72.54.93.46.26.62.7.51,1.22-.02.09-.05.22-.01.28.15.25.29.52.36.8.06.29.04.61-.11.91.07.53.03,1.08-.27,1.67-.03.05-.18.46-.36.77-.21.37-.32.48-.48.68-.08.09-.16.18-.25.26-.08.08-.13.11-.21.16-.14.09-.3.17-.48.2-.49.02-.81.23-1.11.47-.32.27-.66.3-1.04.29-.26-.02-.55-.06-.76.05-1.17.64-2.38.82-3.63.49-.47-.12-.88.03-1.36.1-.37.23-.63.1-.85-.21-.11-.16-.22-.04-.34.17-.62.44-1.18-.22-1.49-.06-.44.22-.9.34-1.39.08-.2-.11-.52-.17-.68-.06-.39.25-.73.22-1.13.08-.55-.19-1.1-.18-1.61.22-.42.33-.91.29-1.39.3-.62,0-1.24-.39-1.87-.03-.06.04-.17.02-.24-.02-.86-.41-1.69-.46-2.54.06-.19.11-.5.1-.7,0-.73-.33-1.32-.43-2.15-.03-.13.07-.34.07-.46,0-1.05-.61-2.18-.45-3.27-.48-.88-.03-1.75-.08-2.6-.3-.23-.06-.45-.13-.69-.04-.64.23-1.25.15-1.85-.18-.38-.2-.78-.23-1.16-.07-.64.27-1.24.19-1.84-.14-.28-.16-.6-.27-.91-.28-.79-.02-1.56-.35-2.35-.21-.8.14-1.56-.24-2.35-.18-.47.04-.93.35-1.4.13-.46-.22-.92-.13-1.39-.1-.42.03-.74-.31-1.06-.55-.36-.27-.37-1.66-.04-2.02.02-.02.21-.22.25-.17.16-.1,1.05-.43,1.77-.36.39.04.79.02,1.15.25.3.19.59.2.9.03.38-.21.79-.25,1.16-.1,1.21.5,2.49.49,3.74.64.39.05.78.11,1.17.18.15.03.31.16.44.13,1.58-.35,3.16.01,4.74-.08.47-.03.78,0,1.24-.14.77-.24,1.38.03,2.44.16.27.19.59.28.87.45.23.13.45.17.68.09.27-.08.55-.13.82-.17l.21-.02s.05,0,.07-.01h.1s.41-.05.41-.05c.55-.04,1.1-.06,1.65-.15,1.3.22,3.09.11,3.25,0,.39.01.78.09,1.17.16.31.06.61.17.92.23.4.08.79,0,1.12-.3.35-.3.72-.36,1.11-.16.69.35,1.37.36,2.04-.04.67-.4,1.34-.39,2.05-.11.62.24,1.23.2,1.8-.22.42-.31.88-.27,1.35-.11.22.07.5.23.67.13.37-.22,1.22-.16,1.3-.3.07-.14.29-.12.41-.12.37,0,.69-.02,1.04-.09.35-.08.65-.37.95-.51.26-.1.51-.24.75-.13.23.12.44.02.45-.07.07-.06-.03-.07-.08-.04-.01,0-.02.02-.03.03-.04.04-.09.08-.12.14-.07.08-.12.29-.1.31.15-.13.23-.43.21-.78,0-.2-.03-.4-.13-.6-.08-.19-.23-.37-.46-.52-.23-.15-.25-.41-.3-.66-.01-.29-.39-1.15-.38-1.33.13-.79-.6-1.21-1.09-1.62-.23-.23-.63-.27-.86-.48-.18-.17-.27-.44-.45-.63-.13-.12-.49.04-.44-.27.07-.41-.06-.54-.4-.56-.39-.05-.86.18-1.16-.19-.21-.25-.61-.1-.86-.37-.27-.31-.71-.42-1.1-.44-.11,0-.21-.03-.31-.08l.28.04c-.46-.11-.86-.42-1.32-.32-.57.14-1-.21-1.47-.4-.45-.18-.9-.32-1.37-.44-.47-.11-.96-.13-1.5-.15-.54,0-1.07-.1-1.55-.38-.49-.24-.91-.65-1.23-1.13-.46-.7-.96-1.29-1.49-1.97-.7-.91-1.24-2.12-.95-3.3.09-.36-.05-.57-.05-1.05h0c-.37-.43,3.26,3.7,1.72,1.95h0s0,0,0,0h0s-.01,0-.01,0h-.03s-.06.02-.06.02l-.11.02-.22.04-.44.06c-.29.04-.59.06-.88.06-.59,0-1.17-.1-1.75-.34-.35-.15-.78-.09-1.17-.04-.39.04-.77.19-1.16.29-.82-.41-1.74-.09-2.56-.5-.17-.08-.29-.09-.45,0-.21.11-.45.26-.66.25-1.1-.06-2.21.35-3.31-.11-.46.1-.92.23-1.38.28-.79.09-1.6.04-2.37.2-.47.1-.9.1-1.38.07-1.26-.08-2.54-.03-3.8-.03-1.27,0-2.54.02-3.8,0h-.24s1.97-1.86,1.97-1.86c-.05.31-.14.62-.24.92-.1.31-.18.64-.04.93.28.62.25,1.25.23,1.88-.06,1.82-.11,3.65-.13,5.47,0,.63-.33,1.2-.27,1.86.05.52.04,1.1-.28,1.6l-.26,4.51c-.03.47-.06.95-.1,1.42-.02.25-.18.45-.42.58-.25.21.19.36-1,.41-.14.04-.92-.24-1-.33-.57-.65-.19-1.11-.43-1.88-.17-.52-.03-1.18-.06-1.73Z"/>
  </g>
  <path class="cls-3" d="M67.07,116.34c-.76-.31-1.5-.59-2.21-.91-.71-.33-1.44-.62-2.02-1.18-.54-.49-1.44-.57-1.94-1.21-.32-.38-.8-.66-1.12-1.07-.41-.55-.84-.8-1.55-1.14-.41-.22-.68-.33-1.42-.97-.58-.49-.82-.81-1.56-1.22-.68-.33-1.21-1.44-1.82-1.9-1.25-.95-1.77-1.96-3.17-2.98-1.12-.99-1.98-2.19-2.66-3.25l-1.33-2.05c-.44-.69-.89-1.36-1.24-2.1-.18-.34-.27-.73-.37-1.09-.21-.78-.6-1.39-1.11-2.03-.23-.3-.54-.77-.8-1.35-.25-.58-.52-1.25-.76-1.89-.49-1.28-.93-2.47-1.13-2.75-.07-.1-.18-.28-.31-.53-.1-.19-.23-.43-.38-.7-.26-.4-.75-.85-1.49-1.39-.72-.53-1.56-1.15-2.15-1.76-.61-.57-.96-1.11-1.06-1.23-.22-.38-.33-.77-.64-.96-.2-.67-.92-1.45-.88-2.06-.19-.66-.31-1.1-.39-1.57-.08-.47-.26-.97-.38-1.72-.31-1.45.42-3.07.08-4.3-.02-.67-.03-1.28-.05-1.82,0-.43-.08-.67-.24-.89-.35-.38-.73-.38-.84-.36-.38.11-.62-.19-1.18.09-.35.2-.93.31-1.45.49-.51.19-.95.42-.96.57-.02.33-.46.6-.51.98-.12.77-.6,1.35-1.12,2.05-.28.37.04.93-.2,1.24-.43.59-.59,1.42-.48,2.33.16.97.43,1.94.81,2.88.18.47.42.93.63,1.39l.37.68.19.34.09.17.16.24c.38.58.76,1.16,1.14,1.73.19.49.34.97.48,1.43.04.23.23.44,0,.68-.18.2-.41.33-.66.43-.48.32-1.04.54-1.53.61-.53.04-.97.1-1.41.11-1.01.05-1.25.1-1.69.22-.92.42-1.96.29-2.76.86-1.08.82-.83.63-2.61,1.14-.38-.06-1.42.1-1.66.39-.98.16-1.79.56-1.88.56-1.59.13-1.09.62-2.75.74-.79.36-1.26.46-1.49.94-.12.25-.44.4-.87.46-.4.05-.68.22-.97.48-1.19,1.04-3.19,1.27-4.29,2.39l-.13.06-.04.02s-.04.02-.05.03c-.03.02-.04.06-.05.08-.02.06,0,.11,0,.15,0,.01-.01.02-.03.03-.07.06-.03.17,0,.24.03.08.04.18.16.4.06.06.06.06.28.03.26-.01.54-.08.75-.15.69-.23,1.37.14,2.07-.14.8-.33,1.35-.05,1.99.04.51.06,1,.11,1.58-.19.81-.41,1.8-.52,2.72-.79.95-.28,1.96-.14,2.76-.59.57-.31,1.2-.45,1.87-.59l.54-.11c.08-.02.23-.05.37-.07.05,0,.04,0,.14-.02.19-.01.39,0,.58.04.09.02.19.05.27.08l.06.03c.14.07.35.2.52.38.38.36.49,1.03.44,1.26-.02.31-.15.66-.34.9-.06.08-.09.11-.14.16-.32.31-.34.3-.45.4l-.23.19c-.14.12-.26.23-.37.36-.56.64-1.19.64-1.83,1.12-.95-.07-1.93.4-2.91,1.15-1.04.79-1.92,1.69-3.19,2.29-.4.19-.78.74-1.18,1.13-.4.38-.78.79-1.2,1.13-.87.71-1.92.99-2.64,1.9-.65.84-1.21,1.39-1.66,2.27-.15.29-.41.67-.64,1.05-.26.48-.32.52-.36.68-.09.32.19.53.45.49.12,0,.21-.03.29-.02.04,0,.08.02.12.05l.08.05c.08.01.17.03.25.05.64-.09,1.42-.16,1.96-.59.68-.54,1.45-.85,2.42-.96.17-.02.41-.04.53-.12.94-.59,1.87-1.16,3.05-1.33.84-.45,1.67-.82,2.61-1.1.9-.27,1.51-1.1,2.52-1.33.81-.19,1.41-.57,2.12-1.04.18-.12.37-.23.66-.34.06-.03.16-.06.27-.09.04-.01.12-.03.22-.05.12-.02.1-.03.41-.05.12,0,.24,0,.36.01h.05s.16.04.16.04c.11.02.22.06.33.1.22.08.43.2.6.34.1.08.15.12.26.24.1.12.2.25.29.41.17.31.27.67.28.99,0,.2,0,.21,0,.29l-.03.2c-.02.13-.06.26-.1.39-.12.32-.13.29-.18.39-.04.08-.09.15-.14.22-.07.1-.11.14-.17.21-.35.38-.5.47-.7.63-.19.14-.37.26-.55.36-.51.31-1.1.62-1.46.98-2.09,2.08-4.29,3.77-6.67,5.31-.88.58-1.52,1.35-2.18,2.14-.39.76-.75,1.04-1.21,1.19-.23.08-.24.32-.11.55.01.1.02.18.03.23-.02.05.09.07-.05.06-.39,0-.45.1-.31.02l.49,1.38s0,0-.05,0c-.23,0-.32-.04-.46-.04-.13,0-.28.04-.31.03-.05,0-.16.05-.16.05,0,0,0,0-.02,0,.01,0,.07-.06.09-.08.01-.02.02-.03.03-.05.03-.03.06-.07.08-.1.05-.07.09-.14.11-.21.02-.06.16-.33.13-.27.01-.01,0-.01.03-.02.06-.02.07-.01.16-.03l.52-.06c.41-.04.9-.09,1.43-.06.45.01,1.15-.11,1.49-.34.79-.51,1.52-.76,2.46-.99,1.26-.32,2.46-.9,3.39-1.83.74-.76,1.8-1.29,2.79-1.88,1.28-.76,2.76-1.22,3.83-2.36.11-.11.32-.24.48-.31.98-.41,1.89-.91,2.72-1.51l.41-.31.56-.43c.38-.32.73-.55,1.09-.8.37-.27.74-.54,1.12-.81l.59-.44s.05-.04.07-.05l.06.05.11.1.22.19c.25.23.61.57.95,1.05.34.48.66,1,.87,1.47l.28.58.14.29.06.15.26.57c.18.38.39.74.61,1.08.45.69.99,1.32,1.65,1.87.25.2.56.58.69.87,1.14,2.38,3.13,4.27,5.05,6.07,1.54,1.44,3.1,2.82,4.67,4.19.41.39.81.73,1.33.97.68.33,1.33.69,1.95,1.1.61.42,1.2.87,1.77,1.36.7.64,1.58,1.07,2.45,1.32,1.49.39,2.75,1.01,4.04,1.82.59.4,1.31.74,2.01.96.9.31,1.8.62,2.71.91.9.32,1.83.52,2.77.63,1.91.2,3.72.81,5.64.86,1.12.08,2.22-.28,3.35,0,1.14.24,2.23.07,3.36.01,1-.09,1.83.16,2.69.34.93.19,1.34,1.55.6,1.98-.05.03-.47.26-.59.22-.36.13-2.57.69-4.42.63-1.01.02-2.04,0-2.98-.25-.78-.2-1.51-.23-2.3-.13-.94.12-2.02.13-2.96-.18-3.09-.86-6.26-1.54-9.29-2.67-.95-.31-1.85-.77-2.77-1.17-.36-.15-.68-.45-1.01-.55-3.82-1.21-7.26-3.53-10.54-5.84-1-.68-1.59-1.2-2.6-1.83-1.64-1.07-2.69-2.33-4.5-4.37-.34-.65-.86-1.29-1.22-1.96-.29-.53-.65-.97-1.08-1.38-1.02-.93-1.91-2.02-2.76-3.15-.42-.57-.83-1.15-1.23-1.73l-.56-.81c-.08-.1-.16-.19-.23-.26-.06-.14-.12-.3-.2-.46-.01-.02-.02-.04-.03-.05l-.05.03-.1.06-.2.13c-.14.1-.28.19-.41.28-.34.24-.67.48-.98.7-1.3.94-2.31,1.67-2.45,1.83-.84.54-1.72,1.01-2.59,1.46-.7.36-1.42.65-2.13.99-.93.44-1.74.98-2.39,1.64-.67.67-1.52,1.16-2.52,1.39-1.77.4-3.36,1.01-5.07,1.86-.86.41-1.8.7-2.95.7-.59-.03-1.25-.07-2.08-.55-.4-.24-.86-.66-1.1-1.22-.14-.27-.17-.54-.22-.81-.03-.26,0-.47.03-.71.04-.22.1-.41.16-.62l.18,1.17c-.31-.6-.41-1.31-.35-1.88.06-.58.22-1.05.38-1.48.34-.85.73-1.55,1.08-2.28.57-1.15,1.53-2.01,2.56-2.68.49-.32,1.14-.65,1.42-1,.66-.82,2.5-2.07,2.61-2.31.11-.24.59-.56.86-.74.8-.55,1.51-1.03,2.26-1.6.38-.29.72-.62,1.05-.96.29-.31.59-.61.89-.92l.04-.05h0s.24.23.24.23c.24.21.36.34.53.48.08.07.17.13.26.2.06.05.11.1.18.14.16.08.22.13.29.12.03-.06-.07.2.02.62.03.24.08.39.15.68l.11.44.05.18h0s-.03.02-.05.02l-.21.08c-.31.12-.67.25-.97.29-1.4.2-2.36,1.22-3.65,1.66-1.09.37-2.21.86-3.32,1.32-1.3.55-2.56,1.12-3.67,1.91-.6.42-1.48.66-2.32.85-.47.1-1.48.36-2.57.48-.21.02-.72.07-1.09.06-.39,0-.75-.03-1.06-.09-.63-.1-1.03-.31-1.19-.41-.64-.41-1.2-1.01-1.49-1.75-.3-.73-.3-1.53-.16-2.39.08-.42.18-.85.31-1.27.1-.32.2-.6.32-.89.23-.57.5-1.09.8-1.58.59-.95,1.12-1.89,1.85-2.68.57-.61,1.3-1.04,1.93-1.57.42-.35.7-1.05,1.25-1.1.69-.06,1.11-.33,1.75-1.01.77-.79,1.38-1.67,2.62-2.26.83-.4,1.52-1.12,2.49-1.53,1.04-.44,2.2-1.06,3.12-1.71.29-.2.59-.37.85-.5l.17-.08s.04-.02.04-.02h0s.13.17.13.17c.13.16.2.27.27.37.15.21.33.42.5.6.08.13.26.26.33.33.09.08.11-.05.01.2-.15.41.11.53.13,1.47l.03.28c.01.1,0,.03,0,.05h0s0-.01,0-.01c0,0-.04,0-.07,0-.53.03-1.22.15-1.82.4-1.18.5-2.27.53-3.43.71-2.19.34-4.31.79-6.47,1.47-1.08.33-2.24.54-3.52.49l-.31-.02c-.12,0-.26-.02-.39-.04l-.77-.14c-.53-.06-.97-.29-1.44-.44-.85-.43-1.53-1-1.94-1.7-.3-.61-.52-1.25-.56-1.93-.03-.33.02-.68.02-1l.14-.79c.91-.72,1.86-1.36,2.83-2.08l.9-.55c.25-.15.49-.31.74-.44.5-.27,1-.54,1.5-.79,1.01-.47,2.05-.88,3.12-1.12.62-.15,1.07-.46,1.59-.72,2.69-1.34,5.48-2.45,8.5-2.8.91-.1,1.95-.46,2.94-.71.98-.27,1.92-.6,2.99-.82.18,0,.11.03.17.05.03.02.07.03.1.04.07.03.16.05.24.07.17.05.34.03.5-.01.08-.02.16-.05.24-.09.03-.02.08-.05.07-.09-.01-.03-.03-.06-.05-.09-.06-.13-.11-.25-.14-.4-.02-.08-.03-.16-.04-.25,0-.1-.04-.18-.08-.26-.02-.04-.05-.08-.09-.11-.03-.03-.07-.07-.15-.16-.35-.44-.8-.91-1.03-1.47-.62-1.35-1.18-2.78-1.48-4.33-.29-1.54-.24-3.25.43-4.75.28-1.33.86-2.65,1.79-3.74.79-.93,1.79-1.69,2.92-2.23.57-.27,1.17-.49,1.81-.63.62-.15,1.38-.23,2.29-.11,1.06.15,2.01.69,2.6,1.52.3.42.47.9.6,1.4.04.25.07.53.09.77,0,.15,0,.31,0,.46,0,.82,0,1.7.04,2.47.07.73.09,1.49.22,2.2.2,1.45.57,2.82,1.09,4.04.54,1.22,1.28,2.16,2.33,3.04.53.46,1.15.88,1.88,1.53.71.62,1.54,1.6,1.9,2.68.4.92.68,1.78.97,2.68.24.73.51,1.49.93,2.06.41.61.85,1.22,1.25,1.86.4.64.77,1.31,1.14,1.98l.8,1.44.92,1.36,1.85,2.72c1.4,1.67,2.7,3.43,4.28,4.91.53.52.96,1.13,1.46,1.66.51.52,1.03,1.05,1.64,1.52.94.8,2.09,1.5,2.9,2.49,2.94,2.03,6.14,3.66,9.5,4.72,1.06.33,2.13.62,3.21.83.57.13,1.02.31,1.31.6.48.29.78-.12,1,1.06.13.15-.46.91-.71.97-1.62.43-2.82-.14-4.72-.36-1.32-.17-2.91-.81-4.22-1.32Z"/>
</svg>