<?xml version="1.0" encoding="UTF-8"?>
<svg id="illuer_blå_bg" xmlns="http://www.w3.org/2000/svg" viewBox="0 0 236.62 258.24">
  <defs>
    <style>
      .cls-1 {
        fill: #ff9400;
      }

      .cls-2 {
        fill: #0354f0;
      }

      .cls-3 {
        fill: #ffe6c4;
      }
    </style>
  </defs>
  <path class="cls-1" d="M98.85,169.77c-27.13,2.79-47.77-2.03-61.89-14.47-14.17-12.41-22.34-29.41-24.55-50.96-2.21-21.55,2.33-39.83,13.68-54.89,11.32-15.06,30.29-23.94,56.87-26.67,26.58-2.73,47.61,2.04,61.5,14.51,13.88,12.44,21.94,29.45,24.16,51,2.21,21.55-2.23,39.82-13.29,54.84-11.06,15-29.89,23.9-56.45,26.62"/>
  <path class="cls-3" d="M46.89,11.48c.71-8.78,2.71-3.61,17.7-5.94.33,6.08,1.02,3.69-14.95,10.4.38.79.69,1.52.93,2.17l.15.41.03.09c.27.95-.25,1.96-1.19,2.28-.95.32-1.97-.16-2.34-1.08l-.03-.09-.13-.36c-1.39-3.78-5.34-10.43-13.08-12.06l-.38-.08-.09-.02c-.96-.23-1.59-1.18-1.4-2.16.18-.98,1.1-1.64,2.08-1.51h.1s.47.11.47.11c5.61,1.18,9.53,4.45,12.14,7.83Z"/>
  <ellipse class="cls-2" cx="103.21" cy="81.67" rx="3.92" ry="5.23" transform="translate(-6.96 9.66) rotate(-5.19)"/>
  <ellipse class="cls-2" cx="133.45" cy="74.87" rx="3.92" ry="5.23" transform="translate(-6.22 12.37) rotate(-5.19)"/>
  <path class="cls-2" d="M134.51,95.41c-.55.83-4.09,3.13-5.06,3.5-2.68,1.03-8.43,1.63-11.31,1.71-1.4.04-4.62-.66-5.62-1.64-2.63-2.61.69-3.25,3.08-3.42,1.93-.13,2.98.65,4.61.74.93.05,5.59-.78,6.62-1.07,2.25-.64,4.31-3.32,5.88-3.54,2.59-.36,3.01,1.88,1.79,3.72h0Z"/>
  <path class="cls-3" d="M13.35,118.55c-.22.72-.03,1.47-.49,2.11-.2.29.11.74-.24,1.02-.22.17-.18.45-.38.64-.26.25-.26.49-.18.87.01.22.07.36,0,.81-.06.35-.17.51-.06.92.1.36-.35.81-.29,1.18.11.74-.32,1.19.05,2.03.16.71-.1,1.34-.14,1.92-.11.74-.25,1.47-.38,2.2-.03.17-.15.34-.26.49-.23.33-.23.68-.13,1.06.18.71-.5,2.67-.39,2.99.15.44.04,3.61-.02,3.87-.05.17-.17.32-.03.46-.18.27.08.69-.15.92-.13.57-.2.78-.19,1.47.01.65-.88,1.32-.61,1.94-.05,1.3-.02,2.12.07,2.31.16.34-.16.48,0,.82.22.46-.38,1.35-.16,1.47.24.13.15.41.34.59.42.39.32.89.06,1.36-.13.25.3.53.11.73-.33.37-.49.8-.48,1.28l.05,3.1c0,.65.04,1.32-.27,1.93.04.99-.04,1.47.06,1.88.27.49-.1.97.27,1.42.5.61.41.48.38,1.38-.16.17-.34.67-.13.82-.15.47-.06.9-.08.95-.41.74.2.6-.27,1.37.04.42-.05.65.31.84.19.1.21.27.08.48-.12.19-.07.34.04.53.45.75-.2,1.66.2,2.43-.09.45.16.92.14,1.38-.04.75.01,1.49-.37,2.2-.1.19.02.56.15.79.22.38-.2.71,0,1.08.23.43-.14.68-.32.98-.15.24-.28.47-.11.78.24.43.13.91.18,1.37.01.11,0,.22-.03.33v.15c-.12.38-.34.69-.2,1.05.24.64-.29,1.25.03,1.88.21.41-.14.64-.1,1.04-.59.3-.76.81-.75,1.42.02.65.16,1.31-.21,1.95-.12.2.03.56.04.85,0,.29.01.59-.05.87-.14.58-.75.94-.8,1.56-.06.58-.27.97-.36,1.56-.08.4-.55,1-.76,1.38-.1.21-.16.44-.22.66-.08.23-.15.46-.23.68-.2.5-.3.68-.72.83-.17.27-.46.52-.37.9.13.48,0,.8-.36,1.08-.07.05-.17.11-.16.18.02.51.05.96-.37,1.32-.03.39-.09.73-.28,1.07-.08.17-.02.35.06.52.08.17.15.32.05.5-.13.26-.04.53.18.68.11.08.16.18.19.27.05.08.06.18.05.3-.02.17.03.33.15.41.75.25,1.45.5,1.91.94.11.08.22.04.33.03.11-.04.22-.15.34-.2.12-.31.32-.26.65-.1.16.07.18-.08.13-.3.11-.62.93-.55,1.02-.91.12-.47.27-.91.77-1.19.2-.12.43-.38.42-.59-.01-.48.17-.79.49-1.12.42-.46.67-1.03.49-1.7-.15-.54.07-1.03.23-1.54.14-.43.43-.83.56-1.27l3.86,1.2c-.07.17-.11.41-.07.65.01.08-.04.18-.1.24-.68.77-.99,1.69-.7,2.72.07.22-.02.55-.15.75-.47.68-.68,1.42-.33,2.18.06.14.07.35,0,.47-.61,1.05-.26,2.26.09,2.84.14.24.27.37.38.48.11.11.27.23.5.35.12.08.23.13.34.02.22-.31.32-.28.87-.38.33-.06.57-.35.61-.73.06-.64.34-1.12.87-1.6.25-.22.46-.52.56-.84.26-.82.77-1.6.8-2.51.02-.92.53-1.71.57-2.63.02-.54-.23-1.1.04-1.61.27-.51.22-1.05.22-1.59,0-.48.36-.84.63-1.21.29-.41,1.68-.39,2.02,0,.02.03.21.25.15.31.09.19.36,1.28.22,2.15-.08.47-.11.96-.37,1.37-.22.34-.28.69-.15,1.08.15.47.13.99-.09,1.42-.72,1.4-1.01,2.93-1.62,4.39-.19.45-.42.9-.67,1.33-.1.17-.3.3-.35.47-.27.98-.82,1.94-1.77,2.7-.47.37-1.05.7-1.7.84-.64.15-1.32.17-1.94.07-.75-.14-1.24-.33-1.98-.71-.6-.32-1.05-.83-1.31-1.41-.27-.58-.43-1.24-.53-2,.1-.42.12-.86.24-1.26.11-.31.11-.6.03-.89-.39-1.4-.08-2.82.02-4.19.53-1.56,1.1-3.68,1.07-3.92.08-.21.16-.4.28-.62l.18-.36c.37-.74,1.27-1.05,2.02-.67.72.36,1.02,1.22.71,1.94l-.32.75c-.16.36-.39.68-.56,1.02-.24.45-.31.92-.19,1.42.12.51,0,.99-.4,1.35-.67.65-1.07,1.38-1.18,2.34-.11.96-.68,1.75-1.56,2.28-.39.23-.71.49-1.05.79-.3.31-.62.64-.94,1.06-.47.61-1.37.86-2.2.75-.39-.03-.85-.28-1.15-.2-.36.09-.85-.09-1.3-.21-.41-.16-.72-.34-.82-.32-.19.05-.48-.15-.64-.3-.24-.21-.47-.38-.68-.59-.2-.22-.41-.43-.62-.66-.39-.49-.93-.91-1.22-1.51-.23-.45-.45-1.08-.33-1.47.14-.46.06-.85,0-1.24-.08-.4-.14-.79-.02-1.17.19-.64.34-1.29.53-1.9.21-.73.41-1.42.36-2.19-.04-.43.25-.81.48-1.18.15-.2.42-.64.72-1.04.3-.39.6-.76.65-.75.18-.07.33-.18.46-.32.12-.15.21-.34.28-.53.16-.36.2-.84.32-1.23.09-.42.03-.86.13-1.28.07-.33.35-.6.46-.93.07-.22-.22-.58.12-.7.44-.15.52-.36.45-.79-.08-.51-.35-1.01-.06-1.57.2-.38.03-.84.26-1.28.24-.47.38-1.05.35-1.58-.03-.67.52-1.19.4-1.82-.09-.45.06-.82.19-1.18v.16c.03-.13.06-.27.08-.4.18-1.03.18-2.05-.24-3.05-.42-.99-.44-2.03-.09-3.04.25-.73.29-1.46.24-2.22-.06-1.03-.18-2.08.23-3.07.12-.29,0-.54-.04-.82-.22-1.4-.32-2.79.19-4.18.16-.42.1-.93.07-1.39-.04-.46-.18-.92-.27-1.38.43-.97.12-2.07.55-3.03.09-.2.1-.34.02-.53-.11-.25-.25-.54-.23-.8.09-1.31-.29-2.64.2-3.93-.08-.55-.2-1.09-.23-1.65-.06-.94.02-1.9-.12-2.83-.08-.57-.06-1.08-.01-1.64.14-1.51.15-3.01.23-4.54.08-1.53.17-3.06.34-4.59.04-.47.19-.93.33-1.39.12-.37.22-.76.11-1.12-.24-.76-.14-1.51-.06-2.28.23-2.19.53-4.37.84-6.56.11-.75.52-1.4.59-2.19.05-.63.16-1.32.58-1.87.38-1.78.8-3.54,1.25-5.31.14-.56.3-1.11.47-1.66.09-.29.3-.5.57-.6.3-.19-.08-.47,1.1-.28.15-.01.83.48.89.61.38.86-.11,1.32-.06,2.24.04.63-.25,1.36-.35,2Z"/>
  <path class="cls-3" d="M21.1,207.34c.41-.1.65-.5,1.1-.4.22.05.23-.39.52-.22.18.09.26-.06.45,0,.25.09.34-.03.43-.26.07-.11.07-.23.26-.4.14-.13.27-.13.32-.4.04-.22.47-.18.53-.41.09-.45.57-.4.43-1.08-.01-.47.35-.63.47-.94.2-.35.43-.69.67-1.02.05-.09.18-.13.29-.18.25-.11.28-.31.24-.56-.05-.24.17-.55.35-.87.17-.32.35-.62.31-.73-.06-.15.04-.66.11-1.17.06-.52.15-1.01.2-1.08.07-.09.19-.16.06-.26.19-.13-.03-.42.22-.51.01-.02.03-.05.04-.06l-.02.24c.09-.3.14-.44.12-.83-.03-.4.84-.81.55-1.19.02-.8-.03-1.3-.12-1.42-.17-.21.14-.3-.02-.5-.23-.28.36-.83.13-.9-.25-.08-.15-.25-.35-.36-.43-.24-.33-.54-.08-.83.13-.15-.3-.32-.12-.45.33-.23.48-.49.47-.79l-.08-1.9c0-.4-.05-.81.26-1.18-.05-.61.03-.9-.07-1.15-.27-.3.09-.6-.27-.87-.5-.38-.42-.3-.39-.85.16-.1.34-.41.13-.5.15-.29.06-.55.08-.58.41-.45-.2-.37.27-.84-.04-.26.05-.4-.31-.52-.19-.06-.21-.17-.08-.29.12-.11.07-.21-.04-.32-.45-.46.21-1.02-.19-1.49.09-.28-.16-.56-.13-.85.04-.46,0-.91.38-1.34.1-.11-.02-.35-.15-.49-.22-.24.21-.44.01-.66-.23-.26.14-.41.33-.6.15-.15.28-.29.11-.47-.24-.27-.12-.56-.16-.84-.04-.29.35-.57.13-.83-.31-.37.15-.77-.25-1.12-.26-.23.05-.39-.04-.62.54-.23.64-.54.52-.91-.13-.39-.4-.75-.16-1.17.07-.13-.15-.32-.22-.49-.07-.17-.15-.34-.15-.5,0-.35.48-.64.36-1-.11-.33-.04-.58-.15-.91-.08-.22.16-.64.15-.87,0-.52-.65-.94-.12-1.4,0-.23.12-.47-.14-.67-.33-.26-.37-.52-.14-.8.04-.05.11-.12.08-.16-.21-.33-.38-.66-.06-.99-.08-.28-.07-.55.07-.84.13-.27-.36-.54-.14-.83.17-.23.08-.44-.08-.66-.16-.22-.13-.44-.03-.67.07-.16.17-.35.09-.5-.43-.85-.48-1.69-.04-2.54.16-.32.04-.62.02-.97-.2-.28-.06-.45.26-.59.16-.07.06-.15-.14-.25-.4-.46.28-.83.14-1.07-.2-.33-.3-.66-.02-1,.11-.14.19-.36.09-.49-.24-.29-.2-.53-.05-.82.2-.39.21-.78-.18-1.17-.32-.31-.28-.67-.27-1.01,0-.45.4-.89.05-1.35-.04-.05-.02-.12.02-.17.42-.62.45-1.19-.04-1.9-.11-.14-.09-.38.02-.52.35-.5.48-.99.1-1.53-.07-.1-.08-.25,0-.34.59-.75.43-1.59.46-2.41.02-.65.08-1.29.31-1.91.06-.17.14-.32.05-.5-.22-.49-.13-.94.21-1.36.21-.26.25-.55.1-.85-.25-.5-.15-.94.21-1.35.16-.19.29-.42.32-.64.06-.58.41-1.11.33-1.71-.09-.61.33-1.12.32-1.71,0-.35-.28-.74-.03-1.05.25-.31.21-.65.21-1.01,0-.31.37-.49.64-.69.29-.22,1.67,0,1.99.3.02.02.2.19.15.21.09.13.34.83.22,1.33-.07.27-.08.57-.33.79-.2.19-.24.39-.09.64.18.3.2.6.03.85-.57.81-.62,1.73-.81,2.62-.06.28-.14.55-.22.82-.03.11-.17.21-.14.31.3,1.17-.09,2.29-.02,3.43.02.34,0,.56.13.91.23.57-.03.99-.16,1.75-.19.18-.27.41-.44.61-.13.16-.16.32-.09.49.35.8.2,1.6.35,2.39-.27.88-.13,2.2-.03,2.32-.02.28-.09.57-.17.85-.06.22-.18.44-.24.67-.09.29,0,.57.28.83.29.26.34.54.13.82-.37.49-.4.99-.03,1.49.38.51.34,1,.02,1.51-.28.44-.27.89.11,1.34.28.33.21.67,0,1.01-.09.16-.27.36-.19.48.19.29.03.92.16.99.13.07.09.23.07.33-.05.28-.08.52-.06.8.01.28.25.56.31.84.05.22.1.5-.07.67-.4.4.11.78-.04,1.17-.13.33-.14.68-.15,1.02-.01.4.05.8.41,1.17.19.2.14.45.09.68-.06.26-.1,1.11-.21,1.24-.48.53-.14,1.15-.05,1.72.05.28.25.56.28.84.02.22-.17.44-.19.67-.01.15.35.33.05.46-.39.16-.42.3-.26.56.19.31.56.59.38.98-.12.26.13.53-.03.83-.17.32-.22.69-.12,1.02.12.42-.37.78-.19,1.17.18.37-.07.67-.18,1.01-.19.63-.2,1.25.21,1.87.41.61.42,1.25.07,1.86-.26.45-.29.89-.25,1.36.06.63.17,1.27-.24,1.88-.12.18,0,.33.04.5.22.86.32,1.71-.19,2.56-.15.25-.1.57-.06.85.04.28.18.56.28.85-.42.59-.11,1.27-.54,1.85-.09.12-.1.21-.01.32.11.16.25.33.24.49-.08.8.32,1.62-.16,2.4.09.34.21.67.26,1.01.07.58.01,1.16.17,1.73.1.35.09.66.05,1-.09.83-.07,1.66-.08,2.49v.18s-.03.14-.03.14l-.06.29c-.24.97-.36,1.94-.74,2.9-.1.29-.29.56-.47.82-.15.21-.27.44-.24.7.1.56-.11,1.04-.3,1.53-.31.69-.69,1.37-1.08,2.04-.46.65-.87,1.32-1.45,1.92-.19.21-.42.36-.66.51-.25.13-.5.27-.7.48-.31.36-.76.66-1.31.64-1.17.67-2.47,1.14-3.82,1.32-.42.06-.86.09-1.3.08-.24-.01-.43-.16-.55-.4-.19-.25-.37.18-.35-1.01,0-.14.28-.9.34-.99.44-.57.75-.23,1.22-.56.31-.22.73-.21,1.06-.35Z"/>
  <path class="cls-3" d="M57.4,165.98c-.04.91.29,1.76-.01,2.63-.14.4.26.85-.03,1.27-.18.26-.09.58-.24.86-.21.36-.16.65,0,1.08.05.26.14.42.15.96.01.43-.07.65.11,1.11.16.4-.2,1.04-.08,1.47.24.87-.12,1.48.38,2.42.27.83.11,1.64.15,2.34-.01.91-.04,1.81-.09,2.72-.01.21-.11.43-.2.63-.19.44-.15.85,0,1.3.26.84-.24,3.3-.1,3.68.19.52.3,4.39.22,4.72-.05.21-.16.4,0,.57-.17.34.11.85-.11,1.13-.11.7-.17.95-.14,1.78.03.79-.84,1.62-.56,2.36-.02,1.57.02,2.56.11,2.78.17.4-.15.58.02.99.23.55-.36,1.64-.13,1.78.24.15.15.49.35.71.42.46.33,1.06.08,1.64-.13.3.3.63.12.88-.33.45-.48.97-.47,1.55l.07,3.74c0,.79.04,1.6-.26,2.33.05,1.19-.03,1.77.07,2.26.27.59-.1,1.17.27,1.71.5.74.41.58.38,1.66-.16.2-.34.81-.14.99-.15.57-.06,1.09-.08,1.14-.41.89.2.72-.28,1.65.04.51-.05.78.31,1.02.18.12.21.33.08.57-.12.23-.07.41.04.63.45.9-.21,2.01.19,2.93-.1.55.15,1.11.13,1.66-.04.9,0,1.8-.39,2.65-.1.22.02.68.14.95.1.2.06.4.02.58l-1.95-1.97c.24.06.47.14.72.03.51-.24.82.13,1.18.32.29.15.57.28.94.11.52-.24,1.1-.14,1.65-.18.57-.04,1.12.34,1.64.11.72-.32,1.51.14,2.19-.27.45-.27.76.05,1.22-.05.46.54,1.08.63,1.79.51.76-.13,1.47-.4,2.29-.16.26.07.63-.15.96-.22.32-.07.66-.15.98-.15.68,0,1.26.48,1.96.36.65-.11,1.14-.04,1.79-.15.44-.08,1.25.16,1.71.15,1.01,0,1.84-.65,2.75-.12.44,0,.92.12,1.31-.14.23-.15.46-.24.7-.27l-2.08,1.97c-.02-.28.04-.57.18-.86.05-.1.12-.23.1-.31-.17-.66-.31-1.3.05-1.95-.05-.56,0-1.09.16-1.64.16-.53-.3-1.08-.05-1.64.19-.45.13-.86,0-1.3-.13-.44-.08-.88.04-1.32.09-.31.2-.68.15-.97-.34-1.69-.29-3.32.24-4.98.2-.62.11-1.22.12-1.89-.17-.55,0-.89.33-1.15.17-.13.07-.3-.12-.49-.35-.92.38-1.62.26-2.08-.16-.65-.23-1.31.09-1.97.13-.27.23-.71.14-.96-.21-.57-.14-1.05.04-1.61.25-.75.3-1.53-.05-2.29-.28-.61-.2-1.31-.16-1.99.06-.88.5-1.72.2-2.64-.03-.09,0-.24.04-.33.48-1.19.6-2.37.14-3.61-.1-.27-.06-.71.05-.99.38-.98.53-1.93.17-2.94-.07-.19-.07-.48,0-.66.62-1.5.48-3.11.52-4.67.04-1.25.1-2.49.33-3.71.06-.33.14-.64.05-.98-.22-.9-.13-1.79.2-2.65.21-.54.24-1.11.08-1.65-.26-.91-.18-1.76.16-2.63.16-.4.28-.87.29-1.3.03-1.13.37-2.24.24-3.36-.13-1.14.26-2.23.2-3.36-.04-.66-.34-1.32-.11-1.98.23-.67.15-1.31.11-1.98-.03-.59.32-1.06.57-1.54.27-.52,1.67-.6,2.02-.15.02.03.22.29.17.35.1.22.42,1.49.34,2.52-.04.57-.03,1.14-.26,1.66-.19.43-.21.85-.04,1.29.21.53.24,1.13.09,1.66-.52,1.75-.52,3.57-.68,5.37-.05.56-.12,1.12-.2,1.67-.03.22-.16.44-.14.64.34,2.25-.05,4.52.03,6.78.02.68-.01,1.11.13,1.78.23,1.09-.04,1.97-.19,3.49-.19.39-.28.84-.46,1.25-.14.32-.17.64-.1.98.32,1.55.13,3.15.23,4.73-.32,1.85-.36,4.43-.26,4.66-.05.56-.16,1.11-.27,1.66-.09.44-.23.86-.32,1.3-.12.57-.07,1.13.19,1.63.26.52.28,1.06.04,1.61-.43.96-.51,1.92-.19,2.93.32,1,.22,1.98-.15,2.96-.32.86-.36,1.74-.03,2.63.24.65.13,1.32-.11,1.97-.11.31-.31.69-.25.94.16.58-.07,1.81.05,1.96.12.14.06.46.03.64-.08.55-.14,1.03-.15,1.57-.02.55.19,1.1.22,1.66.02.44.04.99-.15,1.32-.44.77.03,1.54-.17,2.3-.16.64-.22,1.33-.26,2-.06.79-.04,1.57.28,2.31.08.18.1.38.1.59l-.03,2.04-2.22.09c-.24.01-.5-.02-.74-.05-.51-.06-2.19-.1-2.44-.21-1.06-.48-2.27-.14-3.39-.05-.56.05-1.1.25-1.65.28-.43.02-.87-.17-1.32-.19-.3-.01-.65.35-.9.05-.31-.39-.59-.42-1.1-.26-.6.19-1.15.56-1.91.38-.51-.12-1.05.13-1.63-.03-.63-.16-1.37-.2-2.01-.1-.82.13-1.55-.35-2.3-.16-.72.18-1.32-.06-1.98-.16-1.24-.18-2.47-.18-3.67.25-.24.09-.49.16-.74.21l-1.69.36-.53-2.61c-.19-.96-.14-1.95.14-2.91.26-.88.3-1.75.26-2.67-.05-1.24-.17-2.5.25-3.7.12-.35,0-.65-.04-.98-.21-1.69-.31-3.36.2-5.02.16-.5.1-1.12.07-1.68-.04-.56-.18-1.1-.27-1.65.42-1.17.12-2.49.54-3.65.09-.24.1-.41.01-.64-.11-.3-.25-.64-.23-.95.08-1.57-.31-3.17.17-4.72-.09-.66-.21-1.31-.25-1.97-.07-1.13,0-2.28-.16-3.39-.09-.68-.09-1.29-.05-1.97.11-1.81.08-3.62.1-5.44l.08-5.44c.01-.56.11-1.12.21-1.67.08-.45.15-.92,0-1.34-.3-.86-.3-1.76-.31-2.67l-.12-7.82c-.02-.9.28-1.74.19-2.68-.07-.74-.09-1.57.21-2.3l.05-6.46.04-2.04c.01-.36.16-.66.39-.86.24-.32-.2-.49.98-.67.14-.07.93.27,1.02.4.6.88.24,1.58.52,2.64.19.73.08,1.68.13,2.46Z"/>
  <g>
    <path class="cls-3" d="M54.24,255.45l1.24-19.67h25.78s-.78,6.11,9.36,6.84c7.54,1.6,9.89,8.52,9.06,11.14s-24.05,2.17-24.05,2.17l-21.79-1.51"/>
    <path class="cls-3" d="M53.43,251.55c.07-.64-.24-1.24.1-1.84.15-.27-.23-.61.07-.89.19-.17.1-.4.27-.58.22-.24.18-.44.04-.75-.05-.18-.12-.3-.12-.68,0-.3.09-.45-.07-.78-.14-.29.24-.72.13-1.02-.22-.62.17-1.03-.3-1.71-.25-.59-.06-1.15-.07-1.64.04-.63.1-1.27.18-1.9.02-.15.13-.29.22-.43.2-.29.17-.59.05-.91-.23-.6.34-2.29.22-2.56,0-.02-.02-.04-.02-.16v-.72s1.36-.55,1.36-.55c.45-.18,2.92-.32,3.13-.26.15.04.28.15.4,0,.24.16.59-.12.79.1.49.1.67.16,1.25.12.55-.04,1.14.82,1.66.53,1.1,0,1.79-.05,1.94-.15.28-.17.41.14.69-.03.39-.24,1.15.34,1.24.11.1-.25.34-.16.49-.36.32-.43.74-.34,1.14-.1.21.13.44-.31.62-.13.32.32.68.47,1.09.45l2.61-.12c.55-.02,1.12-.07,1.63.23.83-.06,1.24,0,1.58-.09.41-.27.82.08,1.19-.29.51-.51.4-.42,1.16-.4.14.15.57.33.7.12.4.14.76.05.8.07.63.4.5-.21,1.16.26.22-.03.38,0,.5-.07l1.36,1.54s.11.05.25.08c.18.04.21.12.09.24-.1.11-.05.2.08.28.26.16.27.37.3.61.03.23.09.48.38.55.05.27.42.32.57.51.27.33.62.55.81,1.11.06.15.34.17.53.13.31-.07.36.38.67.3.35-.1.38.31.54.54.12.19.26.37.52.27.36-.13.7.03,1.05.06.36.02.64.49,1.01.29.46-.24.89.17,1.33-.04l.24.03s.09-.02.14-.04c.4-.17.58.2.95.2.21.59.61.85,1.17.94.6.07,1.22.12,1.69.61.15.14.5.13.76.21.26.08.53.16.75.31.44.36.51.99.99,1.29.44.29.69.59,1.1.92.3.22.53.87.72,1.17.24.32.57.54.83.82.27.26.47.57.37,1.02.16.33.19.72.54.93.46.26.62.7.51,1.22-.02.09-.05.22-.01.28.15.25.29.52.36.8.06.29.04.61-.11.91.07.53.03,1.08-.27,1.67-.03.05-.18.46-.36.77-.21.37-.32.48-.48.68-.08.09-.16.18-.25.26-.08.08-.13.11-.21.16-.14.09-.3.17-.48.2-.49.02-.81.23-1.11.47-.33.27-.66.3-1.04.29-.26-.02-.55-.06-.76.05-1.17.64-2.38.82-3.63.49-.47-.12-.88.03-1.36.1-.37.23-.63.1-.85-.21-.11-.16-.22-.04-.34.17-.62.44-1.18-.22-1.49-.06-.44.22-.9.34-1.39.08-.2-.11-.52-.17-.68-.06-.39.25-.73.22-1.13.08-.55-.19-1.1-.18-1.61.22-.42.33-.91.29-1.39.3-.62,0-1.24-.39-1.87-.03-.06.04-.17.02-.24-.02-.86-.41-1.69-.46-2.55.06-.19.11-.5.1-.7,0-.73-.33-1.32-.43-2.15-.03-.13.07-.34.07-.46,0-1.05-.61-2.18-.45-3.27-.48-.88-.03-1.74-.08-2.6-.3-.23-.06-.45-.13-.69-.04-.64.23-1.25.15-1.85-.18-.38-.2-.78-.23-1.16-.07-.64.27-1.24.19-1.84-.14-.28-.16-.6-.27-.91-.28-.79-.02-1.56-.35-2.35-.21-.8.14-1.56-.24-2.35-.18-.47.04-.93.35-1.4.12-.46-.22-.92-.13-1.39-.1-.42.03-.74-.31-1.06-.55-.36-.27-.37-1.66-.04-2.02.02-.02.21-.22.25-.17.16-.1,1.05-.43,1.77-.36.39.04.79.02,1.15.25.3.19.59.2.9.03.38-.21.79-.25,1.16-.1,1.21.5,2.49.49,3.74.64.39.05.78.11,1.17.18.15.03.31.16.44.13,1.58-.35,3.16.01,4.74-.08.47-.03.78,0,1.24-.14.77-.24,1.38.03,2.44.16.27.19.59.28.87.45.23.13.45.17.68.09.27-.08.55-.13.82-.17l.21-.02s.05,0,.07-.01h.1s.41-.05.41-.05c.55-.04,1.1-.06,1.65-.15,1.3.22,3.09.11,3.25,0,.39.01.78.09,1.17.16.31.06.61.17.92.23.4.08.79,0,1.12-.3.35-.3.72-.36,1.11-.16.69.35,1.37.36,2.04-.04.67-.4,1.34-.39,2.05-.11.62.24,1.23.2,1.8-.22.42-.31.88-.27,1.35-.11.22.07.5.23.67.13.37-.22,1.22-.16,1.3-.3.07-.14.29-.12.41-.12.37,0,.69-.02,1.04-.09.35-.08.65-.37.95-.51.26-.1.51-.24.75-.13.23.12.44.02.45-.07.07-.06-.03-.07-.08-.04-.01,0-.02.02-.03.03-.04.03-.09.08-.12.14-.07.08-.12.29-.1.31.15-.13.23-.43.21-.78,0-.2-.03-.4-.13-.6-.08-.19-.23-.37-.46-.52-.23-.15-.25-.41-.3-.66-.01-.29-.39-1.15-.38-1.33.13-.79-.6-1.21-1.09-1.62-.23-.23-.63-.27-.86-.48-.18-.17-.27-.44-.45-.63-.13-.12-.49.04-.44-.27.07-.41-.06-.54-.4-.56-.39-.05-.86.18-1.16-.19-.21-.25-.61-.1-.86-.37-.27-.31-.71-.42-1.1-.44-.11,0-.21-.03-.31-.08l.28.04c-.46-.11-.86-.42-1.32-.32-.57.14-1-.21-1.47-.4-.45-.18-.9-.32-1.37-.44-.47-.11-.96-.13-1.5-.15-.54,0-1.07-.1-1.55-.38-.49-.24-.91-.65-1.23-1.13-.46-.7-.96-1.29-1.49-1.97-.7-.91-1.24-2.12-.95-3.3.09-.36-.05-.57-.05-1.05h0c-.37-.43,3.26,3.7,1.72,1.95h0s0,0,0,0h0s-.01,0-.01,0h-.03s-.06.02-.06.02l-.11.02-.22.04-.44.06c-.29.04-.59.06-.88.06-.59,0-1.17-.1-1.75-.34-.35-.15-.78-.09-1.17-.04-.39.05-.77.19-1.16.29-.82-.41-1.74-.09-2.56-.5-.17-.08-.29-.09-.45,0-.21.11-.45.26-.66.25-1.1-.06-2.22.35-3.31-.11-.46.1-.92.23-1.38.28-.79.09-1.6.04-2.37.2-.47.1-.9.1-1.38.07-1.26-.08-2.54-.03-3.8-.03-1.27,0-2.54.02-3.8,0h-.24s1.97-1.86,1.97-1.86c-.05.31-.14.62-.24.92-.1.31-.18.64-.04.93.28.62.25,1.25.23,1.88-.06,1.82-.11,3.65-.13,5.47,0,.63-.33,1.2-.27,1.86.05.52.04,1.1-.28,1.6l-.26,4.51c-.03.47-.06.95-.1,1.42-.02.25-.18.45-.42.58-.25.21.19.36-1,.41-.14.04-.92-.24-1-.33-.57-.65-.19-1.11-.43-1.88-.17-.52-.03-1.18-.06-1.73Z"/>
  </g>
  <path class="cls-3" d="M107.2,167.78c-.01.95.35,1.82.07,2.73-.13.42.29.88,0,1.32-.17.28-.07.6-.22.9-.19.39-.14.68.03,1.12.06.27.15.43.18,1,.02.44-.05.67.14,1.15.17.42-.17,1.09-.04,1.53.27.89-.07,1.55.45,2.51.3.85.16,1.7.22,2.43.02.94.01,1.89,0,2.83,0,.22-.1.45-.18.66-.17.46-.12.89.03,1.35.28.87-.13,3.44.02,3.83.21.53.43,4.56.37,4.9-.04.22-.14.43.01.59-.15.36.14.88-.08,1.18-.09.73-.14,1-.09,1.86.05.82-.79,1.71-.48,2.47.03,1.64.1,2.66.2,2.89.18.42-.13.61.05,1.03.25.57-.31,1.71-.08,1.85.25.15.17.51.37.73.44.46.37,1.1.13,1.7-.12.31.32.65.15.91-.31.48-.45,1.02-.42,1.63l.19,3.89c.03.82.1,1.66-.19,2.43.08,1.24.03,1.84.14,2.35.28.61-.06,1.22.32,1.77.52.75.43.59.44,1.72-.15.21-.31.85-.1,1.04-.13.6-.03,1.14-.05,1.19-.38.94.22.74-.22,1.72.05.53-.03.81.34,1.05.19.12.22.33.1.59-.11.24-.06.43.06.66.48.92-.15,2.09.28,3.04-.06.47.1.93.16,1.4l-2.11-2.07c.11-.01.22-.02.32-.01.94.03,1.87-.02,2.76.36.23.1.71-.02.99-.16.48-.22.9.2,1.35,0,.53-.24.85.13,1.23.32.3.15.59.28.97.11.54-.24,1.14-.14,1.72-.18.6-.04,1.17.34,1.7.11.75-.32,1.57.14,2.28-.27.46-.27.79.05,1.27-.05.48.54,1.13.63,1.87.51.79-.13,1.53-.4,2.39-.16.27.07.66-.15.99-.22.34-.07.68-.15,1.03-.15.71,0,1.31.48,2.04.36.68-.11,1.18-.04,1.86-.15.26-.04.64.01,1,.07l-1.63,1.59c.05-.3.1-.57.1-.78.02-1.05-.6-1.93-.05-2.86.01-.46.15-.95-.11-1.37-.32-.52-.34-1.06-.1-1.64.04-.1.11-.24.09-.33-.19-.68-.35-1.35-.01-2.03-.06-.58-.04-1.13.11-1.71.15-.55-.33-1.11-.1-1.7.18-.47.1-.9-.04-1.35-.15-.45-.11-.91,0-1.38.08-.33.18-.72.12-1.02-.39-1.74-.39-3.45.09-5.19.18-.65.08-1.27.07-1.97-.19-.57-.03-.93.3-1.21.17-.14.06-.31-.13-.51-.38-.95.33-1.7.2-2.18-.18-.67-.26-1.35.03-2.05.12-.29.21-.74.11-1-.22-.59-.17-1.08,0-1.67.22-.79.25-1.6-.12-2.38-.3-.63-.24-1.36-.22-2.07.03-.92.45-1.81.12-2.75-.03-.09-.01-.24.03-.35.45-1.25.53-2.49.04-3.76-.11-.28-.08-.73.02-1.03.35-1.03.48-2.03.08-3.07-.07-.19-.08-.5-.01-.69.58-1.58.38-3.25.38-4.88,0-1.3.02-2.59.22-3.87.05-.35.12-.67.02-1.02-.25-.93-.19-1.85.12-2.76.19-.57.21-1.16.03-1.72-.29-.94-.23-1.83.09-2.74.15-.42.25-.91.25-1.37,0-1.17.3-2.34.14-3.5-.17-1.18.2-2.33.1-3.5-.06-.69-.38-1.36-.17-2.06.21-.7.11-1.37.05-2.06-.05-.62.29-1.11.52-1.62.26-.55,1.65-.68,2.02-.22.02.03.23.29.18.36.11.22.47,1.54.42,2.61-.03.59,0,1.18-.21,1.73-.18.46-.18.89,0,1.34.22.54.28,1.16.13,1.72-.47,1.84-.41,3.73-.52,5.61-.03.58-.09,1.17-.15,1.75-.02.23-.15.47-.12.67.4,2.33.09,4.7.23,7.05.04.7.02,1.16.18,1.85.26,1.13.02,2.06-.09,3.64-.18.41-.26.89-.42,1.31-.13.34-.15.67-.07,1.02.37,1.61.23,3.28.37,4.91-.26,1.94-.23,4.62-.12,4.86-.03.58-.12,1.16-.22,1.74-.07.46-.2.9-.28,1.36-.1.6-.03,1.17.23,1.69.28.53.31,1.1.09,1.67-.4,1.01-.46,2.02-.1,3.06.35,1.03.28,2.05-.06,3.09-.3.91-.31,1.82.04,2.73.26.67.17,1.37-.05,2.06-.1.32-.29.73-.22.99.17.6-.02,1.89.11,2.03.12.14.07.47.05.67-.06.57-.11,1.07-.11,1.64,0,.57.22,1.14.27,1.72.04.46.07,1.03-.11,1.38-.42.82.07,1.6-.1,2.4-.14.67-.18,1.39-.2,2.09-.03.82,0,1.63.35,2.39.18.41.11.91.05,1.38-.07.53-.16,2.28-.28,2.54-.35.75-.31,1.58-.24,2.41l.14,1.54-1.96.23c-.37.04-.75.1-1.11.12-.58.05-1.14.25-1.72.28-.45.02-.91-.17-1.37-.19-.31-.01-.68.35-.94.05-.33-.39-.62-.42-1.14-.26-.63.19-1.2.56-1.99.38-.53-.12-1.09.13-1.7-.03-.65-.16-1.42-.2-2.09-.1-.85.13-1.61-.35-2.39-.16-.75.18-1.38-.06-2.06-.16-1.29-.18-2.57-.18-3.82.25-1.24.42-2.54.45-3.8.1-.55-.15-1.09-.22-1.65-.24l-1.9-.07.04-1.76c0-.37,0-.75-.04-1.14-.09-1.29-.25-2.59.13-3.85.11-.37-.02-.68-.07-1.02-.26-1.75-.42-3.48.05-5.23.14-.53.07-1.17.01-1.75-.06-.58-.21-1.14-.32-1.71.39-1.23.04-2.59.43-3.81.08-.25.08-.43,0-.66-.12-.31-.27-.66-.26-.98.03-1.64-.41-3.29.02-4.92-.11-.68-.25-1.36-.32-2.04-.11-1.17-.08-2.37-.27-3.52-.12-.7-.13-1.34-.11-2.05.05-1.88-.04-3.77-.07-5.66l-.1-5.66c0-.58.08-1.17.16-1.74.07-.47.12-.96-.04-1.39-.33-.89-.36-1.82-.4-2.77l-.37-8.13c-.05-.94.22-1.82.11-2.79-.09-.77-.14-1.63.14-2.4l-.15-6.72-.02-2.12c0-.37.14-.69.37-.9.23-.34-.22-.51.96-.73.14-.08.94.25,1.03.38.62.9.29,1.63.6,2.73.21.76.13,1.74.21,2.56Z"/>
  <g>
    <path class="cls-3" d="M106.17,255.45l1.24-19.67h25.78s-.78,6.11,9.36,6.84c7.54,1.6,9.89,8.52,9.06,11.14s-24.05,2.17-24.05,2.17l-21.79-1.51"/>
    <path class="cls-3" d="M105.36,251.55c.07-.64-.24-1.24.1-1.84.15-.27-.23-.61.07-.89.19-.17.1-.4.27-.58.22-.24.18-.44.04-.75-.05-.18-.12-.3-.12-.68,0-.3.09-.45-.07-.78-.14-.29.24-.72.13-1.02-.22-.62.17-1.03-.3-1.71-.25-.59-.06-1.15-.07-1.64.04-.63.1-1.27.18-1.9.02-.15.13-.29.22-.43.2-.29.17-.59.05-.91-.23-.6.34-2.29.22-2.56,0-.02-.02-.04-.02-.16v-.72s1.36-.55,1.36-.55c.45-.18,2.92-.32,3.13-.26.15.04.28.15.4,0,.24.16.59-.12.79.1.49.1.67.16,1.25.12.55-.04,1.14.82,1.66.53,1.1,0,1.79-.05,1.94-.15.28-.17.41.14.69-.03.39-.24,1.15.34,1.24.11.1-.25.34-.16.49-.36.32-.43.74-.34,1.14-.1.21.13.44-.31.62-.13.32.32.68.47,1.09.45l2.61-.12c.55-.02,1.12-.07,1.63.23.83-.06,1.24,0,1.58-.09.41-.27.82.08,1.19-.29.51-.51.4-.42,1.16-.4.14.15.57.33.7.12.4.14.76.05.8.07.63.4.5-.21,1.16.26.22-.03.38,0,.5-.07l1.36,1.54s.11.05.25.08c.18.04.21.12.09.24-.1.11-.05.2.08.28.26.16.27.37.3.61.03.23.09.48.38.55.05.27.42.32.57.51.27.33.62.55.81,1.11.06.15.34.17.53.13.31-.07.36.38.67.3.35-.1.38.31.54.54.12.19.26.37.52.27.36-.13.7.03,1.05.06.36.02.64.49,1.01.29.46-.24.89.17,1.33-.04l.24.03s.09-.02.14-.04c.4-.17.58.2.95.2.21.59.61.85,1.17.94.6.07,1.23.12,1.69.61.15.14.5.13.76.21.26.08.53.16.75.31.44.36.51.99.99,1.29.44.29.69.59,1.1.92.3.22.53.87.72,1.17.24.32.57.54.83.82.27.26.47.57.37,1.02.16.33.19.72.54.93.46.26.62.7.51,1.22-.02.09-.05.22-.01.28.15.25.29.52.36.8.06.29.04.61-.11.91.07.53.03,1.08-.27,1.67-.03.05-.18.46-.36.77-.21.37-.32.48-.48.68-.08.09-.16.18-.25.26-.08.08-.13.11-.21.16-.14.09-.3.17-.48.2-.49.02-.81.23-1.11.47-.32.27-.66.3-1.04.29-.26-.02-.55-.06-.76.05-1.17.64-2.38.82-3.63.49-.47-.12-.88.03-1.36.1-.37.23-.63.1-.85-.21-.11-.16-.22-.04-.34.17-.62.44-1.18-.22-1.49-.06-.44.22-.9.34-1.39.08-.2-.11-.52-.17-.68-.06-.39.25-.73.22-1.13.08-.55-.19-1.1-.18-1.61.22-.42.33-.91.29-1.39.3-.62,0-1.24-.39-1.87-.03-.06.04-.17.02-.24-.02-.86-.41-1.69-.46-2.54.06-.19.11-.5.1-.7,0-.73-.33-1.32-.43-2.15-.03-.13.07-.34.07-.46,0-1.05-.61-2.18-.45-3.27-.48-.88-.03-1.75-.08-2.6-.3-.23-.06-.45-.13-.69-.04-.64.23-1.25.15-1.85-.18-.38-.2-.78-.23-1.16-.07-.64.27-1.24.19-1.84-.14-.28-.16-.6-.27-.91-.28-.79-.02-1.56-.35-2.35-.21-.8.14-1.56-.24-2.35-.18-.47.04-.93.35-1.4.12-.46-.22-.92-.13-1.39-.1-.42.03-.74-.31-1.06-.55-.36-.27-.37-1.66-.04-2.02.02-.02.21-.22.25-.17.16-.1,1.05-.43,1.77-.36.39.04.79.02,1.15.25.3.19.59.2.9.03.38-.21.79-.25,1.16-.1,1.21.5,2.49.49,3.74.64.39.05.78.11,1.17.18.15.03.31.16.44.13,1.58-.35,3.16.01,4.74-.08.47-.03.78,0,1.24-.14.77-.24,1.38.03,2.44.16.27.19.59.28.87.45.23.13.45.17.68.09.27-.08.55-.13.82-.17l.21-.02s.05,0,.07-.01h.1s.41-.05.41-.05c.55-.04,1.1-.06,1.65-.15,1.3.22,3.09.11,3.25,0,.39.01.78.09,1.17.16.31.06.61.17.92.23.4.08.79,0,1.12-.3.35-.3.72-.36,1.11-.16.69.35,1.37.36,2.04-.04.67-.4,1.34-.39,2.05-.11.62.24,1.23.2,1.8-.22.42-.31.88-.27,1.35-.11.22.07.5.23.67.13.37-.22,1.22-.16,1.3-.3.07-.14.29-.12.41-.12.37,0,.69-.02,1.04-.09.35-.08.65-.37.95-.51.26-.1.51-.24.75-.13.23.12.44.02.45-.07.07-.06-.03-.07-.08-.04-.01,0-.02.02-.03.03-.04.03-.09.08-.12.14-.07.08-.12.29-.1.31.15-.13.23-.43.21-.78,0-.2-.03-.4-.13-.6-.08-.19-.23-.37-.46-.52-.23-.15-.25-.41-.3-.66-.01-.29-.39-1.15-.38-1.33.13-.79-.6-1.21-1.09-1.62-.23-.23-.63-.27-.86-.48-.18-.17-.27-.44-.45-.63-.13-.12-.49.04-.44-.27.07-.41-.06-.54-.4-.56-.39-.05-.86.18-1.16-.19-.21-.25-.61-.1-.86-.37-.27-.31-.71-.42-1.1-.44-.11,0-.21-.03-.31-.08l.28.04c-.46-.11-.86-.42-1.32-.32-.57.14-1-.21-1.47-.4-.45-.18-.9-.32-1.37-.44-.47-.11-.96-.13-1.5-.15-.54,0-1.07-.1-1.55-.38-.49-.24-.91-.65-1.23-1.13-.46-.7-.96-1.29-1.49-1.97-.7-.91-1.24-2.12-.95-3.3.09-.36-.05-.57-.05-1.05h0c-.37-.43,3.26,3.7,1.72,1.95h0s0,0,0,0h0s-.01,0-.01,0h-.03s-.06.02-.06.02l-.11.02-.22.04-.44.06c-.29.04-.59.06-.88.06-.59,0-1.17-.1-1.75-.34-.35-.15-.78-.09-1.17-.04-.39.05-.77.19-1.16.29-.82-.41-1.74-.09-2.56-.5-.17-.08-.29-.09-.45,0-.21.11-.45.26-.66.25-1.1-.06-2.21.35-3.31-.11-.46.1-.92.23-1.38.28-.79.09-1.6.04-2.37.2-.47.1-.9.1-1.38.07-1.26-.08-2.54-.03-3.8-.03-1.27,0-2.54.02-3.8,0h-.24s1.97-1.86,1.97-1.86c-.05.31-.14.62-.24.92-.1.31-.18.64-.04.93.28.62.25,1.25.23,1.88-.06,1.82-.11,3.65-.13,5.47,0,.63-.33,1.2-.27,1.86.05.52.04,1.1-.28,1.6l-.26,4.51c-.03.47-.06.95-.1,1.42-.02.25-.18.45-.42.58-.25.21.19.36-1,.41-.14.04-.92-.24-1-.33-.57-.65-.19-1.11-.43-1.88-.17-.52-.03-1.18-.06-1.73Z"/>
  </g>
  <path class="cls-3" d="M177.53,93.46c1.67.54,3.25.42,4.82.66.37.06.74-.07,1.11-.16.36-.14.74-.21,1.13-.21.51.04.98-.28,1.51-.36.33-.08.61-.21.87-.38.25-.19.47-.45.73-.75.16-.18.26-.35.42-.55.16-.2.36-.44.65-.85.24-.3.43-.53.58-.81.15-.27.32-.53.43-.96.09-.36.35-.74.58-1.16.22-.42.46-.86.56-1.24l-.03.11s.01-.07.01-.11c.23-1.83.94-2.86.96-4.8.17-1.64.74-3.15,1.04-4.51l1.06-4.21.03-.12.02-.05.37-.99c.07-.2.17-.39.27-.57l.39,1.6c-.15-.21-.29-.41-.42-.6-.55-.83-1.11-1.51-1.75-2.18-.62-.65-1.4-1.94-2.34-2.77-.92-.87-2.14-1.35-2.47-1.41-.21-.06-.84-.15-1.62-.34-.82-.12-1.81-.29-2.84-.36-2.05-.19-4.09-.2-4.4-.24-.41-.05-.78-.17-1.09-.03-.11-.04-.5-.07-.78-.1-.3-.02-.69-.14-1.02-.25-.7-.3-1.3-.86-1.44-1.35-.56-1.06-.52-1.76-.53-2.43.05-.66.13-1.35.44-2.3.3-.91.97-1.66,1.66-2.26.7-.6,1.4-1.1,1.98-1.67,1.41-1.03,2.82-1.4,3.82-1.62,1.02-.18,1.68-.19,1.93-.24.89-.13,1.26.2,2.14.2,1.26-.04,3.25,1.31,3.55,1.26.38-.09,1.01.27,1.49.32,1.05.06,2.13.82,2.98,1.71.22.23.52.36.82.49.15.06.29.13.42.2l.09.06.02.02h.01s0,.01,0,.01h0s0,0,0,0c-.37.49.83-1.09-.83,1.09h0s0,0,0,0c0,0-.02.01-.03.03-.01.07,0-.03-.02-.04-.02-.05-.06-.15-.12-.19-.06-.06-.14-.17-.23-.24-.08-.07-.18-.13-.3-.24-.35-.26-.22-.14-.21-.17.05,0,.11-.07.17-.13.12-.13.23-.31.32-.5.09-.19.14-.38.15-.4,0-.31,0-.62-.02-.94,0-2.65.35-5.12.74-7.62.26-1.57.54-3.19,1.16-4.57.47-2.36.85-3.47,1.01-4.45.05-1.23.73-2.26.71-3.4,0-1.58-.05-1.25.76-3.35.29-.34.93-1.44.94-1.88.62-1.09,1.17-2.05,1.23-2.15.63-.64.93-.99,1.11-1.3l.25-.42.69-.04c.33-.02.64-.08,1.06,0,.21.05.46.12.73.24.25.16.57.33.83.62.61.43.91.86,1.17,1.18.25.33.47.56.74.74.31.18.53.65.6,1.24.04.53.21.92.42,1.37.91,1.88.42,4.28.87,6.14-.06,1.14.19,2.29.13,3.42-.08,1.85-.14,3.68-.65,5.36-.13.44-.08,1.37,0,1.91.08.45-.01.91-.07,1.19v.03s-.02.02-.02.02c-.02,0,.04,0-.04,0h-.26c-.1.02-.18.02-.2,0-.32-.08-.66-.08-.97,0-.08.02-.16.05-.23.08-.06.03-.18.09-.16.07-.02.04,0-.04-.06-.08-.04-.03-.14-.16-.22-.21-.08-.07-.17-.11-.32-.24-.27-.22-.57-.4-.87-.59.01-.01.02-.02.04-.05.08-.12.16-.31.21-.51.24-.99.84-1.38,1.34-1.95.4-.46.77-.9.96-1.63.27-1.04.93-2.03,1.46-3.04.55-1.04,1.46-1.79,1.84-2.8.54-1.42,1.86-2.49,2.46-3.86.4-.9,1.09-1.21,1.72-1.98,1.09-.32,2.1-1.15,3.45-2.07,1.02-.69,2.23-1.34,3.73-1.38h.11s.07,0,.07,0c.38.05.78.12,1.2.36.41.22.8.58,1.03.98.55.9.84,1.97.88,2.79.03.82-.02,1.59-.18,2.3-.35,1.48-1.2,2.46-1.59,3.86-.37,1.3-.82,2.19-1.24,3.45-.28.85-1.18,2.26-1.57,3.08-.86,1.85-1.02,3.61-2.25,5-.18.38-.4.79-.51,1.1l-.03.1s0,.01,0,.02h0s.02.01-.09-.02l-.23-.05-.17-.05c-.21-.06-.47-.09-.66-.12-.07-.02-.14-.03-.22-.02-.04,0-.07,0-.11.02-.02,0-.03,0-.05,0-.02,0-.03.01-.04.03,0,0,0-.01,0-.01,0,.01,0-.05-.01-.09-.03-.04-.11-.25-.2-.36-.1-.12-.25-.36-.4-.51-.13-.13-.42-.46-.33-.37,0,0,0-.03.02-.06.02-.06.05-.13.08-.21.29-.85.88-1.72,1.74-2.46.15-.13.37-.31.45-.46.62-1.16,1.27-2.29,2.37-3.16.65-.93,1.35-1.76,2.21-2.54.83-.74,1.21-1.87,2.26-2.58.83-.56,1.44-1.21,2.18-1.92.37-.36.82-.68,1.36-.94.55-.26,1.19-.49,2.04-.52.72-.05,1.74.19,2.45.68l-1.55-.25c.26-.05.51-.08.75-.11.29,0,.56,0,.82.03.28.05.56.13.83.24.26.13.52.29.74.46.2.18.39.37.55.58.13.18.25.38.37.58.36.73.5,1.39.57,1.95.13,1.15.03,2.12-.12,3.05-.33,1.86-.99,3.53-1.82,5.11-.63,1.17-1.01,2.34-1.59,3.62-.3,1.1-.77,1.67-1.32,2.03-.28.18-.35.52-.35.95-.55,1.82-1.92,2.78-2.29,3.63-.52,1.22-1.17,2.39-2.19,3.38-.41.41-1,1.09-1.2,1.55-.48,1.06-1.09,1.82-1.91,2.65l-.36.37.25-.46c-.6,1.23-1.05,2.54-1.18,3.9-.11,1.23-.64,2.53-1.11,3.81-.61,1.65-1.59,3.14-1.87,4.94-.03.18-.15.45-.25.62-.66,1.16-1.22,2.33-1.65,3.56l.07-.25c-.24,1.17-.42,2.25-.51,3.42-.05.55-.31,1.41-.59,1.95-.93,1.85-1.69,3.64-2.03,5.69-.05.38-.28.94-.49,1.26-1.69,2.69-2.87,5.73-4.43,8.55-.58,1.14-1.29,2.22-1.96,3.31-.69,1.07-1.47,2.09-2.25,3.09-.46.53-.89,1-1.23,1.61-.23.41-.47.8-.72,1.18-.28.37-.57.72-.88,1.07-.31.34-.63.67-.96.99-.32.32-.67.63-1.08.91-.49.36-.95.77-1.43,1.14-.46.39-.9.81-1.35,1.2-1.44,1.38-3.24,2.24-5.18,2.56-.9.14-1.89.32-2.81.5-2.38.51-4.78.31-7.1.35-2.39.04-4.63-.66-6.9-1.09-1.34-.25-2.7-.29-3.98-.91-1.27-.62-2.54-.96-3.84-1.43-1.15-.41-1.94-1.12-2.75-1.76-.9-.72-.49-2.09.43-2.03.06,0,.58.03.69.13.42.09,2.8.76,4.67,1.46,1.03.39,2.09.7,3.03,1.19.78.4,1.57.61,2.43.62,1.03,0,2.16.17,3.16.46,3.31.96,6.91.96,10.26.25,1.05-.21,2.07-.51,3.07-.85.38-.16.84-.23,1.15-.42,1.8-1.14,3.44-2.47,4.87-4.06.71-.84,1.46-1.66,2.15-2.52.66-.89,1.34-1.76,1.93-2.68.68-1.13,1.22-1.81,1.74-2.99.86-1.94,1.95-3.32,3.36-5.96.51-.62.97-1.4,1.44-2.08.38-.55.66-1.11.84-1.75.83-2.93,2.02-5.86,2.75-8.85.49-1.31.97-2.88,1.28-4.21l.03-.12.03-.08c.86-2.31,1.51-4.26,1.54-4.55.4-1.04.86-2.07,1.32-3.08.38-.8.76-1.58,1.14-2.38.48-1.05.78-2.11.86-3.13.08-1.05.4-2.08.98-3.05l.34-.6.22-.39c1.24-1.19,2.25-2.57,2.96-4.17.79-1.8,1.86-3.37,3.14-4.9,1.11-1.33,1.95-2.86,2.35-4.54.3-1.23.89-2.37,1.56-3.48.32-.52.74-1.17.82-1.65.21-1.09.91-3.3.77-3.55-.08-.25.03-.8.06-1.09.05-.44.05-.85,0-1.12,0-.08-.02-.13-.04-.17,0-.06-.03-.08-.03-.08-.01-.05.04.08.17.12.17.08.19.08.13.12l-1.33-.22s0,.09-.08.13c-.08.05-.23.13-.44.24-.47.23-1.21.82-1.77,1.07-1.36.61-1.99,2.01-3.08,3-.93.86-1.8,1.89-2.63,2.92-.98,1.21-1.85,2.48-2.44,3.84-.33.75-.92,1.46-1.67,2.26-.06.06-.14.14-.22.22-.05.05-.1.1-.16.15-.06.06-.13.12-.27.23l-.1.07c-.07.05-.14.09-.21.13-.09.05-.1.06-.27.14-.23.1-.49.16-.75.18-.05.01-.44.02-.76-.08-.34-.09-.66-.28-.89-.49-.36-.32-.58-.74-.68-1.19l-.03-.16v-.06s-.01-.09-.01-.09v-.18c0-.11,0-.29.02-.33l.06-.29.05-.18c.04-.13.06-.19.1-.28.24-.61.47-1.07.72-1.56.48-.95.93-1.79,1.1-2,1.35-1.7,2.08-4,2.87-6.05.39-1.02.6-2.06.95-3.06.27-.78.73-1.5.98-2.28.17-.53-.03-1.22.35-1.57.47-.43.61-1,.41-1.61-.08-.23-.25-.32-.23-.14.02.21.36.44.35.43h.25c-.22.04-.45.07-.74.09-.68.05-1.29.63-2.14,1.07-.93.48-1.93,1.4-2.63,2.37-.89,1.22-2.08,2.06-2.73,3.37-.61,1.26-1.42,2.11-2.14,3.18-1.37,2.01-2.43,4.15-3.15,6.52l-.16.47c-.08.18-.1.3-.3.63l-.11.16-.15.17-.08.08-.04.04-.11.09c-.31.26-.77.44-1.17.48-.25.05-1.06-.02-1.56-.46-.26-.2-.45-.45-.57-.66l-.08-.17v-.03c-.07-.14-.12-.29-.15-.45-.03-.15-.06-.32-.06-.46v-.09s-.02-.19-.02-.19l-.02-.55c-.01-.65,0-1.25.05-1.86.08-1.21.25-2.41.48-3.59.34-1.72.42-3.42.35-5.2-.11-2.39-.4-4.76-.6-6.85-.07-.61-.37-1.04-.64-1.37-.22-.32-.46-.45-.6-.53-.14-.06-.26-.02-.46-.03l1.25-.61c-.47.66-1,1.47-1.47,2.4-.5.94-1.01,1.87-1.52,2.82-.47.86-.81,2.03-1.07,3.08-.28,1.05-.42,2.12-.6,3.19-.99,2.12-1.23,4.72-2.05,6.9-.17.45-.24.78-.23,1.23.02.6.06,1.28-.05,1.88-.24,1.51-.36,3.07-.36,4.52-.02.38.03.68.03,1.02v.41c0,.3-.02.43-.05.59-.06.29-.12.54-.2.78-.08.24-.18.48-.3.73-.15.27-.22.5-.68.97-.07.08-.37.32-.67.43-.51.19-1.09.15-1.57-.17-.16-.1-.12-.09-.14-.1l-.03-.02-.05-.05-.1-.09-.41-.39c-.53-.34-1.07-.64-1.63-.92-.54-.3-1.1-.55-1.65-.82-1.86-.91-3.86-1.59-5.68-1.5-1.1.07-2.03.23-2.98.6-1.27.48-2.34,1.47-2.98,2.66-.31.59-.51,1.24-.53,1.76-.02.27.02.48.06.59.04.14.05.05,0,.04-.07-.01-.05-.02.2,0l1.41.03c.94,0,1.88.05,2.82.13,1.88.12,3.79.37,5.74.91l.9.27.89.39c.59.24,1.16.64,1.7.98.89.66,1.71,1.43,2.45,2.07.77.65,1.39,1.43,1.91,2.08.53.65.99,1.27,1.52,1.76l.21.22,1,1.01-.44,1.29-.54,1.59.07-.23c-.49,2.23-1.01,4.46-1.58,6.68-.55,2.2-1.22,4.48-1.76,6.54-.03.11-.06.22-.08.33l-.04.18-.03.08c-.66,1.72-1.62,3.24-2.76,4.9-.97,1.45-2.6,2.89-4.39,3.39-1.19.58-2.48.92-3.75,1.04-1.27.13-2.53.1-3.72-.09-2.41-.35-4.62-1.16-6.7-2.12-1.31-.62-2.56-1.32-3.77-2.09-.64-.4-1.09-.88-1.3-1.31-.41-.57-.97-.44-.58-1.62-.02-.19.98-.42,1.24-.36,1.75.49,2.71,1.52,4.7,2.23,1.35.48,2.98,1.28,4.44,1.65Z"/>
  <path class="cls-3" d="M217.94,63.66l-.07.06c-.32-.97-1.08-2.5-2.78-3.79,1.85,1.36,2.57,2.8,2.84,3.73Z"/>
  <path class="cls-3" d="M30.25,46.86s15.3-14.1,35.53-19.35c19.41-4.97,18.49-4.16,19.81-8.45s6.98-9.5-10.14-17.01c-14.87-6.1-33.38,1.84-43.01,18.56-9.5,16.35-14.09,23.14-11.1,26.34,3,3.21,8.9-.08,8.9-.08Z"/>
  <g>
    <path class="cls-3" d="M29.26,142.87c115.05,16.64,139.62-30.8,139.62-30.8l-.39-10.51s-15.25,47.69-121.91,30.72c-8.78-1.4-20.38-5.18-32.72-16.89-.82-.78,16.28,18.89,16.89,19.84l-1.49,7.65Z"/>
    <path class="cls-3" d="M40.94,143.31c1.92.23,3.72.06,5.53.54.82.22,1.81-.09,2.68.29.54.24,1.21.19,1.79.38.76.26,1.36.25,2.28.16.55-.02.89-.08,2.04-.02.9.05,1.36.16,2.34.05.86-.09,2.19.35,3.1.25,1.83-.18,3.13.23,5.12-.19.87-.11,1.73-.1,2.56-.07.83,0,1.63.04,2.37.02,1.91.02,3.83.06,5.74.11.45.02.91.09,1.33.17.93.16,1.8.09,2.73-.07.88-.16,2.62-.15,4.24-.12,1.62-.03,3.12-.04,3.51-.13.53-.15,2.84-.32,5.08-.58,2.24-.27,4.44-.5,4.79-.5.46,0,.87.07,1.19-.11.74.07,1.74-.35,2.37-.22,1.47-.09,2.01-.1,3.74-.37,1.64-.27,3.52.24,5.01-.3,1.64-.26,2.96-.56,3.92-.79.96-.23,1.58-.4,1.8-.5.79-.34,1.24-.12,2.03-.47,1.07-.51,3.43-.53,3.65-.82.24-.32.96-.41,1.34-.72.81-.66,2.03-.96,3.27-1.07.64-.06,1.16-.67,1.73-.66,1.02.02,2.08-.22,3.24-.63l1.84-.67,1.81-.75c1.2-.52,2.43-.97,3.6-1.54,1.5-.7,3.03-1.4,4.53-1.86,2.22-1.16,3.3-1.72,4.14-2.31.95-.82,2.17-1.17,2.92-2.07,1.03-1.23.79-.97,2.66-2.23.44-.1,1.58-.69,1.75-1.1,1.03-.6,1.84-1.31,1.93-1.37,1.68-.89,1.04-1.08,2.79-2.01.75-.74,1.25-1.04,1.33-1.65.05-.31.33-.62.78-.89.42-.25.66-.55.88-.96.93-1.62,2.89-2.94,3.62-4.69.17-.21.33-.44.47-.67.11-.2.32-.57.27-.54.01-.11-.09-.1-.07-.36,0-.62-.05-1.03.17-2.14l.09-.34c.09-.34-.04-.35-.16-.06-.07.16-.07.12-.05-.02.02-.13.07-.43.06-.38,0,0-.04.07-.1.3-.12.45-.11.38-.11.23,0-.16.01-.41-.03-.5-.04-.1-.11-.13-.2,0-.05.07-.11.21-.15.39-.07.34-.16.52-.28.71l-.18.26c-.19.25-.37.49-.55.74-.73,1.05-1.82,1.69-2.38,2.7-.42.68-1.02,1.26-1.6,1.83-.6.56-1.2,1.1-1.6,1.76-.53.87-1.29,1.06-1.99,1.8-1.09.27-2.24.96-3.39,2.01-1.28,1.02-2.39,2.19-4.06,2.89-.51.23-1.09.84-1.66,1.27-.58.41-1.18.81-1.81,1.15-.66.35-1.31.58-1.98.79-.67.2-1.34.41-2,.79-.62.35-1.17.63-1.72.89-.57.24-1.13.48-1.76.8-.85.43-2.56.9-3.49,1.19-1.03.37-1.91.85-2.8,1.25-.88.4-1.79.67-2.8.7-.92.27-1.93.45-2.68.92-.95.57-2.02.88-3.25.94-.22.01-.52.02-.69.08-1.3.56-2.63.93-4.1.91-1.16.29-2.28.55-3.49.57-1.16.04-2.2.69-3.46.66-1-.02-1.86.2-2.76.44-.9.25-1.85.33-2.83.33-.69,0-1.5,0-2.11.13-3.53.67-7.06,1.01-10.69.61-1.35-.13-2.62.03-4.07.08-1.16.19-1.9.03-2.5-.29-.3-.17-.65-.06-1.04.13-1.94.37-3.51-.31-4.48-.21-1.38.13-2.77.17-4.21-.18-.59-.14-1.53-.27-2.05-.19-1.21.19-2.22.08-3.43-.18-1.62-.34-3.27-.48-4.88-.22-.65.11-1.35.12-2.07.09-.72-.05-1.45-.15-2.17-.23-1.87-.22-3.67-.82-5.61-.68-.19.01-.5-.04-.71-.1-2.52-.73-5.01-1.18-7.64-1.02-.58.03-1.5-.11-2.1-.3-2.07-.63-4.13-1.13-6.34-1.25-.41-.03-1.04-.18-1.41-.36-3.11-1.41-6.44-2.45-9.56-3.92-2.49-1.17-4.87-2.52-7.02-4.15-.59-.43-1.12-.85-1.77-1.2-1.75-.89-3.27-2.12-4.55-3.56-.81-.9-1.75-1.7-2.72-2.36-.41-.27-.8-.55-1.18-.85l-.07-.06-.04-.03h-.02s0-.02,0-.02h0c-.19.2,1.65-1.74.88-.93l.05-.04.1-.08c.12-.11.23-.24.31-.39l.03-.05s0,.02.02.03c.1-.04.03-.08.09-.1l.27-.16c.18-.11.35-.23.51-.36l.26-.22.45-.33c.11-.08.05-.04.07-.05h0s0,0,0,0h0s.02.02.02.02l.21.23.44.51c.59.7,1.13,1.46,1.63,2.27.46.75,1.04,1.57,1.66,2.26,1.58,1.79,2.93,3.78,4.62,5.45,1.72,1.7,3,3.7,4.64,5.43.48.51,1.01.97,1.51,1.45.25.24.5.49.73.76.25.29.39.48.79,1.05.18.25.34.51.5.76l.24.37c.03.13-.03.29-.04.43-.05.29-.09.58-.15.87l-.14.74c-.12.69-.2,1.38-.3,2.08-.18,1.25-.69,2.19-1.11,3.17-.45,1.07-1.88,1.14-2.08.16-.01-.06-.12-.62-.04-.75-.02-.46.1-3.14.53-5.29l.09-.45c.07-.13-.04-.23-.11-.32-.06-.1-.51-.71-.78-1.17-.48-.82-1.05-1.49-1.79-2.05-.89-.68-1.76-1.59-2.41-2.54-2.14-3.13-4.73-5.99-7.19-8.93-.76-.92-1.51-1.85-2.25-2.78-.29-.36-.52-.82-.81-1.11l-.64-.64c-.06-.07-.09-.09-.2-.23l-.03-.04v-.02s-.02-.01-.02-.01c.02,0-.05,0-.12-.35-.36-.69,1.34-1.45,1.25-1.05.2.08.16.08.17.08l.05.03.09.07.1.08.09.07.35.27,1.36,1.12c.89.77,1.83,1.49,2.73,2.25,1.86,1.45,3.74,2.9,5.77,4.07,1.19.73,2,1.18,3.24,1.73,2.09.81,3.61,1.89,6.5,3.16.7.46,1.56.89,2.33,1.3.61.35,1.24.58,1.93.69,3.17.58,6.35,1.35,9.67,1.6,3.87.77,9.27,1.46,9.77,1.35,1.17.15,2.34.36,3.49.57.92.19,1.82.37,2.74.56,1.2.24,2.38.23,3.43.04,1.09-.2,2.23-.16,3.38.14,1.02.27,2.04.46,3.06.54,1.03.06,2.07.02,3.12-.12,2.09-.3,4.14-.09,6.25.23,1.84.3,3.7.31,5.53-.05,1.34-.25,2.75-.26,4.16-.08.66.08,1.49.24,2.01.14,1.2-.18,3.82-.19,4.09-.35.27-.14.94-.15,1.33-.16,1.16-.03,2.17-.06,3.3-.15,1.15-.14,2.25-.49,3.39-.67.91-.14,2.04-.31,2.77-.22,1.7.15,3.16-.58,4.77-.67,1.38-.05,2.79-.36,4.18-.61.82-.15,1.62-.32,2.39-.53.77-.24,1.5-.53,2.19-.88.74-.38,1.73-.56,2.67-.74,1.03-.23,4.39-1.19,4.93-1.23,2.23-.28,4.52-1.39,6.61-2.4.53-.24,1.03-.51,1.53-.78.49-.3.97-.59,1.49-.84.79-.41,1.72-.59,2.53-1.01.55-.28,1.02-.95,1.61-.92.75.02,1.3-.19,2.1-.89.96-.83,1.76-1.66,3.12-2.42.93-.49,1.7-1.3,2.72-1.92,1.14-.63,2.31-1.59,3.25-2.52,1.15-1.22,2.55-1.9,3.46-3.17.86-1.21,1.83-1.97,2.72-2.98.34-.3,1.13-1.47,1.76-2.37.16-.24.32-.46.48-.72l.47-.92.94-1.88c.27-.07.47-.16.71-.24.23-.08.49-.16.6-.26l.44-.26c.11-.09.22-.17.31-.23.07-.07.16-.11.2-.14,0-.08.28.03.46.05l.62.07c.42.04.84.09,1.21.22.02,1.42,0,2.88-.05,4.28-.06,1.69-.07,3.21-.05,4.71l.03,1.17c0,.42.08.86-.21,1.21-.48.87-.69,1.17-.98,1.63-1.5,2.36-3.28,4.54-5.41,6.14-.63.45-1.01,1.01-1.5,1.53-2.53,2.67-5.37,5.05-8.67,6.64-.97.51-2.09,1.23-3.09,1.92-.99.69-1.97,1.36-2.95,2.04-1.19.46-2.41,1.02-3.62,1.61-1.2.6-2.43,1.12-3.66,1.45-.5.13-.84.28-1.25.56-.54.38-1.16.77-1.79,1.01-3.15,1.22-6.26,2.77-9.6,3.31-1.32.49-2.62,1.05-3.98,1.47-2.33.66-4.73,1.31-7.02,1.93-1.4.4-2.69.68-4.13.95-1.92.29-3.84.61-5.76.94-1.92.3-3.86.54-5.78.8-1.92.29-3.86.41-5.8.61l-2.9.27-2.91.16c-1.2.06-2.4.04-3.58.02-.97,0-1.97-.04-2.85.13-1.83.36-3.75.42-5.69.48-2.79.05-5.58.02-8.37.04-2.79-.02-5.57-.14-8.36-.19-1.93-.02-3.72-.48-5.7-.52-1.59-.04-3.34-.13-4.9-.53-2.29-.19-4.57-.45-6.86-.67-2.29-.22-4.57-.45-6.85-.77l-4.31-.58c-.75-.11-1.38-.33-1.77-.62-.64-.32-1.07.07-1.3-1.15-.13-.16.67-.85.95-.91,1.92-.36,3.34.17,5.61.18,1.56,0,3.53.39,5.19.48Z"/>
  </g>
  <g>
    <path class="cls-3" d="M138.74,157.82c-13.55,11.37-33.72,13.78-81.71,10.38-10.85-4.66-17.67-12.13-17.67-12.13,75.08,9.11,106.52-10.97,120.99-23.19.24-.2.57.1.39.36-3.2,4.45-12.11,16.27-22,24.58Z"/>
    <path class="cls-3" d="M132.18,163.46c-1.27.69-2.36,1.52-3.75,1.8-.62.13-1.13.79-1.87.73-.45-.03-.89.22-1.35.22-.61,0-1.01.2-1.6.56-.37.16-.59.31-1.41.55-.64.19-1,.2-1.65.57-.57.35-1.64.19-2.27.45-1.28.5-2.29.42-3.66,1.11-1.23.47-2.52.51-3.61.72-1.41.15-2.83.27-4.25.38-.34.02-.68-.03-1-.1-.7-.14-1.33-.05-2.02.14-.64.18-1.94.21-3.13.22-1.2-.02-2.3-.07-2.59.01-.4.11-2.1.26-3.77.35-1.67.06-3.3.09-3.56.06-.34-.04-.63-.15-.88,0-.54-.16-1.31.13-1.76-.09-1.08-.12-1.48-.19-2.77-.17-1.23.01-2.51-.87-3.66-.6-2.44-.08-3.96-.09-4.31,0-.63.15-.9-.17-1.53-.02-.86.2-2.52-.44-2.75-.23-.24.23-.77.12-1.11.3-.72.39-1.66.26-2.54-.03-.46-.15-.98.26-1.37.06-.69-.36-1.48-.55-2.39-.58l-5.78-.26c-.61-.03-1.23-.06-1.83-.12-.33-.03-.53-.07-1.02-.14-.22,0-.41-.14-.58-.25-.19-.12-.29-.2-.41-.29-1.74-.7-2.51-1.22-3.25-1.47-.94-.21-1.59-.95-2.49-1.07-1.25-.17-1.01-.09-2.45-1.05-.19-.3-.89-.98-1.25-.99-.67-.62-1.38-1.04-1.43-1.11-.45-.58-.71-.71-.97-.85-.29-.17-.83-.53-1.43-1.34-.95-.76-1.34-1.17-2.23-1.52-.47-.18-.91-.56-1.15-.96-.19-.36-.54-.65-1.11-1.06-1.14-.84-1.87-1.69-2.57-2.51l-.54-.63c.19-.04.56.01.81,0,.54,0,.99-.02,1.32-.12.71.06,1.25.03,1.8-.02l.85-.07c.3-.01.74.04,1.14.08,1.33.15,2.64.28,3.93.45.64.08,1.29.18,1.89.29.33.08.65.18.97.31.33.13,1.04.08,1.47,0,.72-.15,1.3.33,1.99.2.81-.15,1.24.26,1.78.5.43.17.85.33,1.43.19.81-.2,1.7-.04,2.55-.03.89,0,1.7.44,2.5.26,1.12-.25,2.31.27,3.38-.07.7-.22,1.17.12,1.88.06.68.6,1.64.69,2.74.59,1.17-.11,2.28-.37,3.53-.11.39.08.97-.14,1.47-.2.5-.06,1.01-.14,1.51-.13,1.05.02,1.94.51,3.02.41,1-.14,1.75-.1,2.74-.24.67-.1,1.93.09,2.62.07,1.56-.06,2.79-.74,4.21-.26.68-.02,1.41.08,2-.25.73-.39,1.51-.5,2.39-.34.16.03.37.08.49.04.97-.29,1.92-.54,2.97-.31.84-.15,1.65-.21,2.51-.14.83.08,1.56-.56,2.46-.45.71.07,1.33-.1,1.95-.34.63-.24,1.3-.31,2-.3.49,0,1.07.02,1.5-.11,1.23-.36,2.45-.72,3.68-.97,1.24-.25,2.5-.39,3.8-.42.97-.04,1.85-.27,2.84-.57.75-.4,1.3-.38,1.78-.18.25.11.46-.06.68-.32,1.23-.73,2.5-.34,3.14-.64.9-.41,1.82-.8,2.88-.85.44-.02,1.1-.15,1.43-.36.74-.48,1.44-.66,2.32-.78,1.19-.13,2.3-.56,3.22-1.34.74-.62,1.74-.96,2.71-1.33,1.26-.43,2.6-.66,3.7-1.53.11-.09.32-.16.47-.19.92-.19,1.81-.46,2.63-.84.8-.42,1.56-.95,2.24-1.61.3-.29.89-.58,1.32-.7,1.51-.37,2.77-1.12,3.85-2.23.19-.21.56-.45.84-.54,1.14-.36,2.14-1,3.14-1.65.49-.33.98-.67,1.46-1.03.47-.37.93-.74,1.4-1.11,1.52-1.13,2.95-2.34,4.51-3.4l.16-.11.15-.11c.1-.07.18-.12.3-.18.22-.11.49-.18.75-.2,1.12-.05,1.92.6,2.2,1.57.14.49.06,1.08-.16,1.49-.05.09-.12.2-.17.27l-.03.04-.05.08c-.07.11-.13.22-.19.34-.6,1.29-1.46,2.38-2.52,3.3-.66.58-1.21,1.28-1.58,2.05-.62,1.29-1.49,2.31-2.6,3.2-.51.41-1.06.91-1.49,1.44-1.11,1.37-2.48,2.51-3.5,3.93-1.05,1.44-2.47,2.49-3.62,3.83-.68.78-1.13,1.74-2.04,2.34-.89.61-1.55,1.38-2.28,2.14-.64.69-1.45.93-2.17,1.27-.8.37-1.87-.54-1.61-1.27.02-.05.17-.45.28-.49.18-.29,1.35-1.84,2.51-2.9.63-.59,1.23-1.23,1.95-1.65.59-.36,1.04-.82,1.36-1.42.39-.72.95-1.44,1.62-1.95,2.17-1.7,3.94-3.87,5.77-5.95l1.73-1.93c.22-.25.55-.45.7-.71.89-1.48,1.92-2.88,2.96-4.28l1.54-2.1.74-1.07.02-.03.75.53s.03.02.04.02c.02,0,0,0-.02,0-.04.03,0-.01,0-.03,0,0,0,.03.04.07-.53-.62.72.85.59.7h0s0,0,0,0h0s-.02.02-.02.02l-.03.03-.06.06-.24.22c-.78.71-1.32,1.14-2.01,1.93-1.16,1.27-2.42,1.95-4.41,3.28-.62.21-1.25.56-1.87.8-.5.19-.92.46-1.3.82-.89.83-1.93,1.5-2.96,2.19l-1.56,1.01c-.53.31-1.07.62-1.59.95-1.36.57-2.88,1.42-4.18,2-1.29.6-2.27,1.1-2.41,1.23-.81.35-1.64.64-2.46.92-.68.17-1.34.34-2.02.51-.88.24-1.65.63-2.27,1.16-.64.54-1.41.93-2.31.99-1.58.11-3.03.53-4.4,1.36-.68.41-1.39.73-2.13.94-.75.19-1.53.29-2.33.33-1.4.07-2.72.41-3.95,1.12-.9.54-1.96.66-3.02.66-.5,0-1.14-.06-1.5.09-.84.35-2.78.57-2.96.74-.18.16-.68.22-.97.26-.85.11-1.6.21-2.44.33-.85.13-1.65.48-2.5.65-.67.14-1.52.31-2.06.21-1.28-.24-2.36.46-3.57.43-1.03-.04-2.1.03-3.15.11-1.23.09-2.43.25-3.53.7-.59.24-1.35.25-2.07.26-.8.05-3.42.04-3.82-.05-1.67-.42-3.54-.03-5.29.12-.87.07-1.71.31-2.57.36-.68.01-1.36-.19-2.05-.22-.46-.02-1.02.34-1.4.03-.49-.39-.92-.43-1.71-.28-.94.18-1.81.53-2.98.34-.79-.13-1.63.1-2.54-.06-.98-.16-2.12-.29-3.13-.24-1.28.05-2.39-.5-3.57-.37-1.13.12-2.05-.18-3.07-.34-1.91-.31-3.82-.36-5.71-.16-.94.12-1.89.13-2.84.05-.48-.04-.95-.1-1.42-.19l-.18-.03c-.06-.01-.14-.03-.12-.03l-.02-.04s-.05-.07-.09-.12c-.26-.28-.77-.36-.93-.32-.06.01-.1.03-.15.04-.01.01-.07,0-.05.02.04.04.07.07.1.09.1.11.02.14-.16.27-.09.09.25.21.41.28l.51.22.04.02h.02s.09.07.09.07l.38.27.76.55c1.01.74,1.99,1.52,2.92,2.4.56.53,1.39.96,2.14,1.34.76.36,1.53.65,2.32.92.68.59,1.52,1.01,2.36,1.4.27.12.25.14.35.17l.13.02.35.04c.47.06.93.15,1.37.28.36.11.63.13.98.07.47-.08,1-.19,1.48-.15,2.42.23,4.9-.03,7.27.55,1.02-.04,2.03-.12,3.05-.12,1.74.02,3.51.12,5.22.02,1.05-.06,1.99-.03,3.03.04,2.78.17,5.57.16,8.36.2,2.78-.02,5.57,0,8.34-.09.86-.02,1.72.05,2.57.11.7.06,1.42.07,2.04-.12,1.29-.4,2.65-.49,4.04-.6,3.93-.45,7.87-.92,11.65-1.87.66-.16,1.32-.21,1.97-.31.65-.12,1.3-.25,1.95-.47.52-.19,1.08-.35,1.64-.5.55-.17,1.12-.3,1.68-.35,1.53-.48,2.97-1.16,4.43-1.79.73-.31,1.4-.74,2.11-1.1l1.05-.56c.34-.2.66-.43,1-.64.82-.56,1.7-1.04,2.48-1.67.42-.32.86-.48,1.24-.47.52-.11.44-.6,1.42.12.18.04.29.96.19,1.15-.72,1.29-1.75,1.77-3.02,2.88-.43.4-.98.78-1.54,1.16-.58.34-1.2.65-1.73.97Z"/>
  </g>
  <g>
    <path class="cls-3" d="M182.36,96.11s.44,17.98,0,22.36c.44,3.73,11.62.66,13.37-.44s-7.45-24.77-7.45-24.77l-5.92,2.85Z"/>
    <path class="cls-3" d="M183.46,98.31c-.02.37.33.7.04,1.06-.13.16.28.34,0,.51-.17.11-.07.23-.23.35-.2.15-.14.27.01.44.06.1.15.17.17.39.02.17-.06.26.13.44.16.16-.18.43-.05.6.26.34-.09.6.42.97.29.33.14.66.19.94,0,.37-.01.73-.04,1.1,0,.09-.11.18-.19.26-.18.18-.13.35.01.52.27.34-.19,1.34-.04,1.49.2.21.36,1.77.29,1.91-.04.09-.15.16,0,.23-.16.14.12.34-.1.46-.1.28-.16.39-.12.72.04.32-.82.66-.53.96,0,.64.05,1.04.14,1.13.17.16-.14.24.03.4.23.23-.35.66-.12.72.25.06.15.2.36.29.43.19.34.44.09.67-.13.12.3.26.12.36-.33.18-.48.39-.47.63.03.51.05,1.03.06,1.54,0,.19.01.25-.02.35-.03.09-.1.19-.26.32.04.29.07.43.22.47.31-.07.11.26.47.05.45-.34.34-.3.45-.23-.06.14-.03.34.06.15-.03.14.22.1.21.11.22.44.24-.17.5.32.17-.03.27.06.36-.3.05-.18.12-.2.2-.08.08.11.15.06.22-.05.29-.46.72.16,1.03-.27.2.08.38-.21.58-.2.33,0,.65-.11,1.02.22.1.09.25-.06.33-.21.13-.25.36.14.48-.09.15-.27.33.07.5.22.14.12.27.23.37.03.14-.28.38-.23.58-.32.2-.1.5.23.64-.04.18-.38.6-.02.74-.48.09-.3.29-.04.43-.18.32.46.58.48.8.28.32-.24.18-.48.42-.32.08.05-.01-.16-.04-.23-.02-.07-.06-.14-.04-.15.04,0,.56.21.45.03-.11-.13-.04-.17-.17-.27-.08-.05.14-.14.12-.22-.07-.33-.76-.52-.31-.96-.04-.17.04-.37-.25-.46-.37-.11-.45-.28-.28-.55.03-.05.08-.12.05-.14-.27-.19-.49-.38-.26-.72-.13-.19-.18-.39-.11-.64.07-.24-.46-.3-.32-.58.11-.22-.02-.35-.22-.47-.2-.12-.23-.29-.18-.49.03-.14.08-.31-.03-.4-.61-.5-.85-1.1-.64-1.88.08-.29-.11-.48-.22-.72-.26-.14-.16-.32.1-.53.14-.11.02-.13-.2-.14-.5-.21.06-.71-.13-.84-.27-.18-.45-.39-.27-.74.07-.14.09-.34-.04-.39-.3-.13-.32-.33-.26-.59.09-.36,0-.66-.47-.81-.38-.12-.43-.4-.52-.66-.11-.33.15-.8-.31-1.01-.05-.02-.05-.08-.03-.13.23-.6.11-1.07-.55-1.34-.14-.06-.19-.23-.14-.37.17-.49.13-.88-.41-1.11-.1-.04-.15-.15-.12-.24.29-.76-.16-1.28-.42-1.86-.1-.23-.2-.46-.28-.7-.07-.23-.15-.55-.06-.55.03-.04.06-.11-.03-.07-.25.1-.21.11-.05-.26.1-.23.06-.33-.06-.13-.22.36-.18.37-.19.03,0-.15-.06-.23-.11-.19-.06.05-.13.02-.22.01-.11,0-.1-.02-.32.19-.33.38-.87.27-1.23.58-.21.18-.29.6-.62.55-.33-.05-.51.17-.72.35-.19.16-.5-.05-.78-.16-.3-.12-.96-1.35-.97-1.77,0-.03,0-.26.04-.23.03-.14.31-.71.7-.87.21-.09.4-.23.68-.14.23.07.38,0,.45-.26.09-.3.27-.47.52-.45.21.02.4,0,.59-.03.18-.03.34-.08.62-.19l1.45-.64c.29-.12.58-.21.85-.3.11-.03.18.07.29-.03.16-.14.33-.27.49-.39.08.09.16.21.23.34.15.25.28.55.41.86.26.62.49,1.25.82,1.86.05.09.09.18.14.26l.09.15c.06.1.14.18.27.28.42.31.35.72.5,1.33-.1.21-.1.41-.18.62-.06.17-.03.29.09.39.6.44.73,1.09,1.13,1.62.06.78.51,1.73.65,1.78.06.22.06.46.07.7,0,.19-.05.39-.05.58,0,.25.15.43.48.53.34.1.46.29.34.57-.22.5-.12.88.37,1.14.48.26.58.65.41,1.14-.15.43-.02.76.45.98.35.16.36.44.26.76-.05.15-.17.36-.06.43.25.16.26.69.4.71.14.01.14.15.15.23.02.23.05.43.13.63.08.21.37.35.49.55.1.16.21.36.09.54-.29.43.29.57.23.92-.05.29.02.57.08.85.08.32.22.62.64.82.23.11.22.33.22.53,0,.22.12.94.02,1.08-.19.3-.18.48-.09.82.09.39.26.81.31,1.22.06.4.23.85.15,1.25-.06.31-.35.51-.54.75-.12.16,0,.56-.37.47-.47-.12-.61-.06-.82.22-.23.34-.46.83-1.1.88-.24.03-.3.08-.41.15-.1.06-.22.13-.36.09-.31-.07-.63-.02-.87.16-.31.22-.73-.16-.99.11-.25.26-.56.08-.86.05-.55-.06-1.05.06-1.48.58-.42.51-.97.63-1.55.36-.42-.19-.8-.18-1.2-.09-.54.12-1.12.27-1.68-.13-.16-.12-.3,0-.46.04-.4.1-.83.14-1.27.06-.12-.02-.2-.05-.36-.1-.16-.05-.31-.1-.43-.18-.26-.16-.51-.32-.68-.57-.21-.27-.57-.44-.86-.67-.29-.22-.64-.42-.89-.72,0-.23-.02-.44-.03-.65-.04-.21-.05-.4-.03-.59.01-.38.05-.79.28-1.12.09-.11.1-.16.02-.26-.11-.12-.25-.26-.23-.38.09-.61-.31-1.26.17-1.87-.09-.26-.22-.53-.26-.79-.08-.45-.02-.91-.19-1.36-.1-.27-.1-.52-.07-.79.09-.72.03-1.45.04-2.18,0-.73-.02-1.46,0-2.18,0-.22.1-.45.19-.67.07-.18.13-.37-.02-.54-.32-.34-.33-.7-.36-1.07-.07-1.05-.15-2.1-.26-3.14-.04-.36.24-.71.14-1.08-.08-.3-.12-.63.16-.93l-.08-2.6c0-.27-.01-.55,0-.82,0-.14.14-.27.38-.35.23-.13-.21-.19.96-.3.14-.03.94.08,1.03.13.62.34.27.63.57,1.05.21.29.12.67.19.99Z"/>
  </g>
  <g>
    <path class="cls-3" d="M193.1,83.84s6.8,10.96,18.41,9.21c2.85.44,4.38-10.7,4.38-10.7,0,0-14.69-2.89-20.39-8.81-.22,0-2.41,10.3-2.41,10.3Z"/>
    <path class="cls-3" d="M195.18,84.88c.2.28.66.29.65.73,0,.2.41.05.31.35-.06.19.09.21.05.39-.05.24.06.28.28.29.11.03.21,0,.38.13.13.1.13.21.38.2.22-.02.15.41.35.42.41.02.35.44.94.27.4-.02.53.28.77.39.26.19.51.41.75.63.06.06.07.17.08.28.03.24.19.28.4.24.39-.06.91.81,1.12.72.26-.07,1.55.4,1.64.47.05.07.08.19.19.07.05.2.32,0,.34.24.2.18.25.3.55.33.27.04.33.95.67.74.55.18.92.18,1.02.09.18-.15.19.17.36.02.23-.2.54.43.62.21.08-.24.2-.13.29-.32.21-.39.4-.31.59-.06.1.13.24-.3.32-.12.14.33.33.48.54.47.45,0,.9-.09,1.35-.16.28-.04.56-.11.87.16.15-.03.28-.05.35-.06.14,0,.22,0,.26-.09,0-.3.28-.04.14-.42-.23-.49-.22-.38-.13-.46.07.04.14.08.19.06.06-.02.09-.07.01-.15.2-.07.21-.25.23-.26.48-.08-.08-.29.47-.37.03-.17.15-.23-.15-.44-.16-.11-.15-.18,0-.21.13-.03.11-.11.03-.22-.32-.44.42-.6.13-1.05.15-.16-.04-.43.03-.61.12-.3.15-.63.6-.84.12-.05.04-.25-.07-.38-.17-.22.27-.26.11-.47-.19-.24.2-.26.41-.36.17-.07.32-.15.18-.32-.2-.24-.05-.43-.05-.65,0-.2.43-.4.22-.54-.3-.1.18-.21-.23-.23-.28.03.06-.07-.03-.09.59-.25.72-.46.6-.49-.05,0-.06-.02-.16.01-.2.07-.33.13-.26-.02.02-.07-.21.11-.28.16-.08.05-.15.12-.19.11-.08-.02.01-.49-.18-.42-.11.09-.35-.05-.61,0-.19.03-.44-.27-.62-.31-.39-.09-.87.43-1.08-.17-.17-.05-.32-.21-.54,0-.28.26-.49.24-.64-.04-.03-.05-.06-.13-.1-.11-.3.13-.6.22-.76-.16-.23,0-.43-.06-.6-.26-.16-.19-.51.21-.67-.06-.12-.22-.31-.18-.52-.09-.21.09-.37.01-.51-.15-.1-.11-.21-.25-.34-.22-.77.19-1.42,0-1.9-.65-.18-.24-.44-.21-.71-.29-.28.1-.35-.09-.33-.43,0-.17-.09-.1-.24.06-.49.23-.5-.52-.72-.46-.32.08-.6.06-.74-.31-.05-.15-.18-.3-.32-.25-.31.12-.47,0-.61-.24-.19-.31-.47-.46-.92-.26-.37.16-.61-.01-.85-.15-.32-.18-.43-.69-.94-.6-.05.01-.09-.04-.11-.09-.11-.31-.26-.54-.47-.68-.05-.03-.11-.06-.17-.08l-.1-.03h-.05s-.04-.02,0,.02c-.03.05-.11.12-.16.24-.05.1-.04.1-.02,0,.08-.35-.08-.58-.06-.04,0,.1,0,.12,0,.03-.15-.79-.29-.68-.22-.4,0,.13,0,.17-.15.11-.04-.02-.1-.03-.01.08.22.28.19.2-.1.2-.19.02-.2.1-.08.39.23.41.12.72-.24.99-.17.13-.3.28-.32.45-.06.43-.43.8-.33,1.26.1.47-.32.82-.29,1.27.02.27.3.58.05.8-.24.22-.18.48-.16.75.01.24-.34.35-.6.49-.28.15-1.65-.08-1.99-.32-.02-.02-.21-.15-.16-.17-.09-.1-.38-.66-.27-1.05.06-.21.06-.44.3-.6.2-.13.23-.29.07-.5-.19-.25-.21-.49-.04-.67.56-.59.61-1.3.82-1.97.07-.21.15-.41.24-.62.04-.08.17-.14.15-.22-.07-.24-.09-.47-.08-.69,0-.24.07-.58.13-.88.13-.65.29-1.28.38-1.99.05-.45.16-.62.23-1.04.08-.31.23-.46.39-.58.08-.05.16-.11.25-.17.04-.03.09-.06.14-.09l.08-.06h.01s0-.01,0-.01h0s0,0,0,0c-.02-.08.06.17-.06-.17h0s0,0,0,0h.03s.05.03.05.03c.2.2.38.32.56.54.14.18.25.25.35.18.11-.08.24-.13.37-.15.07,0,.12-.07.22.01l.29.18c.4.26.8.56,1.24.8.23.25.47.52.72.72.1.07.19.13.28.2.08.05.15.09.22.14.29.16.53.25.6.23.16.12.29.3.44.46.11.13.2.31.31.45.15.18.37.21.66.04.3-.17.49-.11.59.16.16.49.49.68.98.49.49-.18.8,0,1.02.44.19.38.51.5.95.28.32-.16.53-.01.69.27.08.13.15.35.27.31.27-.1.65.21.74.11.09-.1.19-.02.25.02.18.11.34.2.54.26.2.06.47-.1.69-.09.17,0,.38.03.45.23.16.47.59.07.82.3.2.19.44.29.68.37.29.1.59.12.95-.15.19-.14.35-.04.51.06.17.11.77.31.83.45.26.57.8.36,1.23.38.23.01.4-.16.83-.08.29.05.5.29.76.37.18.05.59-.22.61.09,0,.39.13.45.6.39.54-.08,1.32-.29,1.72-.03.06.04.13.06.23.08-.02.27.06.52-.12.91-.24.55-.35,1.05-.32,1.49.04.59-.54,1.12-.44,1.63.02.12.02.27,0,.35-.01.07-.04.13-.08.19-.07.12-.18.22-.26.35-.28.45-.38.93-.07,1.5.3.57.19,1.08-.27,1.48-.34.29-.46.62-.53,1-.09.51-.15,1.07-.71,1.41-.17.1-.1.27-.12.42-.04.39-.13.78-.32,1.13-.11.18-.23.35-.4.5-.16.14-.43.38-.69.47-.32.14-.55.45-.83.68-.26.24-.54.51-.87.69-.2-.05-.38-.08-.56-.13-.43-.08-.84.08-1.25-.21-.11-.08-.18-.08-.27.02-.12.13-.25.28-.39.28-.66.02-1.37.33-2.01-.13-.28.07-.58.23-.86.22-.49,0-.97-.12-1.48-.03-.31.06-.58,0-.85-.12-.73-.31-1.52-.42-2.24-.75l-1.09-.44c-.35-.17-.69-.35-1.04-.54-.21-.12-.38-.31-.54-.5-.13-.16-.26-.32-.49-.28-.47.07-.81-.12-1.15-.32-.95-.59-1.87-1.22-2.76-1.89-.31-.23-.37-.7-.72-.9-.28-.16-.55-.39-.55-.82-.63-.65-1.23-1.33-1.79-2.05-.18-.22-.35-.47-.51-.71-.08-.13-.04-.33.1-.53.12-.23-.31-.09.64-.78.1-.09.85-.41.95-.42.69-.07.55.34,1.02.49.33.09.46.43.7.62Z"/>
  </g>
  <g>
    <path class="cls-3" d="M30.2,128.81s-3.19-2.35-8.74-4.57c-3.37-1.35-8.64-5.39-8.95-7.93-.76-.25-1.88,12.87-1.88,12.87,0,0,8.31,5.67,20.68,4.96-1.02,1.53-1.11-5.34-1.11-5.34Z"/>
    <path class="cls-3" d="M27.97,128.62c-.26-.19-.69-.05-.82-.46-.06-.19-.39.09-.39-.24,0-.2-.14-.17-.16-.35-.02-.24-.13-.24-.34-.18-.11,0-.2.06-.38-.02-.14-.06-.18-.16-.41-.08-.2.08-.25-.34-.44-.3-.39.09-.43-.33-.95-.02-.38.13-.58-.13-.83-.19-.29-.13-.58-.29-.86-.45-.07-.04-.1-.16-.13-.26-.07-.23-.22-.25-.43-.18-.38.13-1-.63-1.23-.57-.29.12-1.73-.45-1.8-.58-.05-.08-.06-.21-.2-.11-.04-.21-.34-.07-.33-.31-.18-.23-.24-.32-.53-.47-.28-.14-.08-1.02-.46-.94-.49-.34-.82-.52-.94-.49-.23.05-.09-.24-.32-.2-.32.06-.28-.66-.46-.51-.2.16-.24,0-.44.11-.41.22-.54,0-.55-.34.01-.16-.42.04-.31-.1.17-.28.16-.49.07-.55-.2-.14-.37-.24-.52-.38h0c-.1-.1-.17-.11-.3-.71-.14-.1-.21-.34-.23-.23.04.45-.14-.39-.02.31.19,1.01.18.87.14.72-.09-.41-.26-.73-.13-.23-.11-.26-.07.02-.09-.03-.3-.7.13.5-.23-.28.02.16-.06.06.21.72.14.34.15.39.06.21-.09-.16-.06-.06.03.14.18.4.14.34.09.31-.05-.04-.11-.05.06.21-.08-.05.14.24.12.23-.04.02.02.05-.35-.06-.1-.02.01.08.14.14.21.09-.2.01-.01.1.21.21-.17.28-.37.39-.16.09-.3.17-.14.32.22.21.09.41.11.62.02.21-.38.37-.18.58.29.29-.2.53.18.82.25.19-.08.27,0,.45-.55.11-.67.33-.57.6.1.29.34.57.08.85-.08.09.13.24.19.37.06.12.13.25.12.37-.01.12-.14.23-.26.33-.06.05-.11.11-.14.16-.03.02-.04.04-.01.07.1.08.03.14.14.19.08.01-.17.19-.17.26h0s.26-.03.37-.07c.12-.04.14-.05,0,.16.05.03.05.17.25-.02.12-.12.19-.19.22-.2.08.01.14.1.17.25.01.05.02.13.06.12.29-.09.56-.14.63.24.21.01.37.1.48.3.11.2.48-.17.57.1.08.22.24.19.44.11.2-.09.32,0,.43.15.07.1.16.24.28.21.69-.19,1.22-.04,1.63.55.15.22.39.18.61.23.24-.14.31.03.31.37,0,.17.09.08.2-.09.41-.3.47.43.66.34.27-.12.51-.17.67.16.07.13.2.25.3.17.25-.18.4-.11.55.09.21.27.48.33.82,0,.27-.27.49-.19.72-.13.29.06.52.52.89.21.04-.03.08,0,.11.03.35.47.76.58,1.24.12.1-.1.25-.07.34.03.3.35.63.48,1.01.09.07-.07.17-.08.23,0,.24.29.51.4.78.4.14,0,.27,0,.41-.02l.21-.02h.1s.02-.02.02-.02c.07-.03.1-.04.28.12.05.04.12.1.07,0h0c-.14-.28-.14-.23.26.04.25.18.34.17.12-.01-.47-.26-.43-.24-.12-.04l.06.03c.11.06.17.06.15.01-.06-.12.21-.18,0-.38-.11-.09-.08-.13-.04-.21.03-.19.06-.43-.01-.63-.09-.24-.44-.47-.26-.74.18-.27.05-.5-.03-.75-.07-.22.25-.41.46-.6.24-.21,1.63-.28,2.01-.14.02,0,.24.09.19.12.11.07.52.51.51.88,0,.2.05.4-.14.6-.16.17-.14.31.06.45.25.17.33.36.22.57-.08.27-.13.51-.15.76v.18s-.01.09-.01.09c-.02.02.06.08-.08.06-.35,0-.7,0-1.04.01-.07.3.06.65.11.96l.04.14s-.01.03.04.09l.58.49c-.83-.55-.43-.18-.46-.14.04.07.08.15.15.18.15.13.35-.16.35-.16-.09.12-.16.25-.24.38-.15.27-.32.52-.45.81-.21.02-.41.05-.6.09-.35.07-.59.06-.91.24-.27.16-.6.15-.93.12-.41-.04-.53-.12-.84-.16-.14-.18-.31-.25-.46-.4-.12-.12-.24-.15-.37-.08-.61.35-1.21.21-1.82.34-.68-.31-1.65-.35-1.76-.25-.21-.04-.41-.16-.6-.28-.15-.09-.29-.24-.44-.34-.2-.13-.42-.09-.66.15-.25.25-.47.26-.62,0-.28-.45-.62-.57-1.08-.29-.46.28-.82.14-1.1-.28-.24-.36-.56-.44-.99-.18-.32.2-.54.04-.72-.23-.08-.13-.17-.35-.28-.3-.27.11-.67-.19-.76-.09-.09.1-.19.02-.25-.02-.18-.12-.34-.22-.54-.28-.2-.07-.48.09-.7.05-.17-.02-.39-.06-.44-.27-.12-.49-.59-.13-.8-.39-.18-.22-.41-.35-.64-.47-.27-.14-.56-.23-.98-.04-.13.04-.17.06-.32-.02-.13-.07-.25-.17-.36-.26-.13-.11-.41-.29-.68-.49-.27-.21-.52-.41-.54-.5-.08-.32-.31-.51-.6-.69,0-.37-.08-.72-.1-1.11-.02-.35-.19-.7-.18-1.1,0-.13.06-.35.12-.41.05-.08.11-.15.13-.23.02-.11-.33-.27-.02-.33.39-.08.44-.18.3-.38-.17-.24-.51-.48-.31-.74.14-.17-.09-.4.09-.6.19-.21.25-.48.18-.73-.09-.31.41-.53.25-.83-.15-.29.11-.48.24-.71.23-.43.28-.88-.09-1.38-.33-.82-.21-1.91.23-2.49.32-.43.42-.91.49-1.53.08-.81.24-1.69.75-1.58.14.02.12-.23.17-.39.12-.4.28-.69.48-.84.1-.07.21-.11.35-.12.07,0,.15,0,.26.02.04.05.04.13.07.22.03.11.04.17.06.21.04.03.07.03.09.02.04,0,.13-.17.23-.31.15.33.37.49.59.63.11.07.19.15.33.25.14.1.27.25.39.49.07.16.13.22.2.17.02.02.04.03.06.04.13.1.29.11.42.36.31.6.63,1.23,1.01,1.46.18.16.36.34.52.55.14.21.34.44.32.58.23.07.48.12.69.22.35.18.62.46,1.03.55.24.06.41.18.58.33.45.42,1,.71,1.52,1.02.52.31,1.06.57,1.56.83.16.08.27.23.41.39.13.14.27.26.47.18.42-.17.74-.05,1.07.07.93.34,1.86.71,2.79,1.07.32.13.48.53.84.61.29.06.58.19.69.58.73.39,1.44.79,2.15,1.24.22.14.45.29.66.45.11.08.14.27.07.51-.03.26.29-.05-.33.95-.06.12-.63.7-.71.75-.6.32-.61-.1-1.09-.06-.33.03-.56-.23-.83-.32Z"/>
  </g>
  <g>
    <path class="cls-3" d="M29.26,150.06s-13.84,2.26-20.2-5.11c-.76-.25-.66,12.66-.66,12.66,0,0,7.85,5.52,20.22,4.81-1.02,1.53.64-12.36.64-12.36Z"/>
    <path class="cls-3" d="M27.17,151.34c-.37,0-.7.35-1.07.08-.17-.12-.34.28-.52,0-.11-.17-.24-.07-.35-.23-.15-.2-.26-.14-.44.01-.1.06-.17.15-.39.17-.17.01-.26-.07-.45.11-.17.16-.42-.2-.6-.07-.36.25-.6-.13-1.01.36-.36.26-.69.09-.98.11-.38-.04-.75-.1-1.12-.18-.09-.02-.17-.13-.24-.22-.16-.2-.33-.17-.53-.07-.39.21-1.32-.42-1.5-.31-.24.14-1.88-.08-2-.2-.08-.07-.12-.2-.23-.07-.09-.2-.38,0-.43-.24-.25-.19-.33-.28-.68-.35-.34-.06-.34-1.03-.73-.87-.6-.26-1-.37-1.12-.34-.23.07-.15-.24-.38-.18-.32.09-.43-.64-.6-.47-.18.18-.27.03-.44.16-.2.38-.23.26-.23-.04-.02-.17-.14.27-.13.06,0-.39-.1-.65-.2-.7-.23-.11-.37-.22-.53-.35-.05-.04-.1-.07-.16-.16-.07-.07-.17-.34-.36-.53-.06.36-.11.39-.04.66.23.52-.11.15.22.73.46.73.39.57.36.68-.15-.14-.32-.19-.12,0-.14-.03-.05.11-.08.1-.4-.07.2.18-.26.14.04.1-.05.14.31.24.18.05.21.06.08.08-.11,0-.07.1.04.19.45.36-.21.78.19,1.15-.09.21.16.44.13.65-.04.35.01.7-.37,1.03-.1.09.02.27.15.38.22.18-.21.34,0,.51.23.2-.14.32-.32.46-.15.11-.28.22-.11.37.24.21.13.43.18.65.04.23-.34.44-.12.64.16.14.12.29.1.44-.02.13-.04.34.17.35.26.04-.05.08.05.11-.54.17-.63.37-.51.42h0c.22.02.49-.13.41.09-.02.08.18-.07.24-.12.04-.02.05-.06.1-.06.07,0,.13.01.18.04.22.12.19.64.48.66.27.01.4.15.67.15.18,0,.36.35.52.41.36.14.88-.32,1,.3.16.06.28.24.51.05.29-.24.48-.21.6.08.02.05.05.13.08.12.3-.12.58-.2.71.18.22,0,.4.07.56.27.15.18.49-.23.63.04.12.21.29.17.49.07.2-.11.34-.03.48.11.1.1.21.22.33.18.71-.27,1.29-.16,1.83.37.2.2.44.13.69.15.23-.16.33.01.39.34.03.17.1.07.2-.12.4-.35.57.37.76.25.27-.16.52-.23.74.08.09.12.25.21.35.12.24-.22.41-.16.61,0,.27.23.57.26.87-.11.24-.3.5-.26.76-.24.31.02.68.42.95.08,0-.04.02-.02.03.02.07.38.34.45.17.06-.02-.04-.04-.08-.07-.12-.07-.11-.07-.1.02,0,.14.16.29.26.34.28.03,0,.02,0-.05-.04-.07-.04-.15-.14-.26-.24-.08-.08-.1-.09-.03-.04.27.21.34.16.34.11,0-.06-.06-.14-.08-.19-.01-.48.01-1.02.21-1.5.05-.13.12-.25.02-.4-.25-.38-.18-.73.13-1.06.2-.21.21-.43.05-.66-.28-.39-.21-.72.11-1.05.15-.15.26-.33.27-.5,0-.45.33-.87.18-1.33-.15-.47.23-.88.15-1.33-.04-.27-.36-.56-.13-.81.22-.25.13-.51.09-.79-.04-.24.31-.4.55-.57.26-.19,1.65-.08,2.01.13.02.01.22.14.17.16.1.1.44.63.37,1.03-.04.22-.02.45-.24.64-.18.16-.2.32-.02.51.21.23.26.47.11.67-.49.65-.46,1.38-.59,2.08-.04.22-.1.44-.16.65-.02.08-.16.16-.12.24.38.92.05,1.79.19,2.68.04.27.02.44.18.7.13.22.14.41.1.61-.04.29-.13.73-.15,1.2-.32,0-1.3-.29-1.51-.27,0,.08,0,.16,0,.25,0,.17,0,.24,0,.39,0,.15.02.31.04.46.01.08.03.15.07.22.04.09.15.04.18-.02.04-.06.02-.01,0,.04l-.04.14-.07.28c-.04.19-.08.39-.1.62-.05.13-.09.25-.14.39-1.13-.06-2.26.05-2.38.12-.23-.02-.46-.11-.69-.19-.18-.07-.35-.19-.53-.26-.23-.1-.46,0-.68.25-.23.27-.46.3-.67.07-.37-.41-.76-.47-1.21-.13-.45.33-.85.22-1.22-.15-.32-.33-.67-.35-1.09-.05-.31.22-.57.1-.81-.15-.11-.12-.23-.33-.35-.27-.27.14-.74-.12-.82-.01-.08.11-.2.04-.27,0-.21-.1-.4-.18-.62-.22-.22-.04-.5.14-.74.13-.19,0-.42-.02-.51-.23-.2-.48-.65-.07-.91-.31-.22-.2-.49-.31-.75-.41-.31-.12-.63-.16-1.04.07-.22.12-.39,0-.55-.12-.18-.13-.82-.43-.87-.59-.22-.62-.81-.51-1.28-.64-.23-.06-.53.03-.75-.06-.17-.07-.26-.32-.41-.43-.1-.07-.42.18-.36-.14.1-.39-.08-.52-.47-.57-.47-.05-1.1-.04-1.44-.48-.13-.17-.37-.26-.6-.4-.02-.16-.02-.33.04-.54.16-.55.2-1.07.1-1.54-.03-.16-.03-.28,0-.42.03-.13.07-.17.11-.26.08-.15.15-.3.06-.45-.18-.29.06-.53.16-.79.18-.49.18-.98-.24-1.47-.42-.48-.43-.98-.08-1.46.26-.35.29-.7.25-1.07-.06-.51-.17-.98.25-1.51.13-.23,0-.44-.02-.68-.18-1.17-.21-2.69.44-3.17.19-.14.23-.49.3-.78.07-.28.09-.64.17-.91.27.04.4-.12.64-.24.16-.1.24.02.36.06.11.06.23.15.35.3.1.12.16.16.21.08.06-.1.13-.25.23-.21.13.05.26.07.38.07.04-.03.16.05.26.12l.32.21c.43.29.89.68,1.25,1.26.19.08.38.17.57.25.23.11.45.21.67.31.39.12.72.37,1.13.41.25.02.46.09.66.22.27.16.56.3.86.43l.93.29c.6.23,1.27.33,1.89.51.19.06.38.18.56.31.15.1.31.19.49.07.37-.26.68-.2,1.02-.19.96.06,1.92.07,2.89.01.33-.03.64.27.99.17.28-.07.58-.12.86.17.81-.02,1.61-.09,2.41-.16.25-.02.5-.05.75-.06.13,0,.25.12.36.34.16.21.13-.23.38.92.05.13.05.94,0,1.03-.27.65-.6.34-1,.67-.28.23-.67.16-.99.25Z"/>
  </g>
  <g>
    <path class="cls-3" d="M29.37,177.93s-13.84,2.26-20.2-5.11c-.76-.25-.66,12.66-.66,12.66,0,0,7.85,5.52,20.22,4.81-1.02,1.53.64-12.36.64-12.36Z"/>
    <path class="cls-3" d="M27.28,179.21c-.37,0-.7.35-1.07.08-.17-.12-.34.28-.52,0-.11-.17-.24-.07-.35-.23-.15-.2-.27-.14-.44.01-.1.06-.17.15-.39.17-.17.01-.26-.07-.45.11-.17.16-.42-.2-.6-.07-.36.25-.6-.13-1.01.36-.36.26-.69.09-.98.11-.38-.04-.75-.1-1.12-.18-.09-.02-.17-.13-.24-.22-.16-.2-.33-.17-.53-.07-.39.21-1.32-.42-1.5-.31-.24.14-1.88-.08-2-.2-.08-.07-.12-.2-.23-.07-.09-.2-.38,0-.43-.24-.25-.19-.33-.28-.68-.35-.34-.06-.34-1.03-.73-.87-.6-.26-1-.37-1.12-.34-.23.07-.15-.24-.38-.18-.32.09-.43-.64-.6-.47-.18.18-.27.03-.44.16-.2.38-.23.26-.23-.04-.02-.17-.14.27-.13.06,0-.39-.1-.65-.2-.7-.23-.11-.37-.22-.53-.35-.05-.04-.1-.07-.16-.16-.07-.07-.17-.34-.36-.53-.06.36-.11.39-.04.66.23.52-.11.15.22.73.46.73.39.57.36.68-.15-.14-.32-.19-.13,0-.14-.03-.05.11-.08.1-.4-.07.2.18-.26.14.04.1-.05.14.31.24.18.05.21.06.08.08-.11,0-.07.1.04.19.45.36-.21.78.19,1.15-.09.21.16.44.13.65-.04.35.01.7-.37,1.03-.1.09.02.27.15.38.22.18-.21.34,0,.51.23.2-.14.32-.32.46-.15.11-.28.22-.11.37.24.21.13.43.18.65.04.23-.34.44-.12.64.16.14.12.29.1.44-.02.13-.04.34.17.35.26.04-.05.08.05.11-.54.17-.63.37-.51.42h0c.22.02.49-.13.41.09-.02.08.18-.07.24-.12.04-.02.05-.06.1-.06.07,0,.13.01.18.04.22.12.19.64.48.66.27.01.4.15.67.15.18,0,.36.35.52.41.36.14.88-.32,1,.3.16.06.28.24.51.05.29-.24.48-.21.6.08.02.05.05.13.08.12.3-.12.58-.2.71.18.22,0,.4.07.56.27.15.18.49-.23.63.04.12.21.29.17.49.07.2-.11.34-.03.48.11.1.1.21.22.33.18.71-.27,1.29-.16,1.83.37.2.2.44.13.69.15.23-.16.33.01.39.34.03.17.11.07.2-.12.4-.35.57.37.76.25.27-.16.52-.23.74.08.09.12.25.21.35.12.24-.22.41-.16.61,0,.27.23.57.26.87-.11.24-.3.5-.26.76-.24.31.02.68.42.95.08,0-.04.02-.02.03.02.07.38.34.45.17.06-.02-.04-.04-.08-.07-.12-.07-.11-.07-.1.02,0,.14.16.29.26.34.28.03,0,.02,0-.05-.04-.07-.04-.15-.14-.26-.24-.08-.08-.1-.09-.03-.04.27.21.34.16.34.11,0-.06-.06-.14-.08-.19-.01-.48,0-1.02.21-1.5.05-.13.12-.25.02-.4-.25-.38-.18-.73.13-1.06.2-.21.21-.43.05-.66-.28-.38-.21-.72.11-1.05.15-.15.26-.33.27-.5,0-.45.33-.87.18-1.33-.15-.47.23-.88.15-1.33-.04-.27-.36-.56-.13-.81.22-.25.13-.51.09-.79-.04-.24.31-.4.55-.57.26-.19,1.65-.08,2.01.13.02.01.22.14.17.16.1.1.44.63.37,1.03-.04.22-.02.45-.24.64-.18.16-.2.32-.02.51.21.23.26.47.11.67-.49.65-.46,1.38-.59,2.08-.04.22-.1.44-.16.65-.02.08-.16.16-.12.24.38.92.05,1.79.19,2.68.04.27.02.44.18.7.13.22.14.41.1.61-.04.29-.13.73-.15,1.2-.32,0-1.3-.29-1.51-.27,0,.08,0,.16,0,.26,0,.17,0,.24,0,.39,0,.15.02.31.04.46.01.08.03.15.07.22.04.09.15.04.18-.02.04-.06.02-.01,0,.04l-.04.14-.07.28c-.04.19-.08.39-.1.62-.05.13-.09.25-.14.39-1.13-.06-2.26.05-2.38.12-.23-.02-.46-.11-.69-.19-.18-.07-.35-.19-.53-.26-.23-.1-.46,0-.68.25-.23.27-.46.3-.67.07-.37-.41-.76-.47-1.21-.13-.45.33-.85.22-1.22-.15-.32-.33-.67-.35-1.09-.05-.31.22-.57.1-.81-.15-.11-.12-.23-.33-.35-.27-.27.14-.74-.12-.82-.01-.08.11-.2.04-.27,0-.21-.1-.4-.18-.62-.22-.22-.04-.5.14-.74.13-.19,0-.42-.02-.51-.23-.2-.48-.65-.07-.91-.31-.22-.2-.49-.31-.75-.41-.31-.12-.64-.16-1.04.07-.22.12-.39,0-.55-.12-.18-.13-.82-.43-.87-.59-.22-.62-.81-.51-1.28-.64-.23-.06-.53.03-.75-.06-.17-.07-.26-.32-.41-.43-.1-.07-.42.18-.36-.14.1-.39-.08-.52-.47-.57-.47-.05-1.1-.04-1.44-.48-.13-.17-.37-.26-.6-.4-.02-.16-.02-.33.04-.54.16-.55.2-1.07.1-1.54-.03-.16-.03-.28,0-.42.03-.13.07-.17.11-.26.08-.15.15-.3.06-.45-.18-.29.06-.53.16-.79.18-.49.18-.98-.24-1.47-.42-.48-.43-.98-.08-1.46.26-.35.29-.7.25-1.07-.06-.51-.17-.98.25-1.51.13-.23,0-.44-.02-.68-.18-1.17-.21-2.69.44-3.17.19-.14.23-.49.3-.78.07-.28.09-.64.17-.91.27.04.4-.11.64-.24.16-.1.24.02.36.06.11.06.23.15.35.3.1.12.16.16.21.08.06-.1.13-.25.23-.21.13.05.26.07.38.07.04-.03.16.05.26.12l.32.21c.43.29.89.68,1.25,1.26.19.08.38.17.57.25.23.11.45.21.67.31.39.12.72.37,1.13.41.25.02.46.09.66.22.27.16.56.3.86.43l.93.29c.6.23,1.27.33,1.89.51.19.06.38.18.56.31.15.1.31.19.49.07.37-.26.68-.2,1.02-.19.96.06,1.92.07,2.89.01.33-.03.64.27.99.17.28-.07.58-.12.86.17.81-.02,1.61-.09,2.41-.16.25-.02.5-.05.75-.06.13,0,.25.12.36.34.16.21.13-.23.38.92.05.13.05.94,0,1.03-.27.65-.6.34-1,.67-.28.23-.67.16-.99.25Z"/>
  </g>
  <g>
    <polygon class="cls-3" points="174.25 94.36 170.98 115.88 167.47 112.3 168.77 91.51 174.25 94.36"/>
    <path class="cls-3" d="M175.03,96.21c-.07.28.23.59-.1.81-.15.1.23.3-.07.39-.19.05-.1.17-.27.23-.22.08-.18.18-.04.33.05.09.12.15.12.32,0,.13-.09.19.07.36.14.15-.24.29-.13.44.21.3-.17.44.29.81.24.3.05.52.06.75-.04.28-.1.56-.18.83-.02.06-.13.12-.22.17-.2.11-.17.24-.05.4.23.3-.35.99-.23,1.13.17.19.14,1.41.06,1.5-.05.06-.17.1-.03.18-.18.08.08.28-.15.34-.13.2-.2.27-.2.53,0,.25-.89.38-.63.65-.07.49-.07.8.02.88.15.15-.16.16-.01.31.21.21-.42.46-.19.53.24.08.13.17.32.27.4.2.29.38.02.52-.14.07.28.24.09.29-.34.09-.51.23-.52.41-.02.39-.03.78-.06,1.17-.03.27,0,.45-.35.74-.02.54-.13.76-.06,1.03.21.42-.15.47.14.97.4.74.33.62.23,1.18-.15-.03-.35.09-.19.4-.16.14-.13.51-.15.51-.39-.06.11.66-.33.48,0,.31-.09.3.17.98.14.35.13.51.02.44-.1-.06-.08.11-.01.42.14.64.06.86-.02,1.03-.08.18-.16.32-.06,1.01-.01.02-.02.04-.03.08-.21-.22-.31-.05-.54-.32-.42-.47-.83-.81-1.29-1.82-.11-.26-.27-.24-.37-.16-.18.13-.38-.68-.56-.57-.23.1-.35-.55-.46-.93-.1-.31-.16-.56-.34-.5-.26.08-.48-.29-.71-.47-.27-.21-.26-.76-.59-.77-.24-.02-.38-.21-.5-.37-.12-.16-.24-.3-.54-.31-.4-.03-.26-.33-.52-.46.18-.24.23-.41.18-.55.06-.16.06-.3.02-.44-.11-.32-.35-.71-.09-1.13.08-.15-.14-.23-.2-.35-.06-.11-.14-.21-.13-.32.02-.21.5-.36.4-.59-.1-.21-.02-.36-.12-.57-.07-.14.18-.38.18-.52.01-.32-.61-.61-.07-.86,0-.14.14-.28-.12-.42-.32-.17-.35-.34-.11-.5.04-.03.11-.07.09-.09-.2-.21-.36-.42-.03-.61-.07-.18-.05-.34.1-.51.14-.16-.34-.35-.11-.52.18-.13.1-.27-.05-.41-.15-.14-.12-.28,0-.41.08-.09.18-.21.11-.3-.4-.55-.41-1.06.05-1.56.17-.19.07-.38.05-.59-.19-.18-.04-.28.29-.35.17-.03.06-.09-.13-.16-.38-.31.32-.49.18-.64-.19-.21-.27-.42.02-.62.12-.08.21-.21.11-.29-.23-.19-.18-.34-.02-.5.22-.23.24-.47-.14-.72-.31-.21-.25-.42-.23-.63.02-.27.44-.52.1-.82-.03-.03-.01-.07.02-.1.44-.35.51-.72.01-1.13-.11-.09-.09-.23.01-.31.17-.15.29-.29.31-.44.01-.08,0-.15-.04-.23-.02-.04-.05-.08-.08-.12-.04-.07-.08-.14-.12-.22-.07-.12-.08-.3,0-.4.59-.79.4-1.67.42-2.65.01-.74.05-1.5.24-1.99.05-.13.11-.22.03-.55-.1-.42-.14-.76-.12-1,.25.13.56.39.9.73.4.41.65.53.81.41.27-.21.8.1,1.3.7.23.28.46.5.67.59.54.24,1,.8,1.55.86.15.02.28.07.41.14.07.03.13.07.19.11.04.03.07.06.11.09.14.12.27.25.45.27.22.03.55-.18.65.09.1.27.33.25.55.29.19.03.18.39.21.65.04.29-.56,1.55-.86,1.82-.02.02-.18.17-.18.12-.11.07-.64.24-.92.07-.15-.09-.33-.14-.39-.39-.05-.21-.16-.27-.37-.15-.25.13-.45.11-.54-.08-.15-.55-.42-.57-.7-.79-.09-.07-.18-.16-.29-.26-.04-.04-.13-.22-.15-.19-.12.27-.28.19-.48.1,0,.14,0,.29.06.5.05.17.04.23.2.49.26.41.05.25-.02.4-.17-.05-.24-.02-.38-.02-.12,0-.14.07-.06.15.1.09.16.17.21.23.02.03.04.05.06.09l.03.19c.04.25.04.5.12.75-.25.57-.19,1.38-.08,1.46-.03.17-.12.34-.2.51-.07.13-.2.26-.27.4-.1.17-.03.35.25.52.28.18.32.35.1.51-.39.28-.44.58-.08.91.36.33.3.63-.04.93-.29.26-.3.53.06.83.27.22.18.42-.03.62-.1.09-.29.2-.21.29.18.19,0,.57.12.62.12.05.08.15.06.2-.06.17-.1.32-.09.49,0,.17.23.35.28.53.04.14.08.31-.1.41-.42.22.08.49-.08.72-.14.2-.17.41-.19.62-.03.25.02.49.36.74.19.13.12.28.06.42-.07.16-.14.68-.26.75-.5.3-.19.7-.12,1.05.03.18.23.36.25.53.01.14-.18.26-.21.4-.02.09.34.23.03.28-.39.07-.43.16-.28.33.04.05.1.1.16.15.06,0,.11.02.16.02.09.01.14,0,.05.02-.12.04.13-.01-.03.04l-.06.03c-.1.06-.09.1,0,.06.11-.07-.2.3-.07.16.11-.15-.04.05-.05.17-.05.21.08.34.09-.26,0-.6-.17-.81-.05-.2.09.44.14.54.11.44h0c-.03-.25-.12-.46.19.1.09.16,0-.07-.03-.17-.16-.52-.27-.58.19-.29.14.08.1-.06.07-.14-.03-.09-.16-.22-.25-.3.2.05.23-.02.26-.08.01,0,.04-.11.09-.2.05-.09.12-.17.23-.25.09-.06.11-.11.04-.2-.1-.11-.22-.24-.2-.33.14-.48-.19-1.03.33-1.44-.06-.22-.16-.44-.18-.65-.03-.36.07-.71-.04-1.08-.07-.22-.04-.41.02-.62.17-.55.2-1.11.29-1.67.09-.56.15-1.12.26-1.68.03-.17.15-.33.27-.49.1-.13.18-.26.05-.42-.27-.31-.24-.59-.22-.88.06-.81.13-1.63.15-2.45.01-.28.33-.5.28-.8-.04-.24-.03-.5.29-.68l.28-2c.03-.21.06-.42.11-.63.02-.11.18-.18.42-.21.25-.06-.18-.18.99-.06.14,0,.91.22.99.27.56.36.18.52.42.9.16.26.02.53.05.79Z"/>
  </g>
</svg>