<?xml version="1.0" encoding="UTF-8"?>
<svg id="illuer_blå_bg" xmlns="http://www.w3.org/2000/svg" viewBox="0 0 188.29 275.89">
  <defs>
    <style>
      .cls-1 {
        fill: none;
      }

      .cls-2 {
        fill: #ff9400;
      }

      .cls-3 {
        fill: #0354f0;
      }

      .cls-4 {
        fill: #ffe6c4;
      }
    </style>
  </defs>
  <path class="cls-4" d="M187.99,179.87c-.2,1.08.25,1.68-.91,2.33-.13.23-.96-.86-1.06-1.28-.64-2.91-.43-5.25-1.08-8.76-.25-1.19-.44-2.57-.65-3.97-.25-1.39-.5-2.81-.76-4.09-.3-1.49-.72-2.89-1.08-4.28-.41-1.38-.83-2.73-1.08-4.17-.25-1.31-1.15-2.58-1.32-4.02-.09-.89-.61-1.82-.79-2.75-.27-1.2-.63-2.09-1.38-3.32-.41-.76-.7-1.2-1.47-2.84-.66-1.25-.92-1.95-1.78-3.22-.75-1.11-1.55-3.11-2.35-4.28-.86-1.15-1.52-2.19-2.2-3.25-.68-1.07-1.5-2.07-2.59-3.19-1.84-2.02-3.38-4.21-4.96-5.92-.5-.56-.97-1.15-1.48-1.69l-1.55-1.64c-1-1.11-2.08-2.14-3.16-3.19-.51-.49-.94-1.08-1.4-1.56-.98-1.08-2.03-1.97-3.26-2.79-1.18-.75-3.26-2.52-5.33-4-1-.78-2-1.48-2.83-2.02-.81-.54-1.44-.95-1.72-1.08-.38-.2-1.37-.72-2.66-1.4-1.26-.72-2.88-1.51-4.47-2.28-3.19-1.55-6.41-2.84-6.91-3.05-.64-.3-1.19-.63-1.74-.68-1.01-.58-2.68-.8-3.5-1.32-1.08-.44-1.82-.69-2.63-.94s-1.67-.5-3-.85c-1.28-.28-2.54-.78-3.81-1.25-1.26-.45-2.54-.79-3.77-.87-1.28-.26-2.47-.35-3.51-.49-1.05-.12-1.96-.27-2.75-.29-1.56-.1-2.56-.14-2.94-.12-1.34.05-1.93-.23-3.28-.1-1.82.12-5.45-.34-5.9-.09-.49.25-1.63.19-2.32.47-1.47.56-3.46.55-5.39.6-1,0-2.01.56-2.86.5-1.54-.03-3.27.07-5.17.5-4.04.89-7.99,2.12-11.88,3.52-1.21.47-2.45.95-3.66,1.43-1.23.44-2.4.96-3.58,1.32-.45.21-.87.4-1.26.59-.39.2-.75.39-1.09.56-.68.35-1.27.66-1.79.93-1.06.52-1.82.99-2.49,1.44-.78.61-1.64,1.06-2.46,1.54-.81.51-1.59,1.01-2.23,1.64-1.77,1.72-1.32,1.41-4.27,3.45-.63.27-2.31,1.39-2.67,1.93-.07.05-.14.1-.21.14-.32.22-.62.44-.9.64-.33.28-.63.54-.89.76-.52.45-.86.77-.93.82-2.52,1.64-1.62,1.74-4.19,3.52-1.18,1.18-1.84,1.83-2.11,2.61-.14.41-.59.92-1.24,1.43-.58.5-.95.99-1.33,1.61-.4.64-.88,1.25-1.39,1.88-.49.64-1.02,1.27-1.55,1.91-1.1,1.25-2.09,2.61-2.8,3.95-1.15,1.41-1.85,3.14-2.87,4.64-.76,1.28-1.51,2.55-2.25,3.8-.7,1.28-1.42,2.52-2.23,3.69-.41.62-.91,2.05-1.16,2.92-.45,1.45-1.27,2.54-1.63,3.95-.42,1.64-1.04,2.47-1.61,3.55-.44.86-.9,1.69-1.04,2.91-.1.77-.29,1.55-.5,2.35-.25.98-.54,1.98-.72,2.98-.19.93-.5,1.81-.73,2.68-.22.87-.41,1.73-.45,2.59-.08,1.19-.27,2.41-.44,3.63-.17,1.22-.37,2.43-.23,3.57.17,1.49-.26,2.5-.23,4.02-.29.74-.47,1.63-.57,2.63-.04.5-.08,1.02-.09,1.57.02.55.05,1.12.09,1.71.14,2.51.62,4.85.6,7.57.04.85.42,2.05.62,3.1.18,1.06.46,2.12.66,3.18.35,2.22.33,4.18.97,6.41.31,1.04.59,1.94.86,2.84.28.89.5,1.81.92,2.8.53,1.34,1.16,3.98,1.76,5.35.31.78.64,1.51.97,2.2.37.68.73,1.34,1.08,1.99.35.65.67,1.3.97,1.97.32.65.6,1.33.82,2.06.34.65.65,1.34,1,1.99.37.63.76,1.24,1.2,1.73.55.62,1.02,1.3,1.5,2.01s.91,1.48,1.31,2.32c.15.3.34.72.51.93,1.4,1.61,2.69,3.25,3.83,5.15.6.69,1.15,1.39,1.71,2.08.58.68,1.14,1.38,1.69,2.12,1.03,1.46,2.63,2.31,3.76,3.84.95,1.18,2.02,2.04,3.13,2.9,1.15.84,2.24,1.78,3.3,2.84.75.73,1.68,1.54,2.46,2.08,4.6,3,9.11,5.83,13.83,8.76.89.53,1.76,1.04,2.7,1.44.95.4,1.9.81,2.92,1.25,1.71.52,2.72,1.03,3.46,1.68.38.31.91.44,1.54.43,1.48.29,2.73.79,3.8,1.26,1.1.42,2.01.82,2.74.95,1.04.2,2.09.41,3.15.61,1.05.22,2.1.54,3.17.89.89.27,2.31.6,3.11.64,1.86.09,3.41.26,5.26.67,2.49.4,5.08.63,7.52.25,1.97-.21,4.27-.31,6.51-.34,1.44-.11,2.87-.12,4.32-.17,1.44-.1,2.88-.29,4.31-.65.28-.06.76-.13,1.09-.16,1.99-.15,3.97-.34,5.88-.83,1.94-.4,3.8-1.07,5.63-1.87.81-.32,2.16-.8,3.09-1.01.8-.19,1.6-.36,2.37-.61.76-.25,1.52-.52,2.27-.81,1.52-.54,2.93-1.32,4.33-2.18.52-.3,1.38-.73,1.94-.96,4.76-1.74,9.18-4.69,13.29-7.79,3.27-2.48,6.44-5.06,9.44-7.8.41-.37.81-.72,1.21-1.08.37-.38.73-.77,1.07-1.21.91-1.15,1.89-2.23,2.83-3.35.96-1.09,1.99-2.12,2.97-3.19.63-.66,1.24-1.36,1.8-2.09.53-.75,1.02-1.52,1.45-2.29.75-1.27,1.44-2.53,2.23-3.73.8-1.19,1.56-2.41,2.42-3.6.82-1.09,1.6-2.44,2.24-3.73.87-1.65,1.62-3.35,2.45-5.02.74-1.7,1.46-3.41,1.99-5.17.49-1.81,1.17-3.53,1.67-5.31.27-.88.56-1.76.81-2.65.21-.9.42-1.8.6-2.71.1-.54.19-1.07.27-1.61l.17-1.6c.11-1.08.29-2.14.54-3.24.47-2.19.66-4.3.71-6.5.12-1.95.46-3.53.72-5.15.29-1.76,1.69-2.32,2.03-.84.02.09.21.93.16,1.17.04.36.16,1.61.19,3.2-.03,1.6-.02,3.55-.26,5.3-.26,1.92-.42,3.86-.98,5.61-.43,1.45-.65,2.84-.82,4.31-.08.88-.22,1.83-.41,2.77-.21.93-.5,1.86-.81,2.73-2.08,5.7-4.27,11.49-7.16,16.92-.85,1.71-1.89,3.31-2.86,4.95-.37.64-.94,1.22-1.24,1.8-.46.82-.94,1.65-1.42,2.47l-1.59,2.38c-1.04,1.61-2.28,3.09-3.44,4.62-2.47,2.96-5.05,5.83-7.79,8.52-1.59,1.65-2.76,2.59-4.33,4.19-1.32,1.29-2.66,2.33-4.16,3.46-1.56,1.05-3.24,2.26-5.47,3.6-.62.29-1.27.64-1.92.99-.67.33-1.34.65-1.99.94-1.04.45-1.97,1.01-2.94,1.58-4.41,2.83-9.54,4.9-14.57,6.71-1.51.5-3.23.87-4.89,1.35-1.68.44-3.37.77-4.87,1.14-3.03.6-5.37,1.06-5.77,1.14-1.9.21-3.8.43-5.7.46-1.51.04-2.98.08-4.49.02-.98-.02-1.94,0-2.86.07-.92.06-1.81.1-2.65.23-.87.12-1.76.19-2.68.18-.91-.05-1.85-.16-2.78-.33-1.66-.28-3.29-.62-4.94-.83-1.66-.18-3.31-.44-5.01-.54-.84-.04-1.68-.15-2.51-.31-.83-.14-1.65-.31-2.48-.51-1.64-.38-3.24-.99-4.86-1.59-1.39-.58-2.78-1.15-4.2-1.6-1.41-.49-2.82-.98-4.27-1.34-1.07-.27-2.1-.72-3.14-1.19-.52-.23-1.03-.49-1.54-.75-.49-.28-.98-.58-1.47-.89-.9-.58-2.02-1.32-2.8-1.67-.9-.41-2.25-1.17-3.43-1.85-1.16-.72-2.14-1.37-2.37-1.44-.45-.14-1.36-.76-1.87-1.13-1.5-1.15-2.87-2.07-4.33-3.21-1.48-1.15-3.09-2.09-4.55-3.32-.58-.47-1.24-1-1.84-1.54-.58-.55-1.11-1.1-1.48-1.56-.85-1.08-1.81-1.97-2.74-2.88-.93-.92-1.93-1.75-2.72-2.82-.68-.89-1.41-1.78-2.15-2.67-.71-.91-1.42-1.84-2.13-2.75-.86-1.05-1.59-2.18-2.42-3.2-.83-1.03-1.6-2.05-2.41-3-.45-.51-.88-1.12-1.31-1.78-.39-.67-.77-1.39-1.14-2.08-.21-.38-.54-.99-.92-1.69-.38-.71-.77-1.54-1.17-2.33-.38-.8-.77-1.57-1.05-2.2-.27-.64-.46-1.13-.52-1.34-.27-.88-.59-1.76-.96-2.65-.33-.9-.68-1.81-1.06-2.72-.8-1.8-1.47-3.68-2.15-5.49-.6-1.81-1.31-3.54-1.82-5.38-.35-1.45-.53-2.96-.82-4.46-.16-1-.74-2.14-.59-3.03.17-1.12.09-2.07-.28-3.77-.49-2.02-.96-3.88-.99-6.49.03-1.75-.24-3.59-.12-5.61.22-2.15.27-4.68.39-6.9.04-1.41.22-2.73.49-4.01.26-1.28.44-2.53.58-3.82.13-1.23.34-2.35.59-3.43.21-.92.51-1.8.77-2.72.04-.16.09-.31.13-.47.52-2.06,1.21-4.05,1.73-6.08.31-1,.62-2,.9-3l.4-1.51.43-1.49c.27-.99.58-1.98.91-2.98.37-.97.78-1.94,1.21-2.91.41-.97.89-1.92,1.42-2.83.52-.92,1.04-1.84,1.62-2.72.87-1.26,1.67-2.54,2.47-3.82.86-1.26,1.66-2.57,2.52-3.89,2.34-3.53,4.93-7.03,7.98-9.84.88-.82,1.52-1.63,2.26-2.48,3.02-3.4,6.36-6.53,10.06-9.13.98-.7,1.99-1.36,3.03-1.97.75-.43,1.53-.99,2.35-1.53s1.65-1.1,2.44-1.62c1.57-1.09,3.15-2.07,4.73-3.13,3.73-1.5,7.65-3.76,11.55-4.75.78-.22,1.33-.43,2.04-.75.93-.43,1.97-.94,2.99-1.27,5.14-1.55,10.42-3.13,15.77-3.38,1.1-.18,2.2-.41,3.31-.56,1.12-.14,2.23-.27,3.36-.38,1.92-.19,3.88-.18,5.82-.27,1.95.05,3.88,0,5.78.06,1.16.04,2.27.1,3.38.17,1.1.09,2.2.27,3.35.42,6.14.9,12.25,2.28,18.14,4.31,5.88,2.02,11.57,4.63,16.92,7.79l1.24.74,1.19.82c.78.55,1.56,1.1,2.34,1.65,1.23.94,2.49,1.93,3.74,2.63,1.26.77,2.5,1.65,3.73,2.56,1.19.95,2.36,1.97,3.55,2.98,3.32,3.03,6.45,6.24,9.36,9.66,2.85,3.46,5.52,7.08,7.91,10.88.82,1.32,1.5,2.67,2.21,4.01.67,1.36,1.3,2.75,2.08,4.15.58,1.14,1.15,2.36,1.69,3.6.55,1.22.93,2.52,1.28,3.75,2.69,6.89,4.5,14.12,5.46,21.45.34,2.31.49,4.64.64,6.96.08,1.23-.07,2.28-.28,2.97Z"/>
  <g>
    <polygon class="cls-4" points="112.44 160.02 107.16 160.4 102.29 158.84 97.75 156.73 95.21 160.56 89.91 158.37 84.39 157.22 82.96 153.72 78.16 154.52 73.4 155.56 68.67 156.78 63.77 157.04 60.71 160.26 58.57 164.21 55.73 167.61 52.36 170.72 52.16 176.39 50.41 181.72 52.53 185.82 55.21 189.49 58.32 192.88 60.75 196.59 65.69 195.96 70.72 195.07 75.91 195.15 80.07 196.84 83.93 198.79 82.57 205.75 87.16 209.76 91.5 213.76 91.65 218.02 87.98 223.37 89.51 226.64 93.47 232.02 92.87 237.53 95.98 240.02 96.71 244.82 100.51 244.28 104.16 244.03 106.62 240.83 109.24 237.74 112.35 234.93 115.64 234.62 114.77 228.34 118.14 225.15 122.38 222.64 122.44 218.04 121.83 213.67 121.71 208.97 126.49 205.6 130.49 201.76 134.48 198.01 136.55 193.95 137.48 189.29 133.56 188.9 130.33 188.95 126.76 185.39 123.73 182.93 121.39 179.92 118.8 175.33 117.23 170.18 115.8 164.98 112.44 160.02"/>
    <g>
      <polygon class="cls-4" points="90.92 149.64 93.08 148.24 93.27 148.59 90.92 149.64"/>
      <path class="cls-4" d="M186.39,182.23c0,1.99-.06,3.97-.2,5.93l-2.59-1.43-2.39-3.16-2.83-3.6-1.97-3.16-.81-2.94-3.01-3.65-2.74,4.08-.9,4.42-1.95,4.64.43,5.03-3.46,3.85.26-5.78-2.39-4.15-.58-4.53.03-3.83-1.28-2.86-2.91-.87-3.71-4.49-3.69-1.83-4.28,1.24-4.59.28-2.44-5.18-4.45-1.41-1.71,5.07,3.46,3.07,3.81,1.27,2.86-.99,5.02,5.76-4.99,4.07-4.85,3.09-3.14,1.86-3.14,2.74-2.72-2.97-.78-5.14-2.81-4.29-3.78-3.82-1.85-5.66-3.38,1.88-1.72-2.12-2.12-2.61-.14-.17,4.09-2.27.77-3.16-3.77-2.24-4.2.82-3.92-1.98,2.65-3.94,4.69-2.75,4.19.46,3.94.59,3.39-1.13-.99-3.03-6.33-.95,1.91-4.68-4.56,1.97-2.5.63-3.01,5.33-2.6,1.6-4.41-.5,1.02,3.63-4.23-2.51-3.68-2.39-2.66-3.97-2.3,1.46,2.08,4.02,2.56,2.7-1.01.66-1.84-3.38-3.41-2.27-4.6-3.07-6.29,3.12-2.56,3.76-3.22,3.21-3.34,1.97-4.92-1.8v-4.89s2.64-4.46,2.64-4.46l3.73-.24,2.61-.97-.4-4.32,3.63-.65,3.25-2.27,4.52-3.5,1.21-2.43.11-2.37,1.28-.63,2.97,3.46,4.52.71,5.95.67,1.38-4.93,4.08-1.84,1.28-3.43-2.99-.07-3.62-.27-.43-2.39,2.52-2.73h-1.98s-4.3,1.22-4.3,1.22l-2.06,4.11,2.33,2.73-4.31,3.36-2.96-2.24-3.94-2.19.53-2.5,3.89-4,5.23-2.55,3.37-5.35,4.57.95,3.53,2.58,3.95,1.35-1.49,1.63,3.75,2.56,3.88-1.91,3.16-2.9,6.58-1.27-3.27-4.83,1.57-.91-3.62-2.58,1.92-1.43,4.16,2.21,4.35,1.37,5.02-.87,3.83,3.16,4.51.89.65-.15c25.5,16.38,42.4,45,42.4,77.56Z"/>
    </g>
    <path class="cls-4" d="M39.84,256.51c-20.91-15.35-35.09-39.32-37.32-66.66l1.91-2.13,4.02,1.9,3.42,2.43.73,3.78,6.21,2.78.19,6.66,4.28,1.36,4.1,2.66,3.18,3.18,3.44,2.97-2.55,3.09.65,3.78.48,3.78-1.9,5.98,2.09,3.79,1.69,4.03-.68,6.72,1.84,4.19,3.66,3.1.56,2.61Z"/>
    <path class="cls-4" d="M35.68,121.11l-3.04,2.69.45,4.02-.03,4.06-3.5,2.68-1.72-1.34-4.71-1.84-1.91,4.71-1.21,4.78-5.19,3.7-1.85,4.02-1.04,4.53-1.81,4.31-3.14,1.23-1.09.43-3.04,1.98c.04-.16.09-.31.13-.47.52-2.06,1.21-4.05,1.73-6.08.31-1,.62-2,.9-3l.4-1.51.43-1.49c.27-.99.58-1.98.91-2.98.37-.97.78-1.94,1.21-2.91.41-.97.89-1.92,1.42-2.83.52-.92,1.04-1.84,1.62-2.72.87-1.26,1.67-2.54,2.47-3.82.86-1.26,1.66-2.57,2.52-3.89,2.34-3.53,4.93-7.03,7.98-9.84.88-.82,1.52-1.63,2.26-2.48,3.02-3.4,6.36-6.53,10.06-9.13l.19,1.34.52,2.46.4,1.87.54,4.47-2.86,3.05Z"/>
    <polygon class="cls-4" points="53.45 101.32 49.54 106.65 45.67 110.8 46.25 115.81 48.04 118.79 52.68 115.46 56.86 111.52 60.83 110.57 64.49 108.94 67.82 106.56 71.14 104.11 74.41 102.06 77.49 99.64 74.68 95.46 70.37 96.48 66.11 98.22 60.13 99.73 53.45 101.32"/>
    <polygon class="cls-4" points="68.77 111.15 64.04 112.75 68.24 113.81 68.77 111.15"/>
    <polygon class="cls-4" points="69.3 125.59 64.56 127.69 64.86 131.32 67.99 130.07 69.3 125.59"/>
    <polygon class="cls-4" points="71.71 129.48 73.21 125.86 72.53 123.51 73.75 120.35 75.88 122.18 75.34 124.55 75.24 126.68 77.11 128.51 77.17 130.38 71.71 129.48"/>
    <polygon class="cls-4" points="115.45 103.08 112.18 99.38 108.45 100.72 112.59 104.61 115.45 103.08"/>
    <polygon class="cls-4" points="132.46 221.11 130.74 225 126.99 225.11 125.94 228.59 128.22 228.83 126.95 231.64 130.65 232.2 131.25 228.33 134.58 225.58 134.81 221.46 132.46 221.11"/>
    <polygon class="cls-4" points="179.98 193.72 177.17 196.08 178.06 202.08 182.1 199.51 180.68 195.84 179.98 193.72"/>
    <polygon class="cls-4" points="168.99 189.86 167.08 191.14 166.63 193.49 169.42 193.46 169.84 191.99 168.99 189.86"/>
    <polygon class="cls-4" points="175.05 187.7 174.61 191.12 177.4 190.05 177.2 187.88 175.05 187.7"/>
  </g>
  <path class="cls-1" d="M186.39,182.23c0,1.99-.06,3.97-.2,5.93-3.04,48.1-43.02,86.17-91.89,86.17-20.38,0-39.2-6.62-54.45-17.82h-.01c-20.91-15.35-35.09-39.32-37.32-66.66-.22-2.51-.32-5.06-.32-7.62,0-7.78.96-15.33,2.79-22.55h0c5.02-19.98,16.57-37.35,32.24-49.74,15.69-12.41,35.51-19.81,57.07-19.81,18.3,0,35.35,5.34,49.69,14.54,25.5,16.38,42.4,45,42.4,77.56Z"/>
  <g>
    <path class="cls-2" d="M91.49,98.78c14.68,1.51,25.85-1.1,33.49-7.83,7.67-6.72,12.09-15.91,13.29-27.57,1.2-11.66-1.26-21.55-7.4-29.7-6.13-8.15-16.39-12.95-30.77-14.43-14.38-1.48-25.76,1.11-33.28,7.85-7.51,6.73-11.87,15.93-13.07,27.6-1.2,11.66,1.2,21.54,7.19,29.68,5.99,8.12,16.18,12.93,30.54,14.41"/>
    <path class="cls-4" d="M101.06,15.68c-1.45-6.73-5.77-15.41-17.63-15.68.37,4.74,2.89,15.85,15.95,19.42-.22.65-.38,1.25-.5,1.78l-.07.33v.07c-.13.76.38,1.49,1.15,1.65.77.15,1.51-.32,1.7-1.07l.02-.07.06-.29c.69-3.07,3.07-8.63,8.89-10.68l.29-.1.07-.03c.72-.28,1.11-1.07.87-1.82-.24-.74-1.02-1.16-1.77-.96l-.07.02-.36.12c-4.23,1.49-6.93,4.42-8.6,7.31Z"/>
    <ellipse class="cls-3" cx="98.33" cy="50.99" rx="2.83" ry="2.12" transform="translate(38.66 144.31) rotate(-84.81)"/>
    <ellipse class="cls-3" cx="81.85" cy="49.53" rx="2.83" ry="2.12" transform="translate(25.13 126.57) rotate(-84.81)"/>
    <path class="cls-3" d="M83.95,64.56c.37.39,2.46,1.31,3.01,1.42,1.52.31,4.65.12,6.19-.09.75-.1,2.41-.76,2.85-1.38,1.17-1.63-.66-1.67-1.95-1.55-1.04.1-1.53.61-2.4.8-.49.11-3.05.08-3.63.02-1.26-.14-2.59-1.39-3.45-1.37-1.41.04-1.44,1.27-.63,2.14h0Z"/>
  </g>
</svg>