<?xml version="1.0" encoding="UTF-8"?>
<svg id="illuer_blå_bg" xmlns="http://www.w3.org/2000/svg" viewBox="0 0 265.04 271.03">
  <defs>
    <style>
      .cls-1 {
        fill: #ff9400;
      }

      .cls-2 {
        fill: #0354f0;
      }

      .cls-3 {
        fill: #ffe6c4;
      }
    </style>
  </defs>
  <path class="cls-3" d="M224.95,114.33c-.89.53-1.62,1.2-2.64,1.39-.47.08-.75.66-1.31.62-.34-.03-.62.22-.98.22-.46,0-.72.19-1.1.54-.24.18-.36.34-.91.63-.44.19-.71.21-1.12.57-.36.32-1.18.26-1.58.56-.82.6-1.6.53-2.42,1.4-.77.64-1.73.72-2.47,1.02-.99.31-1.99.6-2.99.88-.24.07-.5.04-.74.03-.52-.01-.97.11-1.43.38-.87.48-3.71.69-4.09.92-.52.35-4.88,1.21-5.25,1.21-.25,0-.48-.07-.64.1-.41-.12-.95.22-1.3.04-.81-.02-1.1-.04-2.04.1-.9.14-1.91-.62-2.73-.3-1.78.09-2.89.2-3.14.31-.45.2-.67-.12-1.12.05-.63.23-1.86-.35-2.02-.12-.17.25-.56.16-.81.36-.53.44-1.22.32-1.87.04-.34-.15-.73.27-1.01.08-.51-.35-1.08-.53-1.75-.55-1.41-.12-2.83-.15-4.25-.35-.89-.12-1.82-.17-2.59-.63-1.35-.18-1.99-.38-2.55-.4-.38.05-.64-.02-1.05-.13-.46-.13-.88-.24-1.43-.19-.2,0-.37.02-.52.02-.15,0-.31.03-.34-.07-.11-.14-.19-.26-.26-.42-.07-.16-.14-.35-.22-.63-.07-.26-.17-.6-.3-1.07.08-.26.06-.97-.2-1.11-.05-.65-.3-1.19-.29-1.25.1-1.08-.43-.71-.28-1.85-.21-.55-.19-.81-.64-1.05-.24-.16-.39-.58-.4-1.04v-.04c.24-.4.29-.71.31-1.14-.1-1.17.89-2.1.83-3.23.28-.56.23-1.23.45-1.82.35-.95.61-1.92,1.27-2.71.17-.21.22-.73.19-1.06-.05-.56.49-.86.46-1.39-.02-.31.08-.52.23-.69.15-.18.32-.25.53-.6.31-.47.56-.82.64-1.59.06-.58.21-1.18.4-1.7.48.13.99.28,1.47.4.54.13,1,.31,1.46.49.23.09.44.16.66.22.19.05.3.04.46.01.82-.16,1.59.43,2.39.12.51-.2.81.18,1.32.13.43.58,1.11.74,1.9.7.84-.07,1.63-.31,2.52-.02.28.1.69-.12,1.05-.19.35-.07.72-.15,1.07-.15.74,0,1.38.5,2.15.33.71-.15,1.24-.1,1.95-.25.47-.08,1.38.05,1.87-.01,1.11-.15,1.92-.82,2.97-.48.48-.08,1.01-.05,1.39-.38.47-.42,1.01-.55,1.66-.42.12.03.28.06.36,0,.64-.37,1.27-.7,2.05-.56.57-.22,1.13-.34,1.76-.35.6-.04,1-.69,1.66-.67.53.01.93-.21,1.32-.49.39-.3.86-.39,1.36-.48.34-.06.76-.12,1.02-.31.76-.54,1.55-.98,2.38-1.32.84-.32,1.66-.69,2.58-.88.68-.15,1.22-.55,1.86-.89.44-.43.83-.49,1.24-.37.21.06.31-.12.39-.4.33-.43.74-.59,1.13-.7.19-.05.38-.1.54-.14.08-.02.15-.05.22-.08.05-.02.04-.02.05-.05.05-.23,0-.29.24-.3l.09-.03c.11-.03.13-.2,0-.25-.04-.01-.07-.03-.1-.05-.03-.01-.05-.02-.09-.11-.08-.15-.13-.3-.17-.45-.08-.31-.12-.63-.13-.99,0-.48-.04-.95-.14-1.4-.09-.46-.24-.9-.5-1.33-.36-.7-.42-1.59-.38-2.44,0-1.12.52-2.15.33-3.3-.01-.12.04-.29.1-.41.35-.71.62-1.41.88-2.11.11-.35.2-.72.26-1.09.08-.37.16-.74.2-1.15.04-.35.28-.86.52-1.14.95-.92,1.58-1.88,2.06-3.07.08-.23.3-.53.49-.66.8-.58,1.57-1.13,2.24-1.83.18-.19.48-.49.82-.69.34-.21.71-.37,1.1-.46.19-.05.39-.08.59-.1l.38-.05.71-.08c.79-.06,1.62-.07,2.51.08.88.15,1.83.47,2.67,1.12.45.35.82.74,1.25,1.14.61.52.98,1.23,1.18,1.93.18.71.19,1.44.05,1.98-.16.71-.18,1.43-.1,2.18.14,1.25-.36,2.62-1.39,3.53-.46.4-.96.84-1.43,1.24-.58.52-1.23.89-1.88,1.19-.21.1-.21.11-.28.15-.05.01-.16.12-.25.19-.18.14-.36.38-.51.59-.63.96-1.62,1.71-2.22,2.77-.35.63-.44,1.38-.97,1.89-.55.51-.76,1.17-1,1.8-.18.54-.67.86-.94,1.11-.04.03-.1.08-.17.09-.05,0-.13,0-.21,0-.17.02-.39.08-.59.15-.41.13-.86.19-1.05-.24-.04-.08-.17-.45-.1-.55-.08-.37.16-1.99.8-3.04.34-.58.65-1.18,1.15-1.59.41-.34.68-.74.8-1.26.15-.62.51-1.23,1-1.66.83-.69,1.53-1.44,2.47-2.19.19-.17.63-.43.8-.53.2-.11.4-.22.59-.34.39-.23.72-.51,1.05-.79.39-.35.73-.74,1.01-1.19.11-.17.31-.33.34-.52.16-1.07.15-2.21.07-3.35-.11-1.01-.51-1.84-1.3-2.15-.47-.19-.84-.31-1.44-.22-.49.07-.95.09-1.5.08-.29,0-.59,0-.92,0-.24,0-.21-.01-.31,0-.07,0-.14.01-.22.05-.12-.04-.21-.03-.39.08-.2.12-.4.25-.61.35-.33.16-.59.4-.78.71-.42.73-.82,1.45-1.31,2.11-.38.73-.84,1.42-1.1,2.18-.24.41-.5.87-.73,1.34-.18.49-.34.98-.48,1.43-.23.9-.29,1.63-.26,1.75-.1.56-.22,1.13-.37,1.69-.07.46-.19.9-.27,1.37-.06.61.06,1.2.39,1.68.37.49.46,1.02.39,1.62-.09.54-.06,1.06.07,1.56.03.13.07.25.12.37.06.15.14.37.24.57.18.4.45.82.74,1.27.21.33.43.67.62,1.01-.49.45-1.22.87-1.91,1.26-.35.19-.71.37-1.07.54-.23.09-.45.16-.69.22-1.01.26-1.85.81-2.56,1.61-.53.57-1.27.85-2.04,1-.37.07-.85.11-1.07.31-.26.23-.72.47-1.13.67-.42.19-.79.32-.84.41-.09.17-.45.27-.66.34-.61.19-1.13.37-1.71.61-.59.24-1.07.72-1.66.97-.47.2-1.06.44-1.48.39-1-.11-1.66.64-2.55.76-.76.07-1.54.23-2.3.41-.9.19-1.74.5-2.5.98-.41.27-.98.31-1.51.35-.59.05-2.52.34-2.83.22-1.28-.36-2.61.19-3.91.32-.64.08-1.26.32-1.9.37-.5.05-1.02-.12-1.53-.15-.34-.02-.76.35-1.04.05-.36-.39-.68-.42-1.27-.26-.7.18-1.36.49-2.23.27-.58-.14-1.23.06-1.89-.17-.71-.24-1.56-.34-2.32-.36-.97,0-1.73-.6-2.63-.58-.22,0-.42-.01-.61-.05-.12-.02-.14-.03-.16-.04-.03-.01-.06-.03-.09-.05-.1-.08-.3-.2-.39-.28-.08-.06-.16-.1-.25-.15-.1.07-.15.28-.16.46.05.01-.09.77-.08,1.3-.02,1.4-.44,2.74-1.19,3.93-.55.87-.88,1.79-1.16,2.78-.18.67-.36,1.35-.59,2.01-.11.33-.24.65-.39.97l-.12.23-.06.11s-.02.02-.03.02l-.17.11-.04.03c-.02.05,0,.1.04.15l.06.06.11.22c.38.87.73,1.75.99,2.65.13.45.24.91.32,1.37.07.43.17,1.08.06,1.13-.04.12-.03.27.02.36.11.03.26.04.38.05.07,0,.11,0,.2,0l.45.02.91.03c1.17.65,2.64.59,3.85,1.17.25.12.44.16.69.11.34-.07.73-.15,1.07-.11.86.12,1.73.12,2.6.17.87.04,1.73.07,2.57.36l2.18-.2c1.24-.09,2.51,0,3.72-.21.74-.14,1.41-.17,2.15-.18,1.99.04,3.96-.29,5.94-.49,1.97-.22,3.92-.65,5.88-.94.6-.11,1.22-.18,1.83-.23.5-.04,1.02-.1,1.42-.36.84-.54,1.8-.73,2.74-1.05l4.05-1.37,1.01-.35.98-.42,1.96-.85c.9-.39,1.87-.47,2.78-.93.7-.42,1.49-.85,2.35-.94l3.17-1.57c1.06-.53,2.04-1.19,3.07-1.77l1.93-1.12c.34-.19.7-.24,1.02-.15.43.02.35-.45,1.17.43.14.07.26.93.18,1.08-.52,1.01-1.39,1.12-2.28,1.98-.61.59-1.59,1.05-2.33,1.56Z"/>
  <path class="cls-3" d="M219.34,96.6c-.17.94.04,1.87-.39,2.73-.19.39.13.92-.21,1.32-.21.25-.17.59-.36.86-.25.34-.26.67-.15,1.1.03.23.09.37.15.82.04.34.02.56.3.86.24.23.18.86.5,1.08.31.2.5.42.75.6.24.17.54.33.96.21.34,0,.57,0,.92.06.41.06.8.14,1.17.18.94.14,1.88.3,2.81.48.22.04.43.17.63.29.43.25.86.27,1.35.19.91-.13,3.4.71,3.81.63.56-.11,4.6.34,4.93.46.22.08.4.21.59.09.33.21.89.01,1.16.27.71.21.97.31,1.83.4.83.09,1.57,1.07,2.38.89,1.63.25,2.66.35,2.91.29.44-.11.59.23,1.03.12.61-.15,1.65.59,1.83.39.17-.24.43-.1.6-.32.34-.43.69-.39,1.19-.31.27.03.28-.46.52-.4.45.11.9-.07,1.18-.45.31-.4.52-.87.63-1.36.09-.42.16-1.19.25-1.81.11-.82.18-1.67.59-2.39.13-1.25.29-1.84.26-2.36-.18-.65.26-1.21-.02-1.81-.39-.84-.33-.65-.14-1.78.18-.19.45-.79.28-1.02.23-.57.22-1.12.25-1.17.53-.87-.1-.78.51-1.68.03-.53.16-.8-.16-1.1-.17-.15-.16-.37,0-.61.15-.22.13-.42.05-.67-.32-1,.5-2.06.24-3.07.17-.56,0-1.17.11-1.74.17-.93.26-1.87.77-2.7.13-.22.08-.71,0-1.01-.15-.51.33-.86.2-1.35-.15-.57.26-.83.5-1.18.19-.28.36-.55.25-.96-.16-.57.04-1.16.08-1.74.05-.6.51-1.11.37-1.68-.2-.79.37-1.55.08-2.32-.19-.5.17-.78.14-1.27.6-.39.79-1.03.78-1.78,0-.8-.16-1.59.2-2.4.11-.25-.05-.68-.07-1.02-.02-.35-.05-.7,0-1.04.11-.71.67-1.24.66-1.98,0-.69.14-1.19.13-1.88,0-.47.35-1.28.42-1.75.15-1.05-.35-2,.31-2.87.07-.46.26-.93.06-1.38-.25-.56-.21-1.1.11-1.65.06-.1.14-.23.13-.32-.11-.7-.18-1.39.24-2.03,0-.59.1-1.14.32-1.69.21-.53-.18-1.16.11-1.7.2-.26.11-.56-.07-.78-.2-.23-.23-.45-.25-.74-.01-.2-.06-.45-.22-.55-.48-.27-.9-.43-1.31-.58-.1-.05-.21-.07-.31-.12-.13-.03-.15-.07-.42-.13-.42-.11-.85-.26-1.27-.43-.63-.26-1.26-.23-1.97-.31-.59.12-.93-.08-1.17-.44-.12-.18-.31-.1-.53.07-1,.26-1.66-.54-2.15-.47-.7.1-1.38.09-2.05-.29-.27-.16-.72-.3-.99-.24-.62.15-1.1.03-1.67-.2-.76-.32-1.57-.45-2.4-.18-.67.22-1.39.07-2.1-.04-.91-.14-1.76-.67-2.74-.46-.1.02-.25-.02-.34-.07-1.2-.6-2.42-.83-3.75-.51-.29.07-.74,0-1.03-.15-.49-.24-.98-.42-1.49-.51-.25-.04-.51-.07-.77-.06-.17.03-.32.08-.46.2-.1.07-.25.11-.36.05-.46-.19-1.01-.07-1.39.25-.4.31-.65.76-.81,1.21-.07.18-.11.36-.14.55l-.15.9c-.11.64-.24,1.28-.42,1.91-.1.34-.2.65-.15,1.02.13.96-.05,1.88-.46,2.75-.26.55-.35,1.14-.25,1.72.17.97,0,1.86-.43,2.73-.2.41-.37.88-.42,1.34-.14,1.17-.59,2.3-.57,3.49.02,1.2-.48,2.31-.54,3.49-.03.7.21,1.41-.09,2.08-.3.67-.28,1.36-.31,2.06-.03.62-.42,1.08-.72,1.55-.32.52-1.72.48-2.03-.03-.02-.03-.19-.32-.13-.39-.08-.24-.27-1.59-.09-2.66.1-.59.15-1.18.43-1.71.23-.43.29-.87.17-1.34-.15-.57-.13-1.2.08-1.74.69-1.78.87-3.68,1.21-5.55.11-.58.23-1.16.36-1.73.05-.22.21-.45.2-.65-.11-2.38.5-4.72.65-7.08.05-.71.12-1.16.05-1.87-.02-.31-.04-.53,0-.87.04-.36.14-.72.28-1.08.29-.71.75-1.45,1.51-2.19.49-.28,1.03-.6,1.56-.75.43-.11.79-.26,1.17-.47.43-.26.93-.41,1.45-.5.26-.03.52-.06.79-.06.27,0,.55.02.73.04.83.07,1.65.17,2.48.2,1.91.5,4.59.8,4.85.72.58.1,1.15.27,1.71.43.45.13.88.31,1.33.45.59.17,1.17.18,1.72-.02.57-.21,1.14-.17,1.68.12.96.52,1.96.7,3.05.48,1.08-.22,2.09-.03,3.08.44.87.41,1.78.54,2.74.3.7-.18,1.39,0,2.05.3.31.14.69.38.96.34.33-.04.71-.01,1.32.12.54.13.99.32,1.1.31.23-.05.62.21.84.35.64.46,1.13.94,1.62,1.52.49.59,1.07,1.16,1.39,1.93.27.59.43,1.43.26,1.93-.41,1.26-.09,1.91-.34,2.72-.23.66-.35,1.37-.46,2.07-.13.82-.19,1.64.05,2.44.13.43,0,.93-.12,1.39-.14.52-.44,2.26-.59,2.5-.64,1.03-.5,2.33-.58,3.51-.04.58.08,1.18.02,1.75-.05.45-.3.88-.39,1.34-.06.31.25.73-.09.94-.43.27-.51.55-.43,1.1.09.65.37,1.28.08,2.04-.2.51-.04,1.1-.28,1.69-.26.63-.42,1.39-.42,2.07,0,.87-.59,1.55-.52,2.36.07.78-.27,1.36-.47,2.03-.37,1.26-.56,2.53-.32,3.84.23,1.3.06,2.6-.47,3.81-.38.88-.55,1.78-.64,2.74-.12,1.29-.19,2.62-.78,3.81-.17.35-.1.68-.1,1.02-.03,1.78-.17,3.53-.92,5.19-.23.5-.26,1.15-.31,1.73-.04.58.02,1.17.03,1.76-.59,1.15-.47,2.57-1.06,3.72-.12.23-.16.41-.11.66.07.33.16.7.09,1.02-.14.95-.47,2.13-1.1,3.04-.62.93-1.56,1.67-2.64,1.9-.77.46-1.67.8-2.62.84-.2.02-.41.01-.61,0-.21-.01-.41-.03-.54-.05l-.89-.11c-.59-.07-1.18-.13-1.77-.13-.72,0-1.36-.1-2.05-.24-1.86-.36-3.76-.6-5.64-.88l-5.64-.86c-.58-.09-1.15-.27-1.71-.45-.46-.15-.94-.28-1.39-.19-.94.18-1.87.05-2.82-.07l-4.07-.52-.51-.06c-.19-.03-.48-.08-.71-.13-.49-.11-.97-.28-1.43-.49-.92-.43-1.74-1.06-2.41-1.83-.46-.53-.77-1.17-.97-1.81-.22-.65-.34-1.32-.46-2.02-.11-.56-.1-1.18,0-1.76.08-.4.2-.8.4-1.16l.98-6.7.33-2.11c.06-.37.25-.66.51-.84.28-.3-.13-.54,1.06-.56.15-.05.88.4.95.55.47,1,.01,1.67.13,2.82.08.79-.16,1.75-.22,2.58Z"/>
  <path class="cls-3" d="M263.19,75.24c.6.45,1.36.86,1.43,1.65.02.33.53.54.35.96-.11.24.02.46-.09.7-.17.3-.09.48.06.81.06.19.14.32.11.74-.03.33-.14.48-.07.88.06.37-.47.72-.53,1.06-.14.73-.71.87-.88,1.74-.3.67-.94.93-1.39,1.23-.62.35-1.27.6-1.94.77-.16.04-.34,0-.5-.05-.36-.09-.63.01-.93.21-.16.11-.43.16-.74.19l-.76-2.79c.9-.41,2.07-.25,2.29-.32.22-.11,1.19-.13,2.09.21.91.31,1.66.98,1.74,1.11.11.17.14.38.36.39.07.33.55.55.48.89.18.58.21.79.44,1.4.22.62-.55,1.34-.22,1.8.1,1.08.02,1.85.07,2.05.09.37-.24.42-.21.8.02.27-.24.57-.49.76-.25.2-.48.31-.43.43.1.26-.17.39-.17.65,0,.57-.5.81-.99.81-.33.04-.04.38-.22.27-.3-.21-.61-.22-.78-.14l-.37.18c-.22.1-.42.18-.64.24-.23.07-.3.12-1.33.11-.07.03-.15.05-.22.06-.07.01,0,0,.03,0,.04,0,.08,0,.11,0,.19,0,.34,0,.48.01.84.04.25.01,1.18.08.45.03.68.05.84.06.19.01.16.01.25.05-.22,0-.32.07,0,.07-.07.07.14.13.12.14-.04.03-.06.07-.07.09,0,.07.08.07.13.09.01-.01.07.07.01.01.02.07.07.26.06.46.25.44.21.71.62.84.21.07.27.28.17.53-.09.22-.04.38.08.57.24.39.14.82.03,1.23-.13.41-.28.8-.21,1.22-.22.4-.16.94-.4,1.34-.37.66-.77,1.33-1.52,1.59-.19.07-.34.42-.42.66-.12.43-.66.31-.8.69-.21.43-.62.28-.97.26-.28-.01-.51-.02-.7.25-.11.19-.4.36-.68.45-.29.1-.58.2-.87.27-.24.06-.47.06-.68.05-.32-.09-.6-.15-.94-.06-.14.04-.31.01-.4-.04-.08-.04-.08-.08-.11-.13,0-.06-.1-.1-.17-.26l.08-.14.04-.07.02-.03h0s.63-1.25.63-1.25h0s0,0,0,0h0s0,.01,0,.01c-.03.05-.05.11-.06.17-.03.13-.08.35-.06.52l1.67-.59c0,.11.01.23.08.35.19.34-.16.46-.14.77-.59.16-.78.52-.77.99,0,.5.16,1.01-.19,1.46-.08.1-.02.26.02.42l.03-.17c.01.16.03.26.03.36,0,.31,0,.6-.1.87-.21.57-.85.77-1.05,1.31-.21.5-.5.79-.82,1.25-.19.35-.9.57-1.19.79-.35.2-.61.54-.91.79-.3.22-.65.38-1.08.24-.34.08-.72.03-.98.35-.34.43-.75.45-1.2.26-.08-.04-.19-.1-.25-.07-.49.25-.98.35-1.46.01-.43.07-.8-.02-1.17-.22-.35-.2-.82.23-1.18-.07-.28-.25-.57-.24-.91-.17-.34.07-.64-.04-.92-.22-.17-.13-.35-.29-.55-.27-1.1.09-2.03-.1-2.93-.76-.33-.25-.72-.2-1.13-.26-.36.13-.54-.06-.65-.4-.06-.18-.18-.09-.32.09-.62.29-.95-.46-1.25-.36-.42.14-.83.17-1.21-.16-.16-.14-.42-.25-.58-.17-.37.19-.66.12-1-.07-.45-.26-.94-.31-1.43.04-.4.29-.83.2-1.25.17-.54-.05-1.06-.48-1.63-.14-.06.03-.15.01-.2-.03-.15-.09-.29-.16-.44-.22-.07-.03-.14-.05-.22-.07-.06-.02-.26-.04-.38-.05l-.3-.07c-.1-.02-.12-.02-.19-.03-.11-.01-.23-.02-.35,0-.24.02-.48.08-.74.19-.19.08-.46.02-.62-.11-.57-.44-1.15-.65-1.85-.35-.13.05-.32.04-.42-.05-.86-.71-1.91-.67-2.9-.81-.42-.06-.66-.1-1.53-.27-.35-.09-.66-.24-.97-.37-.25-.25-.47-.52-.64-.83-.18-.34-.32-.65-.56-.96-.38-.45-.52-.74-.62-1.11-.08-.36-.1-.73,0-1.09.09-.46.07-.86-.15-1.25-.34-.65-.3-1.32.05-1.92.15-.29.28-.6.31-.9.06-.79.49-1.49.46-2.27,0-.79.5-1.44.62-2.18.05-.34-.05-.71.04-1.04l1.06.12c-.12-.1-.24-.14-.48-.23-.12-.03-.24-.06-.35-.09.01,0,.03.01.04,0,.02-.03.02-.06.01-.12-.01-.1-.07-.24-.12-.38-.1-.25.16-.56.31-.88.16-.32,1.44-.89,1.89-.7.03.01.28.12.25.18.14.12.77.87.75,1.83-.03.43-.03,1.03-.56,1.62l.17-.33s-.07.07-.1.1c-.24.21-.31.45-.21.77.13.37.08.73-.12,1.02-.69.93-.83,2.06-1.02,3.12l-.18.99c-.03.13-.15.26-.11.38.22.67.32,1.3.45,1.91.08.3.15.59.26.85.09.2.18.33.31.44.13.15.29.15.51.01.11-.05.07-.1.29-.08.17.01.33.05.5.09.34.09.71.23,1.18.36.22.22.5.34.73.53.19.16.38.21.61.16,1.04-.22,2.03.07,3.05.07.27.1.56.19.86.27.15.03.3.07.44.1.1.02.21.04.3.06.12,0,.24,0,.34,0,.14,0,.27-.01.38-.02.22-.01.37-.04.41-.06.37.03.73.13,1.09.23.28.08.56.22.84.3.37.12.73.06,1.07-.19.36-.26.71-.27,1.05-.03.6.44,1.22.54,1.91.26.69-.29,1.33-.14,1.93.27.52.38,1.09.46,1.72.2.47-.19.9-.03,1.28.27.18.14.39.38.57.34.42-.1,1.18.27,1.3.17.12-.1.31,0,.43.05.34.14.64.27.98.37.35.09.79,0,1.09,0,.26.02.57.05.71.27.35.53.88.1,1.27.31.34.19.73.28,1.09.29.22.02.43.02.64-.02.2-.05.39-.19.55-.37.17-.21.42-.14.62-.15.11,0,.37-.01.6-.04.21-.05.42-.08.49-.05.31.14.54.02.74-.12.17-.19.31-.4.42-.61.14-.18.09-.5.19-.67.06-.15.32-.21.41-.37.08-.11-.23-.37.09-.36.39.03.49-.18.35-.26l.04-.19s0,0,0-.01c-.09-.42-.36-.85-.08-1.28.19-.29.04-.68.28-1.01.25-.35.41-.8.41-1.23,0-.2.08-.37.18-.53l1.01-1.7,1.06.16c.15.02.3.05.44.1.11.03.24.08.35.13.12.05.23.12.23.14.09.08.08.09.07.1v.05c-.03.06-.05.11,0,.06.1-.11.11-.08.15,0,.02.05.06.1.1.13.05.03.11.05.18.04.03,0,.06-.01.1-.03.06-.03.13-.06.19-.1.25-.16.44-.42.53-.75.18-.66.48-1,1.06-1.26.43-.19.65-.56.74-.97.11-.55.07-1.09.44-1.56.11-.14-.04-.23-.1-.29-.07-.07-.13-.1-.19-.13h-.02s-.16-.15-.24-.14l-.5-.12-.25-.06c-.1-.02-.13-.05-.32-.05l-.94-.03c-.3-1.34-.25-1.79-.11-1.97.02-.03,0-.07-.03-.09-.06-.05-.2-.08-.3-.09-.16-.03-.35-.03-.46-.01,0,0-.07.03-.1.03l.18-.15c.13-.11.24-.24.55-.36.13-.04.2-.1.16-.17-.04-.11-.15-.26-.09-.41.09-.18.14-.42.14-.75,1.39-.36,2.78-.84,3.98-1.12.34-.29.48-.55.66-.77.3-.38.42-.51.34-.89-.06-.23-.04-.46-.01-.78.06-.93-.19-1.83-.51-2.32-.28-.46-.8-.75-1.41-.85-.18-.03-.36-.12-.56-.18-.16-.05-.35-.06-.41.13l-.03.08-.98-3.57c.38-.29.78-.37,1.17-.5,1.23-.39,2.2-1.12,2.56-1.92.1-.22.45-.34.41-.69-.04-.26-.07-.5.17-.8-.07-.37-.22-.71-.4-.91-.2-.2-.3-.29-.62-.37-.2-.05-.48-.08-.82-.09-.18,0-.35-.14-.48-.37-.2-.22-.28.22-.47-.95-.05-.13.11-.94.19-1.04.55-.63,1.02-.32,1.83-.5.58-.13,1.35.22,1.93.57Z"/>
  <g>
    <path class="cls-1" d="M257.69,54.21l-19.21,21.74c-.95,1.07-2.63,1.01-3.5-.12l-6.05-12.91c-.4-.52.18-1.22.77-.92l7.18,9.25,20.44-17.43c.26-.2.58.15.37.39Z"/>
    <path class="cls-1" d="M256.37,56.8c-.33.34-.43.82-.88,1.02-.2.09-.15.45-.44.48-.18.02-.24.19-.41.22-.23.05-.3.18-.36.42-.06.13-.07.22-.24.44-.14.17-.25.22-.31.48-.05.23-.45.31-.53.54-.16.45-.56.52-.61,1.12-.13.45-.49.69-.7.98-.31.35-.63.69-.95,1.02-.08.08-.2.12-.31.16-.24.09-.36.27-.44.5-.15.45-1.22,1.18-1.28,1.39-.07.29-1.31,1.85-1.45,1.94-.1.06-.22.09-.19.22-.2.06-.22.38-.43.39-.29.22-.41.29-.67.63-.25.32-.98.25-1.08.67-.53.6-.84,1.01-.87,1.14-.05.23-.27.16-.32.39-.06.32-.73.47-.66.63.08.17-.08.26-.05.44.07.37-.18.56-.5.67-.17.06-.05.38-.23.4-.32.03-.57.16-.76.39l-1.21,1.49c-.26.31-.51.64-.91.79-.38.48-.58.67-.8.96-.2.42-.68.41-.94.76-.42.47-.35.45-1.19.44-.16-.11-.58-.3-.75-.21-.39-.2-.75-.35-.78-.38-.21-.29-.33-.34-.45-.41-.12-.06-.28-.18-.38-.56-.24-.37-.21-.5-.49-.5-.14,0-.2-.09-.18-.24.02-.14-.05-.21-.17-.28-.48-.28-.32-.99-.78-1.29-.06-.28-.35-.46-.45-.73-.18-.43-.41-.83-.35-1.34.02-.13-.25-.51-.45-.7-.34-.38-.18-.72-.5-1.08-.4-.47-.21-.67-.16-.87.03-.18.07-.31-.23-.67-.43-.53-.54-.93-.78-1.39-.27-.51.01-.52-.45-1.15-.24-.33-.36-.57-.44-.76-.1-.21-.1-.33-.32-.65-.06-.1-.12-.2-.19-.32-.07-.11-.15-.24-.25-.39-.47-.69-.02-.33-.19-.68.74.68.79.56.6.15-.1-.22-.22-.48-.29-.67-.07-.17-.07-.27.03-.24.06.02-.15-.36-.2-.49-.06-.14-.11-.29-.11-.34,0-.06.09,0,.15,0,.07,0,.04.04.06-.12.04-.29.32-.49.61-.69.1-.06.27-.11.4,0,.14.16.28.33.37.44.37.42.56.36,1.04,1.09.18.19.38.47.5.47.15,0,.38.21.62.59.04.07.1.17.13.19.25.15.53.33.79.8.23.19.45.43.66.75.19.3.48.26.69.63.15.29.33.42.55.52.22.11.4.31.56.56.11.17.23.38.37.47.42.26.83.57,1.19.92.18.18.35.37.49.57.02.07-.04.09-.06.19-.03.14.05.11.07.11,0-.02.01-.04.02-.06.02-.09.02.05.05.26.02.13.04.02.03-.15-.02-.34.15.13.27-.1.16-.32.37-.59.76-.67.16-.03.37-.14.42-.27.11-.31.32-.45.61-.56.39-.15.7-.4.81-.86.09-.37.38-.58.65-.8.35-.29.86-.37,1.05-.86.02-.05.08-.09.14-.1.66-.19,1.14-.55,1.38-1.23.05-.15.23-.29.38-.33.53-.16.95-.43,1.15-.98.04-.1.14-.21.24-.24.84-.23,1.36-.88,1.95-1.43.47-.44.95-.85,1.51-1.18.15-.09.3-.16.38-.33.23-.44.59-.72,1.06-.86.29-.09.52-.28.64-.56.21-.46.56-.73,1.04-.87.22-.06.45-.17.61-.32.43-.39.99-.62,1.34-1.09.36-.48.94-.67,1.32-1.11.23-.26.32-.65.67-.78.35-.12.55-.4.78-.66.05-.06.11-.1.17-.13.02-.01.02,0,.06-.03.08-.05.16-.09.24-.13.17-.07.35-.11.53-.11.79.03,1.18.57,1.26,1.1.04.31-.12.57-.28.65-.17.09-.33.04-.46-.03-.13-.08-.23-.19-.33-.28-.05-.05-.11-.08-.07-.06,0,0,.03.01.03.01.02,0,0,0-.02,0,0,0-.02.02,0,0,.03-.02-.02-.07.05.04h0s0,0,0,0c-.07-.08.59.72.31.38h0s0,0,0,0h0s0,0,0,0v.02s-.04.04-.04.04l-.06.08-.12.16c-.09.11-.18.21-.29.29-.23.18-.43.4-.72.47-.24.06-.4.2-.49.45-.1.3-.3.53-.57.64-.88.37-1.54,1.03-2.27,1.6-.23.18-.46.34-.7.51-.09.06-.24.08-.29.16-.67.99-1.67,1.61-2.46,2.47-.24.26-.41.4-.59.71-.29.51-.74.69-1.36,1.17-.23.04-.44.16-.67.22-.18.05-.31.15-.4.3-.42.73-1.09,1.21-1.61,1.83-.82.51-1.78,1.42-1.82,1.56-.23.18-.48.32-.73.47-.2.11-.42.2-.62.31-.26.15-.44.37-.51.68-.07.32-.26.53-.57.6-.55.13-.94.44-1.16.96-.11.26-.26.47-.45.63-.1.08-.2.15-.32.21-.11.05-.36.21-.53.29-.67.32-1.1.7-1.71,1.56l-.08.1c-.35-.2-.73-.77-1-1.33-.14-.29-.26-.64-.42-.76-.09-.07-.21-.19-.31-.31-.03-.02-.05-.05-.08-.08-.04-.05-.08-.11-.11-.07-.06.07-.07,0-.08-.03-.04-.1-.08-.2-.14-.25-.06-.06-.1.15-.12.19-.02.02-.03.08-.1-.21-.09-.34-.13-.36-.13-.3,0,.06.02.2-.05.02-.13-.3-.21-.43-.28-.53-.08-.11-.12-.1.27.8.21.49.15.35.06.18-.09-.16-.36-.67-.42-.78-.43-.82-.56-1.03-.54-.97.02.05.17.39.22.59.04.19.51.98.58,1.07.04.08-.38-.53-.41-.56-.02-.01.79,1.11.13.21-.82-1.13-.86-1.16-.51-.66.43.61,1.14,1.53.81,1.12-.21-.25.24.31-.02,0-.27-.32-.3-.31-.13-.1.09.11.02.04-.07-.04-.12-.11-.26-.22-.09-.03.27.27-.03.03-.1.04-.15-.02.02.32.41.48.19.07.27.05.28.05-.02-.06.06.13.1.28.04.15.07.31.08.48.04.48.21.9.44,1.31.31.55.67,1.1.68,1.78,0,.2.15.3.25.44.08.12.09.1.12.12.03.01.06.02.08.03.05,0,.15.08.22.11.15.09.29.18.53.35.14.09.32,0,.44-.09.12-.1.18-.26.21-.4.57-.21.88-.9,1.48-1.15.12-.05.19-.12.22-.24.04-.17.08-.36.2-.48.57-.58.9-1.38,1.66-1.76.17-.3.33-.61.53-.88.34-.47.76-.89,1.04-1.4.18-.31.39-.54.63-.79.66-.66,1.25-1.38,1.86-2.07l1.85-2.09c.19-.21.43-.39.67-.55.19-.14.38-.29.45-.52.13-.47.43-.82.73-1.18l2.54-3.1c.29-.36.73-.56.99-.96.21-.32.48-.65.88-.8l2.18-2.49.7-.78c.13-.13.3-.19.49-.15.23-.02.06-.28.73.18.1.04.4.53.4.62.02.61-.4.72-.61,1.26-.15.37-.52.69-.75,1.02Z"/>
  </g>
  <path class="cls-1" d="M99.27,182.56c-27.13,2.79-47.77-2.03-61.89-14.47-14.17-12.41-22.34-29.41-24.55-50.96-2.21-21.55,2.33-39.83,13.68-54.89,11.32-15.06,30.29-23.94,56.87-26.67,26.58-2.73,47.61,2.04,61.5,14.51,13.88,12.44,21.94,29.45,24.16,51,2.21,21.55-2.23,39.82-13.29,54.84-11.06,15-29.89,23.9-56.45,26.62"/>
  <path class="cls-3" d="M81.58,28.98c2.68-12.43,10.67-28.48,32.58-28.98-.69,8.76-5.35,29.3-29.48,35.89.4,1.2.7,2.31.92,3.28l.13.62.02.14c.21,1.41-.73,2.76-2.14,3.04-1.42.28-2.8-.6-3.15-1.98l-.03-.14-.11-.54c-1.27-5.68-5.67-15.95-16.44-19.74l-.54-.18-.13-.05c-1.33-.51-2.05-1.98-1.6-3.36.45-1.37,1.89-2.14,3.27-1.77l.13.04.66.22c7.81,2.75,12.8,8.17,15.89,13.5Z"/>
  <ellipse class="cls-2" cx="86.63" cy="94.23" rx="3.92" ry="5.23" transform="translate(-8.16 8.21) rotate(-5.19)"/>
  <ellipse class="cls-2" cx="117.08" cy="91.53" rx="3.92" ry="5.23" transform="translate(-7.79 10.96) rotate(-5.19)"/>
  <path class="cls-2" d="M113.19,119.3c-.68.73-4.54,2.41-5.57,2.63-2.81.58-8.59.23-11.44-.16-1.38-.19-4.45-1.41-5.27-2.54-2.16-3.01,1.21-3.1,3.6-2.87,1.93.19,2.83,1.13,4.43,1.48.91.2,5.64.15,6.71.03,2.32-.26,4.79-2.57,6.38-2.53,2.61.07,2.66,2.35,1.16,3.96h0Z"/>
  <path class="cls-3" d="M57.82,178.77c-.04.91.29,1.76-.01,2.63-.14.4.26.85-.03,1.27-.18.26-.09.58-.24.86-.21.36-.16.65,0,1.08.05.26.14.42.15.96.01.43-.07.65.11,1.11.16.4-.2,1.04-.08,1.47.24.87-.12,1.48.38,2.42.27.83.11,1.64.15,2.34-.01.91-.04,1.81-.09,2.72-.01.21-.11.43-.2.63-.19.44-.15.85,0,1.3.26.84-.24,3.3-.1,3.68.19.52.3,4.39.22,4.72-.05.21-.16.4,0,.57-.17.34.11.85-.11,1.13-.11.7-.17.95-.14,1.78.03.79-.84,1.62-.56,2.36-.02,1.57.02,2.56.11,2.78.17.4-.15.58.02.99.23.55-.36,1.64-.13,1.78.25.15.15.49.35.71.42.46.33,1.06.08,1.64-.13.3.3.63.12.88-.33.45-.48.97-.47,1.55l.07,3.74c0,.79.04,1.6-.26,2.33.05,1.19-.03,1.77.07,2.26.27.59-.1,1.17.27,1.71.5.74.41.58.38,1.66-.16.2-.34.81-.14.99-.15.57-.06,1.09-.08,1.14-.41.89.2.72-.28,1.65.04.51-.05.78.31,1.01.18.12.21.33.08.57-.12.23-.07.41.04.63.45.9-.21,2.01.19,2.93-.1.55.15,1.11.13,1.66-.04.9,0,1.8-.39,2.65-.1.22.02.68.14.95.1.2.06.4.02.58l-1.95-1.97c.24.06.47.14.72.03.51-.24.82.13,1.18.32.29.15.57.28.94.11.52-.24,1.1-.14,1.65-.18.58-.04,1.12.34,1.64.11.72-.32,1.51.14,2.19-.27.45-.27.76.05,1.22-.05.46.54,1.08.63,1.79.51.76-.13,1.47-.4,2.29-.16.26.07.63-.15.96-.22.32-.07.66-.15.98-.15.68,0,1.26.48,1.96.36.65-.11,1.14-.04,1.79-.15.44-.08,1.25.16,1.71.15,1.01,0,1.84-.65,2.75-.12.44,0,.92.12,1.31-.14.23-.15.46-.24.7-.27l-2.08,1.97c-.02-.28.04-.57.18-.86.05-.1.12-.23.1-.31-.17-.66-.31-1.3.05-1.95-.05-.56,0-1.09.16-1.64.16-.53-.3-1.08-.05-1.64.19-.45.13-.86,0-1.3-.13-.44-.08-.88.04-1.32.09-.31.2-.68.15-.97-.34-1.69-.29-3.32.24-4.98.2-.62.11-1.22.12-1.89-.17-.55,0-.89.33-1.15.17-.13.07-.3-.12-.49-.35-.92.38-1.62.26-2.08-.16-.65-.23-1.31.09-1.97.13-.27.23-.71.14-.96-.21-.57-.14-1.05.04-1.61.25-.75.3-1.53-.05-2.29-.28-.61-.2-1.31-.16-1.99.06-.88.5-1.72.2-2.64-.03-.09,0-.24.04-.33.48-1.19.6-2.37.14-3.61-.1-.27-.06-.71.05-.99.38-.98.53-1.93.17-2.94-.07-.19-.07-.48,0-.66.62-1.5.48-3.11.52-4.67.04-1.25.1-2.49.33-3.71.06-.33.14-.64.05-.98-.22-.9-.13-1.79.2-2.65.21-.54.24-1.11.08-1.65-.26-.91-.18-1.76.16-2.63.16-.4.28-.87.29-1.3.03-1.13.37-2.24.24-3.36-.13-1.14.26-2.23.2-3.36-.04-.66-.34-1.32-.11-1.98.23-.66.15-1.31.11-1.98-.03-.59.32-1.06.57-1.54.27-.52,1.67-.6,2.02-.15.02.03.22.29.17.35.1.22.42,1.49.34,2.52-.04.57-.03,1.14-.26,1.66-.19.43-.21.85-.04,1.29.21.53.24,1.13.09,1.66-.52,1.75-.52,3.57-.68,5.37-.05.56-.12,1.12-.2,1.67-.03.22-.16.44-.14.64.34,2.25-.05,4.52.03,6.78.02.68-.01,1.11.13,1.78.23,1.09-.04,1.97-.19,3.49-.19.39-.28.84-.46,1.25-.14.32-.17.64-.1.98.32,1.55.13,3.15.23,4.73-.32,1.85-.36,4.43-.26,4.66-.05.56-.16,1.11-.27,1.66-.09.44-.23.86-.32,1.3-.12.57-.07,1.13.19,1.63.26.52.28,1.06.04,1.61-.43.96-.51,1.92-.19,2.93.32,1,.22,1.98-.15,2.96-.32.86-.36,1.74-.03,2.63.24.65.13,1.32-.11,1.97-.11.31-.31.69-.25.94.16.58-.07,1.81.05,1.96.12.14.06.46.03.64-.08.55-.14,1.03-.15,1.57-.02.55.19,1.1.22,1.66.02.44.04.99-.15,1.32-.44.77.03,1.54-.17,2.3-.16.64-.22,1.33-.26,2-.06.79-.04,1.57.28,2.31.08.18.1.38.1.59l-.03,2.04-2.22.09c-.24,0-.5-.02-.74-.05-.51-.06-2.19-.1-2.44-.21-1.06-.48-2.27-.14-3.39-.05-.56.05-1.1.25-1.65.28-.43.02-.87-.17-1.32-.19-.3-.01-.65.35-.9.05-.31-.39-.59-.42-1.1-.26-.6.19-1.15.56-1.91.38-.51-.12-1.05.13-1.63-.03-.63-.16-1.37-.2-2.01-.1-.82.13-1.55-.35-2.3-.16-.72.18-1.32-.06-1.98-.16-1.24-.18-2.47-.18-3.67.25-.24.09-.49.16-.74.21l-1.69.36-.53-2.61c-.19-.96-.14-1.95.14-2.91.26-.88.3-1.75.26-2.67-.05-1.24-.17-2.5.25-3.7.12-.35,0-.65-.04-.98-.21-1.69-.31-3.36.2-5.02.16-.5.1-1.12.07-1.68-.04-.56-.18-1.1-.27-1.65.42-1.17.12-2.49.54-3.65.09-.24.1-.41.01-.64-.11-.3-.25-.64-.23-.95.08-1.57-.31-3.17.17-4.72-.09-.66-.21-1.31-.25-1.97-.07-1.13,0-2.28-.16-3.39-.09-.68-.09-1.29-.05-1.97.11-1.81.08-3.62.1-5.44l.08-5.44c.01-.56.11-1.12.21-1.67.08-.45.15-.92,0-1.34-.3-.86-.3-1.76-.31-2.67l-.12-7.82c-.02-.9.28-1.74.19-2.68-.07-.74-.09-1.57.21-2.3l.05-6.46.04-2.04c.01-.36.16-.66.39-.86.24-.32-.2-.5.98-.67.14-.07.93.27,1.02.4.6.88.24,1.58.52,2.64.19.73.08,1.68.13,2.46Z"/>
  <g>
    <path class="cls-3" d="M54.66,268.23l1.24-19.67h25.78s-.78,6.11,9.36,6.84c7.54,1.6,9.89,8.52,9.06,11.14-.83,2.62-24.05,2.17-24.05,2.17l-21.79-1.51"/>
    <path class="cls-3" d="M53.85,264.33c.07-.64-.24-1.24.1-1.84.15-.27-.23-.61.07-.89.19-.17.1-.4.27-.58.22-.24.18-.44.04-.75-.05-.18-.12-.3-.12-.68,0-.3.09-.45-.07-.78-.14-.29.24-.72.13-1.02-.22-.62.17-1.03-.3-1.71-.25-.59-.06-1.15-.07-1.64.04-.63.1-1.27.18-1.9.02-.15.13-.29.22-.43.2-.29.17-.59.05-.91-.23-.6.34-2.29.22-2.56,0-.02-.02-.04-.02-.16v-.72s1.36-.55,1.36-.55c.45-.18,2.92-.32,3.13-.26.15.04.28.15.4,0,.24.16.59-.12.79.1.49.1.67.16,1.25.12.55-.04,1.14.82,1.66.53,1.1,0,1.79-.05,1.94-.15.28-.17.41.14.69-.03.39-.24,1.15.34,1.24.11.1-.25.34-.16.49-.36.32-.43.74-.35,1.14-.1.21.13.44-.31.62-.13.32.32.68.47,1.09.45l2.61-.12c.55-.02,1.12-.07,1.63.23.83-.06,1.24,0,1.58-.09.41-.27.82.08,1.19-.29.51-.51.4-.42,1.16-.4.14.15.57.33.7.12.4.14.76.05.8.07.63.4.5-.21,1.16.26.22-.03.38,0,.5-.07l1.36,1.54s.11.05.25.08c.18.04.21.12.09.24-.1.11-.05.2.08.28.26.16.27.37.3.61.03.23.09.48.38.55.05.27.42.32.57.51.27.33.62.55.81,1.11.06.15.34.17.53.13.31-.07.36.38.67.3.35-.1.38.31.54.54.12.19.26.37.52.27.36-.13.7.03,1.05.06.36.02.64.49,1.01.29.46-.24.89.17,1.33-.04l.24.03s.09-.02.14-.04c.4-.17.58.2.95.2.21.59.61.85,1.17.94.6.07,1.23.12,1.69.61.15.14.5.13.76.21.26.08.53.16.75.31.44.36.51.99.99,1.29.44.29.69.59,1.1.92.3.22.53.87.72,1.17.24.32.57.54.83.82.27.26.47.57.37,1.02.16.33.19.72.54.93.46.26.62.7.51,1.22-.02.09-.05.22-.01.28.15.25.29.52.36.8.06.29.04.61-.11.91.07.53.03,1.08-.27,1.67-.03.05-.18.46-.36.77-.21.37-.32.48-.48.68-.08.09-.16.18-.25.26-.08.08-.13.11-.21.16-.14.09-.3.17-.48.2-.49.02-.81.23-1.11.47-.33.27-.66.3-1.04.29-.26-.02-.55-.06-.76.05-1.17.64-2.38.82-3.63.49-.47-.12-.88.03-1.36.1-.37.23-.63.1-.85-.21-.11-.16-.22-.04-.34.17-.62.44-1.18-.22-1.49-.06-.44.22-.9.34-1.39.08-.2-.11-.52-.17-.68-.06-.39.25-.73.22-1.13.08-.55-.19-1.1-.18-1.61.22-.42.33-.91.29-1.39.3-.62,0-1.24-.39-1.87-.03-.06.04-.17.02-.24-.02-.86-.41-1.69-.46-2.54.06-.19.11-.5.1-.7,0-.73-.33-1.32-.43-2.15-.03-.13.07-.34.07-.46,0-1.05-.61-2.18-.45-3.27-.48-.88-.03-1.75-.08-2.6-.3-.23-.06-.45-.13-.69-.04-.64.23-1.25.15-1.85-.18-.38-.2-.78-.23-1.16-.07-.64.27-1.24.19-1.84-.14-.28-.16-.6-.27-.91-.28-.79-.02-1.56-.35-2.35-.21-.8.14-1.56-.24-2.35-.18-.47.04-.93.35-1.4.13-.46-.22-.92-.13-1.39-.1-.42.03-.74-.31-1.06-.55-.36-.27-.37-1.66-.04-2.02.02-.02.21-.22.25-.17.16-.1,1.05-.43,1.77-.36.39.04.79.02,1.15.25.3.19.59.2.9.03.38-.21.79-.25,1.16-.1,1.21.5,2.49.49,3.74.64.39.05.78.11,1.17.18.15.03.31.16.44.13,1.58-.35,3.16.01,4.74-.08.47-.03.78,0,1.24-.14.77-.24,1.38.03,2.44.16.27.19.59.28.87.45.23.13.45.17.68.09.27-.08.55-.13.82-.17l.21-.02s.05,0,.07-.01h.1s.41-.05.41-.05c.55-.04,1.1-.06,1.65-.15,1.3.22,3.09.11,3.25,0,.39.01.78.09,1.17.16.31.06.61.17.92.23.4.08.79,0,1.12-.3.35-.3.72-.36,1.11-.16.69.35,1.37.36,2.04-.04.67-.4,1.34-.39,2.05-.11.62.24,1.23.2,1.8-.22.42-.31.88-.27,1.35-.11.22.07.5.23.67.13.37-.22,1.22-.16,1.3-.3.07-.14.29-.12.41-.12.37,0,.69-.02,1.04-.09.35-.08.65-.37.95-.51.26-.1.51-.24.75-.13.23.13.44.02.45-.07.07-.06-.03-.07-.08-.04-.01,0-.02.02-.03.03-.04.03-.09.08-.12.14-.07.08-.12.29-.1.31.15-.13.23-.43.21-.78,0-.2-.03-.4-.13-.6-.08-.19-.23-.37-.46-.52-.23-.15-.25-.41-.3-.66-.01-.29-.39-1.15-.38-1.33.13-.79-.6-1.21-1.09-1.62-.23-.23-.63-.27-.86-.48-.18-.17-.27-.44-.45-.63-.13-.12-.49.04-.44-.27.07-.41-.06-.54-.4-.56-.39-.05-.86.18-1.16-.19-.21-.25-.61-.1-.86-.37-.27-.31-.71-.42-1.1-.44-.11,0-.21-.03-.31-.08l.28.04c-.46-.11-.86-.42-1.32-.32-.57.14-1-.21-1.47-.4-.45-.18-.9-.32-1.37-.44-.47-.11-.96-.13-1.5-.15-.54,0-1.07-.1-1.55-.38-.49-.24-.91-.65-1.23-1.13-.46-.7-.96-1.29-1.49-1.97-.7-.91-1.24-2.12-.95-3.3.09-.36-.05-.57-.05-1.05h0c-.37-.43,3.26,3.7,1.72,1.95h0s0,0,0,0h0s-.01,0-.01,0h-.03s-.06.02-.06.02l-.11.02-.22.04-.44.06c-.29.04-.59.06-.88.06-.59,0-1.17-.1-1.75-.34-.35-.15-.78-.09-1.17-.04-.39.04-.77.19-1.16.29-.82-.41-1.74-.09-2.56-.5-.17-.08-.29-.09-.45,0-.21.11-.45.26-.66.25-1.1-.06-2.22.35-3.31-.11-.46.1-.92.23-1.38.28-.79.09-1.6.04-2.37.2-.47.1-.9.1-1.38.07-1.26-.08-2.54-.03-3.8-.03-1.27,0-2.54.02-3.8,0h-.24s1.97-1.86,1.97-1.86c-.05.31-.14.62-.24.92-.1.31-.18.64-.04.93.28.62.25,1.25.23,1.88-.06,1.82-.11,3.65-.13,5.47,0,.63-.33,1.2-.27,1.86.05.52.04,1.1-.28,1.6l-.26,4.51c-.03.47-.06.95-.1,1.42-.02.25-.18.45-.42.58-.25.21.19.36-1,.41-.14.04-.92-.24-1-.33-.57-.65-.19-1.11-.43-1.88-.17-.52-.03-1.18-.06-1.73Z"/>
  </g>
  <path class="cls-3" d="M107.61,180.57c-.01.95.35,1.82.07,2.73-.13.42.29.88,0,1.32-.17.28-.07.6-.22.9-.19.39-.14.68.03,1.12.06.27.15.43.18,1,.02.44-.05.67.14,1.15.17.42-.17,1.09-.04,1.53.27.89-.07,1.55.45,2.51.3.85.16,1.7.22,2.43.02.94.01,1.89,0,2.83,0,.22-.1.45-.18.66-.17.46-.12.89.03,1.35.28.87-.13,3.44.02,3.83.21.53.43,4.56.37,4.9-.04.22-.14.43.01.59-.15.36.14.88-.08,1.18-.09.73-.14,1-.09,1.86.05.82-.79,1.71-.48,2.47.03,1.64.1,2.66.2,2.89.18.42-.13.61.05,1.03.25.57-.31,1.71-.08,1.85.25.15.17.51.37.73.44.46.37,1.1.13,1.7-.12.31.32.64.15.91-.31.48-.45,1.02-.42,1.63l.19,3.89c.03.82.1,1.66-.19,2.43.08,1.24.03,1.84.14,2.35.28.61-.06,1.22.32,1.77.52.75.43.59.44,1.72-.15.21-.31.85-.1,1.04-.13.6-.03,1.14-.05,1.19-.38.94.22.74-.22,1.72.05.53-.03.81.34,1.05.19.12.22.33.1.59-.11.24-.06.43.06.66.48.92-.15,2.09.28,3.04-.06.47.1.93.16,1.4l-2.11-2.07c.11-.01.22-.02.32-.01.94.03,1.87-.02,2.76.36.23.1.71-.02.99-.16.48-.22.9.2,1.35,0,.53-.24.85.13,1.23.32.3.15.59.28.97.11.54-.24,1.14-.14,1.72-.18.6-.04,1.17.34,1.7.11.75-.32,1.57.14,2.28-.27.46-.27.79.05,1.27-.05.48.54,1.13.63,1.87.51.79-.13,1.53-.4,2.39-.16.27.07.66-.15,1-.22.34-.07.68-.15,1.02-.15.71,0,1.31.48,2.04.36.68-.11,1.18-.04,1.86-.15.26-.04.64.01,1,.07l-1.63,1.59c.05-.3.1-.57.1-.78.02-1.05-.6-1.93-.05-2.86.01-.46.15-.95-.11-1.37-.32-.52-.34-1.06-.1-1.64.04-.1.11-.24.09-.33-.19-.68-.35-1.35-.01-2.03-.06-.58-.04-1.13.11-1.71.15-.55-.33-1.11-.1-1.7.18-.47.1-.9-.04-1.35-.15-.45-.11-.91,0-1.38.08-.33.18-.72.12-1.02-.39-1.74-.39-3.45.09-5.19.18-.65.08-1.27.07-1.97-.19-.57-.03-.93.3-1.21.17-.14.06-.31-.13-.51-.38-.95.33-1.7.2-2.18-.18-.67-.26-1.35.03-2.05.12-.29.21-.74.11-1-.22-.59-.17-1.08,0-1.67.22-.79.25-1.6-.12-2.38-.3-.63-.24-1.36-.22-2.07.03-.92.45-1.81.12-2.75-.03-.09-.01-.24.03-.35.45-1.25.53-2.49.04-3.76-.11-.28-.08-.73.02-1.03.35-1.03.48-2.03.08-3.07-.07-.19-.08-.5-.01-.69.58-1.58.38-3.25.38-4.88,0-1.3.02-2.59.22-3.87.05-.35.12-.67.02-1.02-.25-.93-.19-1.85.12-2.76.19-.57.21-1.16.03-1.72-.29-.94-.23-1.83.09-2.74.15-.42.25-.91.25-1.37,0-1.17.3-2.34.14-3.5-.17-1.18.2-2.33.1-3.5-.06-.69-.38-1.36-.17-2.06.21-.7.11-1.37.05-2.06-.05-.62.29-1.11.52-1.62.26-.55,1.65-.68,2.02-.22.02.03.23.29.18.36.11.22.47,1.54.42,2.61-.03.59,0,1.18-.21,1.73-.18.46-.18.89,0,1.34.22.54.28,1.16.13,1.72-.47,1.84-.41,3.73-.52,5.61-.03.58-.09,1.17-.15,1.75-.02.23-.15.47-.12.67.4,2.33.09,4.7.23,7.05.04.7.02,1.16.18,1.85.26,1.13.02,2.06-.09,3.64-.18.41-.26.89-.42,1.31-.13.34-.15.67-.07,1.02.37,1.61.23,3.28.37,4.91-.26,1.94-.23,4.62-.12,4.86-.03.58-.12,1.16-.22,1.74-.07.46-.2.9-.28,1.36-.1.6-.03,1.17.23,1.69.28.53.31,1.1.09,1.67-.4,1.01-.46,2.02-.1,3.06.35,1.03.28,2.05-.06,3.09-.3.91-.31,1.82.04,2.73.26.67.17,1.37-.05,2.06-.1.32-.29.73-.22.99.17.6-.02,1.89.11,2.03.12.14.07.47.05.67-.06.57-.11,1.07-.11,1.64,0,.57.22,1.14.27,1.72.04.46.07,1.03-.11,1.38-.42.82.07,1.6-.1,2.4-.14.67-.18,1.39-.2,2.09-.03.82,0,1.63.35,2.39.18.41.11.91.05,1.38-.07.53-.16,2.28-.28,2.54-.35.75-.31,1.58-.24,2.41l.14,1.54-1.96.23c-.37.04-.75.1-1.11.12-.58.05-1.14.25-1.72.28-.45.02-.91-.17-1.37-.19-.31-.01-.68.35-.94.05-.33-.39-.62-.42-1.14-.26-.63.19-1.2.56-1.99.38-.53-.12-1.09.13-1.7-.03-.65-.16-1.42-.2-2.09-.1-.85.13-1.61-.35-2.39-.16-.75.18-1.38-.06-2.06-.16-1.29-.18-2.57-.18-3.82.25-1.24.42-2.54.45-3.8.1-.55-.15-1.09-.22-1.65-.24l-1.9-.07.04-1.76c0-.37,0-.75-.04-1.14-.09-1.29-.25-2.59.13-3.85.11-.37-.02-.68-.07-1.02-.26-1.75-.42-3.48.04-5.23.14-.53.07-1.17.01-1.75-.06-.58-.21-1.14-.32-1.71.39-1.23.04-2.59.43-3.81.08-.25.08-.43,0-.66-.12-.31-.27-.66-.26-.98.03-1.64-.41-3.29.02-4.92-.11-.68-.25-1.36-.32-2.04-.11-1.17-.08-2.37-.27-3.52-.12-.7-.13-1.34-.11-2.05.05-1.88-.04-3.77-.07-5.66l-.1-5.66c0-.58.08-1.17.16-1.74.07-.47.12-.96-.04-1.39-.33-.89-.36-1.82-.4-2.77l-.37-8.13c-.05-.94.22-1.82.11-2.79-.09-.77-.14-1.63.14-2.4l-.15-6.72-.02-2.12c0-.37.14-.69.37-.9.23-.34-.22-.51.96-.73.14-.08.94.25,1.03.38.62.9.29,1.63.6,2.73.21.76.13,1.74.21,2.56Z"/>
  <g>
    <path class="cls-3" d="M106.59,268.23l1.24-19.67h25.78s-.78,6.11,9.36,6.84c7.54,1.6,9.89,8.52,9.06,11.14-.83,2.62-24.05,2.17-24.05,2.17l-21.79-1.51"/>
    <path class="cls-3" d="M105.78,264.33c.07-.64-.24-1.24.1-1.84.15-.27-.23-.61.07-.89.19-.17.1-.4.27-.58.22-.24.18-.44.04-.75-.05-.18-.12-.3-.12-.68,0-.3.09-.45-.07-.78-.14-.29.24-.72.13-1.02-.22-.62.17-1.03-.3-1.71-.25-.59-.06-1.15-.07-1.64.04-.63.1-1.27.18-1.9.02-.15.13-.29.22-.43.2-.29.17-.59.05-.91-.23-.6.34-2.29.22-2.56,0-.02-.02-.04-.02-.16v-.72s1.36-.55,1.36-.55c.45-.18,2.92-.32,3.13-.26.15.04.28.15.4,0,.24.16.59-.12.79.1.49.1.67.16,1.25.12.55-.04,1.14.82,1.66.53,1.1,0,1.79-.05,1.94-.15.28-.17.41.14.69-.03.39-.24,1.15.34,1.24.11.1-.25.34-.16.49-.36.32-.43.74-.35,1.14-.1.21.13.44-.31.62-.13.32.32.68.47,1.09.45l2.61-.12c.55-.02,1.12-.07,1.63.23.83-.06,1.24,0,1.58-.09.41-.27.82.08,1.19-.29.51-.51.4-.42,1.16-.4.14.15.57.33.7.12.4.14.76.05.8.07.63.4.5-.21,1.16.26.22-.03.38,0,.5-.07l1.36,1.54s.11.05.25.08c.18.04.21.12.09.24-.1.11-.05.2.08.28.26.16.27.37.3.61.03.23.09.48.38.55.05.27.42.32.57.51.27.33.62.55.81,1.11.06.15.34.17.53.13.31-.07.36.38.67.3.35-.1.38.31.54.54.12.19.26.37.52.27.36-.13.7.03,1.05.06.36.02.64.49,1.01.29.46-.24.89.17,1.33-.04l.24.03s.09-.02.14-.04c.4-.17.58.2.95.2.21.59.61.85,1.17.94.6.07,1.23.12,1.69.61.15.14.5.13.76.21.26.08.53.16.75.31.44.36.51.99.99,1.29.44.29.69.59,1.1.92.3.22.53.87.72,1.17.24.32.57.54.83.82.27.26.47.57.37,1.02.16.33.19.72.54.93.46.26.62.7.51,1.22-.02.09-.05.22-.01.28.15.25.29.52.36.8.06.29.04.61-.11.91.07.53.03,1.08-.27,1.67-.03.05-.18.46-.36.77-.21.37-.32.48-.48.68-.08.09-.16.18-.25.26-.08.08-.13.11-.21.16-.14.09-.3.17-.48.2-.49.02-.81.23-1.11.47-.33.27-.66.3-1.04.29-.26-.02-.55-.06-.76.05-1.17.64-2.38.82-3.63.49-.47-.12-.88.03-1.36.1-.37.23-.63.1-.85-.21-.11-.16-.22-.04-.34.17-.62.44-1.18-.22-1.49-.06-.44.22-.9.34-1.39.08-.2-.11-.52-.17-.68-.06-.39.25-.73.22-1.13.08-.55-.19-1.1-.18-1.61.22-.42.33-.91.29-1.39.3-.62,0-1.24-.39-1.87-.03-.06.04-.17.02-.24-.02-.86-.41-1.69-.46-2.54.06-.19.11-.5.1-.7,0-.73-.33-1.32-.43-2.15-.03-.13.07-.34.07-.46,0-1.05-.61-2.18-.45-3.27-.48-.88-.03-1.75-.08-2.6-.3-.23-.06-.45-.13-.69-.04-.64.23-1.25.15-1.85-.18-.38-.2-.78-.23-1.16-.07-.64.27-1.24.19-1.84-.14-.28-.16-.6-.27-.91-.28-.79-.02-1.56-.35-2.35-.21-.8.14-1.56-.24-2.35-.18-.47.04-.93.35-1.4.13-.46-.22-.92-.13-1.39-.1-.42.03-.74-.31-1.06-.55-.36-.27-.37-1.66-.04-2.02.02-.02.21-.22.25-.17.16-.1,1.05-.43,1.77-.36.39.04.79.02,1.15.25.3.19.59.2.9.03.38-.21.79-.25,1.16-.1,1.21.5,2.49.49,3.74.64.39.05.78.11,1.17.18.15.03.31.16.44.13,1.58-.35,3.16.01,4.74-.08.47-.03.78,0,1.24-.14.77-.24,1.38.03,2.44.16.27.19.59.28.87.45.23.13.45.17.68.09.27-.08.55-.13.82-.17l.21-.02s.05,0,.07-.01h.1s.41-.05.41-.05c.55-.04,1.1-.06,1.65-.15,1.3.22,3.09.11,3.25,0,.39.01.78.09,1.17.16.31.06.61.17.92.23.4.08.79,0,1.12-.3.35-.3.72-.36,1.11-.16.69.35,1.37.36,2.04-.04.67-.4,1.34-.39,2.05-.11.62.24,1.23.2,1.8-.22.42-.31.88-.27,1.35-.11.22.07.5.23.67.13.37-.22,1.22-.16,1.3-.3.07-.14.29-.12.41-.12.37,0,.69-.02,1.04-.09.35-.08.65-.37.95-.51.26-.1.51-.24.75-.13.23.13.44.02.45-.07.07-.06-.03-.07-.08-.04-.01,0-.02.02-.03.03-.04.03-.09.08-.12.14-.07.08-.12.29-.1.31.15-.13.23-.43.21-.78,0-.2-.03-.4-.13-.6-.08-.19-.23-.37-.46-.52-.23-.15-.25-.41-.3-.66-.01-.29-.39-1.15-.38-1.33.13-.79-.6-1.21-1.09-1.62-.23-.23-.63-.27-.86-.48-.18-.17-.27-.44-.45-.63-.13-.12-.49.04-.44-.27.07-.41-.06-.54-.4-.56-.39-.05-.86.18-1.16-.19-.21-.25-.61-.1-.86-.37-.27-.31-.71-.42-1.1-.44-.11,0-.21-.03-.31-.08l.28.04c-.46-.11-.86-.42-1.32-.32-.57.14-1-.21-1.47-.4-.45-.18-.9-.32-1.37-.44-.47-.11-.96-.13-1.5-.15-.54,0-1.07-.1-1.55-.38-.49-.24-.91-.65-1.23-1.13-.46-.7-.96-1.29-1.49-1.97-.7-.91-1.24-2.12-.95-3.3.09-.36-.05-.57-.05-1.05h0c-.37-.43,3.26,3.7,1.72,1.95h0s0,0,0,0h0s-.01,0-.01,0h-.03s-.06.02-.06.02l-.11.02-.22.04-.44.06c-.29.04-.59.06-.88.06-.59,0-1.17-.1-1.75-.34-.35-.15-.78-.09-1.17-.04-.39.04-.77.19-1.16.29-.82-.41-1.74-.09-2.56-.5-.17-.08-.29-.09-.45,0-.21.11-.45.26-.66.25-1.1-.06-2.22.35-3.31-.11-.46.1-.92.23-1.38.28-.79.09-1.6.04-2.37.2-.47.1-.9.1-1.38.07-1.26-.08-2.54-.03-3.8-.03-1.27,0-2.54.02-3.8,0h-.24s1.97-1.86,1.97-1.86c-.05.31-.14.62-.24.92-.1.31-.18.64-.04.93.28.62.25,1.25.23,1.88-.06,1.82-.11,3.65-.13,5.47,0,.63-.33,1.2-.27,1.86.05.52.04,1.1-.28,1.6l-.26,4.51c-.03.47-.06.95-.1,1.42-.02.25-.18.45-.42.58-.25.21.19.36-1,.41-.14.04-.92-.24-1-.33-.57-.65-.19-1.11-.43-1.88-.17-.52-.03-1.18-.06-1.73Z"/>
  </g>
  <path class="cls-3" d="M26.61,149.99c.2.37.66.5.68.97.02.22.42.13.36.44-.04.2.13.24.11.44-.01.26.11.34.37.33.13.03.24,0,.45.13.17.09.19.25.47.18.24-.06.32.39.54.37.43-.05.6.34,1.14.01.4-.14.72.03,1.03.06.37.11.79.12,1.19.19.1.02.19.12.28.21.19.21.39.15.6,0,.38-.29,1.56.13,1.73-.09.11-.12.61-.29,1.1-.43.49-.13,1.01-.31,1.09-.28.11.02.23.1.27-.07.21.12.38-.21.57-.04.37.02.5.04.89-.11.36-.15,1.01.56,1.29.18.75-.25,1.19-.48,1.26-.6.13-.23.32.03.45-.2.15-.33.87-.01.84-.25-.04-.25.15-.24.16-.47.02-.47.3-.53.65-.44.19.04.11-.41.3-.31.35.18.65.19.86.01l.69-.55c.22-.19.41-.41.63-.6.28-.24.47-.54.92-.6.34-.43.51-.64.57-.88-.07-.37.39-.4.17-.8-.3-.53-.26-.42-.03-.82.18-.01.43-.21.27-.36.22-.18.21-.43.24-.44.51-.26-.12-.37.45-.65.01-.24.13-.34-.2-.52-.17-.09-.17-.18-.04-.27.13-.08.09-.18,0-.3-.39-.46.33-.89-.07-1.36.1-.25-.12-.52-.1-.77.03-.43-.02-.85.36-1.26.11-.11-.04-.33-.17-.46-.23-.21.18-.43-.03-.63-.25-.23.11-.44.29-.49.14-.06.23-.24.03-.37-.29-.19-.24-.47-.36-.72-.12-.25.2-.61-.1-.77-.41-.22-.09-.73-.59-.89-.32-.1-.08-.35-.25-.52.41-.4.38-.73.13-.99-.27-.28-.66-.47-.63-.93,0-.14-.27-.2-.41-.3-.13-.1-.29-.2-.36-.34-.16-.28.11-.77-.18-.99-.07-.05-.12-.11-.17-.16-.08-.1-.15-.2-.22-.3-.15-.2-.3-.4-.53-.62-.33-.3-.53-.93-.78-1.23-.1-.12-.21-.23-.34-.35.1-.47.26-1.09,1.12-1.4.28-.27.66-.47.7-.87.02-.48.58-.98.89-.93.07,0,.18,0,.2-.05.18-.39.38-.77.9-.71.24-.24.5-.42.87-.45.35-.03.39-.62.81-.58.33.04.53-.13.72-.38.19-.26.49-.31.8-.3.22.01.47.04.64-.08.49-.31,1.06-.52,1.64-.55.59.02,1.2.07,1.74.45.39.27.84.19,1.27.37.42-.04.59.2.62.56.01.19.15.13.36.01.74-.05.74.84,1.06.88.48.07.83.3.94.8.04.2.17.45.35.48.22.07.41.15.55.35.12.18.23.48.24.66.04.53.2.93.72,1.21.43.23.52.65.63,1.04.14.51-.14,1.08.32,1.52.05.04.04.13.02.19-.28.77-.25,1.41.34,2.05.12.14.13.39.05.56-.28.59-.39,1.11.05,1.67.08.1.09.27.02.37-.55.85-.38,1.72-.42,2.6.02-.02.02.07,0,.11-.02.05-.08.12-.1.22-.02.05-.03.12.09.06.3-.18.22-.17.26.13,0,.09.05.14.09.14.04,0,.21-.05.3-.14.34-.3.68-.32,1.1-.06.2.1.43.16.63.11.5-.12,1.09,0,1.56-.31.47-.36,1.08-.16,1.57-.49.28-.18.46-.6.84-.54.38.07.63-.18.91-.36.25-.17.59.04.91.15.34.12.98,1.36.91,1.8,0,.03-.04.27-.09.24-.06.15-.52.76-1.04.95-.28.11-.56.25-.89.16-.28-.08-.48,0-.64.27-.18.32-.47.49-.79.45-1.04-.11-1.95.25-2.95.35-.31.03-.62.05-.94.03-.12,0-.26-.12-.37-.07-.3.16-.63.21-.96.26-.33.04-.83-.01-1.23-.08-.86-.15-1.62-.56-2.22-1.15-.42-.36-.28-.72-.49-1.18-.14-.39-.14-.82-.07-1.26l.03-.2.02-.1c.02-.07.04-.14.05-.22.04-.15.08-.31.11-.5.18-.18.28-.4.43-.6.12-.16.15-.32.06-.48-.37-.76-.29-1.54-.54-2.28.16-.91-.15-2.11-.29-2.19-.04-.26-.02-.53,0-.8,0-.21.07-.44.07-.66,0-.28-.16-.52-.51-.62-.35-.12-.49-.3-.39-.6.04-.13.06-.26.06-.37.01-.08.01-.14-.02-.19-.08-.09-.31-.19-.6-.21-.28-.02-.48-.1-.62-.25-.16-.11-.26-.28-.33-.53-.12-.47-.5-.61-.94-.39-.31.13-.5.04-.69-.21-.09-.12-.21-.33-.31-.28-.24.19-.7.01-.75.13-.04.11-.17.11-.24.1-.21-.01-.41-.03-.61.02-.22.08-.36.37-.55.48-.15.08-.33.24-.53.12-.47-.25-.54.36-.89.39-.31,0-.58.18-.84.33-.31.18-.56.46-.59.93-.04.16,0,.17,0,.17.01,0-.02-.01-.04-.03-.06-.03-.16.01-.32,0-.19-.02-.38,0-.34.04.02.09.28.16.37.19.04.01.11,0,.17,0,.04,0,.04-.05.09,0,.06.05.12.11.16.17.15.2.12.51.22.73.07.15.49.14.3.41-.25.34-.21.49.07.66.32.21.79.32.82.78.01.31.37.48.36.85-.01.39.12.78.34,1.09.29.39-.03.94.28,1.28.31.33.16.74.16,1.12.01.36.03.71.14,1.04.03.14.17.39.22.64.07.23.16.34.27.51.46.62.51,1.33.16,2.01-.24.49-.28.97-.28,1.49.04.69.06,1.45-.45,2.07-.14.18-.05.37-.06.57.02,1-.2,2.07-1.09,2.76-.27.2-.39.55-.51.87-.14.31-.21.65-.32.99-.36.18-.62.45-.89.71-.27.25-.52.54-.93.6-.16.03-.24.09-.28.24-.06.2-.11.44-.26.55-.75.5-1.32,1.39-2.32,1.39-.28.25-.54.57-.86.75-.54.32-1.15.58-1.67.92-.32.22-.64.34-1,.43-.97.22-1.9.56-2.85.79l-1.42.35c-.49.1-1.01.18-1.52.25-.32.04-.64.01-.96-.05-.27-.06-.54-.1-.77.06-.48.32-1,.42-1.56.38-1.57.02-3.23-.26-4.84-.89-.55-.28-.92-.73-1.45-1.04-.44-.22-.92-.55-1.05-1.11-1.01-.97-1.8-2.15-2.32-3.4-.17-.39-.31-.81-.42-1.23-.05-.23.04-.45.24-.63.19-.24-.27-.3.87-.61.13-.05.95.01,1.05.04.68.28.43.67.88,1.05.3.25.4.67.62.96Z"/>
  <path class="cls-3" d="M9.88,127.38c-.62.91-.79,1.96-1.56,2.73-.34.36-.22,1.02-.71,1.35-.3.2-.4.58-.67.82-.36.32-.46.65-.53,1.19-.07.31-.08.51-.32,1.12-.17.48-.33.7-.36,1.28,0,.51-.65,1.09-.66,1.62-.05,1.06-.65,1.66-.43,2.86.07,1.01-.32,1.89-.42,2.71-.13,1.05-.36,2.09-.46,3.14-.02.25-.13.49-.23.72-.21.5-.18.99-.07,1.51.08.49.14,1.45.11,2.34,0,.45-.03.88-.02,1.23.04.34.08.6.13.71.16.29.42,1.52.72,2.75.32,1.24.68,2.42.69,2.62.03.25,0,.5.19.64-.04.44.4.91.31,1.3.16.81.21,1.12.61,2.01.38.83,0,2.1.68,2.75.41.84.84,1.46,1.13,1.93.33.45.56.72.67.8.4.3.28.64.71.91.55.38.97,1.68,1.25,1.66.29-.03.51.3.83.33.67.06,1.09.58,1.46,1.17.19.32.73.21.87.51.24.54.63,1.05,1.25,1.35,1.24.74,2.61,1.21,3.97,1.68.89.24,1.78.48,2.57.91,1.38.24,2.06.33,2.64.31.71-.16,1.38.18,2.02-.15.87-.46.67-.38,1.94-.38.24.15.96.32,1.17.1.68.09,1.28-.05,1.34-.03,1.09.31.82-.26,1.97.06.59-.12.93-.08,1.15-.47.11-.21.35-.25.66-.18.29.06.5-.03.73-.19.96-.64,2.38-.25,3.35-.92.65-.07,1.24-.44,1.88-.61,1.04-.27,2.05-.59,3.13-.53.29.01.77-.28,1.04-.5.45-.38,1.04-.13,1.48-.48.51-.41.96-.2,1.44-.17.38.02.74.02,1.09-.29.5-.45,1.2-.57,1.8-.87.62-.3,1.38-.19,1.87-.64.68-.61,1.74-.55,2.33-1.27.39-.46.86-.33,1.33-.64.72.26,1.46.06,2.19-.42.77-.51,1.44-1.13,2.44-1.34.31-.07.62-.46.95-.69l.06-.04-.98,1.57c-.02-.36.19-.98.61-1.33.19-.17.43-.29.56-.34l.07-.02c.09-.03.18-.05.27-.07l.25-.04.25-.03.35-.04c.21-.02.41-.03.6-.03.84.04,1.51.54,2.36.44.78-.09,1.36-.02,2.14-.14.52-.08,1.49.13,2.03.1,1.21-.07,2.1-.78,3.2-.39.51-.06,1.07-.03,1.47-.37.5-.43,1.03-.58,1.69-.52.12.01.28.03.36-.02.63-.4,1.19-.78,1.95-.77.49-.31.95-.55,1.47-.75.52-.2.55-.88,1-1.1.38-.19.51-.56.51-.93,0-.38.12-.67.29-1.03.11-.25.25-.57.17-.84-.29-1.09-.68-2.17-1.01-3.41-.07-.25.08-.51.33-.58h.06s1.69-.23,1.69-.23c.03,0-.01,0-.02.13-.01.07,0,.11,0,.2,0,.1.02.19.04.28.05.17.1.48.19.7.08.22.21.65.28.81-.01-.01-.1,0-.2.03-.2.05-.45.13-.7.21-.69.22-1.22.7-1.87,1.16-.16.2-.33.35-.47.43l-1.9-3.79c.14-.02.41,0,.64.11.2.09.31-.09.38-.35.59-.77,1.55-.65,1.81-1.07.19-.27.3-.56.51-.78.17-.24.37-.45.65-.63.18-.17.49-.48.42-.73-.06-.28-.02-.49.02-.7.01-.22.08-.44.18-.69.11-.34.08-.72.04-1.08-.11-.36-.33-.71-.6-.99-.22-.23-.47-.49-.62-.79-.17-.29-.28-.62-.49-.92-.25-.4-.41-.84-.61-1.28l1.68-1.17c-.03.4.17.74.54.98l.44.68.05.07h0s0,0,0,0h0s-.01,0-.01,0c-.01,0-.04.02-.1.06-.1.07-.19.14-.3.23-.2.18-.4.39-.57.63-.07.1-.23.2-.35.25-1.53.62-2.79,1.42-4.18,2.59-.3.27-.94.48-1.4.52-.43.01-.76.06-1.22.06-.22,0-.43.01-.65.02h-.01s-.05,0-.05,0c-.13-.02-.22.05-.79-.16-.93.21-1.65-2.85-.78-3.03.38-.43.49-.42.59-.5l.04-.02h.02s.17-.09.17-.09l.1-.04h.03s.09-.03.09-.03l.12-.03.21-.06c.53-.16,1.02-.43,1.45-.83.16-.15.45-.29.66-.31,1.76-.2,3.22-1.37,4.14-2.48.75-.92,1.07-1.72,1.17-2.69.03-.27.03-.55-.15-.8-.47-.66-.82-1.38-1.14-2.3-.14-.42-.41-.79-.73-1.07l.28.25c-.15-.07-.31-.12-.46-.17-.93-.26-1.7-.63-2.49-1.26-.37-.25-.83-.54-1.3-.61-1.17-.26-2.4-.65-3.53-.32-1.09.32-2.23.37-3.04,1.1-.2.25-.35.52-.52.76-.13.28-.26.54-.54.73-.47.47-.68,1.08-.76,1.76-.15.56-.5,1.02-.8,1.53-.33.54-1.75.66-2.04.07-.02-.04-.18-.38-.12-.46-.03-.14-.1-.64-.09-1.28.04-.32.09-.67.16-1.04.07-.36.16-.73.34-1.06.18-.36.36-.73.55-1.08.25-.32.52-.63.83-.87.24-.21.5-.39.72-.59.22-.21.41-.45.58-.73.24-.3.55-.58.9-.83.34-.26.75-.36,1.13-.46.32-.09.63-.13.95-.16l.94-.12c.62,0,1.24-.09,1.84-.02,1.22,0,2.4.24,3.54.55.7.24,1.39.48,2.04.83.25.13.49.35.72.44.36.12.72.25,1.07.41.34.18.69.37,1.03.57.03.02.06.04.09.07l.09.09c1.49,1.53,2.8,3.55,3.06,6.09.07,1.03-.07,1.71-.27,2.72-.42,1.67-1.54,2.67-3.22,3.86-.54.19-1.08.47-1.63.61-.43.12-.8.3-1.14.57-.79.62-1.7,1.09-2.64,1.48l-.71.28-.17.06-.07.03h0s.1-.03.15-.06h.02s.07.08.54-.5c.88-1.83-1.55-2.61-1.15-2.25-.22,0-.08,0-.12,0h0s0,0,0,0h0s.24-.06.24-.06c.31-.06.71-.19,1.06-.37,1.92-.39,4.32-2.4,4.44-2.64l.6-.42.33-.22.22-.14.17-.1c.25-.15.57-.23.84-.24h.16c.45-.02.85.24,1.04.62.09.18.18.36.27.55.26.53.47,1.06.7,1.6.23.75.66,1.33,1.12,1.91.48.59.78,1.36.6,2.22-.06.73-.29,1.44-.36,2.15-.19.7-.28,1.42-.49,2.16-.36,1.51-1.51,2.67-2.83,3.23-1.1.48-1.95.94-3.01,1.67-.67.46-1.58.28-2.04-.39-.37-.54-.33-1.25.06-1.74l.56-.71.16-.21c.51-.68,1.26-1.08,2.1-1.36.4-.13.93-.23,1.22-.46.11-.09.25-.18.46-.28.11-.05.23-.11.44-.16.05-.01.14-.03.22-.04l.12-.02c.07,0,.16,0,.24,0,.08,0,.16.01.24.03.13.02.34.09.49.18.28.11.71.58.82,1.05l-.06-.18c.28.68.47,1.46.58,1.56.16.14.24.59.27.84.11.76.16,1.45.19,2.25.02.8.17,1.65-.02,2.54-.13.69-.48,1.55-.92,1.92-.5.44-.84.91-1.2,1.37-.36.46-.74.91-1.25,1.18-.85.46-1.72.91-2.57,1.26-1.01.41-1.97.77-2.81,1.35-.46.32-1.11.39-1.71.45-.67.09-2.84.31-3.17.2-1.39-.35-2.88.04-4.3.14-.7.05-1.38.25-2.08.26-.54,0-1.09-.2-1.63-.24-.37-.03-.81.32-1.09,0-.12-.14-.24-.24-.36-.29-.05-.03-.12-.05-.15-.06-.03,0-.04,0,0-.01l.14-.02c.06-.01.12-.03.18-.05l.15-.06c.16-.07.35-.19.52-.36.35-.34.5-.87.48-1.2l-.97,1.55c-.12.07-.25.16-.4.29-.59.49-1.05,1.11-1.97,1.36-.62.16-1.11.68-1.84.84-.78.17-1.63.5-2.32.91-.88.53-1.89.45-2.69.97-.76.51-1.54.56-2.33.78-1.5.38-2.92.9-4.19,1.8-1.28.85-2.75,1.4-4.33,1.46-1.14.06-2.18.34-3.3.64-1.48.45-3.03.87-4.59.74-.45-.03-.81.12-1.22.23-1.04.26-2.08.49-3.15.55-1.06.1-2.14.03-3.21-.21-.64-.12-1.43-.13-2.14-.11-.71.03-1.42.09-2.14.1-1.44-.56-3.18-.62-4.52-1.45-.27-.16-.48-.23-.78-.26-.4-.03-.87-.04-1.25-.2-1.86-.82-3.95-1.53-5.31-3.16l-1.1-.7c-.36-.24-.69-.52-1.03-.8-.59-.47-1.06-1.06-1.58-1.6-.49-.57-.97-1.13-1.45-1.69-.29-.34-.55-.68-.79-1.03-.22-.36-.43-.73-.64-1.12-1.09-2.1-2.04-4.26-2.76-6.47-.35-1.11-.67-2.22-.94-3.34-.12-.56-.27-1.1-.37-1.68l-.28-1.74c-.09-.72-.19-1.44-.1-2.17.04-.59.07-1.2-.11-1.72-.42-1.1-.33-2.28-.3-3.46.18-3.38.75-6.74,1.75-9.94.31-1.13,1.02-2.02,1.33-3.17.3-.9.72-1.87,1.36-2.61,1.2-2.46,2.55-4.83,4.08-7.1.47-.72.99-1.41,1.52-2.1.29-.36.64-.58.98-.63.44-.17.25-.63,1.3-.06.16.03.5.85.48,1.03-.19,1.19-.96,1.65-1.47,2.87-.34.84-1.04,1.72-1.48,2.56Z"/>
</svg>