<?xml version="1.0" encoding="UTF-8"?>
<svg id="illuer_blå_bg" xmlns="http://www.w3.org/2000/svg" viewBox="0 0 119.84 137.64">
  <defs>
    <style>
      .cls-1 {
        fill: #ff9400;
      }

      .cls-2 {
        fill: #ffe6c4;
      }
    </style>
  </defs>
  <g>
    <path class="cls-1" d="M65.76,136.01c-20.02,2.06-35.26-1.5-45.68-10.68C9.62,116.17,3.6,103.63,1.96,87.72c-1.63-15.91,1.72-29.39,10.1-40.51,8.36-11.11,22.35-17.67,41.97-19.68,19.62-2.01,35.14,1.51,45.39,10.71,10.24,9.18,16.19,21.73,17.83,37.64,1.63,15.91-1.64,29.39-9.81,40.48-8.16,11.07-22.06,17.64-41.66,19.65"/>
    <path class="cls-1" d="M54.21,137.61c-.97-.04-1.91.03-2.83.04-.93-.01-1.84-.06-2.76-.26-.83-.2-1.83.08-2.7-.29-.54-.22-1.22-.22-1.78-.48-.74-.32-1.34-.35-2.27-.36-.55-.05-.89-.04-2.04-.25-.9-.15-1.33-.38-2.33-.45-.89-.04-2.11-.79-3.01-.96-.93-.15-1.67-.47-2.43-.76-.38-.15-.77-.28-1.2-.4-.42-.14-.87-.27-1.38-.36-.44-.12-.86-.27-1.27-.43-.41-.17-.79-.38-1.18-.58-.76-.4-1.48-.81-2.14-1.22-.84-.52-1.69-1.04-2.48-1.65l-1.2-.88-1.14-.96c-.36-.31-.66-.68-.94-1.02-.57-.78-1.26-1.33-2.06-1.9-.73-.55-1.97-1.85-3-3.16-1.04-1.29-1.91-2.56-2.21-2.84-.2-.2-.67-.76-1.26-1.51-.58-.76-1.24-1.73-1.88-2.7-1.25-1.97-2.27-4.01-2.4-4.34-.16-.44-.23-.86-.51-1.12-.16-.75-.87-1.62-.88-2.29-.47-1.44-.61-1.97-1.22-3.65-.57-1.61-.25-3.57-.89-5.02-.8-3.26-1.14-5.32-1.31-5.78-.31-.82-.07-1.25-.33-2.08-.19-.57-.21-1.45-.21-2.21.02-.77.05-1.43-.07-1.56-.27-.29-.25-1.03-.48-1.47-.46-.94-.48-2.26-.23-3.5.12-.64-.31-1.34-.14-1.89.34-.98.53-2.08.57-3.33.14-2.66.42-5.32.9-7.96.18-.83.35-1.67.55-2.49.23-.81.52-1.6.87-2.31.34-1.23.66-2.13.89-2.85.27-.71.47-1.25.61-1.76.21-1.29,1.07-2.29,1.22-3.48.13-.82.18-1.14.33-1.52.14-.38.4-.82,1-1.84.35-.31,1.16-1.36,1.22-1.79.78-.97,1.33-1.96,1.42-2.02,1.46-1.34.71-1.41,2.36-2.71.64-.9,1.12-1.27,1.19-1.88.04-.32.33-.67.78-.98.41-.3.69-.6.95-1.01.27-.42.62-.82,1-1.2.39-.37.84-.7,1.28-1.04.87-.7,1.8-1.3,2.49-2.06,1-.67,1.92-1.49,2.94-2.16.86-.49,1.72-.98,2.58-1.43.88-.41,1.77-.76,2.68-1.01.48-.12,1.34-.62,1.83-.98.83-.62,1.8-.53,2.62-1.05.96-.63,1.7-.5,2.51-.56.64-.05,1.25-.12,1.95-.52,1-.53,2.23-.77,3.38-1.12,1.2-.32,2.42-.23,3.45-.67,1.45-.6,3.19-.5,4.58-1.09.91-.4,1.62-.22,2.58-.43,1.04.43,2.36.33,3.86.08,1.59-.26,3.1-.68,4.87-.52.55.05,1.34-.24,2.03-.31.69-.08,1.41-.18,2.11-.19,1.47-.04,2.7.52,4.21.42,1.4-.03,2.44.1,3.85.1.95.04,2.67.41,3.63.59,2.15.3,4.04.03,5.85,1,.93.26,1.89.6,2.78.61,1.11.03,2.23.28,3.29.97.19.12.45.29.62.33,1.4.28,2.75.77,3.94,1.67,1.1.52,2.16,1.03,3.12,1.83.46.37,1.01.6,1.55.86.53.28,1.06.59,1.52,1.05.74.71,1.45,1.27,2.29,1.74.85.49,1.5,1.2,2.16,1.94.46.52.94,1.2,1.44,1.6,2.82,2.35,5.11,5.25,6.67,8.62.31.62.61,1.22.96,1.8.35.58.73,1.17,1.06,1.83.72.96.93,1.71.87,2.4-.02.35.22.62.56.91.6.81.84,1.69,1.03,2.44.19.75.28,1.41.5,1.85.65,1.24,1.16,2.58,1.29,4.07.07.61.19,1.56.42,2.04.54,1.11.68,2.14.78,3.38.09,1.66.37,3.31.93,4.84.49,1.24.58,2.76.69,4.23.12,1.91-.2,3.79.15,5.73.04.19.02.51-.02.73-.49,2.63-.68,5.15-.52,7.83.06.59-.13,1.53-.33,2.14-.67,2.1-1.27,4.08-1.44,6.29-.04.4-.22,1.02-.41,1.39-1.53,3.03-2.67,6.3-4.3,9.34-1.28,2.42-2.77,4.69-4.57,6.73-.5.55-.94,1.07-1.37,1.68-1.09,1.65-2.52,3.05-4.18,4.08-.52.32-1.01.7-1.48,1.08-.49.37-.94.77-1.35,1.19-1.4,1.41-3.03,2.41-4.86,3.1-.83.35-1.8.69-2.64,1.14-1.07.59-2.24.97-3.36,1.44-1.14.41-2.27.82-3.37,1.32-2.25.97-4.64,1.34-6.95,2.01-.68.2-1.33.46-2,.68-.67.21-1.36.37-2.09.42-1.46.11-2.79.41-4.19.7-1.25.26-2.32.03-3.38-.05-1.16-.1-1.63-1.45-.76-1.93.05-.03.54-.3.69-.27.21-.08.96-.3,1.91-.52.95-.23,2.1-.52,3.17-.67,1.17-.17,2.31-.46,3.44-.47.93,0,1.77-.24,2.6-.62.99-.45,2.14-.87,3.25-1.05,3.64-.62,7.15-2.05,10.49-3.68,1.06-.48,2.06-1.04,3.09-1.58.4-.2.87-.37,1.18-.62,1.83-1.41,3.6-2.89,5.33-4.42,1.66-1.6,3.31-3.25,4.6-5.15.41-.54.72-1.03,1.02-1.51.29-.48.61-.95.88-1.57.94-2.01,2.06-3.46,3.46-6.25.47-.67.93-1.51,1.38-2.25.35-.6.6-1.21.76-1.88.67-3.1,1.55-6.28,1.87-9.48.23-.93.35-1.98.5-3,.12-1.03.19-2.07.26-3,.06-1.86.04-3.31-.04-3.54.03-1.15.06-2.31.09-3.45.03-.92.09-1.81.07-2.73,0-1.2-.22-2.33-.62-3.3-.4-1.01-.64-2.08-.61-3.25.03-2.05-.38-4.04-1.25-5.91-.9-1.85-1.44-3.75-1.88-5.79-.38-1.77-1.11-3.46-2.25-4.87-.81-1.05-1.42-2.26-1.92-3.54-.26-.58-.54-1.36-.88-1.75-.78-.88-2.15-3.02-2.45-3.14-.26-.13-.63-.67-.85-.98-.7-.88-1.29-1.66-2.07-2.44-.78-.8-1.71-1.42-2.58-2.13-.67-.6-1.54-1.24-1.95-1.81-.47-.68-1.13-1.1-1.78-1.5-.64-.42-1.33-.74-1.95-1.21-1.02-.83-2.27-1.47-3.47-2.1-.73-.34-1.45-.66-2.18-.92-.75-.22-1.49-.4-2.23-.49-.8-.09-1.71-.42-2.57-.75-.48-.19-1.55-.47-2.55-.77-1-.29-1.97-.49-2.2-.61-2.02-.92-4.55-.9-6.84-1.03-1.14-.04-2.26.1-3.39.06-.89,0-1.79-.21-2.69-.25-.61-.04-1.34.36-1.85.06-.65-.37-1.23-.41-2.27-.21-1.24.27-2.34.65-3.91.61-1.05-.02-2.14.29-3.35.28-1.3,0-2.83.1-4.13.43-.83.19-1.63.22-2.41.27-.78.07-1.54.14-2.29.38-1.43.45-2.66.54-4.01.74-2.5.48-4.95,1.2-7.08,2.49-2.13,1.22-4.36,2.31-6.7,3.14-.83.34-1.65.71-2.43,1.15-.76.47-1.53.95-2.27,1.51-2.01,1.5-3.81,3.24-5.8,4.67-.56.44-.89.98-1.3,1.49-2.04,2.7-3.84,5.57-5.91,8.3-.59.84-1.16,1.98-1.56,3.04-.21.53-.4,1.06-.57,1.59l-.45,1.62c-1.22,2.09-1.7,4.76-2.58,7-.18.46-.29.81-.27,1.28,0,.63.03,1.33-.09,1.96-.55,3.19-.35,6.46-.79,9.66.08,1.35.3,2.69.41,4.04.25,2.31.43,4.68.97,6.89.3,1.36.54,2.59.8,3.95.7,3.63,1.83,7.17,3.26,10.56,1.44,3.38,3.25,6.59,5.36,9.58.64.94,1.28,1.88,1.91,2.8.52.77,1.13,1.5,1.79,2.03.71.53,1.4,1.09,2.06,1.71.69.57,1.36,1.2,2.06,1.79,3.96,3.35,8.6,5.85,13.58,7.41,1.72.55,3.29,1.27,5.15,1.6.74.11,1.52.25,2.29.42.78.14,1.55.32,2.28.58,4.35.61,8.78.76,13.21.61l4.19-.21c.74-.06,1.37.03,1.8.23.68.18.99-.29,1.51.84.16.12-.44.98-.7,1.09-1.78.77-3.29.55-5.53.94-.77.15-1.66.19-2.57.21-.91.02-1.83.05-2.66.04Z"/>
  </g>
  <g>
    <path class="cls-2" d="M53.93,30.96s-2.09-11.7-13.54-16.32c-2.22-.54,8.28,3.95,12.27,10.69.08.17,2.89-21.62,22.89-23.03.12,0,.21.1.19.21-.44,2.32-4.17,21.72-22.58,24.07"/>
    <path class="cls-2" d="M51.92,27.99c-.17-.54-.7-.86-.65-1.47.03-.28-.47-.35-.33-.7.08-.22-.09-.35-.04-.58.07-.3-.05-.43-.33-.58-.13-.11-.25-.15-.44-.42-.15-.21-.15-.38-.45-.51-.27-.11-.21-.63-.46-.77-.49-.29-.45-.8-1.21-.92-.52-.21-.71-.67-1.04-.93-.38-.38-.71-.81-1.1-1.18-.09-.09-.12-.25-.15-.39-.08-.31-.3-.44-.58-.51-.55-.09-1.46-1.34-1.74-1.34-.19,0-.8-.25-1.37-.53-.57-.29-1.17-.48-1.23-.56-.1-.09-.16-.24-.31-.14-.12-.23-.5-.1-.57-.37-.03-.03-.06-.05-.08-.07l.2.07s-.05-.03-.05-.04c-.02.15.07-.45.09-.56.04-.2.04-.48.06-.58,0-.15-.01-.27-.03-.28-.02,0,.09-.03.18-.12.06-.07.25-.24.35-.37l.41-.5s.15.13.34.23c.43.22.45,1.24,1.01,1.23.86.53,1.43.83,1.6.83.31,0,.24.32.56.32.43,0,.69.88.9.74.22-.15.35.05.58-.03.49-.18.77.13.93.55.08.22.52,0,.54.25.05.44.22.76.53.99.66.49,1.32.98,1.94,1.53.2.17.4.35.57.55l.12.16s.03.07.05.11c.02.08.04.17.04.28.3.24.42.46.54.5.02.01.03.01.04.01.15-.23.27.46.34,0,.03-.72-.01-.65.11-.45.04.17.09.38.13.5.05.15.04,0,0-.21.09.17.07-.14.08-.1.13.25.12.09.1-.01-.01-.12-.03-.19.15,0,0-.19.09-.18-.16-.63-.13-.23-.14-.27-.04-.2.1.07.07-.02,0-.15-.16-.25-.13-.22-.05-.3.06-.01.25-.4.15-.74.2-.32.09-.76.24-1.1.25-.56.42-1.15,1-1.52.15-.1.16-.43.12-.65-.07-.38.43-.44.37-.79-.06-.42.36-.44.64-.57.22-.11.42-.21.38-.51-.05-.42.23-.71.39-1.06.16-.36.68-.47.67-.88,0-.58.67-.77.6-1.38-.04-.4.34-.4.45-.7.62.07.94-.2,1.15-.64.22-.47.34-1.03.89-1.28.17-.08.18-.42.29-.62.11-.21.2-.43.37-.59.34-.33.96-.25,1.23-.65.26-.38.56-.54.84-.9.19-.25.78-.4,1.03-.58.55-.4.69-1.26,1.51-1.13.26-.16.61-.21.71-.57.14-.46.45-.66.9-.62.08,0,.2.03.24-.02.31-.38.66-.72,1.21-.61.33-.21.68-.35,1.09-.34.39,0,.58-.58,1.03-.49.35.06.6-.09.85-.32.25-.23.56-.28.89-.25.12.01.24.02.36.02.14,0,.18,0,.38-.08.48-.21.98-.37,1.49-.49.5-.1,1.07-.27,1.52-.24.45.02.95.02,1.31.13.25.21.48.43.68.65.08.07.15.18.24.3.08.12.1.2.15.3.05.1.1.19.16.28.03.05.06.09.08.15l.02.23c.22.4.09.85-.27,1.23-.16.19-.11.32.07.46.1.45-.09.96-.29,1.35-.2.4-.41.69-.41.94,0,.2,0,.32,0,.42,0,.11,0,.22-.03.33-.05.21-.16.42-.35.59-.16.14-.34.4-.29.58.1.43-.04.72-.31,1.03-.36.42-.57.88-.39,1.49.14.49-.06.92-.27,1.34-.26.54-.87.89-.81,1.6,0,.07-.06.15-.12.19-.77.53-1.18,1.19-1.15,2.17,0,.21-.18.46-.37.57-.66.39-1.07.88-1.13,1.68-.01.14-.13.31-.26.38-1.08.5-1.53,1.51-2.29,2.3-.57.64-1.14,1.29-1.93,1.69-.21.12-.4.21-.52.44-.31.59-.78,1.01-1.47,1.08-.42.06-.74.28-.95.63-.36.58-.85.95-1.56.93-.32,0-.65.06-.91.2-.69.34-1.46.5-2.11.9-.67.43-1.49.35-2.18.71-.4.23-.74.64-1.25.54-.49-.1-.89.1-1.33.26-.39.14-.76-.12-1.12-.28-.39-.17-.65-1.53-.44-1.96.01-.03.14-.27.18-.23.12-.14.8-.67,1.41-.77.34-.05.67-.16,1.03-.03.31.12.55.03.74-.24.23-.33.54-.5.89-.49.57.02,1.13-.05,1.65-.23l1.51-.67c.32-.13.65-.24.97-.36.12-.06.3-.03.38-.13.45-.57.99-.99,1.56-1.38.54-.42,1.06-.88,1.52-1.38.27-.31.5-.45.64-.88.24-.67.77-.9,1.46-1.52.28-.08.5-.25.77-.36.22-.08.35-.23.41-.44.29-.96.87-1.74,1.25-2.63.79-.84,1.44-2.3,1.4-2.47.16-.3.38-.58.59-.85.17-.22.39-.41.57-.63.22-.29.27-.65.12-1.03-.15-.4-.08-.72.25-.96.55-.43.78-1,.62-1.69-.2-.65.07-1.41.39-1.39.33-.17.42-.56,0-.48-.33.08-.18,0,.03-.34.07-.12.16-.31.02-.21-.3.22-.43.08-.53.23-.08.14-.11.1-.14.09-.08-.04-.18-.05-.27-.02,0,0-.22.11-.34.21-.14.1-.28.21-.43.28-.24.1-.53.24-.77.12-.56-.26-.83.36-1.3.37-.4,0-.79.14-1.16.28-.43.17-.83.42-1.04.92-.11.28-.38.35-.64.43-.28.09-1.14.54-1.32.54-.78-.07-1.18.63-1.63,1.11-.23.24-.33.6-.56.83-.17.18-.49.21-.69.37-.14.11-.03.52-.34.4-.4-.14-.54-.05-.64.28-.11.39-.05.87-.47,1.09-.28.15-.3.54-.62.72-.36.19-.65.51-.79.88-.18.46-.82.55-.9,1.04-.08.46-.47.63-.75.93-.53.55-.88,1.23-.81,2.06.07.83-.2,1.5-.79,2.04-.43.4-.64.89-.78,1.43l-.13.55-.1.37-.14.47c-.21.69-.47,1.37-.78,1.85-.19.27-.14.76-.23,1.12l-.04.18-.02.09-.05.03-.2.11-.36.18c-.21.11-.4.18-.56.24-.14.05-.27.09-.41.14h-.02s0,0,0,0h0s0,0,0,0h0c-.21-.98.29,1.34.23,1.1h0s0,.03,0,.03l-.04.07s-.05.08-.08.11c-.07.04-.16.03-.24,0-.25-.2-.58-.29-.97-.71-.31-.31-.62-.61-.97-.93l-.24-.26c-.37-.89-.77-1.42-1.22-1.93l-.32-.37c-.1-.12-.23-.27-.26-.32-.11-.15-.19-.32-.25-.52-.05-.16-.12-.24-.28-.27-.21-.04-.46-.07-.59-.21-.68-.69-1.68-.97-2.17-1.91-.38-.17-.78-.29-1.14-.49-.62-.33-1.18-.77-1.84-1-.41-.14-.73-.34-1.07-.59-.41-.3-.84-.57-1.28-.84l-.71-.44-.22-.14c-.11-.08-.15-.09-.41-.33l-.05-.05-.1-.11c-.08-.09-.1-.12-.2-.28-.1-.17-.19-.38-.23-.59-.02-.1-.04-.21-.05-.31v-.15c0-.09,0-.21.03-.32.07-.47.41-1,.76-1.26l.12-.09.05-.03.1-.05c.07-.04.13-.07.21-.09.14-.06.29-.1.44-.12l.13-.02h.06c.08,0,.15-.01.23,0,.15,0,.15.01.23.02.22.03.3.05.4.08l.15.03.12.05.36.17,1.72.79c.56.29,1.09.63,1.63.96.34.2.61.49.86.8.21.25.43.48.76.53.69.09,1.16.51,1.65.91,1.42,1.16,2.67,2.51,3.82,3.94.39.51.5,1.14.9,1.65.33.4.67.88.64,1.48.72,1.3,1.3,2.67,1.79,4.08.16.44.28.9.4,1.37.06.25-.02.49-.22.68-.18.27.28.31-.84.68-.13.06-.95,0-1.06-.05-.71-.38-.49-.88-.96-1.43-.34-.36-.42-.94-.67-1.36Z"/>
  </g>
</svg>