<?xml version="1.0" encoding="UTF-8"?>
<svg id="illuer_blå_bg" xmlns="http://www.w3.org/2000/svg" viewBox="0 0 284.14 244.82">
  <defs>
    <style>
      .cls-1 {
        fill: #ff9400;
      }

      .cls-2 {
        fill: #ffe6c4;
      }
    </style>
  </defs>
  <g>
    <g>
      <path class="cls-1" d="M55.75,241.31c-14.23,4.2-25.74,3.69-34.53-1.55-8.82-5.22-14.88-13.49-18.22-24.79-3.34-11.3-2.73-21.52,1.83-30.71,4.55-9.18,13.8-15.82,27.74-19.94,13.94-4.12,25.66-3.67,34.33,1.61,8.66,5.26,14.67,13.55,18.01,24.85,3.34,11.3,2.79,21.51-1.62,30.65-4.42,9.13-13.59,15.76-27.52,19.87"/>
      <path class="cls-1" d="M47.59,244.03c-.71.1-1.38.28-2.05.41-.67.12-1.34.21-2.04.18-.63-.03-1.31.31-2,.15-.42-.09-.91,0-1.36-.1-.58-.13-1.02-.07-1.7.05-.41.04-.65.09-1.51.09-.67.01-1.02-.1-1.75,0-.65.09-1.63-.29-2.31-.29-.69.02-1.27-.12-1.86-.22-.6-.1-1.21-.19-1.97-.21-.67-.05-1.31-.2-1.91-.4-.61-.19-1.18-.39-1.71-.59-.68-.26-1.37-.52-2.02-.86-.67-.31-1.32-.64-1.94-1.02-.3-.17-.57-.4-.82-.62-.52-.49-1.09-.79-1.75-1.1-.6-.3-1.68-1.07-2.6-1.88-.93-.8-1.73-1.6-1.98-1.76-.35-.22-1.67-1.37-2.84-2.63-1.17-1.26-2.19-2.6-2.33-2.82-.18-.3-.28-.6-.52-.74-.22-.52-.85-1.05-.95-1.54-.54-.98-.71-1.34-1.38-2.48-.63-1.09-.67-2.55-1.32-3.52-1.02-2.25-1.54-3.7-1.73-4.01-.33-.55-.22-.9-.52-1.46-.44-.77-.51-2.53-.72-2.7-.24-.18-.32-.71-.55-1-.46-.62-.65-1.57-.64-2.51,0-.48-.41-.93-.36-1.35.11-.76.1-1.58-.04-2.49-.26-1.95-.41-3.91-.43-5.89.01-.62.03-1.26.06-1.88.06-.62.16-1.23.32-1.8.08-.94.19-1.63.26-2.19.1-.55.17-.97.2-1.35-.03-.96.46-1.8.41-2.69-.01-1.22-.09-.98.51-2.61.21-.27.66-1.14.64-1.46.43-.81.7-1.6.76-1.66.87-1.17.32-1.12,1.34-2.28.34-.74.64-1.07.61-1.52-.02-.23.15-.53.44-.82.26-.27.42-.52.55-.86.28-.69.79-1.34,1.35-1.93.53-.62,1.13-1.19,1.52-1.83.63-.62,1.19-1.34,1.84-1.96.56-.47,1.11-.94,1.68-1.39.58-.42,1.18-.79,1.81-1.09.33-.15.88-.63,1.19-.96.51-.56,1.23-.63,1.75-1.12.61-.58,1.17-.59,1.74-.74.46-.13.89-.25,1.34-.64.65-.52,1.51-.86,2.3-1.27.82-.39,1.72-.49,2.4-.95.97-.63,2.25-.79,3.17-1.41.6-.41,1.14-.38,1.81-.66.81.17,1.76-.08,2.81-.47,1.12-.41,2.16-.91,3.46-1.03.41-.04.94-.35,1.43-.5.49-.15.99-.32,1.5-.42,1.06-.23,2.03.01,3.11-.26,1.01-.21,1.78-.26,2.8-.45.69-.1,1.99-.07,2.71-.07,1.6-.07,2.93-.52,4.37-.07.71.06,1.45.18,2.1.06.81-.13,1.65-.1,2.51.26.15.06.36.15.5.15,1.05.02,2.1.18,3.08.68.87.23,1.71.45,2.51.91.39.21.81.3,1.24.41.42.13.85.28,1.24.55.63.41,1.22.72,1.89.95.68.24,1.25.67,1.83,1.11.41.32.84.74,1.26.96,2.36,1.32,4.41,3.11,6,5.34.59.83,1.28,1.5,1.95,2.35.65.6.91,1.11.96,1.62.03.26.24.42.53.58,1.06,1.04,1.25,2.33,1.68,2.9.64.81,1.19,1.71,1.48,2.78.13.43.35,1.1.58,1.42.54.73.78,1.46,1.02,2.34.29,1.19.72,2.35,1.33,3.38.52.83.79,1.92,1.07,2.97.35,1.37.37,2.77.88,4.13.05.13.09.37.09.53,0,1.97.21,3.83.68,5.74.12.42.11,1.13.05,1.6-.2,1.61-.36,3.13-.19,4.75.03.3-.02.77-.11,1.06-.7,2.4-1.08,4.93-1.85,7.34-.6,1.93-1.37,3.77-2.4,5.5-.29.46-.53.9-.77,1.4-.56,1.34-1.41,2.55-2.47,3.52-.33.31-.64.64-.93.98-.3.33-.58.68-.82,1.05-.82,1.21-1.87,2.15-3.1,2.9-.56.37-1.21.74-1.76,1.18-.7.57-1.49,1-2.24,1.49-.77.45-1.54.9-2.26,1.41-1.5,1.01-3.18,1.6-4.76,2.39-.93.48-1.76,1.1-2.82,1.35-1.04.28-1.97.67-2.94,1.08-.87.36-1.68.34-2.46.42-.86.08-1.37-.83-.81-1.3.04-.03.35-.29.47-.29.29-.17,2.03-1.02,3.51-1.55.82-.28,1.61-.65,2.43-.8.68-.13,1.25-.41,1.8-.8.66-.46,1.43-.92,2.22-1.2,2.55-.94,4.9-2.46,7.1-4.09.7-.49,1.35-1.04,2.02-1.56.27-.2.58-.38.77-.61,1.13-1.27,2.22-2.58,3.27-3.93.99-1.38,1.96-2.8,2.63-4.35.43-.91.69-1.54.96-2.49.41-1.58,1.02-2.78,1.66-4.99.25-.55.47-1.22.7-1.81.17-.48.27-.96.29-1.46.06-2.34.28-4.76.07-7.12.05-1.41-.09-3.09-.26-4.45-.21-1.36-.42-2.4-.51-2.56-.13-.84-.27-1.68-.4-2.51-.1-.67-.18-1.33-.32-1.99-.16-.87-.47-1.66-.9-2.31-.42-.67-.75-1.42-.88-2.27-.25-1.49-.82-2.88-1.7-4.11-.9-1.22-1.55-2.52-2.15-3.94-.51-1.23-1.27-2.35-2.29-3.22-.73-.65-1.34-1.44-1.87-2.3-.27-.39-.57-.91-.87-1.15-.69-.53-1.97-1.89-2.2-1.94-.21-.06-.55-.4-.75-.59-.62-.54-1.16-1.03-1.83-1.49-.68-.48-1.43-.8-2.16-1.2-.56-.34-1.29-.69-1.66-1.04-.43-.43-.97-.64-1.49-.84-.52-.21-1.06-.36-1.57-.61-.85-.46-1.84-.76-2.8-1.05-.57-.15-1.14-.28-1.7-.37-.57-.06-1.13-.09-1.68-.06-.59.04-1.3-.07-1.96-.2-.37-.08-1.19-.13-1.95-.21-.77-.07-1.49-.09-1.68-.14-1.59-.39-3.42-.03-5.09.18-.83.13-1.62.38-2.45.5-.64.12-1.32.09-1.99.18-.45.05-.92.44-1.33.29-.52-.18-.95-.13-1.67.15-.86.36-1.61.79-2.75.97-.77.13-1.51.5-2.39.66-.94.18-2.04.46-2.93.87-1.15.49-2.3.55-3.31,1.11-.97.52-1.85.75-2.81,1.08-1.74.69-3.43,1.54-4.79,2.76-1.38,1.17-2.85,2.26-4.43,3.18-.55.36-1.1.73-1.6,1.16-.49.44-.98.89-1.44,1.4-1.25,1.36-2.32,2.86-3.57,4.17-.35.4-.51.83-.74,1.26-1.11,2.23-2.03,4.55-3.16,6.81-.32.69-.57,1.59-.72,2.42-.08.41-.14.82-.2,1.23l-.1,1.23c-.6,1.68-.59,3.68-.92,5.42-.07.36-.1.62-.03.96.09.46.2.96.2,1.43.03,2.39.62,4.73.73,7.1.24.97.58,1.91.84,2.87.5,1.64.95,3.33,1.63,4.86.4.94.74,1.8,1.11,2.75,1,2.53,2.3,4.95,3.79,7.2,1.5,2.26,3.24,4.34,5.18,6.22.59.59,1.18,1.19,1.76,1.77.48.49,1.02.93,1.57,1.23.59.29,1.16.6,1.72.96.57.34,1.15.68,1.73,1.02,3.32,1.89,7.02,3.07,10.84,3.53,1.32.16,2.55.48,3.94.46.55-.02,1.14-.03,1.72,0,.58,0,1.17.02,1.73.11,3.23-.15,6.46-.64,9.65-1.35l3.01-.72c.53-.14,1-.16,1.34-.08.52.03.68-.35,1.2.41.13.07-.19.77-.36.88-1.19.8-2.31.85-3.88,1.43-1.08.41-2.55.63-3.76.89Z"/>
    </g>
    <g>
      <path class="cls-2" d="M32.95,166.81s-3.1-8.19-12.01-9.99c-1.68-.09,6.53,1.74,10.34,6.08.08.11-.83-16.06,13.46-19.78.08-.02.17.04.17.13,0,1.74-.08,16.3-13.1,20.49"/>
      <path class="cls-2" d="M31.1,164.93c-.19-.37-.62-.53-.67-.97-.02-.21-.39-.19-.34-.46.03-.17-.12-.24-.1-.41.01-.23-.1-.31-.32-.38-.11-.06-.2-.07-.38-.25-.14-.13-.16-.25-.4-.31-.21-.04-.23-.43-.44-.5-.4-.14-.44-.52-1-.5-.4-.08-.61-.39-.88-.54-.32-.23-.62-.49-.96-.7-.08-.05-.12-.16-.16-.26-.1-.21-.27-.28-.49-.29-.41,0-1.24-.77-1.44-.73-.13.03-.61-.07-1.06-.2-.45-.13-.91-.19-.97-.24-.08-.05-.15-.15-.24-.06-.12-.15-.38,0-.46-.19-.03-.01-.05-.03-.07-.04l.16.02s-.04-.02-.04-.02c0,.11-.01-.34,0-.42,0-.15-.03-.35-.04-.43-.02-.11-.04-.19-.06-.2-.01,0,.06-.03.11-.11.03-.06.15-.21.2-.32l.23-.42s.13.07.28.12c.34.1.5.83.89.76.7.26,1.15.41,1.27.38.23-.04.22.2.45.16.31-.06.62.54.75.41.14-.14.26,0,.42-.1.33-.2.58-.01.75.27.09.15.37-.07.43.1.09.31.26.52.52.65.54.26,1.09.53,1.61.84.17.1.34.2.49.32.19.15.17.19.23.37.25.13.37.28.46.29.01,0,.02,0,.03,0,.08-.19.26.3.24-.05-.08-.53-.1-.47.02-.34.05.12.12.26.16.34.05.1.03,0-.03-.15.09.11.03-.11.05-.08.26.28-.13-.32.18-.04-.02-.14.04-.15-.2-.44-.12-.15-.14-.18-.05-.14.08.03.05-.03-.03-.11-.15-.16-.12-.14-.07-.21.04-.02.12-.32,0-.56.1-.26-.04-.56.03-.83.1-.44.15-.89.52-1.24.09-.09.06-.33,0-.49-.1-.26.25-.38.16-.63-.1-.29.2-.37.39-.5.14-.11.28-.21.21-.42-.09-.3.07-.55.14-.82.06-.28.43-.43.36-.73-.08-.42.38-.65.25-1.08-.08-.29.19-.33.23-.57.46-.03.65-.27.75-.62.1-.37.11-.79.47-1.05.11-.08.07-.33.12-.49.05-.16.09-.34.19-.48.2-.29.66-.31.8-.64.14-.31.34-.46.49-.77.1-.21.51-.4.66-.56.34-.37.33-1,.94-1.02.17-.15.41-.23.44-.51.04-.35.24-.54.57-.57.06,0,.14,0,.17-.05.17-.32.38-.61.8-.6.21-.2.44-.34.74-.39.28-.05.34-.5.68-.49.26,0,.42-.15.57-.34.15-.2.37-.27.61-.3.19-.03.33,0,.53-.15.71-.47,1.55-.82,2.35-1.04h.42c.14-.01.28-.01.35.06.18.1.35.22.51.34.07.04.13.11.22.19.08.07.1.13.15.2l.15.18s.06.06.08.1l.04.16c.21.26.18.6-.03.93-.09.16-.03.24.11.32.13.31.06.71-.03,1.02-.09.31-.2.56-.17.73.1.45.15.69-.09,1.03-.1.13-.19.33-.13.46.13.3.07.53-.08.79-.2.35-.3.72-.08,1.13.17.34.08.68-.02,1-.12.43-.51.77-.37,1.27.02.05-.02.12-.06.16-.49.49-.7,1.02-.54,1.73.03.15-.07.35-.19.46-.42.37-.66.78-.59,1.37,0,.11-.05.24-.14.31-.72.51-.91,1.3-1.35,1.97-.33.54-.65,1.09-1.17,1.48-.13.11-.26.21-.31.39-.14.47-.43.84-.92.98-.3.1-.5.3-.6.59-.18.47-.49.8-1,.88-.23.05-.46.13-.63.27-.45.34-.99.56-1.41.94-.42.4-1.03.46-1.48.81-.26.22-.45.56-.83.56-.37,0-.63.19-.93.37-.26.15-.57.02-.85-.05-.31-.07-.68-1.02-.58-1.36,0-.02.06-.21.1-.19.07-.12.49-.59.92-.75.24-.08.46-.21.74-.16.24.05.4-.06.5-.28.12-.27.33-.44.58-.47.41-.06.81-.19,1.16-.39l1-.69c.21-.14.43-.26.65-.39.08-.06.21-.06.26-.15.25-.48.59-.85.94-1.21.34-.38.65-.78.92-1.21.15-.26.3-.4.34-.72.09-.52.44-.75.85-1.3.19-.09.33-.25.51-.36.15-.09.22-.21.24-.38.08-.73.4-1.38.55-2.07.46-.72.73-1.86.68-1.98.07-.24.19-.47.31-.7.1-.18.23-.35.33-.53.12-.24.11-.5-.05-.76-.17-.27-.15-.51.05-.73.34-.39.43-.83.22-1.31-.23-.44-.14-1.03.1-1.06.22-.17.23-.47-.07-.35-.23.1-.13.02-.03-.25.03-.1.07-.25-.02-.16-.14.14-.21.14-.28.17-.03.01-.06.03-.07.07-.04.11-.07.09-.09.09-.06-.02-.14-.01-.2.02,0,0-.14.11-.22.2-.09.09-.18.19-.28.26-.16.1-.35.25-.54.19-.44-.11-.55.37-.89.44-.29.06-.55.21-.8.36-.29.18-.54.42-.63.81-.04.22-.23.3-.4.4-.19.1-.75.55-.88.57-.58.06-.77.62-1.03,1.02-.13.2-.16.48-.29.67-.1.15-.32.22-.45.36-.08.1.05.38-.19.34-.31-.05-.4.04-.42.29-.02.3.08.64-.19.85-.18.15-.14.43-.36.6-.23.18-.4.46-.46.75-.07.36-.52.51-.51.87,0,.34-.25.52-.42.77-.31.47-.47,1.01-.31,1.6.16.59.06,1.11-.3,1.59-.26.35-.34.73-.37,1.14-.02.28,0,.49-.08,1.05-.06.53-.15,1.05-.31,1.44-.1.22,0,.57-.02.85.03.23-.08.27-.16.34l-.23.18c-.14.11-.26.19-.37.25-.09.05-.18.1-.28.16h-.02s0,.01,0,.01h0s0,0,0,0h0c-.29-.68.39.93.32.77h0s0,.02,0,.02l-.02.06s-.02.07-.04.09c-.04.04-.11.04-.17.03-.21-.11-.46-.13-.79-.38-.26-.18-.53-.36-.83-.54l-.21-.15c-.39-.6-.75-.92-1.14-1.24-.18-.15-.42-.33-.52-.43-.1-.1-.18-.21-.25-.34-.05-.11-.12-.16-.24-.16-.16,0-.34.01-.46-.07-.58-.4-1.35-.47-1.83-1.09-.3-.07-.61-.11-.89-.2-.49-.15-.96-.4-1.47-.47-.31-.05-.57-.15-.85-.28-.34-.16-.68-.3-1.04-.43l-.58-.22-.18-.08c-.09-.04-.12-.04-.34-.18-.01,0-.06-.04-.13-.1-.07-.06-.09-.08-.18-.18-.1-.11-.19-.25-.25-.39-.03-.07-.06-.15-.08-.22l-.02-.11c-.01-.06-.02-.15-.02-.24-.02-.35.16-.78.38-1.01.07-.07.1-.1.11-.11l.06-.05s.09-.07.14-.1c.09-.06.2-.11.3-.15.13-.05.08-.03.14-.04l.17-.03c.11-.02.11-.01.17-.02.16,0,.22,0,.3,0h.12s.09.03.09.03l.28.07,1.35.34c.44.14.88.31,1.31.47.27.1.51.27.73.46.19.15.38.29.62.28.51-.03.91.21,1.32.44,1.19.65,2.28,1.46,3.3,2.34.35.31.52.76.88,1.07.29.25.6.55.66.98.7.84,1.3,1.76,1.85,2.71.18.3.33.61.48.94.07.17.05.36-.07.53-.09.22.25.19-.52.61-.08.06-.69.13-.77.11-.56-.18-.47-.57-.89-.9-.29-.22-.43-.62-.67-.9Z"/>
    </g>
  </g>
  <g>
    <path class="cls-1" d="M141.2,243.14c-14.83-.44-25.61-4.51-32.33-12.23-6.75-7.71-9.94-17.45-9.59-29.23.35-11.78,4.11-21.3,11.31-28.61,7.18-7.31,18.04-10.74,32.57-10.31,14.52.43,25.52,4.51,32.12,12.22,6.59,7.7,9.72,17.45,9.37,29.22-.35,11.78-4.05,21.31-11.09,28.62-7.04,7.3-17.83,10.74-32.34,10.31"/>
    <path class="cls-1" d="M132.61,243.19c-.71-.12-1.4-.16-2.07-.25-.67-.1-1.34-.22-1.99-.46-.59-.22-1.34-.12-1.95-.48-.37-.22-.87-.28-1.26-.52-.51-.31-.95-.38-1.63-.48-.4-.09-.65-.12-1.47-.38-.64-.2-.93-.41-1.66-.55-.64-.11-1.46-.78-2.1-.99-.66-.2-1.17-.51-1.7-.79-.54-.28-1.08-.56-1.81-.81-.62-.25-1.18-.6-1.69-.98-.52-.37-1-.73-1.44-1.1-.57-.46-1.14-.92-1.65-1.44-.54-.5-1.05-1.02-1.53-1.57-.23-.26-.42-.56-.59-.84-.34-.63-.79-1.09-1.32-1.58-.48-.47-1.26-1.54-1.88-2.6-.63-1.05-1.14-2.06-1.34-2.29-.26-.32-1.16-1.83-1.88-3.38-.72-1.56-1.27-3.15-1.34-3.4-.08-.34-.08-.65-.27-.87-.05-.56-.48-1.27-.42-1.76-.2-1.1-.26-1.5-.53-2.79-.26-1.23.16-2.63-.16-3.75-.27-2.46-.31-4-.4-4.35-.14-.63.07-.92-.04-1.55-.18-.87.3-2.57.16-2.79-.17-.24-.08-.77-.21-1.12-.25-.73-.13-1.69.17-2.58.15-.46-.1-1.01.08-1.39.34-.68.59-1.47.74-2.38.36-1.93.83-3.85,1.43-5.73.21-.59.42-1.19.65-1.76.25-.57.54-1.11.86-1.61.37-.87.69-1.49.93-2,.27-.49.46-.87.62-1.22.28-.92,1-1.57,1.23-2.42.37-1.16.22-.96,1.3-2.33.29-.19.98-.88,1.06-1.19.66-.63,1.16-1.3,1.24-1.34,1.19-.84.66-.96,1.99-1.75.56-.59.94-.82,1.05-1.26.06-.23.31-.46.67-.64.33-.18.56-.37.79-.65.48-.57,1.16-1.02,1.88-1.41.7-.42,1.44-.78,2.02-1.27.8-.4,1.55-.9,2.36-1.29.68-.28,1.35-.55,2.02-.8.68-.21,1.37-.38,2.06-.48.36-.04,1.04-.32,1.43-.54.66-.37,1.37-.22,2.01-.52.76-.36,1.29-.2,1.89-.16.47.02.92.04,1.47-.19.78-.29,1.71-.35,2.58-.49.9-.12,1.79.07,2.58-.16,1.12-.3,2.38-.05,3.45-.36.7-.2,1.21,0,1.93-.06.72.41,1.69.47,2.81.43,1.19-.04,2.33-.2,3.61.1.4.09,1-.04,1.52-.03.51,0,1.04,0,1.56.07,1.08.11,1.93.64,3.03.72,1.03.12,1.77.31,2.8.45.69.12,1.91.56,2.6.78,1.54.43,2.95.42,4.18,1.3.66.28,1.33.62,1.98.71.81.13,1.6.42,2.31,1.03.13.1.3.25.42.3,1,.34,1.94.83,2.72,1.6.75.49,1.48.96,2.1,1.64.3.32.68.53,1.05.78.36.26.72.53,1.01.91.47.59.94,1.07,1.5,1.5.58.44.98,1.02,1.39,1.63.29.43.57.97.9,1.31,1.83,1.99,3.22,4.33,4.04,6.94.3.98.75,1.82,1.12,2.84.43.77.51,1.34.4,1.84-.05.25.1.48.32.72.68,1.32.46,2.6.69,3.28.36.97.59,2,.54,3.1-.01.45-.01,1.15.11,1.53.28.87.29,1.63.24,2.54-.09,1.22-.05,2.45.21,3.63.24.95.16,2.07.1,3.16-.1,1.41-.51,2.75-.45,4.2,0,.14-.03.37-.08.53-.61,1.88-.99,3.7-1.14,5.67-.01.44-.25,1.11-.45,1.53-.7,1.47-1.32,2.86-1.66,4.46-.06.29-.26.72-.43.98-1.41,2.06-2.57,4.35-4.05,6.4-1.17,1.65-2.48,3.16-3.99,4.48-.42.35-.79.69-1.16,1.09-.95,1.1-2.14,1.98-3.45,2.58-.41.19-.81.41-1.19.65-.39.22-.76.47-1.1.74-1.16.9-2.45,1.46-3.85,1.79-.64.18-1.38.33-2.04.58-.84.33-1.73.49-2.59.72-.87.19-1.74.38-2.59.63-1.74.49-3.52.53-5.27.79-1.03.17-2.02.5-3.1.41-1.08-.06-2.08.03-3.13.11-.94.07-1.7-.2-2.46-.37-.84-.19-1.05-1.22-.37-1.49.04-.02.43-.17.53-.13.33-.07,2.25-.34,3.82-.38.87,0,1.73-.12,2.56,0,.68.09,1.32,0,1.96-.2.77-.23,1.65-.43,2.48-.45,2.72-.1,5.42-.81,8.02-1.67.82-.25,1.61-.56,2.41-.86.31-.11.67-.18.92-.34,1.47-.85,2.91-1.76,4.33-2.71,1.37-1.01,2.74-2.05,3.86-3.32.69-.74,1.13-1.25,1.69-2.06.88-1.38,1.84-2.33,3.13-4.23.41-.45.83-1.01,1.23-1.51.31-.4.56-.83.74-1.3.79-2.2,1.74-4.44,2.28-6.75.49-1.33.88-2.96,1.14-4.31.22-1.35.35-2.41.32-2.59.13-.84.27-1.68.4-2.51.11-.67.24-1.32.31-1.99.12-.88.07-1.73-.14-2.47-.19-.77-.27-1.58-.13-2.43.22-1.5.11-2.99-.34-4.44-.48-1.44-.69-2.88-.81-4.41-.1-1.33-.47-2.63-1.17-3.77-.49-.84-.82-1.79-1.06-2.77-.13-.45-.26-1.05-.47-1.36-.49-.72-1.28-2.41-1.48-2.53-.18-.12-.4-.55-.53-.8-.42-.71-.78-1.34-1.27-1.99-.49-.66-1.11-1.2-1.68-1.81-.43-.5-1.01-1.06-1.25-1.51-.28-.55-.72-.91-1.15-1.27-.43-.37-.9-.67-1.3-1.07-.67-.7-1.51-1.29-2.33-1.87-.5-.32-1-.62-1.5-.88-.52-.24-1.05-.44-1.58-.58-.57-.14-1.21-.47-1.8-.8-.33-.19-1.09-.49-1.78-.81-.7-.31-1.39-.55-1.55-.66-1.39-.87-3.24-1.1-4.89-1.42-.83-.14-1.66-.14-2.48-.29-.65-.09-1.28-.33-1.94-.44-.44-.09-1.01.14-1.36-.14-.44-.33-.86-.42-1.64-.38-.93.08-1.78.25-2.92.07-.77-.12-1.59,0-2.47-.12-.95-.12-2.08-.2-3.06-.09-1.24.1-2.36-.2-3.49.02-1.09.19-1.99.14-3,.15-1.87.11-3.74.4-5.41,1.13-1.68.68-3.41,1.26-5.2,1.64-.64.17-1.27.36-1.88.6-.6.27-1.21.54-1.81.88-1.61.9-3.1,2-4.69,2.85-.46.27-.74.63-1.09.96-1.75,1.77-3.35,3.69-5.12,5.49-.52.56-1.04,1.33-1.44,2.07-.21.37-.39.74-.57,1.11l-.48,1.14c-1.09,1.41-1.7,3.31-2.56,4.87-.18.32-.29.56-.32.91-.06.46-.11.98-.26,1.42-.71,2.28-.88,4.68-1.52,6.98-.07.99-.04,1.99-.1,2.99-.04,1.71-.14,3.46.04,5.13.09,1.02.15,1.94.2,2.96.16,2.72.64,5.42,1.36,8.03.72,2.61,1.73,5.13,2.99,7.52.37.74.75,1.49,1.12,2.23.3.61.68,1.2,1.11,1.66.47.46.92.94,1.34,1.45.44.5.88,1,1.33,1.51,2.57,2.83,5.72,5.1,9.2,6.73,1.2.56,2.28,1.25,3.61,1.67.53.15,1.09.33,1.64.53.56.18,1.1.39,1.61.65,3.12.86,6.34,1.41,9.59,1.73l3.08.25c.54.03,1,.16,1.3.34.48.19.76-.12,1.02.76.11.11-.42.67-.62.73-1.38.39-2.46.08-4.13.15-1.16.05-2.62-.19-3.85-.32Z"/>
  </g>
  <g>
    <g>
      <path class="cls-1" d="M237.32,240.46c-14.79-1.14-25.37-5.71-31.72-13.74-6.38-8.01-9.11-17.9-8.2-29.65.9-11.75,5.1-21.09,12.64-28.05,7.52-6.96,18.53-9.88,33.02-8.76,14.49,1.11,25.28,5.7,31.51,13.72,6.22,8,8.89,17.88,7.99,29.63-.9,11.75-5.05,21.09-12.42,28.06-7.37,6.96-18.31,9.89-32.79,8.78"/>
      <path class="cls-1" d="M228.73,240.1c-.7-.16-1.39-.23-2.06-.35-.67-.13-1.33-.28-1.97-.55-.58-.25-1.34-.18-1.92-.57-.36-.23-.85-.32-1.23-.58-.5-.33-.93-.43-1.6-.56-.39-.11-.64-.15-1.45-.45-.63-.23-.91-.45-1.63-.63-.64-.15-1.42-.85-2.05-1.09-.65-.23-1.15-.56-1.66-.87-.52-.3-1.06-.61-1.77-.9-.6-.28-1.15-.65-1.64-1.05-.5-.39-.97-.78-1.39-1.16-.54-.49-1.09-.98-1.58-1.52-.51-.52-1-1.07-1.45-1.64-.22-.27-.39-.58-.54-.87-.31-.64-.74-1.13-1.24-1.65-.46-.49-1.18-1.6-1.76-2.68-.58-1.08-1.05-2.11-1.23-2.35-.25-.33-1.07-1.88-1.72-3.47-.65-1.59-1.12-3.2-1.17-3.46-.06-.34-.05-.66-.23-.88-.02-.56-.42-1.29-.34-1.77-.15-1.11-.19-1.51-.4-2.81-.2-1.25.29-2.62.01-3.76-.15-2.47-.13-4.01-.19-4.36-.11-.64.11-.92.03-1.55-.14-.88.42-2.55.29-2.78-.16-.25-.05-.78-.15-1.13-.21-.74-.05-1.7.29-2.57.17-.45-.05-1.02.15-1.39.37-.67.66-1.44.85-2.34.45-1.91,1.01-3.8,1.7-5.65.24-.58.47-1.17.73-1.73.28-.56.59-1.09.94-1.56.41-.85.76-1.46,1.02-1.95.29-.48.5-.84.67-1.19.32-.91,1.07-1.52,1.34-2.36.42-1.14.27-.94,1.41-2.26.29-.18,1.02-.83,1.12-1.14.69-.6,1.22-1.24,1.3-1.28,1.23-.78.7-.93,2.07-1.65.58-.57.98-.77,1.11-1.21.07-.22.33-.44.7-.61.34-.16.58-.34.82-.61.51-.55,1.21-.97,1.95-1.32.72-.39,1.47-.71,2.08-1.17.81-.36,1.59-.83,2.42-1.18.69-.24,1.38-.48,2.06-.7.69-.18,1.39-.32,2.08-.38.36-.03,1.05-.27,1.45-.47.68-.34,1.38-.15,2.04-.42.78-.33,1.3-.14,1.89-.07.47.05.92.08,1.48-.12.79-.25,1.72-.27,2.6-.37.91-.07,1.78.15,2.59-.04,1.13-.24,2.38.06,3.46-.19.71-.17,1.21.05,1.93.03.7.45,1.67.55,2.79.56,1.19.02,2.34-.09,3.6.27.39.11,1,0,1.52.04.51.03,1.04.06,1.55.14,1.07.17,1.89.73,3,.86,1.02.16,1.76.39,2.78.58.68.15,1.89.65,2.56.9,1.52.5,2.93.55,4.11,1.49.64.31,1.3.68,1.94.81.8.17,1.58.49,2.26,1.13.12.11.29.27.41.32.98.39,1.9.92,2.64,1.73.73.52,1.43,1.03,2.02,1.74.29.33.65.57,1.01.83.35.27.69.56.96.96.44.61.88,1.11,1.43,1.57.56.46.93,1.07,1.31,1.69.27.44.52.99.83,1.35,1.74,2.07,3.02,4.48,3.71,7.12.25.99.66,1.86.99,2.89.39.79.45,1.36.32,1.85-.06.25.07.48.29.73.62,1.35.34,2.62.54,3.31.31.99.5,2.02.4,3.12-.03.45-.06,1.15.04,1.53.24.88.21,1.64.12,2.55-.15,1.22-.17,2.45.04,3.63.19.96.06,2.08-.05,3.16-.16,1.4-.64,2.72-.64,4.17,0,.14-.05.37-.11.52-.7,1.84-1.17,3.65-1.41,5.61-.03.44-.3,1.09-.52,1.51-.76,1.43-1.45,2.79-1.87,4.37-.08.29-.3.71-.48.95-1.51,1.99-2.77,4.22-4.34,6.21-1.25,1.59-2.62,3.04-4.2,4.28-.44.33-.82.65-1.21,1.03-1.01,1.06-2.23,1.88-3.56,2.41-.42.17-.82.37-1.22.59-.4.2-.78.43-1.14.69-1.2.84-2.51,1.35-3.93,1.61-.65.15-1.4.26-2.06.48-.86.29-1.75.41-2.62.6-.88.14-1.76.3-2.62.51-1.76.41-3.54.36-5.3.54-1.04.12-2.04.41-3.12.26-1.07-.11-2.08-.07-3.13-.04-.94.03-1.69-.28-2.44-.48-.83-.23-.99-1.26-.3-1.5.04-.02.43-.15.54-.11.33-.05,2.26-.23,3.84-.2.87.03,1.73-.03,2.55.11.68.12,1.31.06,1.96-.11.78-.2,1.67-.35,2.5-.33,2.72.02,5.46-.55,8.09-1.29.83-.21,1.63-.49,2.45-.74.32-.09.68-.15.94-.29,1.51-.78,2.99-1.62,4.45-2.51,1.42-.94,2.83-1.92,4.01-3.13.72-.7,1.19-1.19,1.78-1.98.94-1.33,1.95-2.24,3.33-4.07.43-.43.87-.97,1.3-1.45.33-.39.59-.8.8-1.26.89-2.16,1.95-4.35,2.6-6.63.55-1.3,1.02-2.92,1.34-4.25.29-1.34.46-2.39.44-2.58.17-.83.35-1.66.52-2.49.14-.66.3-1.3.41-1.97.16-.87.15-1.72-.02-2.48-.16-.78-.19-1.59-.02-2.44.29-1.48.25-2.98-.13-4.45-.41-1.46-.55-2.91-.61-4.44-.04-1.34-.35-2.65-.99-3.82-.45-.87-.74-1.82-.93-2.82-.11-.46-.21-1.06-.41-1.38-.45-.74-1.16-2.47-1.36-2.6-.17-.13-.37-.57-.49-.82-.39-.73-.72-1.37-1.18-2.04-.46-.69-1.05-1.26-1.59-1.89-.4-.52-.96-1.1-1.18-1.56-.25-.56-.67-.94-1.09-1.32-.41-.39-.87-.71-1.25-1.13-.63-.74-1.45-1.36-2.24-1.98-.48-.34-.97-.67-1.46-.95-.51-.26-1.03-.49-1.55-.65-.57-.17-1.19-.53-1.76-.88-.32-.2-1.06-.54-1.74-.89-.69-.34-1.36-.61-1.52-.73-1.35-.93-3.18-1.25-4.82-1.65-.82-.18-1.65-.22-2.47-.4-.64-.12-1.27-.39-1.92-.54-.44-.11-1.02.09-1.35-.2-.42-.35-.84-.46-1.62-.45-.93.03-1.79.16-2.92-.07-.76-.15-1.59-.07-2.46-.24-.94-.17-2.07-.3-3.05-.23-1.25.05-2.35-.31-3.49-.14-1.09.14-2,.04-3.01,0-1.87.02-3.75.22-5.46.88-1.71.6-3.47,1.1-5.27,1.4-.65.14-1.29.3-1.91.51-.61.24-1.24.49-1.84.79-1.65.82-3.19,1.85-4.82,2.63-.47.25-.77.59-1.14.91-1.84,1.69-3.52,3.53-5.37,5.24-.54.53-1.1,1.28-1.53,2-.22.35-.43.72-.62,1.08l-.54,1.12c-1.16,1.36-1.86,3.23-2.79,4.74-.19.31-.31.55-.37.89-.08.46-.15.97-.32,1.41-.82,2.24-1.1,4.64-1.84,6.9-.12.99-.13,1.99-.24,2.98-.12,1.71-.3,3.45-.2,5.12.04,1.02.06,1.95.06,2.97.03,2.72.39,5.44.98,8.08.6,2.64,1.49,5.21,2.63,7.65.34.76.68,1.53,1.02,2.28.27.62.63,1.24,1.03,1.71.45.48.87.98,1.27,1.51.41.52.83,1.04,1.26,1.57,2.43,2.95,5.47,5.37,8.88,7.16,1.17.62,2.22,1.36,3.52,1.83.53.18,1.07.38,1.61.61.55.2,1.08.44,1.58.72,3.07,1.01,6.26,1.7,9.5,2.18l3.07.4c.54.06.99.2,1.28.4.47.22.76-.08.98.81.1.11-.45.65-.65.7-1.39.33-2.46-.03-4.13-.04-1.16,0-2.61-.31-3.83-.5Z"/>
    </g>
    <g>
      <path class="cls-2" d="M242.52,162.73s.02-8.76-7.67-13.61c-1.54-.69,5.49,3.95,7.5,9.36.04.13,4.93-15.3,19.62-13.7.09,0,.14.1.11.18-.62,1.63-5.87,15.2-19.53,14.49"/>
      <path class="cls-2" d="M241.46,160.32c-.05-.41-.4-.71-.28-1.15.06-.2-.29-.31-.15-.55.09-.15-.02-.27.05-.42.09-.21.02-.32-.16-.46-.08-.1-.17-.14-.27-.37-.08-.17-.06-.29-.26-.43-.18-.12-.07-.48-.23-.62-.32-.27-.22-.64-.75-.82-.35-.22-.43-.58-.63-.81-.22-.33-.41-.68-.64-1-.05-.08-.05-.2-.06-.3-.01-.24-.16-.36-.36-.44-.39-.14-.88-1.16-1.09-1.2-.14-.02-.54-.29-.92-.56-.37-.28-.78-.5-.82-.57-.06-.08-.08-.19-.2-.14-.06-.19-.35-.14-.36-.35-.02-.02-.04-.04-.05-.06l.14.07s-.03-.03-.03-.04c-.04.11.11-.32.14-.4.05-.14.09-.34.12-.41.02-.11.03-.2.01-.21-.01,0,.07,0,.15-.06.05-.04.21-.14.3-.23l.36-.31s.09.11.22.21c.28.21.17.96.57,1.02.56.5.93.79,1.05.81.23.04.13.27.36.31.31.06.39.73.55.65.18-.08.25.08.43.05.38-.07.54.19.6.52.03.17.37.07.36.25-.02.32.06.58.26.79.41.44.83.88,1.21,1.36.12.15.24.3.34.47.12.2.09.24.08.42.19.21.25.39.33.44.01.01.02.01.03.02.14-.15.13.37.24.04.12-.52.08-.47.14-.31,0,.13.02.29.03.38.01.12.03,0,.03-.15.05.14.07-.09.07-.06.14.36-.01-.35.18.03.03-.14.09-.12-.03-.48-.06-.18-.07-.21,0-.15.06.06.06,0,.01-.11-.09-.21-.06-.18,0-.23.04,0,.23-.25.21-.52.19-.21.16-.54.32-.77.25-.37.46-.78.92-.97.12-.05.17-.29.17-.45,0-.28.37-.27.38-.53.01-.31.32-.27.54-.33.17-.05.33-.1.35-.32.02-.31.26-.49.42-.72.16-.24.55-.25.6-.55.07-.42.59-.47.62-.92.02-.3.3-.24.42-.45.44.13.71-.02.92-.32.22-.31.38-.7.82-.81.13-.03.18-.28.29-.42.1-.13.2-.29.34-.38.29-.19.73-.05.98-.31.24-.24.48-.32.73-.54.17-.16.62-.19.82-.29.45-.22.67-.82,1.24-.62.21-.08.47-.07.59-.32.16-.31.41-.42.74-.33.06.02.14.04.17.01.28-.24.58-.43.96-.28.27-.11.54-.16.83-.1.28.05.5-.34.81-.22.25.09.45.01.66-.12.21-.14.44-.13.68-.06.19.04.31.11.55.05.74-.17,1.57-.22,2.28-.13.32.07.69.14.93.27.15.18.29.37.41.56.05.06.08.15.13.25.05.09.05.16.07.24l.08.23s.03.07.04.12l-.02.17c.11.32-.05.63-.36.86-.14.12-.12.22,0,.34.01.34-.19.69-.39.94-.2.26-.39.45-.42.63-.06.45-.11.7-.45.93-.14.08-.3.24-.29.38.02.32-.12.52-.36.7-.31.25-.53.56-.48,1.03.04.38-.17.66-.37.93-.26.36-.75.53-.8,1.05,0,.05-.06.1-.11.12-.63.28-1.01.71-1.12,1.42-.03.15-.19.31-.34.37-.53.2-.89.5-1.04,1.07-.03.1-.13.21-.24.24-.85.22-1.31.89-1.96,1.37-.5.39-1,.79-1.62.97-.16.06-.32.1-.43.25-.3.39-.7.63-1.21.59-.31,0-.58.1-.77.33-.34.37-.74.57-1.25.47-.23-.04-.48-.04-.69.03-.55.16-1.12.17-1.65.37-.54.23-1.13.06-1.67.23-.32.12-.62.37-.97.23-.35-.14-.66-.04-1,.01-.3.05-.54-.19-.77-.35-.26-.17-.27-1.2-.06-1.48.01-.02.13-.18.16-.14.1-.08.67-.38,1.12-.37.25,0,.5-.03.75.12.21.13.39.09.57-.08.21-.21.46-.29.71-.24.41.09.83.11,1.22.05l1.18-.29c.25-.06.5-.09.75-.13.09-.03.22.02.29-.04.4-.36.85-.58,1.31-.79.45-.23.88-.5,1.29-.8.24-.19.42-.26.58-.55.27-.46.67-.55,1.25-.91.21-.02.4-.12.61-.16.17-.03.29-.12.36-.27.34-.66.86-1.14,1.25-1.74.68-.51,1.34-1.48,1.34-1.61.16-.2.35-.37.54-.54.15-.14.34-.25.5-.38.2-.18.28-.43.22-.73-.06-.31.04-.53.3-.66.46-.24.69-.63.67-1.14-.06-.49.24-1.01.47-.96.26-.08.38-.35.06-.35-.25.01-.13-.02.06-.25.07-.08.16-.2.04-.15-.25.12-.32,0-.42.09-.08.09-.1.06-.12.05-.05-.04-.13-.06-.2-.05,0,0-.17.05-.27.11-.12.06-.23.12-.35.14-.19.04-.42.1-.57-.01-.37-.26-.65.15-.99.1-.29-.05-.59,0-.88.05-.34.07-.66.2-.88.53-.12.19-.32.2-.52.23-.22.03-.9.24-1.03.22-.56-.15-.94.3-1.33.59-.2.14-.32.39-.51.53-.15.11-.38.09-.55.18-.11.06-.09.37-.3.24-.27-.16-.39-.1-.5.12-.13.27-.15.62-.48.73-.22.07-.29.35-.55.44-.28.09-.54.29-.69.53-.19.31-.66.29-.79.63-.12.32-.42.4-.67.58-.46.33-.8.77-.86,1.39-.06.61-.34,1.06-.84,1.38-.36.23-.58.56-.75.94-.12.26-.18.46-.45.96-.24.47-.52.93-.81,1.24-.17.17-.2.53-.32.78-.06.23-.17.23-.28.26l-.28.09c-.17.05-.31.08-.44.1-.1.02-.21.03-.31.05h-.02s0,0,0,0h0c-.02-.74.03,1.01.03.83h0s0,.02,0,.02l-.04.05s-.05.05-.07.07c-.05.02-.12,0-.17-.03-.16-.18-.38-.29-.61-.64-.18-.26-.37-.53-.58-.8l-.14-.22c-.15-.7-.38-1.13-.63-1.56-.11-.2-.28-.45-.33-.58-.06-.13-.1-.26-.11-.41-.01-.12-.06-.19-.17-.23-.15-.06-.32-.11-.4-.23-.4-.59-1.09-.92-1.32-1.67-.25-.17-.53-.32-.76-.5-.4-.32-.75-.71-1.21-.96-.28-.15-.48-.34-.7-.57-.26-.27-.53-.52-.82-.78l-.46-.41-.14-.13c-.07-.07-.1-.08-.25-.29,0,0-.04-.06-.09-.14-.04-.08-.06-.11-.11-.23-.05-.14-.09-.3-.09-.46,0-.08,0-.16,0-.23l.02-.11c.01-.06.03-.15.06-.23.11-.33.42-.67.72-.81.09-.04.13-.06.14-.06l.08-.03c.05-.02.11-.03.16-.04.11-.02.22-.03.33-.03.14,0,.09,0,.14,0l.17.03c.11.03.11.03.17.05.16.05.21.08.28.11l.11.04.08.05.24.17,1.14.8c.37.28.71.6,1.06.91.22.19.38.44.52.69.12.21.25.41.48.49.49.15.78.52,1.08.88.88,1.03,1.61,2.17,2.25,3.36.21.42.21.89.44,1.31.19.33.37.73.27,1.15.35,1.04.59,2.11.76,3.19.06.34.09.69.11,1.04,0,.19-.08.35-.25.47-.16.17.16.27-.7.38-.1.03-.69-.12-.76-.17-.46-.37-.24-.7-.51-1.16-.2-.31-.18-.74-.3-1.08Z"/>
    </g>
  </g>
  <g>
    <g>
      <path class="cls-1" d="M143.08,100.14c-14.78,1.27-25.96-1.53-33.53-8.43-7.59-6.88-11.88-16.19-12.89-27.93-1.01-11.74,1.63-21.64,7.94-29.72,6.29-8.08,16.69-12.74,31.17-13.99,14.48-1.24,25.87,1.54,33.31,8.45,7.44,6.89,11.67,16.21,12.67,27.95,1.01,11.74-1.57,21.63-7.72,29.7-6.15,8.06-16.47,12.72-30.94,13.97"/>
      <path class="cls-1" d="M134.55,101.18c-.72-.04-1.41,0-2.09,0-.68-.02-1.36-.06-2.03-.23-.61-.15-1.35.04-1.99-.25-.39-.17-.89-.18-1.31-.37-.54-.25-.99-.27-1.67-.29-.4-.05-.66-.04-1.5-.21-.66-.12-.98-.3-1.71-.36-.65-.04-1.54-.61-2.2-.74-.68-.12-1.22-.37-1.78-.59-.57-.21-1.14-.43-1.89-.6-.64-.18-1.24-.46-1.79-.78-.56-.31-1.08-.61-1.56-.92-.62-.4-1.23-.79-1.81-1.25-.59-.43-1.16-.89-1.7-1.39-.26-.23-.48-.51-.68-.77-.41-.58-.91-1-1.49-1.42-.53-.41-1.43-1.39-2.17-2.36-.75-.97-1.37-1.91-1.59-2.12-.3-.29-1.36-1.68-2.26-3.15-.9-1.46-1.62-2.98-1.72-3.22-.12-.33-.16-.64-.36-.83-.11-.55-.62-1.2-.62-1.7-.33-1.07-.43-1.46-.85-2.71-.4-1.2-.14-2.64-.59-3.71-.55-2.41-.77-3.94-.89-4.27-.22-.61-.04-.92-.22-1.54-.28-.84,0-2.58-.16-2.79-.2-.22-.17-.76-.34-1.09-.33-.7-.32-1.67-.13-2.58.1-.47-.22-.99-.08-1.39.26-.72.41-1.52.46-2.45.14-1.96.38-3.92.76-5.85.14-.61.28-1.23.44-1.83.18-.6.4-1.17.67-1.7.27-.9.51-1.56.69-2.09.21-.52.36-.91.47-1.29.17-.95.81-1.67.94-2.55.23-1.19.11-.98,1.02-2.46.26-.22.87-.99.92-1.31.59-.71,1-1.42,1.07-1.47,1.09-.97.54-1.03,1.77-1.97.48-.65.84-.92.9-1.37.03-.23.25-.49.59-.72.31-.22.51-.43.71-.74.41-.62,1.04-1.15,1.71-1.62.65-.5,1.34-.94,1.86-1.49.75-.48,1.44-1.08,2.2-1.56.64-.35,1.28-.7,1.92-1.02.65-.29,1.32-.54,1.99-.71.36-.08.99-.44,1.36-.7.62-.45,1.34-.37,1.94-.74.71-.45,1.26-.35,1.86-.38.47-.03.92-.07,1.44-.36.74-.38,1.66-.54,2.5-.78.88-.22,1.78-.14,2.55-.45,1.08-.42,2.36-.33,3.39-.75.67-.28,1.2-.15,1.91-.28.76.33,1.74.27,2.84.11,1.17-.18,2.29-.46,3.59-.32.4.04.99-.16,1.5-.2.51-.05,1.04-.11,1.56-.11,1.08-.01,1.99.42,3.1.36,1.03,0,1.8.1,2.83.12.7.04,1.96.33,2.67.48,1.58.25,2.98.07,4.3.81.68.2,1.39.46,2.04.48.82.04,1.64.23,2.41.75.14.09.33.22.46.25,1.03.23,2.02.6,2.88,1.28.81.4,1.58.79,2.28,1.39.34.28.74.45,1.13.65.39.21.78.44,1.1.79.54.53,1.05.95,1.67,1.31.62.37,1.09.9,1.57,1.46.33.39.68.9,1.04,1.19,2.05,1.76,3.7,3.93,4.81,6.43.41.93.95,1.73,1.44,2.69.52.72.67,1.27.61,1.78-.02.26.15.46.4.68.83,1.23.76,2.53,1.07,3.18.47.92.82,1.91.9,3.02.04.45.12,1.15.29,1.51.38.83.47,1.59.53,2.5.05,1.23.23,2.44.63,3.58.35.92.39,2.04.46,3.12.07,1.41-.19,2.79.04,4.22.02.14.01.38-.02.53-.39,1.93-.56,3.79-.48,5.76.04.44-.12,1.13-.27,1.57-.52,1.54-.98,2.99-1.14,4.62-.03.3-.18.75-.32,1.02-1.16,2.21-2.05,4.61-3.28,6.83-.97,1.77-2.1,3.42-3.45,4.91-.38.4-.7.78-1.03,1.22-.82,1.2-1.89,2.21-3.13,2.96-.39.23-.75.5-1.11.78-.36.26-.7.55-1.01.86-1.05,1.02-2.26,1.74-3.62,2.22-.62.25-1.34.49-1.96.81-.8.42-1.66.69-2.49,1.02-.85.28-1.69.58-2.5.93-1.67.69-3.43.93-5.14,1.39-1,.28-1.94.73-3.03.76-1.08.06-2.06.27-3.1.47-.92.18-1.71,0-2.49-.08-.86-.09-1.18-1.09-.54-1.43.04-.02.4-.22.51-.19.32-.11,2.19-.59,3.75-.82.86-.11,1.71-.31,2.54-.3.69,0,1.31-.15,1.92-.43.74-.32,1.59-.62,2.41-.73,2.69-.42,5.3-1.43,7.78-2.59.78-.34,1.53-.74,2.29-1.13.3-.14.65-.26.88-.44,1.37-1.02,2.69-2.09,3.98-3.19,1.24-1.16,2.48-2.35,3.45-3.74.6-.81.98-1.37,1.44-2.25.72-1.47,1.56-2.52,2.62-4.56.36-.49.7-1.1,1.05-1.64.27-.43.46-.88.58-1.38.53-2.28,1.22-4.61,1.49-6.96.33-1.37.53-3.05.64-4.41.07-1.37.07-2.44.01-2.61.04-.85.07-1.7.11-2.54.03-.67.09-1.33.08-2.01.02-.89-.13-1.72-.42-2.44-.28-.75-.45-1.54-.41-2.4.05-1.51-.23-2.98-.85-4.37-.64-1.37-1.01-2.78-1.32-4.29-.26-1.31-.77-2.56-1.59-3.61-.58-.78-1.02-1.68-1.37-2.63-.18-.43-.38-1.01-.63-1.3-.57-.66-1.55-2.25-1.76-2.34-.19-.1-.46-.5-.62-.73-.5-.65-.93-1.24-1.49-1.83-.57-.6-1.24-1.07-1.88-1.6-.48-.45-1.12-.93-1.42-1.35-.34-.51-.82-.82-1.29-1.13-.47-.31-.97-.56-1.42-.91-.74-.62-1.65-1.11-2.53-1.59-.53-.26-1.06-.51-1.6-.71-.55-.17-1.09-.31-1.63-.39-.59-.08-1.26-.33-1.88-.59-.35-.15-1.14-.36-1.87-.6-.74-.22-1.44-.39-1.62-.48-1.48-.7-3.34-.72-5.03-.84-.84-.04-1.67.05-2.5,0-.65-.01-1.31-.18-1.98-.22-.45-.04-.99.25-1.36.02-.48-.28-.9-.32-1.67-.19-.92.18-1.74.45-2.89.4-.78-.03-1.58.19-2.47.17-.96-.01-2.09.04-3.05.26-1.22.25-2.37.07-3.47.42-1.06.31-1.97.36-2.96.49-1.85.33-3.67.82-5.25,1.75-1.59.87-3.24,1.65-4.98,2.23-.62.24-1.22.5-1.8.81-.57.34-1.14.68-1.69,1.08-1.5,1.08-2.84,2.34-4.33,3.37-.42.32-.66.71-.97,1.08-1.54,1.96-2.9,4.05-4.45,6.04-.45.61-.88,1.45-1.19,2.22-.16.39-.3.78-.44,1.17l-.35,1.19c-.92,1.53-1.31,3.48-1.98,5.13-.14.34-.22.59-.22.94,0,.47,0,.98-.09,1.44-.45,2.34-.34,4.76-.7,7.11.04,1,.19,1.98.25,2.98.16,1.7.26,3.45.63,5.09.21,1,.37,1.91.54,2.92.47,2.68,1.26,5.3,2.27,7.82,1.02,2.51,2.31,4.9,3.83,7.13.46.7.92,1.4,1.37,2.09.37.57.82,1.12,1.3,1.52.52.4,1.02.82,1.5,1.28.49.44.99.89,1.49,1.35,2.88,2.52,6.27,4.41,9.92,5.63,1.26.42,2.41.98,3.77,1.24.55.09,1.12.2,1.69.34.57.11,1.14.26,1.67.46,3.2.5,6.46.67,9.72.61l3.09-.1c.54-.03,1.01.04,1.33.19.5.14.74-.2,1.1.64.12.09-.34.71-.53.79-1.32.55-2.43.37-4.08.62-1.14.19-2.62.11-3.86.12Z"/>
    </g>
    <g>
      <path class="cls-2" d="M135.65,22.59s-1.39-8.65-9.77-12.19c-1.63-.43,6.05,3.01,8.91,8.03.06.12,2.39-15.9,17.15-16.69.09,0,.16.07.14.16-.35,1.71-3.34,15.95-16.93,17.46"/>
      <path class="cls-2" d="M134.21,20.38c-.12-.4-.51-.64-.46-1.09.02-.21-.34-.26-.24-.52.06-.16-.06-.26-.02-.42.06-.22-.04-.32-.24-.43-.1-.08-.19-.11-.32-.32-.11-.16-.1-.28-.33-.38-.2-.08-.14-.47-.33-.57-.36-.22-.32-.59-.88-.69-.38-.16-.51-.5-.76-.7-.27-.29-.51-.61-.8-.88-.06-.07-.08-.18-.11-.29-.05-.23-.21-.33-.42-.38-.41-.08-1.06-1.01-1.27-1.01-.14,0-.58-.2-1-.41-.41-.22-.85-.37-.9-.43-.07-.07-.11-.18-.22-.11-.09-.17-.37-.08-.42-.28-.02-.02-.04-.04-.06-.05l.15.05s-.04-.03-.03-.03c-.02.11.05-.33.07-.42.03-.15.04-.35.05-.43,0-.11,0-.2-.02-.21-.01,0,.06-.02.13-.09.04-.05.19-.17.26-.27l.31-.37s.11.1.25.17c.31.17.32.92.73.92.63.4,1.04.63,1.17.63.23,0,.18.24.41.24.32,0,.5.66.65.56.16-.11.26.04.43-.02.36-.13.57.1.68.42.06.16.38,0,.4.19.03.32.15.56.38.74.48.37.96.74,1.41,1.15.14.13.29.26.41.41.15.18.13.22.15.41.22.18.31.35.39.38.01,0,.02.01.03.01.11-.17.19.34.25,0,.03-.53,0-.48.08-.33.03.13.06.28.09.37.03.11.03,0,0-.15.07.13.05-.1.06-.07.2.33-.07-.34.18,0,0-.14.07-.13-.11-.47-.09-.17-.1-.2-.02-.14.07.05.05-.02,0-.11-.12-.19-.09-.17-.03-.22.04,0,.19-.29.12-.55.15-.23.07-.56.19-.81.19-.41.32-.84.75-1.11.11-.07.12-.31.09-.48-.05-.28.32-.32.28-.58-.04-.31.27-.32.48-.41.16-.08.31-.15.29-.37-.03-.31.18-.52.3-.77.12-.26.51-.34.5-.64,0-.43.5-.56.46-1.01-.02-.3.25-.29.34-.51.45.06.69-.13.86-.46.17-.34.26-.75.67-.93.13-.05.14-.31.22-.46.08-.15.15-.32.28-.43.26-.24.71-.17.92-.47.2-.27.42-.39.63-.65.14-.18.58-.29.76-.42.41-.29.53-.92,1.13-.82.19-.12.45-.14.53-.41.11-.33.34-.48.67-.45.06,0,.14.02.17-.01.23-.28.5-.52.9-.43.25-.15.5-.25.81-.24.29,0,.44-.42.77-.35.26.05.44-.06.63-.22.19-.17.41-.2.66-.17.19.01.33.06.55-.04.79-.32,1.68-.49,2.51-.54l.41.07c.14.03.27.05.33.14.16.14.3.29.43.43.06.05.11.13.17.23.06.09.07.15.11.22l.11.21s.04.07.06.11v.17c.17.3.06.63-.2.91-.12.14-.08.23.05.34.07.33-.08.71-.23.99-.15.29-.31.51-.31.69,0,.46,0,.71-.3.99-.12.1-.25.29-.22.42.07.32-.04.53-.24.75-.27.3-.43.64-.31,1.09.1.36-.06.68-.22.98-.2.4-.65.65-.62,1.17,0,.05-.04.11-.09.14-.58.38-.89.86-.88,1.58,0,.16-.14.33-.28.42-.49.28-.8.63-.85,1.22-.01.11-.1.23-.2.27-.8.35-1.15,1.09-1.71,1.66-.43.47-.86.94-1.44,1.22-.15.08-.3.15-.39.32-.23.43-.59.73-1.1.78-.31.04-.55.19-.71.46-.27.42-.64.69-1.16.67-.24,0-.48.04-.68.14-.51.25-1.08.35-1.57.63-.5.31-1.1.24-1.61.5-.3.17-.56.46-.93.38-.36-.08-.66.06-.98.17-.29.1-.56-.1-.82-.22-.29-.13-.46-1.14-.3-1.45.01-.02.1-.19.14-.16.09-.1.6-.48,1.05-.55.25-.04.49-.11.76,0,.23.1.4.03.55-.17.18-.24.41-.37.66-.35.42.02.83-.02,1.22-.15l1.12-.48c.23-.09.48-.17.72-.25.09-.04.22-.02.28-.09.34-.42.74-.71,1.17-.99.4-.3.79-.63,1.14-1,.2-.22.37-.33.48-.64.19-.49.58-.65,1.09-1.1.21-.05.37-.18.57-.25.16-.06.26-.17.31-.32.22-.7.67-1.27.95-1.92.59-.61,1.09-1.67,1.06-1.8.12-.22.28-.42.45-.62.13-.16.29-.3.43-.46.17-.21.21-.47.1-.76-.11-.3-.05-.53.19-.7.41-.31.58-.73.48-1.24-.14-.48.07-1.03.31-1.02.25-.12.32-.41,0-.35-.24.05-.13,0,.02-.25.05-.09.12-.23.01-.16-.16.11-.24.09-.31.11-.04,0-.06.02-.08.05-.06.1-.08.08-.11.07-.06-.03-.13-.04-.2-.02,0,0-.16.08-.25.15-.11.07-.21.15-.32.2-.18.07-.39.17-.57.08-.41-.2-.62.25-.96.26-.3,0-.58.09-.86.19-.32.12-.62.3-.78.67-.08.2-.29.25-.47.31-.21.06-.84.39-.98.38-.58-.06-.88.45-1.21.8-.17.17-.25.44-.42.6-.13.13-.36.15-.51.27-.1.08-.02.38-.26.29-.29-.11-.4-.04-.47.2-.08.29-.05.64-.36.79-.21.11-.23.4-.47.52-.26.13-.49.37-.6.64-.14.34-.61.4-.68.75-.06.34-.35.46-.57.68-.4.4-.66.89-.62,1.51.04.61-.17,1.1-.61,1.5-.32.29-.48.65-.59,1.04-.07.27-.11.48-.29,1.02-.16.5-.36,1-.6,1.35-.14.2-.11.56-.19.83-.02.23-.13.25-.23.3l-.26.13c-.16.08-.3.13-.41.17-.1.03-.2.06-.3.1h-.02s0,0,0,0h0s0,0,0,0h0c-.14-.73.19.99.16.81h0s0,.02,0,.02l-.03.05s-.04.06-.06.08c-.05.03-.12.02-.18,0-.18-.15-.42-.22-.7-.53-.22-.23-.45-.46-.71-.7l-.17-.19c-.26-.66-.55-1.05-.87-1.44-.14-.18-.35-.4-.42-.52-.08-.11-.14-.24-.18-.38-.03-.12-.09-.18-.2-.2-.16-.03-.34-.06-.43-.16-.49-.51-1.23-.73-1.57-1.43-.28-.13-.57-.23-.84-.37-.45-.25-.86-.58-1.35-.76-.3-.11-.53-.26-.78-.45-.3-.22-.61-.43-.94-.63l-.52-.33-.16-.11c-.08-.06-.11-.07-.3-.25,0,0-.05-.05-.11-.12-.05-.07-.08-.09-.14-.21-.07-.13-.13-.28-.16-.44-.02-.08-.03-.16-.03-.23v-.11c0-.06,0-.15.02-.23.05-.35.31-.73.58-.92.08-.06.12-.08.13-.08l.07-.04s.1-.05.15-.07c.1-.04.22-.07.32-.08.14-.02.09,0,.14-.01h.17c.11,0,.11.01.17.02.16.03.22.04.3.06l.11.03.09.04.26.13,1.26.6c.41.22.8.48,1.19.73.25.15.45.37.63.6.15.19.31.36.55.4.5.07.85.39,1.21.69,1.03.87,1.94,1.88,2.76,2.95.28.38.36.85.64,1.23.24.3.48.66.45,1.09.51.97.93,1.98,1.27,3.03.11.33.2.67.28,1.01.04.19-.02.36-.17.5-.13.2.21.24-.63.49-.09.05-.7,0-.78-.05-.52-.29-.35-.65-.69-1.06-.24-.27-.3-.7-.47-1.01Z"/>
    </g>
  </g>
  <g>
    <g>
      <path class="cls-1" d="M176.76,178.87c14.78,1.27,25.96-1.53,33.53-8.43,7.59-6.88,11.88-16.19,12.89-27.93,1.01-11.74-1.63-21.64-7.94-29.72-6.29-8.08-16.69-12.74-31.17-13.99-14.48-1.24-25.87,1.54-33.31,8.45-7.44,6.89-11.67,16.21-12.67,27.95-1.01,11.74,1.57,21.63,7.72,29.7,6.15,8.06,16.47,12.72,30.94,13.97"/>
      <path class="cls-1" d="M185.25,178.36c.7-.02,1.37-.09,2.03-.17.66-.09,1.31-.15,1.98-.09.62.04,1.26-.35,1.93-.22.42.09.88-.06,1.32-.03.58.05,1-.05,1.63-.29.38-.13.6-.24,1.41-.44.63-.14.97-.2,1.6-.51.56-.26,1.56-.32,2.14-.62.59-.29,1.12-.49,1.65-.71.53-.21,1.07-.47,1.61-.95.51-.35,1.05-.64,1.55-.94.51-.29,1.02-.54,1.44-.85.57-.37,1.14-.72,1.68-1.13.55-.39,1.09-.79,1.61-1.23.25-.2.54-.35.81-.51.57-.36,1.01-.81,1.41-1.36.37-.53,1.26-1.39,2.03-2.26.78-.85,1.47-1.68,1.59-1.94.17-.36,1.07-1.74,1.85-3.16.78-1.42,1.43-2.85,1.56-3.06.17-.28.35-.51.34-.78.32-.43.43-1.2.72-1.55.45-.96.62-1.31.97-2.52.33-1.14,1.28-2.22,1.31-3.38.54-2.35.68-3.85.66-4.2-.04-.62.23-.87.17-1.5-.07-.85.49-2.48.32-2.7-.17-.24-.06-.75-.2-1.09-.31-.7-.19-1.61-.02-2.49.09-.46-.24-.95-.11-1.33.21-.7.28-1.49.21-2.38-.18-1.89-.5-3.76-.9-5.61-.14-.58-.3-1.16-.42-1.75-.14-.58-.27-1.15-.32-1.72-.3-.85-.53-1.49-.71-2-.21-.5-.36-.87-.54-1.2-.52-.75-.68-1.65-1.27-2.26-.87-.79-.64-.63-1.47-2.04-.05-.32-.42-1.18-.71-1.32-.38-.77-.89-1.38-.93-1.44-.58-1.26-.75-.79-1.38-2.07-.5-.57-.75-.91-1.18-.98-.22-.03-.44-.24-.63-.57-.17-.31-.41-.46-.7-.63-.6-.33-1.12-.86-1.69-1.35-.54-.52-1.14-.99-1.78-1.26-.61-.55-1.45-.79-2.12-1.25-.58-.34-1.16-.67-1.73-1-.58-.32-1.14-.65-1.66-1.05-.27-.21-.95-.38-1.36-.45-.69-.13-1.15-.62-1.82-.7-.78-.1-1.12-.51-1.61-.79-.39-.23-.77-.45-1.33-.49-.81-.02-1.64-.33-2.46-.5-.86-.15-1.61-.61-2.41-.6-1.12.04-2.25-.51-3.33-.34-.7.11-1.14-.21-1.85-.2-.65-.46-1.6-.65-2.69-.64-1.16.01-2.27.13-3.51-.08-.39-.06-.96.07-1.46.12-.49.05-1,.12-1.5.11-1.03-.01-1.93-.29-2.99-.17-.98.16-1.72.16-2.7.34-.65.15-1.9.1-2.58.24-1.52.25-2.62.98-4.04.94-.64.19-1.36.27-1.86.65-.62.48-1.34.71-2.17.88-.15.03-.36.06-.46.12-.84.48-1.61,1.03-2.61,1.26-.68.46-1.39.8-2.12,1.18-.36.18-.65.44-.95.71-.28.29-.57.57-.96.76-.63.29-1.02.78-1.43,1.26-.41.48-.87.96-1.41,1.37-.38.29-.8.67-1.05,1.01-1.44,2.04-2.83,3.98-4.39,5.97-.57.75-.94,1.57-1.35,2.48-.22.79-.54,1.2-.91,1.5-.19.15-.22.4-.19.71-.24,1.35-1.09,2.22-1.19,2.91-.17.96-.36,1.91-.82,2.85-.2.38-.38,1.03-.4,1.4-.03.86-.17,1.56-.44,2.39-.33,1.12-.53,2.3-.34,3.44.12.92.02,1.97-.05,3-.07,1.32-.39,2.63-.1,3.98.03.13.01.35,0,.5-.22,1.83-.13,3.65.53,5.37.13.38.25,1.02.26,1.46.02,1.51.33,2.94,1.05,4.26.13.24.29.65.33.92.36,2.29,1.5,4.43,2.69,6.43.94,1.61,2,3.14,3.05,4.63.29.4.53.8.94,1.1,1.03.83,1.93,1.76,2.8,2.74.28.31.57.61.9.86.34.24.69.46,1.05.63,1.21.58,2.27,1.25,3.33,2.07.48.4,1.1.74,1.69,1.03.76.37,1.54.7,2.31,1.07.78.32,1.57.64,2.4.84,1.67.38,3.23,1.08,4.92,1.35.99.17,1.98.11,2.98.42.99.33,1.97.36,2.98.45.9.08,1.61.37,2.34.61.8.26.96,1.31.26,1.52-.04.01-.44.13-.55.08-.34.06-2.32.14-3.93-.12-.88-.13-1.77-.28-2.57-.56-.66-.24-1.29-.39-1.99-.39-.84.01-1.76-.19-2.56-.5-2.62-1.04-5.35-1.93-7.9-3.22-.8-.38-1.56-.85-2.32-1.31-.3-.17-.56-.45-.83-.59-1.6-.76-3.06-1.83-4.45-2.98-1.34-1.21-2.63-2.48-3.79-3.87-.71-.81-1.1-1.39-1.8-2.17-1.13-1.32-1.75-2.64-2.79-4.83-.15-.63-.42-1.32-.57-1.96-.11-.52-.29-1-.54-1.46-1.13-2.18-1.73-4.69-2.29-7.12-.19-1.48-.36-3.23-.49-4.66-.09-1.43-.17-2.54-.21-2.72,0-.89.05-1.77.15-2.65.06-.7.18-1.37.28-2.06.11-.9.14-1.77.02-2.56-.14-.82-.04-1.68.23-2.52.5-1.49.83-2.97.92-4.56.12-1.58.59-3.09,1.36-4.52.67-1.25,1.18-2.53,1.53-3.9.24-1.02.82-1.95,1.46-2.81.32-.39.76-.86.92-1.23.36-.86,1.6-2.42,1.67-2.63.05-.22.39-.62.58-.85.59-.66,1.1-1.24,1.67-1.89.59-.66,1.05-1.41,1.67-2.05.46-.53,1.13-1.14,1.63-1.4.57-.32,1.07-.7,1.53-1.1.46-.42.93-.81,1.49-1.1.92-.52,1.92-1.03,2.88-1.54.58-.27,1.14-.56,1.69-.86.55-.27,1.08-.57,1.58-.91.54-.36,1.3-.56,2.01-.77.4-.12,1.26-.32,2.06-.53.81-.19,1.58-.31,1.78-.32,1.73-.03,3.58-.55,5.35-.82.88-.11,1.72-.33,2.6-.42.69-.04,1.4.07,2.1.05.47-.02,1.03-.27,1.43-.05.5.29.94.3,1.74.2.95-.1,1.84-.37,3.03-.15.8.15,1.66,0,2.57.21.98.23,2.13.35,3.16.43,1.3.07,2.38.61,3.58.68,1.16.06,2.04.47,3.05.75,1.87.61,3.74,1.11,5.65,1.48,1.9.32,3.78,1.15,5.42,2.26.58.43,1.18.8,1.79,1.19.59.41,1.21.77,1.84,1.17,1.68,1.08,3.33,2.34,4.52,3.91.33.47.73.76,1.12,1.12,1.96,1.92,3.59,4.09,4.6,6.6.28.76.81,1.6,1.21,2.4.2.4.42.78.64,1.16l.61,1.18c.4,1.85,1.28,3.79,1.39,5.68.02.38.1.65.22.99.17.45.38.96.46,1.45.38,2.47.88,4.99.57,7.48.1,1.04.15,2.07.16,3.13-.04,1.79-.22,3.61-.35,5.37-.06,1.08-.24,2.05-.46,3.1-.62,2.82-1.39,5.63-2.48,8.34-1.1,2.7-2.47,5.29-4.15,7.69-.5.75-1.12,1.42-1.72,2.08-.49.54-1.03,1.06-1.37,1.65-.38.59-.83,1.14-1.3,1.68-.5.52-1.01,1.03-1.55,1.53-3.15,2.88-6.9,5.08-10.86,6.56-1.38.52-2.75.7-4.19,1.12-.58.16-1.19.32-1.8.44-.62.09-1.25.15-1.85.15-3.4.55-6.83.74-10.24.69-1.07-.03-2.15-.06-3.22-.13-.56-.04-1.03-.18-1.33-.38-.49-.21-.79.1-1.01-.79-.1-.11.45-.66.65-.71,1.38-.35,2.43-.02,4.08-.19,1.13-.11,2.57-.04,3.78-.12Z"/>
    </g>
    <g>
      <path class="cls-2" d="M184.19,101.32s1.39-8.65,9.77-12.19c1.63-.43-6.05,3.01-8.91,8.03-.06.12-2.39-15.9-17.15-16.69-.09,0-.16.07-.14.16.35,1.71,3.34,15.95,16.93,17.46"/>
      <path class="cls-2" d="M184.18,98.57c.17-.41.11-.89.48-1.2.16-.14,0-.46.28-.56.17-.06.18-.23.34-.3.21-.09.24-.23.24-.46.03-.13,0-.23.13-.47.1-.19.19-.25.2-.51.01-.23.4-.35.44-.57.08-.47.48-.55.47-1.14.09-.46.43-.71.66-.98.31-.33.62-.68.99-.95.08-.07.21-.09.33-.11.25-.05.38-.21.48-.44.2-.42,1.4-.9,1.49-1.08.07-.13.5-.47.94-.79.44-.33.93-.53,1.01-.56.11-.02.23.01.26-.13.21.03.35-.27.54-.18.03,0,.06-.01.08-.02l.15-.05c.12,0,.14-.02.44-.03.07,0,.05,0,.2.02.09.02.19.04.27.08.04.02.08.04.12.06.04.02.2.14.29.26.21.22.25.68.23.72,0,.13-.04.26-.1.38-.07.15-.08.14-.1.17l-.06.07c-.14.16-.17.16-.23.2-.17.12-.27.17-.43.29-.31.23-.98-.1-1.16.27-.62.39-.98.68-1.02.79-.08.21-.28.07-.36.28-.11.28-.77.23-.72.4.05.19-.12.23-.11.4.02.38-.23.49-.55.51-.17,0-.09.35-.26.32-.31-.06-.56,0-.76.19-.42.38-.82.79-1.21,1.19-.12.13-.24.26-.38.38-.1.08-.38.31-.59.38-.45.58-.71.88-.88,1.21-.03.04-.05.08-.07.12-.24.7-.5.62-.75,1.36-.17.45-.27.7-.33.72-.07.04-.17.04-.28-.16-.01-.11-.02-.27-.05-.35v-.03s-.02-.01-.02-.01h0s0,0,0,0h0s.13-.68.13-.68h0s0,0,0,0l-.03-.02s-.03-.02-.05,0c-.1-.14-.23-.2-.25-.22-.16-.43-.25.05-.45-.51-.26-.02-.24-.34-.49-.18-.13.07-.18-.1-.16-.4.02-.27-.05-.37-.16-.49-.24-.22-.34-.71-.43-1.1-.11-.44-.12-.61-.33-.76-.02-.25-.29-.42-.36-.65-.13-.38-.32-.73-.22-1.19.03-.12-.14-.27-.28-.34-.23-.11-.03-.41-.25-.52-.26-.12-.08-.37-.03-.57.04-.17.06-.32-.13-.4-.27-.11-.33-.38-.49-.57-.16-.2-.05-.56-.32-.66-.37-.13-.29-.62-.71-.68-.27-.04-.17-.29-.35-.41.19-.4.07-.67-.2-.85-.29-.2-.65-.3-.77-.68-.04-.12-.27-.12-.41-.19-.14-.06-.28-.12-.38-.22-.21-.2-.17-.63-.46-.77-.27-.12-.4-.3-.68-.4-.18-.07-.37-.42-.54-.53-.38-.25-.92-.03-1.06-.56-.16-.1-.31-.27-.55-.18-.3.12-.5.05-.65-.21-.03-.05-.06-.11-.1-.11-.32.02-.61.04-.79-.28-.24-.03-.45-.12-.65-.28-.19-.17-.51.11-.7-.11-.15-.18-.35-.15-.55-.09-.21.06-.38.01-.56-.1-.1-.08-.31-.19-.36-.14-.07.17-.03.27-.03.25,0,0-.05-.09-.27-.26-.21-.13-.05.05-.02.09.19.13.06.05-.21-.01-.14-.03-.04.03.13.09.18.08.12.07.05.1-.07.03-.16.08-.1.11.19.12.37.45.26.78-.04.15-.02.35.08.43.25.18.3.38.28.67-.02.38.12.7.51.89.32.15.4.45.54.72.17.35.08.83.49,1.06.04.02.06.09.06.14,0,.6.24,1.1.84,1.35.14.05.24.21.25.35.05.49.22.9.73,1.05.1.03.19.12.2.21.12.76.68,1.22,1.2,1.65.4.36.77.76,1.12,1.16.09.12.17.23.33.26.43.07.68.37.9.72.13.23.34.37.61.37.46,0,.72.25.98.59.11.16.27.31.45.38.46.16.81.62,1.34.62.52,0,.91.39,1.41.45.29.05.62-.15.88.04.26.19.56.15.86.15.26,0,.44.27.63.47.21.22.18,1.25-.06,1.49-.01.02-.15.15-.18.11-.11.06-.76.25-1.26.14-.27-.06-.56-.08-.79-.26-.19-.15-.38-.21-.62-.14-.29.09-.59.05-.82-.12-.37-.29-.78-.45-1.19-.64l-1.2-.6c-.24-.13-.48-.27-.71-.42-.08-.07-.14-.21-.23-.23-.55-.14-1.04-.41-1.52-.69-.46-.31-.88-.69-1.36-.98-.29-.18-.46-.31-.77-.45-.53-.23-.74-.66-1.23-1.23-.03-.24-.14-.44-.18-.67-.04-.18-.13-.31-.28-.39-.73-.38-1.11-1.09-1.66-1.65-.38-.85-1.05-1.92-1.18-1.98-.11-.25-.18-.52-.25-.79-.05-.21-.07-.44-.12-.65-.06-.28-.21-.5-.5-.64-.29-.14-.43-.38-.39-.68.08-.55-.05-.99-.48-1.36-.41-.4-.51-.72-.51-1.64.05-.66-.17-1.21-.43-1.91-.11-.27-.17-.54-.08-.67.08-.16.12-.27.35-.39.19-.06.49.01.56-.09.07-.07.16-.16.33-.19.19-.02.38-.03.52-.04.17.01.28,0,.3-.02.06-.09.33-.03.48,0,.44.08.82.14,1.25.21.26.04.35,0,.51-.01.14-.02.29-.05.43-.04.23,0,.51.05.64.21.31.39.77.13,1.12.36.29.19.61.32.93.45.37.16.75.27,1.2.19.24-.04.45.11.64.25.22.16.96.61,1.02.76.27.58.91.72,1.41,1.02.25.15.56.2.79.37.18.13.26.39.42.55.1.11.42.04.36.29-.08.32,0,.43.26.53.31.12.71.14.87.52.11.25.42.34.53.65.11.32.31.63.57.85.33.28.24.78.57,1.02.31.23.32.58.43.9.2.6.49,1.12,1.05,1.51.55.39.83.96.83,1.62,0,.48.14.88.33,1.3.13.27.29.62.29.64.01.05-.02.12-.11.33-.05.13.03.09.06.08.09,0,.14-.04.15.03,0,.04,0,.1,0,.23,0,.09,0,.15.01.29.01.14.09-.04.15-.16.04-.1.08-.26.1-.39v-.08c.09.13.17.06.24,0l.17-.12c.12-.09.26-.17.42-.22.13-.04.19-.09.23-.22.05-.16.1-.36.22-.45.6-.49,1.01-1.23,1.83-1.43.21-.25.41-.52.64-.74.41-.38.89-.67,1.27-1.07.23-.25.48-.41.77-.57.34-.19.68-.39,1-.59l.44-.29.08-.05h0s0,0,0,0l.15.2c.1.13.21.27.32.39.11.13.16.2.26.28.1.09.12.13.2.17.04.04.07-.01.03.05-.02.09,0,.31.04.59l.09.48.06.26.02.07h0s0,0,0,0h-.02s.2-.06.2-.06l-.22.11-1.05.51c-.34.19-.66.4-1,.59-.21.11-.45.19-.67.29-.19.07-.38.16-.45.36-.16.39-.43.66-.7.93-.79.77-1.47,1.65-2.04,2.59-.19.33-.58.51-.71.9-.11.31-.27.61-.59.8-.43.83-.76,1.7-1.05,2.58-.09.28-.17.56-.25.83-.04.14-.17.24-.36.29-.2.1.11.22-.76.14-.11.02-.66-.23-.71-.31-.35-.51-.01-.79-.08-1.34-.03-.38.17-.81.27-1.18Z"/>
    </g>
  </g>
  <g>
    <g>
      <path class="cls-1" d="M99.17,174.64c-14.78,1.27-25.96-1.53-33.53-8.43-7.59-6.88-11.88-16.19-12.89-27.93-1.01-11.74,1.63-21.64,7.94-29.72,6.29-8.08,16.69-12.74,31.17-13.99,14.48-1.24,25.87,1.54,33.31,8.45,7.44,6.89,11.67,16.21,12.67,27.95,1.01,11.74-1.57,21.63-7.72,29.7-6.15,8.06-16.47,12.72-30.94,13.97"/>
      <path class="cls-1" d="M90.64,175.67c-.72-.04-1.41,0-2.09,0-.68-.02-1.36-.07-2.03-.23-.61-.15-1.35.04-1.99-.25-.39-.17-.89-.18-1.31-.37-.54-.25-.99-.27-1.67-.29-.4-.05-.66-.04-1.5-.21-.66-.12-.98-.3-1.71-.36-.65-.04-1.54-.61-2.2-.74-.68-.12-1.22-.37-1.78-.59-.57-.21-1.14-.43-1.89-.6-.64-.18-1.24-.46-1.79-.77-.56-.31-1.08-.61-1.56-.92-.62-.4-1.23-.79-1.81-1.25-.59-.43-1.16-.89-1.7-1.39-.26-.23-.48-.51-.68-.77-.41-.58-.91-1-1.49-1.42-.53-.41-1.43-1.39-2.17-2.36-.75-.97-1.37-1.91-1.59-2.12-.3-.29-1.36-1.68-2.26-3.15-.9-1.46-1.62-2.98-1.72-3.22-.12-.33-.16-.64-.36-.83-.11-.55-.62-1.2-.62-1.7-.33-1.07-.43-1.46-.85-2.71-.4-1.2-.14-2.64-.59-3.71-.55-2.41-.77-3.94-.89-4.27-.22-.61-.04-.92-.22-1.54-.28-.84,0-2.58-.16-2.79-.2-.22-.17-.76-.34-1.09-.33-.7-.32-1.67-.13-2.58.1-.47-.22-.99-.08-1.39.26-.72.41-1.52.46-2.45.14-1.96.38-3.92.76-5.85.14-.61.28-1.23.44-1.83.18-.6.4-1.17.67-1.69.27-.9.51-1.56.69-2.09.21-.52.36-.91.47-1.29.17-.95.82-1.67.94-2.55.23-1.19.11-.98,1.02-2.46.26-.22.87-.99.92-1.31.59-.71,1-1.42,1.07-1.47,1.09-.97.54-1.03,1.77-1.97.48-.65.84-.92.9-1.37.03-.23.25-.49.59-.71.31-.22.51-.43.71-.74.41-.62,1.04-1.15,1.71-1.62.65-.5,1.34-.94,1.86-1.49.75-.48,1.43-1.08,2.2-1.56.64-.35,1.28-.7,1.92-1.02.65-.29,1.32-.54,1.99-.71.36-.08.99-.44,1.36-.7.62-.45,1.34-.37,1.94-.74.71-.45,1.26-.35,1.86-.38.47-.03.92-.07,1.44-.36.74-.38,1.66-.54,2.5-.78.88-.22,1.78-.14,2.55-.45,1.08-.42,2.36-.33,3.39-.75.67-.28,1.2-.15,1.91-.28.76.33,1.74.27,2.84.1,1.17-.18,2.29-.46,3.59-.32.4.04.99-.16,1.5-.2.51-.05,1.04-.11,1.56-.11,1.08,0,1.99.42,3.1.36,1.03,0,1.8.1,2.83.12.7.04,1.96.33,2.67.48,1.58.25,2.98.07,4.3.81.68.2,1.39.46,2.04.48.82.04,1.64.23,2.41.75.14.09.33.22.46.25,1.03.23,2.02.6,2.88,1.28.81.4,1.58.79,2.28,1.39.34.28.74.45,1.13.65.38.22.78.44,1.1.79.54.53,1.05.95,1.67,1.31.62.37,1.09.9,1.57,1.46.33.39.68.9,1.04,1.19,2.05,1.76,3.7,3.93,4.81,6.43.41.93.95,1.73,1.44,2.69.52.72.67,1.27.61,1.78-.02.26.15.46.4.68.83,1.23.76,2.53,1.07,3.18.47.93.82,1.91.9,3.02.04.45.12,1.15.29,1.51.38.83.47,1.59.53,2.5.05,1.23.23,2.44.63,3.58.35.92.39,2.04.46,3.12.07,1.41-.19,2.79.04,4.22.02.14.01.38-.02.53-.39,1.93-.56,3.79-.48,5.76.04.44-.12,1.13-.27,1.57-.52,1.54-.98,2.99-1.14,4.62-.03.3-.18.75-.32,1.02-1.16,2.21-2.05,4.61-3.28,6.83-.97,1.77-2.1,3.42-3.45,4.91-.38.4-.7.78-1.03,1.22-.82,1.2-1.89,2.21-3.13,2.96-.39.23-.75.5-1.11.78-.36.26-.7.55-1.01.86-1.05,1.02-2.26,1.74-3.62,2.22-.62.25-1.34.49-1.96.81-.8.42-1.66.69-2.49,1.02-.85.28-1.69.58-2.5.93-1.67.69-3.43.93-5.14,1.39-1,.28-1.94.73-3.03.76-1.08.06-2.06.27-3.1.47-.92.18-1.71,0-2.49-.08-.86-.09-1.18-1.09-.54-1.43.04-.02.4-.22.51-.19.32-.11,2.19-.59,3.75-.82.86-.11,1.71-.31,2.54-.3.69,0,1.31-.15,1.92-.43.74-.32,1.59-.62,2.41-.73,2.69-.42,5.3-1.43,7.78-2.58.78-.34,1.53-.74,2.29-1.13.3-.14.65-.26.88-.44,1.37-1.02,2.69-2.09,3.98-3.19,1.24-1.16,2.48-2.35,3.45-3.74.6-.81.98-1.37,1.44-2.25.72-1.47,1.56-2.52,2.62-4.56.36-.49.7-1.1,1.05-1.64.27-.43.46-.88.58-1.38.53-2.28,1.22-4.61,1.49-6.96.33-1.37.53-3.04.64-4.41.07-1.37.07-2.43.01-2.61.04-.85.07-1.7.11-2.54.03-.67.09-1.34.08-2.01.02-.89-.13-1.72-.42-2.44-.28-.75-.45-1.54-.41-2.4.05-1.51-.23-2.98-.85-4.37-.64-1.37-1.01-2.78-1.32-4.29-.26-1.31-.77-2.56-1.59-3.61-.58-.78-1.02-1.68-1.37-2.63-.18-.43-.38-1.01-.63-1.3-.57-.66-1.55-2.25-1.76-2.34-.19-.1-.46-.5-.62-.73-.5-.65-.93-1.24-1.49-1.83-.57-.6-1.24-1.07-1.88-1.6-.48-.45-1.12-.93-1.42-1.35-.34-.51-.82-.82-1.29-1.13-.47-.31-.97-.56-1.42-.91-.74-.62-1.65-1.11-2.53-1.59-.53-.26-1.06-.51-1.6-.71-.55-.17-1.09-.31-1.63-.39-.59-.08-1.26-.33-1.88-.59-.35-.15-1.14-.36-1.87-.6-.74-.22-1.44-.39-1.62-.48-1.48-.7-3.34-.72-5.03-.84-.84-.04-1.67.05-2.5,0-.65-.01-1.31-.18-1.98-.22-.45-.04-.99.25-1.36.02-.48-.28-.9-.32-1.67-.19-.92.18-1.74.45-2.89.4-.78-.03-1.58.19-2.47.17-.96-.01-2.09.04-3.05.26-1.22.25-2.37.08-3.47.42-1.06.31-1.97.36-2.96.49-1.85.33-3.67.82-5.25,1.75-1.59.87-3.24,1.65-4.98,2.23-.62.24-1.22.5-1.8.81-.57.34-1.14.68-1.69,1.08-1.5,1.08-2.84,2.34-4.33,3.37-.42.32-.66.71-.97,1.08-1.54,1.97-2.9,4.05-4.45,6.04-.45.61-.88,1.45-1.19,2.22-.16.39-.3.78-.44,1.17l-.35,1.19c-.92,1.53-1.31,3.48-1.98,5.13-.14.34-.22.59-.22.94,0,.47,0,.98-.09,1.44-.45,2.34-.34,4.76-.7,7.11.04,1,.19,1.98.25,2.98.16,1.7.26,3.45.63,5.09.21,1,.37,1.91.54,2.92.47,2.68,1.26,5.31,2.27,7.82,1.02,2.51,2.31,4.9,3.83,7.13.46.7.92,1.4,1.37,2.09.37.57.82,1.12,1.3,1.52.52.4,1.02.82,1.5,1.28.49.44.99.89,1.49,1.35,2.88,2.52,6.27,4.41,9.92,5.63,1.26.42,2.41.98,3.77,1.24.55.09,1.12.2,1.69.34.57.11,1.14.26,1.67.46,3.2.5,6.46.67,9.72.61l3.09-.1c.54-.03,1.01.04,1.33.19.5.14.74-.2,1.1.64.12.09-.34.71-.53.79-1.32.55-2.43.37-4.08.62-1.14.19-2.62.11-3.86.12Z"/>
    </g>
    <g>
      <path class="cls-2" d="M98.17,97.09s1.39-8.65,9.77-12.19c1.63-.43-6.05,3.01-8.91,8.03-.06.12-2.39-15.9-17.15-16.69-.09,0-.16.07-.14.16.35,1.71,3.34,15.95,16.93,17.46"/>
      <path class="cls-2" d="M98.16,94.34c.17-.41.11-.89.48-1.2.16-.14,0-.46.28-.56.17-.06.18-.23.34-.3.21-.09.24-.23.24-.46.03-.13,0-.23.13-.47.1-.19.19-.25.2-.51.01-.23.4-.35.44-.57.08-.47.48-.55.47-1.14.09-.46.43-.71.66-.98.31-.33.62-.68.99-.96.08-.07.21-.09.33-.11.25-.05.38-.21.48-.44.2-.42,1.4-.9,1.49-1.08.07-.13.5-.47.94-.79.44-.33.93-.53,1.01-.56.11-.02.23.01.26-.12.21.03.35-.27.54-.18.03,0,.06-.01.08-.02l.15-.05c.12,0,.14-.02.44-.03.07,0,.05,0,.2.02.09.02.19.04.27.08.04.02.08.04.12.06.04.02.2.14.29.26.21.22.25.68.23.72,0,.13-.04.26-.1.38-.07.15-.08.14-.1.17l-.06.08c-.14.16-.17.16-.23.2-.17.12-.27.17-.43.29-.31.24-.98-.1-1.16.27-.62.39-.98.68-1.02.79-.08.21-.28.07-.36.28-.11.28-.77.23-.72.4.05.19-.12.23-.11.41.02.38-.23.49-.55.51-.17,0-.09.35-.26.32-.31-.06-.56,0-.76.19-.42.38-.82.79-1.21,1.19-.12.13-.24.26-.38.38-.1.08-.38.31-.59.38-.45.58-.71.88-.88,1.22-.03.04-.05.08-.07.12-.24.7-.5.62-.75,1.36-.17.45-.27.7-.33.72-.07.04-.17.04-.28-.16-.01-.11-.02-.27-.05-.35v-.03s-.02-.01-.02-.01h0s0,0,0,0h0s0,0,0,0l.13-.68h0s0,0,0,0l-.03-.02s-.03-.01-.05,0c-.1-.14-.23-.2-.25-.22-.16-.43-.25.05-.45-.51-.26-.02-.24-.34-.49-.18-.13.07-.18-.1-.16-.4.02-.27-.05-.37-.16-.49-.24-.22-.34-.71-.43-1.1-.11-.44-.12-.61-.33-.76-.02-.25-.29-.42-.36-.65-.13-.38-.32-.73-.22-1.19.03-.12-.14-.27-.28-.34-.23-.11-.03-.41-.25-.52-.26-.12-.08-.37-.03-.57.04-.17.06-.32-.13-.4-.27-.11-.33-.38-.49-.57-.16-.2-.05-.56-.32-.66-.37-.13-.29-.62-.71-.68-.27-.04-.17-.29-.35-.41.19-.4.07-.67-.2-.85-.29-.2-.65-.3-.77-.68-.04-.12-.27-.12-.41-.19-.14-.06-.28-.12-.38-.22-.21-.2-.17-.63-.46-.77-.27-.12-.4-.3-.68-.4-.18-.07-.37-.42-.54-.53-.38-.25-.92-.03-1.06-.56-.16-.1-.31-.27-.55-.18-.3.12-.5.05-.65-.21-.03-.05-.06-.11-.1-.11-.32.02-.61.04-.79-.28-.24-.03-.45-.12-.65-.28-.19-.17-.51.11-.7-.11-.15-.18-.35-.15-.55-.09-.21.06-.38.01-.56-.1-.1-.08-.31-.19-.36-.14-.15.3.18.37-.29,0-.21-.13-.05.05-.02.09.19.13.06.05-.21-.01-.14-.03-.04.03.13.09.18.08.12.07.05.1-.07.03-.16.08-.1.11.19.12.37.45.26.78-.04.15-.02.35.08.43.25.18.3.39.28.67-.02.38.12.7.51.89.32.15.4.45.54.72.17.35.08.83.49,1.06.04.02.06.09.06.14,0,.6.24,1.1.84,1.35.14.05.24.21.25.35.05.49.22.9.73,1.05.1.03.19.12.2.21.12.76.68,1.22,1.2,1.65.4.36.77.76,1.12,1.16.09.12.17.23.33.26.43.07.68.37.9.72.13.23.34.37.61.37.46,0,.72.25.98.59.11.16.27.31.45.38.46.16.81.62,1.34.62.52,0,.91.39,1.41.45.29.05.62-.15.88.04.26.19.56.15.86.15.26,0,.44.27.63.47.21.22.18,1.25-.06,1.49-.01.02-.15.15-.18.11-.11.07-.76.25-1.26.14-.27-.06-.56-.08-.79-.26-.19-.15-.38-.21-.62-.14-.29.09-.59.05-.82-.12-.37-.29-.78-.45-1.19-.64l-1.2-.6c-.24-.13-.48-.27-.71-.42-.08-.07-.14-.21-.23-.23-.55-.14-1.04-.41-1.52-.69-.46-.31-.88-.69-1.36-.98-.29-.18-.46-.31-.77-.45-.53-.23-.74-.66-1.23-1.23-.03-.24-.14-.44-.18-.67-.04-.18-.13-.31-.28-.39-.73-.38-1.11-1.09-1.66-1.65-.38-.85-1.05-1.92-1.18-1.98-.11-.25-.18-.52-.25-.79-.05-.21-.07-.44-.12-.65-.06-.28-.21-.5-.5-.64-.29-.14-.43-.38-.39-.68.08-.55-.05-.99-.48-1.36-.41-.4-.51-.72-.51-1.64.05-.66-.17-1.21-.43-1.91-.11-.27-.17-.54-.08-.67.08-.16.12-.27.35-.39.19-.06.49.01.56-.09.08-.31,1.14-.13,1.16-.24.04-.11.33-.03.47,0,.44.08.82.14,1.25.21.26.04.35,0,.51-.01.14-.02.29-.05.43-.04.23,0,.51.05.64.21.31.39.77.13,1.12.36.29.19.61.32.93.45.37.16.75.27,1.2.19.24-.04.45.11.64.25.22.16.96.61,1.02.76.27.58.91.72,1.41,1.02.25.15.56.2.79.37.18.13.26.39.42.55.1.11.42.04.36.29-.08.32,0,.43.26.53.31.12.71.14.87.52.11.25.42.34.53.65.11.32.31.63.57.85.33.28.24.78.57,1.02.31.23.32.58.43.9.2.6.49,1.12,1.05,1.51.55.39.83.97.83,1.62,0,.48.14.88.33,1.3.13.27.29.62.29.64.01.05-.02.12-.11.33-.05.13.03.09.06.08.09,0,.14-.04.15.03,0,.04,0,.1,0,.23,0,.09,0,.15.01.28.01.14.09-.04.15-.16.04-.1.08-.26.1-.39v-.08c.09.13.17.06.24,0l.17-.12c.12-.09.26-.17.42-.22.13-.04.19-.09.23-.22.05-.16.1-.36.22-.45.6-.49,1.01-1.23,1.83-1.43.21-.25.41-.52.64-.74.41-.38.89-.67,1.27-1.07.23-.25.48-.41.77-.57.34-.19.68-.39,1-.59l.44-.29.08-.05h0s0,0,0,0l.15.2c.1.13.21.27.32.39.11.12.16.2.26.28.1.09.12.13.2.17.04.04.07-.01.03.05-.02.09,0,.31.04.59l.09.48.06.26.02.07h0s0,0,0,0h-.02s.2-.06.2-.06l-.22.11-1.05.51c-.34.19-.66.4-1,.59-.21.11-.45.19-.67.29-.19.07-.38.16-.45.36-.16.39-.43.66-.7.93-.79.77-1.47,1.65-2.04,2.59-.19.33-.58.51-.71.9-.11.31-.27.61-.59.8-.43.83-.76,1.7-1.05,2.58-.09.28-.17.56-.25.83-.04.14-.17.24-.36.29-.2.1.11.22-.76.14-.11.02-.66-.23-.71-.31-.35-.51-.01-.79-.08-1.34-.03-.38.17-.81.27-1.18Z"/>
    </g>
  </g>
</svg>