<?xml version="1.0" encoding="UTF-8"?>
<svg id="illuer_blå_bg" xmlns="http://www.w3.org/2000/svg" viewBox="0 0 299.33 263">
  <defs>
    <style>
      .cls-1 {
        fill: #ff9400;
      }

      .cls-2 {
        fill: #ffe6c4;
      }
    </style>
  </defs>
  <g>
    <path class="cls-1" d="M.98,214.87l23.98-32.97s5.39-64.74,35.37-99.51c19.18-20.98,38.96-14.99,38.96-14.99l4.8,20.98s29.37-21.58,46.76-23.38c16.78-1.8,19.18,22.18,1.8,35.37-13.79,10.19-34.17,25.78-34.17,25.78l-4.2,16.78,7.19,8.99,74.33-8.39s-2.4,34.77-21.58,37.76c-4.8.6-14.39-4.2-14.39-4.2l-11.99,8.39-5.99,2.4s-11.39,30.57-49.15,44.36c-.6,3.6-17.98,26.38-17.98,26.38,0,0-40.16-3.6-73.73-43.76Z"/>
    <path class="cls-1" d="M12.9,194.73c2.33-3.1,3.84-6.4,6.52-9.04.61-.6,1.02-1.41,1.48-2.21.23-.4.46-.8.74-1.16.26-.34.65-.78.87-.82.18-.08.35-.21.49-.35.07-.25.11-.5.18-.81.08-.46.18-.91.34-1.34.6-1.51.63-2.72.55-4.59.02-1.11-.06-1.8.24-4.11.24-1.81.55-2.71.49-4.71-.05-1.75,1.16-4.33,1.24-6.16.19-3.73,1.44-6.18,1.3-10.32.21-3.57,1.37-6.89,2.08-9.84,1-3.77,2.18-7.5,3.44-11.19.31-.87.81-1.69,1.25-2.45.95-1.67,1.48-3.35,1.84-5.27.37-1.79,1.74-5.09,3.16-8.08,1.43-2.99,2.87-5.7,3.1-6.49.3-1.09,2.17-5.46,4.44-9.55.54-1.04,1.13-2.04,1.7-2.99.57-.94,1.08-1.84,1.58-2.61,1.01-1.52,1.76-2.62,1.99-2.9.6-.73,1.31-1.25,1.46-2.02.59-.51,1.09-1.29,1.58-2.04.53-.73,1.07-1.43,1.65-1.78.53-.56.98-1.04,1.4-1.48.45-.41.86-.78,1.28-1.17.85-.77,1.68-1.66,3.01-2.96.66-.59,1.41-1.1,2.19-1.56.78-.46,1.57-.92,2.42-1.26,1.69-.72,3.19-1.54,4.46-2.57.75-.44,1.46-.86,2.14-1.25.69-.37,1.38-.67,2-.98.63-.3,1.22-.6,1.78-.85.57-.22,1.1-.43,1.59-.62,1.92-.82,3.23-1.15,3.68-1.41.41-.21.78-.34,1.13-.42.35-.06.68-.09,1.01-.12.66-.05,1.31-.12,2.17-.44.6-.2,1.37-.3,2.18-.36.82-.06,1.69.03,2.5.07,1.62.15,2.97.4,3.3.19.17-.12.4-.18.66-.23.24-.04.59-.07,1.02-.03.81.07,1.72.09,2.48.07.82-.04,1.71.02,2.63.17l.17.03s.04.09.06.14l.12.29c.08.2.16.41.24.62.15.42.3.87.44,1.32.12.48.22.98.31,1.48l.14.76c.04.24.1.56.1.67.06.62.1,1.25.11,1.87.02,1.3,1.22,2.44,1.1,3.58-.11,1.02-.12,2.08-.03,3.19.05.55.12,1.12.21,1.7.04.21.07.42.11.63.03.16.07.33.11.49l.4,1.54.2.75.1.37.05.18.02.09v.05s.04-.02.05-.03c.72-.56,1.42-1.08,2.11-1.58l1.11-.79c.68-.47,1.37-.94,2.07-1.4,2.8-1.89,5.71-3.79,8.74-4.88,4.34-2.69,6.63-3.73,8.38-4.89,1.01-.83,2.16-1.37,3.27-1.91,1.14-.51,2.23-1.02,3.12-1.86,1.24-1.15,1.76-1.56,2.49-1.96.74-.39,1.68-.76,4.01-1.52.49.01,1.38-.15,2.28-.32.9-.16,1.77-.41,2.12-.73,1.27-.23,2.55-.39,3.51-.55.96-.16,1.61-.31,1.74-.29,1.15.13,1.92.16,2.56.22.63.02,1.1,0,1.59.04.48.03.98.02,1.64.24.66.17,1.49.53,2.53,1.26,1.24.54,2.1,1.15,2.81,1.64.35.26.68.46,1.01.64.31.19.63.34.99.44.38.1.75.39,1.1.81.37.41.67.98.9,1.63.42,1.2.88,2.04,1.5,3.06,1.25,2.11,1.5,4.83,1.31,7.36-.18,2.56-.76,4.96-1.01,7.23-.95,2.51-1.59,5.21-3.05,7.52-2.33,3.72-5.27,7.06-8.95,8.95-.24.12-.52.33-.8.54-.27.2-.55.44-.82.69-.55.51-1.09,1.08-1.46,1.54-1.28,1.54-3.17,1.86-4.4,3.32-1.44,1.71-2.93,1.86-4.39,2.48-1.17.49-2.28.99-3.3,2.21-1.44,1.72-3.54,3.03-5.37,4.52-1.89,1.54-4.22,2.29-5.68,3.98-2.03,2.36-5.29,3.63-7.08,6.05-.04.4-.15.37-.23.52l-.08.1-.04.05s-.06.18-.09.27c-.13.41-.24.84-.31,1.33-1.56,1.61-2.39,4.13-2.88,7.12-.17,1.04-.31,2.08-.46,3.11l-.1.72v.27c0,.17-.02.33-.04.49.12.13.23.27.31.43.06.1.05.12.16.3.16.25.32.5.47.76.56.94,1.92,1.89,2.89,2.88l.71.71.18.18s.04.03.07.04l.11.05c.14.07.24.13.33.23h.03c.14-.02.26.03.41.11.05.02.06.04.14.06l.51.02,1.02.05c1.37.07,2.74.1,4.2-.19,2.72-.54,4.79-.63,7.51-1.18,1.83-.37,5.32-.27,7.23-.5,4.27-.5,7.59-2.22,11.56-1.56,1.88-.21,3.9-.18,5.49-.92,2-.93,4.16-1.25,6.58-1.04.43.04,1.03.11,1.37.01,2.67-.74,5.32-1.41,8.21-1.06,2.32-.43,4.55-.66,6.94-.64,1.14.01,2.24-.3,3.35-.59l.84-.21c.16-.03.25-.06.46-.1l.81-.12c1.09-.15,2.21-.26,3.3-.27,1.76-.05,3.2-.05,4.81-.21l1.2-.13.61-.07.31-.04.16-.02s0,.09,0,.13c0,.73.02,1.45.05,2.19.05,1.49.01,3.15-.19,4.92-.11.87-.25,1.8-.4,2.66l-.25,1.21c-.08.37-.19.89-.25,1.06-.39,1.37-.92,2.96-1.05,4.25-.39,3.72-1.21,7.41-2.61,10.99-1.42,3.56-3.43,7.06-6.33,10.07-2.15,2.21-4.15,4.52-7.22,6.4-2.32,1.8-4.35,2.09-5.93,1.74-.41-.09-.8-.04-1.22.11-.43.14-1.05.32-1.66.56-2.73.33-4.64-.38-6.2-1.04-1.55-.69-2.71-1.42-3.72-1.66-.88-.19-1.84-.48-2.62-.73-.17,0-.3-.02-.43-.11-.07.02-.15.04-.25.04h-.17s-.1-.02-.1-.02c-.03,0-.01-.02-.08.01l-.19.08c-1.11.48-2.73,1.42-3.45,2.19-1.66,1.77-3.36,2.86-5.53,3.99l-.92.55-.67.22-.51.16-.78.24c-.52.17-1.03.35-1.54.55l-.75.31-.33.14-.11.06c-.14.09-.27.18-.34.3,0,.15,0,.3.04.44l.03.1c0,.07.06-.03.03.11l-.15.68c-.59,2.75-2.21,5.52-3.88,8.08-2.19,3.32-5.1,5.96-7.15,9.44-.2.35-.66.82-1,1.11-1.02.91-2.12,1.72-3.12,2.62-.99.9-1.97,1.79-2.96,2.69-.98.9-1.91,1.85-2.8,2.85-.94.95-1.86,1.93-2.73,3-.39.47-.96,1-1.59,1.5-.65.47-1.35.88-1.94,1.17-2.03.99-3.89,2.1-5.8,3.14-1.89,1.06-3.6,2.42-5.41,3.75-.65.51-1.8,1.13-2.6,1.37-.7.22-1.4.45-2.09.7-.7.22-1.41.43-2.11.65-.7.23-1.4.47-2.09.72l-1.04.38-.13.05h-.02s-.03,0-.03,0h-.07c-.07.05-.2.04-.23.13-.03.08-.06.17-.1.25-1.47,2.88-3.11,5.43-4.73,7.91-3,4.5-6.12,8.78-9.53,12.81-.47.55-.92,1.07-1.34,1.61l-.31.41-.42.59c-.36.5-.71,1.02-1.06,1.57-.52.82-1.07,1.65-1.62,2.47-1.42-.06-2.89-.15-4.38-.34l-1.83-.29c-.43-.07-.84-.17-1.25-.27-1.66-.38-3.27-.93-4.82-1.58-1.15-.45-2.29-.93-3.47-1.25-.59-.17-1.18-.31-1.77-.44-.58-.14-1.17-.26-1.76-.36-.98-.16-1.94-.35-2.88-.59-.94-.25-1.84-.59-2.73-.93-.89-.35-1.77-.74-2.64-1.17-.86-.45-1.69-.97-2.51-1.5-1.53-1-3.33-1.98-5.02-2.86-2.21-1.08-4.35-2.28-6.4-3.63-1.04-.65-2.07-1.29-3.13-1.9-1.07-.59-2.06-1.28-3.14-1.85-2.16-1.2-4.21-2.55-6.06-4.13l-2.84-2.29c-.96-.74-1.94-1.47-2.89-2.23-1.14-.87-2.35-1.62-3.53-2.44-1.17-.83-2.36-1.66-3.25-2.87-1.82-2.37-4.03-4.08-6.15-6.08-1.82-1.83-2.73-3.86-3.79-5.74-1.17-2.07.64-4.41,2.47-3.56.12.05,1.14.54,1.26.82.39.25,1.61,1.22,3.08,2.52.74.65,1.52,1.39,2.33,2.15.84.72,1.68,1.48,2.44,2.23.83.83,1.69,1.64,2.5,2.48.4.42.8.84,1.17,1.28.39.42.78.83,1.13,1.27,1.16,1.45,2.49,2.58,4.11,3.43.95.53,1.97,1.1,2.95,1.74.97.65,1.89,1.38,2.7,2.16,5.45,5.04,12.03,8.94,18.76,12.27,2.09,1.04,4.2,2.05,6.31,3.06.83.36,1.65.95,2.43,1.17.87.24,1.74.49,2.61.74l2.62.7c1.73.52,3.5.92,5.25,1.41.87.24,1.76.42,2.64.63.88.22,1.76.41,2.64.58l1.32.27,1.17.2c.45.06.93.16,1.36.15l1.04-1.47c.63-.88,1.24-1.76,1.84-2.65,1.59-2.36,2.71-3.85,4.03-6.3,1.08-2.02,2.25-3.73,3.61-5.59,1.33-1.85,2.92-3.88,4.51-6.44.15-.16.3-.33.46-.51.06-.08.13-.16.19-.25.09-.1.06-.13.29-.33.03-.07.05-.16.09-.23l.19-.18c.13-.12.25-.24.39-.36.19-.25.4-.51.6-.76.15-.25.43-.44.69-.63l.79-.57c.3-.09.6-.18.89-.27l.43-.13c.14-.04.2-.05.3-.07,1.36-.29,2.61-.76,3.81-1.45,5.39-3.42,11.27-6.44,16.17-10.61,1.59-1.06,3.23-2.35,4.88-3.62,1.54-1.39,3.11-2.74,4.39-4.07,1.26-1.36,2.41-2.53,3.18-3.5.77-.97,1.26-1.64,1.37-1.86l1.15-1.27,1.11-1.31c.73-.87,1.53-1.7,2.22-2.6.57-.71,1.15-1.39,1.74-2.07.55-.71,1.11-1.42,1.65-2.15.71-.96,1.25-1.99,1.72-2.99.41-1.03.76-2.05.88-3.06l.04-.25c.02-.11.09-.3.13-.43l.24-.88c.16-.6.35-1.21.55-1.82.54-.29,1.13-.54,1.73-.8l.91-.38.8-.31c.73-.26,1.49-.47,2.28-.63l.92-.19.23-.05.11-.03h.05s.2,0,.2,0c.11-.04.13-.02.31-.11l.58-.32c.39-.22.77-.44,1.14-.67.75-.46,1.48-.95,2.2-1.48,1.42-1.04,2.77-2.21,4.04-3.51l.73-.73c.08-.09.37-.32.58-.49l.68-.56c.92-.74,1.87-1.5,2.85-2.21,1.88.87,3.75,1.73,5.64,2.6,1.21.58,2.4,1.18,3.59,1.79,1.52.77,3.19,1.3,4.52,1.3.44.01,1.23-.26,1.91-.5.68-.35,1.34-.69,1.9-1.2.85-.69,1.67-1.39,2.58-2.04.87-.72,1.83-1.39,2.76-2.2.91-.71,2.07-1.74,2.44-2.64.23-.5.52-1.17.89-1.84.33-.71.73-1.43,1.04-2.15.67-1.41,1.18-2.69,1.15-2.99-.05-.58.47-1.74.73-2.44.79-2.06,1.38-3.92,1.86-6.06.24-1.09.34-2.2.41-3.31l.04-.84.02-.42v-.2s0-.08,0-.08c-.03-.22-.05-.44-.07-.49-.03-.15-.06-.28-.04-.43,0-.13.19-.43.16-.55.05-.43-.61-.3-.98-.13l-.14.07-.56.11-1.19.22c-.8.13-1.6.23-2.42.25-2.78.05-5.69.35-8.54.65-3.34.35-6.6.85-9.55,1.95-1.59.59-3.65.7-5.58.82-2.16.12-9.25.84-10.35.72-4.58-.49-9.6.78-14.31,1.51-2.33.36-4.56,1.05-6.89,1.37-1.82.25-3.72.07-5.59.23l-.18.02-.26.04c-.23.04-.46.08-.7.12-.48.1-.97.2-1.46.3-.99.21-2.01.42-2.89.48-.33-.45-.62-.93-.83-1.42-.55-1.33-1.13-2.41-1.79-3.36-.4-.62-.97-1.23-1.77-1.96-.74-.68-1.5-1.29-2.26-1.95l-.28-.25-.14-.13-.07-.06-.12-.13c-.33-.36-.67-.72-1-1.09-.68-.75-1.37-1.55-2.06-2.39.28-1.2.64-2.5,1.06-3.85.12-.38.23-.77.35-1.16.08-.26.14-.53.21-.8.13-.54.23-1.1.35-1.66.22-1.13.47-2.29.92-3.46.49-1.25.94-2.63,1.34-4.04.2-.7.37-1.41.53-2.12.14-.61.28-1.21.41-1.81.07-.32.14-.65.21-.97l.1-.48s.02-.08.03-.12l.09-.08.18-.15c.63-.51,1.26-1.01,1.88-1.48l.7-.51.52-.35c.69-.46,1.4-.88,2.09-1.29,1.39-.83,2.73-1.66,3.89-2.78,2.22-2.16,4.56-3.28,6.91-4.8,4.42-2.86,8.59-6.01,12.11-9.8,1.75-1.87,3.67-3.62,5.73-5.21l2.78-2.11c.89-.68,1.77-1.37,2.63-2.09,2.54-2.07,4.34-4.91,5.34-8.08.68-2.13.95-4.34.99-6.44-.01-1.04-.06-2.06-.18-3.05-.14-.97-.31-1.92-.55-2.83-.31-1.08-1.1-1.65-1.83-2.17-1.93-1.35-4.25-1.65-7.11-1.26-.76.13-1.52.24-2.29.33-.78.13-1.57.34-2.37.48l-1.2.22-1.22.29c-.82.19-1.64.36-2.48.51-1,.24-2.08.64-3.17,1.08-1.09.44-2.15,1.04-3.17,1.55-1.02.51-1.99,1.12-2.95,1.74-.96.62-1.91,1.23-2.86,1.88-4.69,1.53-9.08,4.94-13.64,6.85-.93.4-1.55.78-2.25,1.44-.48.46-.91.91-1.48,1.41-.88.7-1.81,1.43-2.73,2.06-2.33,1.58-4.67,3.32-7.05,5.1-1.01-3.84-2.04-8.06-2.99-12.14-.56-2.43-1.01-4.88-1.21-7.37l-.62-2-.31-1-.07-.23-.04-.08-.08-.15-.27-.52c-.01-.11-.14-.1-.25-.1h-.3s-.47-.02-.47-.02l-1.48-.08h-1.61c-.54,0-1.07.06-1.61.09-.54.02-1.07.09-1.6.17-.53.08-1.06.14-1.59.25-.52.13-1.04.26-1.55.38-.52.12-1.02.26-1.51.46-.61.23-1.2.43-1.78.62-.58.2-1.14.46-1.72.68-.57.24-1.16.4-1.72.67-.57.26-1.14.51-1.73.78-.8.32-1.56.75-2.32,1.18-.75.45-1.54.81-2.25,1.33-1.43,1.02-2.92,1.97-4.23,3.18-.67.58-1.36,1.14-2.02,1.74l-1.86,1.89c-1.29,1.19-2.38,2.66-3.53,4.05-4.53,5.75-8.35,12.16-11.73,18.8-1.02,2.06-2.21,4.07-3.29,6.09-.94,1.64-1.75,3.42-2.13,5.11-.7,3.57-1.98,7.04-3.13,10.64-3.32,10.3-5.86,20.89-7.73,31.58-.64,3.7-1.84,7.08-2.22,10.95-.3,3.08-.69,6.48-1.61,9.45l-.27,2.94-15.68,21.65-5.11,6.97c-.9,1.22-1.91,2.09-2.8,2.48-1.19.8-.88,1.95-3.34,1.14-.41.07-.95-2.03-.78-2.58,1.14-3.74,3.48-5.72,5.65-9.73,1.49-2.76,4.01-5.88,5.87-8.65Z"/>
  </g>
  <path class="cls-2" d="M75.59,97.55c1.26-.62,2.13-1.74,3.55-1.94.64-.09.94-1.01,1.74-.9.49.07.85-.3,1.35-.28.66.03,1-.25,1.46-.79.3-.27.45-.51,1.17-.94.56-.33.93-.38,1.41-.98.42-.53,1.57-.48,2.05-.97.97-1,2.1-.92,2.97-2.35.89-1.01,2.12-1.37,3.04-1.95,1.23-.66,2.48-1.28,3.74-1.88.3-.14.67-.15,1.01-.17.74-.05,1.26-.41,1.76-.95.93-1,4.65-2.09,5.05-2.57.54-.66,5.7-3.67,6.2-3.8.33-.09.67-.07.77-.41.6,0,1.06-.78,1.62-.67,1.03-.35,1.43-.44,2.53-1.09,1.05-.62,2.86.05,3.64-.9,2.15-1.11,3.45-1.89,3.69-2.19.42-.54.91-.21,1.33-.75.58-.74,2.51-.64,2.52-1.08.02-.47.55-.58.69-1.03.3-.96,1.2-1.25,2.18-1.29.51-.02.63-.89,1.12-.8.87.16,1.69.03,2.48-.38.84-.45,1.68-.87,2.52-1.37l1.26-.72,1.34-.67c.56-.29,1.15-.56,1.76-.76.61-.2,1.22-.35,1.87-.29,1.78-.74,2.76-.79,3.49-1.16.87-.65,1.93-.21,2.74-.93.59-.46.83-.65,1.16-.74.33-.07.73-.11,1.71-.03.36.28,1.4.61,1.77.32.98.41,1.92.43,2.01.49.7.53,1.01.57,1.35.6.33.06.72.05,1.31.77.84.34,1.2.69,1.87.36.36-.18.69.02.95.45.24.4.55.53,1,.62.23.05.44.12.65.22.19.11.36.25.53.39.34.3.64.65.94,1,.64.68,1.03,1.49,1.83,1.92.53.84,1.35,1.45,1.83,2.31l.59,1.04c.19.34.31.69.45,1.05.26.71.45,1.43.45,2.2,0,.39.49,1.14.88,1.55.6.78.12,1.7.55,2.47.29.47.24.88.12,1.25-.13.37-.32.69-.49,1.03-.27.54-.47,1.02-.28,1.7.15.49.14,1,.04,1.49-.08.5-.22,1-.33,1.48-.1.51-.39.94-.65,1.35-.25.42-.48.81-.49,1.29,0,1.38-1.31,2.21-1.3,3.54-.02.87-.74,1.07-1.04,1.78-1.17.14-1.87.86-2.42,1.88-.58,1.09-1,2.28-2.18,3.01-.37.22-.5.92-.78,1.38-.28.45-.55.95-.93,1.31-.79.78-2,.84-2.69,1.74-.64.84-1.29,1.26-1.95,2.08-.44.56-1.69,1.09-2.24,1.54-1.23,1.01-1.63,2.66-3.31,2.82-.55.41-1.31.7-1.61,1.43-.37.91-1.04,1.42-1.99,1.56-.17.02-.41.05-.5.15-.67.83-1.37,1.59-2.52,1.67-.66.56-1.36.97-2.21,1.22-.81.24-1.06,1.35-1.99,1.52-.74.13-1.19.59-1.59,1.16-.41.57-.98.9-1.65,1.13-.46.16-1.02.34-1.31.69-1.68,1.99-3.59,3.43-5.99,4.39-.9.36-1.45,1.07-2.17,1.73-.37.78-.91.91-1.56.79-.33-.06-.39.23-.35.65-.48,1.36-2,1.3-2.27,1.94-.37.89-.8,1.66-1.71,2.11-.4.18-.81.61-.85.97-.05.83-.4,1.29-.91,1.83-.38.35-.57.77-.7,1.21-.05.43-.03.9.29,1.3.21.31.35.65.4.86.01.1.03.03.08.27l.16.76c.31,1.44-.12,2.99.63,4.41.08.14.08.39.04.56-.28,1.05-.41,2.05-.37,3.04,0,.99.17,1.98.59,3.01.17.45.07,1.19-.13,1.66-.36.81-.57,1.6-.72,2.39-.16.79-.16,1.6.04,2.49.07.32.01.81-.15,1.09-.73,1.14-1.21,2.34-1.55,3.59-.15.63-.36,1.24-.55,1.86-.2.62-.39,1.23-.59,1.85l-.51,1.45c-.19.47-.43.92-.65,1.38-.46.91-.96,1.79-1.52,2.63-.29.47-.61.86-.75,1.41-.34,1.46-1.16,2.68-2.29,3.64-.68.62-1.28,1.31-1.51,2.2-.43,1.46-1.3,2.56-2.54,3.4-.61.35-1.22.81-1.67,1.35-1.16,1.37-2.63,2.46-3.64,3.92-1.06,1.48-2.72,2.3-3.85,3.68-.34.4-.58.9-.9,1.33-.32.42-.68.79-1.2,1.01-1.03.44-1.68,1.23-2.43,1.99-.66.68-1.59.74-2.41.94-.9.22-2.48-1.48-2.35-2.4,0-.06.08-.58.21-.58.14-.35,1.19-2.07,2.41-3.02.67-.53,1.29-1.12,2.13-1.38.71-.2,1.14-.67,1.39-1.35.3-.83.85-1.53,1.58-1.93.6-.34,1.17-.72,1.72-1.12.55-.41,1.08-.84,1.53-1.34l2.76-3c.59-.61,1.2-1.2,1.73-1.85.22-.25.59-.41.7-.68,1.43-3.1,3.58-5.75,4.84-8.86.34-.94.64-1.52.79-2.51.06-.41.17-.77.3-1.13.1-.37.24-.72.39-1.09.32-.73.74-1.52,1.18-2.54.47-.46.72-1.09,1.12-1.61.32-.42.47-.87.45-1.38-.12-2.34.41-4.62.26-6.9.58-2.67.17-6.41-.13-6.69-.06-.8-.03-1.61-.06-2.42,0-.65.05-1.28,0-1.99-.01-.25-.07-.52-.11-.84-.01-.3-.04-.58-.08-.83-.11-.52-.2-1-.38-1.5-.21-.53-.22-1.05-.14-1.57.07-.53.32-1,.65-1.43,1.22-1.48,2.06-2.8,2.53-4.55.48-1.73,1.66-2.98,3.18-3.79,1.34-.7,2.33-1.66,2.98-3.05.47-1.03,1.4-1.63,2.44-2.02.49-.19,1.16-.33,1.4-.67.53-.81,2.28-1.75,2.32-2.04.05-.29.5-.53.76-.67.75-.44,1.41-.81,2.1-1.31.7-.49,1.19-1.29,1.87-1.85.53-.44,1.21-.97,1.81-1.02,1.4-.1,1.92-1.43,3.07-1.85.97-.35,1.89-.89,2.78-1.41,1.05-.62,2.01-1.33,2.6-2.41.32-.58.96-.89,1.54-1.17.58-.25,2.67-1.74,3.07-1.81,1.74-.33,2.8-1.91,3.95-3.11.58-.6.94-1.38,1.5-1.96.45-.45,1.12-.67,1.62-1.09.33-.29.26-1.08.87-.98.77.12,1.11-.13,1.42-.86.37-.86.44-1.85,1.35-2.48.62-.43.77-1.28,1.46-1.78.74-.54,1.4-1.36,1.71-2.21.41-1.05,1.57-1.54,1.71-2.6.04-.5.25-.88.46-1.24.23-.36.49-.7.67-1.09.73-1.43.86-3.11-.06-4.35-.23-.3-.4-.59-.59-.87-.09-.14-.15-.28-.23-.43-.09-.15-.17-.3-.23-.46-.1-.29-.29-.71-.4-1.11-.12-.41-.2-.84-.25-1.28-.05-.68-.27-1.21-.53-1.75-.28-.51-.54-1.1-.97-1.5-.56-.57-1.05-1.23-1.63-1.72-.27-.27-.52-.56-.74-.88-.25-.28-.49-.57-.7-.93-.12-.21-.29-.33-.47-.42-.19-.08-.4-.09-.6-.15-2.01-.65-3.82-.84-6.01-1.66-.34-.1-.72-.12-1.1-.09-.19.01-.39.04-.58.06-.19.05-.38.1-.57.15-.74.19-1.43.54-2.11.91-1.75-.31-3.34.89-5.15.89-.37.02-.61.12-.85.38-.32.37-.65.76-1.08.97-2.09,1.04-4.16,2.69-6.58,3.09-.83.59-1.62,1.23-2.48,1.77-1.48.92-3.09,1.64-4.47,2.67-.84.63-1.68,1.06-2.63,1.49-2.53,1.15-4.96,2.52-7.43,3.81l-7.4,3.88c-.77.39-1.6.66-2.42.92-.68.21-1.36.46-1.8.98-.92,1.08-2.13,1.74-3.35,2.43-3.49,1.96-6.98,3.94-10.44,5.96-1.2.7-2.57.89-3.75,1.71-.94.65-2.04,1.29-3.27,1.41l-8.73,4.73c-.92.5-1.84.99-2.77,1.46-.49.25-1.01.26-1.47.06-.61-.11-.5.66-1.69-.92-.2-.15-.39-1.56-.29-1.78.7-1.53,1.92-1.53,3.14-2.73.83-.83,2.19-1.37,3.21-2.04Z"/>
  <path class="cls-2" d="M147.98,154.29c-.67.94-.78,2.15-1.81,2.79-.47.28-.25,1.14-.95,1.31-.43.1-.54.52-.96.65-.55.17-.68.52-.81,1.1-.13.32-.14.56-.54,1.13-.31.45-.61.57-.75,1.22-.12.58-1.11.82-1.33,1.36-.21.56-.58.89-.93,1.25-.36.36-.64.78-.84,1.51-.13.27-.3.52-.48.74-.19.22-.4.43-.49.52-.26.23-.53.46-.73.73-.56.65-1.08,1.39-1.55,2.2-.1.19-.35.33-.56.47-.46.31-.55.78-.46,1.3.07.49-.23,1.31-.45,2.1-.24.79-.4,1.56-.28,1.76.15.28.29,1.44.58,2.47.28,1.04.7,1.93.72,2.08.02.21-.07.46.23.47-.07.42.55.55.42.96.25.61.35.87.97,1.33.16.1.25.28.33.49.1.2.18.44.28.67.21.44.49.88.97.79,1.58.62,2.73.59,2.98.46.46-.22.63.28,1.1,0,.31-.19.76-.05,1.18.1.41.16.77.21.83.02.12-.43.51-.33.69-.69.38-.73.96-.76,1.66-.54.37.11.48-.64.82-.46.62.31,1.26.29,1.84.01.6-.34,1.16-.78,1.74-1.16.56-.41,1.07-.93,1.61-1.37.35-.27.65-.63,1-.92.35-.29.73-.53,1.22-.67.87-1.1,1.37-1.6,1.61-2.13.1-.79.94-1.04.82-1.91-.2-1.2-.18-.94.55-1.98.34-.06.96-.53.78-.9.55-.46.74-1.07.8-1.1,1.13-.58.12-.91,1.34-1.52.22-.58.51-.8.1-1.33-.21-.27-.13-.51.19-.67.3-.16.33-.39.28-.71-.23-1.31,1.31-2.06,1.17-3.35.43-.53.29-1.34.58-1.94.48-.99.81-2.02,1.81-2.73.25-.19.26-.79.18-1.18-.14-.66.69-.86.57-1.48-.14-.73.57-.85,1.02-1.16.36-.25.69-.49.57-1.01-.17-.74.24-1.35.4-2.02.17-.69,1-1.11.85-1.83-.2-1,.83-1.68.44-2.7-.25-.66.37-.87.39-1.45,1.03-.26,1.41-.94,1.5-1.84.02-.24.03-.48.04-.72l.02-.4.6-.6c.22-.22.5-.42.8-.54l.05-.02.17-.06c.24-.07.58-.15,1.02-.1.43.04.95.25,1.31.56.37.31.57.65.69.91.05.11.11.3.11.31l.02.07.03.14c.02.09.03.19.04.28.02.19.01.38-.02.56l-.03.17-.03.16-.07.27-.05.23-.07.31c-.04.19-.09.37-.15.54-.12.34-.3.66-.59.94-.24.24-.09.81-.15,1.22-.06.41-.09.84-.25,1.2-.34.76-1.35,1.09-1.49,1.96-.13.8-.46,1.31-.58,2.11-.08.54-.79,1.33-.98,1.84-.41,1.17.26,2.44-.91,3.2-.17.51-.54.99-.25,1.57.35.73.25,1.32-.31,1.86-.1.1-.25.22-.23.33.13.83.23,1.62-.46,2.26-.02.66-.16,1.26-.51,1.86-.33.58.37,1.3-.07,1.9-.35.48-.26.97-.05,1.47.21.5.14.97-.05,1.46-.14.34-.3.75-.18,1.06.73,1.8,1,3.19.86,4.77-.04.6.38.97.72,1.34.51.12.47.43.27.97-.11.28.12.24.44.08.48-.04.64.21.81.5.16.29.3.61.54.58.65-.08,1.2-.09,1.76.5.24.23.64.45.92.28.62-.38,1.06-.21,1.65,0,.39.15.81.26,1.19.17.39-.09.76-.3,1.06-.67.46-.67,1.11-.71,1.73-.96.4-.11.85-.14,1.28-.25.44-.08.84-.3,1.07-.79.05-.1.19-.14.3-.14,1.39-.09,2.55-.85,2.83-2.4.07-.33.41-.63.73-.76,1.12-.41,1.96-1.18,2.03-2.49.01-.24.18-.52.39-.63,1.71-.93,2.33-2.76,3.07-4.41.59-1.33,1.18-2.65,1.97-3.91.21-.34.44-.65.42-1.08-.06-1.15.36-2.1,1.13-2.95.49-.53.7-1.19.58-1.89-.18-1.17.12-2.13.88-3.04.34-.42.63-.94.73-1.45.26-1.33.99-2.57.94-3.96-.07-1.4.7-2.63.7-4.01-.02-.81-.46-1.64-.05-2.41.41-.77.3-1.57.25-2.37-.03-.72.54-1.25.95-1.82.45-.62,2.77-.69,3.36-.1.04.04.37.37.28.46.18.28.7,1.92.53,3.23-.1.72-.11,1.45-.53,2.08-.35.52-.41,1.04-.16,1.63.28.71.29,1.48-.03,2.12-1.06,2.11-1.36,4.39-2,6.6-.2.68-.43,1.36-.69,2.03-.1.26-.37.49-.37.74-.02,2.94-1.35,5.59-2.12,8.38-.23.84-.49,1.35-.55,2.25-.15,1.47-.98,2.39-2.05,4.08-.51.31-.9.78-1.39,1.12-.4.26-.64.59-.75,1.04-.53,2.05-1.96,3.69-3.21,5.45-.52.39-1.06.84-1.59,1.29-.56.42-1.08.89-1.59,1.26-.51.37-.95.73-1.28.99-.35.25-.58.44-.62.52-.69.4-1.48.62-2.25.83-.61.18-1.27.16-1.88.27-.81.11-1.51.39-2.11,1.01-.63.56-1.45.82-2.27.47-.72-.29-1.4-.41-2.08-.5-.68-.06-1.37.05-2.15.22-1.52.37-3.13-.19-4.29-1.44-1-1.09-2-1.88-3.4-2.58-1.04-.52-1.56-1.63-1.68-2.71-.07-.52.01-1.17-.23-1.48-.61-.73-.7-2.59-.91-2.73-.24-.16-.23-.63-.23-.9,0-.79.02-1.47-.01-2.22-.03-.76-.4-1.51-.45-2.29-.04-.61-.05-1.37.29-1.79.79-.98.09-2.07.53-3.04.36-.81.58-1.69.8-2.54.26-1,.41-2,.1-3.06-.17-.58.1-1.16.35-1.7.28-.61,1.03-2.65,1.33-2.9,1.2-1.02,1.21-2.65,1.6-4.05.19-.69.13-1.46.36-2.13.18-.53.69-.92.94-1.43.17-.34-.21-1,.38-1.08.75-.11.94-.4.96-1.1.02-.82-.22-1.74.4-2.41.05-.06.1-.12.12-.16v-.02s.01,0,.01,0l.53.21.92.36.81.3c.21.08.48.16.66.22.12.06.35.08.41.11.05,0,.08-.01.08,0,.01.04.04.08.08.1l3.35,1c-.12.46-.12.98-.46,1.44-.5.67-.86,1.53-.96,2.36-.13,1.05-1.16,1.66-1.18,2.66-.02.96-.65,1.54-1.08,2.27-.79,1.37-1.33,2.82-1.22,4.49.12,1.66-.42,3.17-1.57,4.38-.83.88-1.29,1.88-1.69,2.99-.58,1.48-1.05,3.06-2.35,4.13-.39.31-.38.75-.52,1.16-.64,2.1-1.63,4.12-3.5,5.51-.59.4-.97,1.12-1.33,1.77-.34.65-.62,1.36-.97,2.04-.79.38-1.28,1.03-1.93,1.6-.62.57-1.26,1.15-2.04,1.45-.34.1-.54.24-.68.54-.2.4-.42.89-.77,1.14-.43.34-.89.65-1.35.98l-1.39.99c-.49.28-1.03.51-1.57.71-.54.19-1.1.34-1.7.28-.86.39-1.72.94-2.69,1.09-1.65.42-3.29.31-4.96.48-.52.03-1.02.02-1.52-.07-.5-.07-1-.2-1.52-.39-1.37-.48-2.75-1.12-4-2.01-1.25-.88-2.35-2.02-3.17-3.29-1.66-2.55-2.35-5.44-2.36-8.17-.01-.85.2-1.69.43-2.48.2-.65.4-1.3.29-1.94-.25-1.35.15-2.68.67-3.97.76-1.85,1.82-3.64,3.35-5.25l1.8-1.74c.48-.54.97-1.03,1.42-1.62.64-.77,1.63-1.22,2.19-2.17.44-.76.98-1.55,1.89-1.98,1.5-2.08,2.92-4.25,4.27-6.47l1.29-2.09c.23-.36.61-.56,1.07-.58.53-.14-.01-.68,1.81.08.25.03,1.21,1.02,1.26,1.24.34,1.46-.61,1.93-.88,3.32-.2.96-.96,1.89-1.41,2.78Z"/>
  <path class="cls-2" d="M126.95,147.83c1.19.4,2.4.6,3.58.58.59.05,1.17-.04,1.76,0,.6-.03,1.14-.03,1.82,0,1.25.03,2.52-.85,3.9-.58.85.16,1.79-.14,2.69-.02,1.17.16,2.03-.06,3.3-.52.77-.22,1.23-.43,2.9-.73,1.3-.23,2-.2,3.35-.72,1.19-.46,3.25-.18,4.51-.59,2.58-.83,4.57-.53,7.3-1.82,2.44-.86,4.97-.99,7.11-1.4,2.77-.43,5.56-.83,8.34-1.2.66-.09,1.35-.03,1.98.01,1.39.09,2.64-.18,3.96-.63,2.5-.84,10.16-1.24,11.26-1.65,1.52-.57,13.33-2.66,14.35-2.7.67-.03,1.28.06,1.74-.27,1.1.1,2.55-.6,3.49-.38,2.16-.16,2.96-.19,5.49-.65,2.41-.44,5.2.58,7.38-.25,4.81-.75,7.8-1.3,8.46-1.56,1.19-.47,1.83-.05,3.01-.52,1.62-.65,5.1-.21,5.47-.66.39-.48,1.46-.49,2.06-.93,1.28-.92,3.15-1.07,4.98-.94.95.07,1.83-.8,2.66-.63,1.48.31,3.1.31,4.89,0l11.4-1.96c2.41-.4,4.87-.86,7.2-.72,3.61-.67,5.51-.81,6.69-1.28.36-.23.72-.4,1.1-.53.37-.15.73-.3,1.09-.45.37-.13.69-.34,1.01-.55.32-.2.59-.47.79-.8.58-.88.68-1.28,1.02-1.63.17-.17.33-.37.6-.64.13-.14.29-.28.47-.47.16-.2.35-.42.57-.69.28-.1.66-.48,1-.88.34-.4.54-.89.51-1.17.86-1.23,1.05-2.61,1.11-2.72.26-.53.43-.93.48-1.25.04-.32.02-.57.01-.81,0-.24-.02-.49-.01-.82,0-.34.15-.76.25-1.4-.05-.34-.09-.63-.12-.9-.05-.31-.1-.58-.17-.82-.12-.48-.3-.85-.65-1.16-.36-.31-.5-.94-.42-1.73.08-.73-.09-1.29-.38-1.93-1.19-2.62-.65-6.19-1.76-8.89-.11-1.7-.8-3.34-1.03-5.04-.37-2.77-.89-5.5-.67-8.2.06-.71-.36-2.07-.71-2.87-.58-1.35-.08-2.69-.62-3.98-.63-1.51-.17-2.53-.04-3.69.11-.93.19-1.82-.27-2.89-.65-1.52-.75-3.32-1.08-5.01-.35-1.75.03-3.52-.59-5.03-.86-2.11-.49-4.66-1.48-6.64-.65-1.3-.28-2.35-.66-3.72.67-1.54.52-3.47-.01-5.62-.57-2.28-1.36-4.41-1.36-6.98,0-.8-.55-1.89-.82-2.87-.27-.97-.57-1.97-.72-2.97-.32-2.09.19-3.98-.34-6.1-.49-1.97-.61-3.47-1.1-5.44-.08-.36-.15-.68-.21-1.04-.05-.37-.09-.77-.19-1.16-.13-.8-.4-1.59-.64-2.12-.61-1.17-1.53-1.99-2.38-2.72-.9-.7-1.68-1.38-2.43-2.35-.46-.34-.98-.61-1.48-.89-.54-.2-1.06-.41-1.6-.32-1.34.11-2.49.02-3.86-.4-.24-.07-.59-.18-.79-.13-.4.13-.78.26-1.16.36-.44.13-.96.27-1.44.36-.98.2-1.99.3-3.05.19-1.67.39-3.3.63-5.04.67-1.67.04-3.14,1.09-4.96,1.01-1.45-.06-2.68.28-3.95.74-1.28.46-2.63.63-4.04.68-.99.03-2.16.06-3.03.32-4.99,1.5-9.98,2.35-15.25,2.44-1.96.03-3.76.51-5.81.88-1.6.59-2.7.51-3.63.12-.48-.2-.95.05-1.45.47-2.66,1.09-5.1.31-6.45.76-1.91.63-3.88,1.11-6.03.97-.88-.06-2.25.03-2.97.31-1.65.66-3.12.82-4.9.84-2.4.03-4.79.39-6.95,1.38-1.75.81-3.9,1.07-5.99,1.39-2.7.41-5.46.17-8.1,1.18-.26.1-.71.14-1.03.13-3.82-.1-7.47.37-11.02,1.81-.78.31-2.12.5-3.03.48-3.13-.07-6.1.23-9.03,1.4-.54.21-1.43.38-2.01.36-4.83-.15-9.65.99-14.43,1.81-3.82.65-7.61,1.26-11.43,1.57-1.04.09-2,.14-3,.47-.72.21-1.19.42-1.72.57l-1.52.53c-.99.39-2.01.74-3.03,1.21-1.29.57-2.37,1.67-2.9,2.93-.83,2.14-1.62,3.92-2.33,6.08-.38.99-.44,2.22-.29,3.34.59,3.43.67,6.96,1.51,10.31.86,3.42.84,6.89,1.58,10.3.43,2,1.3,3.86,1.3,5.99,0,2.12.51,4.05.94,6.07.38,1.8.08,3.36-.05,4.92-.14,1.7-2.36,2.54-3.19,1.31-.05-.08-.52-.78-.47-1.01-.29-.62-1.53-4.35-1.98-7.51-.25-1.74-.59-3.47-.52-5.15.06-1.39-.14-2.66-.67-3.93-.63-1.52-1.03-3.32-1.08-5.01-.08-2.77-.37-5.54-.75-8.31-.2-1.38-.4-2.77-.6-4.15l-.31-2.08-.15-1.04-.11-1.16c-.13-1.93.07-3.87.59-5.71.25-.71.63-1.42.83-2.03.96-3.68,3.59-6.94,6.92-9.01,1.67-1.05,3.54-1.75,5.46-2.19,1-.24,1.82-.35,2.69-.51l2.57-.49c2.05-.42,3.39-.61,5.35-1.21,3.22-.99,6.02-1.05,10.7-1.67,1.26.09,2.69-.02,3.99.03,1.05.04,2.03-.09,3.02-.39,4.59-1.4,9.54-2.01,14.28-3.06,5.77-.54,13.61-1.93,14.29-2.23,1.72-.24,3.45-.38,5.17-.51,1.37-.11,2.72-.12,4.09-.22,1.79-.13,3.45-.53,4.88-1.23,1.48-.72,3.11-1.06,4.86-.98,3.09.15,6.07-.26,9-1.35,2.91-1.08,5.92-1.48,9.08-1.44,2.75.04,5.44-.4,8-1.43,1.88-.76,3.96-.96,6.05-.95.98,0,2.23.12,2.97-.14,1.71-.58,5.55-.92,5.93-1.19.37-.27,1.36-.36,1.93-.42,1.7-.18,3.18-.36,4.83-.64,1.68-.28,3.26-.93,4.95-1.29,1.33-.29,2.99-.63,4.07-.51,2.54.28,4.66-.91,7.06-1.03,2.03-.1,4.14-.41,6.21-.71,1.21-.18,2.41-.39,3.57-.67.7-.14,1.38-.28,2.06-.41.69-.09,1.38-.24,2.07-.34,1.49-.22,3.37.18,4.98.83.46.15,1.15.49,1.96.85.78.43,1.68.88,2.46,1.47.82.53,1.51,1.18,2.08,1.68.54.54.91.98,1.05,1.18,1.08,1.71,2.23,3.41,3.19,5.3l.68,1.44.56,1.49c.19.5.3,1.02.44,1.53l.19.75.13.64c.34,1.69.94,3.29,1.24,4.98.24,1.32.14,2.72.31,4.08.12.91.89,1.9.51,2.74-.48,1.06-.41,1.92.09,3.43.6,1.8,1.46,3.38,1.53,5.75.05,1.59.7,3.17.73,4.99.03,1.96.31,4.23.78,6.19.6,2.48.15,4.82.82,7.08.65,2.17.53,4.06.68,6.1.29,3.83.88,7.59,2.15,11.15,1.26,3.53,1.89,7.34,1.9,11.15.01,2.77.38,5.44.9,8.24.7,3.77,1.51,7.59,1.43,11.37-.02,1.11.32,2,.55,2.99l.22.95c.07.3.13.74.19,1.1.15.76.2,1.54.21,2.32.06.78-.06,1.56-.1,2.34-.12.77-.24,1.55-.45,2.3-.84,3-2.52,5.79-4.93,7.68-1.39,1.18-3.08,2.61-4.83,3.61-1.73.99-3.54,1.89-5.52,2.39-3.75-.09-7.65,1.05-11.34.93-.75-.03-1.28.04-1.95.29-.89.33-1.88.73-2.84.85-4.83.64-9.6,2.08-14.49,2.06-1.98.47-3.95,1-5.96,1.39-3.43.68-6.97,1.14-10.31,1.94-2.04.49-3.92.78-6,1.05-5.55.72-11.1,1.67-16.65,2.53l-16.64,2.57c-1.71.25-3.46.37-5.17.48-1.41.09-2.86.21-4.08.66-2.55.93-5.29,1.37-8.07,1.84-7.96,1.36-15.91,2.71-23.87,4.07-2.75.48-5.41.41-8.23,1.01-2.25.48-4.76.92-7.1.8l-4.94.78-1.24.19-1.51.16c-.5.07-1.01.04-1.52.05-.51.01-1.01,0-1.52-.06-4.05-.29-7.95-2-11.02-4.63-1.93-1.67-3.53-3.74-4.64-6.04-.27-.62-.45-1.22-.56-1.76-.08-.55-.06-1.05.02-1.44,0-.6-.16-1.01-.13-1.41.03-.4.26-.78,1.17-1.24.18-.24,1.7.55,1.92.85.37.58.75,1.09,1,1.63.33.51.56,1.04.86,1.55.58,1.04,1.28,2.11,2.45,3.08,1.61,1.28,3.71,2.88,5.81,3.52Z"/>
  <path class="cls-2" d="M139.47,120.98c.74-.06,1.33-.73,2.1-.36.35.17.61-.55,1.02-.13.26.26.48.06.75.28.35.29.56.16.87-.14.19-.13.3-.29.73-.39.34-.08.54.02.86-.33.28-.32.89.18,1.2-.08.63-.53,1.22-.01,1.84-.97.59-.57,1.28-.42,1.83-.58.73-.11,1.46-.19,2.2-.24.17-.01.37.12.56.24.4.25.72.12,1.04-.17.6-.55,2.7-.08,2.96-.37.36-.39,3.43-1.12,3.71-1.05.18.05.36.2.45-.07.32.22.65-.3.93.02.59.08.81.15,1.46-.02.62-.16,1.52,1.15,2.03.58,1.26-.2,2.04-.41,2.19-.59.28-.33.5.15.78-.18.38-.46,1.4.36,1.45-.04.06-.43.35-.32.47-.68.25-.77.76-.7,1.29-.37.27.17.42-.59.67-.32.45.47.9.65,1.37.55.99-.21,1.97-.46,2.97-.66.63-.12,1.26-.31,1.93.09.94-.25,1.42-.21,1.79-.44.4-.52.96-.01,1.3-.69.46-.93.35-.77,1.23-.87.2.23.74.44.83.08.49.16.89-.06.93-.03.82.54.52-.44,1.39.22.39-.14.64-.03.73-.65.05-.32.21-.39.44-.22.21.16.35.05.5-.16.6-.87,1.66.05,2.29-.73.46.08.85-.41,1.29-.45.73-.06,1.44-.26,2.22.26.21.14.54-.13.72-.37.31-.42.74.22,1.04-.16.35-.45.69.12,1.03.38.27.21.53.39.78.06.35-.47.85-.36,1.28-.5.45-.15.99.42,1.34-.02.49-.61,1.25.04,1.69-.72.29-.49.62-.02.97-.23.5.83,1.03.9,1.57.62.57-.3,1.08-.84,1.8-.55.22.09.47-.33.71-.48.24-.15.49-.34.75-.37.55-.08,1.14.64,1.67.35.49-.26.9-.21,1.4-.48.33-.18,1.05.1,1.41.04.81-.14,1.31-1.29,2.17-.54.36-.05.77.09,1.01-.4.31-.61.71-.74,1.22-.42.09.06.22.15.28.09.46-.42.93-.79,1.55-.35.42-.2.85-.25,1.34-.09.46.15.76-.72,1.27-.44.41.22.72.02,1.02-.29.31-.31.66-.33,1.05-.22.27.08.6.19.81.03,1.23-.92,2.53-1.2,3.99-.69.55.19.99-.08,1.53-.21.38-.4.7-.2,1,.29.16.25.26.06.35-.3.62-.77,1.39.26,1.72-.02.46-.41.96-.65,1.58-.28.25.15.63.23.8.03.39-.46.78-.46,1.28-.28.67.24,1.3.16,1.79-.58.4-.6.97-.62,1.52-.69.71-.1,1.51.45,2.13-.25.06-.07.18-.06.27-.01,1.08.53,2.04.47,2.88-.55.18-.22.54-.26.79-.14.88.41,1.68.46,2.37-.37.13-.15.36-.21.52-.13,1.37.69,2.59.1,3.83-.16.99-.21,1.99-.38,3.02-.27.28.03.54.08.79-.13.64-.56,1.36-.61,2.14-.25.49.22.95.15,1.33-.22.64-.63,1.33-.68,2.12-.3.36.17.77.27,1.11.19.9-.2,1.87.12,2.71-.34.86-.47,1.83-.05,2.7-.4.51-.2.93-.84,1.53-.61.59.23,1.07-.05,1.59-.25.46-.18.93.29,1.38.6.49.33.97,2.6.72,3.28-.02.04-.16.42-.23.35-.14.21-1.04,1.02-1.88,1.11-.46.05-.9.19-1.38-.07-.4-.22-.73-.16-1.02.22-.35.45-.81.64-1.28.5-1.53-.47-2.96-.07-4.43.05-.46.04-.92.04-1.38.04-.18,0-.4-.17-.54-.08-1.67,1.04-3.57.9-5.32,1.52-.52.18-.88.22-1.36.59-.79.61-1.57.36-2.81.44-.36-.23-.75-.28-1.12-.48-.3-.15-.56-.14-.8.05-1.13.86-2.44.91-3.65,1.41-1.55-.11-3.59.37-3.75.59-.45.04-.92-.02-1.39-.08-.37-.05-.75-.19-1.12-.24-.49-.07-.91.13-1.23.66-.33.54-.75.69-1.25.41-.88-.49-1.67-.42-2.36.32-.69.74-1.49.8-2.38.4-.77-.34-1.48-.22-2.08.51-.44.54-1,.5-1.58.25-.28-.12-.64-.36-.82-.2-.41.38-1.45.28-1.52.51-.07.22-.34.2-.49.19-.45,0-.85,0-1.28.09-.44.09-.81.55-1.24.71-.34.13-.77.28-1.08.05-.74-.56-1.2.38-1.86.23-.55-.12-1.11-.06-1.66,0-.64.08-1.25.28-1.73.96-.26.37-.67.34-1.04.31-.42-.03-1.78.11-2.01-.05-.97-.65-1.86.05-2.73.34-.43.14-.81.55-1.25.67-.34.09-.74-.17-1.1-.15-.24.01-.43.66-.71.19-.35-.59-.58-.62-.95-.29-.43.39-.78,1.06-1.43.86-.44-.13-.81.34-1.31.16-.55-.19-1.15-.17-1.64.08-.63.31-1.33-.39-1.89.02-.53.39-1.08.06-1.63-.01-1.04-.15-2.02.02-2.88.87-.84.85-1.84,1.04-2.9.62-.77-.3-1.48-.24-2.2-.04-.97.27-1.95.64-3.02.13-.31-.15-.52.09-.77.21-1.29.59-2.6,1-4.07.39-.44-.18-.92,0-1.36.14-.44.14-.83.45-1.25.69-1.04-.53-2.02.17-3.06-.37-.21-.11-.35-.1-.51.07-.21.23-.45.5-.7.52-1.28.09-2.45.97-3.82.4-.5.24-.99.54-1.51.7-.88.28-1.82.34-2.67.76-.52.25-1.01.33-1.56.36-1.47.09-2.92.4-4.37.62-1.45.22-2.9.48-4.36.66-.45.06-.93-.03-1.39-.11-.38-.07-.77-.11-1.07.19-.61.62-1.33.75-2.05.9-2.08.42-4.15.85-6.22,1.33-.71.17-1.47-.2-2.19.07-.58.22-1.23.37-1.89-.01-1.72.28-3.45.57-5.17.85-.54.09-1.09.17-1.64.23-.29.03-.57-.16-.79-.53-.31-.34-.34.4-.79-1.51-.09-.22-.03-1.57.05-1.73.54-1.11,1.2-.62,1.98-1.23.54-.42,1.32-.38,1.93-.58Z"/>
  <g>
    <path class="cls-2" d="M232.38,44.89l-1.53-9.85c-.34-2.18.69-4.15,2.3-4.4l27.69-4.3c1.61-.25,3.19,1.32,3.53,3.5l3.61,23.24c.34,2.18-.69,4.15-2.3,4.4l-27.69,4.3c-1.61.25-3.19-1.32-3.53-3.5l-2.08-13.39Z"/>
    <path class="cls-2" d="M230.04,41.22c-.05-.66-.71-1.18-.33-1.88.18-.32-.54-.54-.12-.92.26-.23.07-.43.29-.68.29-.31.17-.5-.13-.77-.12-.17-.28-.26-.38-.65-.07-.3.03-.48-.32-.76-.08-.06-.1-.14-.1-.24,0-.12.02-.25.05-.4.05-.29.15-.56.04-.78-.2-.47-.12-.87-.04-1.27.07-.41.11-.81-.05-1.49-.03-1.12.82-1.79,1.4-2.35.74-.59,1.62-.94,2.57-1.03l.45-.05c.13-.01.27.01.4.05.09.05.17.11.25.17.36.25.64.13.93-.16.53-.54,2.42-.04,2.65-.32.32-.38,3.06-1.06,3.31-.99.17.05.33.21.41-.06.29.23.57-.29.84.03.53.09.73.16,1.31,0,.56-.15,1.38,1.17,1.83.61,1.13-.18,1.82-.37,1.96-.55.24-.33.46.16.7-.17.33-.45,1.26.38,1.3-.01.04-.42.31-.31.41-.67.21-.76.67-.69,1.15-.35.25.18.37-.58.6-.31.41.48.82.66,1.23.57.89-.2,1.76-.43,2.65-.61.56-.11,1.13-.28,1.73.12.84-.23,1.27-.18,1.6-.41.18-.26.39-.26.6-.27.1,0,.21-.02.3-.08.12-.06.27-.16.4-.34.15-.19.26-.33.34-.44.48-.45.58-.45,1.64-.31.21.27.78.73,1.1.49.54.46,1.09.68,1.13.75.24.58.42.64.62.74.19.09.41.22.44.89.39.41.4.75,1.05.69.33-.03.49.2.42.57-.07.34.08.51.34.72.26.21.42.52.49.81.02.07.03.14.04.21,0,.05,0,.09,0,.14,0,.09,0,.19-.01.28-.03.38-.07.76.32,1.03-.08.42.4.75.43,1.15.05.66.24,1.28-.29,1.99-.14.19.12.48.36.64.42.27-.23.67.14.93.44.31-.13.62-.39.93-.21.25-.39.48-.07.7.46.31.35.75.48,1.14.14.4-.44.89,0,1.2.6.43-.06,1.12.69,1.51.49.25,0,.56.21.86-.83.47-.92.94-.64,1.42.29.51.82.96.52,1.6-.09.2.32.41.47.63.15.22.33.43.36.67.07.49-.65,1.03-.38,1.5.26.44.19.81.45,1.24.18.29-.12.94-.06,1.26.13.72,1.27,1.15.51,1.94.02.16,0,.33.03.49.03.18.12.45.36.69.59.6.63,1.41.12,2.05-.09.11-.23.26-.22.37.16.89.04,1.92-.88,2.34-.28.67-.79,1.2-1.49,1.45-.64.2-.85,1.23-1.74,1.13-.29-.06-.54-.05-.76.01-.31.06-.64.23-.89.42-.27.31-.59.32-.94.2-.25-.08-.54-.2-.73-.04-1.08.9-2.25,1.15-3.57.63-.49-.2-.89.07-1.37.19-.34.4-.62.19-.9-.31-.14-.25-.23-.06-.31.29-.54.76-1.25-.28-1.54,0-.41.4-.85.64-1.41.25-.23-.16-.57-.24-.71-.04-.34.45-.69.44-1.14.26-.6-.25-1.16-.18-1.59.55-.35.59-.86.6-1.35.67-.63.09-1.36-.47-1.91.22-.05.07-.16.05-.24,0-.98-.55-1.84-.5-2.57.5-.16.22-.48.25-.71.12-.8-.43-1.51-.48-2.12.33-.11.15-.32.21-.47.12-.47-.27-.91-.35-1.34-.35-.22,0-.43.03-.64.08l-1.04.22-.76.12c-.25.02-.5.02-.75,0-1.63-.1-3.18-1.03-3.98-2.44-.22-.38-.36-.75-.72-1.03-.48-.37-.82-.9-.99-1.47-.16-.54-.17-1.33.03-1.6.23-.44.16-.85-.2-1.19-.61-.56-.65-1.18-.27-1.9.18-.33.28-.69.21-1-.18-.8.15-1.68-.29-2.43-.45-.76-.03-1.64-.36-2.42-.19-.46-.83-.82-.58-1.36.24-.53-.03-.96-.22-1.42-.17-.41.31-.84.62-1.25.34-.45,2.61-.92,3.28-.7.04.01.42.14.35.2.21.12,1,.92,1.08,1.67.04.41.18.81-.09,1.24-.22.36-.17.66.2.92.44.31.63.72.48,1.14-.49,1.38-.12,2.66-.02,3.97.03.41.03.82.02,1.23,0,.16-.18.36-.09.49.5.72.72,1.57.87,2.31.1.41.26.83.63,1.01.21.09.33.21.63.03.4-.29.43-.05.76.03.04.02.09.03.15.03.02.07.1.12.19.16.08.04.17.08.25.11.17.07.34.13.51.23.27.16.5.15.72-.03,1-.84,2.18-.86,3.25-1.35,1.39.14,3.21-.32,3.35-.53.41-.04.83.03,1.25.1.33.05.67.2,1.01.26.44.08.81-.12,1.09-.64.29-.54.66-.68,1.12-.39.8.5,1.5.45,2.12-.28.61-.73,1.32-.77,2.13-.36.7.36,1.33.24,1.85-.48.39-.53.89-.48,1.42-.23.25.12.58.37.73.21.36-.37,1.29-.26,1.36-.48.06-.22.3-.19.44-.19.41.02.76.01,1.15-.07.39-.08.72-.53,1.1-.69.15-.06.32-.13.49-.15.04,0,.09,0,.12,0,0,0,.02.02.02.03.02.03.04.07.07.14.03.06.05.11.07.14.12.17.17.08.18-.03.02-.11-.01-.23.1-.16.22.12.35.02.42-.09.09-.12.04-.39-.55-.56-.32-.08-.23-.06-.14-.09.02,0,.04,0,.06-.1,0-.17,0-.37-.01-.55,0-.38,0-.73.09-.84.67-.88-.02-1.66-.29-2.45-.14-.39-.54-.72-.64-1.11-.08-.31.18-.67.16-.99-.01-.22-.65-.38-.18-.63.6-.32.63-.53.3-.86-.38-.38-1.04-.69-.84-1.27.14-.39-.32-.72-.14-1.18.2-.49.18-1.03-.05-1.47-.3-.56.41-1.2.01-1.69-.38-.47-.05-.96.04-1.46.16-.93.02-1.82-.82-2.57-.83-.74-1-1.64-.58-2.6.31-.7.26-1.33.07-1.98-.13-.43-.28-.87-.33-1.32-.01-.1-.02-.24-.02-.32,0-.06.02-.09.06-.11.09-.09.19-.17.29-.26.15-.15-.07-.13-.16-.14-.25-.04-.42,0-.5-.06-.09-.06-.1-.27-.24-.68-.05-.13-.12-.15-.2-.13-.04,0-.07.03-.11.05-.03.02-.05.04-.17.08-.39.14-.74.44-1.11.67-.94-.54-1.81.14-2.75-.41-.19-.11-.32-.11-.46.06-.19.22-.39.5-.62.51-1.15.07-2.18.92-3.42.34-.45.23-.88.52-1.34.68-.79.27-1.63.31-2.38.71-.46.25-.9.31-1.39.34-1.32.06-2.61.35-3.91.55-1.3.2-2.6.43-3.9.59-.4.05-.83-.04-1.25-.13-.35-.07-.7-.12-.95.17-.54.61-1.18.73-1.82.87l-.13.03h-.01s-.02.03-.02.03c-.13.09-.06.32.09.32.01,0,0,0-.04,0-.03,0-.08-.01-.12.09-.04.33-.07.66.06.98.21.51.35,1.1-.04,1.7l.76,4.63c.08.49.15.97.2,1.47.03.26-.17.51-.54.72-.35.29.4.3-1.52.74-.22.09-1.57.06-1.73-.01-1.1-.47-.6-1.06-1.2-1.75-.41-.47-.35-1.18-.55-1.73Z"/>
  </g>
</svg>