<?xml version="1.0" encoding="UTF-8"?>
<svg id="illuer_blå_bg" xmlns="http://www.w3.org/2000/svg" viewBox="0 0 140.05 126">
  <defs>
    <style>
      .cls-1 {
        fill: #ffe6c4;
      }
    </style>
  </defs>
  <path class="cls-1" d="M127,41.27c-1.64-.03-3.14.31-4.71.02-.71-.13-1.52.27-2.28-.01-.47-.18-1.04-.08-1.54-.23-.66-.2-1.17-.15-1.94,0-.46.06-.74.14-1.72.16-.76.02-1.16-.06-1.98.12-.72.16-1.88-.19-2.64-.06-1.55.25-2.66-.1-4.34.41-1.47.28-2.93.13-4.2.17-1.63,0-3.26-.02-4.88-.06-.38,0-.77-.11-1.13-.19-.79-.18-1.53-.13-2.33,0-1.51.27-5.93-.2-6.6-.06-.92.2-7.87.35-8.46.28-.39-.04-.73-.15-1.02,0-.62-.16-1.51.12-2.03-.1-1.25-.1-1.71-.16-3.2-.12-1.42.04-2.93-.82-4.25-.53-2.82,0-4.59.05-4.99.15-.72.17-1.05-.14-1.77.03-.99.24-2.94-.34-3.19-.11-.26.25-.88.16-1.26.36-.81.43-1.9.35-2.94.1-.54-.13-1.12.31-1.58.13-.82-.32-1.75-.47-2.8-.45l-6.7.12c-1.41.02-2.86.07-4.19-.23-2.14.06-3.18,0-4.05.09-1.06.27-2.11-.08-3.06.29-1.31.51-1.02.42-2.97.4-.36-.15-1.46-.33-1.79-.12-1.02-.14-1.96-.05-2.05-.07-1.61-.4-1.29.21-2.96-.26-.91.05-1.4-.04-1.81.32-.21.19-.58.21-1.03.09-.41-.11-.74-.06-1.14.05-1.61.46-3.6-.18-5.25.22-.99-.09-1.99.17-2.98.15-1.62-.03-3.23.02-4.76-.36-.06-.03-.34-.04-.57-.04-.24,0-.51,0-.79,0-.54-.01-1.06-.13-1.45-.3-.66-.27-1.09-.86-1.3-1.47-.22-.61-.2-1.26-.28-1.96-.06-.5-.08-.57-.08-.79,0-.19.03-.37.08-.53.09-.33.22-.63.32-.96.15-.52.28-1.02.11-1.68-.24-.93-.14-1.97-.18-2.97-.04-1.03.34-2.01.11-2.93-.08-.32-.11-.65-.12-.99v-.5s.02-.65.02-.65c-.05-1.15.4-2.17,1.13-2.93.23-.25.5-.42.8-.55.15-.06.3-.11.45-.16.15-.05.32-.1.38-.11.34-.08.68-.14,1.06-.31.95.25,2.04-.02,3.21-.54,1.25-.55,2.38-1.22,3.85-1.47.46-.08,1.02-.51,1.56-.76.53-.25,1.07-.52,1.63-.71,1.16-.39,2.3-.27,3.46-.78,1.07-.48,1.92-.69,2.99-1.17.72-.32,2.18-.57,2.95-.84,1.72-.59,2.92-1.67,4.63-1.69.76-.25,1.6-.41,2.18-.89.73-.6,1.59-.93,2.62-1.03.18-.02.44-.04.57-.11,1.03-.57,2.06-1.1,3.3-1.18.92-.39,1.82-.69,2.82-.88.95-.18,1.68-.94,2.73-1.07.83-.1,1.51-.42,2.18-.81.68-.4,1.44-.62,2.24-.79.56-.12,1.23-.24,1.7-.48,2.69-1.36,5.46-2.34,8.47-2.9,1.12-.21,2.1-.66,3.23-1.07.85-.5,1.49-.56,2.07-.42.29.07.54-.12.78-.41,1.41-.9,2.89-.67,3.61-1.07.51-.28,1.04-.53,1.59-.74l.44-.15c.26-.08.52-.16.79-.19.54-.06,1.09.03,1.58.27.1.05.2.1.31.15.06.03.13.07.2.1.14.07.28.14.43.2.29.12.58.21.81.23,1.03.1,1.82.41,2.74.88,1.24.63,2.56,1.09,3.94,1.15,1.12.04,2.3.49,3.45.88,1.49.51,2.84,1.39,4.48,1.57.16.02.4.12.56.21,1.93,1.09,3.93,1.82,6.15,2.02.49.04,1.23.31,1.69.56,1.59.88,3.19,1.53,5.01,1.7.33.03.84.18,1.13.35,2.43,1.39,5.22,2.09,7.9,2.95,2.14.69,4.25,1.39,6.29,2.26.56.24,1.06.47,1.67.56,1.6.25,3.09.8,4.5,1.58.88.49,1.85.81,2.82.94,1.62.22,3.06.74,4.48,1.54.65.37,1.42.73,2.17.96.91.29,1.8.65,2.68.99.44.17.89.34,1.34.5l.67.22.9.27c.18.06.36.12.52.19.75.32,1.34,1.01,1.55,1.8.11.39.12.81.1,1.24l-.03.87c-.04,1-.1,2.01-.03,3.01.07,1.19.41,2.32.22,3.54-.19,1.21-.07,2.36,0,3.56.03.53-.03,1.01-.13,1.47-.02.05-.05.4-.13.61-.07.23-.17.45-.29.65-.24.4-.57.71-.94.93-.41.24-.82.25-1.11.15-.29-.11-.45-.32-.51-.53-.12-.42.08-.86.17-1.09.04-.03.07-.3.11-.29,0-.04.02-.13-.01-.21-.01-.05-.03-.07-.06-.13-.03-.18-.05-.38-.08-.59-.11-.84-.2-1.86-.19-2.79.01-1.02-.03-2.04.17-3,.17-.79.16-1.54-.03-2.31-.23-.93-.31-2-.18-2.96l.05-.42.02-.2.02-.09c.02-.12.07-.26.06-.4-.02-.29-.25-.5-.52-.59l-.2-.08-.37-.14-.74-.27-1.49-.53-2.98-1.04c-.95-.34-1.89-.7-2.83-1.07-.36-.14-.72-.39-1.06-.47-3.93-.85-7.74-2.41-11.63-3.51-1.16-.33-1.91-.59-3.08-.8-1.92-.35-3.38-1.07-5.95-2.01-.62-.39-1.38-.72-2.04-1.1-.53-.3-1.06-.5-1.66-.61-2.74-.5-5.44-1.51-8.16-2.24-3.11-1.28-7.51-2.66-7.94-2.68-.95-.34-1.87-.73-2.79-1.13-.72-.33-1.43-.66-2.16-.99-.96-.41-1.92-.65-2.84-.67-.95-.02-1.89-.28-2.76-.8-1.54-.92-3.19-1.51-4.99-1.72-.29-.05-.28,0-.37,0-.07.02-.13.05-.18.08.04.03-.52.24-.91.37-.84.28-1.71.48-2.62.62-1.58.24-3.07.76-4.43,1.61-.99.63-2.17.95-3.36,1.14-.56.09-1.29.14-1.69.36-.92.51-3.08,1.07-3.27,1.27-.18.19-.74.34-1.06.43-.95.27-1.78.52-2.7.84-.93.33-1.77.86-2.69,1.23-.73.3-1.65.66-2.28.69-1.48.08-2.57.99-3.93,1.29-1.15.26-2.33.64-3.48,1.01-1.35.44-2.65.95-3.76,1.7-.6.41-1.44.63-2.23.84-.88.24-3.75,1.16-4.22,1.2-1.96.16-3.9,1.16-5.78,1.89-.93.36-1.78.87-2.72,1.21-.73.27-1.54.34-2.3.58-.51.16-.99.71-1.51.56-.66-.18-1.14-.06-1.95.38-.96.53-1.78,1.19-3.13,1.45-.9.18-1.74.72-2.78.91-.56.1-1.16.25-1.75.43-.3.09-.59.19-.88.29l-.42.16-.1.04s-.01,0-.02.01l-.02.02c-.1.18-.51-.31-.33,1.57.18,1.3-.06,2.37-.16,3.55-.09,1.11-.14,2.22-.1,3.32.02.55.05,1.1.11,1.64l.1.81.07.41.04.2c.01.08.03.04.04.07.2.15.36.02.36,0h0s0,0,0,0h0s.09,0,.09,0l.83.04c.55.04,1.1.1,1.65.19,1.59.25,3.15.28,4.8.22,2.22-.07,4.48-.2,6.64.2.63.12,1.17,0,1.76-.05,3.02-.23,6.02-.35,9.02.14.9.15,2.01.09,3.01.04,1-.04,1.98-.19,2.96-.29,2.1.41,4.46.09,6.56.5.43.08.74.09,1.14,0,.54-.11,1.14-.26,1.71-.25,2.83.06,5.68-.35,8.48.11,1.18-.1,2.35-.23,3.54-.28,2.03-.09,4.09-.04,6.08-.2,1.21-.1,2.32-.1,3.53-.07,3.24.08,6.5.03,9.76.03h9.76c1,.01,2.01.11,3,.2.82.08,1.65.14,2.4-.02,1.54-.31,3.15-.33,4.78-.35l14.03-.22c1.62-.03,3.14.25,4.81.16,1.33-.08,2.81-.11,4.14.18l11.59-.03,3.65.02c.64,0,1.19.15,1.54.38.57.23.88-.21,1.22.97.13.14-.46.93-.69,1.02-1.57.61-2.82.26-4.73.55-1.31.2-3.01.1-4.42.16Z"/>
  <path class="cls-1" d="M127.71,124.93c-1.6-.03-3.07.31-4.6.02-.7-.13-1.48.27-2.23-.01-.46-.18-1.01-.08-1.5-.23-.64-.2-1.14-.15-1.89,0-.45.06-.73.14-1.68.16-.75.02-1.13-.06-1.94.12-.7.16-1.83-.19-2.57-.06-1.51.25-2.6-.1-4.24.41-1.44.28-2.86.13-4.1.18-1.59,0-3.18-.02-4.77-.06-.38,0-.76-.11-1.11-.19-.77-.18-1.49-.13-2.27,0-1.47.27-5.79-.2-6.44-.06-.9.2-7.68.35-8.26.28-.38-.04-.71-.15-.99,0-.6-.16-1.48.12-1.98-.1-1.22-.1-1.67-.16-3.13-.12-1.38.04-2.86-.82-4.15-.53-2.76,0-4.48.05-4.87.15-.7.17-1.03-.14-1.73.03-.96.24-2.87-.34-3.11-.11-.26.25-.86.16-1.23.36-.79.43-1.85.34-2.87.1-.53-.13-1.1.31-1.54.13-.8-.32-1.71-.47-2.73-.45l-6.54.12c-1.38.02-2.8.07-4.09-.23-2.09.06-3.1,0-3.96.09-1.03.27-2.06-.08-2.99.29-1.28.51-1,.42-2.9.4-.35-.15-1.42-.33-1.75-.12-1-.14-1.91-.05-2-.07-1.57-.4-1.26.21-2.89-.26-.89.05-1.37-.04-1.77.32-.21.19-.57.21-1,.09-.4-.11-.73-.06-1.11.05-1.57.46-3.52-.18-5.13.22-.96-.09-1.94.17-2.91.15-1.58-.03-3.15.02-4.64-.36-.39-.1-1.19.02-1.67.16-.4.11-.78.06-1.15,0-.19-.03-.37-.05-.56-.06-.19,0-.33,0-.74.05-.83.12-1.54.1-1.96-.16-.42-.22-.75-.57-1-1-.21-.35-.3-.72-.35-1.09-.07-.38-.09-.82-.17-1.32-.12-.87-.16-1.17-.16-1.7,0-.49,0-.99-.01-1.48-.04-1.01.34-1.96.11-2.86-.32-1.26.14-2.65-.27-3.84-.13-.39-.12-.72-.09-1.06l.03-.25v-.13s.02-.24.02-.24c.01-.32.01-.64-.01-1.01.13-.32.29-.63.45-.91.15-.28.35-.57.64-.84.6-.56,1.35-.69,2.34-.74l.78-.05.51-.06.98-.11c.66-.05,1.33-.06,2.05.05.45.07,1.1-.15,1.67-.22.57-.07,1.15-.15,1.73-.15,1.19,0,2.21.48,3.44.36,1.14-.11,1.99-.04,3.14-.15.77-.08,2.2.16,2.99.15,1.78,0,3.22-.65,4.81-.12.78,0,1.61.12,2.3-.14.86-.33,1.77-.37,2.75-.14.18.04.42.11.56.08,1.13-.21,2.25-.38,3.42-.06.97-.08,1.9-.07,2.88.07.94.13,1.85-.36,2.86-.14.8.17,1.53.08,2.27-.08.75-.16,1.53-.13,2.32-.03.56.07,1.21.17,1.72.09,2.92-.43,5.79-.48,8.74-.04,1.1.16,2.14.04,3.32.02.95-.2,1.56-.06,2.04.26.25.16.53.06.85-.14,1.58-.4,2.88.28,3.67.14,1.12-.2,2.26-.3,3.45-.02.49.11,1.26.19,1.69.09.98-.24,1.81-.2,2.81-.05,1.34.2,2.71.21,4-.18,1.05-.32,2.28-.28,3.47-.27,1.54,0,3.07.4,4.63.05.16-.04.41-.02.59.02,2.13.41,4.21.46,6.32-.06.46-.11,1.23-.1,1.74,0,1.75.33,3.43.42,5.17,0,.32-.08.83-.09,1.16-.03,2.68.54,5.48.3,8.23.26,2.19-.04,4.36-.04,6.53.12.59.04,1.13.1,1.72,0,1.56-.27,3.11-.23,4.65.05.97.18,1.97.18,2.9-.01,1.57-.31,3.06-.28,4.62.02.72.14,1.54.23,2.31.22.99-.02,1.97.04,2.96.08.49.02.98.04,1.47.03.67.02,1.62-.09,2.29.07.7.1,1.38.72,1.6,1.39.26.65.17,1.56.16,2.36-.04,1.02-.1,1.97-.03,2.96.07,1.16.41,2.27.22,3.46-.19,1.19-.07,2.31,0,3.48.03.52-.03.99-.13,1.44-.05.22-.11.44-.17.66-.02.07-.03.07-.05.2-.02.14-.05.27-.09.41-.09.26-.22.5-.38.71-.37.46-.86.59-1.2.53-.34-.06-.53-.27-.6-.48-.12-.42.1-.87.04-1.07.02-.05-.12-.2-.08-.15,0,0,0,0,0,0h-.01s0,0,0,0h0s-.08,0-.08,0h0s0-.03,0-.03c-.01-.06-.02-.13-.04-.2-.05-.29-.11-.65-.17-1.06-.11-.82-.2-1.82-.19-2.72.01-.99-.03-1.99.17-2.93.17-.77.16-1.5-.03-2.26-.23-.91-.31-1.95-.18-2.89.05-.15.1-.33.13-.53.05-.19.05-.42-.1-.56-.14-.14-.35-.11-.54-.13-.23-.02-.3-.03-.78-.04-1.58-.02-3.17-.04-4.75-.05-.98-.02-1.97-.06-2.95-.1-.38-.02-.79-.14-1.13-.1-3.9.46-7.91.21-11.85.41-1.18.06-1.95.05-3.1.23-1.89.29-3.46.07-6.13,0-.7-.17-1.5-.24-2.23-.38-.58-.12-1.14-.13-1.72-.05-2.69.41-5.51.31-8.25.5-3.27-.21-7.78-.11-8.18,0-.98-.02-1.96-.09-2.93-.17-.77-.08-1.53-.16-2.31-.24-1.01-.09-1.98,0-2.84.28-.89.29-1.83.34-2.8.13-1.72-.37-3.42-.4-5.15-.03-1.72.38-3.44.34-5.2.02-1.54-.28-3.08-.27-4.6.11-1.12.28-2.3.21-3.46,0-.55-.09-1.24-.27-1.67-.19-1,.19-3.18.03-3.42.16-.23.13-.79.09-1.12.07-.96-.05-1.81-.08-2.76-.06-.96.01-1.9.25-2.88.31-.77.05-1.73.1-2.32-.07-1.39-.4-2.69.11-4.03-.04-1.14-.13-2.35-.14-3.53-.15-1.39-.01-2.75.05-4.01.41-.68.19-1.53.14-2.33.09-.89-.06-3.84-.1-4.28-.21-1.86-.48-3.97-.14-5.94-.05-.97.05-1.92.25-2.89.28-.76.02-1.53-.17-2.31-.19-.52-.01-1.14.35-1.58.05-.55-.39-1.04-.42-1.93-.26-1.06.19-2.02.56-3.34.38-.22-.03-.45-.04-.68-.03h-.35s-.18.02-.18.02c-.07,0-.03,0-.05.01-.04.03-.03.05-.12-.02-.11-.08-.21-.03-.21.05,0,.04-.01.09,0,.13l.02.37c.01.15.02.29.03.43.13,1.44-.35,2.71-.16,4.03.18,1.27-.06,2.31-.16,3.47-.05.54-.08,1.08-.1,1.62l-.02.73c0,.08,0,.17.01.24,0,.15.05.32.25.31.18-.02.34-.13.43-.23-.06-.05.33-.1.57-.14.26-.04.53-.07.79-.1.53-.06,1.07-.09,1.6-.1,1.07-.02,2.15.06,3.22.24,1.55.25,3.08.28,4.69.22,2.17-.07,4.37-.2,6.48.2.62.12,1.14,0,1.72-.05,2.95-.23,5.87-.35,8.8.14.88.15,1.97.09,2.94.04.98-.05,1.93-.19,2.89-.29,2.05.41,4.36.09,6.4.5.42.08.72.09,1.12,0,.53-.11,1.12-.26,1.66-.25,2.76.06,5.55-.35,8.28.11,1.15-.1,2.29-.23,3.45-.28,1.98-.09,4-.04,5.93-.2,1.19-.1,2.26-.1,3.45-.07,3.17.08,6.35.03,9.53.03h9.52c.98.01,1.96.11,2.93.2.8.08,1.62.14,2.34-.02,1.51-.31,3.08-.33,4.67-.35l13.7-.22c1.58-.03,3.06.25,4.69.16,1.3-.08,2.74-.11,4.04.18l11.31-.03,3.57.02c.63,0,1.16.15,1.51.38.56.23.86-.21,1.19.97.12.14-.45.93-.67,1.02-1.53.61-2.75.26-4.62.55-1.28.2-2.94.1-4.31.16Z"/>
  <path class="cls-1" d="M10.5,103.01c0-.23,0-.4-.03-.67-.02-.31-.06-.62-.07-.93-.02-.61.13-1.19.62-1.55.4-.3.72-.96,1.41-.79.39.11.79.02,1.18.18.26.1.42.14.57.13.16,0,.33-.06.54-.14.25-.06.4-.14.91-.16.41-.02.62.06,1.05-.12.38-.16.99.19,1.4.06.82-.25,1.41.1,2.3-.41.78-.28,1.56-.13,2.23-.18.86,0,1.73.02,2.59.06.2,0,.41.11.6.19.42.18.81.13,1.23,0,.8-.27,3.14.2,3.5.06.49-.2,4.18-.35,4.49-.28.2.04.39.15.54,0,.33.16.8-.12,1.08.1.33.05.56.09.8.11.12.01.25.02.39.02.17,0,.37,0,.61-.01.59-.02,1.14.17,1.58.34.45.17.78.32,1.35.21l.02.06c0,1.02.01,1.84.04,2.46.01.3.03.58.05.74.02.14.04.24.06.29.17.38-.14.56.03.94.24.52-.34,1.56-.11,1.69.25.14.16.28.36.34.43.08.34.15.1.61-.03.06-.03.09-.01.1.16-.06.41-.28.36-.14-.08.32.17.47.48.45l3.44-.12c.75-.02,1.52-.07,2.22.23,1.13-.06,1.69,0,2.15-.09.56-.27,1.12.08,1.63-.29.7-.51.54-.42,1.58-.4.1.08.29.16.48.2.13.04.16.03.18-.07.21.14.37.05.39.07.34.23.35.12.38.08-.03-.09-.02-.12.17-.15-.05-.23.04-.34-.32-.53-.19-.09-.21-.12-.09-.18.03-.01.05-.03.06-.04,0-.05.01-.1,0-.15-.01-.1-.05-.19-.11-.3-.23-.43-.18-.9-.13-1.38.03-.24.05-.48.05-.72,0-.12-.01-.23-.03-.35-.04-.16-.07-.32-.11-.49.05-.47-.02-.97,0-1.45.02-.48.1-.89.35-1.27.39-.61,1.04-1.09,1.69-1.23.68-.19,1.56-.01,2.25.16.26.1.66-.02.93-.16.44-.22.82.2,1.24,0,.49-.24.78.13,1.12.32.28.15.54.28.89.11.49-.24,1.05-.14,1.57-.18.55-.04,1.07.34,1.56.11.68-.32,1.44.14,2.09-.27.42-.27.73.05,1.16-.05.44.54,1.03.63,1.71.51.72-.13,1.4-.4,2.18-.16.24.07.6-.15.91-.22.31-.07.63-.15.94-.15.65,0,1.2.48,1.87.36.62-.11,1.08-.04,1.7-.15.42-.08,1.19.16,1.63.15.48,0,.92-.17,1.34-.26.47-.09.69-.12,1.55.14.76-.01,1.35.21,2.02.31.86.11,1.54.9,1.52,1.85,0,.17-.03.41,0,.54.07.25.12.52.16.8.03.24.06.48.09.71.03.31,0,.62-.17.94.08.53.07,1.03-.07,1.56-.03.13-.03.25,0,.38.01.06.03.13.05.19l.06.03c.08.04.15.04.04.12-.17.15-.08.22.08.12l.05-.03c.14-.1.11-.07.1.02-.01.07.03.17.09.09.02-.03.03-.05.04-.08.06-.02.19-.05.27-.07.2-.04.39-.08.59-.11.39-.06.79-.09,1.18-.1.79-.01,1.58.09,2.38.3.6.16,1.17.04,1.81.02.52-.2.85-.06,1.11.26.14.16.29.06.46-.14.86-.4,1.56.28,2,.14.31-.1.61-.17.92-.19.44-.02.29.03.45.17.09.11.28.19.28.09,0-.12,0-.17.05-.17,0-.05.05-.05.12-.07.1-.02.15-.13.13-.25-.01-.06-.04-.11-.09-.18-.05-.18-.12-.36-.22-.53-.32-.57-.28-1.24-.27-1.89,0-.21.03-.42.06-.63l.05-.31c.02-.09.03-.36.05-.53.08-.76-.02-1.58.07-2.32.01-.15.12-.33.21-.42.26-.29.73-.64,1.1-.75.38-.13.83-.23,1.33-.24.5,0,1-.03,1.51-.1l.19-.02.11-.03.21-.07c.14-.05.29-.1.43-.17.25-.11.67-.1.94,0,.95.33,1.86.42,2.81,0,.17-.08.45-.09.63-.03,1.46.54,2.98.3,4.47.26,1.19-.04,2.37-.04,3.55.12.32.04.61.1.93,0,.85-.27,1.69-.23,2.53.05.53.18,1.07.18,1.58-.01.85-.31,1.66-.28,2.51.02.39.14.84.23,1.26.22.27,0,.54,0,.8.02.28.02.48.04.99.06.43.03.88.02,1.29.06.42.05.76.12,1.12.26.37.15.69.48.84.82.14.33.23.72.23,1.16l-.05,1.33v.5c0,.13,0,.27.02.4.07.63.41,1.23.22,1.88-.19.64-.07,1.25,0,1.89.06.56-.26,1.02-.48,1.49-.24.51-1.63.66-2.01.25-.02-.03-.24-.26-.19-.33-.11-.2-.51-1.39-.49-2.38.01-.54-.03-1.08.17-1.59.17-.42.16-.82-.03-1.23-.06-.12-.11-.25-.14-.38-.04-.13-.06-.29-.08-.3-.03-.1-.02-.19.05-.32.08-.2.24-.48.13-.69-.11-.21-.35-.15-.56-.19l-.34-.02h-.51s-1.29-.04-1.29-.04c-.53-.02-1.07-.06-1.6-.1-.21-.02-.43-.14-.61-.1-2.12.46-4.3.21-6.44.41-.64.06-1.06.05-1.68.23-1.03.29-1.88.07-3.33,0-.38-.17-.82-.24-1.21-.38-.32-.12-.62-.13-.94-.05-1.46.41-2.99.31-4.48.5-.42-.05-.98-.09-1.37-.1-.18-.02-.38-.02-.54-.01-.16-.02-.31.05-.3.2.02.12.05.21.08.24,0,.08-.03.16-.06.25l-.05.14-.03.08-.03.19c-.06.42-.18.83-.24,1.25-.09.55,0,1.07.28,1.54.29.3.34,1.49.13,2.23-.17.64-.27,1.22-.29,1.87-.79-.02-1.45.06-2.21.27-.35.09-.74.16-1.14.21l-.48.05c-.12.01-.23.02-.35.01-.47,0-.94-.09-1.42-.25-.83-.28-1.67-.27-2.5.11-.61.28-1.25.21-1.88,0-.3-.09-.67-.27-.91-.19-.55.19-1.73.03-1.86.16-.13.13-.43.09-.61.07-.26-.02-.51-.04-.75-.05h-.37c-.17-.01-.33-.01-.51,0-.87.01-1.86.25-2.89.31-.37.02-.79.04-1.18.05,0-.44.03-.89.12-1.27.2-.82.17-1.39.11-2.02-.03-.32-.06-.63-.09-.95-.01-.19-.02-.23-.02-.34,0-.09,0-.18.03-.27.13-.62.14-1.28.15-1.92,0-.19,0-.38,0-.56l-.02-.28s-.02-.05-.04-.08c-.06-.08-.16-.14-.35-.07-.2.08-.14.05-.14-.02,0-.04-.03-.06-.07-.09-.01,0-.02-.02-.04-.03-.11-.01-.22-.02-.32-.03-.19-.02-.34-.04-.4-.07-1.01-.48-2.16-.14-3.23-.05-.53.05-1.04.25-1.57.28-.41.02-.83-.17-1.25-.19-.28-.01-.62.35-.86.05-.3-.39-.56-.42-1.05-.26-.57.19-1.1.56-1.82.38-.48-.12-1,.13-1.55-.03-.6-.16-1.3-.2-1.92-.1-.78.13-1.47-.35-2.19-.16-.69.18-1.26-.06-1.89-.16-1.18-.18-2.35-.18-3.49.25-.57.21-1.15.32-1.73.34-.13,0-.33,0-.4,0v-.04s-.07-.1-.15-.19c-.12-.13-.27-.15-.33-.09-.05.06-.03.17,0,.26l.03.1.03.44c.02.3.03.59.02.89,0,.6-.08,1.14-.28,1.78-.12.56,0,1.05.05,1.62.07.83.13,1.7.16,2.57-.98.04-2.02.06-3.05.01l-.77-.04-.38-.03c-.13-.01-.16-.02-.24-.04-.28-.05-.57-.12-.85-.21-.48-.15-1.07-.09-1.6-.04-.53.04-1.05.19-1.57.29-1.11-.41-2.37-.09-3.48-.5-.23-.08-.39-.09-.61,0-.29.11-.61.26-.9.25-.76-.03-1.48.06-2.28.09-1.27.04-2.64.02-3.63-.2h-.17c-.09-.85-.22-1.78-.26-2.82-.02-.68-.05-1.37-.07-2.06-.02-.54-.05-1.08-.13-1.6-.03-.14-.05-.38-.06-.42-.01-.02-.02-.04-.03-.06,0-.04,0-.08.02-.14.01-.05.02-.11.03-.16-.1-.02-.22-.02-.34-.01h-1.94s-5.18,0-5.18,0c-.53,0-1.07-.1-1.59-.19-.43-.08-.88-.14-1.27.02-.82.31-1.67.33-2.54.35l-7.44.22c-.86.03-1.66-.25-2.55-.16-.35.04-.73.07-1.1.05-.19,0-.37-.03-.56-.07-.04,0-.11-.02-.12-.03v-.04s-.06-.09-.06-.09c-.15-.03-.31.09-.27.25v2.48s0,1.94,0,1.94c0,.34-.15.63-.38.82-.23.3.21.47-.97.65-.14.07-.93-.24-1.02-.36-.61-.83-.26-1.5-.55-2.51-.2-.7-.1-1.6-.16-2.34Z"/>
  <path class="cls-1" d="M129.91,45.63c0,.23,0,.4.03.67.02.31.06.62.07.93.02.61-.13,1.19-.62,1.55-.4.3-.72.96-1.41.79-.39-.11-.79-.02-1.18-.18-.26-.1-.42-.14-.57-.13-.16,0-.33.06-.54.14-.25.06-.4.14-.91.16-.41.02-.62-.06-1.05.12-.38.16-.99-.19-1.4-.06-.82.25-1.41-.1-2.3.41-.78.28-1.56.13-2.23.18-.86,0-1.73-.02-2.59-.06-.2,0-.41-.11-.6-.19-.42-.18-.81-.13-1.23,0-.8.27-3.14-.2-3.5-.06-.49.2-4.18.35-4.49.28-.2-.04-.39-.15-.54,0-.33-.16-.8.12-1.08-.1-.33-.05-.56-.09-.8-.11-.12-.01-.25-.02-.39-.02-.17,0-.37,0-.61.01-.59.02-1.14-.17-1.58-.34-.45-.17-.78-.32-1.35-.21l-.02-.06c0-1.02-.01-1.84-.04-2.46-.01-.3-.03-.58-.05-.74-.02-.14-.04-.24-.06-.29-.17-.38.14-.56-.03-.94-.24-.52.34-1.56.11-1.69-.25-.14-.16-.28-.36-.34-.43-.08-.34-.15-.1-.61.03-.06.03-.09.01-.1-.16.06-.41.28-.36.14.08-.32-.17-.47-.48-.45l-3.44.12c-.75.02-1.52.07-2.22-.23-1.13.06-1.69,0-2.15.09-.56.27-1.12-.08-1.63.29-.7.51-.54.42-1.58.4-.1-.08-.29-.16-.48-.2-.13-.04-.16-.03-.18.07-.21-.14-.37-.05-.39-.07-.34-.23-.35-.12-.38-.08.03.09.02.12-.17.15.05.23-.04.34.32.53.19.09.21.12.09.18-.03.01-.05.03-.06.04,0,.05-.01.1,0,.15.01.1.05.19.11.3.23.43.18.9.13,1.38-.03.24-.05.48-.05.72,0,.12.01.23.03.35.04.16.07.32.11.49-.05.47.02.97,0,1.45-.02.48-.1.89-.35,1.27-.39.61-1.04,1.09-1.69,1.23-.68.19-1.56.01-2.25-.16-.26-.1-.66.02-.93.16-.44.22-.82-.2-1.24,0-.49.24-.78-.13-1.12-.32-.28-.15-.54-.28-.89-.11-.49.24-1.05.14-1.57.18-.55.04-1.07-.34-1.56-.11-.68.32-1.44-.14-2.09.27-.42.27-.73-.05-1.16.05-.44-.54-1.03-.63-1.71-.51-.72.13-1.4.4-2.18.16-.24-.07-.6.15-.91.22-.31.07-.63.15-.94.15-.65,0-1.2-.48-1.87-.36-.62.11-1.08.04-1.7.15-.42.08-1.19-.16-1.63-.15-.48,0-.92.17-1.34.26-.47.09-.69.12-1.55-.14-.76.01-1.35-.21-2.02-.31-.86-.11-1.54-.9-1.52-1.85,0-.17.03-.41,0-.54-.07-.25-.12-.52-.16-.8-.03-.24-.06-.48-.09-.71-.03-.31,0-.62.17-.94-.08-.53-.07-1.03.07-1.56.03-.13.03-.25,0-.38-.01-.06-.03-.13-.05-.19l-.06-.03c-.08-.04-.15-.04-.04-.12.17-.15.08-.22-.08-.12l-.05.03c-.14.1-.11.07-.1-.02.01-.07-.03-.17-.09-.09-.02.03-.03.05-.04.08-.06.02-.19.05-.27.07-.2.04-.39.08-.59.11-.39.06-.79.09-1.18.1-.79.01-1.58-.09-2.38-.3-.6-.16-1.17-.04-1.81-.02-.52.2-.85.06-1.11-.26-.14-.16-.29-.06-.46.14-.86.4-1.56-.28-2-.14-.31.1-.61.17-.92.19-.44.02-.29-.03-.45-.17-.09-.11-.28-.19-.28-.09,0,.12,0,.17-.05.17,0,.05-.05.05-.12.07-.1.02-.15.13-.13.25.01.06.04.11.09.18.05.18.12.36.22.53.32.57.28,1.24.27,1.89,0,.21-.03.42-.06.63l-.05.31c-.02.09-.03.36-.05.53-.08.76.02,1.58-.07,2.32-.01.15-.12.33-.21.42-.26.29-.73.64-1.1.74-.38.13-.83.23-1.33.24-.5,0-1,.03-1.51.1l-.19.02-.11.03-.21.07c-.14.05-.29.1-.43.17-.25.11-.67.1-.94,0-.95-.33-1.86-.42-2.81,0-.17.08-.45.09-.63.03-1.46-.54-2.98-.3-4.47-.26-1.19.04-2.37.04-3.55-.12-.32-.04-.61-.1-.93,0-.85.27-1.69.23-2.53-.05-.53-.18-1.07-.18-1.58.01-.85.31-1.66.28-2.51-.02-.39-.14-.84-.23-1.26-.22-.27,0-.54,0-.8-.02-.28-.02-.48-.04-.99-.06-.43-.03-.88-.02-1.29-.06-.42-.05-.76-.12-1.12-.26-.37-.15-.69-.48-.84-.82-.14-.33-.23-.72-.23-1.16l.05-1.33v-.5c0-.13,0-.27-.02-.4-.07-.63-.41-1.23-.22-1.88.19-.64.07-1.25,0-1.89-.06-.56.26-1.02.48-1.49.24-.51,1.63-.66,2.01-.25.02.03.24.26.19.33.11.2.51,1.39.49,2.38-.01.54.03,1.08-.17,1.59-.17.42-.16.82.03,1.23.06.12.11.25.14.38.04.13.06.29.08.3.03.1.02.19-.05.32-.08.2-.24.48-.13.69.11.21.35.15.56.19l.34.02h.51s1.29.04,1.29.04c.53.02,1.07.06,1.6.1.21.02.43.14.61.1,2.12-.46,4.3-.21,6.44-.41.64-.06,1.06-.05,1.68-.23,1.03-.29,1.88-.07,3.33,0,.38.17.82.24,1.21.38.32.12.62.13.94.05,1.46-.41,2.99-.31,4.48-.5.42.05.98.09,1.37.1.18.02.38.02.54.01.16.02.31-.05.3-.2-.02-.12-.05-.21-.08-.24,0-.08.03-.16.06-.25l.05-.14.03-.08.03-.19c.06-.42.18-.83.24-1.25.09-.55,0-1.07-.28-1.54-.29-.3-.34-1.49-.13-2.23.17-.64.27-1.22.29-1.87.79.02,1.45-.06,2.21-.27.35-.09.74-.16,1.14-.21l.48-.05c.12-.01.23-.02.35-.01.47,0,.94.09,1.42.25.83.28,1.67.27,2.5-.11.61-.28,1.25-.21,1.88,0,.3.09.67.27.91.19.55-.19,1.73-.03,1.86-.16.13-.13.43-.09.61-.07.26.02.51.04.75.05h.37c.17.01.33.01.51,0,.87-.01,1.86-.25,2.89-.31.37-.02.79-.04,1.18-.05,0,.44-.03.89-.12,1.27-.2.82-.17,1.39-.11,2.02.03.32.06.63.09.95.01.19.02.23.02.34,0,.09,0,.18-.03.27-.13.62-.14,1.28-.15,1.92,0,.19,0,.38,0,.56l.02.28s.02.05.04.08c.06.08.16.14.35.07.2-.08.14-.05.14.02,0,.04.03.06.07.09.01,0,.02.02.04.03.11.01.22.02.32.03.19.02.34.04.4.07,1.01.48,2.16.14,3.23.05.53-.05,1.04-.25,1.57-.28.41-.02.83.17,1.25.19.28.01.62-.35.86-.05.3.39.56.42,1.05.26.57-.19,1.1-.56,1.82-.38.48.12,1-.13,1.55.03.6.16,1.3.2,1.92.1.78-.13,1.47.35,2.19.16.69-.18,1.26.06,1.89.16,1.18.18,2.35.18,3.49-.25.57-.21,1.15-.32,1.73-.34.13,0,.33,0,.4,0v.04s.07.1.15.19c.12.13.27.15.33.09.05-.06.03-.17,0-.26l-.03-.1-.03-.44c-.02-.3-.03-.59-.02-.89,0-.6.08-1.14.28-1.78.12-.56,0-1.05-.05-1.62-.07-.83-.13-1.7-.16-2.57.98-.04,2.02-.06,3.05-.01l.77.04.38.03c.13.01.16.02.24.04.28.05.57.12.85.21.48.15,1.07.09,1.6.04.53-.04,1.05-.19,1.57-.29,1.11.41,2.37.09,3.48.5.23.08.39.09.61,0,.29-.11.61-.26.9-.25.76.03,1.48-.06,2.28-.09,1.27-.04,2.64-.02,3.63.2h.17c.09.85.22,1.78.26,2.82.02.68.05,1.37.07,2.06.02.54.05,1.08.13,1.6.03.14.05.38.06.42.01.02.02.04.03.06,0,.04,0,.08-.02.14-.01.05-.03.11-.03.16.1.02.22.02.34.01h1.94s5.18,0,5.18,0c.53,0,1.07.1,1.59.19.43.08.88.14,1.27-.02.82-.31,1.67-.33,2.54-.35l7.44-.22c.86-.03,1.66.25,2.55.16.35-.04.73-.07,1.1-.05.19,0,.37.03.56.07.04,0,.11.02.12.03v.04s.06.09.06.09c.15.03.31-.09.27-.25v-2.48s0-1.94,0-1.94c0-.34.15-.63.38-.82.23-.3-.21-.47.97-.65.14-.07.93.24,1.02.36.61.83.26,1.5.55,2.51.2.7.1,1.6.16,2.34Z"/>
  <path class="cls-1" d="M18.06,96.26c.03-.67-.31-1.29-.02-1.93.13-.29-.27-.62.01-.93.18-.19.08-.42.23-.63.2-.27.15-.48,0-.79-.06-.19-.14-.3-.16-.7-.02-.31.06-.47-.12-.81-.16-.29.19-.77.06-1.08-.25-.63.1-1.09-.41-1.77-.28-.6-.13-1.2-.17-1.72,0-.67.02-1.33.06-2,0-.16.11-.32.19-.46.18-.32.13-.62,0-.95-.27-.62.2-2.42.06-2.7-.2-.38-.35-3.22-.28-3.46.04-.16.15-.3,0-.42.16-.25-.12-.62.1-.83.1-.51.16-.7.12-1.31-.04-.58.82-1.2.53-1.74,0-1.15-.05-1.87-.15-2.04-.17-.29.14-.43-.03-.72-.24-.4.34-1.2.11-1.3-.25-.11-.16-.36-.36-.52-.43-.33-.34-.78-.1-1.2.13-.22-.31-.46-.13-.65.32-.34.47-.71.45-1.14l-.12-2.74c-.02-.58-.07-1.17.23-1.71-.06-.87,0-1.3-.09-1.66-.27-.43.08-.86-.29-1.25-.51-.54-.42-.42-.4-1.22.15-.15.33-.6.12-.73.14-.42.05-.8.07-.84.4-.66-.21-.53.26-1.21-.05-.37.04-.57-.32-.74-.19-.09-.21-.24-.09-.42.03-.04.05-.08.06-.12,0-.07.01-.13,0-.19-.01-.13-.05-.26-.11-.4-.22-.57-.19-1.23-.14-1.82.05-.6.12-1.14-.02-1.86.06-.02.11-.04.16-.06.8.09,1.37-.17,2.17-.15.63.02,1.26.01,1.87.05.4.04.67.12,1,.31.16.1.5-.02.7-.16.34-.22.63.2.95,0,.38-.24.6.13.87.32.21.15.42.28.69.11.38-.24.8-.14,1.21-.18.42-.04.82.34,1.2.11.53-.32,1.11.14,1.61-.27.33-.27.56.05.9-.05.17.27.37.43.59.5.28.08.7.07,1.11,0,.88-.13,2.02-.4,2.82-.16h.03c-.05.35.16.59.23.96.07.36.15.76.15,1.19,0,.9-.48,1.86-.36,2.22.11.48.04.83.15,1.31.08.32-.16.92-.15,1.25,0,.74.65,1.35.12,2.02,0,.33-.12.67.14.96.33.36.37.74.14,1.15-.04.07-.11.17-.08.23.21.47.38.94.06,1.43.08.41.07.8-.07,1.2-.13.39.36.78.14,1.2-.17.34-.08.64.08.95.16.32.13.64.03.97-.07.23-.17.51-.09.72.43,1.22.48,2.42.04,3.66-.16.46-.04.9-.02,1.39.2.4.06.65-.26.86-.16.1-.06.22.14.36.4.66-.28,1.21-.14,1.54.2.47.3.95.02,1.45-.11.2-.19.53-.09.71.24.41.2.76.05,1.18-.2.56-.21,1.13.18,1.68.32.44.28.95.27,1.45,0,.65-.4,1.28-.05,1.94.04.07.02.17-.02.25-.41.89-.46,1.76.06,2.65.11.19.1.51,0,.73-.33.73-.42,1.44,0,2.16.08.13.09.35.03.48-.54,1.12-.3,2.3-.26,3.44.04.92.04,1.83-.12,2.73-.04.25-.1.47,0,.72.27.65.23,1.3-.05,1.95-.09.2-.13.41-.13.61,0,.11.01.19.04.32.02.17.06.35.11.53.31,1.21.28,2.55-.02,3.42-.02.05-.03.11-.05.17-.58-.11-1.12-.18-1.58-.17-.69.02-1.41-.04-2.09-.08l-.49-.03h-.31c-.21,0-.41.01-.61.06-.83.2-1.64-.14-2.47-.01-.48.07-.95.41-1.45.22-.5-.19-.97-.07-1.45,0-.43.06-.79-.26-1.15-.48-.39-.24-.51-1.63-.19-2.01.02-.02.2-.24.25-.19.16-.11,1.07-.51,1.83-.49.42.01.83-.03,1.23.17.32.17.63.16.94-.03.38-.23.82-.31,1.21-.18.65.21,1.31.29,1.97.32l1.19.05.37.04.06-.32c.02-.08.14-.11.1-.23-.12-.32-.19-.56-.23-.79-.04-.38-.06-.82-.07-1.23-.02-.83,0-1.66-.11-2.49-.06-.49-.05-.82-.23-1.3-.29-.79-.07-1.45,0-2.57.17-.29.24-.63.38-.93.12-.24.13-.48.05-.72-.41-1.12-.31-2.3-.5-3.45.21-1.37.11-3.26,0-3.43.02-.41.09-.82.17-1.23.06-.32.18-.64.24-.97.09-.42,0-.83-.28-1.19-.29-.37-.34-.77-.13-1.17.37-.72.4-1.43.03-2.15-.38-.72-.34-1.44-.02-2.18.28-.64.27-1.29-.11-1.92-.28-.47-.21-.96,0-1.45.09-.23.27-.52.19-.7-.19-.42-.03-1.33-.16-1.43-.13-.1-.09-.33-.07-.47.05-.4.08-.76.06-1.15-.01-.4-.25-.8-.31-1.2-.05-.32-.1-.72.07-.97.4-.58-.11-1.12.04-1.69.13-.48.14-.98.15-1.48.01-.58-.05-1.15-.41-1.68-.19-.28-.14-.64-.09-.97.06-.37.1-1.61.21-1.79.48-.78.14-1.66.05-2.49-.05-.41-.25-.8-.28-1.21,0-.16.03-.32.08-.48.05-.03.1-.05.11-.08.01-.06-.35.08-.05-.07.39-.21.42-.35.26-.31-.06.02-.14.06-.22.12-.2.15-.28.28-.23.16.02-.12-.09.13-.08-.03,0-.02,0-.04-.01-.06-.01-.02-.11-.03-.16-.04-.12-.03-.25-.04-.37-.05-.25-.02-.51,0-.74.05-.6.13-1.13-.35-1.69-.16-.53.18-.97-.06-1.45-.16-.91-.18-1.81-.18-2.69.25-.44.21-.88.32-1.33.34-.22,0-.45,0-.68-.05-.11-.02-.22-.05-.34-.08-.09-.03-.28-.07-.25-.11-.09-.25-.33-.28-.41-.22l-.04.03c.07.26.13.24-.23.49-.12.26,0,.48.05.72.23,1.24.35,2.46-.14,3.69-.15.37-.09.82-.04,1.23.04.41.19.81.29,1.21-.41.86-.09,1.82-.5,2.68-.08.17-.09.3,0,.47.11.22.26.47.25.7-.06,1.15.35,2.32-.11,3.47.1.48.23.96.28,1.44.09.83.04,1.67.2,2.48.1.5.1.95.07,1.44-.08,1.33-.03,2.66-.03,3.99,0,1.33.02,2.66,0,3.99,0,.41-.1.82-.19,1.23-.08.33-.14.68.02.98.31.63.33,1.29.35,1.96.06,1.91.12,3.82.22,5.73.03.66-.25,1.28-.16,1.96.08.54.11,1.15-.18,1.69l.03,4.74-.02,1.49c0,.26-.15.49-.38.63-.23.23.21.36-.97.5-.14.05-.93-.19-1.02-.28-.61-.64-.26-1.15-.55-1.93-.2-.54-.1-1.23-.16-1.81Z"/>
  <path class="cls-1" d="M71.62,99.23c.72.03,1.39-.31,2.08-.02.32.13.67-.27,1.01.01.1.09.22.11.33.12.12.02.16.03.25.11.22.2.41.15.56,0,.11-.06.13-.14.36-.16.1,0,.2.01.28,0,0-.07-.04-.18-.12-.33-.16-.27.19-.33.06-.6-.13-.26-.1-.29-.11-.58,0-.3-.04-.61-.3-.98-.28-.65-.13-1.29-.17-1.85,0-.72.02-1.44.06-2.15,0-.17.11-.34.19-.5.18-.35.13-.67,0-1.03-.27-.66.2-2.62.06-2.91-.2-.41-.35-3.47-.28-3.73.04-.17.15-.32,0-.45.16-.27-.12-.67.1-.9.1-.55.16-.76.12-1.41-.04-.63.82-1.29.53-1.87,0-1.25-.05-2.02-.15-2.2-.17-.32.14-.46-.03-.78-.24-.44.34-1.3.11-1.41-.25-.12-.16-.39-.36-.56-.43-.36-.35-.84-.1-1.3.13-.24-.31-.5-.13-.7.32-.36.47-.77.45-1.24l-.12-2.96c-.02-.62-.06-1.26.23-1.85-.06-.94,0-1.4-.09-1.79-.27-.47.08-.93-.29-1.35-.51-.58-.42-.45-.4-1.31.15-.16.33-.64.12-.79.14-.45.05-.86.07-.9.4-.71-.21-.57.26-1.31-.05-.4.04-.62-.32-.8-.19-.09-.21-.26-.09-.45.11-.18.06-.33-.05-.5-.46-.71.18-1.59-.22-2.32.09-.44-.17-.88-.15-1.31.03-.72-.02-1.42.36-2.1.1-.27-.02-.33-.16-.34-.22.02.2-.22,0-.2-.21.08.05-.12.24-.4.02-.03.03-.05.04-.08.07-.15.05-.28-.17-.11-.29.24-.35.14-.5.18,0,.02-.32-.06-.51-.13-.22-.06-.43-.1-.63.01-.57.32-1.2-.14-1.74.27-.35.27-.6-.05-.97.05-.36-.54-.86-.63-1.42-.51-.6.13-1.17.4-1.82.16-.2-.07-.5.15-.76.22-.26.07-.52.15-.78.15-.27,0-.52-.12-.77-.23-.12-.05-.27-.1-.36-.13-.05-.03-.1-.04-.14,0-.14.11-.3.04-.37.15-.01.03-.07.01-.17-.02-.05.03-.14.07-.13.16,0,.15.17.34.26.44.02.03.04.05.06.07.01.02.02.02,0,.14-.01.18-.07.35-.2.53,0,.35-.12.73.14,1.04.33.39.37.8.14,1.24-.04.08-.11.19-.08.25.21.51.38,1.02.06,1.54.08.44.07.86-.07,1.3-.13.42.36.84.14,1.29-.17.36-.08.69.07,1.03.16.34.13.69.03,1.05-.07.25-.17.55-.09.78.43,1.32.48,2.62.04,3.95-.16.5-.04.97-.02,1.5.2.43.06.7-.26.92-.16.11-.06.24.14.38.4.71-.28,1.3-.14,1.66.2.51.3,1.02.02,1.56-.11.22-.19.57-.09.76.24.44.2.82.05,1.27-.2.61-.21,1.23.18,1.81.32.47.28,1.03.27,1.57,0,.7-.4,1.39-.05,2.09.04.07.02.19-.02.26-.41.96-.46,1.9.06,2.86.11.21.1.56,0,.79-.33.79-.42,1.55,0,2.34.08.14.09.38.03.52-.54,1.21-.3,2.48-.26,3.72.04.99.04,1.97-.12,2.95-.04.27-.1.51,0,.78.27.7.23,1.41-.05,2.1-.18.44-.18.89.01,1.31.08.18.13.35.17.53.02.09.03.17.04.26,0,.13.01.31,0,.47,0,.65-.09,1.28-.24,1.82-.14.51-.23,1.04-.22,1.64v.08c-.73.01-1.51-.05-2.25-.09-.37-.02-.73-.03-1.08-.03-.18,0-.35,0-.53.02-.2.01-.24.03-.37.05-.11.02-.22.04-.34.05-.14,0-.1.01-.16.01-.07,0-.14-.02-.23-.04-.16-.04-.37-.1-.47-.03,0,0-.02.01-.02.02.1.29.38.54.2.57-.1.03-.11.12-.1.19.03.23.06.45.1.69.06.47-.26.85-.48,1.24-.24.42-1.63.55-2.01.21-.02-.02-.24-.22-.19-.27-.06-.08-.18-.37-.29-.74-.05-.19-.11-.39-.14-.6-.02-.11-.03-.21-.04-.32v-.16s-.01-.25-.01-.25c.01-.7-.03-1.47.17-2,.14-.37.16-.75.03-1.32.05-.02.09-.04.13-.07.4-.23,1.19-.31,1.93-.18.55.1,1.11.17,1.55.22l.81.1c.36.04.72.03,1.1.05v-.16c.03-.23.07-.45.11-.7.02-.09.14-.19.1-.29-.06-.11-.1-.37-.14-.58-.04-.22-.07-.44-.09-.67-.04-.45-.06-.89-.07-1.34-.02-.9,0-1.79-.11-2.68-.06-.53-.05-.88-.23-1.4-.29-.85-.07-1.56,0-2.77.17-.31.24-.68.38-1.01.12-.26.13-.52.05-.78-.41-1.21-.31-2.49-.5-3.73.21-1.48.11-3.52,0-3.7.02-.44.09-.89.17-1.33.06-.35.18-.69.24-1.04.09-.46,0-.89-.28-1.28-.29-.4-.34-.83-.13-1.27.37-.78.4-1.54.03-2.33-.38-.78-.34-1.55-.02-2.35.28-.69.27-1.39-.11-2.08-.28-.5-.21-1.04,0-1.57.09-.25.27-.56.19-.76-.19-.45-.03-1.44-.16-1.54-.13-.1-.09-.36-.07-.5.05-.44.08-.82.06-1.25-.01-.44-.25-.86-.31-1.3-.05-.35-.1-.78.07-1.05.4-.63-.11-1.21.04-1.82.12-.52.14-1.06.15-1.6.01-.63-.05-1.24-.41-1.81-.19-.31-.14-.69-.09-1.05.03-.2.05-.64.08-1.04.02-.2.04-.4.05-.56.02-.24.05-.5.07-.58.37-1.12.25-2.28.14-3.68.33-.03.68-.07,1.03-.09.75-.05,1.47-.25,2.33-.28.3,0,.73.03.94.08.17.05.35.1.52.11.24.01.52-.35.71-.05.25.39.47.42.87.26.48-.19.91-.56,1.51-.38.4.12.83-.13,1.29.03.5.16,1.08.2,1.59.1.65-.13,1.22.35,1.82.16.29-.09.55-.08.8-.03.26.05.44.14.97.18,1.21.13,2.29.16,3.63.01.06.41.15.81.27,1.23.21.73.32,1.67.34,2.64,0,.29,0,.35,0,.49,0,.12-.02.24-.04.36-.04.24-.1.49-.19.73-.25.7-.28,1.39-.22,2.12.07.98.2,1.98-.2,2.93-.12.28,0,.52.05.78.23,1.33.35,2.65-.14,3.98-.15.4-.09.89-.04,1.33.04.44.19.87.29,1.31-.41.93-.09,1.97-.5,2.89-.08.19-.09.33,0,.5.11.24.26.5.25.75-.06,1.25.35,2.51-.11,3.74.1.52.23,1.04.28,1.56.09.89.04,1.81.2,2.68.1.54.1,1.02.07,1.56-.08,1.43-.03,2.87-.03,4.31,0,1.44.02,2.87,0,4.31,0,.44-.1.89-.19,1.32-.08.36-.14.73.02,1.06.31.68.33,1.39.35,2.11l.21,6.87c.03,1.17-.15,2.13-.18,3.21-.27,0-.54,0-.81.02-1.06.08-2.42.11-3.54-.18l-5.21.03-1.61-.02c-.28,0-.52-.15-.68-.38-.25-.23-.39.21-.54-.97-.06-.14.2-.93.3-1.02.69-.61,1.25-.26,2.09-.55.58-.2,1.33-.1,1.95-.16Z"/>
  <path class="cls-1" d="M124.76,101.33c-.17,0-.34,0-.5.03-.24.03-.48.05-.71.08-.49.05-1,.06-1.39-.09-.31-.13-1.14.26-1.36,0v-.02c.18-.45.09-.69.24-1.09.2-.51.15-.71,0-1.08-.06-.24-.14-.38-.16-.95,0-.19,0-.34,0-.49,0-.12-.03-.25-.12-.42-.16-.3.19-.78.06-1.1-.25-.64.1-1.11-.41-1.81-.28-.61-.13-1.22-.18-1.74,0-.68.02-1.35.06-2.03,0-.16.11-.32.19-.47.18-.33.13-.63,0-.97-.27-.63.2-2.46.06-2.74-.2-.38-.35-3.27-.28-3.52.04-.16.15-.3,0-.42.16-.26-.12-.63.1-.84.1-.52.16-.71.12-1.33-.04-.59.82-1.22.53-1.77,0-1.17-.05-1.91-.15-2.07-.17-.3.14-.44-.03-.74-.24-.41.34-1.22.11-1.33-.25-.11-.16-.37-.36-.53-.43-.34-.34-.79-.1-1.22.13-.22-.31-.47-.13-.66.32-.34.47-.73.45-1.16l-.12-2.79c-.02-.59-.07-1.19.23-1.74-.06-.89,0-1.32-.09-1.69-.27-.44.08-.88-.29-1.27-.51-.55-.42-.43-.4-1.24.15-.15.33-.61.12-.74.14-.43.05-.81.07-.85.4-.67-.21-.54.26-1.23-.05-.38.04-.58-.32-.75-.19-.09-.21-.24-.09-.43.11-.17.06-.31-.05-.47-.46-.67.19-1.5-.22-2.18.09-.41-.17-.83-.15-1.24.03-.67-.02-1.34.36-1.98.05-.08.04-.21,0-.34-.04-.13-.1-.09-.16-.12-.22,0,.2-.19,0-.18-.24.08.13-.18.32-.46.05-.07.09-.14.13-.2.02-.07-.04-.09-.2.02-.32.24-.35.14-.5.18-.07.02-.11-.06-.18-.13-.17-.06-.39-.1-.58.01-.54.32-1.13-.14-1.64.27-.33.27-.57-.05-.91.05-.34-.54-.81-.63-1.34-.51-.56.13-1.1.4-1.71.16-.19-.07-.47.15-.71.22-.24.07-.49.15-.73.15-.51,0-.94-.48-1.47-.36-.22.06-.5.07-.62.08-.07.01-.13.02-.19.08-.05.08-.35-.16-.49-.15-.04,0-.07.02-.08.05.07.17.2.35.25.44.06.1.04.11-.18.13,0,.12-.12.1.14.5.33.37.37.75.14,1.17-.04.07-.11.18-.08.24.21.48.38.96.06,1.46.08.41.07.81-.07,1.23-.13.4.36.79.14,1.22-.17.34-.08.65.08.97.16.32.13.65.03.99-.07.24-.17.52-.09.73.43,1.24.48,2.46.04,3.72-.16.47-.04.91-.02,1.42.2.4.06.66-.26.87-.16.11-.06.23.14.36.4.67-.28,1.23-.14,1.56.2.48.3.96.02,1.47-.11.21-.19.54-.09.72.24.42.2.77.05,1.2-.2.57-.21,1.15.18,1.71.32.45.28.97.27,1.48,0,.66-.4,1.31-.05,1.97.04.07.02.18-.02.25-.41.91-.46,1.79.06,2.69.11.2.1.52,0,.74-.33.74-.42,1.46,0,2.2.08.14.09.35.03.49-.54,1.14-.3,2.34-.26,3.5.04.93.04,1.86-.12,2.78-.04.25-.1.48,0,.73.27.66.23,1.33-.05,1.98-.18.41-.18.84.01,1.24.31.67.28,1.3-.02,1.97-.14.31-.23.66-.22.98.02.42-.04.84-.08,1.26l-.03.31v.16s0,.24,0,.24c0,.34.02.68.07,1.04.13.95.03,1.83-.01,2.65-.52-.03-1.02-.04-1.49,0-.73.07-1.52.41-2.43.22-.51-.19-.98-.07-1.48,0-.44.06-.8-.26-1.17-.48-.4-.24-.52-1.63-.19-2.01.02-.02.21-.24.26-.19.16-.11,1.09-.51,1.86-.49.21,0,.42,0,.63.01.2.02.2.05.35.15.2.17.41.16.44-.03.03-.17.05-.26.18-.24,0-.04.03-.06.06-.07.21-.09.29-.43.32-.79l.05-2.01c.02-.42.06-.84.1-1.26.02-.16.14-.34.1-.48-.46-1.66-.21-3.37-.41-5.05-.06-.5-.05-.83-.23-1.32-.29-.8-.07-1.47,0-2.61.17-.3.24-.64.38-.95.12-.25.13-.49.05-.73-.41-1.14-.31-2.34-.5-3.51.21-1.39.11-3.31,0-3.49.02-.42.09-.84.17-1.25.06-.33.18-.65.24-.98.09-.43,0-.84-.28-1.21-.29-.38-.34-.78-.13-1.19.37-.73.4-1.46.03-2.19-.38-.73-.34-1.46-.02-2.22.28-.65.27-1.31-.11-1.96-.28-.48-.21-.98,0-1.47.09-.23.27-.53.19-.71-.19-.43-.03-1.36-.16-1.46-.13-.1-.09-.34-.07-.48.05-.41.08-.77.06-1.17-.01-.41-.25-.81-.31-1.23-.05-.33-.1-.74.07-.99.4-.59-.11-1.14.04-1.72.13-.49.14-1,.15-1.5.01-.59-.05-1.17-.41-1.71-.19-.29-.14-.65-.09-.99.03-.05.05-.92.08-1.63.03-.72.07-1.37.13-1.51.16-.37.23-.78.24-1.24,1.01.04,1.92-.13,2.94-.19.37-.02.74-.09,1.12-.15.26-.06.42-.12.64-.13.32-.02.65.17.98.19.22.01.49-.35.67-.05.23.39.44.42.82.26.45-.19.86-.56,1.42-.38.38.12.78-.13,1.22.03.47.16,1.02.2,1.5.1.61-.13,1.15.35,1.72.16.27-.09.52-.08.76-.03.41.06.83.12,1.25.18.94.11,1.8.15,2.82.07.05.57.15,1.1.32,1.66.21.68.32,1.66.34,2.45.02.46-.06.92-.24,1.37-.25.66-.28,1.31-.22,2,.07.92.2,1.86-.2,2.76-.12.26,0,.49.05.73.23,1.26.35,2.5-.14,3.75-.15.38-.09.84-.04,1.25.05.42.19.82.29,1.23-.41.87-.09,1.86-.5,2.73-.08.18-.09.31,0,.48.11.22.26.48.25.71-.06,1.17.35,2.36-.11,3.53.1.49.23.98.28,1.47.09.84.04,1.7.2,2.53.1.51.1.96.07,1.47-.08,1.35-.03,2.7-.03,4.06,0,1.35.02,2.7,0,4.06,0,.42-.1.84-.19,1.25-.08.34-.14.69.02,1,.31.64.33,1.31.35,1.99.06,1.94.12,3.89.21,5.83.02.34-.05.66-.1.99-.03.16-.05.33-.07.5-.01.13-.01.43.01.37.08.05.11-.04-.18.26v.07s.31-.01.31-.01h1.98s1.52,0,1.52,0c.27,0,.49.15.64.38.24.23.37-.21.51.97.05.14-.19.93-.29,1.02-.65.61-1.17.26-1.97.55-.55.2-1.25.1-1.84.16Z"/>
</svg>