<?xml version="1.0" encoding="UTF-8"?>
<svg id="illuer_blå_bg" xmlns="http://www.w3.org/2000/svg" viewBox="0 0 148.39 122.47">
  <defs>
    <style>
      .cls-1 {
        fill: #ffe6c4;
      }
    </style>
  </defs>
  <path class="cls-1" d="M128.42,117.11c.03-.41-.31-.78-.02-1.18.13-.18-.27-.38.01-.57.18-.12.08-.26.23-.38.2-.16.15-.29,0-.48-.06-.12-.14-.19-.16-.43-.02-.19.06-.29-.12-.49-.16-.18.19-.47.06-.66-.25-.39.1-.66-.41-1.08-.28-.37-.13-.73-.17-1.05,0-.41.02-.81.06-1.22,0-.1.11-.19.19-.28.18-.2.13-.38,0-.58-.27-.38.2-1.48.06-1.64-.2-.23-.35-1.96-.28-2.11.04-.1.15-.18,0-.25.16-.15-.12-.38.1-.51.1-.31.16-.43.12-.8-.04-.35.82-.73.53-1.06,0-.7-.05-1.14-.15-1.24-.17-.18.14-.26-.03-.44-.24-.25.34-.73.11-.8-.25-.07-.16-.22-.36-.31-.43-.2-.35-.47-.1-.73.13-.13-.31-.28-.13-.39.32-.2.47-.44.45-.7-.03-.56-.09-1.11-.12-1.67-.02-.35-.06-.71.23-1.04-.06-.53,0-.79-.09-1.01-.27-.26.08-.53-.29-.76-.51-.33-.42-.26-.4-.74.15-.09.33-.36.12-.45.14-.26.05-.49.07-.51.4-.4-.21-.32.26-.74-.05-.23.04-.35-.32-.45-.19-.05-.21-.15-.09-.26.11-.1.06-.19-.05-.28-.46-.4.18-.9-.22-1.31.09-.25-.17-.5-.15-.74.03-.4-.02-.8.36-1.19.1-.1-.02-.3-.16-.43-.22-.21.2-.39,0-.58-.24-.23.13-.37.32-.53.15-.13.28-.26.11-.42-.24-.23-.14-.49-.18-.74-.04-.26.34-.5.11-.73-.32-.32.14-.68-.27-.98-.27-.2.05-.34-.05-.55.54-.2.63-.48.51-.8-.13-.34-.4-.66-.16-1.03.07-.11-.15-.28-.22-.43-.07-.15-.15-.29-.15-.44,0-.31.48-.56.36-.88-.11-.29-.04-.51-.16-.8-.08-.2.16-.56.15-.76,0-.45-.65-.82-.12-1.23,0-.2.12-.41-.14-.59-.33-.22-.37-.45-.14-.7.04-.04.11-.11.08-.14-.21-.29-.38-.57-.06-.87-.08-.25-.07-.49.07-.74.13-.24-.36-.47-.14-.73.17-.21.08-.39-.08-.58-.16-.19-.13-.39-.03-.59.07-.14.17-.31.09-.44-.43-.75-.48-1.48-.04-2.23.16-.28.04-.55.02-.85-.2-.24-.06-.4.26-.52.16-.06.06-.14-.14-.22-.4-.4.28-.74.14-.94-.2-.29-.3-.58-.02-.88.11-.12.19-.32.09-.43-.24-.25-.2-.46-.05-.72.2-.34.21-.69-.18-1.02-.32-.27-.28-.58-.27-.89,0-.39.4-.78.05-1.18-.04-.04-.02-.11.02-.15.41-.54.46-1.07-.06-1.61-.11-.12-.1-.31,0-.44.33-.45.42-.88,0-1.32-.08-.08-.09-.21-.03-.3.54-.69.3-1.4.26-2.1-.04-.56-.04-1.11.12-1.67.04-.15.1-.29,0-.44-.27-.4-.23-.79.05-1.19.18-.25.18-.5-.01-.74-.31-.4-.28-.78.02-1.18.14-.18.23-.39.22-.59-.03-.5.24-1.01.05-1.51-.2-.51.14-1,.01-1.51-.07-.3-.41-.58-.22-.88.19-.3.07-.59,0-.89-.06-.26.26-.48.48-.7.24-.24,1.63-.31,2.01-.12.02.01.24.12.19.15.11.09.51.65.49,1.12-.01.25.03.51-.17.75-.17.2-.16.38.03.58.23.23.31.5.18.74-.42.79-.31,1.61-.38,2.42-.02.25-.06.5-.1.75-.02.1-.14.2-.1.29.46,1,.21,2.02.41,3.03.06.3.05.5.23.79.29.48.07.88,0,1.57-.17.18-.24.38-.38.57-.12.15-.13.29-.05.44.41.69.31,1.41.5,2.11-.21.84-.11,1.99,0,2.09-.02.25-.09.5-.17.75-.06.2-.18.39-.24.59-.09.26,0,.5.28.72.29.23.34.47.13.72-.37.44-.4.87-.03,1.31.38.44.34.88.02,1.33-.28.39-.27.79.11,1.17.28.28.21.59,0,.88-.09.14-.27.32-.19.43.19.26.03.81.16.87.13.06.09.2.07.29-.05.25-.08.46-.06.7.01.25.25.49.31.73.05.2.1.44-.07.59-.4.36.11.69-.04,1.03-.13.29-.14.6-.15.9-.01.35.05.7.41,1.02.19.17.14.39.09.59-.06.23-.1.98-.21,1.09-.48.47-.14,1.01-.05,1.52.05.25.25.49.28.74.02.19-.17.39-.19.59-.01.13.35.29.05.4-.39.14-.42.27-.26.49.19.27.56.52.38.85-.12.23.13.47-.03.73-.16.28-.2.61-.1.9.13.37-.35.69-.16,1.03.18.32-.06.59-.16.89-.18.55-.18,1.1.25,1.64.42.53.45,1.09.1,1.63-.25.4-.28.79-.22,1.2.07.55.2,1.12-.2,1.66-.12.16,0,.29.05.44.23.75.35,1.5-.14,2.25-.15.23-.09.5-.04.75.04.25.19.49.29.74-.41.52-.09,1.11-.5,1.63-.08.11-.09.18,0,.29.11.13.26.29.25.43-.06.7.35,1.42-.11,2.11.1.29.23.59.28.88.09.5.04,1.02.2,1.52.1.3.1.58.07.88-.08.81-.03,1.62-.03,2.43,0,.81.02,1.62,0,2.43,0,.25-.1.5-.19.75-.08.2-.14.41.02.6.31.38.33.79.35,1.19.06,1.17.12,2.33.21,3.5.03.4-.25.78-.16,1.2.08.33.11.7-.18,1.03,0,.96.02,1.93.03,2.89,0,.3,0,.61-.02.91,0,.16-.15.3-.38.38-.23.14.21.22-.97.3-.14.03-.93-.11-1.02-.17-.61-.39-.26-.7-.55-1.18-.2-.33-.1-.75-.16-1.1Z"/>
  <path class="cls-1" d="M15.16,117.11c.03-.41-.31-.78-.02-1.18.13-.18-.27-.38.01-.57.18-.12.08-.26.23-.38.2-.16.15-.29,0-.48-.06-.12-.14-.19-.16-.43-.02-.19.06-.29-.12-.49-.16-.18.19-.47.06-.66-.25-.39.1-.66-.41-1.08-.28-.37-.13-.73-.17-1.05,0-.41.02-.81.06-1.22,0-.1.11-.19.19-.28.18-.2.13-.38,0-.58-.27-.38.2-1.48.06-1.64-.2-.23-.35-1.96-.28-2.11.04-.1.15-.18,0-.25.16-.15-.12-.38.1-.51.1-.31.16-.43.12-.8-.04-.35.82-.73.53-1.06,0-.7-.05-1.14-.15-1.24-.17-.18.14-.26-.03-.44-.24-.25.34-.73.11-.8-.25-.07-.16-.22-.36-.31-.43-.2-.34-.47-.1-.73.13-.13-.31-.28-.13-.39.32-.2.47-.44.45-.7-.03-.56-.09-1.11-.12-1.67-.02-.35-.07-.71.23-1.04-.06-.53,0-.79-.09-1.01-.27-.26.08-.53-.29-.76-.51-.33-.42-.26-.4-.74.15-.09.33-.36.12-.45.14-.26.05-.49.07-.51.4-.4-.21-.32.26-.74-.05-.23.04-.35-.32-.45-.19-.05-.21-.15-.09-.26.11-.1.06-.19-.05-.28-.46-.4.18-.9-.22-1.31.09-.25-.17-.5-.15-.74.03-.4-.02-.8.36-1.19.1-.1-.02-.3-.16-.43-.22-.21.2-.39,0-.58-.24-.23.13-.37.32-.53.15-.13.28-.26.11-.42-.24-.23-.14-.49-.18-.74-.04-.26.34-.5.11-.73-.32-.32.14-.68-.27-.98-.27-.2.05-.34-.05-.55.54-.2.63-.48.51-.8-.13-.34-.4-.66-.16-1.03.07-.11-.15-.28-.22-.43-.07-.15-.15-.29-.15-.44,0-.31.48-.56.36-.88-.11-.29-.04-.51-.15-.8-.08-.2.16-.56.15-.76,0-.45-.65-.82-.12-1.23,0-.2.12-.41-.14-.59-.33-.22-.37-.45-.14-.7.04-.04.11-.11.08-.14-.21-.29-.38-.57-.06-.87-.08-.25-.07-.49.07-.74.13-.24-.36-.47-.14-.73.17-.21.08-.39-.08-.58-.16-.19-.13-.39-.03-.59.07-.14.17-.31.09-.44-.43-.75-.48-1.48-.04-2.23.16-.28.04-.55.02-.85-.2-.24-.06-.4.26-.52.16-.06.06-.14-.14-.22-.4-.4.28-.74.14-.94-.2-.29-.3-.58-.02-.88.11-.12.19-.32.09-.43-.24-.25-.2-.46-.05-.72.2-.34.21-.69-.18-1.02-.32-.27-.28-.58-.27-.89,0-.39.4-.78.05-1.18-.04-.04-.02-.11.02-.15.41-.54.46-1.07-.06-1.61-.11-.12-.1-.31,0-.44.33-.45.42-.88,0-1.32-.08-.08-.09-.21-.03-.3.54-.69.3-1.4.25-2.1-.04-.56-.04-1.11.12-1.67.04-.15.1-.29,0-.44-.27-.4-.23-.79.05-1.19.18-.25.18-.5-.01-.74-.31-.4-.28-.78.02-1.18.14-.18.23-.39.22-.59-.03-.5.24-1.01.05-1.51-.2-.51.14-1,.01-1.51-.07-.3-.41-.58-.22-.88.19-.3.07-.59,0-.89-.06-.26.26-.48.48-.7.24-.24,1.63-.31,2.01-.12.02.01.24.12.19.15.11.09.51.65.49,1.12-.01.25.03.51-.17.75-.17.2-.16.38.03.58.23.23.31.5.18.74-.42.79-.31,1.61-.38,2.42-.02.25-.06.5-.1.75-.02.1-.14.2-.1.29.46,1,.21,2.02.41,3.03.06.3.05.5.23.79.29.48.07.88,0,1.57-.17.18-.24.38-.38.57-.12.15-.13.29-.05.44.41.69.31,1.41.5,2.11-.21.84-.11,1.99,0,2.09-.02.25-.09.5-.17.75-.06.2-.18.39-.24.59-.09.26,0,.5.28.72.29.23.34.47.13.72-.37.44-.4.87-.03,1.31.38.44.34.88.02,1.33-.28.39-.27.79.11,1.17.28.28.21.59,0,.88-.09.14-.27.32-.19.43.19.26.03.81.16.87.13.06.09.2.07.29-.05.25-.08.46-.06.7.01.25.25.49.31.73.05.2.1.44-.07.59-.4.36.11.69-.04,1.03-.13.29-.14.6-.15.9-.01.35.05.7.41,1.02.19.17.14.39.09.59-.06.23-.1.98-.21,1.09-.48.47-.14,1.01-.05,1.52.05.25.25.49.28.74.02.19-.17.39-.19.59-.01.13.35.29.05.4-.39.14-.42.27-.26.49.19.27.56.52.38.85-.12.23.13.47-.03.73-.16.28-.2.61-.1.9.13.37-.35.69-.16,1.03.18.32-.06.59-.16.89-.18.55-.18,1.1.25,1.64.42.53.45,1.09.1,1.63-.25.4-.28.79-.22,1.2.07.55.2,1.12-.2,1.66-.12.16,0,.29.05.44.23.75.35,1.5-.14,2.25-.15.23-.09.5-.04.75.04.25.19.49.29.74-.41.52-.09,1.11-.5,1.63-.08.11-.09.18,0,.29.11.13.26.29.25.43-.06.7.35,1.42-.11,2.11.1.29.23.59.28.88.09.5.04,1.02.2,1.52.1.3.1.58.07.88-.08.81-.03,1.62-.03,2.43,0,.81.02,1.62,0,2.43,0,.25-.1.5-.19.75-.08.2-.14.41.02.6.31.38.33.79.35,1.19.06,1.17.12,2.33.22,3.5.03.4-.25.78-.16,1.2.08.33.11.7-.18,1.03,0,.96.02,1.93.03,2.89,0,.3,0,.61-.02.91,0,.16-.15.3-.38.38-.23.14.21.22-.97.3-.14.03-.93-.11-1.02-.17-.61-.39-.26-.7-.55-1.18-.2-.33-.1-.75-.16-1.1Z"/>
  <path class="cls-1" d="M5.32,119.05c.78.03,1.5-.31,2.24-.02.34.13.72-.27,1.09.01.22.18.49.08.73.23.31.2.55.15.92,0,.22-.06.35-.14.82-.16.36-.02.55.06.94-.12.34-.16.89.19,1.25.06.74-.25,1.27.1,2.06-.41.7-.28,1.39-.13,2-.18.77,0,1.55.02,2.32.06.18,0,.37.11.54.19.37.18.73.13,1.11,0,.72-.27,2.82.2,3.14.06.44-.2,3.74-.35,4.02-.28.18.04.35.15.48,0,.29.16.72-.12.97.1.6.1.81.16,1.52.12.67-.04,1.39.82,2.02.53,1.34,0,2.18-.05,2.37-.15.34-.17.5.14.84-.03.47-.24,1.4.34,1.52.11.13-.25.42-.16.6-.36.39-.43.9-.34,1.4-.1.26.13.53-.31.75-.13.39.32.83.47,1.33.45,1.06-.03,2.12-.09,3.19-.12.67-.02,1.36-.07,1.99.23,1.02-.06,1.51,0,1.93-.09.5-.27,1,.08,1.46-.29.62-.51.49-.42,1.41-.4.17.15.69.33.85.12.49.14.93.05.97.07.76.4.61-.21,1.41.26.43-.05.67.04.86-.32.1-.19.28-.21.49-.09.2.11.35.06.54-.05.76-.46,1.71.18,2.5-.22.47.09.94-.17,1.42-.15.77.03,1.53-.02,2.26.36.19.1.58-.02.81-.16.39-.22.74.2,1.11,0,.44-.24.7.13,1.01.32.25.15.49.28.8.11.44-.24.94-.14,1.41-.18.49-.04.96.34,1.4.11.61-.32,1.29.14,1.87-.27.38-.27.65.05,1.04-.05.39.54.92.63,1.53.51.64-.13,1.26-.4,1.96-.16.22.07.54-.15.82-.22.28-.07.56-.15.84-.15.58,0,1.08.48,1.68.36.56-.11.97-.04,1.53-.15.37-.08,1.07.16,1.46.15.86,0,1.57-.65,2.34-.12.38,0,.78.12,1.12-.14.42-.33.86-.37,1.34-.14.09.04.2.11.27.08.55-.21,1.1-.38,1.66-.06.47-.08.93-.07,1.4.07.46.13.9-.36,1.39-.14.39.17.74.08,1.11-.08.37-.16.74-.13,1.13-.03.27.07.59.17.84.09,1.42-.43,2.82-.48,4.26-.04.54.16,1.04.04,1.62.02.46-.2.76-.06.99.26.12.16.26.06.41-.14.77-.4,1.4.28,1.79.14.55-.2,1.1-.3,1.68-.02.24.11.61.19.82.09.48-.24.88-.2,1.37-.05.65.2,1.32.21,1.95-.18.51-.32,1.11-.28,1.69-.27.75,0,1.49.4,2.26.05.08-.04.2-.02.29.02,1.04.41,2.05.46,3.08-.06.23-.11.6-.1.85,0,.85.33,1.67.42,2.52,0,.15-.08.4-.09.56-.03,1.31.54,2.67.3,4.01.26,1.07-.04,2.13-.04,3.18.12.29.04.55.1.84,0,.76-.27,1.52-.23,2.27.05.47.18.96.18,1.41-.01.76-.31,1.49-.28,2.25.02.35.14.75.23,1.12.22.96-.03,1.92.24,2.87.05.97-.2,1.91.14,2.87.01.56-.07,1.1-.41,1.69-.22.58.19,1.12.07,1.69,0,.51-.06.92.26,1.34.48.46.24.59,1.63.22,2.01-.02.02-.23.24-.29.19-.18.11-1.25.51-2.13.49-.48-.01-.97.03-1.43-.17-.38-.17-.73-.16-1.1.03-.44.23-.95.31-1.41.18-1.52-.42-3.07-.31-4.61-.38-.48-.02-.96-.06-1.44-.1-.19-.02-.39-.14-.55-.1-1.9.46-3.85.21-5.77.41-.57.06-.95.05-1.51.23-.92.29-1.68.07-2.99,0-.34-.17-.73-.24-1.09-.38-.28-.12-.56-.13-.84-.05-1.31.41-2.68.31-4.02.5-1.59-.21-3.79-.11-3.99,0-.48-.02-.96-.09-1.43-.17-.38-.06-.75-.18-1.12-.24-.49-.09-.96,0-1.38.28-.43.29-.89.34-1.37.13-.84-.37-1.66-.4-2.51-.03-.84.38-1.67.34-2.53.02-.75-.28-1.5-.27-2.24.11-.54.28-1.12.21-1.69,0-.27-.09-.6-.27-.81-.19-.49.19-1.55.03-1.66.16-.11.13-.39.09-.54.07-.47-.05-.88-.08-1.34-.06-.47.01-.93.25-1.4.31-.37.05-.84.1-1.13-.07-.68-.4-1.31.11-1.97-.04-.56-.13-1.15-.14-1.72-.15-.68-.01-1.34.05-1.95.41-.33.19-.75.14-1.13.09-.43-.06-1.87-.1-2.09-.21-.9-.48-1.94-.14-2.89-.05-.47.05-.94.25-1.41.28-.37.02-.75-.17-1.12-.19-.25-.01-.56.35-.77.05-.27-.39-.51-.42-.94-.26-.51.19-.98.56-1.63.38-.43-.12-.89.13-1.39-.03-.54-.16-1.17-.2-1.72-.1-.7.13-1.32-.35-1.96-.16-.62.18-1.13-.06-1.69-.16-1.06-.18-2.11-.18-3.13.25-1.01.42-2.08.45-3.12.1-.76-.25-1.5-.28-2.28-.22-1.06.07-2.13.2-3.16-.2-.3-.12-.56,0-.84.05-1.44.23-2.86.35-4.29-.14-.43-.15-.96-.09-1.43-.04-.48.04-.94.19-1.41.29-1-.41-2.12-.09-3.12-.5-.2-.08-.35-.09-.54,0-.26.11-.54.26-.81.25-1.34-.06-2.7.35-4.03-.11-.56.1-1.12.23-1.68.28-.96.09-1.95.04-2.89.2-.58.1-1.1.1-1.68.07-1.54-.08-3.09-.03-4.64-.03-1.55,0-3.09.02-4.64,0-.48,0-.96-.1-1.43-.19-.39-.08-.79-.14-1.14.02-.73.31-1.5.33-2.27.35-2.22.06-4.45.12-6.67.22-.77.03-1.49-.25-2.29-.16-.63.08-1.33.11-1.97-.18-1.84,0-3.67.02-5.51.03-.58,0-1.16,0-1.74-.02-.3,0-.56-.15-.73-.38-.27-.23-.42.21-.58-.97-.06-.14.22-.93.33-1.02.74-.61,1.34-.26,2.25-.55.62-.2,1.43-.1,2.1-.16Z"/>
  <path class="cls-1" d="M2.66,21.39c.53-.75.7-1.65,1.43-2.22.33-.26.24-.86.71-1.06.29-.13.38-.44.67-.59.37-.2.48-.47.59-.91.09-.25.11-.43.39-.9.22-.37.41-.51.51-1,.09-.43.73-.78.86-1.2.26-.87.9-1.19.99-2.26.22-.85.79-1.45,1.14-2.06.5-.76,1.01-1.52,1.54-2.26.13-.18.33-.3.51-.43.39-.27.58-.64.71-1.1.12-.43.61-1.1,1.09-1.71.24-.31.47-.6.65-.84.07-.09.2-.29.29-.42.09-.14.15-.25.18-.32.05-.14.18-.4.65-1.17.34-.04.88-.07,1.52-.1.46-.02.96-.05,1.45-.07.83-.04,1.59-.05,1.72-.02.22.04.41.15.57,0,.35.16.85-.12,1.14.1.7.1.96.16,1.8.12.79-.04,1.64.82,2.38.53,1.58,0,2.57-.05,2.79-.15.4-.17.59.14.99-.03.55-.24,1.65.34,1.79.11.15-.25.49-.16.71-.36.46-.43,1.06-.34,1.65-.1.3.13.63-.31.88-.13.46.32.98.47,1.57.45l3.76-.12c.79-.02,1.61-.06,2.35.23,1.2-.06,1.78,0,2.27-.09.59-.27,1.18.08,1.72-.29.74-.51.57-.42,1.67-.4.2.15.82.33,1,.12.57.14,1.1.05,1.15.07.9.4.72-.21,1.66.26.51-.05.79.04,1.02-.32.12-.19.33-.21.58-.09.23.11.42.06.64-.05.9-.46,2.02.18,2.94-.22.55.09,1.11-.17,1.67-.15.91.03,1.81-.02,2.67.36.23.1.68-.02.96-.16.46-.22.87.2,1.31,0,.52-.24.82.13,1.19.32.29.15.57.28.94.11.52-.24,1.1-.14,1.66-.18.58-.04,1.13.34,1.64.11.72-.32,1.52.14,2.21-.27.45-.27.77.05,1.23-.05.46.54,1.09.63,1.8.51.76-.13,1.48-.4,2.31-.16.26.07.63-.15.96-.22.33-.07.66-.15.99-.15.69,0,1.27.48,1.98.36.66-.11,1.14-.04,1.8-.15.44-.08,1.26.16,1.72.15,1.02,0,1.85-.65,2.76-.12.45,0,.92.12,1.32-.14.5-.33,1.01-.37,1.58-.14.1.04.24.11.32.08.65-.21,1.29-.38,1.96-.06.56-.08,1.09-.07,1.65.07.54.13,1.06-.36,1.64-.14.46.17.88.08,1.3-.08.43-.16.88-.13,1.33-.03.32.07.7.17.99.09,1.67-.43,3.32-.48,5.02-.04.63.16,1.23.04,1.91.02.54-.2.89-.06,1.17.26.14.16.31.06.49-.14.91-.4,1.65.28,2.11.14.65-.2,1.3-.3,1.98-.02.28.11.72.19.97.09.56-.24,1.04-.2,1.62-.05.77.2,1.56.21,2.3-.18.6-.32,1.31-.28,1.99-.27.89,0,1.76.4,2.66.05.09-.04.24-.02.34.02,1.22.41,2.41.46,3.63-.06.27-.11.71-.1,1,0,1,.33,1.97.42,2.97,0,.18-.08.48-.09.66-.03.18.06.36.12.54.16.18.04.32.08.72.1.67.05,1.33.08,1.99.08.4.65.81,1.28,1.23,1.91l.74,1.07c.7,1.05,1.36,2.1,1.88,3.24.14.31.26.6.53.84.71.61,1.14,1.39,1.37,2.29.14.57.45,1.05.89,1.41.74.6,1.17,1.34,1.39,2.26.1.42.27.87.52,1.24.63.94.99,2.05,1.75,2.9.77.86,1.08,1.98,1.78,2.88.41.52,1.04.89,1.24,1.57.2.68.64,1.16,1.06,1.69.37.47.35,1.06.43,1.59.08.58-1.01,1.46-1.57,1.29-.03-.01-.35-.11-.34-.19-.21-.12-1.21-.98-1.74-1.87-.29-.49-.63-.95-.75-1.51-.09-.46-.32-.82-.72-1.08-.47-.32-.85-.79-1.03-1.31-.59-1.74-1.65-3.23-2.56-4.81-.28-.49-.55-.99-.81-1.49-.1-.19-.12-.46-.26-.6-1.58-1.66-2.58-3.74-3.95-5.55-.41-.54-.64-.92-1.13-1.39-.41-.38-.69-.79-.96-1.28-.13-.24-.27-.5-.41-.78-.07-.14-.15-.29-.23-.44-.03-.06-.06-.13-.09-.2.03-.15,0-.31-.02-.49l-.18-.14c-.07-.06-.15-.09-.25-.1-.1,0-.15.01-.35.05-1.54.41-3.16.31-4.73.5-1.88-.21-4.47-.11-4.7,0-.56-.02-1.13-.09-1.68-.17-.45-.06-.88-.18-1.32-.24-.58-.09-1.14,0-1.63.28-.51.29-1.05.34-1.61.13-.98-.37-1.96-.4-2.96-.03-.99.38-1.97.34-2.99.02-.88-.28-1.77-.27-2.64.11-.64.28-1.32.21-1.99,0-.31-.09-.71-.27-.96-.19-.58.19-1.83.03-1.96.16-.13.13-.46.09-.64.07-.55-.05-1.04-.08-1.58-.06-.55.01-1.09.25-1.65.31-.44.05-.99.1-1.33-.07-.8-.4-1.54.11-2.32-.04-.66-.13-1.35-.14-2.03-.15-.8-.01-1.58.05-2.3.41-.39.19-.88.14-1.34.09-.51-.06-2.2-.1-2.46-.21-1.07-.48-2.28-.14-3.41-.05-.56.05-1.1.25-1.66.28-.44.02-.88-.17-1.32-.19-.3-.01-.65.35-.9.05-.32-.39-.6-.42-1.11-.26-.61.19-1.16.56-1.92.38-.51-.12-1.05.13-1.64-.03-.63-.16-1.37-.2-2.02-.1-.83.13-1.56-.35-2.31-.16-.73.18-1.33-.06-1.99-.16-1.24-.18-2.48-.18-3.69.25-1.19.42-2.45.45-3.67.1-.89-.25-1.77-.28-2.69-.22-1.24.07-2.51.2-3.72-.2-.35-.12-.66,0-.99.05-1.69.23-3.37.35-5.05-.14-.51-.15-1.13-.09-1.69-.04-.56.04-1.11.19-1.66.29-1.18-.41-2.5-.09-3.67-.5-.24-.08-.41-.09-.64,0-.3.11-.64.26-.96.25-1.58-.06-3.18.35-4.75-.11-.66.1-1.32.23-1.98.28-1.14.09-2.29.04-3.41.2-.68.1-1.3.1-1.98.07-1.82-.08-3.65-.03-5.47-.03h-2.61s-1.31,0-1.31,0h-.23s-.02.02-.02.02c-.03.03-.07.05-.13.08-.02.01-.02,0-.05.03l-.14.16-.29.31c-.31.34-.62.7-.72,1.13-.21.9-.69,1.66-1.18,2.43l-4.12,6.7c-.47.78-1.17,1.33-1.6,2.17-.34.67-.77,1.38-1.42,1.84l-3.53,5.45-1.13,1.71c-.2.3-.49.48-.79.51-.37.14-.1.53-1.19.04-.15-.02-.64-.73-.65-.88-.03-1.07.65-1.47.99-2.52.24-.73.84-1.47,1.22-2.16Z"/>
  <path class="cls-1" d="M114.32,114.42c.03-.86-.31-1.64-.02-2.46.13-.37-.27-.79.01-1.19.18-.25.08-.54.23-.8.2-.34.15-.61,0-1.01-.06-.24-.14-.39-.16-.9-.02-.4.06-.61-.12-1.04-.16-.38.19-.98.06-1.38-.25-.81.1-1.39-.41-2.27-.28-.77-.13-1.53-.18-2.19,0-.85.02-1.7.06-2.55,0-.2.11-.4.19-.59.18-.41.13-.8,0-1.21-.27-.79.2-3.09.06-3.44-.2-.48-.35-4.11-.28-4.42.04-.2.15-.38,0-.53.16-.32-.12-.79.1-1.06.1-.65.16-.89.12-1.67-.04-.74.82-1.53.53-2.22,0-1.47-.05-2.39-.15-2.6-.17-.38.14-.55-.03-.92-.24-.52.34-1.54.11-1.67-.25-.14-.16-.46-.36-.66-.43-.42-.34-.99-.1-1.53.13-.28-.31-.59-.13-.82.32-.43.47-.91.45-1.46l-.12-3.5c-.02-.74-.06-1.5.23-2.19-.06-1.12,0-1.66-.09-2.12-.27-.55.08-1.1-.29-1.6-.51-.69-.42-.53-.4-1.55.15-.19.33-.76.12-.93.14-.53.05-1.02.07-1.07.4-.83-.21-.71.26-1.51-.05-.2.04-.37-.32-.29-.19.04-.21.03-.09-.11.11-.14.06-.17-.05-.12l-.1.04c-.35.25-.2-.25-.66.12-.51-.09-1.04.17-1.56.15-.85-.03-1.68.02-2.48-.36-.21-.1-.64.02-.89.16-.43.22-.81-.2-1.22,0-.48.24-.76-.13-1.11-.32-.27-.15-.53-.28-.88-.11-.48.24-1.03.14-1.55.18-.54.04-1.05-.34-1.53-.11-.67.32-1.41-.14-2.05.27-.42.27-.71-.05-1.14.05-.43-.54-1.01-.63-1.68-.51-.71.13-1.38.4-2.15.16-.24-.07-.59.15-.9.22-.3.07-.62.15-.92.15-.64,0-1.18-.48-1.84-.36-.61.11-1.07.04-1.68.15-.41.08-1.18-.16-1.6-.15-.95,0-1.72.65-2.57.12-.42,0-.86-.12-1.23.14-.46.33-.94.37-1.47.14-.09-.04-.22-.11-.3-.08-.15.05-.3.1-.45.14-.1.02-.11.04-.11.05,0,.01-.02.03-.02.03-.03.03-.05,0-.2-.17-.04.06-.07.07-.18.02-.02,0-.05,0-.09,0-.07,0,.02.13.1.21.08.09.15.12.04.14-.04,0-.07.03-.08.05,0,0,0,.03-.01.09,0,.05,0,.1,0,.15.02.2.08.4.16.6.16.4.13.82.03,1.24-.07.3-.17.65-.09.92.43,1.56.48,3.09.04,4.67-.16.59-.04,1.15-.02,1.78.2.51.06.83-.26,1.09-.16.13-.06.28.14.46.4.85-.28,1.54-.14,1.96.2.6.3,1.21.02,1.85-.11.26-.19.67-.09.9.24.52.2.97.05,1.5-.2.72-.21,1.45.18,2.14.32.56.28,1.22.27,1.86,0,.82-.4,1.64-.05,2.48.04.08.02.22-.02.31-.41,1.14-.46,2.25.06,3.38.11.25.1.66,0,.93-.33.93-.42,1.83,0,2.76.08.17.09.44.03.62-.54,1.44-.3,2.93-.26,4.4.04,1.17.04,2.33-.12,3.49-.04.31-.1.6,0,.92.27.83.23,1.66-.05,2.49-.18.52-.18,1.05.01,1.55.31.84.28,1.64-.02,2.47-.14.38-.23.83-.22,1.23.03,1.06-.24,2.11-.05,3.15.2,1.06-.14,2.1-.01,3.15.07.62.41,1.21.22,1.85-.19.63-.07,1.23,0,1.86.06.55-.26,1.01-.48,1.47-.24.5-1.63.65-2.01.24-.02-.03-.24-.26-.19-.32-.11-.2-.51-1.37-.49-2.34.01-.53-.03-1.07.17-1.56.17-.41.16-.8-.03-1.21-.23-.48-.31-1.04-.18-1.55.42-1.66.31-3.37.38-5.06.02-.53.06-1.05.1-1.58.02-.2.14-.42.1-.6-.46-2.09-.21-4.23-.41-6.34-.06-.63-.05-1.04-.23-1.66-.29-1.01-.07-1.85,0-3.28.17-.37.24-.8.38-1.19.12-.31.13-.61.05-.92-.41-1.44-.31-2.94-.5-4.41.21-1.75.11-4.16,0-4.38.02-.52.09-1.05.17-1.57.06-.41.18-.82.24-1.23.09-.54,0-1.06-.28-1.52-.29-.47-.34-.98-.13-1.5.37-.92.4-1.83.03-2.75-.38-.92-.34-1.84-.02-2.78.28-.82.27-1.65-.11-2.46-.28-.6-.21-1.23,0-1.85.09-.29.27-.66.19-.89-.19-.54-.03-1.7-.16-1.83-.13-.12-.09-.42-.07-.6.05-.52.08-.97.06-1.47-.01-.52-.25-1.02-.31-1.54-.05-.41-.1-.92.07-1.24.05-.09.09-.19.11-.28.02-.07.04-.29.04-.43.01-.31-.01-.62-.04-.95-.06-.64-.15-1.34-.08-1.93.04-.29.06-.58.08-.9.81.05,1.59.06,2.37.07.62,0,1.31,0,1.84-.07.36-.06.71-.16,1.05-.34.36-.19.82-.14,1.24-.09.48.06,2.05.1,2.29.21.99.48,2.12.14,3.18.05.52-.05,1.03-.25,1.55-.28.41-.02.82.17,1.23.19.28.01.61-.35.84-.05.29.39.55.42,1.03.26.56-.19,1.08-.56,1.79-.38.48.12.98-.13,1.53.03.59.16,1.28.2,1.89.1.77-.13,1.45.35,2.16.16.68-.18,1.24.06,1.86.16,1.16.18,2.31.18,3.43-.25,1.11-.42,2.28-.45,3.42-.1.83.25,1.65.28,2.51.22l.34-.02.6-.02,1.26-.03c.84,0,1.68,0,2.41.09-.04.47-.1.95-.19,1.41-.12.64,0,1.03.05,1.55.05.58.1,1.15.15,1.72.04.39.06.79.06,1.18,0,.78-.1,1.57-.34,2.35-.15.47-.09,1.05-.04,1.57.04.52.19,1.03.29,1.55-.41,1.1-.09,2.33-.5,3.42-.08.22-.09.39,0,.6.11.28.26.6.25.89-.06,1.47.35,2.97-.11,4.43.1.61.23,1.23.28,1.85.09,1.06.04,2.14.2,3.17.1.63.1,1.21.07,1.84-.08,1.69-.03,3.4-.03,5.09v5.09c-.01.52-.11,1.05-.2,1.57-.08.43-.14.86.02,1.25.31.81.33,1.65.35,2.5l.22,7.32c.03.84-.25,1.64-.16,2.51.08.7.11,1.47-.18,2.16l.03,6.05-.02,1.91c0,.33-.15.62-.38.81-.23.3.21.46-.97.64-.14.07-.93-.24-1.02-.36-.61-.82-.26-1.47-.55-2.47-.2-.69-.1-1.57-.16-2.31Z"/>
  <path class="cls-1" d="M25.24,84.61c.03-.72-.31-1.39-.02-2.08.13-.31-.27-.67.01-1.01.18-.21.08-.46.23-.68.2-.29.15-.51,0-.85-.06-.2-.14-.33-.16-.76-.02-.34.06-.51-.12-.87-.16-.32.19-.83.06-1.16-.25-.68.1-1.17-.41-1.91-.28-.65-.13-1.29-.17-1.85,0-.72.02-1.44.06-2.15,0-.17.11-.34.19-.5.18-.35.13-.67,0-1.03-.27-.66.2-2.61.06-2.91-.2-.41-.35-3.47-.28-3.73.04-.17.15-.32,0-.45.16-.27-.12-.67.1-.9.1-.55.16-.75.12-1.41-.02-.31.19-.64.36-.95.17-.44.32-.81.17-1.25,0-.84-.01-1.53-.04-2.05.51-.03.83-.06.92-.11.36-.17.73.14,1.1-.03.27-.12.79-.03,1.19.05.32.09.54.17.6.06.12-.25.39-.16.56-.36.36-.43.84-.34,1.3-.1.24.13.49-.31.7-.13.36.32.77.47,1.23.45l2.96-.12c.62-.02,1.26-.07,1.85.23.94-.06,1.4,0,1.79-.09.47-.27.93.08,1.35-.29.58-.51.45-.42,1.31-.4.16.15.64.33.79.12.45.14.86.05.9.07.71.4.57-.21,1.31.26.4-.05.62.04.8-.32.09-.19.26-.21.45-.09.18.11.33.06.5-.05.71-.46,1.59.18,2.32-.22.43.09.88-.17,1.31-.15.72.03,1.42-.02,2.1.36.18.1.54-.02.75-.16.36-.22.68.2,1.03,0,.41-.24.65.13.93.32.23.15.45.28.74.11.41-.24.87-.14,1.31-.18.45-.04.89.34,1.29.11.28-.16.58-.12.88-.1.15.01.29.02.44,0,.24-.02.49-.07.74-.17.7-.27,1.07.05,1.74-.05.25.39.62.55,1.21.56,0,.22.01.43.05.64.13.8.4,1.74.16,2.86-.04.2,0,.3.06.44.06.13.13.27.16.4.07.26.15.52.15.78,0,.54-.48,1-.36,1.55.11.52.04.9.16,1.42.08.35-.16.99-.15,1.35,0,.8.65,1.45.12,2.17,0,.35-.12.73.14,1.04.33.39.37.8.14,1.24-.04.08-.11.19-.08.25.21.51.38,1.02.06,1.54.08.44.07.86-.07,1.3-.13.42.36.84.14,1.29-.17.36-.08.69.08,1.03.16.34.13.69.03,1.05-.07.25-.17.55-.09.78.43,1.32.48,2.61.04,3.95-.16.5-.04.97-.02,1.5.2.43.06.7-.26.92-.16.11-.06.24.14.38.4.71-.28,1.3-.14,1.66.1.25.17.51.19.77,0,.13,0,.26-.03.39-.04.17-.09.35-.14.55-.11.39-.19.94-.09,1.31.24.87.2,1.6.05,2.24l-.05.21c-1.13-.16-1.94-.14-2.8.23-.36.16-.92.23-1.34.26-.27.03-.54.02-.81.01-.7,0-1.38-.4-2.09-.05-.07.04-.19.02-.26-.02-.96-.41-1.9-.46-2.85.06-.21.11-.56.1-.78,0-.79-.33-1.55-.42-2.33,0-.14.08-.38.09-.52.03-1.21-.54-2.48-.3-3.72-.26-.99.04-1.97.04-2.95-.12-.27-.04-.51-.1-.78,0-.7.27-1.41.23-2.1-.05-.44-.18-.89-.18-1.31.01-.71.31-1.38.28-2.09-.02-.33-.14-.7-.23-1.04-.22-.89.03-1.78-.24-2.66-.05-.9.2-1.77-.14-2.66-.01-.52.07-1.02.41-1.56.22-.54-.19-1.04-.07-1.57,0-.47.06-.85-.26-1.24-.48-.42-.24-.55-1.63-.21-2.01.02-.02.22-.24.27-.19.17-.11,1.16-.51,1.97-.49.45.01.9-.03,1.32.17.35.17.68.16,1.02-.03.41-.23.88-.31,1.31-.18,1.41.42,2.84.31,4.27.38.44.02.89.06,1.33.1.17.02.36.14.51.1,1.76-.46,3.57-.21,5.35-.41.53-.06.88-.05,1.4-.23.85-.29,1.56-.07,2.77,0,.31.17.68.24,1.01.38.26.12.52.13.78.05,1.21-.41,2.49-.31,3.72-.5,1.48.21,3.51.11,3.7,0,.44.02.89.09,1.32.17.35.06.69.18,1.04.24.11.02.23.03.34.03.05,0,.11,0,.16,0,.03,0,.06-.01.08-.03.11-.04.19-.14.22-.28.06-.29.06-.34.38-.13.08.05.16.1.24.13.24-.02.22-.52-.11-.81-.19-.03-.27-.57-.27-.93,0-.39.09-.78.25-1.18.28-.69.27-1.39-.11-2.08-.28-.5-.21-1.04,0-1.56.09-.25.27-.56.19-.76-.19-.45-.03-1.44-.16-1.54-.13-.1-.09-.36-.07-.5.05-.44.08-.82.06-1.25-.01-.44-.25-.86-.31-1.3-.05-.35-.1-.78.07-1.05.4-.63-.11-1.21.04-1.82.13-.52.14-1.06.15-1.6.01-.63-.05-1.24-.41-1.81-.19-.31-.14-.69-.09-1.05.06-.4.1-1.73.21-1.93.48-.84.14-1.79.05-2.68-.05-.44-.25-.87-.28-1.31-.02-.34.17-.69.19-1.04.01-.24-.35-.52-.05-.71.39-.25.42-.47.26-.87-.05-.12-.11-.24-.16-.35-.06-.04-.12-.04-.16-.05-.09-.01-.14.01-.05-.05.11-.1-.1.02,0-.09v-.02c.13-.16.01-.2-.08-.1-.03.03-.04.03-.06,0l-.03-.05-.22-.06c-.3-.08-.59-.15-.89-.06-.57.18-1.05-.06-1.57-.16-.98-.18-1.95-.18-2.9.25-.94.42-1.93.45-2.89.1-.7-.25-1.39-.28-2.12-.22-.98.07-1.98.2-2.93-.2-.28-.12-.52,0-.78.05-1.33.23-2.65.35-3.98-.14-.4-.15-.89-.09-1.33-.04-.44.04-.87.19-1.31.29-.93-.41-1.97-.09-2.89-.5-.19-.08-.33-.09-.5,0-.24.11-.5.26-.75.25-1.25-.06-2.51.35-3.74-.11-.52.1-1.04.23-1.56.28-.22.02-.45.03-.67.04h-.34c-.15.02-.09.02-.14.03-.1.02-.2.05-.22.13-.01.05-.02.08-.05.09,0,.04,0,.07-.01.1-.02.04-.03.09-.04.15v.11s0,.54,0,.54v2.15c.01,1.43.03,2.87,0,4.3,0,.44-.1.89-.19,1.32-.08.36-.14.73.02,1.06.31.68.33,1.39.35,2.11.06,2.06.12,4.12.22,6.19.03.71-.25,1.38-.16,2.12.08.59.11,1.24-.18,1.82l.03,5.11-.02,1.61c0,.28-.15.52-.38.68-.23.25.21.39-.97.54-.14.06-.93-.2-1.02-.3-.61-.69-.26-1.24-.55-2.09-.2-.58-.1-1.33-.16-1.95Z"/>
  <path class="cls-1" d="M4.29,32.42c.23.51.53.96.8,1.42.31.43.59.86.75,1.41.17.48.83.67.92,1.26.06.37.41.58.53.95.16.48.44.71.95.95.28.17.47.25,1,.67.43.3.6.53,1.16.72.49.13.99.83,1.5,1,.54.12.93.33,1.35.53.43.18.9.29,1.51.25,1.02.02,1.9.41,2.75.46l.8.12.81.05.81.06h.82c.26,0,.53.1.78.15.54.11,1.06.05,1.56-.2.48-.21,1.45-.36,2.34-.59.89-.21,1.69-.52,1.87-.67.23-.23,1.35-.88,2.3-1.72.97-.81,1.78-1.75,1.93-1.87.21-.15.44-.26.44-.51.39-.21.52-.86.89-1.02.55-.64.78-.87,1.23-1.78.21-.43.61-.79.98-1.17.09-.09.18-.19.26-.29.08-.09.16-.2.25-.37.17-.3.27-.61.32-.98.2-.51.33-1.05.47-1.51.12-.49.21-.96.28-1.32.58-.65.73-1.03.79-1.2.17-.47.27-.31.39-.76.08-.26.18-.46.24-.71.09.19.23.6.25.56.05-.04.19.25.3.18.21-.17.67-.05,1.23.67.03.04.07.07.1.09.09.34.22.5.35.72.13.21.25.46.29.83.18,1.4.44,2.38.94,3.36.73,1.39,1.58,2.7,2.52,3.92.59.79,1.28,1.48,1.7,2.34,1.08,1,1.64,1.45,2.17,1.74.37.09.66.3.94.5.29.18.59.34.96.33,1.01-.1.77-.06,1.94.39.16.23.81.58,1.07.45.62.27,1.24.31,1.29.32,1.01.53.85-.1,1.93.41.6-.04.95.01,1.19-.35.13-.18.36-.24.66-.15.28.08.49.02.72-.14.91-.61,2.31-.37,3.12-1.18.61-.17,1.05-.7,1.59-1.01.9-.51,1.64-1.2,2.63-1.61.27-.11.56-.58.68-.91.21-.53.83-.64,1.01-1.17.19-.63.7-.69,1.11-.96.33-.2.62-.43.73-.9.13-.67.58-1.23.87-1.85.07-.16.17-.31.27-.45l.16-.21.22-.36c.3-.48.55-.91.68-1.56.12-.52.29-1.03.46-1.55l.27-.75c.09-.27.17-.54.25-.81.21-.04.38-.09.51-.18.13-.09.3-.2.38-.34.34-.41.55-.12.77-.34.12.16.24.01.34-.12.06.15.13.33.25.46.15.17.3.25.57.35.11.05.28.1.45.19.15.08.38.2.58.39,0,.07.02.14.02.22.04.42.16.7.3,1.03.13.33.29.68.44,1,.27.68.62,1.36.91,2.08l.11.28.05.14c.03.1.05.19.07.29l.11.59c.07.39.17.79.43,1.13.48.64.74,1.17,1.27,1.76.36.38.77,1.29,1.15,1.69.83.92,1.95,1.06,2.47,2.1.41.32.83.7,1.34.72.67-.02,1.17.22,1.68.67.09.08.21.21.31.22.39.02.76.06,1.12.14.37.06.71.2,1.05.44.65.04,1.24.17,1.89.36.62.22,1.26-.29,1.93-.05.54.14,1.04.06,1.52-.15.48-.21.99-.22,1.52-.23.37,0,.82.02,1.12-.14,1.76-.88,3.27-1.65,5.05-2.47.66-.31,1.1-.86,1.61-1.44.27-.59.63-.79,1.08-.85.23-.03.28-.24.24-.54.3-1.06,1.3-1.46,1.46-2.01.09-.4.21-.75.36-1.13.08-.19.17-.36.29-.56.17-.36.36-.71.56-1.03.17-.25.34-.62.48-1,.14-.38.26-.74.3-1.14.05-.44.11-.86.17-1.26.07-.38.12-.89.19-1.29.37-.07.63-.05.92-.03.67.08.87-.5,1.07-.83.04-.06.07-.1.09-.13.08.04.24.05.48.1.33.01.77.46,1.7.5.14.64.29,1.24.51,1.67.09.2.19.64.25.96.19.9.37,1.71.61,2.4.12.34.24.67.36,1.01l.07.19.05.12.12.25c.32.65.79,1.22,1.38,1.69.27.19.53.63.65.96.4,1.13,1.11,2.09,2.23,2.54.21.08.47.28.58.46,1,1.54,2.81,2.25,4.5,2.72,1.38.39,2.79.58,4.24.77.4.07.76.09,1.15-.03.51-.16,1.02-.24,1.52-.33.51-.07,1.03-.04,1.55-.06.33,0,.67-.03.99-.12.31-.11.6-.27.86-.46.44-.31.87-.59,1.32-.81.47-.19.94-.38,1.45-.53.24-.07.5-.15.74-.26.23-.13.46-.27.67-.43,1.06-.8,2.2-1.59,2.92-2.73.31-.61.79-1.08,1.14-1.65l.57-.82c.16-.29.3-.6.42-.91.15-.37.21-.76.26-1.15.06-.39.18-.75.38-1.11.38-.72.48-1.49.5-2.28.07-.69.4-1.23.65-1.82.27-.63,1.68-.87,2.03-.28.02.04.22.38.16.47.04.15.17.66.21,1.32,0,.65.02,1.47-.18,2.17-.21.77-.35,1.57-.82,2.19-.36.52-.55,1.05-.65,1.67-.05.37-.15.76-.3,1.13-.18.35-.4.69-.65.98-1.67,1.88-3.31,3.79-5.39,5.2-.62.47-1.34.78-2.01,1.16-.27.12-.62.15-.84.3-1.25.91-2.77,1.42-4.28,1.8-.77.14-1.55.29-2.33.36-.78.04-1.57.15-2.35.14-.94.04-1.55-.05-2.49,0-1.56.03-2.8-.5-4.76-1.45-.44-.4-.98-.76-1.4-1.19-.33-.35-.7-.59-1.11-.8-1.99-.94-3.5-2.71-4.88-4.41-.32-.57-.67-1.19-1-1.81-.16-.31-.32-.62-.48-.93-.13-.27-.26-.53-.38-.77-.21-.43-.35-.67-.4-.64-.02-.08-.04-.16-.06-.26-.04-.22-.08-.5-.12-.82-.05-.47-.11-.93-.16-1.4-.05-.4-.1-.64-.13-.5,0,.37-.02.72-.02,1.08-.01,1.19-.01,1.37-.12,1.11-.1-.21-.21-.12-.3.12-.1.27-.17.71-.11,1.09.03.18.05.3.06.4-.1.32-.22.63-.37.94-.31.62-.73,1.2-1.23,1.72-.88.91-1.58,1.87-2.13,3.05-.39.88-1.19,1.51-2.05,1.96-.41.22-.98.39-1.21.67-.57.63-2.23,1.35-2.36,1.52-.12.19-.57.34-.82.43-.76.24-1.42.45-2.17.64-.75.23-1.46.58-2.25.77-.62.1-1.4.27-1.89.1-1.13-.34-2.17.15-3.27-.1-.92-.21-1.88-.38-2.82-.61-1.1-.29-2.18-.56-3.29-.69-.61-.04-1.23-.45-1.8-.82-.3-.23-.99-.66-1.58-1.15-.6-.47-1.09-.99-1.2-1.14-.83-1.37-2.19-2.42-3.17-3.71-.48-.63-1.07-1.17-1.47-1.86-.32-.53-.43-1.18-.68-1.75-.08-.19-.25-.37-.39-.55-.09-.13-.08-.08-.08-.1,0-.01.03-.03.09-.09.3-.27.25-.49.1-.46-.07.02-.14.1-.19.19-.09.14-.12.34-.09.08.01-.15,0-.12-.02-.07-.01.04-.02.1-.01-.15,0-.06,0-.11,0-.17,0-.33-.06-.19-.08.1,0,.21-.05.03-.12,0-.06-.04-.13,0-.12.18.02.17,0,.2-.11.29l-.07.06-.2.27c-.13.18-.26.37-.39.55-.97,1.42-1.87,2.82-2.59,4.42-.7,1.58-2.01,2.96-3.64,3.78-1.17.63-2.27,1.23-3.45,1.87-1.59.84-3.43,1.49-5.21,1.31-.52-.05-.93.12-1.4.17-1.21.19-2.44.18-3.66,0-1.21-.23-2.4-.61-3.43-1.31-.62-.4-1.44-.73-2.15-1.1-.71-.36-1.45-.68-2.13-1.09-1.07-1.34-2.61-2.45-3.28-3.99-.13-.31-.27-.51-.53-.7-.33-.27-.72-.57-.95-.94-.57-.93-1.18-1.83-1.72-2.78l-.22-.41c-.03-.07-.06-.14-.08-.22-.04-.16-.07-.37-.09-.72l-.05-.05c-.14-.12-.23-.1-.29-.17-.05-.06-.09-.2-.12-.26-.02.26-.05.53-.05.89,0,.26,0,.36-.03.44-.01.03-.03.06-.04.08-.04.06-.08.14-.12.22l-.28.63-.41.87c-.57,1.15-1.23,2.28-2,3.33-1.54,2.11-3.54,3.98-5.9,5.23-.72.4-1.52.64-2.3.85-.65.14-1.3.32-1.84.59-1.12.64-2.43.82-3.73.97-1.85.15-3.78.07-5.67-.24-1.87-.38-3.72-.94-5.44-1.81-.6-.28-1.11-.7-1.63-1.08-.52-.39-.99-.84-1.57-1.2-.88-.63-1.82-1.43-2.3-2.45-2.1-2.31-3.64-5.13-4.43-8.16-.28-.95-.41-1.93-.54-2.91-.06-.52.09-.97.3-1.26.21-.46-.24-.71.92-.97.13-.09.95.33,1.05.49.64,1.08.39,1.97.94,3.23.22.42.35.91.51,1.41.19.49.36.99.56,1.43Z"/>
</svg>