<?xml version="1.0" encoding="UTF-8"?>
<svg id="illuer_blå_bg" xmlns="http://www.w3.org/2000/svg" viewBox="0 0 144.16 154.33">
  <defs>
    <style>
      .cls-1 {
        fill: #ff9400;
      }

      .cls-2 {
        fill: #ffe6c4;
      }
    </style>
  </defs>
  <g>
    <path class="cls-1" d="M143.16,48.58l-64.1,20.83V2.01c29.78,0,54.9,18.25,64.1,46.57Z"/>
    <g>
      <path class="cls-1" d="M143.16,48.58l-64.1,20.83V2.01c29.78,0,54.9,18.25,64.1,46.57Z"/>
      <path class="cls-1" d="M79.05,69.71c-.06,0-.13-.02-.18-.06-.08-.06-.13-.15-.13-.25V2.01c0-.17.14-.31.31-.31,29.88,0,55.16,18.36,64.39,46.78.02.08.02.16-.02.23-.04.07-.1.13-.18.15l-64.1,20.83s-.06.02-.09.02ZM79.36,2.31v66.67l63.41-20.6C133.58,20.48,108.74,2.44,79.36,2.31Z"/>
    </g>
    <path class="cls-1" d="M136.82,51.74c-1.12.33-2.03.99-3.18,1.05-.52.03-.94.59-1.55.49-.37-.06-.73.15-1.11.12-.51-.05-.84.12-1.31.43-.3.16-.46.3-1.12.53-.51.18-.8.19-1.3.55-.44.31-1.33.23-1.8.52-.97.58-1.83.49-2.81,1.34-.91.59-1.94.77-2.78,1.09-1.1.36-2.21.7-3.32,1.02-.26.08-.56.07-.83.07-.59,0-1.07.21-1.57.52-.94.59-4.07,1.11-4.48,1.4-.56.39-5.21,2.06-5.63,2.13-.27.04-.54.02-.69.23-.47-.02-.99.45-1.4.35-.88.18-1.21.22-2.2.59-.95.35-2.23-.14-3.04.43-1.91.62-3.08,1.06-3.33,1.24-.43.32-.75.1-1.19.42-.59.44-2.1.32-2.19.59-.1.29-.55.34-.74.62-.42.59-1.18.75-1.95.74-.4,0-.66.54-1.03.47-.65-.13-1.33-.06-2.03.19l-2.5.88-3.4,1.16-.48.16c-.02-1.31-.03-2.78.24-4.04-.01-.87-.02-1.51-.03-2.03,0-.45-.01-.79-.06-1.1-.27-.75.08-1.5-.29-2.18-.51-.93-.42-.73-.4-2.11.15-.26.33-1.04.12-1.27.14-.73.05-1.39.07-1.46.4-1.14-.21-.92.26-2.11-.05-.65.04-1-.32-1.29-.19-.15-.21-.42-.09-.73.11-.29.06-.53-.05-.81-.46-1.14.19-2.56-.22-3.73.09-.7-.17-1.41-.15-2.12.03-1.15-.02-2.29.36-3.38.1-.29-.02-.87-.16-1.21-.22-.59.2-1.1,0-1.66-.24-.66.13-1.04.32-1.5.15-.37.28-.73.11-1.19-.24-.66-.14-1.4-.18-2.11-.04-.73.34-1.43.11-2.09-.32-.92.14-1.93-.27-2.8-.27-.57.05-.97-.05-1.56.54-.58.63-1.38.51-2.29-.13-.96-.4-1.88-.16-2.93.07-.33-.15-.8-.22-1.22-.07-.41-.15-.84-.15-1.26,0-.87.48-1.61.36-2.51-.11-.83-.04-1.45-.15-2.28-.08-.56.16-1.6.15-2.18,0-1.29-.65-2.34-.12-3.51,0-.57.12-1.17-.14-1.67-.33-.63-.37-1.29-.14-2,.04-.13.11-.3.08-.41-.1-.41-.2-.82-.23-1.23-.01-.21-.01-.41.01-.62.03-.39.07-.78.15-1.14-.04-.65-.06-1.3-.05-1.93,0-.31.02-.62.04-.92l.03-.44c.16.01.34.04.52.06.66.09,1.18.02,1.78-.03.58-.06,1.25-.1,1.93.03l.2.04.12.03c.07.02.14.03.22.04.14.02.28.02.42.02.28,0,.56-.06.84-.13.57-.13,1.15-.1,1.74.05.41.12.89.27,1.27.24,2.21-.17,4.4-.02,6.49.9.78.32,1.57.35,2.44.5.75-.08,1.15.22,1.42.62.14.21.37.16.65.03,1.25-.07,2,.85,2.61.88.43.02.87.05,1.28.17.41.13.81.33,1.18.61.31.23.82.5,1.15.52.77.03,1.35.28,1.99.68.87.52,1.76,1.01,2.81,1.04.85.04,1.67.46,2.49.84,1.04.53,1.83,1.46,3.03,1.71.12.03.28.14.38.23,1.22,1.1,2.44,2.02,4.06,2.47.35.1.83.43,1.09.72.93.96,1.8,1.89,3.1,2.34.24.09.55.31.7.52.31.42.66.8,1.02,1.16.35.38.71.75,1.09,1.1.76.7,1.57,1.36,2.34,2.04,1.23,1.1,2.28,2.35,3.27,3.64.26.35.5.69.87.95.93.74,1.63,1.69,2.11,2.77.3.68.78,1.25,1.33,1.72.9.79,1.5,1.76,1.9,2.89.18.52.44,1.08.77,1.55.75,1.27,1.22,2.69,2.09,3.86.22.3.42.61.59.94.15.33.29.67.42,1.02.27.68.52,1.36.88,2,.41.76,1.11,1.36,1.25,2.27.13.9.53,1.64.9,2.43.33.71.24,1.41.25,2.08.01.73-1.24,1.34-1.79.95-.03-.03-.34-.25-.33-.35-.2-.22-1.11-1.56-1.54-2.77-.25-.66-.48-1.34-.6-2.01-.08-.57-.3-1.04-.7-1.45-.48-.49-.86-1.13-1.02-1.8-.24-1.12-.76-2.12-1.27-3.13-.53-1-1.06-2.01-1.63-2.99-.37-.6-.73-1.21-1.09-1.82-.14-.24-.2-.55-.37-.73-.49-.52-.92-1.07-1.37-1.62-.47-.53-.92-1.08-1.37-1.63-.9-1.1-1.72-2.26-2.79-3.2-.62-.58-.98-.99-1.66-1.47-1.09-.82-1.77-1.7-3.12-3.04-.25-.46-.63-.9-.91-1.37-.22-.38-.52-.65-.91-.83-.89-.44-1.7-.98-2.51-1.56l-1.2-.86c-.42-.26-.85-.5-1.28-.74-.91-.73-2.04-1.53-2.99-2.14-.99-.54-1.78-.92-1.94-.94-.6-.35-1.17-.76-1.74-1.17-.45-.34-.88-.68-1.36-.96-.62-.38-1.29-.59-1.96-.59-.69,0-1.32-.23-1.87-.71-.99-.79-2.14-1.22-3.42-1.3-.64-.03-1.23-.18-1.81-.36-.59-.17-1.16-.42-1.72-.74-.98-.55-2.05-.86-3.18-.76-.84.12-1.64-.11-2.41-.47-.36-.17-.81-.44-1.13-.42-.37.02-.92-.08-1.41-.17-.49-.06-.92-.11-1.01-.06-.18.11-.57.02-.8-.02-.67-.12-1.27-.23-1.94-.29-.68-.05-1.36.05-2.06.11-.55.03-1.23.05-1.64-.13-.24-.11-.48-.16-.72-.18-.16-.01-.15,0-.19,0-.03,0-.06.02-.09.03-.12.05-.14.14-.3.06-.19-.12-.17.02-.21.1-.02.1-.03.22-.03.34v.54c.02.25.04.5.07.74.06.49.16.97.34,1.42.19.5.14,1.12.09,1.7-.06.65-.1,2.79-.21,3.12-.48,1.35-.14,2.89-.05,4.33.05.71.25,1.4.28,2.11.02.55-.17,1.11-.19,1.68-.01.38.35.83.05,1.15-.39.4-.42.76-.26,1.4.19.77.56,1.47.38,2.44-.12.65.13,1.33-.03,2.08-.16.8-.2,1.74-.1,2.57.13,1.05-.35,1.97-.16,2.94.18.92-.06,1.69-.16,2.53-.18,1.58-.18,3.15.25,4.68.42,1.52.45,3.11.1,4.66-.25,1.13-.28,2.24-.22,3.41.07,1.58.2,3.19-.2,4.72-.12.45,0,.83.05,1.25.23,2.15.35,4.28-.14,6.41-.15.64-.09,1.43-.04,2.14.04.71.19,1.4.29,2.11-.1.37-.16.76-.19,1.15l-.04.53-.02.19c-.02.28-.04.51-.25,1.08-.03.07-.04.14-.06.19.06,0,.15-.04.28-.14.26-.2.46-.42.57-.44.16-.04.31-.1.48-.18l1.42-.54c.95-.35,1.91-.65,2.92-.73.77-.35,1.52-.73,2.3-1.04,1.34-.53,2.76-.93,4.05-1.53.79-.37,1.54-.61,2.37-.84,2.22-.63,4.41-1.4,6.61-2.11l6.6-2.14c.68-.21,1.39-.35,2.09-.48.57-.11,1.16-.23,1.62-.54.95-.64,2.03-1,3.13-1.38l9.42-3.29c1.08-.39,2.2-.45,3.3-.91.88-.37,1.86-.72,2.85-.74l7.83-2.57,2.48-.79c.44-.13.85-.12,1.16.03.46.1.53-.39,1.13.65.13.1-.02.99-.15,1.12-.87.92-1.83.87-3.03,1.56-.83.48-2,.76-2.94,1.13Z"/>
  </g>
  <g>
    <path d="M68.97,17.9v67.55l.53-.17,63.71-20.7c2.21,6.91,3.15,13.01,3.15,20.31,0,36.94-30.05,66.99-66.99,66.99S2.38,121.83,2.38,84.89,32.22,18.12,68.97,17.9M69.38,17.49C32.15,17.49,1.98,47.67,1.98,84.89s30.18,67.4,67.4,67.4,67.4-30.18,67.4-67.4c0-7.44-1-13.75-3.3-20.83l-64.1,20.83V17.49h0Z"/>
    <g>
      <path class="cls-2" d="M54.21,151.42c-.62-.15-1.23-.28-1.83-.39-.6-.14-1.19-.28-1.78-.42-1.18-.27-2.32-.63-3.43-1.17-1.01-.46-2.31-.55-3.31-1.26-.62-.42-1.46-.68-2.1-1.15-.84-.61-1.59-.85-2.71-1.27-.66-.28-1.1-.38-2.44-1.09-1.03-.58-1.53-.95-2.73-1.44-1.02-.49-2.37-1.69-3.39-2.3-2.12-1.18-3.28-2.51-5.59-3.81-.96-.65-1.86-1.36-2.65-2.14-.8-.76-1.57-1.5-2.25-2.22-.88-.92-1.76-1.84-2.57-2.83-.84-.96-1.63-1.96-2.39-2.98-.36-.48-.67-1.01-.92-1.52-.55-1.12-1.3-1.99-2.07-2.98-.37-.46-.87-1.18-1.39-2.02-.49-.86-1.03-1.85-1.53-2.79-.94-1.93-1.75-3.74-2.01-4.2-.4-.6-1.75-3.37-2.75-6.22-.25-.71-.52-1.41-.73-2.09-.2-.68-.39-1.32-.56-1.88-.35-1.12-.52-1.96-.56-2.18-.09-.6-.11-1.14-.36-1.55-.09-.97-.56-2.31-.5-3.14-.14-.97-.17-1.64-.24-2.35-.06-.71-.18-1.46-.3-2.62-.1-1.1,0-2.25.12-3.38.15-1.12.25-2.22.09-3.24.02-1.09.05-2.08.07-2.96.02-.88.1-1.65.12-2.3.06-1.31.12-2.14.12-2.46-.02-1.13.33-1.6.32-2.73.02-.77.3-1.89.56-2.85.28-.96.58-1.77.5-1.98-.14-.45.14-1.37.11-1.99-.06-1.32.44-2.97,1.23-4.41.4-.75.25-1.77.7-2.37.78-1.08,1.41-2.37,2.09-3.85,1.39-3.18,3-6.27,4.89-9.19,1.18-1.85,2.47-3.72,3.99-5.13,2.03-2.62,3.2-3.75,4.06-4.8.92-1.41,2.38-2.24,3.2-3.54.6-.86.84-1.2,1.21-1.58.37-.37.87-.8,2.08-1.73.54-.23,1.98-1.16,2.3-1.6,1.38-.83,2.52-1.73,2.67-1.77,2.32-1.02,1.57-1.3,4.08-2.2,1.19-.77,1.94-1,2.34-1.63.21-.32.72-.61,1.39-.81.63-.17,1.09-.43,1.6-.79,2.1-1.51,5.29-1.98,7.61-3.18.76-.18,1.5-.43,2.23-.7.74-.28,1.48-.53,2.25-.69,1.25-.28,2.48-.58,3.73-.75.62-.09,1.24-.18,1.85-.24.62-.04,1.23-.05,1.84-.03.64.02,1.89-.28,2.65-.45.64-.16,1.25-.16,1.85-.15h.9c.15,0,.3,0,.45-.02.18-.02.36-.04.54-.06,1.3-.15,2.38-.15,3.22-.09.21.02.41.04.61.06l.28.03c.02.09-.02.23-.03.34-.05.46-.11.91-.16,1.38-.07.72-.14,1.38-.17,2.05,0,.17,0,.34-.01.51,0,.11,0,.22,0,.34,0,.23.03.46.08.71.24,1.42.14,3.01.18,4.54.04,1.58-.34,3.07-.11,4.49.32,1.97-.14,4.14.27,6.02.27,1.22-.05,2.09.05,3.35-.54,1.25-.63,2.97-.51,4.92.13,2.07.4,4.04.16,6.29-.07.7.15,1.73.22,2.62.07.89.15,1.8.15,2.7,0,1.87-.48,3.46-.36,5.39.11,1.79.04,3.12.15,4.91.08,1.2-.16,3.44-.15,4.68,0,2.78.65,5.04.12,7.54,0,.61-.02,1.24-.03,1.85,0,.31.01.61.04.9.03.27.07.66.13.63.23.2.32.13.27.33.03.01.05.05.09.11.02.04.09.08.14.04l.12-.12.05-.05s.17-.08.25-.12c.41-.17.82-.34,1.24-.49.84-.3,1.7-.54,2.62-.68,1.42-.54,2.81-.99,4.31-1.33,1.44-.33,2.65-1.23,4.22-1.52,1.25-.23,2.3-.66,3.36-1.17,1.08-.51,2.23-.86,3.45-1.15.85-.2,1.86-.43,2.59-.75,4.21-1.82,8.47-3.25,13-4.27,1.69-.38,3.21-1,4.95-1.59,1.35-.65,2.3-.81,3.12-.74.42.03.81-.2,1.22-.55,2.23-1.15,4.37-1.12,5.51-1.64,1.61-.73,3.28-1.38,5.14-1.69.76-.13,1.94-.43,2.54-.73.35-.18.68-.33,1.02-.47l.25-.1.43-.15.91-.31c.61-.2,1.22-.38,1.83-.55.3-.08.61-.17.92-.25.11.3.18.66.28,1l.67,2.58c.17.62.34,1.24.51,1.85.3,1.03.65,2.05,1.06,3.03.67,1.58.98,3.57,1.22,5.49.31,2.49.07,4.97.47,7.47.04.25.02.66,0,.94-.45,3.43-.63,6.73-.63,10.19.04.76-.21,1.98-.44,2.77-.8,2.73-1.59,5.3-1.97,8.12-.09.51-.34,1.3-.57,1.78-1.9,3.93-3.53,8.11-5.7,11.98-1.72,3.08-3.69,6.01-6,8.62-.61.73-1.22,1.35-1.76,2.13-.36.52-.73,1.03-1.13,1.51-.41.47-.83.94-1.27,1.39-.85.92-1.83,1.7-2.82,2.46-.61.48-1.24.96-1.84,1.47-.6.51-1.13,1.07-1.67,1.6-1.77,1.82-3.74,3.25-6.02,4.36-1.04.52-2.2,1.15-3.27,1.75-2.72,1.63-5.69,2.75-8.51,4.1-2.87,1.42-5.97,2-8.97,2.93-.89.24-1.76.55-2.64.83-.88.26-1.8.44-2.75.52-.95.09-1.87.16-2.79.3-.91.14-1.82.3-2.75.39-.83.09-1.59.09-2.31.04-.73-.08-1.41-.2-2.1-.29-1.51-.2-1.92-1.58-.74-1.99.07-.03.74-.25.93-.21.58-.11,3.93-.62,6.67-.98,1.52-.15,3.01-.48,4.46-.54,1.2-.05,2.29-.35,3.37-.79,1.28-.59,2.8-1.06,4.21-1.41,4.67-1.09,9.15-3.22,13.36-5.65.67-.35,1.3-.78,1.95-1.17.64-.4,1.31-.77,1.93-1.21.49-.33,1.08-.6,1.48-.93,2.28-1.98,4.61-3.94,6.77-6.1,2.18-2.13,4.26-4.39,6.03-6.84,1.1-1.44,1.75-2.44,2.63-3.96,1.32-2.58,2.81-4.48,4.67-8.13.6-.89,1.17-2,1.76-2.96.44-.79.77-1.59,1.02-2.45,1.07-4.01,2.28-8.16,2.78-12.34.29-1.22.44-2.58.65-3.93.13-1.35.25-2.7.3-3.92.02-1.22.04-2.29.03-3.11-.03-.82-.06-1.36-.1-1.52-.01-1.5-.01-3.01-.07-4.49-.04-1.19-.06-2.35-.17-3.54-.14-1.55-.5-3-1.06-4.22-.29-.63-.53-1.29-.74-1.98-.1-.34-.19-.69-.27-1.05l-.1-.54c-.02-.13-.01-.19-.02-.29,0-.37-.03-.67-.08-1,0-.12-.08-.07-.14-.07l-.2.04c-.14.03-.29.07-.43.12l-.66.23-.94.36c-.63.25-1.25.52-1.86.82-2.45,1.19-5.01,1.98-7.74,2.53-2.37.48-4.66,1.24-6.81,2.33-1.57.81-3.36,1.31-5.15,1.68-.85.18-1.93.34-2.55.63-1.44.67-4.73,1.57-5.04,1.81-.3.23-1.15.46-1.64.61-1.45.42-2.72.8-4.12,1.27-1.43.48-2.76,1.16-4.19,1.69-1.13.42-2.54.93-3.48,1.05-2.2.29-3.96,1.41-6.02,1.92-1.74.43-3.55,1-5.31,1.57-1.04.33-2.05.68-3.04,1.06-.8.3-1.58.6-2.36.9-.89.35-1.8.72-2.75,1.12-.32.14-.66.27-1.06.42-.1-1.66-.06-3.94-.01-5.96.02-.73.05-2.29.08-3.77.03-1.41.07-2.74.13-3.09.48-2.91.14-6.22.05-9.3-.05-1.53-.25-3.01-.28-4.53-.02-1.19.17-2.4.19-3.61.01-.82-.35-1.79-.05-2.47.39-.86.42-1.63.26-3.02-.19-1.65-.56-3.16-.38-5.24.12-1.39-.13-2.87.03-4.47.16-1.72.2-3.75.1-5.52-.13-2.25.35-4.24.16-6.31-.18-1.98.06-3.62.16-5.43.09-1.7.14-3.39.1-5.07v-.29s-.02-.09-.02-.09l-.02-.18c-.02-.11-.04-.21-.07-.29,0-.06-.09-.02-.15,0l-.18.06c-.11.04-.19.09-.25.15l-.02.02s-.09.02-.13.02l-.3.04-.59.08-1.19.2c-.8.13-1.6.19-2.41.31-1.61.22-3.24.34-4.85.5-2.36.17-4.63.72-6.96,1.47-3.13,1.05-6.2,2.36-9.27,3.39-.9.3-1.55.8-2.31,1.24-3.87,2.32-7.47,4.87-11.23,7.34-1.1.78-2.36,1.88-3.38,2.97-1.07,1.04-1.96,2.21-2.89,3.35-2.42,2.04-4.37,5-6.46,7.35-.43.48-.68.88-.93,1.44-.34.74-.71,1.57-1.13,2.3-2.2,3.62-3.61,7.65-5.42,11.42-.23.85-.48,1.69-.68,2.55-.19.86-.39,1.72-.6,2.57-.63,2.94-1.33,5.95-1.46,8.91-.08.9-.11,1.76-.17,2.61-.05.86-.15,1.71-.17,2.61-.26,4.81.14,9.66,1.02,14.4.89,4.74,2.28,9.39,4.19,13.81.6,1.36,1.12,2.77,1.74,4.11.46,1.12,1.05,2.24,1.73,3.12,1.42,1.83,2.76,3.79,4.2,5.73,4.21,5.49,9.22,10.38,14.93,14.25,1.95,1.36,3.72,2.78,5.92,3.91,1.76.88,3.72,1.82,5.41,2.87,5.25,2.29,10.81,3.85,16.46,4.69l2.69.34,2.7.23c.94.1,1.75.22,2.27.48.85.25,1.31-.17,1.82,1.02.2.14-.7.92-1.05,1-1.21.26-2.31.34-3.46.25-1.16-.06-2.37-.13-3.86-.21-1.02-.03-2.19-.14-3.35-.36-1.17-.19-2.35-.42-3.42-.66Z"/>
      <g>
        <path class="cls-2" d="M54.63,20.21c-.6.13-1.19.28-1.77.44-.57.19-1.13.37-1.69.56-1.12.34-2.21.72-3.38.97-1.08.2-2.06,1.03-3.23,1.19-.73.08-1.48.51-2.23.69-.98.24-1.69.57-2.65,1.26-.59.38-.95.63-2.24,1.35-.99.59-1.56.81-2.53,1.6-.82.74-2.51,1.33-3.36,2.13-1.76,1.54-3.32,2.29-4.92,4.31-.74.83-1.56,1.56-2.31,2.31-.76.73-1.53,1.4-2.15,2.12-.84.88-1.69,1.75-2.48,2.68-.4.46-.81.91-1.2,1.37l-1.15,1.42c-.36.45-.81.84-1.18,1.24-.82.87-1.48,1.77-1.98,2.87-.25.51-.68,1.23-1.2,2.03-.48.83-1.04,1.74-1.58,2.62-1.02,1.8-1.94,3.48-2.06,3.98-.21.67-1.34,3.39-2.2,6.15-.22.69-.43,1.37-.64,2.02-.18.65-.34,1.27-.49,1.81-.32,1.07-.49,1.87-.55,2.08-.17.55-.39,1.03-.34,1.48-.4.87-.3,2.25-.67,2.97-.23.91-.34,1.55-.45,2.23-.1.68-.23,1.4-.3,2.52-.05,1.06-.37,2.14-.59,3.22-.2,1.08-.37,2.15-.25,3.15.04,2.14.1,3.87.26,5.14.11,1.27.23,2.08.33,2.37.31,1.06.06,1.59.38,2.65.25.72.36,1.82.44,2.79.1.97.23,1.8.37,1.95.34.33.44,1.26.79,1.77.77,1.06,1.06,2.65,1.37,4.19.15.81.81,1.5.9,2.19.16,1.25.5,2.63,1.19,4.06,1.4,3.06,3.06,6.01,4.93,8.8.56.9,1.21,1.77,1.81,2.64.58.89,1.18,1.74,1.69,2.62,2.06,2.48,3.1,3.67,4.09,4.55,1.27.99,2.2,2.3,3.49,3.03.91.47,1.27.63,1.68.93.41.29.84.75,1.99,1.64.33.45,1.5,1.62,2.05,1.72,1.16,1.01,2.36,1.74,2.47,1.81,1.82,1.63,1.71.9,3.66,2.54,1.19.66,1.83,1.05,2.54,1.02.37-.02.87.21,1.41.62.5.38.98.52,1.56.67,2.34.61,4.91,2.22,7.37,2.61.68.27,1.41.41,2.14.57.72.16,1.45.31,2.17.47,1.17.28,2.33.58,3.49.79,1.16.25,2.29.54,3.4.85.58.16,1.81.23,2.55.13,1.24-.15,2.28.42,3.47.22,1.38-.21,2.17.22,3.16.37.78.13,1.54.24,2.52.04,1.37-.34,2.93-.31,4.41-.54.76-.12,1.52-.13,2.25-.16.73-.04,1.44-.15,2.1-.37.46-.16.94-.28,1.43-.38.48-.12.98-.22,1.47-.32.98-.2,1.95-.41,2.77-.87,1.07-.58,1.98-.49,3.11-1,.66.06,1.41-.02,2.2-.22.78-.23,1.62-.57,2.49-.97,1.83-.92,3.45-1.97,5.51-2.79.66-.23,1.4-.96,2.13-1.45.73-.48,1.44-1.02,2.17-1.5,1.55-.95,3.08-1.49,4.53-2.7,1.31-1.17,2.39-1.91,3.62-3.16.86-.8,2.57-2.17,3.45-3.02,1.89-1.98,2.89-4.02,4.79-5.61.38-.46.76-.94,1.14-1.41.34-.49.65-.98.85-1.49.52-1.25,1.2-2.43,2.21-3.57.18-.2.43-.48.51-.69.34-.8.68-1.59,1.09-2.35.38-.78.8-1.54,1.35-2.26.59-1.36,1.17-2.65,1.88-3.97.65-1.29.72-2.75,1.39-4.14.57-1.1.79-2.19.95-3.33.19-1.14.45-2.27.82-3.43.28-.8.54-1.78.6-2.55.33-4.44.65-8.76.98-13.26.12-1.69-.08-3.27-.28-5.05-.34-1.41-.33-2.33-.12-3.12.11-.4-.07-.81-.35-1.26-.8-2.28-.62-4.35-1.07-5.5l-.44-1.13c-.07-.14-.15-.3-.18-.4-.03-.06-.03-.16-.06-.23-.06,0-.12-.04-.23-.08-.04-.02-.1-.03-.16-.03h-.05s-.04,0-.11.02l-.35.09c-.47.13-.91.28-1.21.43-1.39.7-2.65,1.07-4.19,1.41-2.07.46-4.11,1.11-5.92,2.12-1.46.81-3.31,1.37-5.1,1.94-2.31.74-4.7,1.1-6.93,2.2-.22.11-.61.22-.88.27-3.3.64-6.43,1.6-9.42,3.12-.66.33-1.8.69-2.59.85-2.71.54-5.25,1.26-7.72,2.51-.45.23-1.21.49-1.72.59-4.18.79-8.28,2.38-12.36,3.75-1.97.65-3.94,1.3-5.88,1.93,0-2.08.02-4.15.03-6.21.02-1.14.06-2.27.11-3.41.04-.92.1-1.77,0-2.7-.27-2.44-.23-4.88.05-7.3.18-1.52.18-3.09-.01-4.56-.31-2.46-.28-4.81.02-7.26.14-1.13.23-2.42.22-3.63-.03-3.1.24-6.2.05-9.26-.2-3.12.14-6.16.01-9.26-.07-1.82-.41-3.56-.22-5.43.19-1.86.07-3.62,0-5.46-.06-1.63.26-2.96.48-4.31.24-1.47,1.63-1.91,2.01-.71.02.08.24.76.19.95.11.58.51,4.02.49,6.86-.01,1.56.03,3.13-.17,4.59-.17,1.22-.16,2.36.03,3.54.23,1.42.31,3.06.18,4.54-.42,4.89-.31,9.89-.38,14.86-.03,1.54-.07,3.09-.1,4.63-.02.6-.14,1.24-.1,1.77.46,6.13.21,12.42.41,18.61.03.93.05,1.69.07,2.45l.02.57c0,.16.02.18.03.28.02.16.06.31.1.44.05.15.08.28.11.4.21-.1.38-.16.56-.22.26-.08.53-.15.81-.23,1.25-.37,2.63-.78,4.29-1.28,1.09-.17,2.32-.5,3.45-.72.9-.17,1.75-.43,2.59-.79,3.88-1.69,8.12-2.97,12.16-4.48,4.95-1.39,11.65-3.67,12.22-3.98,1.47-.46,2.96-.86,4.43-1.26,1.18-.3,2.34-.59,3.52-.89,1.54-.41,2.95-.96,4.15-1.64,1.23-.71,2.63-1.21,4.15-1.49,1.34-.24,2.64-.56,3.93-.97.64-.2,1.27-.43,1.9-.68l.94-.39.47-.21.26-.12.39-.16c1.05-.44,2.17-.87,3.31-1.28l.11-.04s.03.05.05.07l.07.2.14.41.28.83c.2.58.36,1.1.51,1.61l.23.78.11.39.07.27.23,1.02c.13.69.25,1.39.33,2.1.3,2.47.72,4.88,1.38,7.27.48,1.76.54,3.68.4,5.56-.07.88-.23,1.98-.16,2.68.07.81.05,2.08.02,3.21-.07,1.12-.16,2.09-.11,2.28.09.38,0,1.28-.09,1.8-.26,1.53-.4,2.88-.69,4.38-.13.76-.19,1.53-.28,2.3-.11.76-.21,1.53-.36,2.31-.2,1.23-.64,2.72-1.05,3.6-1.04,2.02-1.24,4.15-2.21,6.12-.38.84-.83,1.68-1.23,2.54l-.61,1.3c-.22.42-.44.85-.66,1.27-.51,1-1,1.98-1.51,2.94-.48.97-.92,1.94-1.33,2.89-.42,1.04-1.22,2.17-2.03,3.18-.82,1.2-3.87,4.87-4.45,5.31-1.14,1-2.3,2.1-3.39,3.3-1.15,1.14-2.24,2.39-3.43,3.44-1.14,1.09-2.22,2.18-3.45,3.17-.96.77-2.11,1.31-3.14,2.03-.71.45-1.36,1.3-2.12,1.42-.95.17-1.65.51-2.81,1.36-.68.52-1.34,1.02-2.08,1.49-.74.47-1.53.97-2.56,1.32-.68.24-1.35.58-2.04.92-.7.33-1.44.63-2.23.86-.86.26-1.78.54-2.72.82-.92.31-1.85.62-2.72.91-2.2.79-4.32.78-6.37,1.38-.99.27-1.91.43-2.82.52-.91.05-1.8.11-2.73.16-3.49.17-6.93.36-10.34.62-3.37.28-6.97-.03-10.29-1.05-2.42-.7-4.8-1.33-7.3-2.02-3.36-.97-6.76-2.16-9.65-3.98-.84-.55-1.64-.83-2.49-1.21-4.3-2.02-8.36-4.58-11.67-7.98-.97-1.05-2.35-2.11-3.49-3.18-1.19-1.03-2.33-2.05-3.48-3.11-1.92-2.71-4.47-5.42-5.98-8.37-.29-.61-.55-1.02-.96-1.51-.56-.65-1.19-1.37-1.6-2.15-2.18-3.84-4.45-7.79-5.46-12.09-.33-.86-.71-1.71-1.01-2.58-.3-.87-.6-1.75-.88-2.64-.84-3.07-1.46-6.27-1.95-9.37-.19-.94-.27-1.85-.35-2.77-.08-.91-.16-1.82-.15-2.78-.1-5.11.22-10.27,1.16-15.32.94-5.04,2.4-10,4.47-14.7.65-1.44,1.39-2.86,2.2-4.19.63-1.12,1.35-2.23,1.8-3.31.95-2.27,2.37-4.39,3.87-6.49,4.4-5.94,9.67-11.27,15.7-15.59,2.07-1.52,4.28-2.54,6.53-3.92,1.81-1.08,3.9-2.15,5.95-2.72,5.59-2.45,11.51-4.13,17.54-5.03l2.86-.36c.96-.09,1.92-.15,2.88-.21,1.01-.09,1.88.07,2.44.28.9.21,1.39-.24,1.92.92.19.13-.7.95-1.05,1.05-1.19.34-2.25.39-3.38.53-1.13.12-2.33.16-3.75.51-.97.22-2.1.38-3.23.61-1.14.2-2.29.4-3.32.7Z"/>
        <path class="cls-2" d="M70.02,32.93c-.03,2.5.31,4.79.02,7.19-.13,1.09.27,2.32-.01,3.48-.18.72-.08,1.58-.23,2.35-.2,1-.15,1.78,0,2.96.06.71.14,1.14.16,2.63.02,1.16-.06,1.77.12,3.02.16,1.1-.19,2.86-.06,4.02.25,2.36-.1,4.06.41,6.62.28,2.25.13,4.47.17,6.4,0,2.48-.02,4.96-.06,7.44,0,.59-.11,1.18-.19,1.73-.05.3-.08.6-.1.89-.02.29-.03.63-.02.7,0,.27.05.53.13.72.03.09.05.2.07.39.27-.11.56-.2.88-.29l.25-.07.55-.16c.44-.13.88-.26,1.31-.38,1.71-.49,3.2-.92,3.61-1.12,1.27-.62,11.3-4.04,12.17-4.25.57-.14,1.1-.2,1.48-.48.95-.14,2.16-.83,2.98-.86,1.85-.49,2.53-.65,4.68-1.39,2.04-.7,4.5-.6,6.32-1.5,4.09-1.33,6.63-2.21,7.18-2.49.99-.5,1.57-.36,2.56-.87,1.36-.69,4.37-1.06,4.66-1.4.31-.36,1.23-.56,1.72-.94,1.04-.79,2.65-1.22,4.23-1.48.82-.13,1.53-.82,2.25-.87.65-.04,1.31-.14,2.01-.28.35-.07.71-.16,1.07-.26.23-.07.45-.14.69-.21.27-.09.54-.18.82-.26l1.77-.58.22-.07s.08-.03.11-.03l.04.11.14.44.28.88c.36,1.15.74,2.38.93,3.09.47,1.67.87,3.36,1.2,5.06.42,2.16.74,4.4.6,6.47.29,3.3.2,4.91.29,6.26.24,1.65-.15,3.26.07,4.76.36,2.08.29,1.63-.1,4.65-.21.54-.71,2.19-.59,2.73-.4,1.55-.71,2.97-.74,3.11-.46,1.18-.56,1.67-.66,2.18-.1.51-.21,1.03-.79,2.21-.41,1.35-.74,2.05-.61,2.78.08.38-.11.93-.48,1.53-.34.56-.49,1.06-.61,1.67-.26,1.25-.91,2.52-1.55,3.78-.71,1.23-1.36,2.5-1.85,3.7-.42.65-.78,1.34-1.12,2.05-.38.68-.75,1.38-1.18,2.03-.68,1.08-1.46,2.08-2.2,3.09-.76.99-1.62,1.89-2.5,2.71-.48.42-1.23,1.46-1.63,2.13-.68,1.13-1.8,1.63-2.5,2.67-.85,1.19-1.75,1.5-2.6,2.07-.69.45-1.38.84-2.04,1.65-.46.57-1.03,1.09-1.65,1.57-.62.48-1.24.98-1.85,1.46-1.29.97-2.74,1.56-3.84,2.5-.76.68-1.67,1.22-2.6,1.71-.92.5-1.81,1.02-2.58,1.62-1,.8-1.92.96-3.06,1.56-.7.02-1.45.19-2.25.46-.81.24-1.68.59-2.58,1.01-1.93.84-3.77,1.74-6.05,2.12-.7.14-1.67.58-2.55.86-.87.28-1.77.57-2.68.71-1.89.37-3.57.09-5.5.45-.9.14-1.7.2-2.49.28-.79.08-1.59.13-2.5.2-.61.05-1.49.05-2.38,0-.88-.07-1.77-.15-2.4-.16-1.42-.01-2.71-.01-3.97,0-1.26-.02-2.47-.18-3.7-.59-1.23-.21-2.51-.56-3.65-.5-1.41,0-2.87-.23-4.32-.91-.26-.12-.61-.29-.84-.32-.9-.14-1.8-.31-2.67-.59-.87-.28-1.75-.57-2.56-1.08-1.48-.49-2.87-1.05-4.24-1.85-1.32-.71-2.83-.99-4.18-1.91-1.04-.78-2.09-1.28-3.21-1.76-1.1-.53-2.16-1.19-3.15-2.01-.69-.58-1.49-1.27-2.2-1.68-4.01-2.47-7.52-5.64-10.35-9.48-.52-.72-1.08-1.38-1.65-2.04-.56-.68-1.13-1.37-1.73-2.1-1.08-1.09-1.51-2-1.71-2.81-.1-.41-.43-.73-.88-1.06-1.75-1.91-2.16-4.1-2.91-5.12-1-1.5-1.94-3.1-2.45-4.97-.24-.75-.61-1.93-.96-2.53-.83-1.36-1.2-2.66-1.57-4.23-.45-2.12-1.02-4.21-1.84-6.16-.36-.78-.58-1.68-.77-2.6-.2-.93-.36-1.89-.46-2.85-.16-1.24-.22-2.47-.24-3.71-.05-1.24-.13-2.47-.31-3.73-.04-.25-.03-.66,0-.94.39-3.43.58-6.72.55-10.16,0-.38.02-.88.1-1.38.09-.5.21-1,.32-1.39.21-.68.38-1.35.57-2.02.2-.67.39-1.33.55-2,.29-1.35.64-2.67.81-4.09.05-.52.33-1.3.55-1.78,1.87-3.93,3.47-8.11,5.61-11.99,1.69-3.09,3.65-6.01,5.93-8.63.61-.72,1.2-1.36,1.74-2.14.36-.52.73-1.02,1.11-1.52.4-.48.83-.94,1.26-1.39.85-.91,1.81-1.72,2.8-2.47.61-.48,1.23-.98,1.82-1.48.59-.51,1.13-1.07,1.65-1.61,1.76-1.82,3.72-3.26,5.97-4.38,1.04-.52,2.19-1.16,3.26-1.77,2.7-1.65,5.67-2.77,8.46-4.14,2.85-1.43,5.94-2.03,8.93-2.98.89-.25,1.75-.56,2.63-.84.88-.27,1.79-.45,2.74-.53.95-.1,1.87-.18,2.78-.32.91-.14,1.81-.31,2.74-.4.83-.1,1.58-.1,2.31-.05.72.08,1.41.19,2.1.28,1.51.19,1.93,1.57.75,1.99-.07.03-.74.26-.93.22-.57.11-3.91.64-6.64,1.02-1.51.16-3,.5-4.45.56-1.2.06-2.28.36-3.36.81-.64.28-1.33.58-2.05.81-.71.23-1.45.43-2.14.62-4.65,1.11-9.1,3.27-13.29,5.71-.66.36-1.29.79-1.94,1.18-.64.39-1.3.78-1.91,1.22-.49.33-1.07.6-1.47.93-4.53,3.94-9.15,8.06-12.69,12.99-.54.72-.98,1.33-1.37,1.96-.4.62-.81,1.23-1.22,2.01-1.32,2.57-2.76,4.49-4.61,8.13-.58.9-1.18,1.99-1.73,2.96-.44.79-.77,1.58-1.01,2.44-1.04,4-2.22,8.15-2.69,12.32-.25,1.22-.44,2.58-.61,3.92-.1,1.35-.27,2.69-.27,3.91-.09,2.42.05,4.3.12,4.6-.01,1.5.09,2.99.1,4.48.08,1.18.11,2.34.2,3.53.21,1.54.49,3,1.09,4.21.3.63.54,1.29.72,1.98.22.68.38,1.39.48,2.13.15,1.32.53,2.57.93,3.82.45,1.23,1.01,2.43,1.7,3.57.73,1.11,1.29,2.29,1.92,3.45.3.58.58,1.18.84,1.79.29.6.57,1.2.84,1.83.93,2.17,2.27,4.14,3.93,5.79,1.25,1.19,2.27,2.65,3.3,4.1.47.7,1.03,1.61,1.56,2.02,1.16,1.02,3.47,3.4,3.81,3.55.35.14.97.73,1.33,1.06,1.06,1.02,2.07,1.81,3.21,2.7,1.19.86,2.48,1.52,3.75,2.26,1,.59,2.25,1.34,2.95,1.91.82.7,1.71,1.2,2.65,1.59.93.41,1.85.8,2.76,1.27,1.51.86,3.22,1.55,4.9,2.2,1,.34,1.99.67,2.98.94,1,.22,1.99.39,2.95.48,1.04.07,2.28.4,3.44.72.66.14,2.08.44,3.42.68,1.35.2,2.62.4,2.95.5,2.76.71,6.02.58,8.99.33,1.48-.06,2.89-.44,4.35-.57,1.13-.17,2.32-.11,3.48-.27.78-.13,1.63-.65,2.34-.47.9.25,1.63.07,2.9-.38.76-.26,1.46-.62,2.22-.93.76-.32,1.58-.57,2.55-.83.66-.16,1.3-.41,1.97-.67.66-.28,1.34-.58,2.09-.79.81-.21,1.65-.54,2.49-.91.84-.35,1.67-.75,2.4-1.2.94-.55,1.9-.93,2.8-1.38.91-.44,1.82-.84,2.6-1.48,1.54-1.16,2.95-1.89,4.44-2.84,2.74-1.84,5.23-4.04,7.18-6.59,1.92-2.54,4.01-5.05,6.2-7.43,1.57-1.75,2.9-3.67,4.06-5.82,1.6-2.88,2.93-5.94,4.44-8.78.23-.42.39-.82.52-1.23.11-.41.22-.82.33-1.24,1.24-4.32,2.11-8.64,3.16-13,.35-1.31.39-2.98.46-4.46.02-1.49-.08-2.94-.18-4.41.39-3.15-.19-6.63-.28-9.75-.02-.64-.09-1.1-.29-1.68-.26-.77-.59-1.62-.77-2.43-.11-.51-.24-1.02-.37-1.53l-.22-.76c-.07-.25-.16-.56-.18-.61-.07-.22-.16-.45-.21-.57-.03-.06-.05-.16-.1-.19l-.24.09c-.17.07-.26.1-.49.17l-1.54.48c-1.03.31-2.07.58-3.12.8-1.68.65-3.33,1.32-5.04,1.93-2.91,1.03-5.92,1.96-8.75,3.06-1.73.67-3.33,1.19-5.1,1.73-4.73,1.45-9.44,3.03-14.16,4.56l-14.14,4.59c-1.46.47-2.95.85-4.41,1.23-.6.16-1.21.32-1.8.5l-.44.14-.53.19c-.49.17-.97.36-1.45.55-1.23.5-2.57,1.01-3.95,1.51-.05-1.45-.08-3.01-.1-4.61-.01-1.07-.02-2.15-.03-3.23-.07-7.13-.14-14.26-.21-21.38-.03-2.47.25-4.78.16-7.33-.08-2.03-.11-4.28.18-6.3l-.03-17.66.02-5.57c0-.98.15-1.81.38-2.35.23-.87-.21-1.35.97-1.86.14-.19.93.7,1.02,1.05.61,2.39.26,4.3.55,7.21.2,2,.1,4.58.16,6.74Z"/>
      </g>
    </g>
  </g>
</svg>