<?xml version="1.0" encoding="UTF-8"?>
<svg id="illuer_blå_bg" xmlns="http://www.w3.org/2000/svg" viewBox="0 0 175.57 175.36">
  <defs>
    <style>
      .cls-1 {
        fill: #ff9400;
      }

      .cls-2 {
        fill: #ffe6c4;
      }
    </style>
  </defs>
  <path class="cls-2" d="M8.93,149.72c1.3,1.05,2.7,1.75,3.81,2.94.52.53,1.42.68,1.89,1.36.29.42.82.68,1.15,1.1.43.57.92.78,1.66,1.09.43.21.72.29,1.57.81.67.4.96.71,1.78.97.72.23,1.56,1.12,2.3,1.4,1.48.59,2.33,1.41,4.09,1.73.73.21,1.41.53,2.05.85.65.29,1.27.6,1.87.85l2.25,1.03c.75.34,1.53.64,2.28.96.36.15.69.39,1,.6.68.46,1.39.71,2.22.82.77.12,2.18.65,3.49,1.16,1.32.48,2.55.89,2.9.92.94.15,7.84,1.63,8.43,1.7.38.11.7.28,1.02.18.59.27,1.53.15,2.02.46,1.24.32,1.7.39,3.21.56.72.07,1.43.37,2.14.64.71.24,1.43.43,2.11.34,1.44.1,2.61.2,3.47.21.86,0,1.42-.03,1.62-.07.74-.15,1.07.17,1.81.01,1.01-.18,3.01.34,3.26.1.27-.25.89-.18,1.28-.39.81-.46,1.92-.36,2.98-.22.56.09,1.12-.39,1.59-.25.86.25,1.82.35,2.88.22,2.26-.34,4.52-.6,6.75-1.08,1.42-.28,2.87-.54,4.24-.59,2.11-.56,3.18-.7,4.01-1.05.97-.56,2.09-.51,2.93-1.13,1.14-.85.88-.67,2.76-1.29.4.03,1.51-.16,1.76-.47,1.04-.19,1.89-.61,1.98-.63,1.66-.23,1.14-.68,2.9-.87.85-.37,1.35-.49,1.58-1,.12-.26.46-.44.92-.51.43-.07.72-.25,1.03-.52,1.3-1.05,3.38-1.41,4.68-2.54.46-.19.89-.45,1.32-.73.41-.3.82-.6,1.26-.84,1.43-.8,2.83-1.61,4.32-2.16.4-.14,1.03-.69,1.37-1.06.58-.64,1.44-.67,1.97-1.31.63-.73,1.28-.75,1.93-.98.52-.19,1.01-.38,1.45-.9.6-.77,1.49-1.34,2.26-2,.79-.68,1.83-.99,2.38-1.79.78-1.1,2.18-1.69,2.83-2.83.41-.75,1.04-.92,1.57-1.57.96-.2,1.9-.88,2.69-1.92.86-1.09,1.58-2.21,2.76-3.15.36-.3.64-.97.98-1.46.34-.49.66-1,1.06-1.45.83-.92,1.81-1.49,2.52-2.56.64-1,1.27-1.64,1.85-2.69.4-.69,1.45-1.77,1.93-2.45,1.03-1.54,1.27-3.16,2.62-4.27.43-.69.95-1.38,1.08-2.13.16-.95.59-1.76,1.3-2.54.12-.14.29-.33.33-.48.35-1.14.72-2.25,1.56-3.18.4-.92.76-1.82,1.32-2.68.51-.84.49-1.88,1.07-2.77.46-.71.65-1.44.79-2.22.13-.79.47-1.51.83-2.25.25-.52.56-1.13.66-1.66.29-1.5.66-2.94,1.03-4.4.39-1.45.94-2.85,1.46-4.3.41-1.07.54-2.16.79-3.35-.02-1.01.23-1.59.63-2.03.21-.23.15-.54.01-.89-.06-.84.16-1.56.35-2.18.18-.62.39-1.14.37-1.56-.06-1.19.02-2.36.41-3.56.15-.5.29-1.29.22-1.74-.16-1.03-.06-1.89.18-2.92.24-1.38.28-2.81-.07-4.16-.26-1.09-.3-2.35-.31-3.59-.02-.8.06-1.59.1-2.39.01-.8-.05-1.6-.29-2.39-.05-.16-.05-.42-.03-.61.3-2.23.01-4.39-.77-6.49-.16-.46-.29-1.24-.29-1.77-.02-1.82-.15-3.59-1.01-5.24-.15-.3-.28-.82-.3-1.16-.03-.71-.1-1.41-.21-2.11-.13-.7-.32-1.39-.51-2.07-.4-1.37-.81-2.75-1.32-4.08-.38-1.07-.75-2.14-1.1-3.21-.39-1.06-.77-2.11-1.11-3.19-.19-.58-.33-1.13-.67-1.65-.92-1.36-1.53-2.84-1.95-4.41-.3-.97-.78-1.9-1.38-2.67-.99-1.32-1.76-2.65-2.31-4.2-.26-.71-.58-1.52-1.04-2.17-1.14-1.7-1.98-3.62-3.35-5.14-.68-.78-1.23-1.64-1.81-2.48-.6-.83-1.18-1.66-1.87-2.43-.78-.92-1.81-1.56-2.47-2.62-.67-1.05-1.49-1.89-2.4-2.7-.79-.74-1.16-1.6-1.62-2.4-.5-.88.27-2.08,1.1-1.76.05.02.52.21.58.33.34.22,2.28,1.6,3.55,3.08.69.81,1.42,1.59,1.92,2.48.43.72.9,1.33,1.55,1.85.78.61,1.53,1.45,2.06,2.33.83,1.46,1.72,2.89,2.67,4.29.9,1.43,1.8,2.86,2.7,4.29.52.91,1,1.85,1.49,2.78.19.36.3.8.51,1.09.64.84,1.13,1.76,1.67,2.67.51.92,1.04,1.84,1.48,2.8.88,1.93,1.8,3.84,2.63,5.78.51,1.16.83,1.92,1.42,3.01.46.91.78,1.79,1.08,2.77.15.5.3,1.02.47,1.58.14.58.3,1.2.48,1.89.04.77.21,1.62.28,2.4.07.63.19,1.21.41,1.79.52,1.35.94,2.77,1.3,4.21.31,1.45.6,2.91.95,4.35.16,1.75.37,3.83.6,5.51.15,1.69.3,3,.38,3.21.06,1.05.09,2.1.01,3.15-.06.83-.12,1.64-.18,2.47-.05,1.08.05,2.11.29,3.03.27.95.29,1.98.05,3.01-.4,1.83-.65,3.62-.39,5.51.22,1.88-.11,3.71-.64,5.54-.52,1.59-.83,3.2-.74,4.88.06,1.23-.34,2.46-.8,3.63-.22.55-.57,1.23-.59,1.7-.09,1.09-.89,3.29-.83,3.57.05.27-.15.84-.26,1.17-.34.98-.68,1.82-.99,2.79-.33.98-.39,2.03-.73,3.03-.26.78-.59,1.77-.98,2.3-.46.62-.69,1.31-.92,1.99-.24.68-.45,1.36-.82,1.99-.63,1.06-1.14,2.26-1.75,3.37-.7,1.32-1.28,2.66-1.62,4.02-.2.73-.7,1.5-1.18,2.22-.27.4-.78,1.3-1.33,2.11-.55.8-1.08,1.55-1.26,1.72-1.44,1.45-2.49,3.47-3.65,5.25-.55.89-1.04,1.8-1.67,2.65-.49.66-1.15,1.2-1.68,1.84-.35.44-.53,1.16-1.06,1.33-.68.2-1.05.57-1.55,1.4-.3.49-.55,1-.87,1.49-.33.48-.72.96-1.28,1.42-.75.61-1.27,1.52-2.15,2.21-.97.7-2.01,1.63-2.83,2.55-1.02,1.18-2.42,1.67-3.36,2.76-.9,1.05-1.95,1.56-2.99,2.24-.98.64-1.89,1.35-2.81,2.04-.92.69-1.79,1.44-2.59,2.28-.78.85-1.72,1.52-2.68,2.17-.98.63-1.98,1.23-3.08,1.63-1.59.6-2.99,1.46-4.51,2.28-1.02.56-2.05,1.14-3.09,1.67-1.05.51-2.15.9-3.26,1.2-.65.17-1.12.51-1.66.81-1.42.7-2.87,1.36-4.34,1.94-1.48.55-3.02.93-4.58,1.21-.93.19-2.05.52-3.04.86-1,.32-1.94.77-2.92,1.11-2.25.08-4.58,1.03-6.82.95-.46,0-.78.05-1.18.2-.54.21-1.14.46-1.72.56-1.47.16-2.94.43-4.41.66-1.47.23-2.96.27-4.43.17-1.22.21-2.44.38-3.69.45-1.06.07-2.13.11-3.2.15-1.07,0-2.13,0-3.18.05-1.28.08-2.44.05-3.71-.1-3.4-.3-6.81-.65-10.19-1.21-3.37-.56-6.73-1.27-10.02-2.19-1.01-.3-2.01-.67-2.98-1.05-.81-.29-1.61-.67-2.4-.76-1.63-.23-3.26-.73-4.85-1.37-4.64-1.68-9.11-3.79-13.46-6.11-1.49-.84-2.76-1.83-4.28-2.73-1.21-.71-2.58-1.47-3.54-2.54-1.65-1.18-3.34-2.31-4.92-3.6l-2.4-1.88-2.31-1.99-1.45-1.26-1.38-1.34c-.48-.47-.8-.97-.91-1.4-.27-.58-.82-.49-.24-1.57,0-.19,1-.33,1.23-.24,1.6.66,2.25,1.84,3.91,2.92,1.15.72,2.38,1.95,3.53,2.82Z"/>
  <path class="cls-2" d="M16.95,139.86c1.13.92,2.38,1.49,3.31,2.56.44.48,1.26.56,1.64,1.19.24.39.71.6.98.99.36.52.78.7,1.44.95.38.17.64.24,1.38.69.58.35.83.62,1.55.84.64.18,1.35.99,2,1.22,1.3.48,2.02,1.25,3.58,1.47.64.17,1.23.44,1.79.72.57.26,1.1.53,1.62.74,1.31.6,2.61,1.21,3.94,1.75.31.13.6.35.86.55.59.42,1.2.64,1.93.72.68.09,1.9.55,3.03,1.01,1.14.44,2.21.79,2.51.82.82.11,6.83,1.38,7.34,1.46.33.1.61.26.89.16.51.26,1.34.12,1.75.41,1.07.31,1.48.37,2.79.51,1.24.13,2.49,1.15,3.69.93,1.25.09,2.27.16,3.02.19.75,0,1.23-.03,1.41-.07.65-.16.93.16,1.58,0,.44-.11,1.09,0,1.66.09.57.07,1.06.15,1.17.03.23-.25.78-.18,1.11-.39.71-.46,1.67-.36,2.59-.19.48.09.97-.38,1.38-.24.75.27,1.58.35,2.51.26l2.95-.44,1.47-.22,1.46-.28c1.23-.26,2.49-.47,3.7-.47,1.84-.49,2.76-.62,3.49-.91.83-.52,1.83-.43,2.54-1.02.97-.82.76-.61,2.39-1.16.35.04,1.32-.1,1.53-.39.9-.16,1.65-.5,1.73-.52,1.46-.15.98-.61,2.53-.72.73-.34,1.18-.41,1.37-.89.1-.25.39-.4.79-.45.38-.05.63-.21.89-.46.55-.51,1.29-.78,2.03-1.07.73-.32,1.47-.63,2.03-1.14.81-.32,1.48-.93,2.24-1.36,1.24-.7,2.46-1.39,3.78-1.82.35-.11.89-.6,1.18-.94.49-.58,1.27-.56,1.72-1.12.53-.66,1.12-.64,1.7-.82.46-.15.9-.3,1.27-.77.53-.66,1.29-1.17,1.97-1.74.68-.6,1.63-.81,2.09-1.53.65-.99,1.9-1.46,2.45-2.48.35-.67.91-.79,1.37-1.36.89-.11,1.69-.72,2.4-1.61.74-.96,1.33-1.97,2.4-2.75.33-.25.54-.85.83-1.29.29-.43.56-.89.9-1.28.72-.8,1.66-1.22,2.25-2.18.54-.89,1.1-1.43,1.61-2.34.34-.61,1.28-1.53,1.69-2.12.94-1.31,1.05-2.79,2.29-3.7.39-.58.87-1.17.95-1.85.1-.84.47-1.56,1.11-2.22.12-.12.28-.27.32-.4.28-1.01.58-1.98,1.35-2.77.34-.81.7-1.56,1.18-2.31.47-.72.36-1.67.93-2.41.44-.6.58-1.25.69-1.93.1-.69.38-1.32.74-1.95.25-.44.51-.98.59-1.43.47-2.62,1.13-5.07,2.22-7.54.38-.93.48-1.87.69-2.91,0-.87.22-1.38.62-1.75.2-.19.14-.46,0-.78-.15-1.47.75-2.5.68-3.24-.07-1.04-.04-2.06.37-3.1.18-.42.29-1.12.22-1.51-.17-.9-.07-1.65.15-2.54.31-1.2.3-2.44-.05-3.62-.15-.47-.2-.99-.22-1.51-.03-.53-.04-1.07-.05-1.61-.04-1.38.38-2.78-.12-4.16-.05-.14-.04-.37-.02-.53.13-.97.19-1.93.09-2.87-.12-.94-.35-1.87-.73-2.77-.17-.4-.22-1.08-.22-1.54.03-1.59-.08-3.13-.84-4.56-.14-.26-.26-.71-.26-1.01.03-2.48-.9-4.86-1.66-7.21-.33-.93-.65-1.86-.95-2.79-.29-.93-.65-1.84-.91-2.79-.15-.51-.28-.99-.56-1.44-.81-1.18-1.35-2.46-1.65-3.86-.22-.86-.64-1.67-1.18-2.34-.89-1.13-1.52-2.31-1.96-3.68-.21-.63-.47-1.34-.86-1.92-.99-1.48-1.66-3.18-2.86-4.5-.6-.68-1.07-1.43-1.55-2.18-.51-.73-1.01-1.46-1.6-2.13-.68-.8-1.59-1.35-2.15-2.28-.56-.93-1.27-1.66-2.06-2.37-.68-.64-.97-1.42-1.34-2.15-.4-.79.41-1.95,1.16-1.7.05.02.47.16.52.28.3.18,2.03,1.38,3.11,2.68.59.72,1.23,1.4,1.64,2.19.35.65.75,1.19,1.34,1.63.7.53,1.36,1.26,1.79,2.04.68,1.31,1.44,2.56,2.26,3.79.77,1.26,1.54,2.52,2.31,3.78.44.81.85,1.63,1.26,2.44.16.32.24.71.43.96,2.09,3,3.5,6.49,4.98,9.86.44,1.01.74,1.67,1.23,2.63.81,1.59,1.15,3.04,1.72,5.48.01.67.15,1.42.19,2.11.03.55.11,1.07.32,1.57.46,1.18.88,2.41,1.14,3.67.27,1.27.53,2.54.83,3.8.07,1.54.31,3.34.45,4.82.12,1.48.26,2.62.34,2.81.07.92.01,1.84-.05,2.75-.06.72-.13,1.43-.19,2.16-.04.95-.02,1.84.25,2.65.27.84.3,1.73.06,2.63-.48,1.59-.64,3.15-.39,4.81.16,1.64-.05,3.25-.61,4.83-.53,1.37-.76,2.79-.65,4.26.04,1.08-.29,2.15-.73,3.17-.21.48-.52,1.06-.56,1.47-.08.95-.78,2.88-.72,3.13.06.24-.11.74-.23,1.02-.33.84-.62,1.58-.89,2.43-.27.86-.33,1.78-.63,2.65-.22.69-.51,1.55-.87,2.01-.82,1.07-.9,2.36-1.55,3.46-.28.46-.54.95-.79,1.45-.26.49-.53.99-.79,1.48-.62,1.15-1.1,2.34-1.4,3.53-.15.65-.6,1.32-1.02,1.95-.43.73-1.99,3.02-2.31,3.32-1.31,1.23-2.24,2.99-3.22,4.57-.51.77-.91,1.58-1.45,2.32-.43.57-1.02,1.04-1.5,1.58-.33.36-.43,1.04-.93,1.15-.63.14-.96.46-1.38,1.2-.49.89-.88,1.77-1.87,2.56-.67.52-1.08,1.36-1.9,1.91-.87.6-1.77,1.41-2.48,2.22-.92,1.01-2.16,1.41-2.96,2.38-.77.94-1.73,1.32-2.64,1.93-1.69,1.15-3.35,2.27-4.72,3.78-.69.73-1.49,1.35-2.33,1.92-.84.57-1.75,1.05-2.71,1.39-1.4.5-2.63,1.24-3.97,1.95-.89.5-1.79,1.01-2.7,1.47-.94.41-1.89.77-2.87,1-.58.13-.97.46-1.45.7-1.24.62-2.5,1.21-3.78,1.71-1.31.44-2.64.8-4.02,1-.83.12-1.79.43-2.66.73-.87.28-1.68.71-2.55.99-1.97.04-4.01.87-5.97.76-.4-.01-.68.03-1.03.18-.47.19-.99.45-1.5.5-1.29.13-2.56.38-3.85.58-1.29.18-2.58.23-3.87.11-1.07.2-2.13.33-3.22.42-.93.06-1.87.11-2.8.13-.93,0-1.86,0-2.78.06-.56.04-1.09.05-1.63.04-.53-.03-1.06-.08-1.62-.14-1.48-.16-2.98-.24-4.46-.46-1.48-.2-2.98-.32-4.44-.62-2.95-.49-5.88-1.12-8.75-1.93-.89-.26-1.75-.6-2.6-.94-.7-.27-1.4-.6-2.09-.67-1.44-.15-2.86-.61-4.25-1.16-4.05-1.47-7.97-3.31-11.78-5.33-1.31-.73-2.4-1.63-3.73-2.4-1.06-.61-2.26-1.28-3.08-2.24-1.45-1.03-2.92-2.02-4.3-3.15l-2.1-1.65-2.02-1.74-1.27-1.11-1.21-1.17c-.42-.41-.69-.86-.76-1.25-.21-.53-.73-.41-.13-1.46.01-.18.96-.38,1.17-.3,1.45.52,1.99,1.58,3.46,2.49,1.02.61,2.08,1.69,3.09,2.44Z"/>
  <path class="cls-2" d="M47.96,155.56c.03-.39-.32-.74-.03-1.11.13-.17-.27-.36.01-.54.18-.11.08-.24.23-.36.2-.15.15-.27,0-.46-.06-.11-.14-.18-.16-.41-.01-.18.07-.27-.11-.47-.16-.17.2-.44.08-.62-.24-.37.12-.63-.38-1.04-.27-.36-.11-.7-.14-1,.02-.39.05-.77.11-1.16.01-.09.12-.18.2-.26.19-.18.15-.35.02-.55-.25-.37.29-1.39.16-1.56-.19-.23-.2-1.89-.12-2.02.05-.09.17-.16.02-.24.17-.13-.09-.37.14-.47.13-.29.2-.39.2-.74,0-.34.89-.6.63-.94.08-.66.07-1.08,0-1.19-.15-.19.17-.23.02-.42-.2-.26.43-.65.21-.73-.24-.1-.13-.23-.32-.35-.4-.25-.28-.5,0-.71.15-.11-.26-.31-.07-.39.35-.14.53-.34.56-.59.06-.53.1-1.07.19-1.6.05-.33.08-.69.44-.93.06-.51.19-.74.14-.97-.2-.32.21-.47-.09-.79-.4-.44-.34-.36-.19-.81.17-.04.42-.24.24-.38.21-.19.19-.44.21-.45.5-.25-.11-.36.46-.6.02-.22.14-.3-.17-.51-.16-.11-.15-.2,0-.26.14-.06.12-.15.04-.27-.32-.51.45-.75.18-1.24.16-.19-.01-.49.08-.7.15-.34.21-.71.68-.92.12-.06.06-.27-.03-.42-.16-.24.3-.27.16-.5-.17-.27.22-.28.44-.37.17-.07.33-.15.2-.33-.18-.27-.02-.46,0-.69,0-.23.43-.36.26-.61-.25-.35.28-.56-.07-.91-.23-.23.1-.29.04-.49.56-.08.7-.31.64-.62-.07-.32-.3-.65-.02-.95.09-.09-.11-.27-.16-.41-.05-.14-.11-.28-.1-.41.04-.27.54-.45.45-.75-.08-.28.02-.46-.07-.74-.06-.19.2-.5.22-.68.03-.42-.58-.8-.03-1.14.01-.18.15-.37-.1-.55-.32-.23-.34-.44-.09-.65.04-.04.11-.09.09-.13-.19-.28-.35-.55-.02-.81-.06-.23-.04-.45.11-.68.14-.22-.33-.46-.11-.69.18-.18.1-.36-.05-.54-.15-.19-.11-.37,0-.56.08-.13.18-.28.11-.41-.4-.72-.4-1.42.07-2.11.18-.26.08-.52.06-.81-.19-.24-.03-.38.29-.48.17-.05.06-.13-.13-.22-.37-.42.34-.68.21-.89-.18-.29-.26-.58.05-.85.13-.11.22-.29.13-.41-.21-.26-.15-.46.02-.69.23-.31.29-.64-.07-1.01-.28-.3-.21-.6-.16-.89.07-.39.52-.7.22-1.15-.03-.04,0-.11.04-.14.49-.46.65-.95.24-1.58-.09-.14-.04-.33.08-.43.42-.36.6-.75.31-1.28-.06-.1-.04-.23.04-.29.69-.52.66-1.25.82-1.92.14-.53.3-1.06.63-1.51.09-.12.19-.23.14-.4-.12-.46.05-.81.46-1.06.25-.16.34-.39.26-.67-.14-.48.03-.81.46-1.05.2-.11.36-.26.42-.44.17-.46.62-.78.64-1.3.03-.53.53-.81.63-1.3.06-.28-.13-.68.18-.86.3-.17.32-.47.38-.76.06-.25.44-.29.73-.37.32-.09,1.58.49,1.83.83.02.02.16.21.1.21.06.13.17.77-.04,1.14-.12.2-.18.43-.46.54-.23.09-.3.25-.2.49.12.29.08.55-.13.69-.7.48-.91,1.21-1.27,1.87-.11.21-.24.4-.37.6-.05.08-.2.12-.2.21.07,1.02-.5,1.8-.62,2.74-.03.28-.1.45-.02.75.14.51-.19.78-.42,1.35-.21.1-.33.27-.51.39-.15.1-.2.22-.15.37.23.71-.02,1.31.03,1.97-.35.69-.45,1.74-.34,1.85-.05.22-.16.43-.27.64-.09.17-.24.33-.32.5-.11.22-.06.46.19.69.26.24.29.46.05.66-.41.36-.48.76-.14,1.2.33.43.27.83-.08,1.22-.3.34-.32.71.04,1.09.26.28.17.55-.05.82-.1.12-.29.28-.22.39.18.25,0,.76.12.82.12.06.08.19.06.27-.06.23-.1.43-.1.66,0,.23.23.47.28.7.04.19.08.42-.1.55-.42.32.08.65-.09.97-.14.27-.17.56-.2.85-.03.34.01.67.35,1,.18.18.11.38.05.58-.07.21-.17.93-.29,1.03-.52.42-.23.96-.19,1.45.02.24.2.5.2.74,0,.19-.21.36-.25.55-.03.13.32.33,0,.4-.4.09-.45.2-.33.44.15.29.47.58.25.89-.15.2.05.48-.15.71-.21.25-.31.56-.27.86.06.39-.5.6-.38.96.11.36-.19.56-.35.82-.31.48-.45,1-.2,1.62.25.62.11,1.15-.38,1.54-.36.28-.5.62-.57,1.01-.1.52-.15,1.06-.68,1.4-.16.1-.08.26-.08.4,0,.73-.08,1.41-.75,1.91-.2.15-.21.41-.22.64-.02.23.07.48.12.71-.51.36-.32.95-.82,1.32-.1.08-.12.15-.06.25.09.14.2.31.16.43-.18.62.11,1.32-.44,1.88.05.28.14.56.15.84.02.47-.09.93.02,1.4.07.29.04.54-.03.81-.17.73-.2,1.48-.27,2.23l-.2,2.23c-.02.23-.13.45-.24.68-.09.18-.16.37-.02.55.29.37.28.74.28,1.12,0,1.07.02,2.15.09,3.22.02.37-.27.71-.18,1.1.07.31.1.64-.19.95l.05,2.66v.84c0,.15-.14.28-.37.37-.23.14.21.2-.96.31-.14.03-.94-.08-1.03-.13-.62-.35-.28-.66-.58-1.1-.2-.31-.12-.71-.18-1.04Z"/>
  <path class="cls-2" d="M75.38,87.26c.14.37.61.53.54,1-.03.22.41.19.26.49-.09.19.06.26,0,.44-.09.24.02.32.25.4.11.07.22.08.37.27.11.15.1.27.36.34.23.06.1.49.31.57.42.17.29.6.94.65.44.13.53.52.75.75.23.33.46.67.67,1.02.05.08.03.22.01.34-.03.27.12.39.35.47.44.15.72,1.34.93,1.4.3.07,1.44,1.48,1.46,1.66.02.11-.03.24.14.23-.05.22.32.27.2.5.08.34.09.47.32.79.22.31-.35,1.07.07,1.23.33.65.58,1.04.71,1.09.23.1-.01.31.22.4.32.14,0,.83.24.8.25-.04.23.15.46.16.48.03.52.32.39.66-.07.18.39.15.27.33-.22.32-.26.59-.16.83.24.52.49,1.04.71,1.56.14.33.31.66.14,1.08.24.49.26.76.43.93.35.16.1.53.53.63.59.14.48.1.63.57-.12.14-.19.45.03.46-.05.29.12.47.11.5-.23.51.31.23.01.78.12.19.08.34.45.31.19-.02.25.06.17.2-.07.13,0,.19.15.24.57.2.15.89.68,1.1,0,.26.34.37.42.6.12.37.33.69.15,1.18-.05.13.15.25.31.3.29.08-.01.42.25.49.31.09.04.37-.05.6-.07.18-.14.35.1.41.32.08.35.35.51.54.16.19-.06.6.26.67.43.11.22.64.72.68.32.03.14.31.32.43-.35.46-.27.74,0,.94.28.21.69.32.7.76,0,.14.28.15.42.23.13.08.29.15.37.27.17.25-.08.73.2.92.26.18.33.39.59.57.18.12.2.55.32.71.27.37,1.01.3.82.94.12.16.14.41.46.4.4-.01.57.16.53.5,0,.06-.02.15.02.16.34.12.65.26.57.69.21.16.34.36.38.65.03.28.57.2.55.54-.02.27.16.37.4.45.24.08.33.26.37.49.02.16.04.36.18.43.79.41,1.25,1.04,1.29,1.95.01.34.26.52.45.77.31.12.26.34.04.61-.11.14.02.15.24.13.56.18.13.81.35.94.31.18.55.41.44.83-.04.17-.02.39.13.45.33.14.39.36.36.67-.03.41.1.75.6.92.4.14.49.46.61.76.15.39-.08.91.4,1.18.05.03.05.1.04.15-.19.68-.06,1.2.62,1.56.15.08.2.27.16.43-.16.54-.11.98.43,1.28.1.05.16.17.12.28-.29.83.16,1.44.43,2.1.21.53.4,1.05.42,1.63,0,.16,0,.31.14.42.39.29.47.69.33,1.15-.09.29,0,.54.25.71.42.28.51.66.36,1.14-.07.22-.09.45-.02.63.19.47.09,1.04.43,1.46.35.42.19,1,.47,1.45.16.26.58.42.49.78-.04.15-.02.28.02.39l-3.25.55c0-.17-.07-.34-.11-.52-.07-.27.25-.49.47-.71.24-.25,1.63-.34,2.01-.14.02.01.24.12.19.15.11.09.52.65.5,1.12v.06s-2.71.46-2.71.46c-.07-.23-.17-.44-.06-.71.09-.24.03-.42-.22-.54-.3-.15-.45-.38-.41-.65.14-.89-.21-1.64-.41-2.43-.06-.25-.1-.5-.14-.75-.01-.1.07-.24,0-.31-.76-.81-.84-1.87-1.35-2.77-.15-.27-.21-.46-.47-.69-.43-.37-.35-.82-.5-1.5.11-.22.1-.44.18-.67.07-.18.03-.32-.1-.44-.6-.53-.74-1.24-1.15-1.84-.07-.86-.56-1.89-.7-1.94-.07-.24-.09-.49-.1-.75-.01-.2.03-.42.01-.63-.02-.27-.19-.46-.53-.55-.35-.09-.49-.28-.4-.59.16-.54.02-.94-.52-1.16-.53-.21-.67-.6-.6-1.13.06-.46-.14-.8-.65-.94-.38-.1-.47-.38-.45-.74.01-.17.08-.41-.05-.46-.29-.12-.46-.66-.59-.64-.14.02-.18-.12-.21-.2-.09-.23-.18-.42-.32-.62-.15-.19-.48-.26-.66-.43-.14-.13-.32-.31-.27-.52.13-.52-.48-.5-.55-.86-.06-.31-.23-.57-.4-.82-.2-.3-.45-.54-.93-.6-.26-.03-.34-.24-.42-.44-.09-.22-.5-.86-.47-1.02.11-.67-.48-.92-.85-1.29-.18-.18-.5-.26-.66-.46-.13-.15-.09-.43-.19-.61-.07-.12-.46-.05-.28-.31.23-.34.19-.46-.07-.57-.31-.12-.76-.13-.81-.52-.03-.26-.37-.34-.39-.65-.02-.34-.17-.65-.42-.85-.31-.27-.07-.81-.42-1.01-.34-.2-.26-.57-.33-.89-.13-.59-.41-1.09-1.05-1.41-.64-.31-.92-.86-.85-1.53.06-.49-.08-.87-.3-1.25-.28-.51-.63-1.01-.45-1.68.05-.19-.12-.28-.21-.41-.49-.65-.87-1.33-.65-2.21.06-.27-.09-.51-.21-.73-.13-.22-.35-.41-.52-.61.21-.64-.29-1.08-.08-1.71.04-.13.02-.2-.09-.27-.15-.09-.34-.18-.38-.31-.18-.68-.81-1.19-.64-1.99-.19-.23-.43-.44-.59-.69-.26-.42-.43-.89-.78-1.25-.22-.22-.33-.45-.43-.72-.27-.72-.69-1.36-1.09-2.01-.41-.66-.85-1.3-1.29-1.96-.14-.21-.2-.46-.27-.71-.06-.21-.13-.41-.36-.47-.48-.13-.72-.45-.98-.76l-2.27-2.81c-.27-.33-.25-.83-.57-1.15-.26-.25-.49-.58-.43-1.04-.54-.88-1.05-1.81-1.48-2.8-.14-.31-.27-.62-.37-.95-.06-.17.02-.37.21-.54.17-.22-.28-.16.8-.63.12-.07.93-.19,1.03-.17.71.15.47.56.93.88.31.21.38.62.59.9Z"/>
  <path class="cls-2" d="M88.35,77.04c.31.22.79.11.96.55.08.2.43-.05.45.28.01.2.18.18.21.37.04.25.18.26.41.2.12,0,.22-.05.44.04.17.07.22.18.47.1.22-.06.32.36.53.32.44-.08.53.35,1.1.04.42-.12.68.15.97.21.36.14.7.29,1.04.47.08.04.13.17.18.28.11.23.3.24.52.17.42-.14,1.26.64,1.46.55.27-.12,1.89.22,2.01.32.08.07.12.19.23.07.1.2.38-.02.44.23.26.18.35.27.7.33.33.06.46.98.84.78.66.18,1.08.24,1.2.17.21-.12.21.2.42.08.29-.17.6.51.72.3.12-.22.25-.1.39-.27.3-.37.53-.22.71.08.09.16.34-.23.4-.03.11.36.29.56.54.61.53.11,1.07.19,1.61.31.34.08.69.12.92.5.52.08.74.22.98.18.33-.19.47.22.8-.06.46-.4.36-.33.82-.18.04.17.25.42.39.25.2.21.45.19.46.22.26.5.37-.1.62.47.23.03.32.15.53-.16.11-.16.21-.15.27,0,.06.14.15.12.28.05.53-.3.78.48,1.31.24.2.16.53.02.75.14.37.19.77.29.98.78.05.13.29.09.46.02.28-.12.28.34.54.24.31-.12.29.27.35.51.06.19.11.36.33.28.31-.12.51.09.75.16.25.08.3.53.6.43.43-.13.53.43.99.22.3-.14.28.2.5.22-.08.57.12.78.45.83.35.05.77-.03.96.36.06.12.32,0,.48.02.16.01.33.01.45.09.26.16.24.7.56.75.3.05.45.22.75.27.2.03.39.42.56.52.38.22,1.02-.13,1.09.52.16.1.28.31.56.18.36-.17.57-.09.65.24.02.06.03.14.08.14.35-.03.67-.03.75.39.24.06.44.18.57.43.13.23.57-.07.68.24.08.25.28.26.51.22.24-.04.39.07.51.25.08.13.17.29.32.28.84-.03,1.47.27,1.89.99.16.27.44.29.7.41.3-.07.36.13.31.47-.02.17.09.11.25-.03.53-.17.48.59.72.56.33-.04.62,0,.75.39.05.16.18.32.32.28.32-.1.48.03.63.27.2.33.49.48.95.27.36-.18.61-.01.86.11.32.16.49.67.97.49.05-.02.09.02.12.07.29.57.74.81,1.37.48.14-.07.3,0,.37.13.26.44.61.66,1.1.35.09-.05.2-.04.25.04.44.68,1.11.58,1.72.63.49.05,1,.1,1.5.32.13.06.26.13.41.04.41-.23.79-.15,1.14.17.22.2.48.23.74.07.44-.26.83-.18,1.2.18.17.17.37.29.57.32.53.07.99.45,1.57.42.6-.03,1.02.47,1.59.6.33.08.81-.08,1.03.29.22.34.55.45.89.62.31.14.28.59.31.92.04.37-.94,1.35-1.33,1.5-.03,0-.24.1-.23.04-.14.01-.72.02-.99-.2-.16-.12-.35-.18-.42-.45-.06-.22-.22-.28-.44-.18-.26.12-.5.13-.63-.07-.49-.62-1.25-.7-1.96-.89-.23-.06-.45-.13-.68-.21-.09-.03-.17-.16-.26-.14-.99.33-1.94-.01-2.95.07-.3.03-.5,0-.82.13-.52.22-.91-.06-1.6-.26-.15-.2-.34-.32-.5-.5-.12-.15-.26-.2-.43-.15-.79.22-1.48-.09-2.22-.16-.74-.48-1.84-.84-1.99-.78-.23-.11-.43-.29-.62-.46-.16-.14-.28-.33-.43-.47-.2-.19-.45-.22-.77-.06-.33.16-.57.1-.7-.2-.22-.53-.59-.74-1.14-.62-.55.12-.91-.12-1.15-.61-.21-.43-.55-.61-1.07-.46-.38.11-.61-.1-.77-.42-.08-.15-.14-.39-.27-.37-.31.04-.72-.36-.83-.28-.11.08-.22-.02-.28-.08-.19-.16-.36-.29-.58-.39-.22-.11-.55-.02-.79-.08-.19-.05-.43-.14-.47-.36-.1-.52-.64-.25-.85-.55-.18-.25-.43-.43-.68-.59-.29-.19-.61-.31-1.07-.17-.25.08-.4-.08-.54-.23-.16-.16-.76-.58-.79-.74-.14-.65-.76-.63-1.22-.81-.23-.09-.53-.02-.75-.13-.17-.08-.23-.34-.39-.45-.1-.08-.42.16-.36-.15.08-.4,0-.49-.27-.46-.32.04-.7.24-.89-.08-.13-.21-.45-.11-.59-.36-.15-.27-.41-.46-.69-.5-.36-.05-.41-.62-.78-.6-.35.02-.46-.3-.67-.52-.38-.39-.86-.62-1.49-.43-.62.18-1.1.01-1.43-.49-.25-.37-.57-.54-.95-.62-.51-.11-1.05-.17-1.39-.72-.1-.16-.26-.09-.41-.09-.76,0-1.45-.1-1.99-.78-.16-.2-.43-.22-.68-.24-.24-.02-.51.05-.76.08-.37-.54-1-.37-1.38-.9-.08-.11-.15-.14-.26-.08-.16.08-.33.18-.46.13-.64-.24-1.41-.01-1.95-.63-.3.02-.61.08-.9.05-.5-.04-.97-.22-1.48-.18-.31.02-.57-.05-.85-.16-.74-.28-1.53-.45-2.3-.67-.77-.21-1.55-.45-2.31-.7-.24-.08-.45-.25-.65-.41-.17-.14-.35-.26-.57-.18-.47.17-.85.06-1.25-.07-1.13-.36-2.26-.74-3.39-1.16-.4-.13-.62-.57-1.05-.68-.34-.09-.7-.24-.87-.65-.88-.47-1.75-.96-2.59-1.52-.26-.18-.52-.36-.77-.56-.13-.1-.17-.3-.1-.54.02-.27-.31.03.33-.95.06-.13.66-.68.75-.72.67-.28.7.17,1.24.19.36,0,.63.33.95.43Z"/>
  <path class="cls-2" d="M98.65,58.17c.33-.04.55-.44.92-.22.17.1.24-.33.45-.08.13.15.22.03.35.16.17.17.26.09.38-.09.08-.08.11-.17.3-.23.14-.05.24.01.36-.2.11-.19.4.1.53-.05.25-.31.54-.01.76-.58.23-.34.54-.25.78-.35.32-.07.64-.12.96-.15.08,0,.17.07.26.14.19.14.33.07.45-.11.23-.33,1.19-.06,1.29-.23.14-.23,1.45-.68,1.58-.64.08.03.17.12.2-.04.15.13.27-.18.42,0,.27.05.37.08.65-.02.27-.1.74.68.94.34.55-.12.88-.25.94-.36.1-.2.23.09.34-.11.14-.27.64.21.64-.03,0-.25.14-.19.17-.41.07-.45.29-.42.55-.22.13.1.15-.35.28-.19.23.28.44.38.64.32.43-.13.85-.28,1.29-.39.28-.07.55-.18.87.06.41-.14.63-.11.79-.24.17-.31.44,0,.57-.39.19-.54.14-.45.55-.49.1.14.35.28.39.07.23.11.41,0,.43.02.38.36.25-.24.64.19.18-.06.29.01.35-.35.03-.19.11-.22.21-.1.1.11.16.05.24-.07.32-.48.77.14,1.1-.27.21.08.42-.18.63-.16.34.03.68-.03.99.36.08.1.25-.02.36-.15.18-.22.31.21.48.01.2-.23.3.14.42.33.1.15.2.29.34.12.2-.24.4-.12.6-.15.21-.04.39.36.58.14.27-.3.53.16.79-.23.17-.26.27.06.43-.03.14.54.35.64.61.54.27-.12.53-.38.81-.14.09.08.22-.15.33-.21.11-.07.23-.15.34-.15.23,0,.43.48.67.36.22-.11.39-.05.6-.16.14-.08.43.14.58.13.34-.03.56-.68.91-.18.15-.01.32.09.42-.18.13-.35.28-.41.5-.2.04.04.09.09.12.06.18-.23.36-.44.63-.16.17-.1.34-.13.55-.03.2.1.28-.42.51-.24.18.14.3.02.41-.16.11-.18.26-.19.43-.13.12.04.27.11.34.01.45-.55.96-.73,1.64-.47.25.1.42-.07.63-.16.12-.25.28-.14.46.14.09.14.12.02.12-.19.19-.47.63.11.74-.07.16-.26.35-.42.66-.22.13.08.3.11.35-.02.12-.29.29-.3.53-.21.32.11.59.04.71-.42.1-.37.35-.41.58-.47.3-.09.71.19.9-.25.02-.04.07-.04.12-.02.54.26.95.17,1.18-.46.05-.14.2-.18.33-.12.44.19.79.17.98-.34.03-.09.13-.14.21-.1.69.32,1.14-.09,1.64-.32.4-.18.81-.35,1.27-.35.13,0,.25.01.32-.13.2-.37.5-.44.89-.29.25.1.43.02.54-.22.18-.41.47-.48.87-.32.18.07.37.1.51.03.36-.18.83-.07,1.12-.4.3-.33.78-.17,1.1-.44.19-.16.26-.56.56-.47.29.09.46-.11.65-.27.17-.14.45.09.7.22.27.15.87,1.4.88,1.81,0,.03,0,.25-.04.22-.03.13-.28.67-.63.8-.19.07-.37.19-.62.08-.21-.09-.35-.03-.41.21-.08.29-.25.44-.48.39-.75-.14-1.31.2-1.94.38-.19.06-.4.09-.6.13-.08.01-.2-.07-.25,0-.58.72-1.44.78-2.12,1.25-.21.14-.36.19-.52.43-.26.41-.64.31-1.18.44-.19-.11-.37-.12-.56-.21-.15-.07-.27-.05-.35.08-.38.57-.96.67-1.43,1.03-.7.02-1.55.41-1.59.55-.2.05-.41.04-.63.03-.17,0-.35-.07-.53-.08-.22-.02-.39.12-.47.44-.08.33-.25.44-.51.3-.45-.25-.79-.17-1.02.29-.23.46-.58.53-1.02.33-.38-.17-.68-.07-.88.38-.15.33-.4.33-.69.2-.14-.06-.32-.2-.39-.09-.15.24-.63.21-.65.34-.02.13-.14.12-.21.13-.21,0-.39.02-.58.08-.19.06-.34.34-.53.44-.15.08-.34.17-.5.04-.37-.33-.54.23-.86.13-.27-.08-.52-.05-.78-.02-.3.04-.58.14-.81.53-.13.21-.32.18-.5.15-.2-.03-.86-.02-.96-.13-.44-.44-.87-.09-1.3.01-.21.05-.41.26-.62.29-.16.02-.33-.17-.5-.19-.11-.01-.25.35-.34.05-.11-.39-.21-.42-.4-.27-.23.19-.44.55-.71.36-.18-.12-.39.11-.6-.05-.22-.17-.49-.22-.72-.14-.3.11-.54-.38-.81-.2-.27.17-.47-.08-.69-.19-.43-.2-.86-.21-1.29.2-.42.41-.84.43-1.25.08-.3-.24-.6-.28-.9-.21-.42.08-.81.23-1.24-.14-.13-.11-.22.02-.32.08-.54.28-1.06.47-1.7.06-.19-.12-.39-.03-.57.05-.18.07-.34.25-.51.39-.47-.33-.86.07-1.34-.25-.1-.07-.16-.06-.22.04-.08.13-.17.3-.28.31-.55.05-1.02.57-1.66.25-.21.14-.41.32-.63.42-.37.17-.79.21-1.14.46-.21.15-.43.2-.67.22-.65.06-1.27.25-1.9.38-.63.14-1.26.29-1.9.41-.2.04-.41-.01-.62-.06-.17-.04-.35-.06-.46.12-.23.37-.54.45-.85.54-.9.26-1.79.52-2.68.81-.31.1-.66-.11-.97.05-.24.13-.52.22-.84,0l-1.12.26c-.39.09-.73.17-.92.23-.12.04-.19.07-.2.07-.01,0-.11-.11-.28-.27-.19-.14.12.17-.74-.62-.12-.07-.61-.71-.62-.82-.13-.72.4-.65.71-1.07.24-.31.66-.31.93-.44Z"/>
  <g>
    <path class="cls-1" d="M16.14,131.23c.93,2.15,3.01,3.55,5.02,4.76,5.03,3.04,10.27,5.72,15.68,8,1.28.54,2.68,1.07,4.04.75,1.94-.47,3.08-2.55,3.35-4.53.27-1.98-.09-4,.09-5.99.39-4.59,3.5-8.53,4.4-13.05.45-2.27.33-4.61.33-6.93-.02-6.81.96-13.62,2.9-20.14-1.58-.4-3.17.79-4,2.19s-1.15,3.05-1.88,4.52c-1.72,3.46-5.36,5.43-8.65,7.46-5.17,3.19-9.95,7.02-14.19,11.37-2.75,2.82-9.14,6.83-7.07,11.6Z"/>
    <path class="cls-1" d="M19.55,133.67c.52.44,1.24.49,1.65,1.09.19.28.7.11.84.53.09.26.35.3.46.55.15.32.37.39.73.42.2.05.35.04.73.24.3.15.41.31.81.33.35.01.62.57.97.62.71.1.97.65,1.86.55.7.05,1.19.48,1.7.69.63.32,1.25.66,1.87,1,.15.08.25.25.36.39.23.31.54.41.92.43.7.04,2.26,1.27,2.59,1.25.44-.01,3.3,1.07,3.42,1.14.12.09.21.23.36.12.18.22.53.02.65.26.37.16.53.23.93.14.18-.05.41.09.69.16.27.06.58.04.66-.23.75-.65.96-1.35.95-1.51-.04-.31.29-.31.22-.62-.1-.4.6-1,.39-1.15-.23-.14-.11-.36-.31-.53-.4-.35-.3-.75-.06-1.18.13-.23-.31-.46-.14-.66.31-.36.44-.77.41-1.24-.06-.99-.13-2.08.02-3.15.09-.67.2-1.37.65-1.89.22-.97.46-1.39.5-1.8-.08-.55.43-.86.25-1.4-.24-.75-.21-.59.16-1.39.21-.08.56-.46.43-.67.31-.35.39-.76.42-.79.64-.48.03-.59.73-1.07.11-.37.26-.54-.02-.82-.14-.15-.11-.3.07-.43.16-.12.16-.27.1-.45-.23-.74.58-1.33.3-2.04.15-.36-.05-.78.01-1.16.1-.63.06-1.28.46-1.91.1-.17-.02-.52-.15-.72-.22-.35.2-.66,0-1.01-.24-.4.13-.65.31-.94.15-.23.27-.46.1-.75-.24-.42-.13-.89-.17-1.34-.03-.47.36-.9.15-1.32-.29-.59.19-1.21-.18-1.79-.24-.38.08-.62.02-.99.57-.33.69-.82.63-1.4-.07-.62-.27-1.23.04-1.86.09-.2-.09-.52-.12-.79-.03-.27-.08-.55-.04-.81.02-.14.07-.26.13-.39.06-.11.14-.29.2-.27.11-.06.22-.17.18-.26-.09-.14,0-.29-.09-.36-.08-.01.24-.44.27-.58.04-.23-.42.27-.34.11.03-.07.12-.22.32-.57.02-.09.24-.54-.15.08-.5.8-.58.98-.16.16.07-.15.19-.38.15-.31-.13.23-.25.46-.37.67-.04.07.04-.07.25-.68-.21.29-.23.27-.16-.22.03-.23-.11.12-.22.42-.11.3-.17.55-.12.21.07-.54-.06-.17-.14.35-.08.52-.07.44-.08.19,0-.18-.02-.37-.04-.15-.07,1.26.14.83-.19.58-.07-.05-.1-.01-.11.03v.03s.02-.01-.03.08c-.07.13-.14.28-.23.41-.14.53-.46.71-.87.69-.21,0-.22.17-.18.43-.27.89-1.24.86-1.44,1.21-.29.52-.68.96-1.31,1.09-.26.05-.6.21-.71.41-.25.47-.6.65-1.08.78-.64.17-1.18.5-1.48,1.14-.24.52-.74.77-1.19,1.05-.58.35-1.36.37-1.74,1.05-.04.07-.14.11-.22.13-1,.17-1.8.65-2.25,1.62-.1.21-.38.39-.61.45-.81.19-1.46.56-1.81,1.36-.06.15-.23.3-.38.34-1.26.31-2.06,1.28-2.93,2.11-.7.66-1.4,1.31-2.2,1.85-.22.15-.43.27-.54.53-.3.67-.81,1.12-1.48,1.41-.47.21-.82.56-1.02.98-.34.73-.87,1.15-1.59,1.39-.33.11-.66.28-.9.52-.59.61-1.42,1-1.8,1.73-.38.73-1.13,1.14-1.36,1.85-.08.2-.07.43-.07.63,0,.2-.05.38-.17.53-.29.31-.19.67-.11.98.05.14,0,.27-.08.42-.07.15-.14.31-.21.49-.14.35-1.35,1.11-1.83.87-.03-.01-.3-.16-.28-.24-.07-.08-.36-.35-.5-.81-.08-.22-.17-.48-.23-.75-.02-.27-.03-.55,0-.81,0-.29.09-.56.16-.83.08-.27.18-.53.38-.72.31-.33.44-.67.47-1.1,0-.54.27-1.03.65-1.35,1.26-1.01,2.25-2.09,3.37-3.04.35-.29.71-.56,1.07-.82.14-.1.36-.13.45-.26.52-.76,1.08-1.35,1.69-1.99.62-.66,1.28-1.29,1.87-1.98.35-.42.62-.65.89-1.14.45-.8,1.14-1.12,2.12-1.86.36-.07.68-.27,1.03-.36.28-.08.49-.23.64-.46.71-1.09,1.8-1.8,2.71-2.7,1.34-.72,3-1.95,3.1-2.14.39-.23.81-.41,1.23-.58.34-.14.69-.22,1.02-.35.44-.17.77-.46.95-.9.19-.46.51-.72.99-.77.83-.09,1.48-.48,1.85-1.22.37-.73.91-1.12,1.64-1.38.64-.22,1.08-.72,1.11-1.42.03-.27.07-.41.24-.67.27-.38.5-.82.76-1.16.26-.32.55-.65.63-1.06.09-.5.33-1.12.54-1.54.21-.44.39-.73.4-.9.03-.34.21-.54.31-.64.29-.32.51-.56.77-.89.26-.33.53-.97.86-1.29.25-.26.62-.53.81-.42.44.23,1.11-.62,1.71-.52.5.06,1.09.11,1.7.25.07.02.23.03.22.06,0,.02.02.04.03.06.02.04.05.06.09.07.08.01.18-.05.44-.28.28-.25.35-.15.46.01.15.14.46.36.66.63-.2.62-.3.9-.37,1.06-.66,1.46-.92,2.32-1.1,3.16-.21.86-.24,1.55-.38,2.36-.15.8-.04,1.47-.19,2.33-.05.33-.16.67-.26,1l-.15.49c-.03.13-.07.25-.1.37-.05.22.27.54-.05.69-.41.19-.48.4-.37.8.13.49.45.95.2,1.5-.16.38.05.81-.15,1.24-.2.47-.29,1.03-.22,1.53.09.63-.43,1.17-.26,1.76.16.56-.09,1.01-.2,1.52-.2.95-.19,1.9.25,2.85.43.94.46,1.99.07,3.02-.29.74-.39,1.49-.46,2.3-.12,1.09-.29,2.25-1.01,3.07-.21.25-.18.52-.24.79-.29,1.41-.75,2.68-1.72,3.67-.3.3-.43.76-.55,1.17-.11.41-.14.84-.17,1.25-.68.68-.64,1.67-1.18,2.39-.12.15-.15.28-.08.44.09.23.2.47.17.68-.15,1.08.36,2.28-.08,3.59.1.54.23,1.11.23,1.72,0,.5-.07,1.07-.18,1.62-.12.55-.28,1.09-.44,1.64-.2.68-.56,1.26-1.09,1.81-.7.74-1.63,1.41-2.73,1.73-1.1.33-2.21.26-3.11.06-.91-.21-1.68-.52-2.37-.8-.67-.28-1.34-.57-2-.88-.41-.19-.78-.46-1.15-.73-.3-.22-.61-.43-.98-.43-.76,0-1.42-.31-2.08-.61-1.91-.87-3.8-1.78-5.68-2.71-.65-.32-1.11-.91-1.8-1.2-.56-.23-1.14-.54-1.51-1.09-1.46-.87-3.08-1.78-4.56-3.21-.46-.45-.91-.96-1.29-1.54-.2-.31-.24-.66-.12-.94.06-.38-.41-.37.59-1,.1-.1.95-.19,1.06-.15.82.28.8.86,1.54,1.25.49.24.93.76,1.44,1.06Z"/>
  </g>
  <g>
    <path class="cls-1" d="M61.36,110.67c-.13,4.22.22,8.55-1.1,12.56-.8,2.43-2.19,4.65-2.91,7.11-.75,2.55-.76,5.25-.77,7.9,0,2.87,0,5.74-.01,8.62,0,.8.01,1.64.43,2.32.56.89,1.66,1.24,2.66,1.52,5.1,1.44,10.34,2.89,15.62,2.43,3.6-.31,7.07-1.51,10.66-1.93,2.05-.24,4.15-.23,6.13-.84s3.88-2,4.36-4c.27-1.11.08-2.28-.2-3.39-2.41-9.52-10.85-16.43-14.12-25.69-1.51-4.27-1.88-8.92-3.8-13.02-2.42-5.17-7.15-9.12-8.85-14.57-.3-.95-.53-2.01-1.3-2.65-3.16-2.68-4.37,7.43-4.7,8.94-1.09,4.83-1.94,9.74-2.1,14.7Z"/>
    <path class="cls-1" d="M62.34,116.27c-.06.94.24,1.84-.14,2.73-.17.4.17.92-.18,1.33-.22.25-.17.59-.38.86-.28.34-.28.64-.24,1.12,0,.28.03.47-.12,1.03-.12.44-.28.64-.28,1.16,0,.46-.59.95-.66,1.4-.13.92-.73,1.35-.65,2.4-.07.85-.5,1.5-.65,2.12-.25.78-.45,1.57-.61,2.41-.04.2-.16.39-.27.57-.23.4-.22.8-.1,1.24.2.81-.28,3.25-.14,3.64.2.52.34,4.45.28,4.78-.04.22-.15.41,0,.58-.16.35.12.86-.1,1.15-.1.71-.16.97-.12,1.81.02.41-.19.78-.33,1.12-.15.33-.2.7.03.85.22.45.63.67,1,.82.37.14.65.18.76.17.4-.05.5.29.94.24.6-.08,1.5.78,1.7.59.21-.2.52-.02.78-.16.55-.3,1.11-.06,1.61.31.26.2.68-.15.88.08.37.42.84.67,1.41.78,1.22.22,2.44.36,3.65.47.77.06,1.55.07,2.26.38,1.16-.04,1.73-.01,2.19-.14.54-.3,1.14-.03,1.61-.46.63-.61.47-.49,1.52-.67.22.12.85.17.99-.07.58.02,1.08-.18,1.13-.17.97.19.66-.36,1.7-.11.5-.15.8-.12.96-.53.08-.21.29-.27.57-.2.26.06.44-.02.65-.17.86-.63,2.18-.14,3.08-.62.58.04,1.11-.26,1.64-.29.87-.05,1.63-.21,2.43-.02.22.05.55-.18.7-.37.25-.32.71-.07.91-.42.21-.39.58-.2.92-.24.27-.02.52-.09.59-.4.07-.44.36-.69.45-1.04.08-.32.54-.61.31-1.02-.3-.49.04-1.21-.51-1.74-.36-.33-.15-.69-.36-1.08.41-.57.3-1.18-.07-1.77-.35-.64-.91-1.15-1.02-1.97-.03-.26-.41-.48-.61-.73-.21-.25-.43-.49-.57-.77-.32-.57-.2-1.3-.65-1.84-.44-.49-.63-.93-1.07-1.41-.31-.32-.56-1.13-.82-1.5-.58-.84-1.57-1.15-1.67-2.21-.26-.37-.43-.83-.87-1.01-.56-.23-.89-.64-1.02-1.25-.02-.11-.05-.26-.12-.32-.54-.44-1.06-.88-1.17-1.65-.37-.45-.67-.91-.85-1.49-.17-.55-.88-.78-1-1.42-.08-.51-.37-.86-.72-1.19-.36-.33-.53-.78-.65-1.27-.08-.34-.17-.74-.36-1-.53-.76-1-1.56-1.28-2.43-.28-.86-.43-1.75-.44-2.66,0-.68-.26-1.25-.44-1.91-.32-.49-.26-.87,0-1.21.13-.18-.01-.31-.25-.44-.6-.78-.11-1.65-.36-2.04-.35-.55-.63-1.11-.56-1.81.02-.28-.04-.71-.22-.88-.41-.41-.54-.81-.62-1.36-.12-.72-.47-1.39-1.18-1.78-.56-.32-.89-.89-1.26-1.44-.48-.7-.66-1.63-1.49-2.15-.08-.05-.15-.18-.19-.28-.4-1.24-1.08-2.25-2.24-3.02-.25-.18-.51-.57-.59-.89-.31-1.09-.71-2.05-1.58-2.88-.15-.16-.3-.46-.32-.69-.08-.89-.3-1.88-.49-2.49-.1-.31-.22-.54-.32-.66-.09-.13-.17-.11-.21-.16.36-.61.31-.92.32-.8,0,0,.02.08.06.16l.16.27c.07.11.17.2.26.33,0,0,0,0-.02.01-.13.12-.42.52-.68.96-.15.24-.29.48-.29.81.01.84-.23,1.63-.68,2.4-.29.49-.39,1.04-.3,1.59.07.46.07.9-.01,1.34-.04.22-.1.43-.2.71-.1.27-.19.42-.32.64-.22.37-.41.81-.49,1.24-.2,1.11-.69,2.16-.69,3.29,0,1.14-.5,2.18-.52,3.31-.01.66.25,1.32,0,1.97-.26.65-.19,1.29-.17,1.95.02.58-.33,1.04-.56,1.52-.26.52-1.66.64-2.02.18-.02-.03-.22-.29-.17-.36-.11-.22-.43-1.54-.32-2.61.06-.58.08-1.18.34-1.7.22-.43.26-.86.13-1.32-.16-.56-.15-1.18.07-1.71.69-1.75.94-3.59,1.39-5.39.14-.55.31-1.13.46-1.64.05-.19.22-.4.21-.6-.05-2.32.56-4.6,1.34-7,.29-.74.47-1.19,1.05-2.07.25-.36.69-.74,1.3-.93.64-.21,1.36-.09,1.87.15.52.26.84.54,1.21.95.34.4.6.87.79,1.34.06.55.14,1.07.12,1.51-.02.36.07.64.25.91.86,1.21,1.48,2.57,2.47,3.75.8,1.63,2.47,3.65,2.7,3.78.33.47.6.98.87,1.49.21.42.38.84.58,1.27.27.55.64.99,1.15,1.29.52.32.87.8.95,1.45.17,1.12.52,2.07,1.22,2.95.7.88.95,1.92.9,3.01-.04.95.17,1.82.74,2.59.42.57.5,1.24.46,1.92-.02.32-.09.74.05.96.32.5.52,1.69.69,1.77.16.08.22.38.26.55.15.5.29.94.49,1.42.21.48.66.85.93,1.3.21.36.52.8.52,1.16,0,.88.82,1.24,1.07,1.96.21.61.58,1.19.93,1.76.42.67.91,1.28,1.61,1.67.38.21.61.65.83,1.05.24.46,1.19,1.88,1.24,2.16.22,1.16,1.19,2,1.91,2.93.35.47.83.84,1.16,1.32.25.38.32.89.54,1.3.15.28.66.42.51.81-.18.48-.08.76.31,1.16.47.48,1.03.89,1.22,1.71.12.55.53,1.02.63,1.68.1.69.25,1.5.56,2.15.37.85.07,1.8.29,2.77.21.97-.2,1.89-.65,2.7-.88,1.56-2.04,2.58-3.15,3.7-.56.56-1.26.98-2.01,1.22-.73.23-1.47.3-2.18.23-1.02-.1-1.94-.06-2.86.07-1.24.17-2.32.43-3.56.27-.36-.05-.63.13-.93.24-1.58.56-3.22,1.1-5.06.92-.55-.05-1.19.11-1.78.23-.59.12-1.17.31-1.77.45-1.29-.34-2.71-.07-3.92-.59-.24-.11-.42-.13-.67-.07-.33.07-.7.18-1.03.12-1.63-.29-3.36-.24-4.83-1.07-.68-.07-1.37-.11-2.04-.24-1.17-.23-2.22-.57-3.44-.75-.78-.15-1.64-.42-2.55-1.26-.62-.57-1.06-1.37-1.26-2.14-.19-.73-.2-1.35-.21-1.87v-2.78s0-5.52,0-5.52c0-.57.1-1.14.2-1.71.08-.47.15-.95,0-1.39-.29-.92-.25-1.89-.15-2.9.14-1.43.45-2.97.95-4.38.48-1.4,1.06-2.64,1.54-3.82.33-.81.9-1.42,1.05-2.23.13-.64.26-1.35.67-1.96.34-1.94.39-4.02.4-6.18l.03-2.07c.01-.37.16-.68.4-.88.24-.32-.19-.52.99-.68.14-.07.93.29,1.01.42.59.89.23,1.59.52,2.67.2.75.09,1.71.13,2.52Z"/>
  </g>
  <g>
    <path class="cls-1" d="M77.74,83.77c7.6,8.89,10.21,21.08,17.15,30.5,1.24,1.68,2.61,3.26,3.8,4.98,3.81,5.47,5.66,12.05,8.89,17.88,1.56,2.82,4.02,5.77,7.24,5.63,2.18-.09,4-1.58,5.66-3,4.59-3.95,9.19-7.91,13.78-11.86,1.19-1.02,2.39-2.05,3.38-3.27.84-1.02,1.52-2.16,2.29-3.24,1.52-2.14,3.39-4.08,4.46-6.48s1.11-5.53-.78-7.36c-1.27-1.23-3.1-1.61-4.8-2.08-11.19-3.11-19.91-12-30.75-16.16-6.77-2.6-14.19-3.29-20.76-6.44-2.72-1.3-6.16-5.5-9.04-5.72-4.61-.36-2.08,4.77-.5,6.62Z"/>
    <path class="cls-1" d="M82.39,88.45c.52.96,1.35,1.64,1.58,2.71.11.48.72.76.7,1.34-.02.36.24.65.25,1.01.01.48.22.75.58,1.14.18.25.34.38.64.95.23.45.28.71.67,1.13.35.36.35,1.19.67,1.59.66.81.64,1.63,1.56,2.4.66.75.92,1.67,1.32,2.39l1.34,2.85c.1.23.14.49.17.73.08.53.34.93.71,1.31.36.35.78,1.2,1.17,1.99.41.77.77,1.5.95,1.65.25.19,1.01,1.17,1.78,2.11.78.94,1.57,1.89,1.66,2.06.12.23.18.47.42.53.12.42.71.73.75,1.14.42.74.55,1.04,1.14,1.86.56.8.33,2.11,1.01,2.73.9,1.65,1.42,2.69,1.62,2.89.36.36.17.69.52,1.05.49.5.48,1.91.75,1.96.3.06.37.46.66.61.61.31.81,1,.86,1.72.02.37.57.54.53.88-.08.62.03,1.22.33,1.83.64,1.29,1.33,2.55,2.04,3.77.45.75.97,1.45,1.24,2.26.87.96,1.31,1.38,1.76,1.61.62.14.97.72,1.56.53.76-.31.55-.23,1.4-.18.15.16.7.25.8,0,.51.02.93-.3.97-.3.97-.07.49-.5,1.56-.67.41-.36.7-.49.67-.93-.02-.23.14-.39.44-.48.27-.08.41-.26.53-.52.49-1.04,1.9-1.4,2.45-2.41.55-.35.87-.97,1.38-1.38.82-.67,1.58-1.39,2.59-1.76.26-.1.59-.54.74-.85.26-.52.9-.51,1.16-.99.3-.57.81-.52,1.26-.66.35-.11.69-.23.9-.64.3-.58.89-.94,1.35-1.4.48-.47,1.22-.6,1.53-1.16.43-.79,1.42-1.04,1.69-1.85.17-.52.63-.54.89-.96.72.02,1.23-.43,1.59-1.15.39-.75.6-1.61,1.38-2.3.24-.22.33-.72.52-1.08.18-.35.36-.72.6-1.03.5-.63,1.29-.86,1.65-1.56.33-.65.69-1.05.93-1.69.17-.42.73-1.07.86-1.48.16-.47.11-.94.07-1.35-.04-.42-.03-.79.2-1.2-.02-.39.02-.84-.33-1.07-.44-.27-.6-.5-.64-.94,0-.09-.03-.19-.08-.21-.46-.19-.88-.25-1.3-.78-.49-.13-.99-.3-1.55-.6-.53-.29-1.28.04-1.91-.4-.49-.33-1-.4-1.56-.41-.55-.04-1.06-.26-1.54-.55-.34-.2-.74-.46-1.08-.54-2.06-.4-3.88-1.3-5.45-2.66-.58-.51-1.25-.77-1.96-1.16-.66-.16-.93-.5-1.05-.95-.06-.23-.28-.24-.57-.18-1.12-.22-1.5-1.27-2.03-1.44-.74-.24-1.44-.56-1.96-1.23-.21-.27-.61-.61-.9-.68-.68-.15-1.13-.48-1.61-.95-.65-.65-1.42-1.13-2.35-1.22-.75-.09-1.42-.51-2.1-.9-.86-.5-1.56-1.3-2.62-1.44-.11-.01-.25-.1-.33-.18-1.04-.97-2.28-1.55-3.72-1.53-.32,0-.76-.18-1.04-.36-.95-.67-1.98-1.08-3.19-.98-.22.02-.55-.05-.74-.17-1.56-.98-3.44-1.19-5.24-1.6-1.44-.33-2.89-.71-4.27-1.3-.38-.16-.71-.32-1.14-.36-1.11-.07-2.14-.5-3.03-1.17-.58-.43-1.16-.69-1.91-.85-1.32-.35-2.18-1.08-2.83-1.97-.3-.42-.67-.84-1.07-1.15-1.02-.78-1.87-1.8-2.93-2.13-.52-.16-.96-.35-1.27-.42-.21-.05-.5-.1-.66.08-.08.11-.07.29-.01.42.04.13.09.2,0,.3-.04.05-.05.12-.05.19,0,.08.07.27.12.39.12.28.29.55.47.83.32.48.29,1.07.41,1.6.11.54-.77,1.65-1.42,1.45-.04,0-.41-.14-.41-.24-.26-.14-1.49-1.27-1.94-2.64l-.18-.58c-.06-.25-.11-.5-.15-.75-.04-.51-.02-1.01.16-1.43.3-.68.6-1.26,1.09-1.85.16-.15.34-.3.54-.45.2-.13.45-.2.69-.28.49-.16,1.07-.08,1.56-.05,1.48.38,2.45,1.06,3.39,1.71.92.66,1.78,1.34,2.58,2.03l1.46,1.3c.19.16.32.42.52.51.59.28,1.09.5,1.65.72l1.79.69c1.2.46,2.42.89,3.69,1.17.75.17,1.25.31,2.02.35,1.28.04,2.22.52,3.94,1.01.41.28.92.47,1.36.74.35.21.71.32,1.11.33,1.86.06,3.69.68,5.54,1.13,1.04.47,2.27,1.02,3.28,1.43.99.45,1.78.77,1.94.78.6.32,1.15.71,1.71,1.08.44.3.83.67,1.25.98.56.41,1.16.67,1.8.73.66.06,1.25.34,1.69.87.79.93,1.74,1.56,2.92,1.87,1.18.3,2.12.96,2.94,1.84.72.78,1.6,1.31,2.65,1.5.77.14,1.4.58,1.96,1.15.26.26.57.63.86.7.66.16,1.85.94,2.05.89.19-.05.5.15.68.26.54.32,1.03.55,1.59.79.57.25,1.22.23,1.82.4.47.14,1.06.3,1.36.56.73.65,1.62.4,2.5.77.73.33,1.6.6,2.48,1.04,1.03.5,2.05,1.21,3.05,2.03.54.44.87,1.24,1.03,1.97.1.41.26,1.27.26,2.05.01.79-.12,1.49-.19,1.67-.33.73-.55,1.48-.8,2.26-.25.79-.51,1.52-.85,2.19-.33.66-.55,1.35-.95,1.94-.31.45-.78.77-1.12,1.17-.23.27-.2.82-.61.86-.52.05-.75.28-.96.83-.25.65-.26,1.33-.91,1.98-.44.43-.61,1.13-1.21,1.66-.64.57-1.34,1.26-1.86,1.9-.67.83-1.66,1.04-2.21,1.76-.52.69-1.21.96-1.86,1.4-1.22.81-2.31,1.75-3.09,3-.78,1.23-1.88,2.2-3.18,2.87-.95.49-1.74,1.13-2.52,1.88-1.05,1-2.09,2.06-3.42,2.68-.39.19-.6.52-.89.81-.75.75-1.62,1.5-2.74,2.02-1.1.53-2.53.76-3.8.39-.76-.21-1.66-.4-2.42-.72-.75-.31-1.49-.63-2.14-1.06-.96-1.36-2.23-2.52-2.65-4.01-.09-.3-.18-.49-.4-.69-.28-.27-.59-.56-.76-.9-.83-1.71-1.99-3.28-2.31-5.15-.4-.67-.82-1.32-1.18-2.01-.6-1.18-1.1-2.42-1.79-3.49-.42-.66-.73-1.28-1.05-1.97-.87-1.85-1.94-3.52-3.17-5.12-1.22-1.62-2.68-3.29-3.89-5.18-.4-.56-.66-1.2-.95-1.82-.24-.5-.47-1.02-.85-1.38-.8-.74-1.33-1.69-1.85-2.65-1.5-2.75-2.83-5.55-4.2-8.27-.47-.93-.62-1.96-1.18-2.88-.44-.74-.88-1.58-1.01-2.46-1.13-2.19-2.33-4.32-3.69-6.31-.45-.61-.86-1.25-1.32-1.84-.24-.31-.34-.66-.3-.98-.04-.43-.5-.29.26-1.22.05-.15.9-.37,1.06-.31,1.12.42,1.39,1.29,2.34,2.16.69.59,1.19,1.61,1.76,2.37Z"/>
  </g>
  <g>
    <path class="cls-1" d="M93.44,63.64c-1.23.07-2.5.15-3.59.7-2.3,1.17-3.1,4.55-1.56,6.63.77,1.04,1.96,1.69,3.1,2.31,4.72,2.53,9.59,5.03,14.88,5.82,3.8.57,7.74.24,11.4,1.4,2.31.73,4.4,2.03,6.49,3.27,4.59,2.72,9.3,5.24,14.12,7.52,2.9,1.38,6.3,2.68,9.23,1.36,2.03-.92,3.36-2.95,4-5.08.64-2.13.69-4.38.81-6.6.24-4.3.77-8.57,1.59-12.8.4-2.08.88-4.2.64-6.31-.25-2.11-1.38-4.25-3.33-5.08-3.23-1.35-6.58,1.3-9.83,2.6-5.04,2.02-7.98,1.34-13.4,1.05-5.42-.29-12.54-.14-17.67,1.61s-11.64,1.3-16.87,1.59Z"/>
    <path class="cls-1" d="M89.29,66.16c-.45.59-.36,1.3-.71,1.92-.18.32.26.64.02.99-.13.24.02.45-.04.71-.07.35.1.56.43.74.18.13.31.18.66.47.28.22.39.41.84.48.38.06.73.66,1.17.75.88.18,1.27.79,2.33.78.86.13,1.5.63,2.15.9l2.4,1.19c.19.09.34.27.49.42.33.33.72.45,1.18.47.84.08,2.96,1.24,3.36,1.18.26-.03,1.3.15,2.31.27,1,.13,2.01.2,2.16.25.2.06.38.19.55.05.32.19.83-.06,1.11.18.69.15.94.22,1.79.23.81.01,1.6.94,2.38.73,1.62.17,2.65.37,2.9.33.46-.07.57.28,1.03.24.66-.06,1.54.91,1.75.76.24-.17.54.06.83-.02.62-.18,1.18.19,1.59.7.21.26.72.05.86.33.25.51.63.91,1.15,1.2l3.29,1.79c.69.38,1.42.73,1.92,1.35,1.07.52,1.55.86,2.03,1,.65.04,1,.63,1.64.55.88-.11.7-.11,1.66.4.11.23.57.66.83.56.45.38.95.53.99.57.63.75.74.13,1.37.96.47.18.69.38,1.05.15.19-.12.38-.05.55.16.15.2.34.23.58.21.96-.07,1.69.91,2.59.74.44.23.96.07,1.39.16.72.13,1.33.07,2,.33.18.07.48-.14.6-.34.2-.3.62-.06.79-.4.16-.38.53-.23.87-.29.26-.05.52-.14.58-.48.07-.47.41-.8.59-1.24.18-.43.72-.73.64-1.23-.11-.67.49-1.26.19-1.95-.2-.44.15-.68.1-1.12.58-.37.72-.98.64-1.69-.08-.75-.32-1.5-.03-2.33.09-.26-.11-.65-.15-.99-.04-.34-.1-.68-.07-1.02.06-.7.59-1.25.55-1.97-.04-.68.09-1.16.05-1.84-.02-.46.32-1.26.38-1.72.14-1.03-.36-1.97.32-2.8.08-.45.28-.9.1-1.35-.23-.56-.17-1.09.17-1.6.06-.09.15-.21.14-.3-.08-.67-.15-1.28.25-1.84,0-.51.04-.97.2-1.45.15-.47-.36-.88-.2-1.34.13-.36-.04-.67-.27-.93-.24-.26-.32-.54-.38-.87-.04-.23-.1-.5-.27-.61-.51-.32-.91-.49-1.26-.64-.39-.15-.74-.33-1.31-.51-.44-.12-.87.08-1.38.28-.36.34-.68.31-1.04.12-.18-.1-.28.06-.35.31-.59.71-1.55.43-1.9.76-.49.47-1.08.87-1.88.91-.33.02-.8.12-1.01.31-.48.44-1.01.57-1.65.6-.87.05-1.69.2-2.45.73-.62.41-1.44.46-2.19.47-.99.03-1.91-.4-2.86-.09-.09.03-.24,0-.35-.04-1.23-.49-2.41-.64-3.63-.18-.27.1-.69.06-.97-.04-.96-.37-1.91-.5-2.89-.08-.18.08-.46.09-.65.02-1.5-.54-3.08-.26-4.59-.11-1.21.12-2.4.26-3.6.27-.32,0-.63,0-.93.15-.79.43-1.6.54-2.46.49-.56-.05-1.03.13-1.5.46-.85.61-1.81.81-2.81.7-.46-.04-.97-.07-1.43.02-1.18.2-2.37.03-3.51.3-1.16.27-2.31-.02-3.45.14-.67.09-1.3.45-2,.27-.69-.18-1.32-.04-1.99.05-.58.08-1.08-.23-1.57-.42-.54-.22-.78-1.59-.36-1.99.03-.03.27-.25.34-.2.21-.13,1.48-.57,2.52-.57.57,0,1.15-.06,1.69.13.45.16.86.14,1.29-.07.51-.25,1.1-.34,1.64-.24,1.78.34,3.58.12,5.32-.1l1.62-.2c.21-.03.46.03.63-.05.51-.23.95-.47,1.5-.68.55-.23,1.12-.41,1.7-.56,1.15-.3,2.31-.51,3.46-.78.69-.15,1.14-.21,1.8-.45,1.09-.4,2.04-.26,3.61-.26.42.15.89.2,1.32.34.34.11.67.12,1.01.03,1.57-.42,3.22-.29,4.83-.39,1.92.32,4.48.41,4.7.29.54.04,1.08.14,1.61.22.42.07.83.17,1.25.21.55.05,1.07-.09,1.47-.44.42-.36.87-.51,1.41-.42.96.14,1.89-.15,2.6-.85.68-.69,1.53-1.08,2.6-1.26.93-.15,1.74-.56,2.54-1.25.59-.51,1.43-.69,2.3-.58.41.05.91.2,1.23.15.38-.08.99,0,1.51.15.51.15.94.35,1.05.34.22-.04.6.23.79.39.6.47,1.03.95,1.47,1.5.44.55.99,1.03,1.33,1.67.27.5.52,1.16.45,1.62-.18,1.04.38,1.86.22,2.77-.14.75-.24,1.51-.35,2.23-.14.84-.23,1.65-.02,2.43.11.42-.03.88-.16,1.31-.15.48-.47,2.11-.62,2.34-.64.96-.47,2.2-.51,3.31-.02.55.13,1.1.1,1.65-.03.43-.25.84-.31,1.27-.04.29.3.67-.03.89-.41.28-.47.55-.34,1.06.15.61.48,1.16.27,1.91-.14.5.07,1.07-.12,1.68-.21.65-.32,1.43-.32,2.16,0,.93-.65,1.65-.71,2.53-.08.88-.59,1.47-1.04,2.11-.87,1.22-1.76,2.35-2.85,3.6-1.09,1.28-3.04,1.82-4.59,1.44-1.09-.23-2.08-.44-3.16-.67-1.38-.3-2.72-.73-3.7-1.62-.29-.26-.62-.28-.94-.38-1.65-.53-3.23-1.18-4.52-2.4-.39-.37-.97-.6-1.49-.83-.52-.22-1.08-.36-1.62-.53-.85-.93-2.18-1.29-3.01-2.24-.17-.19-.32-.29-.56-.33-.32-.05-.69-.1-.96-.27-1.36-.85-2.95-1.36-4.03-2.49l-1.79-.61c-.99-.37-1.93-.76-2.93-.83-.61-.04-1.15-.14-1.77-.26-1.65-.32-3.45-.33-5.32-.46-1.86-.12-3.88-.35-5.76-.87-.59-.15-1.14-.41-1.67-.67-.44-.22-.89-.43-1.35-.43-.97,0-1.86-.35-2.75-.7-2.55-1.03-4.96-2.23-7.34-3.39-.84-.42-1.59-1.13-2.6-1.88-.41-.31-.83-.69-1.16-1.2-.34-.53-.58-1.12-.61-1.69-.53-1.54-.43-3.13.1-4.57.51-1.43,1.6-2.77,3.1-3.52.9-.44,1.8-.63,2.61-.72.43-.05.78.07,1.01.29.36.21.51-.24.77.92.08.13-.21.95-.33,1.04-.81.67-1.54.36-2.34.93-.52.37-1.09.69-1.43,1.23Z"/>
  </g>
  <g>
    <path class="cls-1" d="M111.2,23.4c-1.96,2.47-3.4,5.33-5.43,7.75-3.93,4.68-10.04,7.74-12.22,13.44-.75,1.95-.89,4.33.39,5.98,1.62,2.07,4.71,2.12,7.32,1.8,6.8-.84,13.4-2.94,20.21-3.59,3.5-.34,7.06-.29,10.48-1.08,4.32-.99,8.23-3.23,12.07-5.45,1.7-.98,3.55-2.16,4-4.06.38-1.6-.37-3.27-1.43-4.52s-2.42-2.22-3.58-3.38c-4.28-4.3-5.48-10.91-9.57-15.38-.63-.69-1.37-1.34-2.28-1.57-1.24-.31-2.51.24-3.67.78-5.33,2.47-12.57,4.55-16.31,9.28Z"/>
    <path class="cls-1" d="M109.44,27.79c-.45.63-.55,1.43-1.23,1.89-.3.21-.2.76-.66.9-.28.08-.37.36-.64.46-.36.13-.47.35-.59.74-.11.21-.13.37-.44.74-.24.3-.44.37-.58.79-.13.38-.78.51-.96.85-.37.7-1.01.8-1.28,1.71-.34.68-.97,1.02-1.39,1.44-.58.5-1.16.98-1.74,1.45-.14.11-.33.16-.51.21-.39.11-.6.38-.76.74-.32.65-1.96,1.79-2,2.14-.02.11-.14.35-.32.64-.15.3-.34.67-.53,1.03-.36.72-.62,1.45-.7,1.54-.11.13-.24.22-.14.38-.23.18-.06.59-.31.73-.2.45-.29.64-.28,1.2.02.26-.18.54-.31.84-.14.3-.2.62.02.82.37,1.03,1,1.39,1.14,1.42.31.02.23.35.56.34.39-.02.93.76,1.12.56.16-.21.39-.08.57-.24.39-.37.77-.24,1.2.02.23.13.47-.3.66-.13.35.31.78.44,1.25.38.99-.14,2.03-.36,3.04-.54.65-.13,1.3-.29,1.96-.11.97-.24,1.46-.28,1.84-.46.43-.37.99-.12,1.35-.57.5-.63.38-.51,1.29-.68.2.12.74.18.85-.06.5.04.92-.14.96-.13.83.23.56-.33,1.43-.03.41-.13.66-.09.78-.48.06-.2.23-.26.46-.18.21.07.36,0,.53-.15.67-.6,1.73-.13,2.45-.66.49.02.93-.32,1.41-.36.79-.08,1.57-.22,2.35.08.2.08.59-.08.82-.23.38-.25.76.14,1.12-.08.42-.26.71.09,1.03.25.26.13.5.25.8.06.42-.27.91-.19,1.37-.27.47-.08.95.27,1.36,0,.55-.37,1.25.01,1.73-.47.31-.31.61-.04.95-.2.45.46.97.46,1.49.21.56-.26,1.02-.68,1.71-.66.22.01.43-.31.65-.46.22-.15.43-.33.68-.42.5-.2,1.12.06,1.6-.28.44-.32.82-.42,1.25-.76.29-.22.99-.32,1.32-.5.74-.4,1.02-1.29,1.94-1.2.32-.18.73-.27.88-.67.19-.49.55-.75,1.08-.78.09,0,.22,0,.26-.06.35-.44.65-.83,1.21-.85.27-.29.55-.5.88-.64.34-.15.13-.67.43-.76.25-.1.25-.32.13-.51-.12-.19-.08-.31.01-.5.07-.13.13-.33.02-.45-.3-.35-.6-.69-.87-1.08-.26-.38-.53-.83-.84-1.43-.23-.44-.66-.67-1.1-1.02-.48-.15-.61-.46-.58-.87.01-.21-.16-.22-.42-.19-.91-.28-.89-1.32-1.27-1.52-.53-.33-1.02-.76-1.14-1.44-.05-.28-.23-.65-.43-.78-.47-.3-.69-.69-.8-1.21-.18-.7-.48-1.3-1.14-1.69-.52-.32-.77-.89-1.01-1.41-.33-.68-.29-1.52-.94-2.02-.06-.05-.1-.17-.11-.26-.08-1.08-.49-1.98-1.43-2.52-.21-.12-.36-.42-.41-.65-.14-.81-.5-1.5-1.3-1.79-.15-.05-.3-.2-.33-.35-.16-.6-.49-1-.79-1.19-.32-.19-.47-.15-.78-.11-.5.06-1.28.39-2.33.7-.29.08-.56.14-.78.36-.6.56-1.32.82-2.12.85-.5.02-.95.2-1.29.55-.58.58-1.24.82-2.04.84-.37.01-.76.08-1.08.24-.83.41-1.79.56-2.5,1.16-.71.6-1.66.75-2.32,1.36-.41.34-.58.92-1.12,1.07-.51.19-.83.58-1.12.99-.28.34-.75.39-1.16.53-.44.14-1.65-.59-1.68-1.12,0-.03-.02-.34.06-.35.02-.22.52-1.35,1.26-1.96.4-.33.78-.7,1.29-.82.42-.11.71-.32.92-.69.25-.46.67-.8,1.15-.93,1.57-.44,2.93-1.21,4.37-1.79.45-.18.91-.34,1.36-.48.18-.06.41-.02.54-.12,1.57-1.16,3.47-1.65,5.07-2.6.49-.29.86-.46,1.4-.84.45-.32.98-.49,1.63-.54.64-.04,1.47.04,2.35.45.39.35.79.68,1.03,1.06.19.3.4.52.69.68,1.28.75,2.1,2,2.99,3.09.71,1.53,1.78,3.47,1.97,3.6.2.44.34.9.48,1.36.11.36.16.74.27,1.1.14.47.42.84.86,1.08.46.23.7.6.74,1.09.07.87.46,1.58,1.21,2,.74.42,1.15,1,1.45,1.77.24.69.79,1.14,1.58,1.34.58.14.99.59,1.3,1.16.15.26.28.65.5.77.53.24,1.18,1.37,1.34,1.43.18.05.32.36.4.54.23.54.4,1.03.58,1.62.17.59.49,1.2.51,1.92.03.56-.11,1.31-.43,1.64-.71.75-.8,1.71-1.52,2.25-.59.42-1.14.83-1.68,1.19-.63.42-1.21.83-1.56,1.44-.19.33-.57.49-.94.64-.4.17-1.69.84-1.94.85-1.03.02-1.8.81-2.65,1.33-.42.26-.76.65-1.21.88-.35.18-.78.17-1.16.3-.25.09-.41.55-.73.35-.4-.25-.64-.2-1.02.1-.45.36-.82.87-1.55.89-.48.02-.91.37-1.47.34-.6-.03-1.27.04-1.83.23-.72.23-1.42-.17-2.06.09-.62.24-1.16.04-1.73-.01-1.08-.11-2.12-.04-3.09.45-.96.49-1.95.6-2.97.37-.75-.16-1.46-.09-2.2.08-1,.23-2,.54-3.06.34-.31-.06-.53.11-.79.21-1.34.5-2.68.92-4.17.73-.45-.06-.95.11-1.41.25-.46.14-.88.38-1.32.57-1.06-.2-2.12.33-3.18.09-.22-.05-.36-.03-.54.09-.24.15-.5.34-.77.37-.69.07-1.33.25-2.05.37-.71.11-1.46.15-2.19-.09-.62.09-1.27.17-1.94.11-1.16-.12-2.38-.59-3.54-1.31-.71-.45-1.23-1.06-1.61-1.82-1-2.07-.92-4.17-.46-5.96.51-1.82,1.34-3.36,2.38-4.75.32-.42.72-.79,1.12-1.1.33-.27.65-.55.81-.92.31-.79.89-1.36,1.46-1.92,1.66-1.61,3.34-3.04,4.79-4.54.5-.51,1.17-.78,1.59-1.38.32-.48.71-.95,1.28-1.24,1.02-1.33,1.94-2.86,2.96-4.42.33-.49.66-.99,1.03-1.48.19-.26.47-.39.77-.4.36-.08.11-.48,1.14.11.14.04.6.75.61.89.04.94-.57,1.2-.83,2.11-.18.62-.68,1.23-1,1.82Z"/>
  </g>
</svg>