<?xml version="1.0" encoding="UTF-8"?>
<svg id="illuer_blå_bg" xmlns="http://www.w3.org/2000/svg" viewBox="0 0 234.72 295.41">
  <defs>
    <style>
      .cls-1 {
        fill: #ff9400;
      }

      .cls-2 {
        fill: #ffe6c4;
      }
    </style>
  </defs>
  <path class="cls-2" d="M120.65,282.35c.05-2.17-.52-4.17-.03-6.25.22-.95-.45-2.01.02-3.03.29-.63.13-1.37.39-2.04.34-.87.25-1.55,0-2.57-.1-.61-.24-.99-.27-2.28-.03-1.01.11-1.54-.2-2.63-.27-.95.32-2.49.11-3.49-.42-2.05.17-3.53-.68-5.75-.47-1.95-.22-3.88-.29-5.56,0-2.18.03-4.27.1-6.52.03-.53.2-1.08.37-1.56.35-1.06.33-2.06.18-3.16-.16-1.04.12-3.03.44-4.86.34-1.83.69-3.51.66-3.97-.05-.63.16-3.29.6-5.85.36-2.58.94-5.06,1.07-5.43.19-.49.47-.9.3-1.34.43-.75.29-2.03.83-2.62.6-1.59.85-2.16,1.31-4.11.5-1.85,2.47-3.35,2.52-5.19,1.23-3.57,1.96-5.81,1.98-6.38.07-1.01.74-1.22.83-2.23.13-1.38,2.01-3.44,1.78-3.89-.26-.5.22-1.19.13-1.79-.2-1.28.55-2.56,1.5-3.66.49-.57.17-1.59.69-2.02.97-.76,1.78-1.74,2.4-3,.67-1.34,1.31-2.7,2-4.03l2.22-3.94c.47-.83.94-1.68,1.46-2.48.53-.78,1.16-1.46,1.86-2.06,1.52-2.4,2.4-3.48,2.92-4.53.1-.35.26-.67.45-.97.16-.27.44-.65.5-.73.2-.27.43-.61.23-.87-.23-.27-.42-.31-.49-.37-.3-.06-.3-.14-.61-.41.04-.13.09-.27-.09-.49-.33-.35-.71-.63-.99-.63-.23-.26-.47-.49-.69-.7-.12-.1-.23-.2-.33-.29-.04-.04-.08-.07-.12-.1-.14-.1-.24-.15-.25-.18-.05-.17-.11-.3-.15-.37-.24-.04-.4.11-.53.2-.04.02-.07.04-.11.05-.06.02-.04,0-.22.03-.28.04-.65.04-1.15,0-1.15.37-1.82.4-2.19,1.12-.19.37-.66.53-1.28.48-.09,0-.12-.01-.14-.03-.02-.01-.05-.02-.07-.02-.04,0-.08,0-.11.02-.06.04-.1.12-.11.22-.05.17.02.36-.01.47-.01.06-.04.1-.07.15l-.36.76c-.51,1.08-1.04,2.17-1.11,3.31-.6,1.16-.67,2.55-1.17,3.76-.81,1.98-1.46,4-2.76,5.68-.34.44-.52,1.52-.54,2.21-.03,1.15-1.02,1.8-1.06,2.89-.04,1.28-.86,1.74-1.44,2.45-.47.56-.89,1.12-.91,2.03-.02,1.29-.65,2.52-1,3.79-.37,1.31-1.39,2.32-1.41,3.6-.04,1.77-1.31,3.31-1.13,5.04.14,1.12-.57,1.68-.71,2.74-.56.38-.97.92-1.26,1.56l-.11.25-.05.13-.02.06-.07.21c-.14.47-.49,1.01-.97,1.35-.48.35-1.04.52-1.59.52-.55,0-1.12-.16-1.62-.55-.51-.37-.87-.99-.98-1.53l-.1-.53-.07-.31c-.41-1.77-1.05-3.41-.87-5.39.05-.62-.42-1.46-.62-2.21-.2-.75-.43-1.52-.52-2.29-.18-1.61.45-3.07.05-4.7-.37-1.51-.39-2.67-.78-4.18-.25-1.01-.12-2.98-.27-4.04-.34-2.38-1.66-4.14-1.11-6.39-.16-1.03-.13-2.17-.72-3-.74-1.05-1-2.2-.87-3.54.02-.24.07-.58,0-.75-.39-.95-.49-.68-.57-.8-.03-.03-.04-.06-.02-.15.02-.08,0-.13.01-.27-.08.02-.14.04-.2.05-.03,0-.06,0-.08,0l-.25-.03c-.64-.09-1.28-.22-1.93-.41-1.24-.36-2.56.31-3.89-.19-1.05-.4-2.04-.36-3.08-.21-1.05.15-2.08,0-3.14-.29-.74-.2-1.61-.46-2.3-.41l-.64.04-.32.02s-.03.03-.05.04c-.04.06-.06.11-.07.15-.02.09.01.16.04.19.05.07.04,0-.45-.25-.13-.06-.28-.12-.43-.14-.18-.03-.12.08-.02.18.1.1.33.35.47.51.59.28.31.28.08.94-.06.45.29.71.8.94.84.82,1.24,1.78,1.51,2.64.25.87.35,1.64.7,2.1.49.65.95,1.33,1.32,2.06.34.74.57,1.54.67,2.41.07.72.39,1.76.72,2.28.81,1.18,1.16,2.32,1.33,3.74.2,1.92.71,3.75,1.73,5.39.88,1.32,1.11,3.07,1.41,4.73.33,2.18-.03,4.38.74,6.54.08.22.08.58.04.83-.24,1.55-.35,3.02-.36,4.59,0,1.46.2,2.86.63,4.31.19.63.17,1.67.01,2.36-.54,2.36-.71,4.64,0,7.01.13.43.16,1.13.05,1.57-.89,3.63-.5,7.43-.42,11.16.06,2.97.07,5.92-.2,8.85-.07.8-.17,1.53,0,2.33.46,2.12.39,4.22-.08,6.31-.3,1.31-.29,2.67.02,3.94.52,2.13.47,4.16-.03,6.27-.23.98-.38,2.09-.36,3.13.06,2.68-.41,5.36-.08,8,.33,2.69-.23,5.33-.02,8,.12,1.57.69,3.08.37,4.7-.32,1.61-.12,3.13,0,4.72.1,1.41-.43,2.56-.8,3.72-.4,1.27-2.72,1.65-3.35.62-.04-.07-.39-.65-.31-.82-.19-.5-.84-3.48-.81-5.94.02-1.35-.05-2.71.28-3.97.28-1.05.27-2.04-.06-3.06-.39-1.23-.51-2.65-.3-3.93.7-4.23.52-8.55.63-12.85.03-1.34.1-2.67.17-4,.03-.52.23-1.07.17-1.53-.77-5.3-.35-10.74-.68-16.1-.1-1.6-.08-2.65-.38-4.21-.48-2.57-.12-4.7,0-8.32.29-.94.39-2.04.64-3.02.2-.79.22-1.55.08-2.34-.68-3.66-.52-7.48-.83-11.21.09-1.11.14-2.32.17-3.53,0-.6.02-1.2.03-1.79,0-.58.01-1.07-.01-1.6-.07-2.05-.32-3.66-.44-3.91-.08-1.28-.11-2.57-.15-3.86-.06-1.02.02-2.05-.09-3.07-.11-1.34-.48-2.58-1.22-3.57-.37-.51-.64-1.06-.82-1.65-.2-.58-.31-1.2-.31-1.86,0-.58-.04-1.16-.12-1.73-.09-.56-.24-1.11-.41-1.64-.35-1.07-.83-2.11-1.57-3.03-.73-.92-1.22-1.93-1.7-2.94-.48-1.01-.82-2.1-1.08-3.26-.28-.98-.68-1.91-1.19-2.78-.13-.22-.26-.43-.4-.64-.15-.22-.25-.36-.56-.73-.54-.63-1.13-1.26-1.79-1.93-.98-.98-1.88-2.12-2.64-3.22-.38-.56-.76-1.11-1.14-1.68-.36-.55-.67-1.08-.95-1.57-.53-.95-.84-1.85-1.74-2.79-.09-.1-.18-.2-.32-.35.07-.03.08-.08.22-.08.14,0,.28.01.43.02.32.02.66.05,1.01.07.75.08,1.53.16,2.26.23,1.48.16,2.73.31,2.89.22.31-.18,1.71.05,2.48.16,1.13.16,2.19.3,3.24.45.98.13,2.27.28,2.72.32,1.3.12,2.61-.13,3.94-.08,1.04.04,2.35.09,3.12.46,1.81.87,3.64.21,5.44.66.76.19,1.55.33,2.34.46,1.36.18,2.73.35,4.08.53l.6.08c.06-.01.07.04.08.09l.04.15.08.29.32,1.15c.23.76.45,1.52.67,2.27.25.9.38,1.2.58,1.66.18.43.38.85.61,1.25.51.88.61,2.06.71,3.17.12,1.24.65,5.25.54,5.88-.43,2.63.51,5.41.99,8.06.24,1.31.74,2.55.94,3.86.16,1.02-.03,2.11.06,3.16.06.71.76,1.48.33,2.12-.55.82-.53,1.48-.13,2.65.48,1.39,1.23,2.63,1.13,4.45-.03.61.09,1.22.21,1.86.06.32.11.64.15.97v.06s0,.03,0,.03h0s-3.15.36-3.15.36h-.01s-.07.02-.09.02c-.03.02-.03.02-.01,0,.03-.06,0-.05.03,0,0,.01,0,0-.06-.03h-.03s-2.96-.71-2.96-.71l.03-.07.06-.14c.07-.19.15-.39.23-.59.15-.4.28-.8.4-1.22.24-.83.47-1.63.61-2.42.37-1.99,1.66-3.42,1.92-5.24.25-1.75,1.1-2.98,1.76-4.42,1.25-2.71,2.22-5.47,2.52-8.41.3-2.91,1.3-5.73,2.86-8.25,1.13-1.83,1.91-3.76,2.61-5.84.47-1.4.93-2.82,1.48-4.19l.61-1.47c.26-.61.52-1.21.79-1.8l.2-.43s.02-.08.06-.1l.12-.02.25-.05.98-.18c.65-.11,1.29-.2,1.9-.28.42-.06.51-.06.74-.11.19-.04.38-.1.56-.17.36-.14.71-.28,1.07-.43.78-.28,1.56-.56,2.34-.82l.29-.1.4-.12,1.07-.31,2.16-.61c.83.65,1.67,1.32,2.49,1.99l.48.4.33.29.65.59c.55.55,2.49,2.3,3.67,3.56.44.46.95.92,1.54,1.42-.84,1.15-1.62,2.41-2.39,3.61-.28.46-.57.93-.85,1.39l-.46.89-.87,1.76c-1.07.95-1.93,2.15-2.79,3.34-.43.6-.86,1.19-1.32,1.76-.42.58-.84,1.13-1.34,1.62-.4.4-.62.75-.76,1.27-.19.7-.38,1.5-.77,2.11-1,1.52-1.71,3.25-2.51,4.91-.78,1.67-1.72,3.25-2.78,4.76-.5,1.46-.93,2.94-1.5,4.37-.94,2.46-1.97,4.94-2.68,7.43-.36,1.55-.84,2.89-1.42,4.36-1.51,3.93-2.61,8.02-3.66,12.1-.51,2.04-.96,4.1-1.4,6.16-.38,2.07-.83,4.13-1.14,6.21-.22,1.28-.57,2.55-.87,3.8-.26,1.03-.5,2.1-.33,3.08.31,2.03.17,4.09.12,6.14v1.08s0,1.09,0,1.09l.04,2.32.08,4.65.2,9.3c.05,2.14-.42,4.16-.26,6.37.13,1.77.18,3.72-.3,5.48l.04,15.36-.03,4.84c-.01.85-.25,1.57-.64,2.05-.39.76.35,1.17-1.61,1.62-.23.17-1.56-.61-1.71-.91-1.01-2.07-.43-3.74-.92-6.27-.33-1.74-.17-3.98-.27-5.86Z"/>
  <g>
    <path class="cls-2" d="M36.72,187.23s-.02,0-.03.01c.02.05.03.04.03-.01Z"/>
    <path class="cls-2" d="M199.39,187.24s-.02,0-.03-.01c0,.05,0,.06.03.01Z"/>
    <path class="cls-2" d="M208.4,118.05s25.23-8.65,26.31-27.75c.3-.3-9.82-2.04-17.65-.28,5.5-2.25,13.81-6.97,13.33-15.94.36.36-3.24-4.68-15.5-6.13,1.11-.18-.81-.94-2.95-1.63,3.52-3.11,6.02-7.15,7.28-11.56-3.22-1.53-6.76-2.35-10.37-2.37-.38-3.36-1.41-6.92-3.69-10.03-.36-.36-9.73,4.68-10.81,7.57.36-.36,4.68-21.62-8.29-34.6,0,.25-4.69,8.08-7.56,14.04-.72-8.11-5.3-15.58-5.3-15.58-5.08,1.41-11.76,10.39-14.08,13.7l-.53-.04c.98-5.91-.28-11.82-3.28-16.71-4.79,1.94-8.94,5.38-11.7,9.96.07-.32.13-.65.19-.98,1.19-7.36-1.06-14.48-5.56-19.73-5.92,3.57-10.29,9.62-11.48,16.98-.45,2.77-.41,5.51.06,8.12h-.15c-.51-6.55-3.6-12.39-8.28-16.46-2.73,2.25-4.97,5.08-6.52,8.31-1.19-7.35-5.56-13.4-11.48-16.96-4.18,4.88-6.41,11.38-5.75,18.18-2.64-3.32-6.08-5.86-9.93-7.42-1.47,2.4-2.52,5.04-3.09,7.81-2.25-2.26-4.64-4.17-6.76-4.76,0,0-2.65,4.33-4.24,9.97-2.33-2.33-5.09-4.16-8.12-5.39-2.54,4.13-3.83,9-3.58,13.98-2.37-5.88-8.89-16.72-8.89-17.03-12.97,12.97-8.65,34.24-8.29,34.6-1.08-2.88-10.45-7.93-10.81-7.57-3.91,5.36-4.18,12-3.68,16.72-1.93-1.83-4.19-3.37-6.74-4.53-6.79-3.07-14.26-2.76-20.5.21,1.83,6.39,6.24,11.99,12.61,15.14-5.41,1.97-7.16,4.43-6.91,4.17-.48,8.97,7.83,13.69,13.33,15.94-7.83-1.76-17.95-.02-17.65.28,1.08,19.1,26.31,27.75,26.31,27.75-10.81-3.96-24.51,1.08-24.15,2.16,3.6,18.74,25.23,16.94,27.03,17.66-15.86,3.6-21.26,13.69-21.26,13.69,5.05,7.19,12.93,8.72,19.24,9.34-.83.38-1.65.81-2.45,1.29-6.39,3.84-10.38,10.16-11.49,16.98,6.55,2.22,13.99,1.65,20.38-2.19.4-.24.78-.49,1.16-.74-.3,6.14.57,10.51.58,10.99,9.58-3.85,15.01-12.95,18.43-19.88-2.9,8.95-2.96,19.8-.8,19.53,5.23-1.08,9.85-3.93,13.85-7.5,1.08,4.17,2.68,8.12,5.06,10.65,0,0,8.66-3.26,13.27-13.72.65,2.68,1.42,4.42,2.06,4.8,5.58-1.74,9.24-5.01,11.64-8.56.28,2.4.9,4.74,1.86,6.95,6.71-1.68,12.67-6.18,15.96-12.86.04-.08.08-.17.12-.26.18.43.38.85.58,1.28,3.3,6.69,9.25,11.19,15.96,12.86.96-2.21,1.59-4.56,1.86-6.96,2.39,3.15,5.87,5.98,10.92,7.55.59-.36,1.3-1.89,1.92-4.27,3.57,4.03,8.31,6.68,13.41,7.71,1.05-2.73,1.59-5.64,1.61-8.59,4.69,5.11,10.49,9.5,17.29,10.91,2.16.27,2.09-10.58-.8-19.53,3.41,6.93,8.85,16.03,18.43,19.88.02-.77,2.27-11.64-1.77-23.77.72-4.68,19.82,1.44,29.19-11.89,0,0-5.41-10.09-21.26-13.69,1.8-.72,23.42,1.08,27.03-17.66.36-1.08-13.33-6.13-24.15-2.16ZM23.51,91.63c.14.05.21.09.21.11-.07-.04-.14-.07-.21-.11ZM212.58,91.63c-.07.04-.14.07-.21.11,0-.02.07-.06.21-.11ZM175.18,35.3c.38.06.73.1,1.06.12l-.14.39-.92-.51Z"/>
  </g>
  <path class="cls-1" d="M63.88,155.55c-5.55.57-9.78-.41-12.67-2.96-2.9-2.54-4.57-6.02-5.03-10.43-.45-4.41.48-8.15,2.8-11.24,2.32-3.08,6.2-4.9,11.64-5.46,5.44-.56,9.75.42,12.59,2.97,2.84,2.55,4.49,6.03,4.95,10.44.45,4.41-.46,8.15-2.72,11.23-2.26,3.07-6.12,4.89-11.56,5.45"/>
  <path class="cls-1" d="M162.57,154.34c5.55.57,9.78-.41,12.67-2.96,2.9-2.54,4.57-6.02,5.03-10.43.45-4.41-.48-8.15-2.8-11.24-2.32-3.08-6.2-4.9-11.64-5.46-5.44-.56-9.75.42-12.59,2.97-2.84,2.55-4.49,6.03-4.95,10.44-.45,4.41.46,8.15,2.72,11.23,2.26,3.07,6.12,4.89,11.56,5.45"/>
  <path class="cls-1" d="M136.44,71.68c5.55.57,9.78-.41,12.67-2.96,2.9-2.54,4.57-6.02,5.03-10.43.45-4.41-.48-8.15-2.8-11.24-2.32-3.08-6.2-4.9-11.64-5.46-5.44-.56-9.75.42-12.59,2.97-2.84,2.55-4.49,6.03-4.95,10.44-.45,4.41.46,8.15,2.72,11.23,2.26,3.07,6.12,4.89,11.56,5.45"/>
  <path class="cls-1" d="M81.5,100.25c-5.55.57-9.78-.41-12.67-2.96-2.9-2.54-4.57-6.02-5.03-10.43-.45-4.41.48-8.15,2.8-11.24,2.32-3.08,6.2-4.9,11.64-5.46,5.44-.56,9.75.42,12.59,2.97,2.84,2.55,4.49,6.03,4.95,10.44.45,4.41-.46,8.15-2.72,11.23-2.26,3.07-6.12,4.89-11.56,5.45"/>
  <path class="cls-1" d="M197.59,99.03c-5.55.57-9.78-.41-12.67-2.96-2.9-2.54-4.57-6.02-5.03-10.43-.45-4.41.48-8.15,2.8-11.24,2.32-3.08,6.2-4.9,11.64-5.46,5.44-.56,9.75.42,12.59,2.97,2.84,2.55,4.49,6.03,4.95,10.44.45,4.41-.46,8.15-2.72,11.23-2.26,3.07-6.12,4.89-11.56,5.45"/>
  <path class="cls-1" d="M32.28,97.21c-5.55.57-9.78-.41-12.67-2.96-2.9-2.54-4.57-6.02-5.03-10.43-.45-4.41.48-8.15,2.8-11.24,2.32-3.08,6.2-4.9,11.64-5.46,5.44-.56,9.75.42,12.59,2.97,2.84,2.55,4.49,6.03,4.95,10.44.45,4.41-.46,8.15-2.72,11.23-2.26,3.07-6.12,4.89-11.56,5.45"/>
</svg>