<?xml version="1.0" encoding="UTF-8"?>
<svg id="illuer_blå_bg" xmlns="http://www.w3.org/2000/svg" viewBox="0 0 212.35 189.65">
  <defs>
    <style>
      .cls-1 {
        fill: #ff9400;
      }

      .cls-2 {
        fill: #ffe6c4;
      }
    </style>
  </defs>
  <path class="cls-2" d="M111.01,132.59c.09-.05.17-.1.27-.15.79-.35,1.45-.83,2.17-1.3.17-.11.34-.2.5-.27,0-.21,0-.44-.03-.7-.02-.22-.32-1.06-.42-1.41-.04,0-.08,0-.14,0-.02,0-.03,0-.05,0-.02.01-.04.02-.06.04-.5.42-1.1-.03-1.63.3-.38.23-.8-.14-1.22-.09-.41.05-.85-.05-1.23.2-.27.18-.48.05-.7-.09-.28-.18-.51-.54-.89-.3-.32.21-.63-.21-.97.02-.2.13-.54.27-.71.17-.64-.37-1.31-.3-1.99-.32-.41-.01-.83.25-1.24.16-.68.42-1.52-.22-2.18.26-.16.12-.3.17-.47.06-.19-.12-.34-.09-.43.09-.17.36-.37.28-.75.33-.7-.46-.56.15-1.24-.24-.04-.02-.43.08-.85-.06-.14.21-.59.04-.75-.11-.81,0-.69-.1-1.23.42-.39.37-.83.02-1.27.3-.36.11-.8.04-1.69.11-.55-.29-1.16-.24-1.74-.22l-2.79.14c-.44.02-.82-.13-1.17-.45-.19-.18-.43.26-.66.13-.43-.24-.89-.33-1.22.1-.16.2-.42.12-.52.36-.1.23-.92-.34-1.33-.11-.3.17-.44-.14-.74.04-.17.1-.9.15-2.08.16-.55.29-1.18-.57-1.77-.53-.62.04-.81-.02-1.33-.13-.21-.22-.59.06-.84-.1-.12.15-.26.04-.42,0-.24-.07-3.13.08-3.52.27-.28.14-2.11-.36-2.74-.1-.33.14-.64.18-.97,0-.15-.09-.31-.19-.47-.2-.67-.05-1.35-.08-2.03-.09-.53.04-1.12-.14-1.74.12-.71.49-1.16.12-1.81.35-.32.11-.79-.25-1.09-.1-.35.17-.51.09-.83.09-.41,0-.53.09-.72.14-.33.14-.54.18-.8-.04-.2-.17-.44-.08-.62-.27-.3-.3-.65.08-.94-.07-.63-.33-1.27-.02-1.95-.09-.59.03-1.26-.15-1.82,0-.81.21-1.29-.19-2.01.35-.1.08-.45.85-.42.99-.01,1.18.18.76.39,1.01.12.25.34.41.61.45.52.07,1.04.12,1.56.17.41.04.83.08,1.24.11l1.22.06,2.44.12c.55.32,1.17.33,1.73.26.7-.08,1.33.23,2.01.22l5.88-.07c.68-.01,1.36-.01,2.01-.32.31-.15.66-.08,1,0,.41.1.83.2,1.25.21,1.36.03,2.72.02,4.07.02,1.36,0,2.72-.03,4.07.04.51.03.97.03,1.47-.08.83-.17,1.69-.13,2.54-.21.49-.05.98-.19,1.47-.28,1.17.46,2.36.04,3.54.09.23.01.48-.14.71-.25.17-.09.3-.08.48,0,.88.4,1.86.07,2.74.47.41-.11.82-.26,1.23-.3.42-.05.88-.11,1.26.03,1.26.48,2.5.34,3.76.09.24-.05.47-.18.73-.06.91.39,1.85.24,2.77.16.69-.06,1.34-.04,2.01.2.92.33,1.85.29,2.73-.15.89-.44,1.81-.47,2.74-.3.21.04.41.1.61.14Z"/>
  <path class="cls-2" d="M111.01,146.21c.09-.05.17-.1.27-.15.79-.35,1.45-.83,2.17-1.3.17-.11.34-.2.5-.27,0-.21,0-.44-.03-.7-.02-.22-.32-1.06-.42-1.41-.04,0-.08,0-.14,0-.02,0-.03,0-.05,0-.02.01-.04.02-.06.04-.5.42-1.1-.03-1.63.3-.38.23-.8-.14-1.22-.09-.41.05-.85-.05-1.23.2-.27.18-.48.05-.7-.09-.28-.18-.51-.54-.89-.3-.32.21-.63-.21-.97.02-.2.13-.54.27-.71.17-.64-.37-1.31-.3-1.99-.32-.41-.01-.83.25-1.24.16-.68.42-1.52-.22-2.18.26-.16.12-.3.17-.47.06-.19-.12-.34-.09-.43.09-.17.36-.37.28-.75.33-.7-.46-.56.15-1.24-.24-.04-.02-.43.08-.85-.06-.14.21-.59.04-.75-.11-.81,0-.69-.1-1.23.42-.39.37-.83.02-1.27.3-.36.11-.8.04-1.69.11-.55-.29-1.16-.24-1.74-.22l-2.79.14c-.44.02-.82-.13-1.17-.45-.19-.18-.43.26-.66.13-.43-.24-.89-.33-1.22.1-.16.2-.42.12-.52.36-.1.23-.92-.34-1.33-.11-.3.17-.44-.14-.74.04-.17.1-.9.15-2.08.16-.55.29-1.18-.57-1.77-.53-.62.04-.81-.02-1.33-.13-.21-.22-.59.06-.84-.1-.12.15-.26.04-.42,0-.24-.07-3.13.08-3.52.27-.28.14-2.11-.36-2.74-.1-.33.14-.64.18-.97,0-.15-.09-.31-.19-.47-.2-.67-.05-1.35-.08-2.03-.09-.53.04-1.12-.14-1.74.12-.71.49-1.16.12-1.81.35-.32.11-.79-.25-1.09-.1-.35.17-.51.09-.83.09-.41,0-.53.09-.72.14-.33.14-.54.18-.8-.04-.2-.17-.44-.08-.62-.27-.3-.3-.65.08-.94-.07-.63-.33-1.27-.02-1.95-.09-.59.03-1.26-.15-1.82,0-.81.21-1.29-.19-2.01.35-.1.08-.45.85-.42.99-.01,1.18.18.76.39,1.01.12.25.34.41.61.45.52.07,1.04.12,1.56.17.41.04.83.08,1.24.11l1.22.06,2.44.12c.55.32,1.17.33,1.73.26.7-.08,1.33.23,2.01.22l5.88-.07c.68-.01,1.36-.01,2.01-.32.31-.15.66-.08,1,0,.41.1.83.2,1.25.21,1.36.03,2.72.02,4.07.02,1.36,0,2.72-.03,4.07.04.51.03.97.03,1.47-.08.83-.17,1.69-.13,2.54-.21.49-.05.98-.19,1.47-.28,1.17.46,2.36.04,3.54.09.23.01.48-.14.71-.25.17-.09.3-.08.48,0,.88.4,1.86.07,2.74.47.41-.11.82-.26,1.23-.3.42-.05.88-.11,1.26.03,1.26.48,2.5.34,3.76.09.24-.05.47-.18.73-.06.91.39,1.85.24,2.77.16.69-.06,1.34-.04,2.01.2.92.33,1.85.29,2.73-.15.89-.44,1.81-.47,2.74-.3.21.04.41.1.61.14Z"/>
  <path class="cls-2" d="M108.03,84.76c.09-.05.17-.1.27-.15.79-.35,1.45-.83,2.17-1.3.17-.11.34-.2.5-.27,0-.21,0-.44-.03-.7-.02-.22-.32-1.06-.42-1.41-.04,0-.08,0-.14,0-.02,0-.03,0-.05,0-.02.01-.04.02-.06.04-.5.42-1.1-.03-1.63.3-.38.23-.8-.14-1.22-.09-.41.05-.85-.05-1.23.2-.27.18-.48.05-.7-.09-.28-.18-.51-.54-.89-.3-.32.21-.63-.21-.97.02-.2.13-.54.27-.71.17-.64-.37-1.31-.3-1.99-.32-.41-.01-.83.25-1.24.16-.68.42-1.52-.22-2.18.26-.16.12-.3.17-.47.06-.19-.12-.34-.09-.43.09-.17.36-.37.28-.75.33-.7-.46-.56.15-1.24-.24-.04-.02-.43.08-.85-.06-.14.21-.59.04-.75-.11-.81,0-.69-.1-1.23.42-.39.37-.83.02-1.27.3-.36.11-.8.04-1.69.11-.55-.29-1.16-.24-1.74-.22l-2.79.14c-.44.02-.82-.13-1.17-.45-.19-.18-.43.26-.66.13-.43-.24-.89-.33-1.22.1-.16.2-.42.12-.52.36-.1.23-.92-.34-1.33-.11-.3.17-.44-.14-.74.04-.17.1-.9.15-2.08.16-.55.29-1.18-.57-1.77-.53-.62.04-.81-.02-1.33-.13-.21-.22-.59.06-.84-.1-.12.15-.26.04-.42,0-.24-.07-3.13.08-3.52.27-.28.14-2.11-.36-2.74-.1-.33.14-.64.18-.97,0-.15-.09-.31-.19-.47-.2-.67-.05-1.35-.08-2.03-.09-.53.04-1.12-.14-1.74.12-.71.49-1.16.12-1.81.35-.32.11-.79-.25-1.09-.1-.35.17-.51.09-.83.09-.41,0-.53.09-.72.14-.33.14-.54.18-.8-.04-.2-.17-.44-.08-.62-.27-.3-.3-.65.08-.94-.07-.63-.33-1.27-.02-1.95-.09-.59.03-1.26-.15-1.82,0-.81.21-1.29-.19-2.01.35-.1.08-.45.85-.42.99-.01,1.18.18.76.39,1.01.12.25.34.41.61.45.52.07,1.04.12,1.56.17.41.04.83.08,1.24.11l1.22.06,2.44.12c.55.32,1.17.33,1.73.26.7-.08,1.33.23,2.01.22l5.88-.07c.68-.01,1.36-.01,2.01-.32.31-.15.66-.08,1,0,.41.1.83.2,1.25.21,1.36.03,2.72.02,4.07.02,1.36,0,2.72-.03,4.07.04.51.03.97.03,1.47-.08.83-.17,1.69-.13,2.54-.21.49-.05.98-.19,1.47-.28,1.17.46,2.36.04,3.54.09.23.01.48-.14.71-.25.17-.09.3-.08.48,0,.88.4,1.86.07,2.74.47.41-.11.82-.26,1.23-.3.42-.05.88-.11,1.26.03,1.26.48,2.5.34,3.76.09.24-.05.47-.18.73-.06.91.39,1.85.24,2.77.16.69-.06,1.34-.04,2.01.2.92.33,1.85.29,2.73-.15.89-.44,1.81-.47,2.74-.3.21.04.41.1.61.14Z"/>
  <path class="cls-2" d="M108.03,98.38c.09-.05.17-.1.27-.15.79-.35,1.45-.83,2.17-1.3.17-.11.34-.2.5-.27,0-.21,0-.44-.03-.7-.02-.22-.32-1.06-.42-1.41-.04,0-.08,0-.14,0-.02,0-.03,0-.05,0-.02.01-.04.02-.06.04-.5.42-1.1-.03-1.63.3-.38.23-.8-.14-1.22-.09-.41.05-.85-.05-1.23.2-.27.18-.48.05-.7-.09-.28-.18-.51-.54-.89-.3-.32.21-.63-.21-.97.02-.2.13-.54.27-.71.17-.64-.37-1.31-.3-1.99-.32-.41-.01-.83.25-1.24.16-.68.42-1.52-.22-2.18.26-.16.12-.3.17-.47.06-.19-.12-.34-.09-.43.09-.17.36-.37.28-.75.33-.7-.46-.56.15-1.24-.24-.04-.02-.43.08-.85-.06-.14.21-.59.04-.75-.11-.81,0-.69-.1-1.23.42-.39.37-.83.02-1.27.3-.36.11-.8.04-1.69.11-.55-.29-1.16-.24-1.74-.22l-2.79.14c-.44.02-.82-.13-1.17-.45-.19-.18-.43.26-.66.13-.43-.24-.89-.33-1.22.1-.16.2-.42.12-.52.36-.1.23-.92-.34-1.33-.11-.3.17-.44-.14-.74.04-.17.1-.9.15-2.08.16-.55.29-1.18-.57-1.77-.53-.62.04-.81-.02-1.33-.13-.21-.22-.59.06-.84-.1-.12.15-.26.04-.42,0-.24-.07-3.13.08-3.52.27-.28.14-2.11-.36-2.74-.1-.33.14-.64.18-.97,0-.15-.09-.31-.19-.47-.2-.67-.05-1.35-.08-2.03-.09-.53.04-1.12-.14-1.74.12-.71.49-1.16.12-1.81.35-.32.11-.79-.25-1.09-.1-.35.17-.51.09-.83.09-.41,0-.53.09-.72.14-.33.14-.54.18-.8-.04-.2-.17-.44-.08-.62-.27-.3-.3-.65.08-.94-.07-.63-.33-1.27-.02-1.95-.09-.59.03-1.26-.15-1.82,0-.81.21-1.29-.19-2.01.35-.1.08-.45.85-.42.99-.01,1.18.18.76.39,1.01.12.25.34.41.61.45.52.07,1.04.12,1.56.17.41.04.83.08,1.24.11l1.22.06,2.44.12c.55.32,1.17.33,1.73.26.7-.08,1.33.23,2.01.22l5.88-.07c.68-.01,1.36-.01,2.01-.32.31-.15.66-.08,1,0,.41.1.83.2,1.25.21,1.36.03,2.72.02,4.07.02,1.36,0,2.72-.03,4.07.04.51.03.97.03,1.47-.08.83-.17,1.69-.13,2.54-.21.49-.05.98-.19,1.47-.28,1.17.46,2.36.04,3.54.09.23.01.48-.14.71-.25.17-.09.3-.08.48,0,.88.4,1.86.07,2.74.47.41-.11.82-.26,1.23-.3.42-.05.88-.11,1.26.03,1.26.48,2.5.34,3.76.09.24-.05.47-.18.73-.06.91.39,1.85.24,2.77.16.69-.06,1.34-.04,2.01.2.92.33,1.85.29,2.73-.15.89-.44,1.81-.47,2.74-.3.21.04.41.1.61.14Z"/>
  <path class="cls-2" d="M114.03,40.24c.09-.05.17-.1.27-.15.79-.35,1.45-.83,2.17-1.3.17-.11.34-.2.5-.27,0-.21,0-.44-.03-.7-.02-.22-.32-1.06-.42-1.41-.04,0-.08,0-.14,0-.02,0-.03,0-.05,0-.02.01-.04.02-.06.04-.5.42-1.1-.03-1.63.3-.38.23-.8-.14-1.22-.09-.41.05-.85-.05-1.23.2-.27.18-.48.05-.7-.09-.28-.18-.51-.54-.89-.3-.32.21-.63-.21-.97.02-.2.13-.54.27-.71.17-.64-.37-1.31-.3-1.99-.32-.41-.01-.83.25-1.24.16-.68.42-1.52-.22-2.18.26-.16.12-.3.17-.47.06-.19-.12-.34-.09-.43.09-.17.36-.37.28-.75.33-.7-.46-.56.15-1.24-.24-.04-.02-.43.08-.85-.06-.14.21-.59.04-.75-.11-.81,0-.69-.1-1.23.42-.39.37-.83.02-1.27.3-.36.11-.8.04-1.69.11-.55-.29-1.16-.24-1.74-.22l-2.79.14c-.44.02-.82-.13-1.17-.45-.19-.18-.43.26-.66.13-.43-.24-.89-.33-1.22.1-.16.2-.42.12-.52.36-.1.23-.92-.34-1.33-.11-.3.17-.44-.14-.74.04-.17.1-.9.15-2.08.16-.55.29-1.18-.57-1.77-.53-.62.04-.81-.02-1.33-.13-.21-.22-.59.06-.84-.1-.12.15-.26.04-.42,0-.24-.07-3.13.08-3.52.27-.28.14-2.11-.36-2.74-.1-.33.14-.64.18-.97,0-.15-.09-.31-.19-.47-.2-.67-.05-1.35-.08-2.03-.09-.53.04-1.12-.14-1.74.12-.71.49-1.16.12-1.81.35-.32.11-.79-.25-1.09-.1-.35.17-.51.09-.83.09-.41,0-.53.09-.72.14-.33.14-.54.18-.8-.04-.2-.17-.44-.08-.62-.27-.3-.3-.65.08-.94-.07-.63-.33-1.27-.02-1.95-.09-.59.03-1.26-.15-1.82,0-.81.21-1.29-.19-2.01.35-.1.08-.45.85-.42.99-.01,1.18.18.76.39,1.01.12.25.34.41.61.45.52.07,1.04.12,1.56.17.41.04.83.08,1.24.11l1.22.06,2.44.12c.55.32,1.17.33,1.73.26.7-.08,1.33.23,2.01.22l5.88-.07c.68-.01,1.36-.01,2.01-.32.31-.15.66-.08,1,0,.41.1.83.2,1.25.21,1.36.03,2.72.02,4.07.02,1.36,0,2.72-.03,4.07.04.51.03.97.03,1.47-.08.83-.17,1.69-.13,2.54-.21.49-.05.98-.19,1.47-.28,1.17.46,2.36.04,3.54.09.23.01.48-.14.71-.25.17-.09.3-.08.48,0,.88.4,1.86.07,2.74.47.41-.11.82-.26,1.23-.3.42-.05.88-.11,1.26.03,1.26.48,2.5.34,3.76.09.24-.05.47-.18.73-.06.91.39,1.85.24,2.77.16.69-.06,1.34-.04,2.01.2.92.33,1.85.29,2.73-.15.89-.44,1.81-.47,2.74-.3.21.04.41.1.61.14Z"/>
  <path class="cls-2" d="M111.85,52.85c.09-.05.17-.1.27-.15.79-.35,1.45-.83,2.17-1.3.17-.11.34-.2.5-.27,0-.21,0-.44-.03-.7-.02-.22-.32-1.06-.42-1.41-.04,0-.08,0-.14,0-.02,0-.03,0-.05,0-.02.01-.04.02-.06.04-.5.42-1.1-.03-1.63.3-.38.23-.8-.14-1.22-.09-.41.05-.85-.05-1.23.2-.27.18-.48.05-.7-.09-.28-.18-.51-.54-.89-.3-.32.21-.63-.21-.97.02-.2.13-.54.27-.71.17-.64-.37-1.31-.3-1.99-.32-.41-.01-.83.25-1.24.16-.68.42-1.52-.22-2.18.26-.16.12-.3.17-.47.06-.19-.12-.34-.09-.43.09-.17.36-.37.28-.75.33-.7-.46-.56.15-1.24-.24-.04-.02-.43.08-.85-.06-.14.21-.59.04-.75-.11-.81,0-.69-.1-1.23.42-.39.37-.83.02-1.27.3-.36.11-.8.04-1.69.11-.55-.29-1.16-.24-1.74-.22l-2.79.14c-.44.02-.82-.13-1.17-.45-.19-.18-.43.26-.66.13-.43-.24-.89-.33-1.22.1-.16.2-.42.12-.52.36-.1.23-.92-.34-1.33-.11-.3.17-.44-.14-.74.04-.17.1-.9.15-2.08.16-.55.29-1.18-.57-1.77-.53-.62.04-.81-.02-1.33-.13-.21-.22-.59.06-.84-.1-.12.15-.26.04-.42,0-.24-.07-3.13.08-3.52.27-.28.14-2.11-.36-2.74-.1-.33.14-.64.18-.97,0-.15-.09-.31-.19-.47-.2-.67-.05-1.35-.08-2.03-.09-.53.04-1.12-.14-1.74.12-.71.49-1.16.12-1.81.35-.32.11-.79-.25-1.09-.1-.35.17-.51.09-.83.09-.41,0-.53.09-.72.14-.33.14-.54.18-.8-.04-.2-.17-.44-.08-.62-.27-.3-.3-.65.08-.94-.07-.63-.33-1.27-.02-1.95-.09-.59.03-1.26-.15-1.82,0-.81.21-1.29-.19-2.01.35-.1.08-.45.85-.42.99-.01,1.18.18.76.39,1.01.12.25.34.41.61.45.52.07,1.04.12,1.56.17.41.04.83.08,1.24.11l1.22.06,2.44.12c.55.32,1.17.33,1.73.26.7-.08,1.33.23,2.01.22l5.88-.07c.68-.01,1.36-.01,2.01-.32.31-.15.66-.08,1,0,.41.1.83.2,1.25.21,1.36.03,2.72.02,4.07.02,1.36,0,2.72-.03,4.07.04.51.03.97.03,1.47-.08.83-.17,1.69-.13,2.54-.21.49-.05.98-.19,1.47-.28,1.17.46,2.36.04,3.54.09.23.01.48-.14.71-.25.17-.09.3-.08.48,0,.88.4,1.86.07,2.74.47.41-.11.82-.26,1.23-.3.42-.05.88-.11,1.26.03,1.26.48,2.5.34,3.76.09.24-.05.47-.18.73-.06.91.39,1.85.24,2.77.16.69-.06,1.34-.04,2.01.2.92.33,1.85.29,2.73-.15.89-.44,1.81-.47,2.74-.3.21.04.41.1.61.14Z"/>
  <path class="cls-2" d="M127.99,31.64c-.45,1.45-.8,2.88-1.17,4.27-.36,1.4-.71,2.78-1.24,4.14-.5,1.24-.45,2.79-1.07,4.1-.38.81-.54,1.85-.91,2.72-.46,1.15-.61,2.09-.77,3.52-.12.85-.18,1.38-.51,3.17-.25,1.4-.46,2.11-.56,3.64-.11,1.34-.79,3.39-.87,4.81-.09,1.44-.32,2.65-.48,3.91-.14,1.26-.25,2.55-.18,4.12-.09,2.73-.36,5.41-.52,7.74-.14,1.5-.17,3-.23,4.5-.05,1.5-.14,3-.17,4.5,0,.71-.09,1.43-.16,2.09-.16,1.46-.09,2.82.07,4.3.2,1.38.36,4.11.46,6.65.16,2.54.45,4.87.58,5.48.11.42.28,1.51.53,2.96.25,1.46.58,3.26.84,5.05.55,3.57.96,7.08,1,7.63.05.72,0,1.38.21,1.9-.04,1.17.42,2.81.29,3.8.1,2.35.14,3.21.39,5.99.25,2.65-.43,5.52,0,7.97.27,5.27.37,8.57.48,9.32.21,1.35-.09,1.97.08,3.32.12.92.04,2.3-.04,3.51-.11,1.2-.21,2.23-.1,2.47.24.5.13,1.65.32,2.38.38,1.54.21,3.58-.12,5.51-.19,1,.17,2.12-.07,2.97-.4,1.52-.72,3.24-.89,5.2-.12,1.77-.38,3.54-.57,5.31-.21,1.79-.5,3.49-.77,5.33-.15.94-.71,1.79-1.52,2.3-.41.27-.89.44-1.38.51-.22.03-.55.04-.69.03h-.5c-.66,0-1.33,0-1.98,0-1.31-.02-2.61-.08-3.84-.23-3.99.06-5.93,0-7.56.09-1.98.27-3.93-.08-5.71.29-2.45.51-1.91.42-5.55.4-.68-.15-2.72-.33-3.33-.12-1.91-.14-3.65-.05-3.82-.07-3-.4-2.41.21-5.53-.26-1.69.04-2.62-.04-3.38.32-.4.19-1.09.21-1.92.09-.77-.11-1.39-.06-2.12.05-3,.46-6.72-.19-9.79.22-1.84-.09-3.7.17-5.56.15-3.03-.03-6.02.02-8.87-.36-.75-.1-2.27.02-3.19.16-1.54.22-2.89-.2-4.35,0-1.72.23-2.73-.13-3.95-.32-.97-.15-1.91-.28-3.13-.11-1.73.24-3.67.14-5.54.18-1.92.04-3.75-.34-5.47-.11-2.4.32-5.05-.14-7.34.27-1.49.27-2.55-.05-4.09.05-.77-.27-1.67-.43-2.68-.5-.25-.01-.51-.03-.78-.04-.3,0-.61-.01-.92-.02-.86-.02-1.74-.36-2.42-1-.72-.67-1.15-1.65-1.15-2.66l.02-.38.04-.35.04-.46.09-.93c.12-1.24.35-2.49.61-3.83.17-.83.1-2.09.16-3.17.06-1.07.05-2.18.15-3.26.23-2.24.78-4.14.82-6.47-.02-2.17.12-3.78.06-5.95-.06-1.45.24-4.17.21-5.67,0-3.38-.72-6.09-.29-9.14-.06-1.48,0-3.06-.33-4.35-.43-1.62-.56-3.32-.45-5.2.02-.33.05-.79,0-1.07-.36-2.13-.7-4.23-.59-6.46-.23-1.83-.42-3.58-.47-5.45-.04-1.79-.76-3.45-.77-5.38-.02-1.53-.3-2.88-.64-4.27-.35-1.4-.55-2.84-.67-4.35-.09-1.05-.14-2.35-.34-3.31-.29-1.39-.55-2.78-.78-4.18-.27-1.39-.31-2.8-.43-4.21-.1-1.41-.16-2.82-.21-4.24,0-1.42.09-2.84.18-4.28.07-1.07.07-2.11.05-3.16-.03-1.06.02-2.13.04-3.27-.13-1.84.07-3.01.43-3.93.18-.47.09-1.02-.04-1.65-.13-3.08.76-5.52.78-7.05.08-2.17.26-4.37.84-6.61.25-.92.59-2.37.61-3.2.09-1.9.34-3.49.9-5.35.72-2.5,1.21-5.08,1.42-7.59.14-2.04.72-4.34,1.34-6.56.74-2.89,1.96-5.59,2.47-8.59.06-.3.22-.76.36-1.07,1.6-3.8,2.96-7.55,3.89-11.57.21-.88.75-2.26,1.21-3.14.09-.18.18-.36.27-.54.63-1.37,1.96-2.32,3.38-2.5.18-.02.36-.04.53-.04h.26s.15,0,.15,0l.58.02,1.16.02c1.55,0,3.1-.08,4.67-.28.61-.08,1.59-.09,2.21-.03,5.13.54,10.48.3,15.72.25,4.19-.04,8.34-.04,12.47.12,1.12.04,2.16.1,3.29,0,2.97-.27,5.94-.23,8.89.05,1.85.18,3.76.18,5.54-.01,2.99-.31,5.85-.28,8.83.02,1.38.14,2.95.23,4.41.22,3.77-.03,7.54.24,11.27.05,3.79-.2,7.5.14,11.26.01,2.21-.07,4.33-.41,6.61-.22,2.27.19,4.41.07,6.64,0,1.98-.06,3.6.26,5.25.48,1.79.24,2.33,1.63.87,2.01-.09.02-.92.24-1.15.19-.71.11-4.9.51-8.35.49-1.9-.01-3.81.03-5.59-.17-1.48-.17-2.87-.16-4.31.03-1.73.23-3.72.31-5.53.18-5.95-.42-12.03-.31-18.08-.38-1.88-.03-3.76-.07-5.63-.1-.73-.02-1.51-.14-2.15-.1-7.45.46-15.11.21-22.64.41-2.25.06-3.73.05-5.92.23-3.61.29-6.61.07-11.71,0-1.33-.17-2.87-.24-4.26-.38-1.11-.12-2.18-.13-3.29-.05-2.28.18-4.6.26-6.94.31-1.17.02-2.34.04-3.52.06l-.79.02c-.11,0-.22.04-.32.09-.2.1-.35.28-.41.48-.2.55-.4,1.09-.59,1.63-1.23,2.84-2.49,6.31-3.43,9.17-.93,2.86-1.55,5.11-1.62,5.49-.54,1.78-1.13,3.55-1.72,5.3-.45,1.4-.9,2.77-1.35,4.17-.59,1.84-.88,3.66-.99,5.3-.12,1.7-.42,3.46-.99,5.23-1.05,3.11-1.57,6.31-1.75,9.6-.06,1.64-.16,3.27-.38,4.89-.11.81-.23,1.62-.38,2.43-.13.81-.25,1.63-.41,2.46-.26,1.44-.46,2.88-.57,4.33-.11,1.45-.03,2.91.09,4.35.09,1.06.1,2.14.04,3.24-.05,1.1-.07,2.2-.18,3.3-.09,1.03-.26,2.34-.17,3.16.07.95.17,2.45.26,3.76.09,1.32.15,2.45.23,2.67.15.43.18,1.48.2,2.1.11,1.81.33,3.39.55,5.16.24,1.8.7,3.52,1.04,5.37.27,1.45.57,3.28.55,4.43-.03,2.7.76,5.11.9,7.7.11,2.19.33,4.51.52,6.77.24,2.66.47,5.26,1,7.65.27,1.29.31,2.93.35,4.47.02.86.06,2.7.1,4.44.03,1.74.02,3.37-.03,3.8-.39,3.58-.07,7.64-.05,11.44-.01,1.88.12,3.71.07,5.59-.07,1.46-.35,2.94-.46,4.44-.09,1,.16,2.23-.21,3.04-.48,1.03-.58,1.96-.64,3.68-.01,1.03-.02,2.01-.04,3.06-.06,1.05-.19,2.15-.47,3.41l-.13.64c-.04.2-.09.52-.07.43,0,.04.02.07.05.09l.08.04.04.02.02.02h.01s.18.02.18.02c2.1.16,4.57.2,6.74.1,2.75-.13,5.18.35,7.7.16,2.42-.18,4.42.06,6.63.16,4.14.18,8.26.18,12.27-.25,3.98-.42,8.16-.44,12.23-.1,2.96.25,5.88.28,8.96.22,4.14-.07,8.36-.2,12.38.2,1.18.12,2.19,0,3.28-.05,5.64-.23,11.22-.35,16.82.14,1.68.15,3.76.09,5.62.04,1.86-.04,3.69-.19,5.53-.29,3.92.41,8.33.09,12.23.5.11.01.19.02.22.03.04,0,.08.01.12.01.08,0,.16-.01.24-.04.14-.06.27-.16.35-.31.09-.17.12-.36.1-.53.02-.52.09-1.22.18-1.8.9-5.14,1.04-10.42,1.78-15.55.06-2.18-.03-4.35.02-6.55,0-3.75.08-7.58-.17-11.25-.15-2.25-.2-4.29-.27-6.54-.17-6.01-.66-12.04-1.26-18.04-.59-6.01-1.4-11.97-2.28-17.95-.24-1.89-.39-3.8-.54-5.66-.15-1.54-.11-3.13-.39-4.52-.24-1.45-.47-2.93-.56-4.44-.07-1.51-.1-3.04-.13-4.59-.1-8.85.59-17.69,1.83-26.43.39-3.03,1.23-5.8,1.72-8.9.42-2.48.99-5.2,1.84-7.57,1.67-7.08,3.69-14.07,6.05-20.95.74-2.17,1.53-4.33,2.37-6.47.11-.28.22-.55.34-.8.03-.08.07-.06.1-.1.08-.05.14-.15.2-.28.02-.19-.12-.24-.18-.34-.08-.1-.07-.31-.28-.91-.08-.07.05-.31.37-.49.31-.18.81-.21,1.03-.1.79.34,1.35,1.16,1.42,2.05.05.43-.07.93-.19,1.27-.11.32-.23.65-.34.97-.48,1.3-.99,2.69-1.46,4.4-.3,1.19-.74,2.51-1.18,3.86-.43,1.35-.88,2.72-1.25,3.98Z"/>
  <path class="cls-2" d="M51.42,32.88c-.22.59-.06,1.25-.52,1.74-.21.22.09.64-.27.84-.22.12-.19.36-.39.5-.27.19-.27.39-.21.72,0,.19.05.31-.03.68-.07.29-.18.41-.1.77.08.31-.38.64-.34.96.08.64-.38.96-.06,1.72.13.62-.17,1.12-.25,1.6-.16.6-.33,1.21-.53,1.8-.05.14-.18.26-.29.38-.25.25-.27.54-.21.87.11.62-.73,2.17-.66,2.45.1.39-.34,3.03-.45,3.23-.07.14-.21.24-.08.38-.21.2,0,.59-.26.74-.2.45-.29.61-.37,1.18-.07.54-1.04.94-.85,1.5-.22,1.09-.28,1.69-.24,1.97.09.44-.23.5-.14.94.06.32-.09.68-.23.95-.14.27-.26.46-.18.63.08.15.1.29.1.43-.11.04-.27.06-.32.18-.19.43-1.06.35-1.74.1-.18-.06-.33.01-.5.08-.15.07-.37.13-.43.05-.32-.32-.68-.47-1.08-.45l-2.6.12c-.55.02-1.11.06-1.62-.23-.83.06-1.23,0-1.57.09-.41.27-.82-.08-1.19.29-.51.51-.4.42-1.15.4-.14-.15-.56-.33-.69-.12-.4-.14-.76-.05-.79-.07-.62-.4-.5.21-1.15-.26-.35.05-.54-.04-.7.32-.08.19-.23.21-.4.09-.16-.11-.29-.06-.44.05-.62.46-1.4-.19-2.03.22-.38-.09-.77.17-1.15.15-.63-.03-1.25.02-1.84-.36-.16-.1-.47.02-.66.16-.32.22-.6-.2-.9,0-.36.23-.57-.13-.82-.32-.2-.15-.4-.28-.65-.11-.36.24-.76.14-1.15.18-.4.04-.78-.34-1.14-.11-.13.08-.25.11-.38.12-.22,0-.44,0-.66-.02-.44-.02-.85-.04-1.36.17-.7.27-.92-.05-1.54.05-.06-.27-.21-.43-.46-.5-.11-.05-.32-.02-.41-.09.03-.18.05-.34.05-.51,0-.68-.14-1.44.29-2.44.13-.29-.03-.69-.02-1.09.02-.46-.03-.64.02-.88.1-.47.64-.77.62-1.28-.02-.47.12-.79.1-1.26-.01-.32.33-.83.4-1.14.14-.69-.36-1.4.3-1.9.07-.3.26-.6.07-.93-.25-.41-.2-.77.11-1.1.06-.06.14-.14.13-.2-.1-.49-.16-.96.26-1.34.01-.4.11-.75.34-1.1.22-.33-.17-.81.14-1.15.24-.27.23-.57.15-.9-.08-.33.03-.62.2-.91.12-.2.28-.43.26-.64-.12-1.24.15-2.36.88-3.39.28-.38.28-.81.38-1.27-.09-.42.12-.61.48-.71.18-.05.11-.19-.04-.37-.21-.72.6-1.02.56-1.37-.06-.49-.02-.95.38-1.33.17-.15.33-.42.29-.62-.11-.44.03-.75.29-1.09.18-.23.31-.47.37-.73.04-.15.03-.23.05-.45.02-.23.03-.48.01-.75-.02-.44.05-.9.17-1.35.06-.22.13-.45.2-.67l.11-.33s.03-.12.06-.15h.17c.6,0,1.24.1,1.82.16.29.03.58.04.86.03.14,0,.28-.02.43-.04.11-.02.16-.06.25-.1.06-.04.16-.02.23.02.84.41,1.67.46,2.51-.06.18-.11.49-.1.69,0,.69.33,1.36.42,2.05,0,.13-.08.33-.09.46-.03,1.07.54,2.17.3,3.26.25.87-.04,1.73-.04,2.59.12.23.04.45.1.68,0,.62-.27,1.23-.23,1.84.05.38.18.78.18,1.15-.01.62-.31,1.21-.28,1.83.02.29.14.61.23.92.22.78-.03,1.57.24,2.34.05.79-.2,1.56.14,2.34.01.46-.07.9-.41,1.37-.22.47.19.92.07,1.38,0,.41-.06.75.26,1.09.48.37.24.48,1.63.18,2.01-.02.02-.19.24-.24.19-.15.11-1.02.51-1.73.49-.39-.01-.79.03-1.16-.17-.31-.17-.6-.16-.89.03-.36.23-.77.31-1.15.18-1.23-.42-2.5-.31-3.75-.38-.39-.02-.78-.06-1.17-.1-.15-.02-.31-.14-.45-.1-1.55.46-3.14.21-4.7.41-.47.06-.77.05-1.23.23-.75.29-1.37.07-2.43,0-.28-.17-.6-.24-.88-.38-.23-.12-.45-.13-.68-.05-1.07.41-2.18.31-3.27.5-1.3-.21-3.09-.11-3.25,0h-.14s-.05-.02-.05-.02l-.11-.04-.26-.11-.26-.12-.15-.07s-.05.03-.08.05c-.13.12-.14.42.07.67.1.16.2.14.15.38-.03.18-.13.35-.29.5-.56.53-.79,1.16-.63,1.93.16.76-.07,1.39-.58,1.97-.44.5-.6,1.09-.4,1.77.15.5-.05.93-.37,1.31-.15.18-.4.39-.36.58.07.43-.3,1.22-.21,1.34.1.12,0,.32-.05.44-.14.35-.26.67-.34,1.03-.09.37.05.79.01,1.17-.03.3-.08.68-.3.87-.53.43-.15,1.05-.42,1.53-.23.41-.36.86-.48,1.31-.14.53-.2,1.06.03,1.63.13.3,0,.62-.12.91-.14.33-.43,1.45-.58,1.59-.62.61-.48,1.5-.54,2.27-.03.38.09.79.04,1.17-.04.29-.28.56-.36.85-.05.2.26.51-.07.62-.21.06-.34.18-.39.23-.04.02-.02.08.05.11.17.12.57-.01.37.09-.14.11.13-.05-.04.1-.16.16-.07.2.05.1.07-.06.05.03.08.11.01.04.03.08.06.09.01,0,.03.01.04,0,.06,0,.13-.02.19-.04.5-.18.92.06,1.38.16.86.18,1.71.18,2.55-.25.83-.42,1.69-.45,2.54-.1.62.25,1.22.28,1.86.22.86-.07,1.74-.2,2.57.2.24.12.45,0,.68-.05,1.17-.23,2.33-.35,3.49.14.35.15.78.09,1.17.04.39-.04.77-.19,1.15-.29.81.41,1.73.09,2.54.5.17.08.29.09.44,0,.21-.11.44-.26.66-.25.55.03,1.1-.06,1.65-.09.27-.02.55-.02.82,0,.14.01.27.04.41.07l.1.03.04.03.08.08c.17-.1.24-.23.32-.28.02-.01.04-.02.06-.03,0-.28.07-.52-.04-.76l-.02-.06s0-.11,0-.16c0-.12.02-.23.04-.34.04-.22.09-.44.15-.67.32-1.23.54-2.49.81-3.73.27-1.24.54-2.49.85-3.72.1-.38.28-.74.46-1.1.15-.29.28-.6.2-.91-.16-.66-.02-1.27.12-1.9l1.21-5.36c.14-.62.58-1.11.67-1.77.07-.52.21-1.08.63-1.5.42-1.45.86-2.9,1.31-4.33.14-.45.29-.91.45-1.35.09-.24.29-.39.55-.45.29-.14-.09-.39,1.07-.15.15,0,.83.46.89.58.39.77-.1,1.12-.04,1.91.03.54-.26,1.13-.36,1.67Z"/>
  <path class="cls-2" d="M38.23,107.11c-.64-.03-1.23.31-1.85.02-.28-.13-.59.27-.89-.02-.18-.18-.41-.08-.6-.23-.26-.2-.46-.15-.76,0-.18.06-.29.14-.68.16-.3.02-.45-.06-.78.12-.28.16-.73-.19-1.03-.06-.61.25-1.04-.1-1.7.41-.58.28-1.15.13-1.64.18-.64,0-1.28-.02-1.91-.06-.15,0-.3-.11-.44-.19-.31-.18-.6-.14-.91,0-.59.27-2.32-.2-2.58-.06-.36.2-3.08.35-3.31.28-.15-.04-.29-.15-.4,0-.24-.16-.59.12-.8-.1-.49-.1-.67-.16-1.25-.12-.58.04-1.09-.82-1.72-.53-1.5,0-2.48.05-2.8.15-.22-.23.05-.69-.16-.95-.14-.2-.12-.69-.08-1.07.04-.39.09-.69-.03-.74-.13-.04-.19-.18-.23-.28-.04-.09-.08-.18-.19-.25-.46-.27-.42-.71-.22-1.15.1-.22-.35-.41-.19-.61.29-.35.41-.73.35-1.14-.12-.88-.23-1.75-.32-2.63-.05-.56-.13-1.13.14-1.66-.11-.84-.05-1.25-.17-1.59-.29-.41.04-.83-.33-1.2-.52-.5-.43-.39-.44-1.17.15-.15.31-.58.11-.71.14-.41.04-.77.06-.81.39-.64-.22-.51.24-1.17-.04-.36.04-.55-.32-.72-.19-.08-.21-.23-.09-.41.11-.16.07-.29-.05-.45-.46-.64.2-1.42-.2-2.08.1-.39-.15-.79-.12-1.19.05-.64.01-1.28.42-1.87.11-.16,0-.48-.13-.68-.21-.34.23-.6.05-.92-.22-.38.16-.57.36-.82.16-.2.3-.39.14-.66-.22-.38-.09-.79-.1-1.18-.02-.41.39-.77.19-1.15-.14-.27-.08-.53-.04-.79.02-.16.04-.2.04-.45,0-.21-.03-.44-.11-.67-.21-.65.13-.94.09-1.54.28-.12.45-.3.55-.57.06-.12.05-.32.13-.44.18,0,.36-.02.53-.05.71-.13,1.53-.4,2.53-.16.37.07.53-.15.79-.22.23-.07.46-.15.69-.15.48,0,.89.48,1.38.36.46-.11.8-.04,1.26-.15.31-.08.88.16,1.2.15.71,0,1.29-.65,1.93-.12.31,0,.64.12.92-.14.35-.33.71-.37,1.1-.14.07.04.17.11.22.08.45-.21.9-.38,1.37-.06.39-.08.76-.07,1.15.07.38.13.74-.36,1.15-.14.32.17.61.08.91-.07.3-.16.61-.13.93-.03.22.07.49.17.69.09,1.17-.43,2.32-.48,3.51-.04.44.16.86.04,1.33.02.38-.2.62-.06.82.26.1.16.21.06.34-.14.63-.4,1.15.28,1.47.14.45-.2.91-.3,1.39-.02.34.11.84.19,1.16.09.75-.24,1.4-.2,1.98-.05.2.05.39.09.6.11.1.01.21.02.32.02h.17s.15-.03.12.05c-.02.43.05.79.22,1.13.27.57.14,1.6.06,2.51-.01.15-.03.3-.05.45l-.04.21-.03.11-.13.45c-.08.3-.11.6.05.93.03.06,0,.16-.03.23-.47.81-.57,1.64-.09,2.5.1.19.08.49-.03.69-.36.67-.48,1.34-.08,2.04.07.13.08.33.02.46-.57,1.05-.35,2.16-.32,3.25.03.87.03,1.73-.12,2.58-.04.23-.09.45.01.68.28.61.25,1.22-.01,1.84-.17.39-.16.79.05,1.15.34.61.33,1.2.06,1.83-.12.29-.2.62-.17.92.07.78-.15,1.58.1,2.34.25.77,0,1.56.18,2.33.11.45.5.85.36,1.34-.14.49.02.92.15,1.37.11.4-.17.77-.35,1.14-.19.4-1.56.69-1.97.43-.03-.02-.26-.16-.22-.22-.13-.13-.63-.97-.69-1.7-.03-.4-.12-.8.04-1.2.13-.33.09-.62-.12-.91-.27-.34-.37-.76-.28-1.15.31-1.29.12-2.57.11-3.85,0-.4.01-.8.04-1.19.01-.15.13-.33.08-.46-.54-1.56-.31-3.19-.53-4.78-.07-.48-.05-.79-.23-1.25-.29-.77-.07-1.4.02-2.48.18-.28.24-.6.4-.89.12-.23.15-.46.07-.69-.38-1.1-.24-2.24-.37-3.35.27-1.31.29-3.14.19-3.31.04-.4.15-.79.26-1.17l.07-.23c.03-.07.05-.07.07-.12.05-.07.1-.15.14-.23.1-.22.04-.45-.24-.39-.33.08-.27,0-.24-.17.12-.37-.42-.4-.69-.03,0,.09-.27.16-.42.21-.17.04-.35.06-.52.06-.35,0-.7-.09-1.05-.25-.62-.28-1.23-.27-1.84.11-.45.28-.92.21-1.39,0-.22-.09-.5-.27-.67-.19-.4.19-1.28.03-1.37.16-.09.13-.32.09-.45.07-.39-.05-.73-.08-1.11-.06-.39.01-.76.25-1.15.31-.31.05-.69.1-.93-.07-.56-.4-1.08.11-1.62-.04-.46-.12-.94-.14-1.42-.15-.56-.01-1.1.05-1.61.41-.27.19-.61.14-.93.09-.36-.06-1.54-.1-1.72-.21-.75-.48-1.59-.14-2.38-.05-.39.05-.77.25-1.16.28-.3.02-.61-.17-.93-.19-.21-.01-.46.35-.63.05-.22-.39-.42-.42-.77-.26-.08.05-.26.11-.27.16-.02.06-.02.12-.03.16,0,.09.01.14-.04.05-.1-.12.04.12-.1-.02-.15-.13-.2-.02-.11.07.03.03.02.04,0,.05-.01,0-.03,0-.05.02l-.03.02-.04.09c-.1.26-.19.51-.12.77.14.51-.13.91-.25,1.36-.24.85-.28,1.7.1,2.56.38.84.37,1.71,0,2.54-.27.6-.31,1.21-.28,1.85.06.86.16,1.73-.23,2.57-.12.24,0,.45.05.68.23,1.17.37,2.32-.1,3.49-.14.35-.07.78-.01,1.17.06.38.22.76.34,1.13-.38.83,0,1.73-.37,2.56-.08.17-.08.29.02.44.13.2.29.42.29.64,0,1.1.52,2.16.16,3.28.14.44.32.88.42,1.33l.06.28.03.08.04.13c.03.08.07.16.15.14.16-.09.2-.1.26-.06.02.01.04.02.07.03h.04s.2.01.2.01h.96s1.91,0,1.91,0c1.27,0,2.55-.02,3.82,0,.39,0,.79.1,1.18.19.32.08.65.14.94-.02.6-.31,1.23-.33,1.87-.35,1.83-.06,3.66-.12,5.49-.21.63-.03,1.23.25,1.88.16.52-.08,1.1-.11,1.62.18l4.54-.03c.48,0,.95,0,1.43.02.25,0,.46.15.6.38.22.23.35-.21.48.97.05.14-.18.93-.27,1.02-.61.61-1.1.26-1.85.55-.51.2-1.18.1-1.73.17Z"/>
  <path class="cls-2" d="M42.49,154.42c-.64-.03-1.23.31-1.85.02-.28-.13-.6.27-.89-.02-.18-.18-.41-.08-.6-.23-.26-.2-.46-.15-.76,0-.18.06-.29.14-.68.16-.3.02-.45-.06-.78.12-.28.16-.73-.19-1.03-.06-.61.25-1.04-.1-1.7.41-.58.28-1.15.13-1.64.18-.64,0-1.28-.02-1.91-.06-.15,0-.3-.11-.44-.19-.31-.18-.6-.14-.91,0-.59.27-2.32-.2-2.58-.06-.36.2-3.08.35-3.31.28-.15-.04-.29-.15-.4,0-.24-.16-.59.12-.8-.1-.49-.1-.67-.16-1.25-.12-.28.02-.56-.19-.85-.36-.14-.09-.28-.17-.42-.2-.17-.04-.35-.04-.54.04-1.5,0-2.49.05-2.81.15-.18-.25.13-.7-.05-.97-.12-.2-.04-.69.04-1.08.08-.39.16-.7.04-.74-.12-.05-.17-.17-.2-.3-.02-.07-.04-.13-.06-.21-.03-.05-.06-.09-.11-.12-.44-.31-.36-.73-.13-1.14.12-.21-.32-.43-.15-.61.31-.33.45-.69.42-1.1l-.21-2.61c-.04-.55-.11-1.11.16-1.64-.1-.83-.05-1.24-.17-1.58-.29-.4.04-.83-.35-1.18-.54-.48-.44-.37-.47-1.13.15-.15.3-.59.08-.7.11-.41,0-.76.02-.8.35-.65-.24-.49.18-1.17-.07-.35,0-.55-.37-.68-.19-.07-.23-.21-.12-.39.1-.17.04-.29-.08-.44-.51-.59.08-1.41-.38-2.02.06-.39-.23-.76-.24-1.14-.02-.63-.13-1.25.2-1.88.09-.17-.07-.47-.21-.65-.25-.3.14-.62-.08-.9-.27-.33.08-.58.24-.85.13-.22.24-.42.04-.66-.28-.34-.21-.75-.3-1.13-.08-.4.26-.81,0-1.15-.09-.12-.14-.24-.16-.37-.02-.13-.02-.23-.04-.49-.02-.45-.06-.86-.32-1.34-.34-.65-.06-.93-.22-1.54.26-.12.39-.3.44-.57.04-.12-.02-.32.04-.44.18,0,.35-.02.52-.05.69-.13,1.45-.4,2.5-.16.3.07.71-.15,1.09-.22.23-.07.46-.15.69-.15.48,0,.89.48,1.38.36.46-.11.8-.04,1.26-.15.31-.08.88.16,1.2.15.71,0,1.29-.65,1.93-.12.31,0,.64.12.92-.14.35-.33.71-.37,1.1-.14.07.04.17.11.22.08.45-.21.9-.38,1.37-.06.39-.08.76-.07,1.15.07.38.13.74-.36,1.15-.14.32.17.61.08.91-.07.3-.16.61-.13.93-.03.22.07.49.17.69.09,1.17-.43,2.32-.48,3.51-.04.44.16.86.04,1.33.02.38-.2.62-.06.82.26.1.16.21.06.34-.14.63-.4,1.15.28,1.47.14.45-.2.91-.3,1.39-.02.2.11.45.19.84.09.71-.24,1.37-.2,1.97-.05.21.05.41.09.62.11.11.01.21.02.33.02h.17c.06,0,.13-.01.11.06.07.43.21.79.44,1.13.19.28.31.68.39,1.12.04.22.07.45.1.68l.06.6c.06.62-.27,1.27.15,1.87.04.06.03.16,0,.24-.32.9-.29,1.73.31,2.53.13.18.15.48.07.7-.26.73-.3,1.42.19,2.08.09.12.12.33.07.46-.44,1.13-.12,2.23.01,3.33.1.88.17,1.75.07,2.64-.03.24-.07.46.05.69.32.61.31,1.24.07,1.88-.16.4-.13.8.08,1.17.34.61.34,1.22.08,1.86-.12.3-.2.63-.17.94.07.79-.18,1.6.05,2.38.23.79-.08,1.59.07,2.38.09.46.44.9.26,1.39-.18.48-.05.93.03,1.4.07.42-.25.77-.46,1.12-.23.38-1.62.51-2.01.21-.02-.02-.24-.19-.19-.24-.12-.15-.52-1.02-.52-1.74,0-.4-.05-.79.14-1.17.16-.31.15-.6-.06-.9-.25-.35-.33-.77-.22-1.15.38-1.26.23-2.53.23-3.79,0-.39.02-.79.05-1.18,0-.15.12-.32.08-.46-.54-1.53-.38-3.15-.69-4.71-.09-.47-.1-.77-.31-1.22-.34-.73-.17-1.37-.19-2.44.15-.29.19-.62.31-.92.1-.24.1-.47-.01-.69-.49-1.04-.5-2.17-.79-3.24.09-1.32-.2-3.1-.33-3.25-.02-.39.01-.79.05-1.18.01-.16.04-.31.07-.47l.04-.24.04-.13c.06-.22-.05-.44-.32-.39-.31.08-.27,0-.27-.17.02-.19-.1-.29-.26-.29-.08,0-.16.02-.24.06-.05.02-.05.05-.14.08-.09.03-.17.08-.26.12-.69.38-1.38.34-2.09.02-.62-.28-1.23-.27-1.84.11-.45.28-.92.21-1.39,0-.22-.09-.5-.27-.67-.19-.4.19-1.28.03-1.37.16-.09.13-.32.09-.45.07-.39-.05-.73-.08-1.11-.06-.39.01-.76.25-1.15.31-.31.05-.69.1-.93-.07-.56-.4-1.08.11-1.62-.04-.46-.12-.94-.14-1.42-.15-.56-.01-1.1.05-1.61.41-.27.19-.61.14-.93.09-.36-.06-1.54-.1-1.72-.21-.75-.48-1.59-.14-2.38-.05-.39.05-.77.25-1.16.28-.3.02-.61-.17-.93-.19-.21-.01-.46.35-.63.05-.11-.19-.21-.3-.34-.33-.06-.02-.13-.02-.2,0-.05.01-.05.04-.07.08-.11.19.06.56-.06.38-.13-.12.06.12-.1-.02-.18-.13-.21-.02-.1.07.07.06-.02.05-.1.1-.04.04-.08,0-.08.12,0,.13.02.26.08.39.24.49.04.94-.01,1.41-.09.89,0,1.75.5,2.56.5.8.6,1.68.34,2.56-.2.65-.17,1.26-.07,1.9.14.87.34,1.75,0,2.62-.1.26.04.46.1.69.31,1.17.51,2.34.09,3.55-.13.36-.04.8.02,1.19.07.39.23.77.35,1.15-.36.85,0,1.76-.38,2.6-.08.17-.08.29.01.45.12.21.27.44.27.66-.02,1.11.43,2.23,0,3.34.11.46.25.92.31,1.39.01.13.02.14.03.16l.02.07.03.13c.02.08.05.16.14.14.17-.09.21-.1.26-.06.04.02.09.03.14.04h.92s1.91,0,1.91,0c1.27,0,2.55-.02,3.82,0,.39,0,.79.1,1.18.19.32.08.65.14.94-.02.6-.31,1.23-.33,1.87-.35,1.83-.06,3.66-.12,5.49-.21.63-.03,1.23.25,1.88.16.52-.08,1.1-.11,1.62.18l4.54-.03c.48,0,.95,0,1.43.02.25,0,.46.15.6.38.22.23.35-.21.48.97.05.14-.18.93-.27,1.02-.61.61-1.11.26-1.85.55-.51.2-1.18.1-1.73.17Z"/>
  <g>
    <path class="cls-1" d="M51.9,28.47l-21.57,24.41c-1.06,1.2-2.96,1.14-3.93-.14l-6.79-14.49c-.45-.58.21-1.37.86-1.04l8.07,10.39,22.95-19.57c.29-.23.66.16.41.44Z"/>
    <path class="cls-1" d="M50.42,31.38c-.37.38-.49.92-.99,1.14-.23.1-.17.5-.49.54-.2.02-.27.21-.46.25-.26.05-.33.2-.41.47-.06.14-.08.25-.27.5-.15.19-.28.25-.35.54-.06.26-.51.35-.6.6-.18.5-.63.59-.69,1.25-.15.5-.55.77-.79,1.1-.35.39-.7.77-1.07,1.14-.09.09-.23.13-.35.17-.27.1-.4.3-.49.56-.16.5-1.37,1.32-1.43,1.56-.08.32-1.47,2.07-1.63,2.18-.11.07-.24.1-.22.25-.23.07-.25.43-.49.44-.33.25-.46.33-.75.71-.28.36-1.1.28-1.21.75-.6.68-.94,1.13-.97,1.28-.05.26-.3.18-.36.44-.07.36-.82.53-.74.71.09.19-.1.29-.06.49.08.42-.2.63-.57.76-.19.06-.06.43-.26.45-.36.03-.64.18-.86.44l-1.36,1.67c-.29.35-.57.72-1.02.89-.42.54-.65.75-.9,1.08-.22.48-.76.46-1.05.85-.47.53-.4.5-1.34.5-.18-.12-.65-.33-.84-.23-.44-.23-.84-.39-.87-.43-.24-.33-.37-.39-.51-.46-.13-.07-.32-.21-.43-.63-.27-.41-.24-.56-.55-.56-.16,0-.23-.1-.2-.27.02-.16-.06-.24-.19-.31-.54-.31-.36-1.11-.87-1.45-.07-.32-.39-.52-.51-.82-.2-.48-.46-.93-.4-1.5.02-.15-.29-.57-.5-.79-.39-.42-.2-.81-.56-1.22-.45-.53-.24-.75-.18-.98.03-.2.08-.34-.26-.75-.48-.59-.6-1.05-.88-1.57-.31-.58.02-.59-.51-1.3-.27-.37-.4-.63-.5-.86-.11-.24-.11-.37-.35-.73-.09-.14-.12-.22-.21-.36-.09-.13-.18-.27-.29-.43-.53-.78-.03-.37-.21-.76.83.76.88.63.68.17-.11-.24-.25-.54-.33-.75-.07-.2-.08-.31.03-.27.07.02-.17-.4-.23-.55-.06-.16-.13-.32-.12-.39,0-.06.1,0,.16.01.08,0,.05.05.07-.14.05-.32.35-.55.68-.77.11-.06.3-.12.45-.01.15.18.31.36.42.49.42.47.63.41,1.17,1.23.2.21.42.52.56.53.17,0,.42.24.69.66.05.08.11.19.15.21.28.17.59.38.88.9.26.22.5.48.74.84.22.34.54.3.77.7.17.32.37.47.62.59.25.12.45.35.62.63.12.19.26.43.42.53.47.29.93.63,1.33,1.04.2.2.39.42.56.64.02.08-.05.1-.06.21-.03.16.05.12.08.13,0-.03.01-.05.02-.07.02-.1.02.05.06.29.03.15.05.02.03-.17-.03-.39.17.15.3-.11.18-.36.42-.66.85-.75.18-.04.41-.16.47-.31.13-.35.35-.5.68-.63.44-.17.78-.45.91-.96.1-.41.43-.65.73-.9.39-.33.97-.42,1.18-.96.02-.05.09-.1.16-.11.74-.21,1.29-.62,1.55-1.38.06-.17.26-.32.43-.38.6-.18,1.07-.48,1.29-1.1.04-.11.16-.23.27-.26.94-.25,1.52-.99,2.19-1.6.53-.49,1.07-.96,1.69-1.32.17-.1.33-.18.43-.37.25-.5.66-.8,1.19-.96.33-.1.58-.32.72-.63.24-.52.63-.82,1.17-.98.25-.07.5-.19.69-.36.48-.44,1.11-.7,1.5-1.23.4-.54,1.05-.76,1.48-1.25.25-.29.36-.73.76-.87.39-.14.61-.45.87-.74.06-.06.12-.11.2-.15.03-.02.02,0,.07-.04.09-.06.18-.11.27-.15.19-.08.39-.12.6-.12.88.03,1.33.64,1.41,1.23.05.35-.13.64-.32.73-.19.1-.37.05-.51-.03-.14-.08-.26-.21-.36-.31-.06-.05-.12-.09-.08-.06,0,0,.03.01.03.01.02,0-.01,0-.03,0-.01,0-.02.02,0,0,.03-.03-.02-.08.06.04h0s0,0,0,0c-.08-.09.66.81.35.43h0s0,0,0,0h0s0,0,0,0v.02s-.04.05-.04.05l-.06.09-.14.18c-.1.12-.21.23-.32.33-.25.2-.48.44-.81.52-.27.07-.45.22-.55.5-.11.33-.34.6-.64.72-.98.41-1.73,1.15-2.55,1.79-.26.2-.52.38-.79.57-.1.07-.27.09-.33.18-.75,1.11-1.88,1.81-2.76,2.77-.26.29-.46.45-.66.8-.33.57-.83.78-1.53,1.31-.26.05-.49.18-.75.25-.2.05-.35.16-.45.34-.47.81-1.22,1.36-1.81,2.05-.92.57-2,1.59-2.04,1.75-.25.2-.54.36-.82.52-.22.13-.47.22-.7.35-.3.17-.5.42-.57.77-.08.36-.29.59-.64.67-.62.15-1.06.49-1.3,1.08-.12.29-.29.53-.51.71-.11.09-.23.17-.36.24-.12.06-.4.24-.6.32-.75.36-1.24.78-1.92,1.75l-.09.12c-.4-.23-.82-.87-1.12-1.5-.16-.32-.29-.72-.47-.85-.11-.08-.24-.21-.35-.34-.03-.02-.06-.06-.08-.09-.05-.06-.09-.12-.12-.08-.07.08-.08,0-.09-.03-.04-.11-.09-.22-.16-.28-.07-.07-.11.17-.14.22-.02.03-.03.08-.11-.24-.1-.39-.15-.41-.15-.33,0,.07.03.22-.05.03-.14-.34-.24-.48-.31-.59-.09-.13-.14-.11.3.9.24.55.17.39.07.2-.1-.18-.41-.76-.47-.88-.48-.92-.63-1.16-.61-1.08.02.06.2.44.25.66.05.21.57,1.1.65,1.2.05.08-.42-.59-.46-.63-.02-.01.89,1.25.15.23-.93-1.27-.97-1.3-.57-.74.49.69,1.28,1.72.91,1.25-.23-.28.27.35-.02,0-.31-.35-.34-.34-.14-.11.1.12.02.04-.07-.04-.14-.12-.3-.24-.1-.03.3.31-.04.03-.11.05-.16-.02.02.36.47.53.22.08.31.06.32.06-.02-.07.06.15.11.32.05.17.08.35.09.54.04.54.24,1.01.5,1.47.35.62.75,1.24.76,2,0,.22.16.34.28.49.09.14.1.11.13.14.03.01.06.02.09.03.05,0,.17.09.24.12.17.1.33.21.59.39.16.1.36,0,.49-.1.14-.11.2-.29.24-.45.64-.23.99-1.01,1.66-1.29.14-.06.21-.13.25-.27.05-.19.09-.41.22-.54.64-.65,1.01-1.54,1.87-1.98.19-.33.37-.68.59-.99.38-.53.85-1,1.17-1.57.2-.35.43-.61.71-.89.74-.74,1.4-1.55,2.09-2.33l2.08-2.34c.22-.24.49-.43.75-.62.22-.16.43-.33.5-.58.15-.53.48-.92.82-1.33l2.86-3.48c.32-.41.81-.62,1.11-1.08.24-.36.53-.73.98-.9l2.45-2.8.79-.87c.14-.15.34-.21.55-.17.26-.02.07-.32.82.2.11.04.45.59.45.69.02.69-.45.81-.69,1.42-.16.42-.58.78-.84,1.15Z"/>
  </g>
  <g>
    <path class="cls-1" d="M44.68,76.4l-21.57,24.41c-1.06,1.2-2.96,1.14-3.93-.14l-6.79-14.49c-.45-.58.21-1.37.86-1.04l8.07,10.39,22.95-19.57c.29-.23.66.16.41.44Z"/>
    <path class="cls-1" d="M43.19,79.31c-.37.38-.49.92-.99,1.14-.23.1-.17.5-.49.54-.2.02-.27.21-.46.25-.26.05-.33.2-.41.47-.06.14-.08.25-.27.5-.15.19-.28.25-.35.54-.06.26-.51.35-.6.6-.18.5-.63.59-.69,1.25-.15.5-.55.77-.79,1.1-.35.39-.7.77-1.07,1.14-.09.09-.23.13-.35.17-.27.1-.4.3-.49.56-.16.5-1.37,1.32-1.43,1.56-.08.32-1.47,2.07-1.63,2.18-.11.07-.24.1-.22.25-.23.07-.25.43-.49.44-.33.25-.46.33-.75.71-.28.36-1.1.28-1.21.75-.6.68-.94,1.13-.97,1.28-.05.26-.3.18-.36.44-.07.36-.82.53-.74.71.09.19-.1.29-.06.49.08.42-.2.63-.57.76-.19.06-.06.43-.26.45-.36.03-.64.18-.86.44l-1.36,1.67c-.29.35-.57.72-1.02.89-.42.54-.65.75-.9,1.08-.22.48-.76.46-1.05.85-.47.53-.4.5-1.34.5-.18-.12-.65-.33-.84-.23-.44-.23-.84-.39-.87-.43-.24-.33-.37-.39-.51-.46-.13-.07-.32-.21-.43-.63-.27-.41-.24-.56-.55-.56-.16,0-.23-.1-.2-.27.02-.16-.06-.24-.19-.31-.54-.31-.36-1.11-.87-1.45-.07-.32-.39-.52-.51-.82-.2-.48-.46-.93-.4-1.5.02-.15-.29-.57-.5-.79-.39-.42-.2-.81-.56-1.22-.45-.53-.24-.75-.18-.98.03-.2.08-.34-.26-.75-.48-.59-.6-1.05-.88-1.57-.31-.58.02-.59-.51-1.3-.27-.37-.4-.63-.5-.86-.11-.24-.11-.37-.35-.73-.09-.14-.12-.22-.21-.36-.09-.13-.18-.27-.29-.43-.53-.78-.03-.37-.21-.76.83.76.88.63.68.17-.11-.24-.25-.54-.33-.75-.07-.2-.08-.31.03-.27.07.02-.17-.4-.23-.55-.06-.16-.13-.32-.12-.39,0-.06.1,0,.16.01.08,0,.05.05.07-.14.05-.32.35-.55.68-.77.11-.06.3-.12.45-.01.15.18.31.36.42.49.42.47.63.41,1.17,1.23.2.21.42.52.56.53.17,0,.42.24.69.66.05.08.11.19.15.21.28.17.59.38.88.9.26.22.5.48.74.84.22.34.54.3.77.7.17.32.37.47.62.59.25.12.45.35.62.63.12.19.26.43.42.53.47.29.93.63,1.33,1.04.2.2.39.42.56.64.02.08-.05.1-.06.21-.03.16.05.12.08.13,0-.03.01-.05.02-.07.02-.1.02.05.06.29.03.15.05.02.03-.17-.03-.39.17.15.3-.11.18-.36.42-.66.85-.75.18-.04.41-.16.47-.31.13-.35.35-.5.68-.63.44-.17.79-.45.91-.96.1-.41.43-.65.73-.9.39-.33.97-.42,1.18-.96.02-.05.09-.1.16-.11.74-.21,1.29-.62,1.55-1.38.06-.17.26-.32.43-.38.6-.18,1.07-.48,1.29-1.1.04-.11.16-.23.28-.26.94-.25,1.52-.99,2.19-1.6.53-.49,1.07-.96,1.69-1.32.17-.1.33-.18.43-.37.25-.5.66-.8,1.19-.96.33-.1.58-.32.72-.63.24-.52.63-.82,1.17-.98.25-.07.5-.19.69-.36.48-.44,1.11-.7,1.5-1.23.4-.54,1.05-.76,1.48-1.25.25-.29.36-.73.76-.87.39-.14.61-.45.87-.74.06-.06.12-.11.2-.15.03-.02.02,0,.07-.04.09-.06.18-.11.27-.15.19-.08.39-.12.6-.12.88.03,1.33.64,1.41,1.23.05.35-.13.64-.32.73-.19.1-.37.05-.51-.03-.14-.08-.26-.21-.36-.31-.06-.05-.12-.09-.08-.06,0,0,.03.01.03.01.02,0-.01,0-.03,0-.01,0-.02.02,0,0,.03-.03-.02-.08.06.04h0s0,0,0,0c-.08-.09.66.81.35.43h0s0,0,0,0h0s0,0,0,0v.02s-.04.05-.04.05l-.06.09-.14.18c-.1.12-.21.23-.32.33-.25.2-.48.44-.81.52-.27.07-.45.22-.55.5-.11.33-.34.6-.63.72-.98.41-1.73,1.15-2.55,1.79-.26.2-.52.38-.79.57-.1.07-.27.09-.33.18-.75,1.11-1.88,1.81-2.76,2.77-.26.29-.46.45-.66.8-.33.57-.83.78-1.53,1.31-.26.05-.49.18-.75.25-.2.05-.35.16-.45.34-.47.81-1.22,1.36-1.81,2.05-.92.57-2,1.59-2.04,1.75-.25.2-.54.36-.82.52-.22.13-.47.22-.7.35-.3.17-.5.42-.57.77-.08.36-.29.59-.64.67-.62.15-1.06.49-1.3,1.08-.12.29-.29.53-.51.71-.11.09-.23.17-.36.24-.12.06-.4.24-.6.32-.75.36-1.24.78-1.92,1.75l-.09.12c-.4-.23-.82-.87-1.12-1.5-.16-.32-.29-.72-.47-.85-.11-.08-.24-.21-.35-.34-.03-.02-.06-.06-.08-.09-.05-.06-.09-.12-.12-.08-.07.08-.08,0-.09-.03-.04-.11-.09-.22-.16-.28-.07-.07-.11.17-.14.22-.03.03-.03.08-.11-.24-.1-.39-.15-.41-.15-.33,0,.07.03.22-.05.03-.14-.34-.24-.48-.31-.59-.09-.13-.14-.11.3.9.24.55.17.39.07.2-.1-.18-.41-.76-.47-.88-.48-.92-.63-1.16-.61-1.08.02.06.2.44.25.66.05.21.57,1.1.65,1.2.05.08-.42-.59-.46-.63-.02-.01.89,1.25.15.23-.93-1.27-.97-1.3-.57-.74.49.69,1.28,1.72.91,1.25-.23-.28.27.35-.02,0-.31-.35-.34-.34-.14-.11.1.12.02.04-.07-.04-.14-.12-.3-.24-.1-.03.3.31-.04.03-.11.05-.16-.02.02.36.47.53.22.08.31.06.32.06-.02-.07.06.15.11.32.05.17.08.35.09.54.04.54.24,1.01.5,1.47.35.62.75,1.24.76,2,0,.22.16.34.28.49.09.14.1.11.13.14.03.01.06.02.09.03.05,0,.17.09.24.12.17.1.33.21.59.39.16.1.36,0,.49-.1.14-.11.2-.29.24-.45.64-.23.99-1.01,1.66-1.29.14-.06.21-.13.25-.27.05-.19.09-.41.22-.54.64-.65,1.01-1.54,1.87-1.98.19-.33.37-.68.59-.99.38-.53.85-1,1.17-1.57.2-.35.43-.61.71-.89.74-.74,1.4-1.55,2.09-2.33l2.08-2.34c.22-.24.49-.43.75-.62.22-.16.43-.33.5-.58.15-.53.48-.92.82-1.33l2.86-3.48c.32-.41.81-.62,1.11-1.08.24-.36.53-.73.98-.9l2.45-2.8.79-.87c.14-.15.34-.21.55-.17.26-.02.07-.32.82.2.11.04.45.59.45.69.02.69-.45.81-.69,1.42-.16.42-.58.78-.84,1.15Z"/>
  </g>
  <g>
    <polygon class="cls-2" points="127.79 84.44 125.54 94.02 135.65 90.7 127.79 84.44"/>
    <g>
      <polyline class="cls-1" points="185.02 19.47 133.87 72.64 129.86 84.15 134.58 88.68 144.58 84.33 208.89 15.64 210.08 8.82 203.48 2.5 195.78 6.07 165.93 38.16"/>
      <path class="cls-1" d="M180.18,26.59c-1.01.99-1.56,2.25-2.79,2.94-.56.31-.64,1.2-1.38,1.4-.46.12-.7.57-1.15.73-.59.21-.84.58-1.15,1.21-.22.34-.3.6-.87,1.23-.44.49-.76.66-1.06,1.34-.27.6-1.31.98-1.64,1.57-.67,1.2-1.69,1.55-2.19,3.08-.6,1.18-1.62,1.94-2.33,2.77-.97,1.01-1.96,2-2.97,2.97-.24.23-.57.38-.87.52-.65.31-1.04.82-1.38,1.45-.63,1.19-3.73,3.49-3.99,4.04-.35.76-4.35,5.22-4.77,5.52-.27.2-.59.31-.61.63-.53.23-.78,1.05-1.31,1.17-.85.68-1.18.91-2.03,1.87-.81.92-2.56,1.03-3.06,2.13-1.68,1.75-2.68,2.89-2.83,3.23-.26.61-.76.52-1.02,1.13-.36.84-2.1,1.5-2.01,1.87.09.4-.37.7-.4,1.13-.06.91-.79,1.51-1.65,1.92-.45.21-.36.99-.81,1.1-.22,0-.35-.03-.54.02-.12.07-.21.13-.32.31-.13.24-.24.51-.33.79l-1.75,5.5c-.19.58-.37,1.17-.6,1.73-.11.27-.25.57-.38.8-.1.13-.22.27-.39.42-.08.28-.15.52-.19.65.24.23.43.4.59.55.08.07.15.13.23.18.1.07.19.13.28.19.46.18.77.51,1.08.83.16.16.31.31.49.43.14.09.23.09.38.05.53-.22.48-.35.62-.2.05-.02.13-.04.23-.07.04.1.15.18.26.18.06,0,.11,0,.16-.04.12-.07.2-.15.24-.24.89-.17,1.57-.61,1.65-.61,1.49-.05.9-.71,2.48-.69.69-.37,1.13-.43,1.26-1.02.07-.31.35-.47.76-.46.39,0,.63-.18.87-.45.01-.11.02-.19.04-.23,0-.04.02-.07.04-.1.02-.02,0,0,.05-.06l.17-.17c.24-.22.49-.44.73-.66.49-.44.95-.9,1.19-1.5.67-.54,1-1.4,1.6-2.01.99-.99,1.87-2.05,3.16-2.65.34-.16.69-.79.85-1.22.26-.73,1.11-.78,1.37-1.46.31-.8.99-.79,1.57-1.03.46-.19.88-.38,1.09-.96.3-.81,1.02-1.37,1.57-2.03.56-.69,1.53-.94,1.84-1.74.44-1.11,1.73-1.57,2.04-2.73.2-.75.85-.82,1.24-1.42,1.02-.01,1.77-.63,2.41-1.54.67-.97,1.16-2.04,2.26-2.74.34-.22.51-.85.79-1.28.27-.43.54-.89.89-1.25.72-.77,1.82-.97,2.44-1.87.58-.84,1.16-1.32,1.73-2.16.38-.57,1.48-1.27,1.95-1.78,1.06-1.15,1.29-2.68,2.78-3.21.47-.5,1.09-.92,1.24-1.61.19-.87.69-1.49,1.52-1.9.15-.07.36-.17.42-.28.47-.92.97-1.81,2-2.26.51-.7,1.07-1.29,1.8-1.79.7-.48.76-1.53,1.58-1.98.65-.36,1-.91,1.29-1.53.3-.63.79-1.11,1.37-1.52.41-.29.9-.62,1.13-1.02,1.32-2.28,3.01-4.17,5.22-5.66.83-.56,1.34-1.34,2.02-2.12.37-.8.88-1.05,1.5-1.07.31,0,.38-.29.37-.68.55-1.4,2.02-1.58,2.36-2.23.48-.91,1.06-1.74,2.06-2.24.41-.21.95-.63,1.11-1,.35-.85.89-1.35,1.65-1.85.36-.24.69-.5.99-.79l.2-.2s.04-.05.06-.08c.03-.06.05-.12.05-.18-.05-.15-.15-.21-.28-.39-.27-.98-.03-2.04.16-3.08.04-.23.1-.46.17-.69l.1-.34c.03-.06.04-.03.06-.06.08-.04.16-.12.17-.19-.04-.04-.15-.07-.3,0-.06.01-.02.02-.03-.06-.48-.85-1.04-1.61-1.71-2.25-.33-.32-.7-.61-1.09-.87-.2-.13-.4-.25-.62-.36l-.16-.08c-.06-.04-.11-.05-.11-.03-.04.02-.07.05-.1.08-.11.11-.09.11-.08-.06v-.1c-.01-.21-.17-.26-.29-.21l-.17.09-.23.13c-.15.09-.31.18-.46.29-.3.21-.58.45-.85.72-.21.21-.61.43-.91.47-.54.07-1.07.19-1.58.35-.26.08-.51.17-.76.26-.05.02-.15.06-.16.06h-.04s-.08.03-.08.03c-.02.02-.05.04-.07.07l-.27.3-.67.77c-.44.52-.88,1.03-1.32,1.55-1.28,1.45-2.58,2.86-4.04,4.1-.4.34-.78.64-1.03,1.11-.66,1.26-1.63,2.23-2.84,2.96-.76.46-1.36,1.11-1.73,1.88-.62,1.3-1.56,2.24-2.79,2.97-.57.34-1.16.78-1.61,1.29-1.15,1.31-2.62,2.32-3.59,3.76-.99,1.47-2.49,2.41-3.55,3.79-.62.82-.94,1.85-1.85,2.44-.91.59-1.46,1.42-2.09,2.24-.56.73-1.39.97-2.13,1.32-.81.38-2.38-.74-2.3-1.59,0-.05.05-.53.17-.57.11-.35,1.03-2.13,2.13-3.28.61-.63,1.16-1.32,1.93-1.73.63-.34,1.06-.82,1.32-1.49.31-.8.86-1.54,1.56-2.04,2.29-1.62,4.1-3.77,6.06-5.75.61-.62,1.24-1.22,1.87-1.81.25-.23.62-.38.78-.63,1.88-2.95,4.54-5.3,6.7-8.03.65-.82,1.12-1.31,1.63-2.21.84-1.49,2.01-2.3,3.67-3.96.21-.1.42-.23.63-.36.23-.17.57-.45.84-.66.28-.08.56-.16.82-.22.61-.1,1.01-.27,1.44-.6.84-.67,1.77-1.22,2.71-1.74l.71-.38,1.06-.54c.79-.4,1.59-.81,2.38-1.21.35.3.69.59,1.03.88.7.73,1.46,1.53,2.22,2.32.55.56,1.11,1.1,1.62,1.58.51.48.98.89,1.33,1.19.25.21.46.39.62.53.19.16.33.26.4.3.43.42.84.85,1.23,1.27-.2.81-.4,1.62-.6,2.42l-.1.38-.08.24-.18.48c-.12.32-.24.64-.34.97-.27.88-.29,1.66-.06,2.58.07.49.08,1.01.04,1.55-.25.34-.55.68-.88,1l-.25.23-.16.12c-.11.08-.23.15-.36.22-1.41.75-2.46,1.82-3.13,3.29-.66,1.46-1.73,2.53-3.11,3.37-1.2.73-2.12,1.73-2.65,3.07-.39.98-1.18,1.67-2.08,2.23-.43.26-1.02.54-1.2.89-.42.82-1.88,2.08-1.9,2.35-.01.27-.39.59-.6.78-.63.58-1.17,1.09-1.73,1.71-.57.63-.9,1.46-1.42,2.14-.41.54-.94,1.2-1.47,1.42-1.24.52-1.51,1.83-2.47,2.56-.81.62-1.56,1.38-2.28,2.13-.85.88-1.6,1.82-2,2.97-.21.62-.78,1.12-1.31,1.58-.59.52-2.41,2.38-2.79,2.55-1.6.75-2.54,2.42-3.63,3.77-.54.67-.9,1.47-1.46,2.12-.44.51-1.09.83-1.58,1.31-.33.32-.33,1.07-.9,1.06-.72,0-1.05.27-1.42,1-.44.86-.66,1.82-1.63,2.51-.65.46-.98,1.3-1.75,1.81-.83.56-1.65,1.35-2.23,2.17-.74,1.04-1.99,1.41-2.59,2.44-.58.99-1.46,1.43-2.25,2.08-1.49,1.22-2.78,2.62-3.62,4.37-.83,1.74-2.12,3.17-3.75,4.22-1.18.76-2.13,1.72-3.05,2.81-.46.54-.91,1.09-1.38,1.62-.53.59-.78.84-1.88,1.89-.41.14-.89.31-1.22.4-.24.05-.49.1-.74.13-.56.07-.92.41-1.36.67-1.13.67-2.27,1.29-3.45,1.8-.62.27-1.15.46-1.87.69-1.08.39-2.15.72-3.11.95-.08.02-.15.04-.24.07-.43-.52-.89-.99-1.38-1.45l-.75-.68-.38-.34-.26-.22c-.33-.27-.68-.52-1.04-.76l-.54-.35c-.06-.03-.25-.18-.39-.29l-.45-.35c-.52-.72-1.08-1.36-1.68-2,.44-1.1.82-2.2,1.24-3.27.28-.68.56-1.26.97-1.82.23-.31.33-.56.33-.93,0-.49-.01-1.05.16-1.5.34-.88.59-1.79.85-2.71.13-.46.26-.91.41-1.36l.24-.67.43-1.12.51-.48.26-.23.13-.11.08-.06c.22-.17.45-.32.69-.47.61-.82,1.18-1.67,1.83-2.46,1.12-1.34,2.41-2.57,3.42-3.96.62-.85,1.28-1.53,2.04-2.26,2.02-1.93,3.91-4,5.85-6.02l5.83-6.04c.61-.62,1.3-1.15,1.98-1.68.56-.43,1.12-.9,1.42-1.5.61-1.26,1.56-2.27,2.51-3.3,2.73-2.96,5.46-5.92,8.16-8.9.93-1.03,2.12-1.7,3.02-2.83.72-.9,1.57-1.84,2.65-2.39l6.89-7.21,2.2-2.25c.39-.39.86-.59,1.3-.59.57-.13.32-.75,1.69.17.21.05.65,1.18.61,1.4-.33,1.55-1.43,2-2.28,3.46-.59,1.01-1.69,1.96-2.47,2.9Z"/>
    </g>
  </g>
</svg>