<?xml version="1.0" encoding="UTF-8"?>
<svg id="illuer_blå_bg" xmlns="http://www.w3.org/2000/svg" viewBox="0 0 265.6 186.65">
  <defs>
    <style>
      .cls-1 {
        fill: none;
      }

      .cls-2 {
        fill: #ff9400;
      }

      .cls-3 {
        fill: #ffe6c4;
      }
    </style>
  </defs>
  <path class="cls-3" d="M23.81,33.35c3.69-.55,6.98-1.67,10.59-1.77,1.64-.04,3.34-1,5.13-.82,1.11.12,2.35-.25,3.52-.18,1.53.09,2.66-.19,4.35-.72,1.02-.27,1.64-.51,3.83-.9,1.71-.31,2.63-.32,4.43-.93,1.58-.53,4.26-.38,5.94-.86,3.41-.99,6.01-.81,9.65-2.27,3.24-1.01,6.55-1.29,9.38-1.83,3.66-.6,7.32-1.17,10.99-1.7.87-.13,1.77-.11,2.6-.1,1.82,0,3.47-.34,5.23-.87,3.31-1,13.37-1.86,14.84-2.34,2.02-.66,17.59-3.47,18.93-3.58.88-.07,1.68-.02,2.29-.38,1.43.04,3.37-.76,4.59-.59,2.85-.29,3.89-.36,7.23-.98,3.17-.58,6.8.27,9.69-.69,6.34-1.04,10.29-1.77,11.17-2.08,1.58-.55,2.4-.16,3.97-.71,2.16-.75,6.7-.52,7.2-.99.53-.5,1.93-.58,2.74-1.06,1.71-1.01,4.18-1.27,6.57-1.25,1.25.01,2.44-.92,3.51-.79,1.93.23,4.05.13,6.41-.29l15.03-2.66c1.59-.27,3.19-.56,4.78-.78.79-.11,1.59-.2,2.37-.27.39-.03.78-.06,1.17-.08.47-.02.94-.05,1.41-.07,2-.35,3.69-.64,4.67-.81.32,2.02.57,3.59.77,4.9.12.73.18,1.07.26,1.46.08.39.15.74.24,1.08.82,2.31.6,4.77,1.54,6.82,1.3,2.83,1.05,2.2,1.7,6.59-.13.86-.03,3.36.42,4.05.13,2.34.6,4.41.6,4.62-.09,3.72.8,2.85.61,6.74.39,2.03.42,3.17,1.16,4,.38.43.55,1.26.5,2.29-.04.95.15,1.69.48,2.55,1.32,3.5.95,8.15,2.2,11.76.2,2.24.97,4.43,1.28,6.67.51,3.66,1.17,7.26,1.07,10.79-.02.93.47,2.74.85,3.8.65,1.8.21,3.53.81,5.25.71,2.01.29,3.33.22,4.85-.06,1.21-.1,2.37.41,3.81.72,2.02.91,4.4,1.33,6.63.43,2.31.14,4.61.84,6.63.97,2.82.72,6.13,1.82,8.79.72,1.73.4,3.09.84,4.92-.12.41-.21.85-.27,1.31-.03.23-.05.46-.06.7.02.38.03.76.05,1.16.1,1.56.3,3.18.61,4.99-.68.12-1.4.25-2.14.4-1.19.25-2.37.49-3.54.73-.79.18-1.59.36-2.39.54-1.51.32-3.06.58-4.75.64-1.05.04-2.51.64-3.81.95-1.29.31-2.61.66-3.94.86-2.76.42-5.22-.01-8.02.62-2.61.59-4.59.77-7.19,1.36-1.75.4-5.11.52-6.93.81-4.09.64-7.26,2.2-11.07,1.9-1.8.27-3.74.37-5.26,1.04-1.91.85-3.98,1.24-6.3,1.2-.41,0-.99-.03-1.31.07-2.55.74-5.09,1.42-7.86,1.31-2.22.47-4.36.79-6.65.91-2.2.11-4.18,1.24-6.56,1.25-1.89,0-3.54.41-5.22.93-1.7.53-3.48.76-5.34.87-1.3.08-2.84.16-3.99.46-6.62,1.74-13.22,2.83-20.14,3.16-2.58.12-4.95.69-7.67,1.15-2.13.67-3.57.64-4.78.29-.62-.18-1.24.09-1.93.54-3.54,1.22-6.71.55-8.5,1.06-2.54.72-5.14,1.29-7.96,1.25-1.16-.02-2.96.13-3.91.45-2.2.74-4.13.97-6.47,1.07-3.15.14-6.3.61-9.19,1.71-2.33.89-5.18,1.26-7.93,1.67-3.56.53-7.17.42-10.69,1.56-.35.11-.94.17-1.35.18-5.01.07-9.82.72-14.56,2.33-1.04.35-2.81.6-4,.63-4.11.08-8.01.51-11.91,1.83-.09.03-.19.06-.29.09l-.16.04s-.1.03-.23.05c-.44.08-.91.16-1.38.25-.95.15-1.9.28-2.61.33-1.1.09-2.2.19-3.32.28-.14-1.37-.29-2.74-.43-4.12-.15-1.22-.29-2.45-.44-3.68-.16-1.44-.36-2.87-.59-4.31-.48-2.87-.96-5.75-1.43-8.6-.81-5.05-1.58-10.06-2.05-15.09-.13-1.37-.22-2.63-.6-3.97-.99-3.52-1.46-7.12-1.52-10.74-.04-2.28-.39-4.58-1.02-6.69-1.05-3.53-1.51-7-1.56-10.66-.02-1.69-.15-3.62-.44-5.38-.74-4.55-.96-9.17-1.95-13.62-1.01-4.53-1.13-9.09-2.01-13.6-.52-2.65-1.46-5.13-1.56-7.93-.09-2.78-.68-5.34-1.2-8.02-.46-2.38-.22-4.41-.15-6.45.07-2.22,2.27-3.21,3.16-1.54.06.1.55,1.05.52,1.35.31.83,1.72,5.79,2.3,9.97.32,2.29.74,4.59.73,6.79,0,1.83.25,3.5.83,5.2.7,2.03,1.18,4.42,1.29,6.63.38,7.28,1.65,14.6,2.64,21.92.31,2.27.58,4.55.85,6.83.1.88.04,1.86.22,2.63,2.1,8.89,3.06,18.2,4.75,27.24.51,2.71.76,4.49,1.44,7.09,1.13,4.28,1.3,7.96,2.12,14.14-.04,1.65.13,3.53.13,5.24,0,.34.01.68.03,1.02l.02.36.02.29c.04.38.13.75.25,1.06.06.16.12.32.19.49.4-.12.79-.24,1.19-.36l.53-.15.25-.07.52-.11c1.48-.3,2.97-.57,4.46-.84,2.99-.53,5.99-1.04,8.94-1.64,7.6-.81,17.96-2.57,18.87-2.9,2.27-.32,4.55-.54,6.8-.75,1.8-.17,3.57-.25,5.38-.41,2.36-.22,4.56-.69,6.47-1.46,1.97-.79,4.14-1.21,6.43-1.21,4.05,0,7.98-.54,11.87-1.78,3.87-1.23,7.84-1.77,11.99-1.87,3.61-.09,7.16-.65,10.57-1.81,2.5-.85,5.25-1.15,7.98-1.23,1.29-.04,2.92.02,3.91-.27,2.27-.67,7.33-1.18,7.84-1.47.5-.29,1.81-.42,2.56-.51,2.24-.26,4.19-.51,6.37-.87,2.22-.36,4.33-1.09,6.55-1.53,1.76-.35,3.96-.77,5.37-.7,3.31.17,6.16-1.13,9.31-1.37,2.66-.2,5.46-.6,8.18-1,3.2-.47,6.33-1.06,9.14-2.09,1.52-.56,3.5-.77,5.35-.97,2.07-.22,8.87-1.19,9.92-1.16,4.4.13,9.2-1.17,13.71-2.01,2.24-.42,4.36-1.1,6.6-1.48,1.74-.3,3.57-.27,5.36-.51,1.2-.16,2.54-.99,3.62-.64,1.37.44,2.5.33,4.51-.25,2.39-.69,4.52-1.63,7.62-1.81.43-.03.87-.08,1.31-.14l.17-.03h.08s0-.01,0-.01h.03s.03-.03.04-.04c.06-.05.06-.1.15-.08,0-.01.03-.02.07-.03.07-.01.11-.07.14-.15l.02-.06v-.04s0-.15-.02-.22l-.13-1.04c-.19-1.39-.43-2.79-.71-4.08-.72-3.28-.39-6.34-1.17-9.33-.76-2.87-.73-5.35-.98-8.04-.48-5.04-1.25-10.01-2.71-14.74-1.44-4.69-2.26-9.73-2.46-14.73-.14-3.64-.64-7.16-1.31-10.86-.89-4.98-1.89-10.03-1.99-14.99-.03-1.45-.42-2.64-.7-3.95-1.44-6.74-2.68-13.45-2.91-20.33-.07-2.07-.56-4.55-.98-6.79-.42-2.22-1.01-4.44-1.51-6.55.13-.31.16-.78.14-1.24-.25,0-.53.03-.83.06l-.58.07-1.38.2c-1.84.26-3.66.47-5.42.5-.98.02-1.69.12-2.57.41-1.18.39-2.5.84-3.77,1.03-6.37.94-12.68,2.66-19.08,2.94-2.62.59-5.22,1.24-7.87,1.76-4.53.89-9.19,1.57-13.6,2.57-2.7.62-5.18,1.02-7.92,1.42-7.31,1.06-14.62,2.34-21.94,3.54l-21.92,3.58c-2.26.36-4.55.58-6.8.79-1.85.18-3.76.39-5.38.91-3.39,1.08-6.99,1.7-10.66,2.33-10.49,1.84-20.98,3.68-31.47,5.52-3.63.65-7.12.74-10.84,1.51-2.97.62-6.28,1.21-9.34,1.23l-26.03,4.31-8.22,1.32c-1.44.22-2.71.19-3.57-.06-1.35-.17-1.93.67-3.01-1.14-.32-.18.78-1.71,1.27-1.94,3.35-1.58,6.27-1.47,10.49-2.65,2.9-.81,6.73-1.28,9.89-1.9Z"/>
  <g>
    <g>
      <path class="cls-3" d="M81.19,111.46l-5.45-37.97-9.79,1.41-.74-5.17c1.82-.4,3.44-.86,4.87-1.37,1.43-.51,2.66-1.22,3.7-2.15,1.04-.92,1.89-2.18,2.55-3.78l5.17-.74,6.99,48.73-7.31,1.05Z"/>
      <path class="cls-3" d="M118.56,106.66c-3.49.5-6.55.3-9.16-.62-2.62-.91-4.85-2.4-6.69-4.46-1.84-2.06-3.34-4.54-4.48-7.45-1.14-2.91-1.97-6.11-2.47-9.6-.5-3.49-.62-6.79-.37-9.9.26-3.11.99-5.91,2.21-8.41,1.21-2.5,2.96-4.56,5.23-6.2,2.27-1.64,5.13-2.71,8.58-3.2,3.68-.53,6.84-.28,9.5.75,2.66,1.03,4.9,2.62,6.73,4.77,1.83,2.15,3.27,4.68,4.32,7.57,1.05,2.9,1.8,5.93,2.26,9.1s.57,6.29.36,9.37c-.22,3.08-.89,5.9-2.02,8.45-1.13,2.55-2.84,4.7-5.13,6.43-2.28,1.73-5.24,2.86-8.87,3.38ZM117.6,99.98c2.53-.36,4.49-1.22,5.89-2.57,1.4-1.35,2.38-3,2.95-4.96.56-1.95.84-4.01.84-6.17,0-2.16-.15-4.22-.43-6.2-.28-1.93-.72-3.94-1.32-6.04-.61-2.09-1.45-4-2.54-5.72-1.09-1.72-2.49-3.04-4.19-3.97-1.7-.93-3.82-1.21-6.35-.85-2.57.37-4.57,1.24-5.99,2.62s-2.41,3.04-2.98,5c-.56,1.96-.83,4.01-.8,6.17.03,2.15.18,4.22.47,6.19.28,1.98.71,4,1.29,6.07.58,2.07,1.4,3.97,2.47,5.69,1.07,1.72,2.48,3.03,4.22,3.93s3.91,1.16,6.48.79Z"/>
      <path class="cls-3" d="M164.25,100.1c-3.49.5-6.54.3-9.16-.62-2.62-.91-4.85-2.4-6.69-4.46-1.84-2.06-3.34-4.54-4.48-7.45-1.15-2.91-1.97-6.11-2.47-9.6-.5-3.49-.62-6.79-.37-9.9.26-3.11.99-5.91,2.21-8.41,1.21-2.5,2.96-4.56,5.23-6.2,2.27-1.64,5.13-2.71,8.58-3.2,3.68-.53,6.84-.28,9.5.75,2.66,1.03,4.9,2.62,6.73,4.77,1.83,2.15,3.27,4.68,4.32,7.57,1.05,2.9,1.8,5.93,2.26,9.1.45,3.17.57,6.29.36,9.37s-.89,5.89-2.02,8.45c-1.13,2.56-2.84,4.7-5.13,6.43-2.28,1.73-5.24,2.86-8.87,3.38ZM163.29,93.42c2.53-.36,4.49-1.22,5.89-2.57,1.4-1.35,2.38-3,2.95-4.96.56-1.95.84-4.01.84-6.17,0-2.16-.15-4.22-.43-6.2-.28-1.93-.72-3.94-1.32-6.04-.61-2.09-1.45-4-2.54-5.72-1.09-1.72-2.49-3.04-4.19-3.97-1.71-.93-3.82-1.21-6.35-.85-2.57.37-4.57,1.24-5.99,2.62s-2.41,3.04-2.98,5-.83,4.01-.8,6.16c.03,2.15.18,4.22.47,6.19.28,1.98.71,4,1.29,6.07.58,2.07,1.4,3.97,2.47,5.69,1.07,1.72,2.48,3.03,4.22,3.93,1.75.9,3.91,1.16,6.48.79Z"/>
    </g>
    <g>
      <path class="cls-3" d="M81.19,112.21c-.37,0-.69-.27-.74-.64l-5.34-37.23-9.04,1.3c-.19.03-.4-.02-.56-.14-.16-.12-.26-.3-.29-.49l-.74-5.17c-.06-.39.2-.75.58-.84,1.78-.39,3.39-.84,4.78-1.34,1.33-.47,2.49-1.15,3.46-2,.95-.84,1.74-2.02,2.36-3.5.1-.24.32-.42.59-.45l5.17-.74c.41-.06.79.23.85.64l6.99,48.73c.03.2-.02.4-.14.56-.12.16-.3.26-.49.29l-7.31,1.05s-.07,0-.11,0ZM75.74,72.74c.16,0,.32.05.45.15.16.12.26.3.29.49l5.34,37.23,5.82-.83-6.78-47.24-4.01.58c-.68,1.51-1.54,2.74-2.58,3.66-1.11.98-2.44,1.75-3.95,2.29-1.27.45-2.71.87-4.28,1.24l.54,3.74,9.04-1.3s.07,0,.11,0Z"/>
      <path class="cls-3" d="M115.02,107.68c-2.15,0-4.11-.31-5.88-.92-2.73-.95-5.08-2.52-7-4.66-1.89-2.11-3.45-4.7-4.62-7.67-1.16-2.95-2.01-6.23-2.51-9.77-.51-3.53-.63-6.92-.37-10.07.26-3.19,1.03-6.11,2.28-8.67,1.26-2.59,3.1-4.78,5.46-6.48,2.36-1.7,5.36-2.82,8.91-3.33,3.79-.55,7.11-.28,9.87.79,2.76,1.07,5.13,2.74,7.03,4.98,1.88,2.21,3.38,4.84,4.46,7.81,1.06,2.93,1.83,6.04,2.29,9.25.46,3.2.58,6.41.37,9.53-.22,3.15-.92,6.08-2.09,8.7-1.18,2.66-2.98,4.92-5.36,6.73-2.38,1.8-5.48,2.99-9.22,3.53h0c-1.26.18-2.48.27-3.64.27ZM114.96,57.32c-1.09,0-2.25.09-3.45.26-3.31.48-6.08,1.51-8.25,3.07-2.16,1.56-3.84,3.55-4.99,5.92-1.17,2.4-1.88,5.14-2.13,8.14-.25,3.04-.13,6.31.36,9.73.49,3.42,1.31,6.59,2.42,9.43,1.1,2.81,2.57,5.24,4.34,7.22,1.75,1.95,3.89,3.38,6.38,4.25,2.49.87,5.45,1.06,8.81.58h0c3.48-.5,6.35-1.59,8.52-3.24,2.17-1.65,3.82-3.71,4.89-6.14,1.09-2.46,1.75-5.22,1.96-8.2.21-3.02.09-6.12-.35-9.21-.45-3.1-1.19-6.12-2.22-8.95-1.01-2.8-2.42-5.27-4.19-7.34-1.74-2.05-3.91-3.58-6.43-4.55-1.66-.64-3.56-.96-5.67-.96ZM115.47,100.89c-1.78,0-3.35-.35-4.69-1.04-1.86-.96-3.38-2.37-4.52-4.21-1.1-1.77-1.96-3.75-2.55-5.89-.58-2.09-1.03-4.17-1.31-6.17-.29-2-.45-4.11-.48-6.29-.03-2.22.25-4.36.83-6.38.6-2.07,1.67-3.87,3.17-5.33,1.53-1.48,3.69-2.43,6.41-2.82,2.68-.39,4.97-.07,6.81.93,1.81.99,3.31,2.41,4.47,4.23,1.12,1.77,2.01,3.76,2.63,5.91.61,2.12,1.06,4.18,1.34,6.14.29,2,.44,4.12.44,6.3,0,2.22-.29,4.37-.87,6.38-.6,2.07-1.66,3.85-3.15,5.29-1.51,1.45-3.63,2.39-6.31,2.77h0c-.78.11-1.52.17-2.24.17ZM114.45,64.11c-.61,0-1.24.05-1.91.14-2.4.34-4.28,1.16-5.57,2.42-1.32,1.28-2.25,2.85-2.78,4.67-.54,1.88-.8,3.88-.77,5.95.03,2.11.18,4.16.46,6.1.28,1.94.71,3.95,1.27,5.98.56,2,1.36,3.85,2.39,5.5.99,1.6,2.31,2.83,3.93,3.66,1.6.82,3.62,1.06,6.03.72h0c2.36-.34,4.2-1.13,5.48-2.37,1.3-1.25,2.22-2.81,2.75-4.63.54-1.87.81-3.88.81-5.96,0-2.11-.15-4.16-.42-6.09-.27-1.89-.71-3.88-1.3-5.93-.58-2.02-1.41-3.88-2.46-5.53-1.02-1.6-2.33-2.85-3.92-3.71-1.11-.6-2.44-.91-3.97-.91Z"/>
      <path class="cls-3" d="M160.71,101.12c-2.15,0-4.11-.31-5.88-.92-2.73-.95-5.08-2.52-7-4.66-1.9-2.11-3.45-4.7-4.62-7.67-1.16-2.94-2-6.23-2.51-9.77-.51-3.53-.63-6.92-.37-10.07.26-3.19,1.03-6.11,2.28-8.67,1.26-2.59,3.1-4.78,5.47-6.48,2.36-1.7,5.36-2.83,8.91-3.33,3.79-.54,7.11-.28,9.87.79,2.76,1.07,5.13,2.74,7.03,4.98,1.88,2.21,3.38,4.84,4.46,7.81,1.06,2.93,1.83,6.04,2.29,9.25.46,3.21.58,6.42.37,9.53-.22,3.15-.92,6.08-2.08,8.7-1.18,2.66-2.98,4.92-5.36,6.73-2.38,1.8-5.48,2.99-9.22,3.53-1.26.18-2.48.27-3.64.27ZM160.65,50.76c-1.09,0-2.24.09-3.45.26-3.31.48-6.08,1.51-8.25,3.07-2.16,1.56-3.84,3.55-4.99,5.92-1.17,2.4-1.88,5.13-2.13,8.14-.25,3.04-.13,6.31.36,9.73.49,3.42,1.31,6.59,2.42,9.43,1.1,2.81,2.56,5.24,4.34,7.22,1.75,1.95,3.89,3.38,6.38,4.25,2.49.87,5.45,1.07,8.81.58h0c3.48-.5,6.35-1.59,8.52-3.24,2.17-1.65,3.82-3.71,4.89-6.14,1.09-2.46,1.75-5.22,1.96-8.2.21-3.01.09-6.11-.35-9.21-.45-3.11-1.19-6.12-2.22-8.95-1.01-2.8-2.42-5.27-4.19-7.34-1.74-2.05-3.91-3.58-6.43-4.55-1.66-.64-3.56-.96-5.67-.96ZM161.16,94.33c-1.78,0-3.35-.35-4.69-1.04-1.86-.96-3.38-2.37-4.52-4.2-1.1-1.77-1.96-3.75-2.55-5.89-.58-2.09-1.03-4.17-1.31-6.17-.29-2-.45-4.12-.47-6.29-.03-2.22.25-4.36.83-6.38.6-2.08,1.67-3.87,3.17-5.33,1.53-1.48,3.68-2.43,6.4-2.82,2.68-.38,4.97-.07,6.81.93,1.81.98,3.31,2.41,4.47,4.23,1.12,1.77,2.01,3.76,2.63,5.91.61,2.12,1.07,4.18,1.35,6.14.29,2,.44,4.12.44,6.3,0,2.22-.29,4.37-.87,6.38-.6,2.08-1.66,3.86-3.15,5.29-1.51,1.45-3.63,2.39-6.31,2.77h0c-.78.11-1.53.17-2.24.17ZM160.15,57.55c-.61,0-1.24.05-1.91.14-2.4.35-4.28,1.16-5.57,2.42-1.32,1.28-2.25,2.85-2.78,4.67-.54,1.88-.8,3.88-.77,5.95.03,2.11.18,4.16.46,6.1.28,1.94.71,3.95,1.27,5.98.56,2,1.36,3.85,2.39,5.5.99,1.6,2.31,2.83,3.93,3.66,1.6.82,3.63,1.06,6.03.72h0c2.36-.34,4.2-1.13,5.48-2.37,1.3-1.25,2.22-2.81,2.75-4.63.54-1.88.81-3.88.81-5.96,0-2.12-.15-4.17-.42-6.09-.27-1.89-.71-3.88-1.3-5.93-.58-2.02-1.41-3.88-2.46-5.53-1.02-1.6-2.34-2.85-3.92-3.71-1.11-.6-2.44-.91-3.97-.91Z"/>
    </g>
    <g>
      <g>
        <path class="cls-1" d="M81.19,111.46l-5.45-37.97-9.79,1.41-.74-5.17c1.82-.4,3.44-.86,4.87-1.37,1.43-.51,2.66-1.22,3.7-2.15,1.04-.92,1.89-2.18,2.55-3.78l5.17-.74,6.99,48.73-7.31,1.05Z"/>
        <path class="cls-3" d="M79.84,108.26c-.08-.71-.45-1.07-.33-1.97.06-.41-.31-.43-.14-.97.11-.34,0-.5.08-.83.12-.43.04-.6-.13-.81-.08-.15-.16-.2-.25-.6-.06-.31-.02-.54-.23-.75-.18-.19.03-.93-.12-1.16-.32-.47-.08-1.19-.64-1.55-.35-.43-.32-1.16-.44-1.67-.11-.7-.21-1.4-.28-2.12-.02-.17.05-.4.1-.6.12-.45.03-.73-.16-.99-.36-.49-.2-2.64-.38-2.84-.25-.28-.87-3.19-.84-3.47.02-.19.11-.38-.07-.44.12-.34-.22-.6-.03-.91.02-.58.06-.8-.08-1.42-.13-.6.67-1.56.28-2-.18-1.19-.34-1.92-.47-2.06-.23-.25.08-.49-.15-.74-.31-.35.19-1.34-.08-1.38-.28-.05-.22-.33-.47-.44-.52-.24-.49-.73-.29-1.23.11-.26-.41-.41-.24-.65.3-.42.4-.84.32-1.28l-.33-1.71,1.45,1.09-1.09.2c-.58.1-1.18.24-1.77,0-.88.19-1.32.18-1.66.34-.4.36-.89.04-1.22.5-.46.64-.36.52-1.17.62-.17-.15-.66-.28-.76-.03-.45-.09-.82.06-.86.04-.71-.33-.51.28-1.23-.08l-1.65-.82c-.12-.06-.17-.21-.11-.33.02-.04.05-.08.09-.1.01,0,.02-.02.03-.04-.1-.37-.04-.59-.46-.7-.22-.06-.27-.21-.16-.41.1-.19.03-.32-.12-.46-.6-.59-.01-1.52-.56-2.14.04-.42-.3-.8-.34-1.21v-.08s-.03-.22-.03-.22c-.11-1.17.71-2.21,1.84-2.41.62-.11,1.2-.29,1.87-.05.18.07.46-.15.61-.34.25-.32.65.05.88-.26.27-.36.59-.03.9.08.24.09.49.16.66-.11.22-.37.6-.4.9-.6.3-.2.81,0,.96-.39.18-.52.88-.42.9-1.04-.01-.38.35-.25.45-.52.62.21.97-.05,1.11-.5.16-.49.1-1.01.57-1.38.14-.11.03-.41.03-.63,0-.25.14-.47.35-.58l1.16-.59.04-.02c.23-.11.46-.24.71-.27.51-.07,1.01.39,1.52.19.47-.19.84-.17,1.31-.36.31-.13.96.04,1.29-.02.11-.02.22-.05.33-.09.66-.27,1.42.05,1.68.71h0s.31.78.31.78c.24.59.74,1.05.33,1.7.05.33-.04.7.3.95.42.31.52.69.32,1.14-.04.08-.09.19-.05.25.3.45.56.89.28,1.44.14.4.19.79.1,1.23-.09.42.5.73.33,1.19-.14.37,0,.66.22.95.22.3.24.63.18.98-.04.25-.11.54,0,.74.65,1.17.88,2.38.58,3.7-.11.49.08.92.19,1.41.28.37.16.65-.17.91-.16.13-.03.24.21.34.54.61-.14,1.27.07,1.58.29.45.47.91.23,1.46-.1.23-.13.57,0,.73.32.38.33.74.22,1.19-.14.6-.07,1.18.44,1.67.41.39.44.92.51,1.43.09.66-.26,1.36.23,1.97.05.06.04.17.02.25-.33.97-.26,1.86.45,2.67.15.18.19.51.11.74-.25.79-.26,1.52.31,2.19.1.12.15.34.1.49-.43,1.22,0,2.37.22,3.53.17.92.31,1.84.27,2.79-.01.26-.04.5.11.73.4.62.45,1.28.23,1.98-.14.44-.07.86.19,1.23.44.61.49,1.25.26,1.96-.11.33-.16.69-.1,1.01.14.73.01,1.49.2,2.2.21.79-.27,1.6-1.06,1.81h-.02s-.35.09-.35.09c-.12.03-.24.07-.36.11-.98.36-1.97.1-2.96.34-.59.14-1.27.55-1.82.38-.54-.16-1.14,0-1.77.09-.56.08-.8-.22-1.06-.39-.3-.2.54-1.4,1.09-1.8.04-.02.34-.25.36-.22.23-.13,1.27-.71,1.89-.86.35-.08.71-.21.99-.07.23.12.51.06.82-.21.37-.32.71-.47,1.04-.39.43.11.9.13,1.37.11l-1.08,1.44c-.04-.82-.18-1.63-.26-2.44-.04-.42-.06-.84-.07-1.27,0-.16.11-.36.04-.49-.75-1.58-.71-3.32-1.17-4.96-.14-.49-.17-.82-.44-1.28-.43-.76-.29-1.46-.38-2.6.15-.32.17-.68.29-1.01.09-.27.08-.51-.05-.74-.61-1.08-.68-2.29-1.05-3.42.03-1.42-.35-3.32-.51-3.47-.04-.42-.02-.85.01-1.27.02-.34.1-.68.13-1.02.03-.44-.12-.84-.48-1.16-.37-.33-.49-.72-.31-1.17.3-.79.24-1.51-.28-2.19-.52-.67-.58-1.41-.34-2.2.21-.7.1-1.35-.41-1.93-.37-.43-.37-.94-.22-1.47.07-.25.23-.57.11-.74-.27-.4-.23-1.34-.39-1.42-.15-.08-.14-.32-.14-.46,0-.42-.02-.78-.1-1.18-.07-.41-.39-.77-.52-1.17-.1-.32-.21-.72-.06-1,.36-.65-.29-1.12-.21-1.72.07-.5.01-1.02-.05-1.52-.07-.59-.22-1.16-.7-1.64-.25-.26-.24-.63-.24-.97,0-.39-.13-1.64-.03-1.85.14-.29.18-.58.15-.87l2.2,1.65c-.56.04-1.11.31-1.65.46-.41.11-.77.4-1.18.48-.32.07-.68-.09-1.01-.07-.22.02-.43.46-.66.15-.23-.31-.42-.38-.66-.28l1.52-1.18c-.01.07-.02.15-.02.25-.01.55.14,1.19-.38,1.7-.34.33-.38.9-.85,1.25-.5.37-.98.85-1.36,1.36-.5.65-1.33.61-1.77,1.16-.44.53-1.06.56-1.62.71-.53.14-1.04.3-1.51.5-.45.2-.87.46-1.25.83-.77.73-1.74,1.02-2.76.87-.33-.05-.64-.05-.95-.02l1.63-2.36c0,.37.06.74.15,1.12.21.91.48,1.82.17,2.78-.09.28.08.48.16.72l.19.56-2.31-1.73c1.03-.33,2.08-.5,3.2-.19.4.11.85-.02,1.25-.13.41-.11.79-.33,1.18-.5.93.32,1.86-.17,2.79.16.19.07.32.06.47-.06.21-.16.43-.35.67-.37l.26-.03h.05c.94-.11,1.8.55,1.93,1.49.15,1.06.65,2.04.33,3.17.17.45.38.89.5,1.35.2.78.27,1.62.55,2.36.18.45.23.88.27,1.38.09,1.31.31,2.59.48,3.88.17,1.29.35,2.57.49,3.87.04.4,0,.85-.04,1.3-.03.37-.05.74.14.95.38.44.46,1.06.56,1.7l.84,5.42c.1.62-.07,1.43.08,2.03.12.47.21,1.03.04,1.79l.55,4.63.16,1.49c.02.26-.05.61-.19.96-.13.44.18.17-.59,1.36-.08.18-.65.64-.72.62-.51-.12-.35-.95-.68-1.5-.23-.38-.27-1.17-.41-1.72Z"/>
      </g>
      <g>
        <path class="cls-1" d="M118.56,106.66c-3.49.5-6.55.3-9.16-.62-2.62-.91-4.85-2.4-6.69-4.46-1.84-2.06-3.34-4.54-4.48-7.45-1.14-2.91-1.97-6.11-2.47-9.6-.5-3.49-.62-6.79-.37-9.9.26-3.11.99-5.91,2.21-8.41,1.21-2.5,2.96-4.56,5.23-6.2,2.27-1.64,5.13-2.71,8.58-3.2,3.68-.53,6.84-.28,9.5.75,2.66,1.03,4.9,2.62,6.73,4.77,1.83,2.15,3.27,4.68,4.32,7.57,1.05,2.9,1.8,5.93,2.26,9.1s.57,6.29.36,9.37c-.22,3.08-.89,5.9-2.02,8.45-1.13,2.55-2.84,4.7-5.13,6.43-2.28,1.73-5.24,2.86-8.87,3.38ZM117.6,99.98c2.53-.36,4.49-1.22,5.89-2.57,1.4-1.35,2.38-3,2.95-4.96.56-1.95.84-4.01.84-6.17,0-2.16-.15-4.22-.43-6.2-.28-1.93-.72-3.94-1.32-6.04-.61-2.09-1.45-4-2.54-5.72-1.09-1.72-2.49-3.04-4.19-3.97-1.7-.93-3.82-1.21-6.35-.85-2.57.37-4.57,1.24-5.99,2.62s-2.41,3.04-2.98,5c-.56,1.96-.83,4.01-.8,6.17.03,2.15.18,4.22.47,6.19.28,1.98.71,4,1.29,6.07.58,2.07,1.4,3.97,2.47,5.69,1.07,1.72,2.48,3.03,4.22,3.93s3.91,1.16,6.48.79Z"/>
        <path class="cls-3" d="M120.23,98.1c.46-.15.65-.67,1.19-.61.25.02.19-.47.54-.33.22.08.28-.1.5-.06.29.05.37-.1.41-.37.05-.14.05-.26.22-.49.14-.17.28-.2.28-.52,0-.27.5-.29.52-.56.01-.51.53-.59.25-1.27-.09-.5.21-.78.29-1.13l.47-1.3c.04-.11.17-.19.29-.27.25-.18.25-.41.14-.68-.19-.49.51-1.72.36-1.95-.16-.31-.25-2.36-.2-2.56.05-.12.17-.23,0-.32.18-.2-.14-.47.1-.63.1-.39.16-.54.1-1-.06-.43.86-.97.5-1.37-.07-.89-.2-1.43-.32-1.54-.22-.2.11-.35-.11-.55-.3-.27.24-.97-.02-1.01-.28-.04-.22-.24-.46-.32-.51-.17-.48-.51-.27-.88.11-.19-.4-.27-.24-.45.3-.32.39-.64.3-.96-.19-.68-.43-1.34-.64-2.01-.14-.43-.31-.84-.12-1.32-.27-.6-.31-.93-.51-1.14-.4-.19-.15-.64-.65-.74-.68-.13-.55-.09-.78-.61.11-.17.13-.55-.12-.53,0-.34-.23-.53-.22-.57.14-.64-.39-.21-.21-.9-.19-.2-.18-.37-.58-.24-.2.07-.28,0-.24-.17.03-.16-.06-.21-.23-.22-.66-.01-.47-.88-1.11-.87-.12-.25-.5-.21-.68-.38-.3-.29-.66-.46-.78-1.03-.03-.15-.3-.14-.47-.07-.27.13-.22-.36-.49-.23-.29.16-.26-.26-.36-.51-.08-.19-.17-.38-.38-.23-.29.2-.53.04-.8.05-.27.02-.5-.44-.77-.19-.35.33-.75-.16-1.07.31-.2.31-.38-.03-.6.1-.29-.57-.64-.63-.99-.44-.37.21-.66.57-1.12.43-.15-.05-.26.25-.39.36-.13.12-.25.26-.39.31-.3.1-.76-.27-1.01,0-.22.25-.46.29-.64.56-.12.17-.56.18-.72.32-.35.31-.11,1.08-.82,1.01-.14.16-.39.26-.27.58.16.41.07.61-.29.69-.06.01-.16.03-.15.08.04.38.08.71-.37.84-.03.27-.14.49-.37.69-.23.19.21.6-.09.79-.24.17-.21.41-.09.66.12.26.04.46-.12.67-.11.14-.25.31-.19.48.32.93.28,1.71-.24,2.57-.19.32-.07.64-.04.99.23.28.07.48-.28.64-.18.08-.06.17.17.27.46.48-.28.92-.11,1.17.24.35.37.69.09,1.09-.11.16-.18.42-.06.54.29.29.27.55.14.88-.18.45-.14.88.35,1.23.39.28.41.66.46,1.03.07.47-.28,1.03.21,1.43.05.04.04.12.02.18-.32.74-.23,1.41.5,1.92.16.11.2.35.14.53-.21.62-.17,1.18.43,1.53.11.06.17.2.14.32-.31.95.24,1.66.63,2.36.31.57.62,1.12.8,1.76.05.18.08.34.26.41.49.19.68.51.71,1.03.02.32.22.53.54.55.54.03.78.28.93.79.07.23.2.45.39.54.49.25.82.76,1.38.72.55-.05.97.42,1.54.35.33-.04.65-.41.97-.18.33.22.65.08.98-.03.29-.09.57.24.86.45.31.23.64,1.74.43,2.2-.01.03-.13.28-.18.23-.11.14-.84.67-1.52.66-.36,0-.74.04-1.07-.2-.28-.2-.53-.21-.84-.03-.37.22-.79.23-1.12.02-1.06-.69-2.22-1.07-3.16-1.75-.3-.21-.57-.45-.82-.71-.1-.1-.13-.3-.25-.34-1.44-.51-2.22-1.92-3.1-3-.27-.33-.4-.57-.76-.83-.6-.45-.64-1.07-.93-1.97.08-.3.04-.59.11-.89.05-.24,0-.42-.16-.58-.74-.74-.9-1.74-1.33-2.57-.05-1.14-.48-2.61-.62-2.73-.05-.33-.02-.68,0-1.02.02-.27.11-.55.14-.82.04-.35-.1-.66-.45-.91-.36-.26-.46-.58-.26-.94.34-.63.33-1.2-.14-1.76-.46-.56-.45-1.16-.13-1.77.28-.54.26-1.05-.17-1.57-.31-.39-.23-.83,0-1.24.11-.19.32-.42.24-.58-.19-.37.06-1.13-.07-1.23-.13-.1-.06-.29-.03-.41.1-.34.18-.63.22-.97.04-.34-.15-.73-.13-1.09,0-.28.04-.64.28-.8.55-.36.16-1.01.49-1.45.28-.37.48-.79.69-1.19.25-.48.44-.96.38-1.6-.03-.35.22-.6.46-.82.25-.26,1.07-1.12,1.29-1.14.88-.15,1.3-.99,1.94-1.51.31-.26.54-.65.89-.86.27-.16.65-.1.94-.19.19-.07.29-.53.57-.27.35.34.53.31.8.05.32-.32.6-.8,1.14-.72.36.06.66-.27,1.07-.16.44.12.92.11,1.35-.03.55-.18,1.05.34,1.56.15.51-.19.91.12,1.34.29.83.32,1.61.51,2.61.41.49-.06,1.01.06,1.39.26.39.2.72.51.96.92.35.58.78.97,1.28,1.36.67.52,1.37,1.1,1.49,2.02.03.26.26.35.42.5.82.77,1.46,1.66,1.42,2.85-.02.35.2.68.38.98.18.3.46.56.68.84-.17.83.42,1.52.16,2.32-.05.16-.03.26.09.37.17.14.38.29.41.48.17.92.83,1.76.52,2.79.18.37.4.73.52,1.11.21.66.26,1.36.52,2.01.16.4.2.77.21,1.18,0,1.1.13,2.2.15,3.3.03,1.07.04,2.25-.09,3.39-.04.35-.18.7-.33,1.03-.12.27-.23.55-.11.84.25.6.15,1.17.03,1.74-.31,1.63-.94,3.48-1.93,5.06-.35.56-.97.83-1.34,1.38-.28.43-.72.9-1.36,1-1.25,1.01-2.68,1.67-4.08,2.09-.45.14-.89.23-1.34.31-.23.04-.46-.08-.63-.32-.24-.22-.28.28-.59-1-.06-.14,0-1.05.05-1.16.37-.74.82-.43,1.3-.89.32-.31.82-.36,1.17-.58Z"/>
        <path class="cls-3" d="M113.91,108.06c-.8-.08-1.61.22-2.33-.24-.32-.21-.81.15-1.12-.25-.18-.24-.48-.21-.67-.45-.25-.31-.5-.33-.91-.3-.24-.02-.4.02-.86-.14-.36-.14-.5-.29-.96-.29-.41,0-.74-.62-1.13-.69-.82-.16-1.06-.8-2.08-.87-.8-.22-1.26-.87-1.75-1.29-.6-.6-1.13-1.24-1.6-1.91-.11-.16-.15-.38-.18-.58-.07-.44-.33-.7-.68-.94-.71-.45-1.34-2.63-1.61-2.85-.2-.15-.72-.98-1.15-1.84-.43-.86-.75-1.71-.77-1.86-.02-.2.04-.39-.16-.47.07-.34-.36-.66-.2-.98-.07-.62-.07-.85-.31-1.53-.22-.66.53-1.59.08-2.12-.29-1.31-.48-2.13-.62-2.3-.25-.31.07-.52-.17-.83-.33-.43.18-1.44-.09-1.52-.29-.09-.23-.39-.47-.55-.52-.33-.48-.87-.25-1.4.12-.27-.39-.51-.2-.75.33-.42.46-.87.42-1.38-.09-1.07-.15-2.15-.15-3.22,0-.68,0-1.39.37-2,.02-1.04.18-1.53.13-1.97-.22-.56.26-1-.04-1.54-.41-.76-.36-.61-.08-1.55.21-.13.55-.6.38-.83.3-.44.37-.92.41-.95.7-.6,0-.7.82-1.28.13-.44.34-.61.06-.98-.14-.19-.07-.38.15-.52.21-.13.25-.3.24-.55-.02-1,1.16-1.49,1.33-2.43.4-.35.52-.94.91-1.31.61-.61,1.21-1.25,2.1-1.43.23-.04.48-.42.6-.68.2-.46.8-.3,1.02-.71.28-.49.74-.29,1.14-.27.32.01.61.02.82-.3.31-.45.86-.57,1.31-.8.48-.25,1.09,0,1.45-.38.53-.53,1.35-.24,1.85-.81.33-.38.69-.1,1.08-.27.52.51,1.06.52,1.67.32.64-.22,1.26-.59,2.02-.36.23.07.56-.19.86-.28.29-.08.6-.18.9-.17.64.02,1.13.58,1.78.51.61-.05,1.05.09,1.67.08.42-.01,1.11.43,1.52.55.9.26,1.91-.09,2.44.8.38.18.7.49,1.16.42.59-.1,1.04.13,1.35.63.05.09.12.22.2.24.63.15,1.25.38,1.51,1.06.46.27.83.62,1.09,1.11.25.45.98.45,1.16,1.02.13.45.44.67.82.88.38.21.6.56.75.97.1.29.21.63.42.81,1.23,1.03,2.01,2.41,2.18,4.01.06.59.38,1.04.62,1.61.38.37.32.72.06,1.06-.13.18.02.27.29.35.67.62.13,1.47.38,1.81.37.48.62,1.01.46,1.66-.06.27-.06.66.1.84.37.42.41.84.34,1.36-.09.7.01,1.36.54,1.93.43.46.47,1.09.54,1.69.08.78-.28,1.57.17,2.33.04.08.03.21,0,.3-.39,1.1-.42,2.12.16,3.19.13.24.11.62,0,.88-.39.88-.53,1.68-.14,2.63.07.17.06.44-.03.6-.74,1.31-.73,2.76-1.05,4.17-.25,1.12-.61,2.21-1.21,3.19-.17.27-.33.5-.36.83-.08.89-.54,1.64-1.25,2.17-.45.33-.75.76-.89,1.29-.24.88-.84,1.5-1.66,1.85-.38.16-.77.38-1.07.66-.77.71-1.8,1.09-2.58,1.79-.82.73-1.91.83-2.81,1.32-.53.28-.98.83-1.64.8-.65-.04-1.17.23-1.75.43-.51.18-1.01-.1-1.47-.27-.51-.19-.85-1.7-.56-2.17.02-.03.18-.29.24-.25.16-.15,1.06-.75,1.84-.92.43-.1.84-.26,1.31-.18.39.07.7-.05.94-.36.28-.39.66-.63,1.09-.68,1.44-.16,2.56-1.04,3.65-1.93l1.02-.83c.13-.11.36-.15.42-.3.77-1.63,1.9-2.96,2.36-4.71.14-.51.26-.84.24-1.38-.05-.89.38-1.48.7-2.64.25-.27.39-.61.6-.91.17-.24.23-.5.17-.77-.29-1.26-.11-2.54-.3-3.81.28-1.5.04-3.59-.11-3.76-.01-.45.03-.91.07-1.36.03-.36.12-.73.15-1.09.04-.48-.12-.92-.49-1.26-.38-.36-.51-.77-.36-1.25.26-.85.13-1.65-.46-2.33-.59-.67-.75-1.43-.64-2.31.09-.76-.15-1.45-.78-1.97-.46-.38-.57-.88-.56-1.45,0-.27.06-.63-.1-.77-.37-.32-.65-1.26-.83-1.29-.17-.03-.25-.26-.31-.4-.16-.4-.33-.73-.56-1.08-.24-.35-.69-.55-.99-.84-.24-.24-.53-.53-.55-.85-.04-.76-.83-.8-1.11-1.31-.24-.44-.61-.8-.99-1.13-.44-.38-.96-.67-1.62-.61-.35.03-.61-.2-.87-.4-.28-.24-1.36-.8-1.5-.97-.52-.79-1.49-.69-2.3-.74-.41-.03-.83.15-1.22.13-.31-.01-.62-.24-.94-.28-.22-.02-.49.37-.67.04-.23-.43-.45-.47-.83-.28-.46.23-.84.66-1.42.51-.4-.09-.78.22-1.24.12-.5-.11-1.07-.06-1.53.16-.57.27-1.24-.11-1.73.26-.45.36-.96.24-1.46.33-.93.16-1.79.6-2.26,1.47-.45.84-1.11,1.4-2,1.71-.65.24-1.12.69-1.5,1.25-.51.76-.87,1.57-1.68,2.15-.24.18-.22.44-.28.68-.32,1.27-.59,2.46-1.44,3.57-.26.34-.3.83-.33,1.26-.03.44.06.88.11,1.32-.58.84-.3,1.92-.8,2.83-.1.19-.12.33-.02.51.12.25.27.52.26.77-.08,1.27.42,2.52.02,3.81.15.52.35,1.03.46,1.55.2.89.27,1.82.61,2.67.21.51.29,1,.37,1.53.2,1.43.62,2.82,1.06,4.18.44,1.37.97,2.69,1.56,3.95.18.39.29.82.41,1.24.1.35.22.7.53.88.64.38,1.03.92,1.46,1.45,1.24,1.54,2.62,2.75,4.24,3.6.55.29.94.85,1.6,1.01.53.13,1.07.29,1.48.74,1.47.41,3.06.56,4.68.51.51-.01,1.03-.05,1.54-.08.27-.02.52.11.71.35.28.22.35-.28.68,1,.08.14-.06,1.06-.16,1.17-.66.77-1.3.45-2.2.81-.63.25-1.47.15-2.17.18Z"/>
      </g>
      <g>
        <path class="cls-1" d="M164.25,100.1c-3.49.5-6.54.3-9.16-.62-2.62-.91-4.85-2.4-6.69-4.46-1.84-2.06-3.34-4.54-4.48-7.45-1.15-2.91-1.97-6.11-2.47-9.6-.5-3.49-.62-6.79-.37-9.9.26-3.11.99-5.91,2.21-8.41,1.21-2.5,2.96-4.56,5.23-6.2,2.27-1.64,5.13-2.71,8.58-3.2,3.68-.53,6.84-.28,9.5.75,2.66,1.03,4.9,2.62,6.73,4.77,1.83,2.15,3.27,4.68,4.32,7.57,1.05,2.9,1.8,5.93,2.26,9.1.45,3.17.57,6.29.36,9.37s-.89,5.89-2.02,8.45c-1.13,2.56-2.84,4.7-5.13,6.43-2.28,1.73-5.24,2.86-8.87,3.38ZM163.29,93.42c2.53-.36,4.49-1.22,5.89-2.57,1.4-1.35,2.38-3,2.95-4.96.56-1.95.84-4.01.84-6.17,0-2.16-.15-4.22-.43-6.2-.28-1.93-.72-3.94-1.32-6.04-.61-2.09-1.45-4-2.54-5.72-1.09-1.72-2.49-3.04-4.19-3.97-1.71-.93-3.82-1.21-6.35-.85-2.57.37-4.57,1.24-5.99,2.62s-2.41,3.04-2.98,5-.83,4.01-.8,6.16c.03,2.15.18,4.22.47,6.19.28,1.98.71,4,1.29,6.07.58,2.07,1.4,3.97,2.47,5.69,1.07,1.72,2.48,3.03,4.22,3.93,1.75.9,3.91,1.16,6.48.79Z"/>
        <path class="cls-3" d="M165.93,91.55c.46-.15.65-.67,1.19-.61.25.02.19-.47.54-.33.22.08.28-.1.5-.06.29.05.37-.1.41-.37.05-.14.05-.26.22-.49.14-.17.28-.2.28-.52,0-.27.5-.29.52-.56.01-.51.53-.59.25-1.27-.09-.5.21-.78.29-1.13l.47-1.3c.04-.11.17-.19.29-.27.25-.18.25-.41.14-.68-.19-.49.51-1.72.36-1.95-.16-.31-.25-2.36-.2-2.56.05-.12.17-.23,0-.32.18-.2-.14-.47.1-.63.1-.39.16-.54.1-1-.06-.43.86-.97.5-1.37-.07-.89-.2-1.43-.32-1.54-.22-.2.11-.35-.11-.55-.3-.27.24-.97-.02-1.01-.28-.04-.22-.24-.46-.32-.51-.17-.48-.51-.27-.88.11-.19-.4-.27-.24-.45.3-.32.39-.64.3-.96-.19-.68-.43-1.34-.64-2.01-.14-.43-.31-.84-.12-1.32-.27-.6-.31-.93-.51-1.14-.4-.19-.15-.64-.65-.74-.68-.13-.55-.09-.78-.61.11-.17.13-.55-.12-.53,0-.34-.23-.53-.22-.57.14-.64-.39-.21-.21-.9-.19-.2-.18-.37-.58-.24-.2.07-.28,0-.24-.17.03-.16-.06-.21-.23-.22-.66-.01-.47-.88-1.11-.87-.12-.25-.5-.21-.68-.38-.3-.29-.66-.46-.78-1.03-.03-.15-.3-.14-.47-.07-.27.13-.22-.36-.49-.23-.29.16-.26-.26-.36-.51-.08-.19-.17-.38-.38-.23-.29.2-.53.04-.8.05-.27.02-.5-.44-.77-.19-.35.33-.75-.16-1.07.31-.2.31-.38-.03-.6.1-.29-.57-.64-.63-.99-.44-.37.21-.66.57-1.12.43-.15-.05-.26.25-.39.36-.13.12-.25.26-.39.31-.3.1-.76-.27-1.01,0-.22.25-.46.29-.64.56-.12.17-.56.18-.72.32-.35.31-.11,1.08-.82,1.01-.14.16-.39.26-.27.58.16.41.07.61-.29.69-.06.01-.16.03-.15.08.04.38.08.71-.37.84-.03.27-.14.49-.37.69-.23.19.21.6-.09.79-.24.17-.21.41-.09.66.12.26.04.46-.12.67-.11.14-.25.31-.19.48.32.93.28,1.71-.24,2.57-.19.32-.07.64-.04.99.23.28.07.48-.28.64-.18.08-.06.17.17.27.46.48-.28.92-.11,1.17.24.35.37.69.09,1.09-.11.16-.18.42-.06.54.29.29.27.55.14.88-.18.44-.14.88.35,1.23.39.28.41.66.46,1.03.07.47-.28,1.03.21,1.43.05.04.04.12.02.18-.32.74-.23,1.41.5,1.92.16.11.2.35.14.53-.21.62-.17,1.18.43,1.53.11.06.17.2.14.32-.31.95.24,1.66.63,2.36.31.57.62,1.12.79,1.77.05.18.08.34.26.41.49.19.68.51.71,1.03.02.32.22.53.54.55.54.03.78.28.93.79.07.23.2.45.39.54.49.25.82.76,1.38.72.55-.05.97.42,1.54.35.33-.04.65-.41.97-.18.33.22.65.08.98-.03.29-.09.57.24.86.45.31.23.64,1.74.44,2.19-.01.03-.13.28-.18.23-.11.14-.84.67-1.52.66-.36,0-.74.04-1.07-.2-.28-.2-.53-.21-.84-.03-.37.22-.79.23-1.12.02-1.06-.69-2.22-1.07-3.16-1.75-.3-.21-.57-.45-.82-.71-.1-.1-.13-.3-.25-.34-1.44-.51-2.22-1.92-3.1-3-.27-.33-.4-.57-.76-.83-.6-.45-.64-1.07-.93-1.97.08-.3.04-.59.11-.89.05-.24,0-.42-.16-.58-.74-.74-.9-1.74-1.33-2.57-.06-1.14-.48-2.61-.62-2.73-.05-.33-.02-.68,0-1.02.02-.27.11-.55.14-.82.04-.35-.1-.66-.45-.91-.36-.26-.46-.58-.26-.94.34-.63.33-1.2-.14-1.76-.46-.56-.45-1.16-.13-1.77.28-.54.26-1.05-.17-1.57-.31-.39-.23-.83,0-1.24.11-.19.32-.42.24-.58-.19-.37.06-1.13-.07-1.23-.13-.1-.06-.29-.03-.41.1-.34.18-.63.22-.97.04-.34-.15-.73-.13-1.09.01-.28.04-.64.28-.8.55-.36.16-1.01.49-1.45.28-.37.48-.78.69-1.19.25-.48.44-.96.38-1.6-.03-.35.22-.6.46-.82.25-.26,1.07-1.12,1.29-1.14.88-.15,1.3-.99,1.94-1.51.31-.26.54-.65.89-.86.27-.16.65-.1.94-.19.19-.07.29-.53.57-.27.35.34.53.31.8.05.32-.32.6-.8,1.14-.72.36.06.66-.27,1.07-.16.44.12.92.11,1.35-.03.55-.18,1.05.34,1.56.15.51-.19.91.12,1.34.29.83.32,1.61.51,2.61.41.49-.06,1.01.06,1.39.26.39.2.72.51.96.92.35.58.78.97,1.28,1.36.67.52,1.37,1.1,1.49,2.02.03.26.26.35.42.5.82.77,1.46,1.66,1.42,2.85-.02.35.2.68.38.98.18.3.46.56.68.84-.17.83.42,1.52.16,2.32-.05.16-.03.26.09.37.17.14.38.29.41.48.17.92.83,1.76.52,2.79.18.37.4.73.52,1.11.21.66.25,1.36.52,2.01.16.4.2.77.2,1.18,0,1.1.13,2.2.15,3.3.03,1.07.04,2.25-.09,3.39-.04.35-.18.7-.33,1.03-.12.27-.23.55-.11.84.25.6.15,1.17.03,1.74-.31,1.63-.94,3.47-1.93,5.06-.35.56-.97.83-1.34,1.38-.28.43-.72.9-1.36,1-1.25,1.01-2.68,1.67-4.08,2.09-.45.14-.89.23-1.34.31-.23.04-.46-.08-.63-.32-.24-.22-.28.28-.59-1-.06-.14,0-1.05.05-1.16.37-.74.82-.43,1.3-.89.32-.31.82-.36,1.17-.58Z"/>
        <path class="cls-3" d="M159.6,101.51c-.8-.08-1.61.22-2.33-.24-.32-.21-.81.15-1.12-.25-.18-.24-.48-.21-.67-.45-.25-.31-.5-.33-.91-.3-.24-.02-.4.02-.86-.14-.36-.14-.5-.29-.96-.29-.41,0-.74-.62-1.13-.69-.82-.16-1.06-.8-2.08-.87-.8-.22-1.26-.87-1.75-1.29-.6-.6-1.13-1.24-1.6-1.91-.11-.16-.15-.38-.18-.58-.07-.44-.33-.7-.68-.94-.71-.45-1.34-2.63-1.61-2.85-.2-.15-.72-.98-1.15-1.84-.43-.86-.75-1.71-.77-1.86-.02-.2.04-.39-.17-.47.07-.34-.36-.66-.2-.98-.07-.62-.07-.85-.31-1.53-.22-.66.53-1.59.08-2.12-.29-1.31-.48-2.13-.62-2.3-.25-.31.07-.52-.18-.83-.33-.43.18-1.44-.09-1.52-.29-.09-.23-.39-.47-.55-.52-.33-.48-.87-.25-1.4.12-.27-.39-.51-.2-.75.33-.42.46-.87.42-1.38-.09-1.07-.15-2.14-.15-3.22,0-.68,0-1.39.37-2,.02-1.04.18-1.53.13-1.97-.22-.56.26-1-.04-1.54-.41-.76-.35-.61-.08-1.55.21-.13.55-.6.38-.83.3-.44.37-.92.41-.95.7-.6,0-.7.82-1.28.13-.44.34-.61.06-.98-.14-.19-.07-.38.15-.52.21-.13.25-.3.24-.55-.02-1.01,1.16-1.49,1.33-2.43.4-.35.52-.94.91-1.31.61-.61,1.21-1.25,2.1-1.43.23-.04.48-.42.6-.68.2-.46.8-.3,1.02-.71.28-.49.74-.29,1.14-.27.32.01.61.02.82-.3.31-.45.86-.57,1.31-.8.48-.25,1.09,0,1.45-.38.53-.53,1.35-.24,1.85-.81.33-.38.69-.1,1.08-.27.52.51,1.06.52,1.67.32.64-.22,1.26-.59,2.02-.36.23.07.56-.19.86-.28.29-.08.6-.18.9-.17.64.02,1.13.58,1.78.51.61-.05,1.05.09,1.67.08.42-.01,1.11.43,1.52.55.9.26,1.91-.09,2.44.8.38.18.7.49,1.16.42.59-.1,1.04.13,1.35.63.05.09.12.22.2.24.63.15,1.25.38,1.51,1.06.46.27.83.62,1.09,1.11.25.45.98.45,1.16,1.02.13.45.44.67.82.88.38.21.6.56.75.97.1.29.21.63.42.81,1.23,1.03,2.01,2.41,2.18,4.01.06.59.38,1.04.62,1.61.38.37.32.72.06,1.06-.13.18.02.27.29.35.67.62.13,1.47.38,1.81.37.48.62,1.01.46,1.66-.06.27-.06.66.1.84.37.42.41.84.34,1.36-.09.7.01,1.36.54,1.93.43.46.47,1.09.53,1.69.08.78-.28,1.57.17,2.33.04.08.03.21,0,.3-.39,1.1-.42,2.12.16,3.19.13.24.11.62,0,.88-.39.88-.54,1.68-.14,2.63.07.17.06.44-.03.6-.74,1.31-.73,2.76-1.05,4.17-.25,1.12-.61,2.21-1.21,3.19-.17.27-.33.5-.36.83-.08.89-.54,1.64-1.25,2.17-.45.33-.75.76-.89,1.29-.24.88-.84,1.5-1.66,1.85-.38.16-.77.38-1.07.66-.77.71-1.8,1.09-2.58,1.79-.82.73-1.91.83-2.81,1.32-.53.28-.98.83-1.64.8-.65-.04-1.18.23-1.75.43-.51.18-1.01-.1-1.47-.27-.51-.19-.85-1.7-.56-2.17.02-.03.18-.29.24-.25.16-.15,1.06-.75,1.84-.92.43-.1.84-.26,1.31-.18.39.07.7-.05.94-.36.28-.39.66-.63,1.09-.68,1.44-.16,2.56-1.04,3.65-1.93l1.02-.83c.13-.11.36-.15.42-.3.77-1.63,1.9-2.96,2.36-4.71.14-.51.26-.84.24-1.38-.05-.89.38-1.48.7-2.64.25-.27.39-.61.6-.91.17-.24.23-.5.17-.77-.29-1.26-.11-2.54-.3-3.81.28-1.5.04-3.59-.11-3.76-.01-.45.03-.91.07-1.36.03-.36.12-.73.15-1.09.04-.48-.12-.92-.49-1.26-.38-.36-.51-.77-.36-1.25.26-.85.13-1.65-.46-2.33-.59-.67-.75-1.43-.64-2.31.09-.76-.15-1.45-.78-1.97-.46-.38-.57-.88-.56-1.45,0-.27.06-.63-.1-.77-.37-.32-.65-1.26-.83-1.29-.17-.03-.25-.26-.31-.4-.16-.4-.33-.73-.56-1.08-.24-.35-.69-.55-.99-.84-.24-.24-.53-.53-.55-.85-.04-.76-.83-.8-1.11-1.31-.24-.44-.61-.8-.99-1.13-.44-.38-.96-.67-1.62-.61-.35.03-.61-.2-.87-.4-.28-.24-1.36-.8-1.5-.97-.52-.79-1.5-.69-2.3-.74-.41-.03-.83.15-1.22.13-.31-.01-.62-.24-.94-.28-.22-.02-.49.37-.67.04-.23-.43-.45-.47-.83-.28-.46.23-.84.66-1.42.51-.4-.09-.78.22-1.24.12-.5-.11-1.07-.06-1.53.16-.57.27-1.24-.11-1.73.26-.45.36-.96.24-1.46.33-.93.16-1.79.6-2.26,1.47-.45.84-1.11,1.4-2,1.71-.65.24-1.12.69-1.5,1.25-.51.76-.87,1.57-1.68,2.15-.24.18-.22.43-.28.68-.32,1.27-.59,2.46-1.44,3.57-.26.34-.3.83-.33,1.26-.03.44.06.88.11,1.32-.58.84-.3,1.92-.8,2.83-.1.19-.12.33-.02.51.12.25.27.52.26.77-.08,1.27.42,2.52.02,3.81.15.52.35,1.03.46,1.55.2.89.27,1.82.61,2.67.21.51.29,1,.37,1.53.2,1.43.62,2.82,1.06,4.18.44,1.37.97,2.69,1.56,3.95.18.39.29.82.4,1.24.1.35.22.7.53.88.64.38,1.03.92,1.46,1.45,1.24,1.54,2.62,2.75,4.24,3.6.55.29.94.85,1.6,1.01.53.13,1.07.29,1.48.74,1.47.41,3.06.56,4.68.51.51-.01,1.03-.05,1.54-.08.27-.02.52.11.71.35.28.22.35-.28.68,1,.08.14-.06,1.06-.16,1.17-.66.77-1.3.45-2.21.81-.63.25-1.47.15-2.17.18Z"/>
      </g>
    </g>
  </g>
  <g>
    <circle class="cls-2" cx="188.9" cy="153.7" r="28.34"/>
    <path class="cls-2" d="M214.96,148.41c-.16-.88-.93-1.51-.66-2.46.11-.44-.7-.63-.39-1.17.19-.34-.07-.57.08-.92.18-.46.03-.71-.41-.98-.2-.19-.39-.27-.66-.73-.2-.36-.18-.62-.64-.88-.4-.22-.24-1.02-.63-1.28-.78-.49-.6-1.35-1.84-1.55-.85-.33-1.06-1.12-1.6-1.54-.59-.61-1.08-1.31-1.7-1.9-.14-.15-.18-.4-.23-.64-.11-.5-.45-.73-.93-.81-.46-.06-1.03-.59-1.55-1.12-.51-.55-1.06-.95-1.26-.96-.56-.06-3.9-1.46-4.18-1.58-.16-.14-.27-.37-.5-.18-.21-.36-.81-.08-.94-.52-.56-.4-.79-.5-1.57-.65-.37-.06-.66-.49-.98-.87-.32-.37-.67-.64-1.07-.46-.76-.11-1.38-.21-1.85-.2-.46.02-.76.07-.88.14-.4.27-.56-.26-.96,0-.53.33-1.6-.57-1.73-.17-.13.42-.46.29-.65.64-.39.75-.95.59-1.54.3-.31-.17-.51.6-.79.34-.51-.45-1.06-.65-1.6-.5-1.15.37-2.31.7-3.4,1.2-.71.28-1.39.61-2.23.5-1,.6-1.58.71-1.89,1.13-.26.69-1.05.48-1.15,1.26-.13,1.06-.05.88-.88,1.45-.3-.1-.94.02-.87.39-.59.12-.82.61-.89.6-1.07.08-.26.71-1.45.74-.3.38-.56.5-.28,1.06.15.3.05.46-.25.5-.28.03-.34.22-.34.49,0,.55-.34.85-.68,1.18-.35.32-.71.64-.69,1.17-.44.31-.3,1.01-.6,1.41-.24.34-.44.69-.71,1-.23.33-.52.63-.97.85-.24.12-.24.59-.15.9.14.51-.61.6-.44,1.1.21.58-.46.62-.87.85-.32.18-.65.36-.44.78.27.58-.03,1.06-.1,1.58-.08.52-.79.91-.48,1.46.44.74-.48,1.37.17,2.08.42.45-.11.7.02,1.13-.89.38-1.15.99-.89,1.67.25.72.73,1.35.38,2.15-.08.25.34.56.5.84.16.28.35.56.39.86.06.62-.57,1.31-.2,1.91.34.54.3,1.03.69,1.54.26.34.16,1.18.31,1.58.09.22.22.41.38.58.18.16.36.31.53.46.32.31.53.64.33,1.22.16.38.21.87.79.95.72.11,1.01.46.95,1.11-.01.12-.04.28.04.33.64.29,1.21.56,1.16,1.38.39.34.69.71.88,1.23.17.52,1.09.31,1.18.95.1.49.5.64.96.71.47.07.73.36.92.77.14.28.33.59.61.66,1.63.37,2.84,1.02,3.85,2.38.39.49.98.55,1.54.77.58-.11.78.19.83.79.03.3.23.19.5-.07.5-.17.8.07,1.06.34.26.24.47.53.7.47.67-.18,1.25-.18,1.77.41.22.22.6.41.86.28.58-.31.99-.18,1.48.15.67.38,1.43.42,2.12-.19.56-.47,1.17-.48,1.79-.49.4-.01.8.14,1.21.21.4.04.81-.01,1.16-.37.07-.07.2-.06.3-.02,1.2.57,2.34.29,3.15-.8.18-.22.54-.36.84-.3,1.01.2,1.96.08,2.45-.99.09-.19.31-.33.51-.3.41.05.8.04,1.15-.06.35-.11.67-.27.98-.46.31-.19.6-.4.9-.61.28-.22.54-.49.82-.71.43-.38.9-.7,1.34-1.06.43-.37.89-.7,1.41-.98.29-.15.56-.28.63-.64.2-.94.83-1.42,1.67-1.79.54-.23.86-.66.9-1.24.07-.95.45-1.6,1.32-2.04.41-.2.73-.53.89-.91.2-.49.52-.92.82-1.37.27-.46.46-.96.5-1.5.1-1.08.83-1.95.91-3.02.07-.63-.48-1.32-.04-1.88.41-.58.33-1.2.21-1.82-.08-.55.48-.97.87-1.44.43-.49,2.75-.69,3.36-.22.04.03.38.3.29.38.16.22.79,1.65.64,2.8-.11.62-.14,1.27-.56,1.8-.35.44-.4.88-.21,1.41.24.64.19,1.33-.17,1.86-1.22,1.71-1.79,3.6-2.8,5.33-.27.55-.69,1.03-1.06,1.52-.15.19-.45.3-.51.51-.08.31-.17.61-.28.91-.13.28-.28.56-.43.83-.31.54-.66,1.06-1.02,1.57l-2.44,2.86c-.49.58-.86.89-1.21,1.61-.3.58-.76.92-1.28,1.26-.53.33-1.12.68-1.9,1.06-.53,0-1.03.17-1.54.19-.42.01-.71.19-.98.47-.6.67-1.34,1.17-2.1,1.63-.79.39-1.62.73-2.4,1.18-1.05.17-2.28.39-3.26.67-.99.2-1.76.39-1.88.51-.63.06-1.27.06-1.9-.06-.5-.08-.99-.25-1.48-.33-.64-.1-1.24.06-1.8.48-.58.46-1.21.51-1.81.13-1.05-.67-2.06-.95-3.28-.48-1.21.42-2.32.01-3.26-.76-.8-.76-1.69-1.08-2.86-.83-.85.15-1.5-.33-2.04-.95-.25-.3-.51-.74-.82-.77-.71-.06-1.78-1.01-2.02-.91-.24.1-.52-.15-.68-.29-.46-.44-.87-.81-1.37-1.16-.51-.35-1.26-.41-1.79-.78-.42-.28-.96-.65-1.05-1.11-.23-1.06-1.35-1.13-1.79-1.94-.17-.35-.38-.67-.62-.98-.21-.33-.43-.65-.65-.96-.52-.74-1.16-1.35-2.07-1.76-.51-.21-.73-.75-.93-1.25-.28-.53-1.02-2.35-.98-2.69.05-.36.02-.69-.07-1-.07-.32-.17-.63-.32-.92-.28-.59-.68-1.16-.97-1.75-.26-.59-.74-1.11-.95-1.72-.15-.49,0-1.05-.06-1.56-.03-.34-.7-.64-.24-1.02.58-.47.59-.78.24-1.32-.44-.64-1.06-1.23-.82-2.14.17-.6-.28-1.21-.04-1.9.3-.73.41-1.57.29-2.33-.2-.98.79-1.71.59-2.6-.18-.88.33-1.49.69-2.17.32-.65.57-1.3.69-1.99.18-.67.25-1.37.15-2.15-.05-.39-.05-.77-.01-1.14.06-.36.17-.7.32-1.03.29-.66.72-1.26,1.3-1.75.9-.68,1.43-1.5,1.93-2.44.76-1.19,1.43-2.56,2.89-3.1.41-.17.49-.56.69-.88,1.05-1.63,2.43-3.11,4.47-3.53.59-.15,1.11-.6,1.62-.99.5-.39.9-.92,1.36-1.39.76,0,1.41-.27,2.06-.54.33-.13.65-.28.99-.36.35-.07.7-.1,1.07-.05.3.04.48-.01.67-.24.25-.3.53-.65.87-.75.87-.2,1.7-.55,2.56-.83.85-.3,1.77-.35,2.68-.12.35-.13.71-.29,1.07-.41.36-.11.73-.2,1.1-.26.64-.1,1.29-.15,1.94-.21.65,0,1.29-.02,1.94-.13.79-.14,1.51-.1,2.27.1,2.05.4,4.11.8,6.1,1.49.98.37,1.99.67,2.92,1.16.94.46,1.91.88,2.77,1.47.55.35,1.02.82,1.47,1.27.35.4.71.81,1.24.89.55.08,1.04.28,1.5.54.44.28.83.63,1.24.97,1.2.94,2.21,2.08,3.28,3.17.95,1.19,1.99,2.33,2.8,3.63.3.44.47.94.66,1.42.16.5.31,1.01.62,1.46.5.72.97,1.58.79,2.58l.65,1.75c.19.59.33,1.2.5,1.8.36,1.2.54,2.43.73,3.67.15.78.17,1.56.19,2.35,0,.41-.21.78-.59,1.01-.37.36.37.56-1.58.77-.23.07-1.57-.27-1.73-.39-1.07-.85-.49-1.56-1.07-2.57-.44-.67-.42-1.59-.63-2.33Z"/>
  </g>
  <g>
    <circle class="cls-2" cx="244.32" cy="165.75" r="19.05"/>
    <path class="cls-2" d="M261.84,162.19c-.11-.59-.62-1.01-.44-1.65.07-.3-.47-.42-.26-.79.13-.23-.05-.38.05-.62.12-.31.02-.48-.27-.66-.13-.13-.27-.18-.44-.49-.14-.24-.12-.42-.43-.59-.27-.15-.16-.69-.42-.86-.53-.33-.4-.91-1.24-1.04-.57-.22-.72-.75-1.07-1.03-.39-.41-.73-.88-1.14-1.28-.09-.1-.12-.27-.15-.43-.07-.34-.3-.49-.62-.55-.31-.04-.69-.4-1.04-.75-.34-.37-.71-.64-.85-.65-.38-.04-2.62-.98-2.81-1.06-.11-.09-.18-.25-.34-.12-.14-.24-.54-.05-.63-.35-.38-.27-.53-.34-1.05-.44-.48-.09-.83-1.16-1.38-.9-.51-.07-.93-.14-1.24-.14-.31.01-.51.04-.59.09-.27.18-.38-.17-.65,0-.36.22-1.07-.38-1.16-.12-.09.28-.31.19-.44.43-.26.5-.64.4-1.03.2-.21-.11-.35.4-.53.23-.34-.31-.71-.44-1.08-.33-.77.25-1.55.47-2.29.81-.48.19-.94.41-1.5.33-.67.41-1.06.48-1.27.76-.17.46-.7.32-.78.85-.09.71-.03.59-.59.98-.2-.06-.63.01-.58.26-.4.08-.55.41-.6.4-.72.05-.17.48-.97.5-.2.25-.38.33-.19.72.1.2.04.31-.17.33-.19.02-.23.15-.23.33,0,.72-.93.87-.92,1.58-.3.21-.2.68-.41.95-.16.23-.3.46-.47.67-.15.22-.35.42-.65.57-.16.08-.16.39-.1.6.09.34-.41.41-.3.74.14.39-.31.42-.59.57-.22.12-.43.24-.3.52.18.39-.02.71-.06,1.06-.05.35-.53.61-.33.98.29.5-.32.92.11,1.4.28.3-.07.47.02.76-.6.26-.77.67-.59,1.12.17.48.49.91.26,1.45-.06.17.23.37.34.56.11.19.23.38.26.58.04.41-.38.88-.14,1.28.23.36.2.69.46,1.04.18.23.11.79.21,1.06.21.62,1.14.74.83,1.52.11.26.14.58.53.64.48.08.68.31.64.75,0,.08-.02.19.03.22.43.2.82.38.78.92.26.23.47.48.59.83.12.35.73.21.79.64.07.33.34.43.64.48.31.05.49.24.62.52.1.19.22.4.41.44,1.1.25,1.91.69,2.59,1.6.27.33.66.37,1.04.52.39-.08.53.13.56.53.02.2.16.12.34-.05.34-.12.54.04.71.23.18.16.32.36.47.32.45-.12.84-.12,1.19.28.15.15.41.28.58.19.39-.21.66-.12,1,.1.45.25.96.28,1.43-.13.37-.31.79-.33,1.2-.33.27,0,.54.09.81.14.27.03.54,0,.78-.25.05-.05.14-.04.2-.01.81.39,1.57.19,2.11-.54.12-.15.36-.24.56-.2.68.13,1.32.05,1.65-.67.06-.13.21-.22.34-.2.56.09,1.02-.09,1.43-.35.42-.24.79-.56,1.15-.89.29-.25.61-.47.9-.71.29-.25.6-.47.95-.66.19-.1.37-.19.43-.43.13-.63.56-.95,1.12-1.2.36-.15.58-.45.61-.83.05-.64.3-1.07.89-1.37.28-.14.49-.36.6-.61.14-.33.35-.62.55-.92.18-.31.31-.64.33-1.01.07-.73.56-1.31.61-2.03.05-.42-.32-.88-.03-1.26.28-.39.22-.8.14-1.23-.05-.37.32-.65.59-.97.29-.33,1.85-.47,2.26-.15.03.02.25.2.2.25.11.15.53,1.11.43,1.88-.08.42-.09.85-.37,1.21-.23.29-.27.59-.14.95.16.43.13.9-.11,1.25-.82,1.15-1.2,2.42-1.88,3.58-.18.37-.46.69-.71,1.02-.1.13-.31.2-.34.34-.17.85-.7,1.52-1.17,2.22-.55.64-1.09,1.28-1.64,1.92-.33.39-.58.6-.81,1.08-.44.75-1.13,1.01-2.13,1.56-.36,0-.69.11-1.04.13-.28,0-.48.13-.66.31-.4.45-.9.79-1.41,1.09-.53.26-1.09.49-1.61.79-.71.11-1.53.26-2.19.45-.67.14-1.18.26-1.26.35-.42.04-.85.04-1.28-.04-.34-.05-.67-.17-1-.22-.43-.07-.83.04-1.21.32-.39.31-.81.34-1.22.08-.71-.45-1.38-.64-2.2-.32-.81.28-1.56,0-2.19-.51-.54-.51-1.14-.73-1.92-.56-.57.1-1.01-.22-1.37-.64-.17-.2-.34-.5-.55-.51-.48-.04-1.2-.68-1.36-.61-.16.06-.35-.1-.46-.19-.31-.29-.58-.54-.92-.78-.34-.24-.85-.27-1.2-.52-.29-.19-.64-.43-.7-.75-.15-.71-.91-.76-1.2-1.31-.12-.23-.26-.45-.41-.66-.14-.22-.29-.43-.44-.64-.35-.5-.78-.91-1.39-1.18-.34-.14-.49-.51-.62-.84-.19-.35-.68-1.58-.66-1.81.1-.94-.49-1.68-.91-2.47-.18-.39-.49-.74-.64-1.16-.1-.33,0-.71-.04-1.05-.02-.23-.47-.43-.16-.68.39-.31.4-.52.16-.88-.3-.43-.71-.83-.55-1.44.11-.4-.19-.82-.03-1.28.2-.49.28-1.05.19-1.57-.13-.66.53-1.15.39-1.75-.12-.59.22-1,.47-1.46.22-.44.38-.88.46-1.34.12-.45.17-.92.1-1.45-.07-.52,0-1.02.2-1.46.2-.44.48-.85.87-1.18.6-.46.96-1.01,1.3-1.64.51-.8.96-1.72,1.94-2.08.28-.11.33-.37.46-.59.71-1.1,1.64-2.09,3-2.38.4-.1.75-.41,1.09-.66.33-.26.61-.62.91-.94,1.02.03,1.75-.8,2.76-.64.2.03.32,0,.45-.16.17-.2.36-.44.59-.51.58-.14,1.14-.37,1.72-.56.57-.2,1.19-.23,1.8-.08.47-.2.96-.38,1.46-.45.43-.07.87-.1,1.3-.14.44,0,.87-.01,1.3-.09.53-.09,1.01-.07,1.53.06,1.38.27,2.77.54,4.1,1,1.33.46,2.63,1.03,3.82,1.77.37.23.69.55.99.85.24.27.48.54.84.6.37.06.7.19,1.01.36.29.19.56.42.83.65.8.63,1.49,1.4,2.21,2.13.64.8,1.34,1.57,1.88,2.44.2.3.32.63.44.96.11.34.21.68.42.98.33.48.65,1.06.53,1.73l.44,1.18c.13.4.22.81.33,1.21.24.81.36,1.64.49,2.47.1.52.11,1.05.12,1.58,0,.28-.14.52-.4.68-.25.24.25.38-1.06.52-.15.05-1.06-.18-1.16-.26-.72-.57-.33-1.05-.72-1.73-.3-.45-.28-1.07-.43-1.57Z"/>
  </g>
</svg>