<?xml version="1.0" encoding="UTF-8"?>
<svg id="illuer_blå_bg" xmlns="http://www.w3.org/2000/svg" viewBox="0 0 137.18 186.8">
  <defs>
    <style>
      .cls-1 {
        fill: #ff9400;
      }

      .cls-2 {
        fill: #ffe6c4;
      }
    </style>
  </defs>
  <g>
    <path class="cls-1" d="M67.23,119.61c-10.32,1.06-18.17-.77-23.55-5.5-5.39-4.72-8.5-11.19-9.34-19.39-.84-8.2.89-15.15,5.2-20.88,4.31-5.73,11.52-9.11,21.63-10.14,10.11-1.04,18.11.78,23.39,5.52,5.28,4.73,8.35,11.2,9.19,19.4.84,8.2-.85,15.15-5.05,20.86-4.21,5.71-11.37,9.09-21.47,10.13"/>
    <path class="cls-2" d="M60.5,61.19c1.02-4.73,4.06-10.83,12.39-11.03-.26,3.33-2.03,11.15-11.21,13.65.15.46.27.88.35,1.25l.05.24v.05c.09.54-.27,1.05-.81,1.16-.54.11-1.06-.23-1.2-.75v-.05s-.06-.21-.06-.21c-.48-2.16-2.16-6.07-6.25-7.51l-.2-.07-.05-.02c-.51-.19-.78-.75-.61-1.28.17-.52.72-.82,1.24-.67h.05s.25.1.25.1c2.97,1.04,4.87,3.11,6.05,5.14Z"/>
  </g>
  <path class="cls-1" d="M38.54,175.74c-10.37-.24-17.93-3.05-22.67-8.42-4.76-5.36-7.03-12.17-6.83-20.41.19-8.24,2.78-14.92,7.79-20.06,4.99-5.14,12.58-7.59,22.74-7.35,10.16.24,17.87,3.05,22.52,8.42,4.64,5.36,6.87,12.16,6.68,20.4-.19,8.24-2.74,14.92-7.64,20.06-4.89,5.13-12.42,7.59-22.58,7.35"/>
  <path class="cls-1" d="M108.65,167.89c-10.14,2.22-18.14,1.28-24.02-2.82-5.89-4.08-9.7-10.16-11.46-18.21-1.76-8.05-.82-15.15,2.82-21.33,3.64-6.18,10.42-10.35,20.35-12.52,9.93-2.17,18.09-1.27,23.87,2.85,5.78,4.11,9.56,10.19,11.31,18.24,1.76,8.05.86,15.15-2.67,21.3-3.54,6.14-10.28,10.31-20.2,12.48"/>
  <path class="cls-2" d="M19.56,80.2c.43.33,1.03.31,1.3.84.13.24.57.04.63.41.04.23.25.25.31.47.08.29.25.33.55.33.16.03.29,0,.57.15.23.11.3.25.62.23.28-.02.44.48.72.49.57.02.72.51,1.45.33.56-.02.91.32,1.3.48.48.24.94.51,1.4.76.11.06.18.21.25.33.16.27.4.34.69.32.55-.02,1.7.98,1.96.93.35-.04,2.52.67,2.68.79.1.09.17.23.31.12.13.23.5.07.59.33.35.24.47.34.95.47.45.12.64,1.1,1.15.96.88.32,1.46.41,1.61.37.28-.09.29.23.57.14.38-.13.83.62.97.42.15-.21.32-.06.5-.22.38-.34.7-.17.96.15.14.17.44-.2.53,0,.18.38.44.6.77.68.72.17,1.45.26,2.18.4.46.09.93.14,1.3.53.7.1,1.03.21,1.33.17.39-.21.67.2,1.05-.1.51-.42.4-.36,1.03-.22.09.17.42.41.56.23.31.19.63.13.65.16.47.46.45-.15.93.38.3,0,.45.1.63-.24.09-.18.22-.18.34-.04.12.13.23.1.38,0,.57-.38,1.15.32,1.73-.04.31.12.66-.11.98-.06.52.08,1.05.07,1.52.49.12.12.4,0,.57-.12.28-.21.49.22.76.03.31-.22.47.15.68.35.16.16.32.29.55.13.31-.23.65-.11.98-.14.34-.02.65.36.96.13.43-.32.89.13,1.29-.28.26-.27.45.04.72-.05.27.54.65.63,1.06.51.44-.12.86-.43,1.35-.21.15.07.36-.17.55-.25.19-.08.38-.18.57-.18.4-.02.77.44,1.18.3.38-.13.67-.07,1.04-.22.25-.1.75.08,1.01.05.6-.07,1.01-.76,1.6-.29.26-.03.55.07.75-.22.25-.36.54-.42.9-.24.06.03.15.08.2.05.35-.26.69-.49,1.12-.24.31-.13.62-.17.96-.08.33.08.56-.45.93-.29.29.13.52,0,.74-.19.22-.19.48-.21.76-.17.2.03.43.08.58-.03.88-.62,1.8-.86,2.86-.63.4.08.72-.1,1.09-.23.26-.28.49-.19.73.08.12.14.19.01.24-.21.41-.52,1.01.03,1.23-.17.32-.29.66-.48,1.12-.31.19.07.46.08.57-.06.26-.31.54-.35.9-.31.49.06.93-.07,1.23-.58.24-.41.65-.49,1.03-.61.49-.15,1.11.08,1.5-.42.04-.05.13-.06.19-.04.81.17,1.48-.04,1.98-.78.11-.16.35-.24.54-.21.66.1,1.23,0,1.63-.6.07-.11.23-.18.35-.16,1.05.21,1.82-.43,2.65-.82.67-.32,1.33-.62,2.07-.75.2-.04.39-.06.53-.23.37-.45.86-.64,1.45-.61.37.02.67-.13.88-.44.34-.51.81-.7,1.41-.67.28.02.57-.02.8-.15.58-.33,1.32-.35,1.81-.84.5-.5,1.23-.51,1.76-.94.31-.25.48-.73.92-.75.44-.02.72-.31,1.03-.56.28-.22.69-.08,1.05-.03.4.06,1.18,1.22,1.13,1.67,0,.03-.03.28-.09.26-.06.16-.53.86-1.09,1.14-.31.15-.59.36-.97.34-.31-.02-.53.11-.67.4-.16.36-.45.59-.8.64-1.13.16-2.07.74-3.08,1.16-.31.13-.64.24-.96.35-.13.04-.31,0-.39.08-1.02,1-2.36,1.4-3.54,2.1-.35.22-.6.31-.9.63-.49.52-1.08.53-1.95.84-.29-.06-.57-.01-.85-.05-.23-.03-.41.03-.57.18-.72.7-1.68.95-2.51,1.46-1.14.2-2.57.84-2.68.96-.33.09-.68.11-1.03.14-.28.02-.56-.01-.84,0-.36.02-.65.2-.86.56-.21.37-.51.52-.89.42-.67-.17-1.24-.04-1.73.47-.48.51-1.07.63-1.75.47-.59-.13-1.1.01-1.52.51-.31.37-.73.4-1.17.28-.21-.05-.48-.18-.61-.07-.3.25-1.08.26-1.13.4-.05.14-.25.14-.37.15-.34.02-.63.05-.95.13-.33.08-.6.38-.93.51-.25.1-.58.19-.81.06-.55-.32-.91.25-1.4.18-.41-.06-.83-.01-1.24.04-.48.06-.94.2-1.33.62-.21.22-.52.19-.8.17-.32-.02-1.35.04-1.52-.06-.69-.41-1.39,0-2.07.16-.34.07-.65.29-.99.34-.26.03-.55-.14-.82-.14-.18,0-.38.37-.55.08-.21-.37-.38-.4-.69-.22-.36.21-.69.59-1.16.44-.32-.1-.64.13-1-.01-.39-.16-.84-.2-1.24-.1-.51.13-.95-.35-1.41-.16-.45.19-.81-.06-1.21-.18-.75-.21-1.5-.24-2.26.15-.75.4-1.53.38-2.25-.04-.52-.3-1.05-.37-1.62-.37-.76,0-1.55.06-2.23-.45-.2-.14-.4-.05-.6-.03-1.05.08-2.1.1-3.02-.6-.28-.2-.66-.21-1-.23-.34-.02-.7.07-1.05.11-.63-.51-1.48-.4-2.08-.95-.12-.11-.22-.14-.38-.09-.2.07-.44.17-.62.11-.93-.25-1.97-.14-2.77-.82-.41-.01-.83.01-1.24-.05-.69-.12-1.35-.38-2.05-.42-.43-.03-.79-.14-1.18-.3-1.02-.45-2.1-.76-3.14-1.16-1.03-.42-2.09-.78-3.1-1.26-.31-.14-.59-.37-.87-.58-.22-.18-.46-.35-.76-.31-.61.06-1.11-.17-1.63-.39-1.48-.64-2.94-1.33-4.39-2.03-.51-.23-.81-.76-1.36-.96-.44-.16-.89-.4-1.13-.89-1.14-.69-2.26-1.42-3.36-2.19-.35-.25-.69-.5-1.02-.77-.18-.14-.24-.37-.2-.64-.01-.3-.39-.04.27-1.03.06-.13.72-.62.83-.64.78-.16.89.36,1.57.5.46.1.86.49,1.28.7Z"/>
  <path class="cls-2" d="M7.4,137.66c.97-.47,1.68-1.24,2.73-1.46.48-.09.74-.72,1.32-.71.36,0,.63-.27,1-.3.48-.04.74-.25,1.11-.63.24-.2.36-.36.9-.72.42-.28.69-.34,1.05-.78.32-.38,1.15-.48,1.52-.85.74-.73,1.53-.86,2.18-1.89.65-.77,1.53-1.17,2.2-1.66.87-.61,1.74-1.23,2.63-1.82.21-.14.48-.21.72-.28.53-.16.9-.47,1.23-.9.61-.82,3.17-2.25,3.43-2.64.4-.47,3.67-3.63,4.02-3.82.22-.13.46-.2.5-.44.42-.14.66-.74,1.04-.83.66-.5.91-.67,1.58-1.38.63-.67,1.95-.76,2.37-1.57,1.29-1.33,1.99-2.26,2.11-2.51.19-.47.56-.42.75-.89.26-.64,1.55-1.21,1.49-1.48-.06-.28.24-.55.24-.87,0-.69.5-1.19,1.1-1.57.32-.2.21-.77.53-.89.58-.22,1.08-.61,1.49-1.17.46-.57.84-1.2,1.22-1.82l1.17-1.85c.5-.78.98-1.59,1.72-2.15.66-1.23,1.02-1.81,1.22-2.36.1-.74.74-1.17.71-1.89-.01-.41-.03-.59.02-.8.11-.31.27-.6.59-1.16.22.08.59.21,1.05.37.13.05.31.12.51.18.2.07.25.05.39.08.06,0,.12.01.17.02.06,0,.11.02.14-.07.1.12.03-.91.01-1.32,0-.07-.01-.19,0-.23h.05s.11.04.11.04l.21.04c.14.02.27.05.4.07.12.02.23.03.34.05.07,0,.13.01.19.02.24.02.41.01.43.03,1.01.47.84-.14,1.9.38.59-.01.91.08,1.19-.27.14-.18.38-.2.67-.07.26.12.48.08.74-.03,1.04-.44,2.34.19,3.39-.25.64.07,1.27-.21,1.91-.23,1.05-.03,2.06-.17,3.08.11.27.07.78-.11,1.07-.28.5-.28,1.01.07,1.48-.2.55-.32.95-.01,1.39.1.36.09.7.16,1.08-.09.27-.18.57-.27.89-.35l.49-.11c.28-.06.56-.13.83-.21.57-.16,1.12-.23,1.62-.3.52-.09.97-.18,1.6-.51.42-.22.84-.39,1.24-.53.29.18.46.36.69.47.23.08.48.11.74.07.37.23.35.62.45,1.06-.58.88-.96,1.73-1.4,2.83-.23.58-.45,1.19-.77,1.85-.3.63-.8,1.45-1.08,1.69-.23.22-.27.73-.43,1.1-.15.37-.3.75-.52,1.08-.45.69-1.24,1.01-1.61,1.77-.35.71-.74,1.15-1.1,1.86-.24.48-1,1.14-1.31,1.59-.7.99-.78,2.17-1.86,2.73-.32.43-.76.81-.84,1.34-.1.67-.44,1.19-1.04,1.58-.11.07-.26.16-.3.25-.31.74-.66,1.45-1.41,1.88-.36.57-.76,1.06-1.3,1.49-.51.41-.53,1.21-1.14,1.6-.48.31-.73.75-.95,1.24-.22.5-.58.88-1.01,1.23-.3.24-.67.52-.84.83-.99,1.79-2.29,3.29-3.99,4.48-.63.44-1.04,1.04-1.57,1.65-.3.61-.7.81-1.16.83-.24,0-.29.22-.3.52-.47,1.06-1.59,1.21-1.87,1.69-.4.69-.89,1.31-1.67,1.68-.32.15-.75.46-.89.74-.32.64-.76,1.01-1.36,1.37-.81.48-1.5,1.12-1.89,2.01-.31.72-.97,1.26-1.58,1.8-.8.7-1.84,1.1-2.42,2.07-.06.1-.2.2-.32.25-1.38.64-2.5,1.51-3.29,2.84-.17.29-.59.61-.92.76-1.14.5-2.1,1.14-2.79,2.2-.13.2-.4.42-.61.51-1.79.7-3.19,2.03-4.7,3.16-1.21.9-2.43,1.76-3.76,2.46-.36.19-.7.35-.98.66-.74.82-1.67,1.37-2.71,1.69-.66.2-1.24.57-1.69,1.06-.76.83-1.66,1.33-2.74,1.61-.5.13-1.03.33-1.49.6-1.16.7-2.48,1.11-3.58,1.9-1.12.81-2.46,1.12-3.61,1.83-.68.42-1.23,1.05-2.05,1.23-.82.17-1.47.6-2.18.99-.63.34-1.29.29-1.92.31-.69.03-1.4-1.17-1.07-1.73.02-.03.21-.34.3-.33.19-.2,1.38-1.15,2.49-1.63.61-.27,1.2-.59,1.85-.68.54-.07.98-.29,1.35-.69.44-.48,1.04-.85,1.66-1.03,2.06-.58,3.9-1.69,5.78-2.69l1.77-.91c.23-.12.53-.15.71-.3,2.02-1.74,4.44-2.97,6.53-4.62.62-.5,1.06-.78,1.59-1.36.88-.96,1.87-1.39,3.36-2.4.48-.14.96-.41,1.44-.58.39-.14.7-.35.96-.66,1.2-1.42,2.75-2.51,4.06-3.82,1.85-1.22,4.09-3.28,4.22-3.55.51-.42,1.06-.8,1.6-1.17l1.32-.85c.56-.4.99-.89,1.23-1.49.24-.62.67-1.09,1.29-1.38,1.1-.52,1.95-1.29,2.52-2.38.57-1.08,1.41-1.86,2.47-2.48.92-.54,1.64-1.3,2.08-2.3.32-.73.92-1.26,1.6-1.7.32-.2.77-.42.91-.69.32-.62,1.42-1.6,1.43-1.81.01-.2.29-.45.45-.61.47-.45.87-.86,1.28-1.35.42-.5.65-1.13,1.03-1.67.3-.42.68-.95,1.07-1.14.91-.46,1.07-1.46,1.76-2.06.58-.51,1.11-1.14,1.61-1.75.59-.72,1.11-1.48,1.35-2.37.13-.48.52-.9.88-1.29.41-.44,1.63-2,1.89-2.17,1.13-.72,1.69-2.07,2.37-3.21.34-.56.53-1.2.87-1.75.27-.43.71-.75,1.01-1.18.2-.28.12-.83.54-.91.52-.1.73-.36.91-.94.11-.35.17-.71.28-1.06l.04-.13s0-.02-.01-.03c-.01-.01-.02-.02-.02-.03,0-.01,0-.02.06-.02.17-.06-.12-.04.11-.13.27-.14.45-.38.28-.33-.2.11.21-.32-.04-.22-.03.01-.06.04-.1.07-.29.27-.21,0-.45-.05l-.07-.02h-.04s-.13.01-.13.01l-.56.08c-.37.06-.74.13-1.11.22-.73.17-1.45.4-2.14.72-1.38.63-2.93.83-4.45.61-1.1-.16-2.16-.13-3.28-.04-1.5.12-3.05.26-4.51-.18-.43-.13-.79-.02-1.19.01-1.02.07-2.03.1-3.04.02l-.38-.04-.18-.02h-.03s-.1-.05-.16-.08c-.05-.02-.15-.1-.2-.1l-.2.05h-.03c-.1-.13-.51.75-.78,1.34-.29.61-.48,1.26-.71,1.9-.53.51-.88,1.19-1.31,1.8-.44.62-.87,1.23-1.44,1.7-.23.19-.35.36-.43.64-.11.37-.21.79-.44,1.09-.57.76-.98,1.65-1.56,2.41-.56.78-1.16,1.52-1.92,2.12-.41.68-.8,1.39-1.26,2.05-.78,1.13-1.8,2.09-2.56,3.22-.47.68-.98,1.23-1.55,1.82-1.58,1.52-3.15,3.07-4.71,4.61-1.65,1.45-3.28,2.93-4.97,4.32-.54.41-1.13.76-1.71,1.1-.48.28-.96.58-1.26,1.01-.31.45-.68.84-1.08,1.21-.41.35-.85.68-1.29,1.01-2.5,1.92-5.09,3.73-7.71,5.5-.92.6-1.94.88-2.85,1.55-.72.54-1.59,1.04-2.51,1.23-1.12.66-2.27,1.28-3.42,1.88-1.14.62-2.32,1.2-3.49,1.77-.74.37-1.5.7-2.25,1.03-.4.17-.81.19-1.12.07-.44-.06-.49.43-1.14-.57-.13-.1-.06-.98.04-1.12.71-.96,1.59-.99,2.61-1.78.69-.55,1.73-.96,2.54-1.43Z"/>
  <path class="cls-2" d="M25.68,169.82c1.25-.68,2.19-1.64,3.51-2.08.6-.21.99-.91,1.7-1.01.44-.06.81-.39,1.26-.49.59-.13.94-.41,1.42-.89.31-.26.47-.46,1.18-.93.55-.37.88-.49,1.38-1.02.44-.47,1.47-.71,1.96-1.18.98-.95,1.99-1.17,2.92-2.4.9-.95,2.03-1.52,2.91-2.17,1.16-.8,2.33-1.58,3.5-2.35.28-.18.61-.3.91-.41.66-.25,1.15-.66,1.63-1.17.91-.96,4.26-2.86,4.64-3.32.53-.62,5.21-4.38,5.63-4.66.29-.17.59-.27.69-.54.52-.2.95-.9,1.44-1.01.92-.59,1.25-.8,2.23-1.65.92-.81,2.49-.96,3.17-1.93,1.86-1.58,2.99-2.61,3.19-2.91.36-.53.77-.49,1.13-1.04.48-.74,2.13-1.43,2.14-1.74,0-.34.46-.62.58-.99.24-.79.98-1.36,1.8-1.79.43-.22.5-.88.91-1.02.74-.25,1.44-.67,2.08-1.32l4.08-4.12c.85-.88,1.69-1.81,2.71-2.41,1.27-1.35,1.9-1.99,2.35-2.6.43-.85,1.31-1.27,1.6-2.12.4-1.17.29-.93,1.42-2.17.32-.13,1.08-.72,1.11-1.07.69-.57,1.16-1.23,1.22-1.27,1.22-.78.56-.98,1.85-1.78.47-.63.81-.9.76-1.4-.03-.26.16-.52.5-.73.31-.2.46-.45.59-.78.51-1.36,2.07-2.32,2.62-3.68.59-.61.93-1.44,1.44-2.12.85-1.1,1.62-2.24,2.7-3.08.29-.22.6-.86.72-1.29.22-.71.91-.98,1.13-1.65.25-.79.82-.96,1.29-1.32.37-.29.73-.57.9-1.14.22-.81.79-1.51,1.21-2.26.43-.77,1.21-1.28,1.44-2.08.17-.55.48-1.04.78-1.52l.22-.37.35-.54c.24-.39.46-.78.66-1.23.12-.29.27-.5.39-.76.04-.18.08-.35.11-.52l.06-.25c.03-.06.07-.11.1-.16.3-.17.59-.32.91-.63.19.03.37.02.55-.04.18-.04.37-.22.52-.19.39.24.73.49,1.2.92.49.46.97,1.22,1.44,2.04.24.41.47.86.68,1.32l.15.32.08.22c.05.15.1.3.14.46.11.39.56.83.84,1.26.28.43.57.87.79,1.33.45.97.39,1.99.95,2.94.52.88.77,1.6,1.3,2.48.35.59.66,1.85.96,2.49.33.72.77,1.31,1.14,1.9.39.65.59,1.01.92,2.4.14.34.29.68.43,1.02-.49.67-.95,1.33-1.2,2-.17.82-.61,1.5-1.31,2.08-.12.1-.3.24-.36.36-.42.94-.86,1.85-1.74,2.51-.45.75-.94,1.41-1.57,2.03-.6.6-.69,1.54-1.4,2.14-.56.47-.88,1.04-1.15,1.67-.28.63-.71,1.17-1.22,1.67-.36.35-.78.77-1,1.17-1.23,2.33-2.77,4.4-4.73,6.21-.74.67-1.22,1.48-1.85,2.32-.36.79-.82,1.12-1.34,1.26-.27.07-.34.34-.36.68-.57,1.35-1.82,1.83-2.17,2.47-.48.9-1.05,1.76-1.93,2.4-.36.27-.86.75-1.03,1.11-.38.82-.88,1.37-1.57,1.96-.92.79-1.72,1.71-2.17,2.85-.37.92-1.1,1.74-1.81,2.53-.91,1.04-2.1,1.8-2.76,3.09-.07.13-.23.29-.36.38-1.59,1.14-2.84,2.5-3.75,4.24-.2.38-.67.88-1.05,1.15-1.29.94-2.41,1.95-3.17,3.37-.14.26-.45.6-.69.77-2.07,1.35-3.63,3.32-5.39,5.06-.69.7-1.39,1.39-2.1,2.06-.73.66-1.47,1.29-2.24,1.89-.42.33-.81.62-1.13,1.05-.87,1.13-1.96,2.03-3.18,2.72-.78.43-1.48,1-2.01,1.68-.45.57-.94,1.07-1.48,1.5-.56.42-1.16.77-1.81,1.08-.6.28-1.24.67-1.79,1.09-1.47,1.04-3.04,1.89-4.47,2.95-.72.55-1.48,1.03-2.29,1.41-.81.39-1.63.76-2.39,1.25-.91.55-1.75,1.24-2.83,1.52-1.08.27-2.07.65-3.09,1.08-.92.37-1.83.15-2.65.11-.92-.06-1.31-1.4-.72-1.9.04-.03.37-.32.47-.29.15-.09.66-.32,1.3-.56.65-.24,1.41-.66,2.15-.87.81-.22,1.57-.63,2.38-.77.67-.13,1.27-.35,1.75-.84.59-.58,1.34-1.07,2.12-1.34,1.28-.48,2.47-1.18,3.67-1.87,1.15-.77,2.3-1.55,3.44-2.35.7-.51,1.41-1,2.13-1.49.28-.19.64-.31.85-.52,2.39-2.53,5.24-4.61,7.66-7.14.72-.75,1.23-1.21,1.85-2.02.99-1.38,2.15-2.16,3.87-3.79.55-.32,1.1-.78,1.66-1.13.45-.28.81-.63,1.1-1.05,1.35-2,3.15-3.73,4.65-5.65,2.14-1.97,4.69-5.04,4.85-5.38.58-.65,1.21-1.25,1.84-1.85.51-.46,1.02-.92,1.53-1.38.65-.63,1.14-1.33,1.42-2.1.29-.79.79-1.45,1.51-1.98,1.26-.93,2.25-2.07,2.94-3.49.67-1.42,1.67-2.57,2.9-3.59,1.07-.89,1.92-1.96,2.46-3.25.39-.95,1.1-1.73,1.9-2.42.38-.32.89-.69,1.07-1.05.4-.82,1.7-2.25,1.73-2.49.03-.24.36-.61.55-.83.56-.65,1.04-1.23,1.54-1.9.51-.69.82-1.5,1.29-2.22.37-.57.84-1.28,1.29-1.6,1.06-.75,1.33-1.98,2.16-2.85.7-.74,1.35-1.6,1.97-2.44.73-.99,1.39-2,1.74-3.12.18-.59.69-1.21,1.1-1.7.03,0,.06-.02.11-.07v-.07s0-.04,0-.04v-.02s-.05-.15-.05-.15c-.17-.44-.3-.81-.32-.95-.24-1.7-1.31-3.28-2.11-4.83-.4-.77-.93-1.45-1.32-2.22-.3-.6-.41-1.3-.68-1.94-.18-.43-.74-.77-.63-1.25.14-.6,0-1.01-.48-1.65-.3-.37-.59-.74-.89-1.11-.06-.08-.16-.24-.19-.26-.02,0-.03,0-.04,0-.02,0-.01-.02,0-.08.03-.08-.01-.09-.04-.08-.03,0-.04.04-.04-.13,0-.08-.01-.18-.03-.22-.01-.03-.03-.03-.05-.02-.04.02-.08.1-.09.19v.07c-.03.16-.07.05-.25.21-.37.48-.71.95-.94,1.51-.45,1.06-1.16,1.73-1.8,2.56-.6.77-1.14,1.58-1.64,2.4-.52.81-.96,1.66-1.32,2.57-.35.89-.8,1.76-1.34,2.56-.56.79-1.2,1.53-1.91,2.2-1.04.97-1.84,2.08-2.71,3.24-1.16,1.56-2.25,3.24-3.78,4.43-.45.35-.65.79-.95,1.21-1.5,2.2-3.17,4.24-5.28,5.87-.63.5-1.25,1.24-1.82,1.91-.56.67-1.04,1.39-1.56,2.09-1.54,1.07-2.79,2.74-4.36,3.76-.32.21-.52.39-.71.71-.25.42-.53.89-.89,1.22-1.82,1.67-3.33,3.71-5.45,5.02-.69.77-1.35,1.56-2.09,2.29-1.27,1.23-2.65,2.4-3.85,3.67-.74.77-1.48,1.39-2.31,2.05-2.2,1.79-4.41,3.59-6.62,5.39-2.22,1.77-4.47,3.51-6.75,5.21-.71.52-1.48.96-2.23,1.4-.62.36-1.24.75-1.68,1.25-.91,1.04-2.05,1.86-3.2,2.71-3.32,2.39-6.66,4.76-10.05,7.05-1.17.8-2.45,1.26-3.63,2.13-.95.68-2.03,1.39-3.17,1.75-2.88,1.77-5.78,3.49-8.73,5.16-.93.52-1.87,1.04-2.82,1.53-.5.26-.99.36-1.38.3-.55.03-.6.55-1.4-.36-.16-.07-.07-1.02.06-1.19.91-1.17,2.03-1.38,3.34-2.43.9-.73,2.22-1.36,3.24-2.03Z"/>
  <path class="cls-2" d="M85.79,179.2c.54-.44.79-1.11,1.48-1.34.31-.1.3-.63.73-.63.27,0,.38-.23.64-.26.34-.04.47-.22.61-.55.11-.17.14-.32.43-.61.23-.23.41-.28.54-.65.12-.32.72-.39.87-.7.32-.63.9-.68,1.08-1.54.27-.63.83-.93,1.19-1.33.5-.47,1.03-.92,1.56-1.36.12-.1.31-.14.48-.19.37-.09.56-.34.71-.67.29-.63,1.96-1.57,2.07-1.87.15-.41,2.17-2.54,2.4-2.66.15-.08.33-.1.31-.3.3-.06.38-.53.68-.52.45-.29.63-.39,1.06-.85.41-.44,1.46-.27,1.66-.87.85-.83,1.35-1.39,1.4-1.58.1-.34.41-.21.51-.55.13-.46,1.12-.63,1.03-.87-.09-.25.15-.37.12-.63-.06-.54.32-.81.8-.95.25-.07.11-.55.38-.56.47-.02.85-.2,1.15-.52l1.89-2.11c.41-.44.79-.91,1.39-1.11.58-.7.93-.97,1.11-1.31.11-.51.67-.59.67-1.14,0-.75-.02-.6.55-1.19.22,0,.66-.23.6-.47.4-.22.59-.58.63-.59.75-.24.21-.54,1.03-.75.22-.31.43-.41.27-.78-.08-.19,0-.32.22-.38.2-.06.25-.19.28-.39.1-.81,1.13-1.02,1.28-1.8.34-.25.41-.74.69-1.04.46-.5.85-1.04,1.55-1.29.18-.07.3-.41.33-.65.04-.41.56-.38.61-.76.06-.45.49-.39.8-.49.25-.08.48-.17.51-.49.04-.46.39-.73.61-1.09.23-.37.79-.46.83-.91.06-.62.77-.83.74-1.48-.02-.42.37-.43.48-.77.63.02.97-.31,1.16-.82.22-.53.25-1.13.77-1.52.16-.12.11-.47.18-.71.07-.24.11-.49.22-.7.23-.43.86-.57.99-1.08.12-.47.31-.75.4-1.22.07-.31.51-.75.59-1.05.06-.17.07-.34.07-.5-.02-.1-.06-.17-.1-.21-.04-.05-.08-.08-.07-.1,0,.01.02-.08.04-.16.03-.08.06-.16.11-.25-.06-.3.02-.65-.31-.87-.4-.27-.51-.6-.39-1.05.02-.08.06-.19.02-.24-.32-.4-.61-.79-.45-1.34-.19-.36-.3-.73-.3-1.17,0-.42-.59-.62-.52-1.09.05-.38-.14-.63-.39-.88-.26-.24-.35-.56-.37-.91-.02-.24-.03-.54-.18-.71-.21-.25-.4-.5-.57-.76-.11-.11-.13-.08-.13-.07,0,0,0,0,0,0-.12-.1-.24-.21-.35-.33-.22-.23-.43-.49-.62-.77-.28-.42-.72-.6-1.14-.89-.45-.09-.57-.37-.55-.75.01-.2-.15-.19-.38-.11-.79-.1-.82-.99-1.18-1.09-.51-.14-.96-.37-1.2-.9-.1-.22-.32-.49-.53-.52-.48-.07-.74-.33-.99-.72-.34-.52-.8-.89-1.48-.93-.55-.03-.95-.4-1.36-.72-.52-.42-.8-1.14-1.55-1.29-.08-.01-.15-.1-.19-.17-.47-.9-1.14-1.5-2.19-1.67-.23-.04-.48-.26-.59-.47-.39-.73-.9-1.27-1.75-1.42-.16-.03-.34-.15-.41-.29-.57-1.16-1.66-1.75-2.61-2.47-.76-.59-1.49-1.19-2.11-1.92-.17-.2-.31-.39-.58-.48-.7-.23-1.19-.71-1.51-1.36-.21-.41-.54-.69-.97-.82-.73-.2-1.19-.68-1.51-1.35-.15-.31-.35-.62-.61-.83-.67-.54-1.12-1.34-1.88-1.77-.77-.45-1.18-1.26-1.88-1.79-.42-.3-1.01-.41-1.25-.91-.24-.49-.67-.78-1.08-1.11-.37-.3-.39-.79-.49-1.22-.11-.47.85-1.47,1.36-1.49.03,0,.32,0,.32.06.19.04,1.12.45,1.62,1.02.28.31.63.57.77,1,.12.35.35.56.71.65.44.1.8.36,1.02.73.7,1.21,1.76,2.08,2.76,3.02.31.3.6.61.89.92.11.12.16.33.3.4,1.58.76,2.72,2.08,4.16,3.02.43.28.68.5,1.17.69.81.3,1.19.91,2.04,1.69.12.32.35.6.5.91.12.25.3.42.55.51,1.15.42,2.05,1.26,3.09,1.86.97,1.05,2.56,2.18,2.77,2.2.32.28.61.6.89.92.23.26.41.55.63.81.29.34.67.53,1.14.54.48,0,.83.22,1.04.65.36.75.92,1.23,1.74,1.39.82.16,1.38.64,1.79,1.36.36.63.9,1.02,1.65,1.12.55.07.91.44,1.19.91.13.22.26.54.46.59.23.06.51.26.75.44.36.27.73.56.84.57.26,0,.33.48.42.68.09.26.17.51.25.76.06.19.13.38.22.57.17.39.54.7.75,1.08.16.3.36.69.29.99-.17.72.5,1.09.55,1.71.04.52.19,1.05.33,1.56.17.6.39,1.17.88,1.66.27.25.3.67.33,1.04.02.22.07.68.12,1.11.02.32.07,1.21.04,1.34,0,.18-.2.34-.27.51-.09.16-.17.31-.25.47-.11.21-.19.44-.25.67-.12.48-.22.95-.37,1.38-.15.43-.14.94-.32,1.35-.15.32-.48.54-.67.85-.13.2.06.63-.3.66-.45.04-.6.2-.67.62-.08.5,0,1.07-.47,1.49-.31.28-.35.76-.73,1.06-.41.32-.76.78-.97,1.25-.27.59-.99.77-1.18,1.36-.18.57-.66.79-1.05,1.13-.73.65-1.29,1.41-1.55,2.39-.25.98-.84,1.76-1.71,2.25-.63.36-1.08.86-1.5,1.43-.57.76-1.11,1.58-2.02,2.01-.26.13-.33.38-.46.59-.69,1.11-1.46,2.15-2.7,2.75-.37.18-.65.57-.91.91-.26.34-.44.75-.65,1.12-.91.37-1.37,1.32-2.29,1.68-.19.07-.29.16-.34.34-.08.24-.15.53-.33.69-.88.82-1.44,1.98-2.61,2.5-.29.42-.54.87-.86,1.26-.55.67-1.21,1.25-1.69,1.97-.3.44-.63.76-1.02,1.1-1.04.91-2.01,1.91-3,2.87-1,.96-1.99,1.92-3.01,2.86-.32.29-.69.51-1.06.73-.3.18-.61.38-.73.71-.27.68-.76,1.15-1.25,1.64l-4.25,4.19c-.49.49-1.16.71-1.62,1.25-.37.44-.82.88-1.43,1.04l-3.67,3.29c-.39.34-.78.68-1.18,1.01-.21.17-.48.22-.75.14-.34-.02-.15.4-1.03-.39-.13-.07-.46-.84-.45-.97.1-.89.73-.98,1.15-1.73.29-.52.89-.91,1.3-1.36Z"/>
  <path class="cls-2" d="M30.36,93.27c-.42.59-.49,1.33-1.11,1.75-.28.19-.15.7-.57.83-.26.07-.32.33-.57.43-.33.13-.41.34-.47.71-.07.2-.07.35-.3.71-.18.28-.35.38-.41.78-.05.35-.63.56-.72.91-.19.7-.78.88-.81,1.78-.17.69-.66,1.12-.98,1.59-.45.57-.91,1.12-1.39,1.66-.11.13-.29.2-.46.27-.37.15-.54.43-.66.79-.23.69-1.85,1.87-1.96,2.17-.07.22-.6.92-1.14,1.59-.54.67-1.16,1.26-1.27,1.33-.15.09-.34.12-.33.32-.31.08-.4.56-.72.57-.47.32-.67.4-1.15.87-.46.45-1.53.23-1.78.83-.99.78-1.62,1.26-1.7,1.45-.17.33-.46.16-.63.5-.24.46-1.33.39-1.3.65.02.27-.27.34-.32.6-.12.55-.58.78-1.15.74-.28-.02-.39.5-.61.4-.26-.24-.6-.26-.82-.15-.06.03-.13.06-.18.1.14.41.13,1-.04,2.02-.13.65-.23,1.32-.69,1.8-.2.94-.42,1.35-.43,1.75.12.53-.36.85-.14,1.37.31.7.26.56-.01,1.35-.19.1-.51.5-.35.7-.26.38-.29.78-.32.82-.58.55.05.58-.59,1.14-.06.38-.21.56.11.82.16.13.15.28-.01.43-.15.14-.13.29-.06.47.14.37.04.71-.07,1.06-.12.35-.24.7-.06,1.03-.12.36.07.77.08,1.1-.06.59.08,1.04-.2,1.59-.05.14.14.33.3.4.05.02.08.06.09.09l-1.18.9c.62.18,1.65-.05,1.27-.07-.01.08,0,.16.09.21.28.13.07.5-.02.78-.06.24-.07.49.2.64.37.22.51.64.75.98.24.35.15.9.54,1.11.54.29.51,1.04,1.13,1.25.4.14.29.51.56.74-.24.59-.05,1.04.37,1.42.45.4.98.69,1.17,1.33.06.2.41.3.62.46.2.16.43.31.58.51.31.42.22,1.06.64,1.42.4.33.57.67.98.99.27.21.49.85.71,1.12.5.6,1.41.67,1.46,1.55.22.26.36.62.77.68.5.07.79.34.9.82.02.09.04.21.1.24.48.24.94.49,1.05,1.08.35.26.61.57.8.98.18.4.81.36.96.82.12.37.4.54.74.68.34.13.55.4.73.72.12.22.26.5.47.6,1.2.62,2.12,1.47,2.76,2.68.23.46.64.69,1.04,1.02.44.14.54.43.47.81-.03.19.13.2.37.15.78.18.74,1.07,1.09,1.2.5.18.94.44,1.15,1,.08.23.29.52.5.56.48.1.74.37.97.77.32.54.77.94,1.46,1.01.56.05.95.42,1.35.75.52.43.79,1.17,1.56,1.31.08.01.15.1.19.17.49.89,1.17,1.52,2.24,1.63.23.03.49.24.62.44.43.71.96,1.25,1.84,1.32.16.02.35.13.43.26.66,1.11,1.81,1.61,2.85,2.21.82.5,1.63.99,2.37,1.61.2.17.37.34.65.38.72.12,1.29.48,1.74,1.05.28.36.67.57,1.12.6.74.07,1.31.37,1.78.94.22.26.5.51.8.65.78.37,1.46.95,2.32,1.14.86.19,1.52.82,2.37,1.02.5.12,1.07-.01,1.48.36.42.36.92.4,1.42.51.45.09.69.52.97.85.31.36,0,1.73-.44,1.97-.03.02-.28.15-.32.09-.19.05-1.26.09-2.03-.2-.43-.16-.87-.28-1.19-.63-.27-.29-.57-.41-.96-.35-.47.06-.94-.05-1.29-.33-1.12-.97-2.49-1.43-3.74-2.15-.39-.22-.77-.45-1.15-.69-.15-.09-.26-.28-.41-.32-1.77-.42-3.25-1.51-4.87-2.27-.49-.22-.78-.41-1.32-.53-.87-.22-1.36-.79-2.34-1.5-.17-.31-.44-.57-.62-.88-.15-.25-.35-.4-.61-.48-1.24-.34-2.22-1.16-3.33-1.75-1.08-1.03-2.73-2.23-2.95-2.24-.34-.28-.64-.62-.93-.96-.23-.27-.42-.58-.65-.85-.3-.35-.69-.57-1.17-.59-.49-.04-.85-.28-1.05-.72-.34-.79-.91-1.3-1.74-1.54-.83-.24-1.38-.79-1.76-1.56-.32-.67-.83-1.14-1.6-1.34-.56-.14-.9-.56-1.14-1.08-.11-.24-.21-.59-.41-.67-.46-.18-1.05-.98-1.22-.96-.16.01-.31-.2-.4-.31-.27-.34-.52-.64-.83-.93-.31-.3-.79-.44-1.13-.72-.27-.22-.61-.5-.67-.81-.14-.73-.92-.8-1.22-1.36-.26-.47-.61-.88-.96-1.28-.42-.47-.86-.89-1.51-1.09-.35-.1-.56-.43-.76-.74-.23-.34-1.05-1.39-1.1-1.62-.18-.94-1.04-1.48-1.67-2.11-.32-.31-.74-.52-1.04-.86-.23-.26-.3-.65-.5-.94-.14-.19-.6-.2-.47-.54.16-.43.05-.63-.32-.86-.44-.27-1-.4-1.21-1-.14-.4-.59-.6-.74-1.08-.15-.51-.46-1.02-.83-1.39-.47-.49-.39-1.23-.88-1.65-.46-.41-.52-.94-.7-1.47-.18-.49-.39-.95-.65-1.4-.13-.22-.28-.44-.44-.68-.16-.25-.35-.41-.56-.73-.12-.17-.23-.36-.34-.55-.11-.33-.18-.75-.2-1.13l.2,1.19c-.23-.42-.41-.89-.52-1.36-.08-.46-.05-.91,0-1.35.05-.46.16-.85.18-1.26.02-.4.05-.8.07-1.21,0-.55.04-1.09.15-1.61.09-.53.27-1.01.59-1.45.18-.25.11-.53.14-.8.13-1.38.41-2.72,1.29-3.82.26-.33.36-.81.45-1.24.09-.43.08-.87.11-1.3.67-.74.63-1.77,1.22-2.5.13-.15.16-.27.1-.44-.08-.23-.18-.47-.13-.68.02-.36,0-.78-.02-1.17-.03-.42-.12-.9-.18-1.36.51-.24,1.05-.48,1.6-.69.27-.1.55-.2.82-.27.16-.05.24-.06.32-.07.08,0,.16-.01.25-.01.4-.24.74-.63,1.13-.91.66-.49,1.42-.83,1.97-1.49.34-.38.7-.64,1.13-.91.57-.34,1.06-.83,1.58-1.25.51-.44,1.03-.88,1.5-1.37l1.46-1.44,1.42-1.5c.29-.31.65-.56,1.01-.81.28-.21.56-.45.65-.79.19-.71.62-1.23,1.05-1.77l1.78-2.4,1.69-2.47c.37-.58.98-.95,1.31-1.59.27-.51.59-1.05,1.15-1.36.93-1.37,1.81-2.78,2.68-4.18l.83-1.33c.14-.23.38-.36.66-.37.33-.1,0-.42,1.1.04.15.02.71.63.74.77.18.9-.41,1.2-.59,2.06-.13.6-.61,1.18-.89,1.74Z"/>
  <path class="cls-2" d="M75.77,178.82c-1.14-.83-2.39-1.29-3.32-2.31-.42-.46-1.22-.54-1.59-1.15-.23-.38-.68-.58-.94-.96-.34-.49-.72-.71-1.35-.97-.36-.19-.6-.26-1.29-.73-.54-.37-.77-.64-1.45-.91-.59-.24-1.19-1.1-1.79-1.39-1.22-.59-1.77-1.44-3.23-1.89-1.18-.54-2.09-1.41-2.98-2.03-1.11-.85-2.21-1.71-3.3-2.59-.26-.21-.46-.49-.65-.75-.42-.56-.95-.91-1.58-1.22-1.2-.57-3.87-3.31-4.42-3.55-.74-.33-5.48-3.99-5.81-4.37-.23-.25-.39-.52-.68-.56-.31-.46-1.08-.74-1.28-1.2-.76-.78-1.02-1.07-2.02-1.87-.96-.76-1.36-2.27-2.41-2.79-1.83-1.59-2.98-2.58-3.3-2.73-.58-.29-.58-.7-1.16-.99-.78-.4-1.63-1.97-1.94-1.94-.34.03-.66-.4-1.04-.47-.81-.16-1.42-.88-1.9-1.67-.25-.41-.91-.45-1.07-.85-.29-.72-.75-1.39-1.4-2.02-1.4-1.33-2.77-2.67-4.11-4.06-.86-.86-1.72-1.78-2.27-2.82-1.29-1.32-1.79-2.09-2.36-2.59-.8-.53-1.12-1.44-1.9-1.87-1.1-.59-.88-.44-1.91-1.8-.07-.35-.48-1.23-.81-1.35-.4-.81-.95-1.42-.98-1.5-.44-1.4-.79-.85-1.19-2.33-.47-.64-.61-1.07-1.09-1.22-.25-.07-.43-.36-.51-.76-.08-.38-.26-.61-.53-.87-.36-.32-.58-.76-.78-1.23-.23-.59-.47-1.19-.7-1.79.51-.39,1.02-.77,1.51-1.15l.12-.1.06-.05.03-.02s.04,0-.05-.05l-1.47-.7c.03-.17.03-.26.04-.4.33-.74.32-1.63.56-2.43.41-1.31.71-2.65,1.42-3.81.19-.31.25-1.01.23-1.45-.03-.74.54-1.23.52-1.93-.02-.82.45-1.18.77-1.67.26-.39.49-.77.47-1.36-.03-.83.3-1.66.47-2.5.18-.87.77-1.58.75-2.4,0-.14,0-.29.02-.43.02-.15.03-.24.1-.52.12-.48.25-.95.39-1.41.27-.94.5-1.81.6-2.97.06-.77.21-1.3.36-1.76.15-.47.31-.87.45-1.58.14-.02.26-.09.38-.22.06-.06.11-.14.17-.23.05-.09.1-.22.17-.21.42.92.83,1.63,1.31,2.33.51.72,1,1.44,1.51,2.16.53.76,1.08,1.67,1.54,2.63.07.15.17.3.28.45.07.09.16.18.25.27.18.18.39.37.55.56.33.38.68.75.95,1.17.56.87.67,1.86,1.37,2.69.65.76,1.02,1.4,1.68,2.16.44.51.98,1.65,1.39,2.21.9,1.26,2.18,1.87,2.58,3.31.4.54.75,1.19,1.32,1.51.72.4,1.22,1,1.57,1.81.06.15.14.35.24.43.77.64,1.51,1.3,1.89,2.29.59.6,1.1,1.24,1.53,1.98.41.72,1.29,1.02,1.7,1.83.32.64.8,1.07,1.33,1.46.55.4.95.93,1.34,1.51.27.41.57.9.92,1.18,1.99,1.63,3.71,3.42,5.13,5.61.54.8,1.25,1.38,1.98,2.11.72.45.97.95,1.04,1.47.04.27.29.37.62.43,1.25.69,1.56,1.98,2.15,2.37.82.56,1.62,1.16,2.17,2.08.23.38.66.9,1,1.08.78.42,1.27.95,1.81,1.65.72.94,1.59,1.76,2.69,2.23.87.39,1.66,1.11,2.44,1.8,1.01.88,1.72,2.08,3.01,2.67.13.06.29.22.38.34,1.16,1.49,2.49,2.73,4.27,3.44.39.16.9.58,1.19.93.99,1.19,2.07,2.19,3.55,2.74.27.1.63.36.82.58.78.91,1.68,1.69,2.65,2.39.98.69,2.01,1.32,2.99,1.99,1.56,1.09,3.16,2.09,4.64,3.26.4.32.77.62,1.25.82,1.28.51,2.42,1.22,3.41,2.17.62.59,1.37,1.04,2.15,1.31,1.33.42,2.45,1.07,3.48,2,.48.43,1.05.86,1.64,1.18,1.52.79,2.92,1.82,4.51,2.44,1.6.65,3,1.64,4.59,2.28.94.37,1.95.49,2.81,1.09.87.59,1.81.86,2.77,1.2.85.3,1.4.89,2,1.39.65.55.35,1.93-.41,2.01-.05,0-.48.05-.56-.04-.34-.03-2.27-.44-3.73-1.09-.8-.36-1.64-.66-2.29-1.21-.55-.45-1.13-.72-1.81-.83-.82-.13-1.69-.47-2.38-.95-1.16-.76-2.33-1.52-3.56-2.18-1.21-.69-2.48-1.29-3.67-2.02-.75-.45-1.48-.91-2.21-1.37-.28-.18-.54-.47-.81-.58-1.62-.63-3.13-1.52-4.63-2.42-1.5-.91-2.99-1.81-4.48-2.72-.9-.52-1.47-.9-2.41-1.31-1.56-.68-2.55-1.69-4.45-3.09-.4-.5-.96-.95-1.38-1.46-.34-.4-.73-.71-1.19-.95-1.07-.54-2.09-1.21-3.1-1.9-1-.71-1.97-1.46-2.98-2.13-2.17-1.92-5.23-4.46-5.6-4.58-.66-.56-1.25-1.21-1.85-1.83-.46-.51-.91-1.01-1.37-1.53-.62-.65-1.31-1.15-2.05-1.46-.77-.31-1.42-.85-1.91-1.58-.87-1.29-1.93-2.35-3.29-3.14-1.36-.78-2.43-1.87-3.29-3.21-.75-1.16-1.74-2.1-2.93-2.82-.88-.52-1.55-1.33-2.11-2.21-.27-.42-.55-.98-.87-1.21-.74-.53-1.92-2.05-2.15-2.12-.23-.07-.54-.46-.72-.68-.54-.66-1-1.25-1.56-1.87-.57-.63-1.3-1.1-1.91-1.71-.47-.49-1.06-1.1-1.27-1.61-.49-1.2-1.62-1.74-2.26-2.76-.54-.86-1.21-1.69-1.85-2.52-.75-.97-1.54-1.87-2.52-2.53-.52-.36-.93-.99-1.32-1.58-.44-.65-1.97-2.77-2.1-3.16-.6-1.6-1.95-2.93-3.03-4.3-.53-.68-1.18-1.25-1.69-1.95-.39-.55-.62-1.22-.99-1.8-.25-.39-.85-.65-.81-1.14.06-.62-.16-.99-.71-1.57-.16-.15-.36-.37-.49-.46-.07,0-.13.02-.17.04-.09.03-.1.1-.09-.05,0-.11-.03-.1-.04-.07-.02.02-.02.06-.05-.14-.01-.09-.03-.17-.05-.25-.06-.2-.11,0-.09.22.05.32-.32-.19-.33.62-.1,1.12-.57,1.95-.92,2.91-.66,1.79-1.14,3.63-1.2,5.52-.06,1.88-.54,3.74-1.37,5.46-.61,1.25-.99,2.54-1.36,3.94l-.17.61-.04.16s0,.03,0,.04v.06s-.02.05-.02.07l.04.07.05.09.14.32c.11.26.22.53.31.79.17.54.42,1.07.56,1.63.14.51.47.84.73,1.24.75,1.01,1.48,2.01,2.17,3.05.74,1.01,1.33,2.11,1.93,3.24.35.69.97,1.39,1.52,2.02.57.62,1.22,1.16,1.83,1.73.81,1.64,2.43,2.88,3.31,4.48.19.32.37.52.66.71.4.25.86.53,1.18.88.79.9,1.72,1.68,2.59,2.51.87.83,1.72,1.68,2.42,2.66.79.62,1.59,1.23,2.37,1.88,1.33,1.1,2.57,2.35,3.95,3.34.84.61,1.54,1.24,2.29,1.95,2.02,1.88,4.16,3.66,6.28,5.44l6.42,5.28c.66.55,1.28,1.15,1.88,1.75.5.49,1.02.98,1.61,1.26,1.23.57,2.32,1.4,3.43,2.24,3.19,2.39,6.41,4.75,9.68,7.04,1.13.79,2.01,1.79,3.22,2.55.97.6,2,1.32,2.76,2.21,2.68,1.91,5.39,3.8,8.1,5.67l2.56,1.77c.45.31.75.69.87,1.05.27.46.74.25.33,1.38.02.18-.84.56-1.06.53-1.45-.24-2.15-1.14-3.67-1.83-1.04-.47-2.18-1.38-3.21-2.02Z"/>
  <path class="cls-2" d="M125.05,157c-1-.46-2.06-.53-2.9-1.23-.38-.32-1.04-.16-1.39-.63-.21-.29-.6-.36-.84-.64-.32-.37-.65-.46-1.18-.53-.3-.08-.51-.08-1.11-.34-.47-.2-.67-.39-1.25-.45-.51-.06-1.05-.72-1.56-.82-1.04-.22-1.56-.87-2.78-.92-1.01-.19-1.82-.76-2.59-1.12-.97-.51-1.93-1.02-2.87-1.57-.22-.13-.41-.34-.58-.53-.38-.41-.83-.61-1.37-.74-1.02-.24-3.36-2.12-3.82-2.21-.63-.14-4.72-2.38-5.01-2.67-.2-.17-.34-.39-.58-.36-.27-.36-.93-.43-1.11-.8-.66-.54-.88-.76-1.74-1.27-.82-.49-1.2-1.74-2.09-2-1.56-1.06-2.56-1.68-2.84-1.76-.49-.14-.49-.52-.98-.66-.67-.2-1.4-1.43-1.67-1.34-.29.1-.57-.22-.9-.2-.69.02-1.22-.49-1.63-1.11-.21-.32-.79-.21-.92-.54-.24-.59-.65-1.07-1.21-1.5-1.18-.92-2.4-1.79-3.56-2.75-.73-.61-1.5-1.21-1.98-2.01-1.13-.88-1.57-1.44-2.08-1.75-.71-.28-.98-1.02-1.71-1.18-1-.23-.79-.17-1.72-1.11-.07-.28-.47-.93-.77-.94-.39-.59-.9-.96-.93-1.02-.47-1.06-.75-.49-1.18-1.63-.45-.42-.61-.72-1.07-.68-.23.02-.42-.15-.54-.45-.1-.28-.3-.41-.56-.53-1.06-.53-1.44-1.98-2.48-2.56-.37-.56-.98-.94-1.38-1.49-.65-.89-1.37-1.72-1.69-2.78-.08-.28-.49-.67-.79-.86-.5-.33-.44-.98-.91-1.3-.55-.38-.46-.89-.56-1.36-.07-.38-.13-.74-.51-1.03-.54-.4-.82-1.07-1.21-1.62-.41-.58-.43-1.33-.91-1.78-.69-.62-.75-1.69-1.51-2.24-.49-.37-.41-.77-.71-1.53.26-.9.03-1.71-.42-2.77-.24-.56-.51-1.13-.74-1.73l-.08-.22c.07,0,.06-.13.09-.19.05-.15.15-.25.25-.33.22-.15.47-.27.81-.33.41-.06.83-.4,1.46-.49.59-.1,1.29-.16,2-.13.18,0,.37.02.54.04.1.02.2.04.29.07.19.05.38.12.57.18.37.13.75.24,1.17.2.78-.07,1.35.03,2.13-.04.52-.05,1.47.22,2.01.23,1.2.03,2.17-.59,3.23-.07.52,0,1.08.12,1.53-.16.57-.34,1.16-.4,1.82-.2.12.04.28.09.37.06.74-.24,1.46-.46,2.25-.21.63-.13,1.24-.18,1.9-.12.63.06,1.16-.5,1.85-.39.55.09,1-.08,1.45-.32.09-.05.19-.1.29-.13.09-.04.37-.1.55-.14.41-.09.84-.18,1.25-.24.13.03.27.06.4.09.28.07.58.14.88.19l.22.03h.03s0,0,0,0h0s0,0,0,0h0l-.16.3h.02s.06,0,.06,0h.1c.14.02.28.03.43.02.63.36.95,1.4,1.35,2.21.04.09.11.25.13.28l.08.15.16.3.3.62c.39.83.72,1.7.99,2.63.21.7.65,1.23,1.09,1.86.5.41.59.82.51,1.26-.04.23.15.32.43.38.91.61.88,1.69,1.31,2.03.61.46,1.15.98,1.45,1.76.12.32.39.76.66.9.6.33.94.76,1.28,1.35.46.79,1.09,1.45,1.98,1.77.72.26,1.27.85,1.85,1.39.74.7,1.24,1.66,2.26,2.07.1.04.22.16.29.26.81,1.23,1.88,2.14,3.31,2.58.32.09.71.41.93.69.74.95,1.6,1.69,2.8,2,.22.06.51.23.65.41,1.19,1.45,2.9,2.27,4.49,3.18,1.28.73,2.54,1.46,3.73,2.3.32.23.62.46,1.01.56,1.05.26,1.95.79,2.74,1.51.49.46,1.1.77,1.74.88,1.08.2,1.97.66,2.79,1.38.38.33.84.65,1.32.86,1.22.53,2.32,1.33,3.61,1.68,1.3.36,2.38,1.17,3.66,1.56.75.22,1.57.19,2.25.67.68.47,1.43.63,2.19.85.68.19,1.1.69,1.57,1.1.51.45.21,1.82-.41,1.99-.04.01-.39.1-.45.03-.28.01-1.82-.13-2.97-.61-.63-.26-1.29-.46-1.81-.89-.43-.35-.89-.53-1.45-.55-.66-.02-1.35-.23-1.9-.6-1.8-1.22-3.84-2-5.78-2.98-.6-.3-1.2-.62-1.78-.96-.23-.13-.43-.36-.65-.43-2.61-.76-4.94-2.26-7.39-3.41-.74-.34-1.19-.62-1.96-.86-1.27-.41-2.09-1.15-3.62-2.19-.31-.4-.75-.76-1.09-1.15-.27-.32-.58-.54-.96-.69-1.77-.69-3.31-1.89-4.94-2.87-1.7-1.51-4.15-3.43-4.44-3.54-.51-.46-.97-.96-1.42-1.47-.36-.4-.66-.85-1.01-1.26-.45-.54-.99-.94-1.61-1.17-.65-.22-1.14-.67-1.46-1.3-.56-1.13-1.32-2.01-2.39-2.69-1.07-.67-1.8-1.65-2.29-2.84-.42-1.03-1.04-1.9-1.94-2.59-.66-.51-1.04-1.28-1.28-2.09-.11-.39-.19-.9-.4-1.13-.51-.54-1.04-2.01-1.21-2.12-.18-.1-.31-.49-.38-.71-.05-.15-.1-.3-.15-.44l-.03-.15c-.02-.09-.05-.18-.09-.27-.03-.22-.33.1-.42.19-.03.03-.05.05-.07.06l-.07.05s.02,0-.07.02l-.22.04c-.29.06-.56.07-.78.02-1.03-.23-1.86.4-2.82.37-.81-.03-1.66.04-2.48.09-.97.07-1.91.18-2.78.57-.47.21-1.07.17-1.63.13-.63-.04-2.68-.08-2.98-.21-1.28-.5-2.75-.21-4.11-.18-.67.01-1.33.19-2,.17-.52,0-1.03-.23-1.56-.28-.15-.02-.42.06-.51.11-.02.05-.01.07-.06-.09-.12-.39-.33-.43-.35-.27-.01.1.06.24.14.34.09.12.11.09.05.16-.09.08.29.33.17.43-.06.07-.06.19-.02.31.02.06.04.12.08.17l.11.17.16.24c.56.78.54,1.74,1.12,2.43.54.66.69,1.37,1.02,2.07.61,1.32,1.33,2.57,2.52,3.46,1.14.89,1.95,2.08,2.57,3.39.44.96,1.02,1.8,1.75,2.59,1,1.05,2.02,2.11,2.68,3.41.2.38.53.56.82.81.76.64,1.48,1.31,2.17,2.01.69.69,1.32,1.45,1.85,2.32.31.53.88.99,1.4,1.4.51.41,1.08.74,1.63,1.1.72,1.26,2.14,2,2.91,3.22.16.25.31.39.57.5.34.15.74.29,1.02.53,1.41,1.22,3.11,2.09,4.31,3.55.68.39,1.36.76,2.02,1.18,1.13.71,2.21,1.54,3.36,2.17.72.37,1.32.77,1.96,1.25,1.7,1.28,3.55,2.39,5.35,3.54l2.73,1.68,2.76,1.64c.56.35,1.1.75,1.62,1.15.43.33.88.66,1.38.77,1.03.23,1.98.71,2.93,1.21,2.74,1.41,5.51,2.76,8.32,4.02.97.44,1.75,1.13,2.79,1.5.83.31,1.72.68,2.4,1.3,2.32,1.04,4.66,2.04,7.02,2.99l2.22.9c.39.16.67.42.81.72.27.35.61,0,.41,1.18.03.16-.6.78-.78.81-1.19.2-1.86-.42-3.15-.63-.89-.14-1.9-.66-2.8-.97Z"/>
  <path class="cls-2" d="M15.96,84.99c-.96,2.51-1.46,4.95-2.56,7.29-.5,1.07-.54,2.45-1.19,3.55-.41.68-.59,1.59-.99,2.33-.51.97-.72,1.78-.93,3.04-.17.74-.22,1.21-.65,2.76-.33,1.21-.59,1.81-.77,3.16-.16,1.18-.98,2.92-1.17,4.16-.38,2.52-1.14,4.22-1.23,7-.24,2.41-.83,4.71-1.14,6.75-.45,2.61-.85,5.23-1.17,7.85-.08.62-.23,1.24-.37,1.81-.29,1.26-.35,2.46-.27,3.76.05,1.23-.06,3.62-.09,5.84-.04,2.22.08,4.27.2,4.8.16.73.58,3.86,1.42,6.79.39,1.47.92,2.87,1.34,3.95.46,1.07.81,1.83.92,2.03.24.55.38,1.08.75,1.38.34.92,1.35,1.88,1.69,2.61,1.15,1.54,1.62,2.1,3.44,3.47.43.33.87.67,1.31,1.02.43.37.89.71,1.35,1.05.92.68,1.96,1.31,2.98,1.65,2.09,1.02,3.81,1.77,5.07,2.33,1.26.56,2.09.88,2.41.95,1.15.3,1.53.79,2.68,1.09,1.56.45,4.37,2.01,4.82,1.96.49-.08,1.39.36,2.06.33,1.4-.03,3.03.6,4.58,1.3.82.33,1.84.13,2.51.48.61.31,1.27.6,1.99.85.72.24,1.51.38,2.35.53,1.79.29,3.58.62,5.39.72,1.81.14,3.61.39,5.42.36,2.3.04,4.64.1,6.8.22,1.74-.1,3.03-.17,4.07-.23,1.03-.13,1.81-.23,2.51-.36,1.68-.5,3.43-.28,4.9-.92,2.02-.9,1.56-.72,4.67-1.29.61.04,2.4-.1,2.87-.47,1.65-.27,3.1-.74,3.24-.75,2.63-.29,1.99-.67,4.73-1,1.4-.49,2.2-.65,2.73-1.2.27-.28.84-.49,1.57-.59.67-.09,1.18-.3,1.75-.6,1.18-.58,2.56-1.09,3.96-1.55,1.4-.47,2.81-.93,4-1.59.77-.24,1.51-.56,2.25-.89.73-.37,1.45-.74,2.19-1.05,2.44-1.01,4.81-2.09,7.26-2.72.63-.18,1.66-.92,2.26-1.38.49-.42,1-.72,1.52-.99.53-.26,1.03-.57,1.43-1.03.99-1.03,1.78-1.35,2.66-1.91.69-.45,1.27-.99,1.82-1.86.33-.66.76-1.28,1.2-1.92.38-.67.85-1.31,1.18-2.01.7-1.42,1.67-2.68,1.91-4.13.38-1.97,1.26-4.07,1.14-6.05-.06-.64.04-1.17.12-1.7.07-.54.17-1.08.17-1.73.3-.63.46-1.4.57-2.27.05-.87.06-1.83-.07-2.85-.23-2.17-.75-4.19-.88-6.56-.04-.74-.46-1.77-.71-2.68-.25-.9-.55-1.82-.77-2.74-.45-1.91-.46-3.66-1.17-5.57-.67-1.77-1.07-3.13-1.84-4.86-.51-1.16-1.21-3.41-1.75-4.65-1.2-2.74-2.75-4.73-3.31-7.43-.52-1.21-.93-2.55-1.63-3.53-.87-1.22-1.47-2.62-1.89-4.25-.07-.29-.17-.69-.28-.91-.89-1.7-1.77-3.39-2.18-5.36-.66-1.51-1.23-2.97-1.68-4.57-.43-1.53-1.44-2.81-1.82-4.49-.3-1.34-.8-2.46-1.37-3.6-.59-1.15-.98-2.4-1.32-3.7-.24-.91-.51-2-.86-2.78-1.96-4.56-3.51-9.19-4.46-14.13-.37-1.84-.97-3.51-1.5-5.44-.61-1.5-.73-2.54-.64-3.42.05-.45-.16-.89-.48-1.36-1.03-2.48-.83-4.82-1.37-6.01-.73-1.73-1.3-3.5-1.72-5.44-.16-.8-.5-2.04-.83-2.67-.8-1.43-1.29-2.71-1.76-4.3-.75-2.08-1.63-4.19-3.05-5.82-.57-.66-1.02-1.47-1.58-2.24-.54-.78-1.06-1.6-1.59-2.42-.71-1.02-1.41-2.03-2.12-3.04-.76-.96-1.62-1.86-2.59-2.65-.21-.14-.5-.42-.68-.63-2.14-2.66-5.04-4.53-8.27-5.45-.36-.09-.81-.26-1.26-.46-.22-.1-.45-.21-.66-.31-.22-.08-.43-.17-.61-.25-1.26-.57-2.52-1.14-3.87-1.38-.67-.14-1.34-.29-2.02-.37-.69-.04-1.39-.05-2.09-.03-.52.03-1.32-.1-1.84-.15-.54-.09-1.08-.16-1.62-.23l-.82-.09-.41-.04c-.12-.01-.16-.02-.18-.03-.02,0-.06,0-.16.03l-.39.09-.78.2c-.53.11-1.02.34-1.53.51-1.03.34-1.97.88-2.93,1.36-.92.57-1.86,1.11-2.71,1.78-2.79,2.03-5.2,4.55-7.46,7.22-.31.36-.61.71-.89,1.07-.26.38-.51.77-.74,1.19-.3.57-.62,1.11-.94,1.66-.3.56-.62,1.11-.95,1.65-.69,1.06-1.34,2.16-2.07,3.21-.94,1.3-1.6,2.84-2.13,4.3-.78,2.5-1.79,4.75-3,7.06-.58,1.06-1.13,2.32-1.55,3.53-1.1,3.09-2.41,6.2-3.32,9.36-.93,3.23-2.34,6.21-3.36,9.37-.6,1.86-.93,3.74-1.81,5.56-.88,1.81-1.44,3.62-2.08,5.5-.57,1.66-1.39,2.88-2.14,4.15-.81,1.39-2.28,1.3-2.15-.03,0-.08.08-.84.2-1.01.13-.62,1.11-4.19,2.2-7.03.6-1.56,1.15-3.15,1.88-4.55.61-1.16,1.03-2.32,1.28-3.58.3-1.51.83-3.19,1.48-4.64,1.08-2.4,2.03-4.87,2.94-7.37.9-2.5,1.76-5.04,2.71-7.55.56-1.57,1.25-3.1,1.89-4.63.25-.6.62-1.2.82-1.73.57-1.56,1.13-3.14,1.85-4.66l1.06-2.3,1.18-2.25c1.62-2.98,3.43-5.88,5.48-8.61.58-.84,1.14-1.48,1.68-2.12.27-.33.53-.65.81-1,.29-.33.59-.68.92-1.06.54-.63,1.07-1.23,1.69-1.75.62-.52,1.19-1.09,1.92-1.55.72-.47,1.42-1.03,2.3-1.48.43-.24.88-.49,1.35-.75.48-.25,1-.47,1.54-.72.3-.1.6-.2.91-.31.32-.09.64-.18.97-.27.65-.18,1.29-.39,1.94-.47.53-.09.94-.17,1.54-.33.15-.06.34-.06.5-.05h.42c.25,0,.49,0,.74-.01,4.64-.32,9.57.54,14.14,2.13,1.29.66,2.78,1.2,4.1,2.06.67.4,1.36.78,2,1.17.62.44,1.22.87,1.78,1.28,1.17.77,2.05,1.64,2.78,2.23.71.6,1.21,1,1.33,1.12,1.15,1.28,2.33,2.54,3.24,3.97.38.56.75,1.11,1.13,1.66.36.56.66,1.15,1,1.73.44.76.91,1.46,1.37,2.14.43.69.89,1.33,1.37,1.91,1.03,1.19,1.75,2.66,2.27,4.27.49,1.4.9,2.81,1.45,4.17.26.68.58,1.35.86,2.03.28.68.58,1.35.91,2.02.66,1.33,1.22,2.7,1.62,4.14.4,1.43.81,2.89.98,4.37.35,2.58.94,5.12,1.99,7.47.75,1.73,1.18,3.67,1.55,5.59.16.91.31,2.07.59,2.75.65,1.56,1.6,5.09,1.83,5.44.23.33.47,1.24.63,1.77.46,1.55.87,2.91,1.38,4.42.53,1.53,1.27,2.94,1.86,4.47.45,1.2,1.06,2.7,1.23,3.69.41,2.34,1.65,4.2,2.3,6.37.54,1.84,1.28,3.74,1.98,5.6.85,2.17,1.74,4.28,2.87,6.1.61.98,1.09,2.33,1.56,3.58.52,1.41,2.4,5.98,2.6,6.71.76,3.06,2.58,6.16,3.86,9.33.63,1.56,1.36,3.03,1.89,4.63.42,1.24.61,2.58.93,3.88.22.87.83,1.83.71,2.63-.17,1.02,0,1.83.43,3.31.52,1.75,1.15,3.36,1.22,5.69.04,1.55.41,3.18.28,4.99-.12,1.94-.26,4.21-.38,6.2-.14,2.56-1.11,4.69-1.61,6.98-.13.55-.28,1.08-.45,1.58-.2.49-.41.96-.62,1.42-.4.93-.99,1.75-1.48,2.66-2.04,3.33-4.58,6.23-7.3,8.9-.34.33-.67.68-1.04.97l-1.14.87c-.76.6-1.61,1.09-2.47,1.55-.43.22-.87.49-1.29.66l-1.28.5c-.86.33-1.73.63-2.6.91-1.27.41-2.5.86-3.73,1.35-1.23.5-2.45,1.03-3.73,1.51-1.71.68-3.44,1.38-5.18,2.02-.87.32-1.73.63-2.61.89-.89.24-1.77.45-2.66.62-1.04.21-1.86.59-2.77.93-1.19.42-2.35.89-3.56,1.24-1.21.34-2.42.68-3.63.98-1.21.31-2.43.59-3.66.85-1.24.2-2.49.33-3.74.45-.75.07-1.58.2-2.43.36-.84.16-1.7.37-2.53.46-1.65.24-3.26.58-4.89.88-.44,0-.89.02-1.34.03-.45,0-.91,0-1.37,0-.92.01-1.86.05-2.79.08-.93.02-1.86.1-2.78.05-.92-.06-1.82-.14-2.69-.26-.71-.1-1.23-.12-1.91-.05-.45.04-.94.11-1.42.12-.48,0-.97-.01-1.44-.07-1.18-.13-2.36-.24-3.55-.33-1.19-.07-2.36-.32-3.54-.48-1.17-.2-2.36-.34-3.5-.65-1.14-.31-2.28-.65-3.39-1.03-.48-.1-.97-.18-1.45-.29l-1.43-.36c-.96-.24-1.91-.49-2.87-.76-1.63-.47-3.22-1.11-4.83-1.67-1.61-.57-3.15-1.24-4.72-1.79-1.91-.69-3.56-1.49-5.39-2.35l-3.61-1.78c-.61-.3-1.19-.57-1.85-.92l-.96-.5-.94-.58c-2.49-1.55-4.68-3.61-6.37-5.98-3.43-4.76-5-10.39-5.7-15.87-.23-1.7-.25-3.42-.25-5.1.02-1.38.06-2.79-.08-4.04-.29-2.6-.14-5.32.1-8.04.69-7.82,2.17-15.5,3.97-23.07.63-2.62,1.57-4.98,2.24-7.67.54-2.15,1.23-4.5,2.17-6.51,1.93-6.11,4.06-12.14,6.38-18.11.73-1.88,1.49-3.76,2.27-5.62.41-.98.9-1.76,1.35-2.21.59-.78.39-1.43,1.7-1.47.21-.13.55,1.07.48,1.45-.46,2.6-1.57,4.37-2.46,7.39-.61,2.08-1.69,4.64-2.43,6.83Z"/>
</svg>