<?xml version="1.0" encoding="UTF-8"?>
<svg id="illuer_blå_bg" xmlns="http://www.w3.org/2000/svg" viewBox="0 0 122.84 191.89">
  <defs>
    <style>
      .cls-1 {
        fill: #ff9400;
      }

      .cls-2 {
        fill: #ffe6c4;
      }
    </style>
  </defs>
  <path class="cls-2" d="M13,93.77c.53.1,1.07-.19,1.55.17.22.16.53-.21.75.1.13.19.33.12.48.29.19.23.37.19.64.07.16-.04.26-.11.58-.1.25.01.37.11.66-.05.25-.13.59.25.86.16.54-.2.86.2,1.47-.25.51-.23.97-.03,1.39-.03.53.06,1.07.12,1.6.21.13.02.24.13.35.23.24.21.49.18.76.06.52-.22,1.93.38,2.16.26.32-.16,2.62-.13,2.8-.05.12.05.23.17.33.03.19.18.51-.08.66.15.4.14.55.21,1.04.21.47,0,.9.9,1.36.64.93.06,1.51.05,1.65-.03.25-.15.34.16.59,0,.34-.21.95.41,1.04.18.1-.24.3-.14.44-.33.3-.41.65-.3.97-.03.17.14.39-.28.53-.09.25.34.55.5.89.51h2.22c.47.02.95,0,1.37.32.71-.02,1.05.07,1.34-.02.36-.25.69.12,1.02-.24.46-.49.36-.41,1-.36.11.16.47.35.58.15.33.15.64.07.67.1.51.42.43-.19.97.3.3-.03.46.06.61-.29.08-.18.2-.2.34-.07.13.12.24.07.38-.03.55-.44,1.18.23,1.74-.16.32.1.66-.15.99-.12.53.05,1.06,0,1.56.39.13.1.4-.02.57-.14.28-.21.5.21.77.02.31-.23.48.14.69.34.17.15.33.29.55.12.31-.24.65-.12.98-.16.34-.04.66.36.97.13.43-.31.89.14,1.3-.26.27-.26.45.05.72-.04.26.54.63.63,1.06.52.45-.12.88-.39,1.36-.15.15.07.37-.15.57-.22.19-.07.39-.15.58-.15.4,0,.75.49,1.16.37.39-.11.67-.05,1.06-.16.26-.08.74.15,1.01.14.6-.02,1.08-.66,1.62-.14.26,0,.54.12.77-.15.29-.34.59-.38.93-.15.06.04.14.1.19.08.38-.21.75-.39,1.15-.08.33-.08.64-.07.97.05.32.12.62-.38.96-.17.27.16.52.06.76-.1.25-.16.51-.15.78-.06.19.06.41.15.58.07.97-.46,1.93-.53,2.94-.13.38.15.72.02,1.12-.02.31-.21.52-.08.7.23.09.16.18.05.28-.16.51-.43.98.23,1.24.08.37-.22.75-.34,1.16-.08.17.11.43.17.57.06.32-.25.6-.23.95-.1.46.18.93.17,1.34-.25.33-.34.75-.32,1.15-.33.52-.01,1.06.34,1.56-.06.05-.04.14-.03.2,0,.74.36,1.45.36,2.12-.22.15-.13.41-.13.58-.05.61.28,1.19.34,1.74-.13.1-.08.27-.11.39-.06.95.47,1.87.17,2.78.03.73-.11,1.46-.19,2.2-.1.2.02.39.06.58-.06.5-.32,1.02-.34,1.57-.1.34.15.68.11.97-.11.49-.36,1-.38,1.55-.14.26.12.54.17.8.12.66-.12,1.35.08,1.98-.2.64-.28,1.33-.03,1.97-.23.38-.12.71-.51,1.13-.36.42.14.78-.03,1.16-.14.34-.11.67.18.98.36.35.2.63,1.56.43,1.97-.01.03-.13.25-.18.21-.11.13-.8.61-1.41.67-.34.03-.67.12-1.01-.04-.28-.13-.53-.1-.76.13-.28.27-.62.39-.96.3-1.1-.28-2.16-.05-3.24.03-.33.03-.67.02-1.01,0-.13,0-.28-.11-.39-.06-1.27.59-2.66.47-3.97.8-.39.1-.66.12-1.03.33-.61.35-1.17.19-2.08.21-.25-.15-.53-.2-.79-.33-.21-.1-.4-.11-.59,0-.88.47-1.84.45-2.76.71-1.13-.13-2.65.09-2.78.21-.33,0-.67-.04-1.01-.1-.27-.05-.53-.15-.8-.2-.35-.07-.67.03-.95.33-.28.31-.6.37-.95.18-.6-.34-1.18-.34-1.75.06-.57.4-1.15.4-1.77.11-.53-.25-1.06-.21-1.56.19-.37.29-.77.23-1.18.04-.19-.09-.43-.26-.58-.18-.34.2-1.08.07-1.16.2-.07.13-.27.09-.38.08-.33-.04-.62-.06-.94-.04-.33.02-.64.27-.97.34-.26.05-.59.12-.79-.05-.48-.39-.91.14-1.38,0-.39-.11-.8-.13-1.21-.13-.47,0-.94.06-1.36.42-.23.2-.52.14-.79.1-.3-.05-1.31-.08-1.46-.2-.64-.47-1.35-.13-2.02-.03-.33.05-.65.26-.98.29-.26.02-.52-.17-.79-.19-.18-.02-.39.35-.54.05-.19-.39-.35-.42-.66-.26-.36.19-.69.55-1.14.37-.3-.12-.63.12-.97-.03-.37-.17-.81-.21-1.2-.11-.49.12-.92-.36-1.37-.17-.43.18-.79-.07-1.18-.18-.73-.2-1.47-.21-2.19.2-.72.41-1.47.41-2.18.05-.52-.26-1.04-.3-1.59-.26-.74.05-1.5.14-2.2-.29-.21-.12-.39,0-.59.03-1.01.19-2.01.27-2.99-.26-.29-.16-.66-.12-1-.08-.33.03-.66.15-1,.24-.68-.45-1.48-.17-2.15-.62-.14-.09-.24-.1-.38-.03-.19.1-.39.24-.58.21-.93-.12-1.91.25-2.8-.28-.4.07-.79.17-1.19.2-.68.04-1.36-.06-2.03.06-.41.08-.78.05-1.18-.01-1.07-.15-2.15-.2-3.23-.29-1.08-.09-2.16-.16-3.23-.28-.33-.04-.66-.16-.98-.29-.26-.1-.53-.19-.79-.06-.54.26-1.07.22-1.62.19l-4.67-.26c-.54-.03-1.01-.36-1.57-.33-.45.02-.94,0-1.35-.34l-3.83-.44c-.4-.05-.8-.1-1.2-.17-.21-.03-.37-.2-.46-.45-.16-.25-.32.17-.27-1.01-.02-.14.27-.91.36-.99.59-.54.96-.14,1.62-.35.46-.14,1,.03,1.47.02Z"/>
  <g>
    <path class="cls-1" d="M22.68,74.01l12.25-62.62c1.3-6.66,7.75-11,14.41-9.69l55.27,10.81c6.66,1.3,11,7.75,9.69,14.41l-9.45,48.31-8.82-.45,9.8-46.31-63-13.4-10.95,59.33-9.2-.37Z"/>
    <path class="cls-1" d="M100.36,76.67c-.36-.07-.73-.14-1.11-.19-.2-.02-.35-.04-.6-.06-.32-.02-.65-.03-.98-.03-1.31,0-.2-1.4-1.36-1.45.21-1.04-1.85-.73-1.65-1.94.04-.21.08-.45.13-.7.05-.23.1-.47.16-.72.09-.32.18-.68.28-1.03.2-.7.41-1.41.51-1.92.48-2.29.25-4.29,1.2-6.24.21-1.01.56-2.05.49-2.99-.09-1.19.12-2.36.61-3.58.09-.22.22-.51.23-.71.11-1.5.24-2.98.87-4.43.19-1.27.45-2.47.85-3.7.39-1.18.16-2.46.64-3.72.39-1,.5-1.95.55-2.95.05-1.01.29-2,.6-3,.22-.7.49-1.53.56-2.2.12-1.21.27-2.41.47-3.6l.15-.89.04-.22.02-.11s0,0,0,0h0s0,0,.01-.01c.02-.01.04-.04.02-.1-.02-.01.04,0-.05-.03l-.26-.08-.52-.16-.75-.77c-1.39-.46-2.35-.96-3.88-1.25-.26-1.22-2.28-.18-2.84-.63-.29-.23-1.34-.23-1.8-.13-2.12-.04-3.43-.47-4.48-.55-1.49-.11-2.98-.33-4.46-.93-.61-.25-1.59-.53-2.16-.55-1.31-.04-2.38-.3-3.64-.73-1.69-.57-3.45-.95-5.21-.92-1.42.02-3-.35-4.54-.69-1.99-.43-3.87-1.24-5.97-1.32-.21,0-.53-.1-.75-.18-2.66-.99-5.33-1.61-8.17-1.68-.62-.01-1.61-.24-2.24-.47-1.09-.4-2.18-.74-3.28-.99-.55-.12-1.11-.22-1.67-.3-.28-.04-.57-.07-.85-.09l-.43-.03h-.22c-.07-.01-.17-.02-.15,0-.04.07-.03.09-.08.01-.03-.05-.08-.1-.13-.14-.1-.02-.17.03-.24.24-.19.81-.35,1.63-.5,2.46-.28,1.66-.55,3.32-.83,4.97-.49,2.85-1,5.67-1.68,8.45-.18.75-.37,1.45-.41,2.23-.1,2.07-.51,4.08-1.16,6.03-.41,1.22-.64,2.52-.68,3.77-.07,2.09-.46,4.02-1.12,5.99-.31.91-.6,1.96-.77,2.96-.44,2.57-1.18,5.08-1.46,7.65-.28,2.61-1.07,5.07-1.42,7.65-.1.76-.14,1.51-.2,2.27l-.03.28-.02.14-.04.25-.16,1c-.12.67-.26,1.34-.42,1.97-.03.1-.05.2-.07.29-.68-.07-1.33-.12-1.96-.15l-.94-.05-.82-.03c-.73-.01-1.46,0-2.2,0-1.37,0-2.48-.36-3.6-.63-1.23-.29-1.54-1.69-.52-2.03.06-.02.64-.21.8-.16.49-.09,3.4-.37,5.78-.25.3.02.57.02.87.05.06-.24.14-.45.28-.7.05-.06.14-.37.2-.6.06-.24.12-.48.16-.73.08-.48.12-.97.12-1.48-.01-1.22.16-2.58.52-3.79,1.16-3.96,1.82-8.11,2.63-12.21.27-1.27.54-2.54.81-3.81.11-.49.33-1,.37-1.44.48-5.15,1.69-10.3,2.44-15.45.22-1.54.42-2.54.52-4.06.17-2.5.76-4.5,1.46-7.95.33-.87.59-1.91.91-2.82.06-.18.12-.37.17-.55.05-.17.12-.5.17-.74.1-.53.18-1.06.25-1.64.05-.43.1-.86.15-1.31,1.12.16,2.4.38,3.63.6.82.15,1.65.29,2.48.44,1.66.31,3.31.63,4.96.9,4.18,1.1,10.02,2.24,10.56,2.24,1.26.28,2.51.63,3.75.97.98.29,1.94.58,2.92.87,1.29.36,2.55.55,3.72.51,1.21-.04,2.44.17,3.65.64,2.14.83,4.33,1.33,6.64,1.44,2.3.11,4.51.62,6.72,1.41,1.93.69,3.92,1.1,5.96,1.15,1.5.03,3.01.43,4.47.95.69.24,1.54.61,2.12.65.22,0,1.1.16,1.85.3.79.16,1.62.33,2.39.49-.31,1.46-.57,2.67-.56,2.92,0,.13,0,.3-.04.5-.03.18-.07.38-.1.59-.05.27-.13.55-.18.76-.31,1.24-.57,2.32-.82,3.55-.25,1.25-.28,2.51-.48,3.78-.16,1-.38,2.25-.7,2.98-.77,1.72-.62,3.49-1.14,5.2-.43,1.45-.78,3.01-1.11,4.53-.39,1.79-.7,3.56-.69,5.26,0,.92-.28,2.01-.55,3.02-.3,1.14-1.14,4.93-1.38,5.48-.49,1.15-.79,2.42-1.03,3.73-.12.65-.22,1.32-.33,1.97l-.14.94v.18c0,.1.05.17.1.18.17-.06.26-.12.31-.13.04,0-.02,0,.09.02l.76.1c.5.07,1.01.15,1.52.19.34.02.72-.04,1.09-.08.18-.02.36-.02.53,0,.11.01.05.05.1.12.1.28.32.39.48.37,0-.08,0-.19-.03-.29-.03-.11-.07-.2-.11-.27,0-.01-.01,0-.02-.03v-.13s.01-.26.01-.26c0-.18.02-.35.03-.53.05-.72.14-1.47.4-2.31.34-1.13.34-2.4.75-3.69.44-1.39.81-3.06,1-4.55.24-1.89,1.03-3.44,1.18-5.19.14-1.68.65-2.99,1.03-4.46.73-2.77,1.27-5.56,1.38-8.37.11-2.78.64-5.62,1.52-8.31.64-1.96,1.05-3.93,1.41-6.03.12-.71.24-1.41.36-2.12.07-.38.09-.64.13-.95.05-.3.07-.6.08-.9.06-1.2-.01-2.4-.18-3.6-.06-.35-.18-.66-.31-.95-.15-.28-.33-.54-.49-.83-.89-1.43-2.07-2.6-3.39-3.54-.33-.24-.69-.43-1.02-.66-.37-.17-.71-.4-1.09-.56-.38-.16-.74-.36-1.14-.48l-.59-.22-.69-.22c-1.11-.37-2.53-.59-3.8-.79-1.27-.2-2.54-.3-3.8-.45-2.58-.92-5.63-1.19-8.19-2.11-.52-.19-.92-.27-1.44-.29-.71-.02-1.5-.03-2.2-.18-3.56-.76-7.25-1.06-10.7-2.21-1.51-.2-3.01-.36-4.52-.6-2.58-.42-5.18-.98-7.72-1.3-1.56-.2-2.95-.47-4.48-.8-2.04-.44-4.1-.85-6.15-1.25l-1.54-.3c-.47-.07-.88-.14-1.33-.17-.88-.05-1.76-.02-2.62.15-1.73.29-3.35,1.11-4.72,2.2-1.32,1.14-2.43,2.58-3.03,4.23-.09.26-.2.5-.29.76l-.24.78c-.17.62-.33,1.23-.5,1.84-.28,1.02-.54,2.07-.58,3.03-.07,2.01-.46,4.05-.84,6.11-1.09,5.93-2.17,11.85-3.26,17.78-.37,2.05-1.03,3.92-1.34,6.05-.25,1.7-.59,3.57-1.2,5.19l-2.84,14.66-.92,4.62c-.17.81-.44,1.47-.76,1.88-.37.68-.02,1.16-1.25,1.36-.17.13-.8-.76-.83-1.06-.21-2.1.44-3.62.63-6.09.13-1.7.64-3.82.93-5.62.44-2.07.47-4.04,1.15-5.96.31-.88.11-1.97.58-2.88.29-.56.33-1.3.61-1.9.36-.79.43-1.45.47-2.45.06-.6.04-.97.27-2.21.17-.97.35-1.46.37-2.53.02-.94.65-2.33.72-3.32.13-2.01.76-3.35.68-5.57.09-1.92.6-3.73.87-5.34.4-2.06.83-4.11,1.26-6.16.1-.48.3-.96.47-1.4.37-.96.51-1.9.57-2.94.05-.98.47-2.84.87-4.57.41-1.73.78-3.3.87-3.83.02-.33.22-1.19.65-2.24.4-1.07,1.16-2.28,2.04-3.36.88-1.1,1.98-1.96,2.88-2.58.91-.6,1.65-.92,1.85-.99.52-.21,1.04-.24,1.38-.54.45-.07.98-.22,1.49-.38.52-.11,1.03-.21,1.41-.15.91-.02,1.53,0,2.18.07.33.02.66.05,1.05.12.38.06.85.11,1.3.2,1.8.31,3.54,1.53,5.27,1.57,3.57.7,5.81,1.08,6.33,1.09.95.01,1.3.4,2.25.4,1.29.01,3.65,1.06,4.01.9.38-.18,1.14.06,1.67-.04,1.11-.22,2.47.13,3.73.63.66.26,1.48-.02,2.02.26.98.52,2.12.89,3.45,1.14l8.5,1.54c1.79.33,3.63.64,5.25,1.26,2.71.47,4.02.8,5.14.91,1.39,0,2.65.6,3.93.48.88-.09,1.22-.13,1.65-.08.22.02.45.06.79.13.35.08.73.14,1.46.33.5.25,1.93.91,2.44.95,1.31.71,2.43,1.47,2.53,1.57.41.42.7.71.92.94.23.22.43.36.61.51.33.33.76.64,1.26,1.75.79,1.04,1.01,1.71,1.58,2.1.32.19.53.71.64,1.36.09.6.23,1.06.49,1.6.44,1.12.55,2.5.38,3.83-.07.65-.22,1.36-.31,1.94-.11.56-.18,1.12-.18,1.66-.33,1.23-.33,2.54-.59,3.79-.43,2.04-.77,4.08-1.53,5.95-.2.49-.28,1.55-.27,2.19.01,1.09-.58,1.92-.58,2.95,0,1.21-.49,1.83-.84,2.62-.27.63-.53,1.24-.52,2.1,0,1.22-.35,2.52-.56,3.79-.21,1.31-.83,2.48-.84,3.69,0,1.69-.81,3.4-.71,5.03.06,1.06-.38,1.72-.5,2.78-.73.93-1.1,2.33-1.3,3.97-.21,1.74-.26,3.42-.86,5.24-.02.07-.04.15-.06.23-.02.12-.04.25-.07.39-.04.29-.08.6-.12.93-.07.66.13-.3.03.38"/>
  </g>
  <path class="cls-2" d="M95.16,69.19c.2-.86.02-1.72.47-2.49.21-.35-.11-.85.25-1.2.22-.22.18-.53.39-.77.27-.31.27-.59.19-1.02,0-.26-.06-.42.02-.94.06-.41.18-.6.09-1.07-.08-.41.38-.95.34-1.38-.09-.87.38-1.39.05-2.37-.13-.83.18-1.57.26-2.25.17-.86.36-1.72.56-2.57.05-.2.19-.39.3-.56.26-.38.29-.78.23-1.23-.11-.85.81-3.09.74-3.47-.1-.52.47-4.22.6-4.52.08-.2.23-.36.1-.54.22-.3.04-.82.31-1.05.23-.64.34-.87.45-1.67.11-.76,1.11-1.39.96-2.14.29-1.49.42-2.43.37-2.66-.09-.41.24-.53.15-.94-.13-.56.64-1.5.43-1.65-.23-.15-.1-.39-.31-.55-.42-.32-.36-.62-.25-1.08.05-.25-.43-.26-.35-.47.14-.41.01-.83-.32-1.11-.35-.29-.76-.51-1.19-.63-.37-.11-1.03-.19-1.61-.3-.75-.13-1.52-.23-2.17-.66-1.14-.16-1.68-.34-2.16-.33-.61.16-1.1-.3-1.67-.03-.79.36-.62.31-1.65.09-.16-.19-.71-.47-.92-.31-.51-.24-1.02-.25-1.07-.28-.77-.56-.72.07-1.52-.56-.49-.05-.73-.19-1.02.12-.15.16-.35.15-.56-.02-.2-.15-.38-.14-.61-.07-.94.29-1.87-.55-2.82-.32-.5-.19-1.08-.04-1.6-.16-.85-.2-1.71-.31-2.44-.84-.19-.14-.65-.1-.93-.02-.48.13-.78-.36-1.23-.24-.53.14-.75-.28-1.06-.53-.25-.2-.49-.38-.87-.28-.54.14-1.07-.07-1.6-.13-.55-.06-1-.54-1.53-.41-.74.18-1.4-.42-2.13-.14-.47.18-.71-.19-1.17-.18-.33-.61-.9-.82-1.6-.83-.74-.02-1.47.12-2.21-.27-.23-.12-.63.03-.95.04-.32,0-.65.03-.96-.03-.65-.13-1.1-.71-1.79-.72-.64-.01-1.09-.17-1.73-.18-.43,0-1.16-.39-1.59-.46-.96-.18-1.86.29-2.63-.39-.42-.08-.85-.29-1.27-.1-.53.23-1.03.18-1.51-.15-.09-.06-.2-.15-.29-.14-.65.08-1.29.14-1.86-.3-.54-.03-1.04-.13-1.54-.37-.59-.25-.82.21-1.12,0-.26-.17-.5-.01-.66.19-.16.22-.34.29-.6.33-.17.04-.4.1-.45.27-.15.47-.21.85-.28,1.23l-.02.07-.03.14-.07.29c-.05.19-.11.39-.17.58-.13.39-.28.77-.47,1.15-.27.56-.27,1.15-.37,1.79.1.55-.11.85-.48,1.05-.19.1-.11.28.05.49.23.93-.58,1.5-.53,1.96.08.65.05,1.28-.35,1.87-.16.24-.32.65-.27.9.13.58,0,1.02-.25,1.53-.34.69-.49,1.43-.25,2.2.2.63.03,1.28-.1,1.93-.17.83-.72,1.58-.54,2.5.02.09-.03.23-.08.31-.63,1.07-.9,2.19-.61,3.43.06.27-.03.68-.18.94-.51.88-.78,1.77-.55,2.79.04.19,0,.47-.09.63-.81,1.35-.87,2.91-1.12,4.4-.2,1.19-.42,2.37-.81,3.51-.11.31-.22.59-.18.93.1.89-.1,1.73-.54,2.51-.28.49-.38,1.03-.3,1.57.14.91-.05,1.71-.5,2.5-.21.36-.39.79-.46,1.21-.18,1.07-.66,2.09-.67,3.18-.02,1.11-.55,2.1-.64,3.19-.05.64.17,1.31-.15,1.91-.31.6-.31,1.23-.37,1.88-.05.57-.45.97-.76,1.39-.34.46-1.73.35-2.02-.14-.02-.03-.18-.31-.12-.36-.07-.22-.23-1.48-.01-2.46.12-.54.18-1.08.47-1.55.24-.39.32-.78.2-1.23-.13-.54-.09-1.11.13-1.6.74-1.6.97-3.35,1.37-5.04.12-.53.26-1.05.41-1.58.06-.2.22-.4.22-.59-.04-2.2.63-4.32.85-6.49.07-.65.16-1.06.11-1.72-.08-1.08.3-1.88.64-3.32.24-.34.39-.77.61-1.13.18-.29.25-.59.23-.92-.12-1.53.28-3.04.38-4.56.55-1.73.93-4.19.86-4.43.12-.53.3-1.04.48-1.55.14-.41.34-.79.48-1.2.19-.53.21-1.07.03-1.59-.19-.54-.14-1.06.17-1.54.55-.86.76-1.77.57-2.78-.19-1,.03-1.92.53-2.82.43-.78.59-1.61.37-2.51-.16-.66.04-1.28.36-1.87.15-.28.4-.62.37-.87-.04-.29.04-.72.11-1.1.04-.19.07-.37.09-.51.04-.18.06-.32.04-.37-.09-.2.1-.6.2-.82.33-.66.7-1.18,1.16-1.72.47-.54.89-1.18,1.54-1.61.51-.33,1.24-.63,1.73-.56.57.1,1.06.01,1.58-.01.51-.05,1.09-.02,1.37.11.59.24,1.24.39,1.88.52.75.16,1.5.24,2.25.02.41-.12.86.03,1.28.16.47.15,2.06.5,2.27.66.91.67,2.12.56,3.2.68.54.06,1.09-.05,1.62.03.41.06.8.33,1.21.43.28.07.68-.23.86.12.22.44.48.52.99.46.61-.08,1.2-.33,1.88-.02.46.21,1.01.07,1.54.33.56.28,1.26.45,1.89.48.8.03,1.4.63,2.15.59.72-.05,1.24.3,1.85.52,1.14.41,2.3.63,3.52.43,1.21-.2,2.39.02,3.48.58.79.41,1.61.6,2.49.72,1.19.16,2.4.27,3.47.88.31.18.62.11.94.13,1.64.08,3.24.27,4.73,1.07.45.24,1.05.3,1.58.35.54.06,1.08.02,1.62.02,1.03.62,2.34.55,3.37,1.17.21.13.37.17.6.12.31-.06.65-.13.95-.06.94.2,1.98.57,2.81,1.2.83.63,1.48,1.54,1.64,2.56.4.74.69,1.59.71,2.48.02.36-.04.8-.09,1.09l-.13.81c-.09.54-.16,1.08-.18,1.62-.02.66-.14,1.24-.3,1.88-.42,1.7-.7,3.43-1.04,5.15l-1.01,5.15c-.11.53-.31,1.04-.5,1.55-.16.42-.3.85-.23,1.27.15.88,0,1.73-.15,2.59l-1.24,7.45c-.14.86-.57,1.61-.65,2.51-.06.72-.18,1.5-.6,2.15l-1.17,6.12-.39,1.93c-.07.34-.27.6-.54.74-.29.26.11.51-1.08.46-.15.04-.87-.42-.93-.56-.44-.94.04-1.54-.05-2.6-.06-.73.21-1.61.29-2.37Z"/>
  <path class="cls-2" d="M84.07,16.94s-.31.14-.37.09c-.23.05-1.52.13-2.53-.09-.56-.12-1.12-.2-1.61-.46-.41-.22-.81-.3-1.27-.22-.55.09-1.14.04-1.65-.17-1.68-.69-3.48-.95-5.24-1.36-.38-.09-.76-.18-1.14-.28-1.22-.61-1.05-.95-1-1.73.05-.65,1.74-.37,2.51-.22.13.04.25.07.38.09,1.12.19,2.17.63,3.3.69,1.15.05,2.18.55,3.3.66.66.07,1.34-.09,1.98.2.63.29,1.28.31,1.95.39.59.06,1.01.42,1.46.7.49.3.42,1.48-.08,1.71Z"/>
  <path class="cls-2" d="M122.79,84.34c-.07,2.27.23,4.36-.1,6.53-.15.99.23,2.11-.08,3.16-.19.65-.11,1.43-.28,2.13-.22.91-.18,1.61-.05,2.69.04.64.12,1.03.11,2.39,0,1.06-.1,1.61.05,2.75.14,1-.25,2.59-.15,3.65.2,2.15-.2,3.69.25,6.03.23,2.05.01,4.07,0,5.82-.07,2.26-.16,4.51-.28,6.76-.03.53-.14,1.07-.24,1.56-.22,1.08-.2,2.11-.11,3.22.19,2.1-.52,8.21-.44,9.14.16,1.28-.21,10.93-.37,11.75-.08.53-.22,1-.09,1.41-.21.85-.05,2.12-.33,2.82-.25,1.74-.36,2.36-.58,4.46-.2,1.98-1.4,4.13-2.22,5.87-1.07,1.8-2.21,2.99-3.03,3.88-.83.88-1.4,1.39-1.58,1.63-.67.8-1.22.87-1.93,1.62-.96,1.08-3.59,2.12-3.75,2.49-.18.41-.97.79-1.32,1.25-.76.96-2.15,1.66-3.55,2.13-.73.24-1.26,1-1.92,1.14-1.18.23-2.41.66-3.74,1.28-2.84,1.32-5.72,2.53-8.66,3.59-1.86.67-3.78,1.35-5.63,1.6-2.84.92-4.27,1.2-5.43,1.61-1.37.64-2.88.62-4.1,1.27-1.69.88-1.31.73-4,1.23-.53-.05-2.07.03-2.49.32-1.44.1-2.72.37-2.85.38-.07,0-.14,0-.21,0-.1,0-.2,0-.29.01-.1,0-.19-.02-.28-.02-.06,0-.11-.01-.16-.02-.21-.02-.38-.03-.53-.04-.31,0-.53.02-.76.04s-.46.04-.78.03c-.09,0-.18-.01-.28-.02-.15,0-.32-.02-.47-.07-.24-.07-.46-.14-.74-.24-1.26-.15-1.93-.34-2.56-.09-.32.13-.84.07-1.44-.16-.55-.21-1.01-.26-1.58-.25-2.31.04-4.91-1.22-7.25-1.38-1.32-.42-2.75-.55-4.09-.95-2.18-.67-4.37-1.28-6.27-2.35-.5-.27-1.63-.54-2.32-.66-1.17-.18-1.97-.96-3.07-1.17-1.29-.28-1.87-.89-2.63-1.44-.61-.43-1.21-.82-2.12-1.05-1.29-.32-2.57-1.05-3.84-1.66-1.32-.62-2.35-1.62-3.59-2.08-1.75-.63-3.21-2.1-4.87-2.77-1.1-.44-1.57-1.19-2.56-1.85-.59-1.17-1.74-2.26-3.11-3.52-1.42-1.35-2.92-2.75-3.63-5.06-.07-.36-.32-.81-.44-1.23-.14-.43-.31-.88-.42-1.31-.27-.88-.4-1.67-.51-2.52-.23-1.74.16-3.22-.12-4.97-.26-1.62-.24-2.83-.47-4.45-.16-1.09-.04-3.13-.1-4.26-.15-2.52-.89-4.54-.46-6.83-.05-1.11.02-2.29-.29-3.25-.38-1.21-.47-2.49-.29-3.9.03-.25.08-.59.05-.8-.27-1.6-.5-3.18-.24-4.85-.12-1.37-.16-2.69-.07-4.09.09-1.34-.44-2.62-.27-4.06.14-1.15.01-2.17-.17-3.22-.19-1.07-.19-2.16-.12-3.29.05-.79.12-1.73.02-2.44-.54-4.13-.68-8.2-.34-12.41.13-1.57-.02-3.04-.08-4.72-.23-1.34-.1-2.21.21-2.9.16-.36.04-.76-.17-1.21-.44-2.24.21-4.09.05-5.22-.23-1.59-.36-3.21-.1-4.9.05-.35.09-.8.11-1.23,0-.22,0-.43,0-.63,0-.28,0-.53-.01-.75,0-2.17,1.64-3.97,3.81-4.32.36-.06.73-.08,1.1-.06.34,0,.79.09.96.13.47.09.94.17,1.41.22.94.12,1.88.15,2.82.07,1.5-.12,3.22.14,4.89.34,2.16.28,4.26.88,6.49.76.22-.01.58.05.82.1,2.95.69,5.88,1.03,8.89.72.66-.06,1.74.03,2.44.19,2.43.5,4.81.73,7.28.47.45-.06,1.18-.04,1.63.05,1.88.36,3.81.52,5.76.61,1.95.06,3.9.04,5.84.08,3.1.06,6.16.04,9.22.24.83.06,1.6.09,2.43-.02,2.2-.3,4.39-.28,6.57-.02,1.37.14,2.78.08,4.09-.15,2.2-.4,4.31-.39,6.52-.25,1.02.08,2.19.1,3.27.03,1.39-.1,2.79-.11,4.18-.17,1.39-.08,2.77-.17,4.14-.38,1.39-.22,2.77-.3,4.15-.37,1.38-.09,2.76-.21,4.13-.42,1.62-.26,3.13-.77,4.83-.77,1.69,0,3.23-.39,4.85-.68,1.44-.27,2.67-.13,3.91-.08,1.35.05,1.97,1.36.95,1.89-.06.03-.64.33-.82.31-.5.19-3.54,1.03-6.09,1.38-1.4.21-2.81.41-4.16.36-1.12-.04-2.14.08-3.19.4-1.26.37-2.73.63-4.08.63-4.46-.05-8.96.49-13.46.63-1.4.05-2.8.09-4.19.14-.54,0-1.13-.1-1.61-.04-2.76.31-5.58.5-8.4.56-2.82.04-5.65.09-8.45.18-1.68.04-2.78.02-4.41.18-2.69.28-4.93-.03-8.73-.2-.98-.19-2.13-.3-3.16-.5-.82-.16-1.62-.21-2.45-.16-3.84.25-7.84-.12-11.75-.21-4.63-.55-11.02-1.06-11.61-1.01-1.39-.16-2.77-.39-4.13-.61-1.09-.19-2.14-.44-3.23-.63-1.42-.25-2.79-.35-4.04-.23-1.29.13-2.64-.02-3.98-.42l-.35-.11c-.08-.04-.16-.04-.25-.06-.17-.02-.35-.03-.52.01-.35.06-.69.27-.92.56-.24.28-.35.65-.36,1.01,0,.1.02.17.02.29l.05.46c.05.3.09.61.14.92.41,2.44.42,4.87.15,7.37-.23,2.18-.19,4.37.24,6.52.31,1.58.27,3.25.11,4.91-.08.78-.24,1.76-.14,2.38.22,1.42.13,4.51.27,4.84.13.32.11,1.12.11,1.58-.01,1.37-.02,2.56.03,3.91.05,1.37.32,2.69.42,4.07.08,1.09.16,2.45.02,3.29-.34,1.99.23,3.8.14,5.72-.07,1.62-.03,3.34.02,5.01.05,1.97.19,3.89.62,5.66.23.95.22,2.16.22,3.29,0,1.26.15,5.43.06,6.06-.33,2.65.13,5.63.42,8.38.14,1.37.42,2.69.57,4.04.11,1.06.02,2.15.09,3.24.07.72.54,1.52.3,2.15-.15.4-.21.77-.19,1.19.04.38.16.81.34,1.35.11.32.22.64.38.86.13.25.3.49.48.74.33.51.74,1.05,1.14,1.76.58.96,1.56,1.7,2.43,2.73.94,1.11,2.29,2.25,3.59,3.08,1.64,1.04,2.87,2.38,4.54,3.15,1.59.73,2.76,1.62,4.14,2.45,2.6,1.53,5.38,2.76,8.25,3.45,2.85.68,5.71,1.67,8.45,2.88,1.99.88,4.04,1.5,6.23,2.01,2.95.69,5.99,1.22,8.81,2.15.83.26,1.58.27,2.38.36l1.54.15.77.08c.16.02.22.02.23.02-.02,0,.17,0,.29-.01l1.56-.04h.67s.59-.1.59-.1c2.03-.3,4.06-.55,6.12-.71,1.24-.08,2.72-.47,4.04-.82,1.32-.35,2.58-.82,3.86-1.26,2.88-.34,5.89-1.59,8.72-2.13.58-.11.99-.24,1.48-.51.66-.37,1.39-.77,2.1-1.04,3.64-1.32,7.03-3.25,10.61-4.6,1.38-.82,2.7-1.72,4.05-2.58,2.29-1.49,4.61-3.04,6.48-4.86,1.13-1.12,2.14-2.12,3.11-3.27.64-.77,1.2-1.58,1.57-2.4.11-.2.18-.41.25-.61.07-.2.15-.4.19-.66l.28-1.48c.15-1.05.26-2.17.39-3.25l.28-3.33c.35-4.45.58-8.94.82-13.42.07-1.39.23-2.77.38-4.14.13-1.12.23-2.28.12-3.31-.23-2.15-.15-4.37-.1-6.62.17-6.47.29-12.94.36-19.41.02-2.24.36-4.33.32-6.65-.04-1.85-.02-3.89.31-5.72l.28-16.04.04-2.53v-.63c0-.18.02-.19,0-.29-.02-.15-.07-.3-.15-.44-.17-.28-.32-.56-.46-.86-.14-.19-.32-.15-.45-.23-.14-.07-.24-.25-.51-.81-.08-.06,0-.3.19-.55.19-.24.51-.45.69-.46,1.25-.14,2.44.61,3.03,1.72.3.56.48,1.22.48,1.91,0,.57.03,1.17.09,1.84.17,1.82.03,4.17.06,6.13Z"/>
</svg>