<?xml version="1.0" encoding="UTF-8"?>
<svg id="illuer_hvid_bg" xmlns="http://www.w3.org/2000/svg" viewBox="0 0 133.62 131.63">
  <defs>
    <style>
      .cls-1 {
        fill: #ff9400;
      }

      .cls-2 {
        fill: #0354f0;
      }
    </style>
  </defs>
  <path class="cls-2" d="M58.99,6.64c-1.24-.52-2.48-.68-3.63-1.29-.52-.3-1.26-.1-1.78-.56-.33-.28-.81-.26-1.18-.51-.48-.31-.91-.35-1.56-.33-.39-.01-.62-.02-1.42-.09-.62-.07-.94-.19-1.63-.1-.6.07-1.5-.4-2.14-.28-.64.09-1.18.04-1.74.02-.28-.01-.56-.02-.86.01-.3.05-.61.13-.95.27-1.19.34-2.37.15-3.38.35-1.3.15-2.62.23-3.91.5-.31.05-.63.02-.94,0-.67-.06-1.25.1-1.83.44-.55.31-1.72.56-2.8.85-1.06.34-2.06.63-2.28.8-.33.18-1.72.98-3.08,1.71-.7.33-1.31.81-1.83,1.11-.51.32-.88.54-.99.59-.29.12-.59.18-.7.43-.49.17-.9.83-1.36.9-.44.26-.74.44-1.05.64-.32.2-.63.43-1.06.86-.41.4-.98.64-1.54.91-.55.27-1.1.54-1.34,1.07-1.54,1.73-2.51,2.8-2.59,3.16-.21.58-.62.61-.83,1.19-.28.78-1.72,1.74-1.59,2.07.1.32-.23.7-.22,1.08.04.79-.48,1.49-1.12,2.1-.3.34-.11.96-.42,1.22-.57.46-1.02,1.09-1.37,1.88-.34.85-.58,1.73-.87,2.59l-.42,1.3-.31,1.33c-.13.56-.25,1.13-.41,1.68-.08.28-.17.55-.27.81-.08.27-.17.54-.28.79-.17,1.74-.41,2.57-.35,3.3.23.88-.16,1.72.17,2.51.45,1.07.35.83.42,2.4-.14.29-.27,1.19-.05,1.44-.13.84.08,1.58.07,1.65-.21,1.34.36,1,.09,2.41.13.72.16,1.13.59,1.38.22.13.32.41.28.78-.03.35.08.6.26.88.68,1.14.68,2.82,1.48,3.94.15.79.74,1.41,1.05,2.13.51,1.19,1.07,2.32,1.41,3.54.08.33.52.83.83,1.1.51.45.45,1.18,1.01,1.56.63.46.58,1.02.75,1.55.13.43.27.84.72,1.16.67.42,1.17,1.09,1.73,1.67.6.57.8,1.48,1.55,1.79.99.46,1.53,1.57,2.53,1.92.65.22.85.7,1.43,1.02.21.81.89,1.45,1.8,1.94,1.02.45,2.04.74,2.95,1.55.28.27.88.29,1.33.43.45.14.92.26,1.35.46.44.21.8.51,1.18.8.38.27.8.49,1.3.61.93.2,1.57.51,2.49.7.63.07,1.72.58,2.36.73,1.43.4,2.71-.17,3.93.57.63.1,1.3.32,1.89.05.73-.3,1.46-.3,2.26-.03.14.05.34.12.46.1.93-.2,1.82-.46,2.8-.17.39-.06.78-.09,1.17-.1.39-.04.78-.06,1.18-.05.78.02,1.45-.57,2.3-.48.68.07,1.23-.2,1.79-.49.56-.3,1.17-.42,1.83-.48.46-.02.99-.15,1.36-.35,2.14-1.13,4.19-2.11,6.52-2.85.85-.32,1.53-.85,2.34-1.37.57-.54,1-.77,1.52-.73.26.01.39-.21.48-.53.8-1.08,2.08-1.16,2.46-1.74.56-.77,1.17-1.46,2.09-1.92.39-.17.84-.63,1.01-.95.37-.76.85-1.24,1.52-1.75.47-.33.83-.76,1.14-1.22.31-.46.56-.96.71-1.5.12-.44.35-.84.59-1.25.22-.43.48-.84.73-1.26.32-.54.73-1.02,1.1-1.54.39-.5.61-1.1.73-1.75.02-.13.13-.31.22-.42,1.17-1.37,1.73-3.03,1.81-4.8.04-.38.18-.98.37-1.36.63-1.29,1.15-2.62.87-4.1-.04-.27,0-.68.11-.93.2-.52.4-1.06.49-1.61.08-.55.12-1.11.15-1.68s.04-1.13.05-1.69c-.02-.56-.09-1.13-.12-1.69-.08-.89-.07-1.79-.19-2.67-.11-.88-.2-1.76-.25-2.65,0-.49-.05-.93-.28-1.38-.29-.59-.49-1.19-.63-1.81-.13-.62-.2-1.26-.3-1.89-.09-.8-.37-1.59-.8-2.24-.33-.56-.69-1.08-.94-1.65-.26-.57-.44-1.17-.58-1.81-.1-.61-.38-1.23-.72-1.77-.43-.69-.79-1.42-1.17-2.15-.41-.71-.9-1.35-1.45-1.95-1.07-1.24-1.94-2.6-3.12-3.74-.68-.68-1.58-1.06-2.17-1.86-.59-.8-1.38-1.31-2.18-1.85-.71-.48-1.08-1.14-1.54-1.74-.5-.64.06-1.93.82-1.87.05,0,.48.05.54.15.33.09,2.14.9,3.35,1.97.66.58,1.36,1.14,1.81,1.86.39.58.82,1.05,1.41,1.41.71.43,1.39,1.08,1.85,1.78.41.56.74,1.18,1.11,1.77.37.59.76,1.17,1.16,1.74.42.56.76,1.17,1.11,1.77l1.04,1.82c.46.74.73,1.57,1.07,2.36.13.31.17.69.33.94.23.36.46.74.67,1.11.18.39.35.79.52,1.19.33.81.63,1.63.93,2.45.26.84.44,1.7.67,2.54.22.85.47,1.69.61,2.55.21,1.03.3,1.7.62,2.69.25.82.26,1.6.29,2.45,0,.86.05,1.81-.08,2.99-.2.61-.3,1.33-.48,1.96-.16.5-.15,1-.16,1.51.03,1.19-.06,2.42-.19,3.64-.24,1.2-.51,2.41-.71,3.62-.5,1.37-1.15,2.98-1.6,4.32-.58,1.29-.99,2.3-1.01,2.49-.19.39-.4.78-.61,1.16-.23.37-.5.72-.75,1.08-.4.56-.85,1.08-1.25,1.63-.5.74-.95,1.46-1.17,2.23-.23.81-.7,1.52-1.38,2.09-1.27.94-2.32,1.99-3.08,3.4-.87,1.29-2.04,2.34-3.44,3.11-1.28.6-2.35,1.41-3.24,2.52-.7.74-1.67,1.23-2.66,1.58-.47.16-1.07.34-1.4.55-.73.55-2.56,1.22-2.7,1.43-.14.19-.6.4-.89.46-.83.24-1.55.46-2.35.75-.4.15-.79.35-1.17.55-.39.19-.79.35-1.21.49-.66.21-1.49.47-2.04.42-.33-.03-.63,0-.93.06-.3.03-.59.1-.88.17-.58.14-1.16.32-1.76.33-.52,0-1.04.06-1.57.09-.53.02-1.07.03-1.59.05-1.24.04-2.45.2-3.59.46-.62.17-1.39.07-2.11-.01-.2-.02-.52-.05-.88-.09-.36-.07-.78-.14-1.18-.21-.8-.15-1.55-.3-1.74-.38-.39-.19-.81-.29-1.23-.42-.42-.14-.85-.24-1.3-.33-.88-.18-1.8-.28-2.67-.47-.84-.24-1.71-.33-2.55-.59-.65-.22-1.26-.58-1.88-.92-.42-.21-1.08-.11-1.31-.55-.29-.56-.66-.77-1.46-.96-.94-.23-1.85-.42-2.8-1.16-.62-.52-1.52-.71-2.16-1.41-.71-.72-1.62-1.44-2.5-1.97-1.08-.73-1.59-1.89-2.6-2.53-1-.6-1.42-1.52-2.05-2.34-.56-.8-1.24-1.49-1.82-2.25-.59-.75-1.24-1.45-1.98-2.09-.76-.61-1.3-1.42-1.83-2.24-.49-.84-.99-1.69-1.22-2.65-.35-1.39-.97-2.61-1.52-3.94-.36-.91-.73-1.82-1.04-2.75-.34-.92-.42-1.91-.48-2.86-.02-.56-.25-.99-.41-1.48-.37-1.27-.6-2.58-.8-3.88-.16-1.31-.06-2.64.11-3.95.07-.79.13-1.75.1-2.62.01-.87-.15-1.73-.13-2.6.67-1.76.58-3.87,1.5-5.53.17-.34.24-.6.24-.96.01-.48-.04-1.04.15-1.5.43-1.15.76-2.35,1.14-3.53.47-1.14,1.01-2.26,1.73-3.26.34-.97.81-1.88,1.28-2.81.77-1.61,1.97-2.98,2.85-4.5.26-.47.58-.87.92-1.25.33-.38.68-.76,1.05-1.14l1.48-1.55,1.6-1.44c1.03-1.01,2.19-1.85,3.34-2.71l.86-.64c.3-.2.61-.38.91-.57l1.83-1.12c1.23-.73,2.55-1.29,3.83-1.93.82-.33,1.69-.55,2.53-.78.69-.19,1.39-.39,1.98-.69,1.21-.66,2.56-1.13,3.98-1.38,1.01-.19,2.01-.48,3.04-.58l3.07-.38,3.09-.15c1.03-.06,2.06.04,3.09.05,1.44,0,2.72.54,4.19.62,1.18.06,2.45.38,3.53.89.84.15,1.64.43,2.45.67.81.26,1.64.45,2.42.77,1.58.62,3.18,1.2,4.68,2l1.44.72c.48.24.92.55,1.38.82.48.3.82.67.95,1.03.3.45.78.23.37,1.36.01.17-.85.58-1.06.55-.72-.08-1.25-.33-1.79-.63-.54-.31-1.09-.66-1.87-.86-1.07-.28-2.23-1.06-3.35-1.38Z"/>
  <path class="cls-2" d="M67.99,22.3c-.35-.43-.75-.79-1.12-1.16-.4-.35-.76-.71-1.02-1.2-.23-.46-.92-.53-1.1-1.09-.11-.35-.46-.54-.6-.89-.21-.44-.52-.62-1.02-.84-.28-.15-.46-.23-1.01-.6-.42-.29-.6-.52-1.15-.7-.47-.17-.95-.85-1.44-1.04-1-.36-1.51-1-2.72-1.1-1.01-.16-1.8-.75-2.6-1-.99-.43-2.01-.76-3.02-1.13-.24-.08-.47-.23-.68-.37-.46-.3-.96-.39-1.5-.36-.52.06-1.47-.2-2.37-.36-.9-.14-1.74-.34-1.97-.25-.31.09-1.63.17-2.9.2-1.27.13-2.51.29-2.71.27-.26-.02-.5-.11-.67.06-.43-.09-.97.31-1.34.15-.83.06-1.16.04-2.12.3-.88.3-2.11-.23-2.89.3-1.78.69-2.86,1.21-3.07,1.39-.36.38-.69.2-1.04.58-.47.52-1.93.61-1.96.91-.02.31-.42.46-.52.77-.23.66-.86.98-1.59,1.16-.38.09-.41.71-.76.74-.62.09-1.2.36-1.75.82-.59.47-1.07,1.06-1.61,1.58-.53.54-1.06,1.06-1.52,1.66-.59.75-1.23,1.47-1.97,2.03-.77,1.22-1.24,1.76-1.48,2.3-.11.76-.77,1.2-.76,1.94.03,1.01,0,.76-.53,1.94-.24.15-.69.75-.59,1.03-.41.56-.57,1.17-.59,1.23-.7.89-.06.88-.85,1.8-.14.59-.35.88-.05,1.24.15.19.12.43-.06.69-.17.24-.17.47-.11.75.12.57-.07,1.13-.23,1.71-.12.58-.24,1.18-.1,1.73-.14.64-.03,1.3-.02,1.95-.03,1.06-.04,2.1-.36,3.12-.08.27.1.8.26,1.11.27.52-.11,1.03.13,1.52.3.57.04.96-.07,1.42-.08.36-.14.72.11,1.12.18.28.27.59.34.91.1.32.18.64.3.95.24.64.05,1.38.44,1.9.58.69.54,1.72,1.21,2.32.43.38.29.85.65,1.29-.23.71.04,1.43.54,2.13.55.73,1.29,1.27,1.61,2.22.11.3.52.55.83.8.29.26.61.51.85.81.5.62.54,1.5,1.24,2,.62.48.97.95,1.59,1.42.42.3,1.02,1.09,1.43,1.44.91.82,2.1.82,2.68,1.87.44.29.81.76,1.37.74.68,0,1.22.26,1.68.78.08.09.19.23.29.26.75.21,1.53.28,2.11.91.63.18,1.18.48,1.77.79.56.32,1.3.04,1.87.46.46.35.96.37,1.49.32.53-.05,1.02.09,1.52.3.35.14.76.36,1.11.3,1.01-.1,1.97-.12,2.93-.01.96,0,1.92.11,2.92.34.74.18,1.44-.07,2.22-.14.61-.26,1.03-.15,1.4.14.19.13.36-.01.54-.25.97-.6,1.95-.08,2.46-.32.69-.38,1.38-.71,2.23-.67.35,0,.88-.04,1.12-.25.53-.48,1.06-.65,1.74-.76.93-.12,1.77-.56,2.36-1.32.47-.61,1.23-.92,1.88-1.38.84-.58,1.99-.73,2.56-1.72.06-.09.2-.19.32-.23.67-.29,1.33-.62,1.85-1.1.51-.49.94-1.08,1.25-1.75.14-.29.52-.64.79-.84.5-.33.95-.7,1.33-1.13.19-.21.37-.44.52-.69.13-.26.23-.55.32-.85.06-.22.24-.51.42-.65.37-.29.7-.62,1.01-.96.29-.36.51-.76.75-1.16.45-.81.89-1.63,1.2-2.5.28-.68.56-1.35.87-2.02.24-.69.5-1.37.8-2.03.16-.36.35-.69.34-1.1-.05-1.09.21-2.08.71-3.05.25-.62.32-1.3.21-1.95-.17-1.08-.06-2.06.23-3.11.15-.48.22-1.05.19-1.57-.09-1.33.05-2.7-.36-3.99-.41-1.29-.38-2.65-.88-3.91-.29-.74-.85-1.33-.95-2.15-.1-.82-.51-1.48-.9-2.17-.36-.6-.31-1.26-.4-1.89-.09-.67,1.02-1.55,1.62-1.24.04.02.37.2.37.3.24.17,1.32,1.45,1.81,2.7.28.68.57,1.37.62,2.08.02.6.2,1.09.54,1.58.42.57.68,1.31.72,2.03.1,2.34.51,4.63.51,6.97,0,.72-.04,1.45-.11,2.16-.03.28-.17.57-.14.82.07.72.03,1.44,0,2.16-.06.72-.06,1.46-.23,2.17-.32,1.43-.54,2.88-.96,4.27-.22.85-.39,1.39-.51,2.25-.15.7-.39,1.3-.7,1.94-.16.32-.33.66-.52,1.02-.2.36-.46.73-.71,1.16-.4.37-.75.86-1.14,1.25-.3.32-.54.65-.71,1.05-.4.91-.89,1.82-1.49,2.66-.62.81-1.28,1.62-1.87,2.46-.95.77-1.98,1.79-2.86,2.57-.91.75-1.59,1.36-1.67,1.5-.56.47-1.23.78-1.88,1.12-.52.26-1.05.47-1.56.73-.67.33-1.28.69-1.7,1.24-.46.55-1.05.98-1.81,1.05-.67.07-1.29.22-1.88.45-.59.24-1.14.56-1.71.9-1.12.7-2.37,1.12-3.74,1.01-1.18-.07-2.27.22-3.37.65-.8.35-1.7.36-2.58.22-.41-.1-.93-.28-1.25-.21-.75.17-2.37.02-2.55.11-.18.11-.6.02-.84-.02-.71-.13-1.33-.23-2.04-.3-.72-.04-1.44-.02-2.17-.1-.57-.08-1.3-.18-1.69-.44-.9-.66-1.96-.5-2.88-.95-.79-.35-1.59-.78-2.4-1.13-.47-.21-.95-.41-1.44-.56-.48-.17-.95-.33-1.45-.4-.54-.08-1.08-.45-1.58-.79-.57-.37-2.34-1.72-2.56-1.99-.45-.57-.96-1.11-1.57-1.56-.59-.47-1.27-.86-1.82-1.35-.54-.49-1.19-.86-1.72-1.37-.42-.39-.68-.95-1.02-1.43-.23-.31-.81-.45-.78-.9.04-.56-.15-.86-.7-1.29-.59-.54-1.3-.96-1.7-1.9-.13-.32-.35-.58-.56-.88-.19-.3-.39-.62-.5-1-.23-.82-.69-1.68-1.11-2.42-.53-.96-.44-2.03-.99-2.88-.47-.85-.45-1.69-.6-2.54-.17-.8-.28-1.6-.45-2.38-.17-.78-.46-1.54-.77-2.3-.53-1.51-.82-3.2-.39-4.81.27-1.17.26-2.31.4-3.51.06-.81.1-1.64.21-2.45.18-.8.42-1.58.78-2.31.22-.42.16-.84.24-1.27.23-1.08.49-2.16.83-3.21.42-1.02.97-1.99,1.63-2.88.4-.54.78-1.24,1.08-1.91.33-.64.5-1.38.86-2.01.61-.52,1.09-1.17,1.57-1.82.47-.66,1.06-1.23,1.69-1.68.26-.18.41-.35.54-.62.17-.38.34-.81.66-1.08.76-.69,1.43-1.49,2.17-2.21.78-.67,1.6-1.31,2.53-1.76.64-.57,1.29-1.13,1.99-1.65.3-.22.6-.44.92-.64l.98-.55c.65-.36,1.3-.73,1.91-1.15.78-.44,1.54-.74,2.38-1.05,2.26-.78,4.57-1.45,6.93-1.84,2.36-.39,4.76-.56,7.15-.45.37.01.74.03,1.1.09.36.08.73.16,1.09.24.59.14,1.19.24,1.75.2.58-.06,1.18-.04,1.77.02.59.09,1.17.23,1.76.37,3.38.83,6.62,2.2,9.6,3.97.51.31.97.68,1.43,1.05.44.39.88.78,1.41,1.11.83.53,1.69,1.22,2.23,2.08,2.12,1.88,4.03,3.99,5.69,6.28.52.73,1.01,1.47,1.49,2.23.23.41.32.83.25,1.17,0,.47.51.45-.39,1.24-.08.14-.98.18-1.14.09-.54-.31-.84-.69-1.12-1.11-.3-.41-.6-.87-1.08-1.32-.67-.62-1.28-1.59-1.94-2.29Z"/>
  <path class="cls-2" d="M78.53,84.84c-.35-.4-.94-.49-1.09-1.06-.07-.26-.54-.15-.51-.53.02-.23-.18-.29-.19-.52,0-.29-.16-.37-.44-.44-.15-.06-.27-.07-.51-.28-.19-.16-.22-.31-.54-.37-.28-.05-.29-.56-.55-.65-.53-.17-.53-.68-1.27-.7-.54-.14-.76-.57-1.08-.83-.37-.37-.73-.75-1.07-1.15-.08-.09-.1-.25-.12-.39-.05-.31-.25-.44-.53-.52-.15-.05-.25-.12-.45-.33-.23-.24-.47-.52-.69-.78-.44-.53-.79-.99-.99-1.1-.09-.05-.25-.16-.64-.51.16-.31.64-.99,1.11-1.62.24-.32.48-.62.66-.85.1-.12.18-.22.24-.29.06-.06.07-.08.1-.09.11-.07.27-.08.21-.25.25-.05.22-.45.49-.44.34-.25.47-.32.75-.72.26-.38,1.23-.21,1.28-.72.58-.7.89-1.17.9-1.33.06-.35.4-.26.48-.64.07-.27.35-.48.58-.62.23-.14.41-.22.4-.4,0-.38.2-.5.27-.9.11-.61.37-1,.63-1.18.11.16.23.36.34.57.18.36.44,0,.59.41.26.71.5,1.16.85,1.49l1.9,1.74c.33.31.7.6.79,1.12.53.44.72.73.99.85.43.05.42.54.9.49.66-.06.53-.07.96.39-.03.19.1.56.32.49.13.33.41.48.42.52.09.65.44.14.49.85.24.17.29.35.64.19.18-.08.28-.02.3.17.01.17.12.21.29.22.69.04.69.95,1.35,1.04.16.29.57.33.78.57.35.39.75.72.83,1.33,0,.08.1.16.17.18.04,0,.1-.04.15-.08.15-.16-.03.25.1.1.11-.21.01.17.03.45v.02c.02.16.09.27.16.04.08-.31.17-.24.25-.33.03-.03.02,0,.1-.02.08-.01.17-.02.26-.02.17-.02.32-.05.4-.22.06-.12.14-.19.23-.25.12-.07.31-.15.48-.19.34-.1.67-.17.98-.41.43-.31.76,0,1.21-.02.36.61.79.83,1.39,1.07.31.11.66.29.9.46.19.12.35.27.43.52.05.16.36.15.54.24.18.09.38.16.51.3.27.28.17.86.54,1.06.34.19.49.44.83.63.23.13.4.63.58.81.42.41,1.2.3,1.2,1.05.18.18.28.46.63.44.44-.03.67.16.73.55.01.07.02.17.07.19.41.12.79.26.83.76.28.17.49.4.61.72.12.31.68.19.76.57.06.31.29.42.58.48.29.07.45.27.56.52.08.18.16.4.33.47.98.38,1.67,1.03,2.05,2.03.14.37.46.53.76.79.36.08.4.33.28.67-.06.17.08.17.3.1.65.09.46.88.74.96.4.12.74.32.81.8.03.19.15.43.33.46.4.06.56.29.68.63.16.46.47.79,1.05.81.47.02.72.34.99.63.35.37.42,1,1.04,1.12.06.01.11.08.12.15.2.79.64,1.31,1.5,1.45.19.03.36.22.41.4.17.64.49,1.1,1.19,1.22.13.02.26.13.29.25.24,1.01,1.05,1.5,1.71,2.11.53.49,1.04,1,1.42,1.62.1.17.19.34.4.4.55.17.88.57,1.04,1.13.1.35.33.59.68.67.58.15.91.52,1.05,1.1.07.26.19.52.38.69.48.44.74,1.1,1.32,1.42.6.33.81,1.02,1.35,1.39.32.22.82.24.96.66.14.41.48.59.8.82.28.2.25.62.29.98.04.39-.88,1.43-1.33,1.51-.03,0-.28.05-.27-.01-.17,0-.95-.25-1.35-.69-.22-.24-.48-.45-.55-.81-.06-.3-.23-.47-.54-.51-.38-.05-.67-.24-.8-.56-.42-1.02-1.23-1.7-1.91-2.49-.21-.24-.41-.5-.61-.76-.08-.1-.08-.28-.19-.33-1.23-.59-1.97-1.72-3.02-2.5-.32-.23-.49-.42-.88-.57-.64-.24-.85-.77-1.42-1.44-.04-.28-.18-.52-.24-.79-.05-.22-.17-.36-.36-.44-.91-.35-1.49-1.08-2.26-1.59-.6-.92-1.72-1.9-1.89-1.92-.22-.24-.38-.53-.55-.81-.13-.23-.22-.49-.36-.71-.17-.3-.45-.47-.85-.47-.41,0-.67-.19-.74-.57-.13-.66-.5-1.09-1.17-1.23-.67-.14-1.03-.57-1.21-1.21-.16-.55-.52-.91-1.14-1-.46-.07-.68-.4-.8-.81-.06-.2-.09-.48-.25-.53-.37-.1-.76-.72-.9-.69-.14.03-.24-.13-.31-.21-.19-.26-.36-.48-.59-.69-.23-.22-.62-.27-.88-.46-.21-.15-.47-.34-.48-.6-.04-.61-.7-.55-.9-.97-.17-.36-.44-.65-.71-.94-.31-.33-.67-.61-1.22-.66-.3-.02-.45-.26-.6-.49-.17-.25-.81-.97-.84-1.16-.09-.77-.81-1.03-1.33-1.43-.26-.2-.62-.27-.87-.48-.19-.16-.23-.48-.4-.67-.11-.13-.52-.02-.4-.34.15-.4.06-.54-.26-.63-.38-.11-.87-.09-1.04-.52.04-.12-.13.05-.1-.1.02-.17-.1-.25-.17-.14-.04.07-.08-.02-.16-.08-.1-.05-.08-.14-.3.07-.14.18-.32.25-.51.29-.09.02-.19.03-.29.04-.12.02-.31.08-.46.13-.81.27-1.51.58-2.27,1.12-.28-.19-.57-.35-.9-.5-.53-.23-1.1-.64-1.6-1.13-.3-.28-.47-.56-.6-.94-.19-.54-.52-.91-.93-1.25-.55-.46-1.16-.88-1.37-1.65-.06-.23-.27-.26-.44-.36-.85-.52-1.62-1.12-1.95-2.15-.1-.31-.39-.52-.65-.72-.26-.2-.58-.31-.88-.47-.19-.77-.95-1.08-1.14-1.84-.04-.16-.1-.23-.26-.26-.2-.04-.44-.08-.56-.21-.07-.09-.15-.17-.24-.24-.07-.06-.2-.19-.21-.18l-.19-.09c-.12-.06-.17-.13-.27-.56-.05.01-.08.04-.12.07-.04.15-.07.27-.1.35-.07.22-.21.31-.17.53-.17.37-.39.64-.67.92-.73.75-1.35,1.6-2.02,2.4l-.6.74c-.05.06-.1.12-.16.18v.02s-.04.09-.07.19c-.04.07-.02.18.15.12l.11-.04s.07,0,.14.03c.12.06.23.12.34.2.21.15.4.33.6.51,1.11,1.02,2.21,2.04,3.34,3.04.39.34.53.89.98,1.2.36.25.71.56.81,1.07l2.65,2.62c.28.28.55.55.82.84.14.15.16.38.08.62-.03.29.35.05-.41.96-.07.13-.77.56-.88.57-.79.07-.83-.46-1.46-.69-.44-.16-.76-.61-1.12-.89Z"/>
  <g>
    <path class="cls-1" d="M106.31,89.88l-15.56-16.21c-1.21-1.21-3.16-1.21-4.37,0l-10.17,10.17c-1.21,1.21-1.21,3.16,0,4.37l40.55,40.55c1.21,1.21,3.16,1.21,4.37,0l10.17-10.17c1.21-1.21,1.21-3.16,0-4.37l-26.51-26.51"/>
    <path class="cls-1" d="M101.83,86.86c-.58-.66-1.41-.98-1.76-1.81-.16-.38-.77-.38-.83-.89-.04-.31-.32-.46-.39-.77-.09-.41-.32-.56-.72-.74-.22-.14-.39-.18-.77-.54-.3-.28-.38-.5-.83-.68-.39-.16-.55-.87-.93-1.07-.77-.41-.91-1.11-1.92-1.37-.77-.36-1.19-1.03-1.69-1.49-.6-.63-1.19-1.27-1.76-1.93-.14-.16-.2-.38-.27-.58-.07-.22-.21-.41-.27-.45-.09-.07-.22-.09-.35-.08-.24.02-.57-.14-.96-.17-.38-.04-.76.11-.79.23.08.03-.64.9-1.33,1.67-.69.77-1.38,1.5-1.52,1.59-.18.11-.39.16-.38.39-.36.11-.48.67-.84.69-.55.4-.77.52-1.31,1.12-.51.57-1.74.48-2.01,1.2-1.07,1.07-1.7,1.78-1.77,2-.14.41-.5.29-.65.7-.1.28-.44.49-.75.67-.26.12-.43.22-.36.34.18.22,0,.35.16.54.36.38.24.5.02.83-.11.19.38.2.25.35-.12.16-.16.34-.14.51,0,.09.05.16.09.23.06.09.17.2.27.3l2.63,2.45c.55.52,1.13,1.03,1.41,1.76.86.76,1.2,1.21,1.61,1.46.61.19.74.86,1.38.94.89.11.71.06,1.44.82.02.26.3.8.58.77.28.5.7.78.72.83.31.91.65.33.93,1.32.38.31.5.56.93.44.22-.06.38.06.46.32.07.24.23.33.47.39.96.25,1.22,1.51,2.16,1.82.31.44.88.62,1.24,1.02.59.64,1.24,1.2,1.53,2.07.08.23.48.44.77.53.48.14.43.74.88.88.53.17.45.66.56,1.05.08.31.17.6.56.72.54.16.85.64,1.26.99.43.36.5,1.02,1.02,1.2.73.25.92,1.13,1.7,1.28.51.1.48.55.87.79-.1.72.25,1.22.83,1.61.61.42,1.31.7,1.68,1.44.12.23.54.31.82.48.27.17.56.33.79.55.46.47.49,1.23,1.06,1.61.53.36.8.74,1.34,1.1.36.24.73.97,1.04,1.28.7.68,1.74.75,1.96,1.77.3.3.53.72,1,.78.59.08.97.4,1.17.96.04.1.08.24.16.28.6.28,1.16.58,1.37,1.28.44.32.79.68,1.06,1.17.26.47.99.45,1.22,1,.08.21.25.41.36.48.07.03.16.02.25-.02.18-.09.22-.04.32.08.06.09.19.2.26.1.1-.13.15-.25.18-.35.02-.04.03-.09.05-.13v-.03s.1-.1.1-.1l.2-.22c.55-.57,1.19-1.06,1.93-1.47.55-.3.86-.8,1.3-1.28.21-.52.56-.65.99-.59.22.03.25-.16.22-.44.31-.92,1.33-.9,1.53-1.31.28-.59.65-1.11,1.33-1.36.28-.1.64-.34.72-.59.2-.56.55-.86,1.06-1.13.34-.18.64-.4.89-.68.12-.14.23-.29.32-.46.06-.1.05-.15.04-.19,0-.05-.02-.1-.05-.16-.18-.34-.11-.4-.1-.57,0-.09.1-.21.11-.34.01-.13-.05-.25-.29-.22-.09-.03-.17-.15-.21-.24-.51-1.14-1.28-1.99-2.5-2.41-.27-.09-.56-.4-.68-.67-.43-.93-1-1.66-2-2.01-.18-.06-.39-.25-.47-.43-.63-1.45-1.9-2.36-3-3.39-.88-.82-1.73-1.66-2.44-2.62-.19-.26-.36-.51-.67-.66-.81-.39-1.39-1.03-1.77-1.84-.24-.51-.63-.9-1.13-1.12-.85-.37-1.4-.97-1.78-1.81-.17-.38-.42-.77-.73-1.06-.79-.74-1.35-1.72-2.25-2.33-.92-.62-1.42-1.63-2.28-2.3-.5-.39-1.2-.56-1.51-1.17-.31-.61-.84-.95-1.35-1.35-.45-.35-.53-.93-.7-1.43-.18-.55.78-1.72,1.36-1.72.04,0,.37,0,.38.09.23.06,1.38.61,2.07,1.32.38.39.8.75,1.01,1.26.17.43.46.71.9.85.53.17.99.52,1.26.98.89,1.53,2.2,2.68,3.38,3.96.37.4.72.81,1.07,1.22.14.16.2.41.36.51,1.87,1.16,3.23,2.91,4.91,4.28.5.41.8.72,1.38,1.03.95.51,1.39,1.29,2.38,2.37.14.4.4.76.57,1.16.13.32.34.55.63.7,1.35.73,2.38,1.9,3.58,2.82,1.12,1.45,2.91,3.06,3.21,3.21.56.62.9,1.42,1,2.22.08.64-.03,1.25-.2,1.83-.23.75-.46,1.42-.66,2.17-.05.18-.15.39-.23.53-.06.12-.13.23-.21.33-.16.2-.38.35-.65.46-.95.38-1.63,1.02-2.02,1.98-.38.96-1.08,1.59-2,2.03-.81.38-1.4.99-1.7,1.87-.22.65-.73,1.05-1.34,1.35-.28.14-.69.27-.8.5-.25.53-1.21,1.26-1.2,1.45,0,.09-.06.19-.14.27-.12.12-.29.25-.4.33-.7.49-1.39.77-2.19.95-.8.16-1.67.39-2.57.16-.7-.16-1.53-.62-1.8-1.13-.2-.33-.23-.43-.37-.59-.12-.14-.27-.25-.42-.36-.3-.21-.63-.4-.84-.72-.35-.54-.8-1.02-1.26-1.49-.53-.55-1.11-1.03-1.87-1.24-.41-.12-.7-.49-.97-.84-.3-.39-1.41-1.56-1.5-1.82-.35-1.09-1.43-1.65-2.27-2.34-.41-.34-.94-.55-1.34-.91-.31-.28-.47-.72-.75-1.04-.19-.21-.71-.17-.65-.57.08-.51-.08-.72-.55-.95-.56-.26-1.21-.36-1.59-1.01-.26-.44-.81-.61-1.09-1.13-.3-.55-.77-1.08-1.29-1.45-.66-.46-.78-1.32-1.44-1.69-.63-.35-.85-.94-1.22-1.47-.7-.98-1.54-1.81-2.68-2.3-1.13-.48-2-1.32-2.56-2.4-.41-.79-.98-1.41-1.65-1.99-.89-.79-1.85-1.55-2.36-2.67-.15-.33-.45-.44-.71-.63-1.32-.97-2.55-2.01-3.31-3.52-.23-.46-.69-.83-1.11-1.17-.41-.34-.9-.6-1.35-.9-.48-1.11-1.62-1.76-2.1-2.87-.1-.23-.21-.35-.43-.44-.29-.12-.63-.24-.83-.46-.51-.56-1.12-1.03-1.68-1.54l-.41-.39c-.18-.18-.4-.43-.55-.68-.32-.51-.52-1.09-.53-1.67-.34-.89-.43-1.94-.12-2.93.14-.42.33-.82.59-1.19.12-.19.27-.36.41-.52l.31-.34c.37-.4.73-.81,1.04-1.25.38-.54.8-.96,1.28-1.39,1.29-1.17,2.49-2.44,3.72-3.67l3.7-3.69c.07-.08.31-.28.47-.4.19-.13.38-.26.58-.35.4-.21.84-.34,1.26-.42.71-.13,1.41-.11,2.07-.19.69-.09,1.43.06,2.1.39.34.17.64.37.94.64l.21.19.12.11.23.23c1.78,1.76,3.57,3.53,5.38,5.26.63.6.97,1.41,1.66,1.98.56.46,1.13,1.01,1.4,1.74l4.32,4.46,1.34,1.43c.23.25.32.57.27.89.03.4.49.19-.3,1.2-.06.15-.9.52-1.05.5-1.06-.15-1.25-.9-2.18-1.42-.64-.36-1.19-1.08-1.77-1.58Z"/>
  </g>
</svg>