<?xml version="1.0" encoding="UTF-8"?>
<svg id="illuer_hvid_bg" xmlns="http://www.w3.org/2000/svg" viewBox="0 0 605.36 430.9">
  <defs>
    <style>
      .cls-1 {
        fill: none;
      }

      .cls-2 {
        font-family: Onest-Black, Onest;
        font-size: 151.24px;
        font-variation-settings: 'wght' 900;
        font-weight: 800;
        letter-spacing: .05em;
      }

      .cls-2, .cls-3 {
        fill: #0354f0;
      }

      .cls-4 {
        fill: #ff9400;
      }

      .cls-5 {
        fill: #fff;
      }
    </style>
  </defs>
  <path class="cls-3" d="M293.86,202.61c.21,2.13,1.77,3.88,3.61,4.53.46.18.94.26,1.43.33.26,0,.46.03.76.03h.89c1.19.01,2.37.05,3.57.12,2.18.13,4.65-.27,6.99.01,1.44.18,3.17.08,4.71.23,2.01.2,3.57.15,5.93,0,1.42-.06,2.28-.14,5.28-.16,2.34-.02,3.55.06,6.07-.12,2.21-.16,5.74.19,8.07.06,4.74-.25,8.15.1,13.28-.41,4.51-.28,8.97-.13,12.84-.17,4.98.02,9.96.04,14.94.06,1.18,0,2.37.11,3.47.19,2.41.18,4.67.13,7.12,0,4.61-.27,18.14.2,20.19.06,2.82-.2,24.08-.35,25.88-.28,1.18.04,2.23.15,3.12,0,1.89.16,4.63-.12,6.22.1,3.84.1,5.24.16,9.8.12,4.34-.04,8.96.82,13,.53,8.64,0,14.03-.05,15.26-.15,2.21-.17,3.21.14,5.42-.03,3.02-.24,9,.34,9.76.11.81-.25,2.69-.16,3.86-.36,2.49-.43,5.81-.34,8.99-.1,1.65.13,3.43-.31,4.83-.13,2.51.32,5.35.47,8.56.45,6.84-.04,13.67-.08,20.51-.12,4.33-.02,8.76-.06,12.81.23,6.54-.06,9.73,0,12.4-.09,3.24-.27,6.45.08,9.37-.29.48-.07.98-.11,1.25-.18.29-.05.52-.13.73-.19.42-.14.72-.28,1.07-.45.33-.18.71-.38,1.18-.75.46-.39,1.03-.97,1.45-1.99.25-.37.53-1.09.54-2.08.04-1.1.03-2.19-.07-2.7.14-3.13.05-5.98.07-6.26.4-4.92-.21-3.95.26-9.07-.05-2.78.04-4.29-.32-5.55-.19-.65-.21-1.79-.09-3.14.11-1.26.06-2.28-.05-3.48-.46-4.92.19-11.02-.22-16.06.09-3.02-.17-6.08-.15-9.11.03-4.96-.02-9.88.36-14.55.1-1.23-.02-3.73-.16-5.23-.22-2.52.2-4.73,0-7.14-.24-2.82.13-4.48.32-6.48.15-1.6.28-3.13.11-5.14-.24-2.83-.14-6.03-.18-9.08-.04-3.16.34-6.15.11-8.98-.32-3.94.14-8.29-.27-12.04-.27-2.45.05-4.19-.05-6.71.54-2.51.63-5.94.51-9.84-.13-4.15-.4-8.09-.16-12.6.07-1.41-.15-3.46-.22-5.25-.07-1.78-.15-3.6-.15-5.41,0-1.87.12-3.6.23-5.35.05-.87.1-1.75.13-2.65.01-.24,0-.42,0-.59,0-.18-.02-.35-.05-.53-.05-.35-.16-.71-.3-1.05-.56-1.26-1.47-2.14-2.53-2.67-.53-.26-1.1-.44-1.71-.49-.52-.04-1.5,0-2.36.02-2.4.08-6.89-.16-9.37-.15-5.56,0-10.08.65-15.09.12-2.44,0-5.04-.12-7.19.14-2.71.33-5.53.37-8.61.14-.55-.04-1.3-.11-1.75-.08-3.54.21-7.05.38-10.71.06-3.04.08-5.95.07-9.02-.07-2.94-.13-5.8.36-8.97.14-2.52-.17-4.78-.08-7.12.07-2.36.16-4.78.13-7.27.03-1.74-.07-3.8-.17-5.39-.09-9.14.43-18.13.48-27.39.04-3.45-.16-6.72-.04-10.42-.02-2.97.2-4.87.06-6.4-.26-.78-.16-1.67-.06-2.67.14-4.95.4-9.02-.28-11.51-.14-3.52.2-7.09.3-10.83.02-1.53-.11-3.95-.19-5.29-.09-3.07.24-5.69.2-8.82.05-4.21-.2-8.5-.21-12.55.18-3.28.32-7.13.28-10.88.27-4.83,0-9.61-.4-14.52-.05-.49.04-1.29.02-1.84-.02-6.67-.41-13.18-.46-19.81.06-1.45.11-3.85.1-5.44,0-5.47-.33-10.74-.42-16.2,0-1,.08-2.6.09-3.62.03-4.21-.27-8.5-.34-12.82-.35-2.16.01-4.32.02-6.49.04l-3.24.03h-.81c-.26,0-.57,0-.73.03-.38,0-.75.09-1.12.19-1.15.34-2.17,1.14-2.76,2.18-.3.52-.49,1.09-.58,1.68-.03.15-.04.3-.04.45v.23s-.01.32-.01.32v1.28c-.02,3.41-.06,6.81-.14,10.19-.04,1.84-.1,3.54,0,5.39.27,4.88.23,9.75-.05,14.58-.18,3.03-.18,6.17.01,9.09.31,4.91.28,9.6-.02,14.48-.14,2.26-.23,4.84-.22,7.24.03,6.19-.24,12.37-.05,18.49.2,6.22-.14,12.31-.01,18.48.07,3.63.41,7.11.22,10.84-.19,3.72-.07,7.23,0,10.89.06,3.25-.26,5.91-.48,8.6-.24,2.94-1.63,3.81-2.01,1.42-.02-.15-.24-1.51-.19-1.89-.11-1.16-.51-8.03-.49-13.7.01-3.11-.03-6.25.17-9.17.17-2.43.16-4.7-.03-7.07-.23-2.84-.31-6.1-.18-9.07.42-9.76.31-19.73.38-29.65.03-3.08.07-6.17.1-9.24.02-1.2.14-2.48.1-3.53-.46-12.23-.21-24.79-.41-37.14-.06-3.7-.05-6.11-.23-9.71-.02-.37-.03-.74-.05-1.1,0-.43,0-.89.07-1.32.12-.88.37-1.74.77-2.53.8-1.58,2.11-2.92,3.82-3.71.85-.4,1.79-.66,2.78-.75.25,0,.5-.02.75-.03.21,0,.42,0,.63,0,.42,0,.84.01,1.27.02,1.73.02,3.61.04,5.7.07,2.18.17,4.71.24,6.99.38,1.82.12,3.58.13,5.4.05,8.42-.41,17.25-.31,25.85-.5,10.26.21,24.38.11,25.65,0,3.07.02,6.15.09,9.19.17,2.43.08,4.8.16,7.22.24,3.18.09,6.2,0,8.89-.28,2.78-.29,5.74-.34,8.79-.13,5.38.37,10.71.4,16.13.03,5.4-.38,10.77-.34,16.3-.02,4.81.28,9.65.27,14.41-.11,3.5-.28,7.2-.21,10.85,0,1.72.09,3.87.27,5.24.19,3.15-.19,9.97-.03,10.71-.16.72-.13,2.48-.09,3.5-.07,3.02.05,5.67.08,8.64.06,3.02-.01,5.97-.25,9.02-.31,2.4-.05,5.42-.1,7.27.07,4.37.4,8.42-.11,12.64.04,3.58.12,7.37.14,11.07.15,4.35.01,8.62-.05,12.57-.41,2.13-.19,4.8-.14,7.3-.09,2.8.06,12.02.1,13.42.21,5.82.48,12.45.14,18.61.05l1.14-.02c.47,0,.97.01,1.46.09.97.13,1.92.43,2.81.87,1.76.9,3.21,2.41,4.02,4.28.29.73.52,1.51.59,2.3.05.39.04.81.05,1.18l-.03.9c-.05,1.21-.1,2.42-.11,3.63-.01,1.63.35,3.58.05,4.94-.39,1.73-.42,3.25-.26,6.04.19,3.31.56,6.33.38,10.48-.12,2.79.13,5.74-.03,8.95-.16,3.45-.2,7.5-.1,11.05.13,4.51-.35,8.49-.16,12.63.18,3.97-.06,7.25-.16,10.87-.18,6.79-.18,13.55.25,20.13.42,6.52.45,13.38.1,20.06-.25,4.86-.28,9.64-.22,14.69.07,6.79.2,13.71-.2,20.31-.12,1.93,0,3.59.05,5.38.12,4.62.2,9.22.2,13.82,0,2.3-.03,4.59-.08,6.89-.02.59-.02,1.1-.06,1.77-.03.73-.17,1.45-.39,2.14-.44,1.38-1.26,2.62-2.31,3.58-1.26,1.14-3.02,2.04-4.95,2.24-1.04.08-1.71.04-2.53.06-.79.01-1.58.02-2.34.03-3.06.04-6.05.19-9.07.29-6.43-.41-13.66-.09-20.06-.5-1.31-.08-2.26-.09-3.5,0-1.65.11-3.5.26-5.22.25-8.64-.06-17.39.35-25.94-.11-3.6.1-7.19.23-10.82.28-6.2.08-12.52.04-18.6.2-3.72.1-7.09.1-10.81.07-9.93-.08-19.9-.03-29.85-.03-9.95,0-19.9,0-29.85,0-3.07,0-6.16-.1-9.18-.19-2.49-.08-5.06-.14-7.34.02-4.72.31-9.64.33-14.64.35-14.31.07-28.62.14-42.92.22-4.95.03-9.6-.25-14.7-.16-4.07.08-8.59.11-12.65-.18h-8.86s-4.43.01-4.43.01h-1.11s-.55,0-.55,0h-.28s-.36-.02-.36-.02c-.96-.04-1.92-.23-2.82-.59-1.79-.71-3.35-2.01-4.32-3.68-.49-.83-.85-1.74-1.05-2.68-.08-.47-.16-.95-.17-1.43l-.02-.36v-.28s0-.55,0-.55v-8.86c0-3.73,0-7.46,0-11.18,0-1.96.15-3.63.38-4.72.23-1.75-.21-2.7.97-3.74.14-.39.93,1.4,1.02,2.1.61,4.79.26,8.63.55,14.48.1,2.01.13,4.31.13,6.65,0,1.17,0,2.35,0,3.5,0,.58,0,1.15,0,1.71,0,.28,0,.56,0,.84.01.25.02.47.05.7Z"/>
  <g>
    <path class="cls-3" d="M575.8,36.13h-268.26c-1.61,0-2.91,1.3-2.91,2.91l.02,108.24,14.24-17.39,4.92-4.66,4.3,2.33-2.85,5.75-20.38,26.57-.25,34.53c0,1.61,1.3,2.91,2.91,2.91h268.26c1.61,0,2.91-1.3,2.91-2.91V39.04c0-1.61-1.3-2.91-2.91-2.91Z"/>
    <path class="cls-3" d="M546.23,37.18c-4.92-.03-9.43.31-14.14.02-2.14-.13-4.56.27-6.85-.01-1.41-.18-3.11-.08-4.62-.23-1.97-.2-3.5-.15-5.82,0-1.39.06-2.23.14-5.17.16-2.29.02-3.48-.06-5.95.12-2.16.16-5.62-.19-7.91-.06-4.65.25-7.99-.1-13.03.41-4.42.28-8.8.13-12.59.18-4.88-.02-9.77-.04-14.65-.06-1.15,0-2.32-.11-3.4-.19-2.36-.18-4.58-.13-6.98,0-4.52.27-17.78-.2-19.8-.06-2.76.2-23.61.35-25.38.28-1.16-.04-2.19-.15-3.05,0-1.86-.16-4.54.12-6.09-.1-3.76-.1-5.14-.16-9.61-.12-4.25.04-8.78-.82-12.74-.53-8.47,0-13.75.05-14.96.15-2.17.17-3.15-.14-5.32.03-2.96.24-8.83-.34-9.57-.11-.79.25-2.64.16-3.79.36-2.44.43-5.7.34-8.81.1-1.62-.13-3.37.31-4.74.13-2.46-.32-5.24-.47-8.4-.45l-5.03.03h-.31s-.2.02-.2.02c-.13.02-.25.04-.38.09-.24.09-.47.23-.65.4-.19.18-.33.4-.42.64-.09.26-.12.43-.12.81l.06,10.06c.02,4.24.07,8.59-.23,12.56.06,6.41,0,9.54.1,12.16.27,3.18-.08,6.33.29,9.19.51,3.94.42,3.07.41,8.92-.15,1.09-.33,4.37-.12,5.36-.14,3.07-.05,5.87-.07,6.14-.4,4.83.21,3.87-.25,8.89.05,2.72-.04,4.21.32,5.44.19.64.21,1.75.09,3.08-.11,1.23-.06,2.23.05,3.41.46,4.82-.18,10.81.23,15.75v.44s-.02.1-.02.1v.15c0,.1.02.19.04.26.03.15.08.2.11.25.06-.09.1-.16.14-.2l.25-.28.07-.07.43-.52,1.15-1.38c1.54-1.82,3.09-3.59,4.69-5.25.84-.87,2.3-2.85,3.12-4.06.12-.17.25-.35.37-.52l.19-.25.27-.34c.21-.2.42-.4.63-.59l.54-.48c.36-.31.72-.63,1.08-.94.36-.31.71-.62,1.06-.95l.51-.5c.3-.3.6-.61.9-.92.49-.5.96-.97,1.34-1.35.8.42,1.56.83,2.25,1.22.17.1.34.2.51.29l.27.17c.18.11.35.23.52.34,1.21.74,2.23,1.41,3.25,2.05-.12.22-.26.45-.39.68-.58,1.05-1.15,2.07-1.76,3.16-.39.72-.76,1.5-1.12,2.42-.06.14-.11.28-.17.43l-.09.22-.16.36c-.4.56-.8,1.13-1.21,1.7-.39.53-.79,1.06-1.2,1.6-.81,1.07-1.64,2.15-2.45,3.21-1.85,2.48-3.94,4.58-5.45,6.92-2.1,3.26-5.06,6.37-6.97,9.53-.47.78-.95,1.44-1.45,2.06-.44.55-1.18,1.45-1.13,1.36,0,.06,0,.1,0,.18,0,.28,0,.56.01.86-.55,2.46-.67,5.82-.58,9.65.1,4.07.34,7.94.07,12.35-.08,1.38.13,3.39.18,5.15.06,1.74.13,3.53.11,5.3v.5c0,.08.01.16.03.23.04.15.11.3.2.43.1.13.23.24.38.32.07.04.15.07.24.1.04.02.09.02.13.03.05.01.2.01.29.02,1.71.1,3.44.19,5.33.13,3.51-.11,6.13-.04,9.64-.16,2.35-.08,6.75.16,9.19.15,5.46,0,9.89-.65,14.79-.12,2.4,0,4.94.12,7.05-.14,2.66-.33,5.42-.37,8.45-.14.54.04,1.28.11,1.72.08,3.47-.21,6.91-.38,10.5-.06,2.98-.08,5.84-.07,8.85.07,2.88.13,5.69-.36,8.79-.14,2.47.17,4.69.08,6.98-.08,2.32-.16,4.69-.13,7.13-.03,1.71.07,3.73.17,5.28.09,8.97-.43,17.78-.48,26.86-.04,3.38.16,6.59.04,10.21.02,2.91-.2,4.78-.06,6.28.26.77.16,1.64.06,2.62-.14,4.86-.4,8.85.28,11.29.14,3.45-.2,6.95-.3,10.62-.02,1.5.11,3.88.19,5.18.09,3.01-.24,5.58-.2,8.65-.05,4.13.2,8.33.21,12.31-.18,3.22-.32,7-.28,10.67-.27,4.74,0,9.42.4,14.23.05.48-.04,1.27-.02,1.8.02,6.54.41,12.93.46,19.42-.06,1.42-.11,3.78-.1,5.34,0,5.36.33,10.54.42,15.88,0,.49-.04,1.13-.06,1.77-.07.32,0,.64,0,.95,0h.22s.03,0,.05,0c.03,0,.06,0,.09,0,.23.02.53-.14.65-.41.03-.07.05-.14.06-.22l.03-.74.05-1.57c.05-2.1.07-4.21.07-6.33-.03-4.23-.06-8.49-.09-12.71-.04-6.74-.04-13.41.12-20.06.04-1.81.1-3.47,0-5.28-.27-4.78-.23-9.56.05-14.29.18-2.97.18-6.05-.01-8.92-.31-4.81-.28-9.41.02-14.2.14-2.21.23-4.74.22-7.1-.03-6.07.24-12.13.05-18.13-.2-6.1.14-12.07.01-18.12-.07-3.56-.41-6.97-.22-10.63.19-3.64.07-7.09,0-10.68-.03-1.59.03-3.04.13-4.42.06-.69.11-1.36.17-2.03l.03-.34c0-.09,0-.17,0-.26-.02-.17-.07-.35-.16-.51-.36-.73-.98-1.19-1.23-1.62-.12-.22-.12-.44.11-.61.23-.17.73-.3,1.43-.06.09.02.53.19.94.51.42.31.75.78.84,1.01.09.16.25.43.36.82.13.38.16.96.18,1.34.04.88.1,2,.17,3.26.11,2.52.2,5.59.19,8.37-.01,3.05.03,6.12-.17,8.99-.17,2.38-.16,4.61.03,6.93.23,2.78.31,5.99.18,8.89-.42,9.57-.31,19.35-.38,29.08-.03,3.02-.07,6.05-.1,9.06-.02,1.17-.14,2.43-.1,3.47.46,11.99.21,24.31.41,36.42.06,3.63.05,6,.23,9.52.29,5.8.07,10.63,0,18.83-.17,2.14-.24,4.62-.38,6.85-.12,1.79-.13,3.49-.05,5.31.05,1.42-.77,2.86-2.07,3.57-.32.18-.67.31-1.03.4-.18.04-.37.08-.55.09-.19.02-.38.03-.49.03l-1.58.04c-2.1.04-4.23.07-6.35.11-4.25.05-8.52.07-12.74.17-10.06-.21-23.9-.11-25.15,0-3.01-.02-6.03-.09-9.01-.17-2.38-.08-4.7-.16-7.08-.24-3.11-.09-6.08,0-8.71.28-2.73.29-5.63.34-8.62.13-5.27-.37-10.5-.4-15.82-.03-5.29.38-10.56.34-15.98.02-4.72-.28-9.46-.27-14.13.11-3.43.28-7.06.21-10.64,0-1.68-.09-3.8-.27-5.14-.19-3.09.19-9.78.03-10.5.16-.71.13-2.44.09-3.43.07-2.96-.05-5.56-.08-8.47-.06-2.96.01-5.85.25-8.84.31-2.36.05-5.31.1-7.13-.07-4.28-.4-8.25.11-12.4-.04-3.51-.12-7.23-.14-10.86-.15-4.27-.01-8.45.05-12.32.41-2.09.19-4.71.14-7.15.09-2.74-.06-11.79-.1-13.16-.21-5.71-.48-12.21-.14-18.25-.05-3,.05-5.9.25-8.89.28-1.16,0-2.34-.03-3.52-.08l-1.78-.07h-.45c-.25-.03-.5-.04-.76-.09-.5-.08-.99-.24-1.44-.47-1.22-.59-2.33-1.76-2.73-3.2-.1-.35-.16-.72-.18-1.08-.01-.22,0-.25,0-.37v-.3c.02-.39.05-.76.13-1.1.4-1.69.44-3.19.3-5.92-.17-3.25-.51-6.21-.31-10.28.14-2.74-.08-5.63.09-8.77.07-1.24.12-2.56.16-3.91.01-.67.03-1.35.04-2.02,0-.9.01-1.8.02-2.69.45-.59.88-1.16,1.3-1.72.28-.39.56-.77.83-1.14,2.59-3.58,5.35-6.39,7.67-9.73,2.22-3.2,4.38-5.61,6.62-8.36.79-.98,1.58-1.97,2.36-2.95.74-.95,1.48-1.9,2.22-2.84.45-.92.89-1.83,1.34-2.75l.34-.72.08-.18.04-.11.15-.39-.33-.13-.15-.05-.07-.02s-.01,0-.04-.02l-.14-.07-.55-.27c-.12-.06-.12-.05-.14-.06l-.06-.02c-.08-.02-.15-.03-.21-.04-.04.06-.07.11-.09.16l-.05.11h0s-.06.08-.06.08l-.12.13-.25.27-1.01,1.06c-.65.67-1.31,1.34-1.97,2.01l-.96,1.24-1.07,1.35-2.2,2.67c-1.48,1.77-3,3.5-4.54,5.19l-1.51,1.69-2.55,3c-1.64,1.97-3.29,3.94-4.95,5.93,0-3.33-.01-6.74-.02-10.21-.02-1.91-.04-3.83-.06-5.74,0-1.67-.01-3.35-.02-5.02,0-3.34.08-6.65.27-9.89.12-1.9,0-3.52-.05-5.28-.23-9.07-.36-18.05.14-27.05.15-2.71.09-6.04.04-9.04-.05-3-.19-5.93-.29-8.89.41-6.3.08-13.39.5-19.67.08-1.28.09-2.22,0-3.43-.11-1.62-.26-3.43-.25-5.12v-3.18s0-.8,0-.8c0-.1,0-.32.01-.53.02-.2.05-.41.09-.61.17-.81.57-1.56,1.14-2.16.57-.59,1.3-1.04,2.11-1.25.39-.11.85-.15,1.2-.16h.8s3.19-.04,3.19-.04c4.25-.04,8.49-.02,12.69.21,3.53-.1,7.05-.23,10.61-.28,6.08-.08,12.28-.04,18.24-.2,3.64-.1,6.95-.1,10.6-.07,9.73.08,19.51.03,29.28.03,9.76,0,19.51,0,29.27,0,3.01,0,6.04.1,9,.19,2.45.08,4.96.14,7.19-.02,4.63-.31,9.46-.33,14.35-.35,14.03-.07,28.07-.14,42.09-.22,4.85-.03,9.41.25,14.42.16,4-.08,8.42-.11,12.41.18l34.77-.03c3.66,0,7.31.01,10.96.02,1.92,0,3.56.15,4.63.38,1.71.23,2.65-.21,3.67.97.38.14-1.37.94-2.06,1.02-4.7.61-8.47.26-14.2.55-3.94.2-9.02.1-13.26.17Z"/>
  </g>
  <path class="cls-3" d="M221.57,264.36c.67-.01,1.23-.41,1.89-.21.31.1.56-.36.91-.13.22.14.43,0,.66.12.3.14.5.03.76-.19.17-.11.26-.2.63-.34.29-.11.46-.08.72-.36.22-.23.76-.09,1-.32.47-.44,1.01-.36,1.36-1.09.34-.55.9-.67,1.25-1.01l.74-.54c.25-.18.47-.4.71-.59.11-.09.29-.12.45-.16.35-.08.49-.35.59-.67.02-.06.05-.13.09-.2.02-.03.05-.07.07-.11l.04-.06s.1-.11.12-.14c.05-.06.11-.12.17-.18l.04-.05h.01s.02,0,.03,0l.02-.02.1-.08c.12-.12.3-.23.43-.29.24-.13.43-.21.64-.31.39-.18.71-.33.77-.44.11-.18.73-.69,1.31-1.19.59-.49,1.13-.99,1.25-1.04.15-.06.32-.07.3-.26.29-.04.35-.48.65-.46.4-.28.59-.36.94-.81.31-.42,1.37-.37,1.42-.98.61-.92.81-1.58.76-1.75-.07-.31.28-.32.2-.63-.16-.42.6-.94.35-1.19-.17-.13-.16-.31-.21-.5,0-.08,0-.15-.02-.23-.05-.15-.04-.31,0-.47.02-.08.05-.16.09-.24.04-.06.09-.12.15-.17.19-.21.47-.37.62-.66.08-.06.19-.07.27-.13-.18-.04-.1-.15-.11-.22,0-.08.03-.13.12-.13.41,0,.74-.18.9-.51.36-.7.5-1.44.44-2.12,0-.22-.07-.43-.1-.65,0-.22-.06-.44,0-.71-.14-.33-.36-.55-.46-.74-.11-.19-.24-.32-.39-.4-.47-.09-.45-.64-.99-.59-.72.09-.52.07-1.11-.35-.01-.1-.08-.24-.18-.35-.1-.11-.22-.18-.27-.09-.03-.1-.09-.16-.14-.18-.06,0-.1.01-.1,0-.23-.39-.18.21-.86-.2-.35.08-.57.02-.69.39-.06.19-.21.24-.4.14-.18-.09-.31-.03-.45.11-.57.55-1.48.04-2.08.57-.41-.02-.76.32-1.16.38-.65.1-1.28.3-1.97.08-.18-.06-.48.14-.64.32-.27.3-.66-.03-.91.25-.29.33-.6.04-.91-.06-.25-.08-.48-.14-.68.11-.28.34-.7.39-1.06.56-.36.19-.86-.02-1.1.33-.31.49-1,.33-1.14.9.06.27-.14.04-.15.16-.5-.29-.85-.12-.8.12.05.27.4.35.24.61-.03.1.29.03.4.01.12-.01.23-.06.27-.04.04.02.02.14.06.26-.01.05.1.13.19.19.09.06.21.09.33.09.46,0,.78.14,1.26.11.32-.02.87.31,1.2.35.74.1,1.44-.45,2.07.17.34.05.69.23,1.05.02.48-.24.86-.26,1.61.27.1.07.21.15.31.23.07.06.14.11.2.15.1.09.19.17.28.24.09.08.14.12.24.25.12.17.23.38.3.6.03.11.06.22.08.33,0,.06.01.09.02.18,0,.11,0,.22-.02.33-.03.22-.1.44-.19.63-.09.17-.2.33-.34.48-.34.34-.46.37-.65.47-.08.04-.21.09-.25.1l-.14.04c-.22.06-.32.07-.42.09-.38.05-.54.05-.73.05-.34-.02-.6-.1-.84-.31-.45,0-.84-.1-1.23-.32-.37-.21-.84.19-1.21-.09-.3-.23-.61-.19-.94-.09-.33.1-.63.03-.94-.11-.21-.1-.46-.23-.67-.17-1.2.31-2.22.32-3.25.04-.39-.1-.7.09-1,.23-.17.28-.33.2-.61,0-.14-.11-.15.03-.1.23-.03.27-.15.29-.32.32-.16.02-.34.05-.33.17.07.28.21.23-.12.37-.14.05-.19.19-.06.2.29,0,.27.02.25.21-.06.09.16.3.37.39.22.1.48.13.79.06.49-.12.9.1,1.34.28.57.23,1.04.81,1.78.68.07-.01.17.04.23.1.37.34.77.59,1.22.75.23.08.47.14.75.18.15.03.28.04.48.08.1.02.18.03.32.08.13.04.24.06.49.23l.14.1.07.06s.1.1.15.16c.11.12.2.25.29.4.04.07.08.15.12.22l.03.08c.03.07.05.13.07.2.04.14.07.29.08.44.01.15.01.3,0,.44,0,.14-.07.42-.16.63-.15.44-.62.91-.74.97-.19.15-.42.27-.65.35-.18.06-.2.06-.32.09-.09.02-.18.03-.28.04h-.14c-.08.01-.2.01-.24.01-.43-.03-.57-.1-.72-.17-.84-.51-1.44-.79-2.29-.55-.15.04-.36,0-.48-.09-.97-.79-2.17-.81-3.26-.93-.87-.1-1.71-.17-2.5-.32-.21-.04-.41-.09-.61.03-.51.32-.91.37-1.34.25-.27-.07-.46.07-.39.29.05.19.11.21.05.37-.04.14-.16.18-.29.26-.15.08-.21.23-.14.37.16.33.4,1.04,1.08,1.33.66.28,1.14.95,1.89,1.2.45.15.99.02,1.35.39.36.37.84.42,1.31.52.42.08.64.5.91.81.28.34.03,1.71-.41,1.98-.03.02-.28.16-.32.1-.19.06-1.26.12-2.02-.21-.42-.18-.86-.32-1.16-.68-.25-.3-.55-.44-.95-.42-.48.02-.95-.16-1.27-.51-.52-.57-1.09-1.07-1.64-1.65-.54-.58-1.11-1.25-1.36-2.19-.15-.57-.15-1.21.02-1.77.07-.21.25-.39.28-.57.06-.53.35-1.12.77-1.55.42-.44.93-.74,1.43-.93,1.02-.39,2-.45,2.94-.55.56-.06.92-.03,1.47-.16.91-.21,1.61.11,2.78.4.28.23.62.37.9.58.23.17.46.24.73.21.62-.06,1.23,0,1.83.11l.87.15c.27.04.6.08.71.05h0s-.03.32-.03.32l-.02.59c0,.17.02.33.03.42l.04.13s.04.05.03.05c.02,0-.02,0-.04,0h-.01c-.06.03-.03.02-.05.03l-.05.02c-.07.03-.1.08-.15.14-.21.18-.3.34-.48.63l-.16.23s0,0,0,.01h0s-.06-.05-.06-.05c-.04-.03-.12-.07-.18-.1-.29-.14-.64-.26-.96-.36-.64-.2-1.17-.32-1.28-.3-.4-.15-.79-.37-1.17-.59-.31-.18-.58-.41-.89-.6-.4-.25-.83-.35-1.32-.27-.51.08-.97-.11-1.29-.57-.71-.93-1.49-1.67-1.98-2.81-.47-1.13.27-2.72,1.16-3.25.82-.56,1.5-1.01,2.15-1.71.48-.51,1.18-.62,1.8-.53.3.04.66.18.86.08.48-.25,1.54-.11,1.65-.23.11-.12.38-.08.53-.05.46.07.84.13,1.28.16.44.03.9-.15,1.36-.14.36,0,.8.03,1.03.24.55.5,1.21.11,1.76.38.46.22.98.35,1.44.44.14.03.26.05.38.05.06,0,.1,0,.14,0,.02,0,.02,0,.04-.01h0s-.01.21-.01.21c0,.16,0,.32,0,.48-.01.51.08.93.16.97-.05,0-.12,0-.29.21-.02.07-.19.27-.25.41-.08.16-.12.31-.25.57-.29.67-.14.44-.22.54-.15.16-.43.04-.73-.06-.32-.12-1.56-.33-1.74-.47-.74-.59-1.71-.39-2.63-.47-.45-.04-.93.07-1.4-.02-.37-.08-.63-.33-1.3-.59-.36-.15-1.06-.06-1.16-.48-.11-.51-.33-.68-.91-1.02-.65-.39-1.35-.99-1.24-2.02.06-.65,0-1.37.49-2.03.52-.7,1.33-1.31,1.97-1.94.11-.1.23-.18.36-.26.09-.06.16-.1.25-.14.17-.07.34-.11.5-.16.34-.1.65-.16.9-.39.48-.42,1.04-.39,1.57-.49,1-.18,1.92-.48,2.72-1.15.79-.67,1.77-.94,2.77-.81.73.09,1.4-.02,2.1-.21.94-.25,1.9-.54,2.9-.27.29.08.51-.07.77-.15.33-.1.66-.18,1.01-.24l.26-.04.4-.03c.27-.02.56,0,.84.02.14.03.29,0,.41.08l.37.21c.21.15.51.36.63.48.27.24.52.49.73.81.25.4.69.68,1.09.96.37.33.82.59,1.24.93.15.62.5,1.06.7,1.67.26.56.37,1.21.27,1.8-.07.25-.07.41.02.63.14.3.25.65.18.96-.27,1.55-.73,3.14-2.14,3.96l-.12.13c-.04.11-.06.2-.08.27-.04.04.04.15.04.2v.04c.02.15.02.28.01.43l-.14.73-.14.73c-.07.23-.13.47-.18.71-.11.64-.4,1.13-.72,1.65-.9,1.36-1.89,2.57-2.99,3.61-1.11,1.04-2.28,1.95-3.51,2.73-.38.24-.81.4-1.22.55-.17.06-.33.12-.48.21-.16.09-.25.18-.22.25.01.07.03.12.04.17,0,0,0,.02.02,0,.02-.02.04-.04.02,0l-.05.1-.12.2c-.08.13-.17.26-.26.38-.19.25-.38.5-.61.71-1.56,1.65-3.47,2.96-5.5,3.92-.35.16-.73.24-1.1.33-.38.06-.75.13-1.11.3-.58.26-1.25.45-1.92.3-1.75.37-3.52.54-5.28.55-.56,0-1.11-.02-1.67-.06-.29-.03-.53-.18-.67-.43-.23-.26-.43.17-.45-1.02-.04-.14.3-.91.4-.99.7-.54,1.18-.17,1.98-.44.54-.19,1.22-.11,1.79-.2Z"/>
  <path class="cls-3" d="M224.54,239.37c1.14-.24,2.13-.82,3.38-.6.14.03.29.02.44,0,.17-.01.34-.02.52-.03.3-.02.51-.02.74.15.29.2.65.13.97.28.42.21.77.15,1.25-.04.29-.08.47-.18,1.08-.28.47-.1.74-.07,1.19-.37.38-.27,1.17-.16,1.54-.49.37-.31.71-.49,1.02-.72.31-.22.58-.54.68-1.02.21-.67.58-1.3.53-1.72,0-.51-.24-1.05-.89-1.66-.14-.14-.26-.35-.38-.54-.14-.21-.31-.37-.52-.49-.1-.06-.21-.11-.34-.16-.12-.04-.27-.1-.31-.08-.02,0-.04,0-.07,0-.06,0-.11-.03-.18-.04-.07,0-.15.01-.23.02-.06,0-.59.1-1,.18-.23.04-.45.09-.66.13-.13.02-.19.04-.45.07-.11,0-.21.02-.31.03-.32.03-.57.06-.67.11-.28.15-1.55.36-2.72.74-.3.08-.59.17-.87.24-.27.1-.52.2-.74.28-.44.16-.77.27-.86.29-.25.03-.48.04-.59.25-.42.02-.8.51-1.2.45-.72.31-1.02.39-1.77.95-.34.29-.84.38-1.31.55-.45.18-.89.39-1.1.79-1.27,1.32-1.79,2.36-1.85,2.62-.11.47-.46.51-.53,1-.03.16-.1.34-.2.52-.1.21-.22.31-.36.59-.29.55-.51.96-.45,1.18.1.36-.02.77-.05,1.22-.04.07-.14.07-.19.11-.29.19-.81.22-1.38.17-.28-.03-.58-.08-.87-.14-.14-.04-.29-.07-.43-.11-.14-.04-.19-.07-.29-.11-.36-.16-.81.23-1.11.02-.54-.38-1.16-.59-1.89-.64-1.54-.21-3.08-.45-4.62-.7-.98-.14-1.96-.41-2.78-.91-1.45-.32-2.14-.55-2.75-.64-.78.02-1.36-.55-2.11-.41-1.04.18-.82.17-2.11-.29-.19-.23-.82-.7-1.12-.59-.61-.41-1.25-.58-1.3-.62-.88-.81-.93-.14-1.8-1.06-.59-.24-.86-.48-1.27-.28-.22.1-.46,0-.69-.24-.21-.23-.44-.29-.74-.31-1.25-.07-2.12-1.4-3.34-1.61-.56-.42-1.3-.56-1.87-.98-.93-.67-1.95-1.21-2.58-2.18-.17-.25-.7-.49-1.06-.59-.6-.18-.77-.8-1.31-.99-.65-.23-.72-.76-.95-1.19-.19-.35-.38-.66-.84-.83-.64-.25-1.12-.82-1.67-1.26-.58-.45-.78-1.23-1.41-1.52-.88-.42-1.23-1.46-2.12-1.84-.29-.13-.44-.32-.58-.53-.09-.13-.08-.15-.11-.21-.02-.05-.06-.09-.11-.12.04-.15.08-.27.09-.38,0-.14-.1-.22-.23-.27l-.05-.02-.11-.02-.23-.03c-.16-.02-.32-.03-.49-.03-.94-.01-1.85.12-2.81-.26-.3-.12-.79.03-1.19.04-.4,0-.82.03-1.22-.03-.83-.13-1.46-.71-2.33-.72-.81-.01-1.39-.17-2.2-.18-.54,0-1.5-.38-2.05-.46-1.23-.18-2.33.3-3.36-.38-.54-.08-1.1-.29-1.61-.1-.65.24-1.28.18-1.93-.15-.03-.01-.06-.03-.09-.05l-.02-.03s-.03-.03-.04-.02c-.2.18-.02.38-.44,0-.05.07-.1.06-.49-.14l-.05-.02s.17.19.32.3c.15.12.25.18.12.16-.2-.02,0,.17.2.21.11.03.15.03.16.05,0,0,0,.02,0,.04h0s.04.11.04.11l.07.2c.13.38.27.83.5,1.1,1.37,1.58,2.38,3.32,3.01,5.34.23.75.69,1.34,1.12,2.05.5.48.58.93.46,1.38-.06.23.13.35.41.45.89.77.73,1.9,1.12,2.32.56.59,1.03,1.24,1.19,2.11.08.26-.04.16.07.35.11.17.24.32.37.4.59.35.94.79,1.27,1.41.48.8,1.09,1.51,2.01,1.85.74.28,1.27.91,1.88,1.46.77.71,1.24,1.74,2.31,2.15.1.04.22.17.29.27.42.62.89,1.19,1.45,1.64.57.44,1.21.79,1.94,1.03.32.1.72.43.94.72.77.96,1.67,1.7,2.88,2.03.22.06.51.26.67.42.63.71,1.39,1.27,2.18,1.78.4.25.81.49,1.22.72.42.21.85.43,1.27.64,1.34.68,2.61,1.46,3.89,2.2.34.21.66.42,1.07.51,1.09.2,2,.75,2.87,1.38.54.41,1.19.67,1.85.73,1.12.1,2.03.56,2.95,1.17.42.28.93.55,1.44.7,1.3.37,2.5,1.13,3.85,1.27,1.37.15,2.59.8,3.93,1.01.39.06.79.06,1.19.08.4,0,.8.03,1.18.2.76.33,1.55.35,2.35.42.71.06,1.23.49,1.78.81.6.35.6,1.76.02,2.04-.04.02-.37.17-.45.11-.27.07-1.87.18-3.14-.07-.69-.14-1.41-.22-2.02-.53-.51-.24-1-.4-1.57-.33-.68.07-1.42-.04-2.04-.33-1.02-.49-2.1-.79-3.15-1.17l-3.19-1.11c-.66-.24-1.31-.48-1.95-.77-.25-.12-.47-.34-.71-.39-1.36-.3-2.69-.78-4.01-1.29-1.29-.57-2.55-1.21-3.86-1.72-.79-.3-1.27-.56-2.07-.81-1.31-.41-2.22-1.11-3.81-2.15-.33-.41-.79-.77-1.14-1.17-.29-.32-.61-.54-1.01-.69-.93-.32-1.77-.83-2.61-1.36-.83-.53-1.67-1.06-2.5-1.59-.85-.81-1.95-1.66-2.83-2.38-.87-.72-1.57-1.25-1.72-1.3-.53-.46-.99-1-1.45-1.53-.36-.42-.68-.87-1.04-1.3-.46-.56-.99-1-1.63-1.23-.66-.24-1.16-.71-1.48-1.37-.29-.57-.62-1.1-1.01-1.58-.2-.23-.42-.46-.65-.67-.12-.11-.24-.21-.36-.31l-.2-.17c-.08-.09-.19-.16-.27-.26-.19-.24-.25-.27-.37-.41-.1-.12-.2-.23-.29-.35-.19-.24-.35-.5-.5-.76-.29-.53-.51-1.11-.67-1.73-.28-1.08-.81-2.02-1.66-2.76-.62-.55-.96-1.31-1.18-2.12-.1-.38-.18-.89-.4-1.12-.51-.53-1.11-1.94-1.3-2.02-.19-.08-.34-.45-.44-.65-.29-.61-.55-1.15-.88-1.72-.17-.29-.39-.55-.61-.81-.24-.3-.38-.39-.77-1.04-.52-.83-1.2-1.97-1.35-2.59-.17-.71-.57-1.39-1.07-2.16-.49-.75-1.06-1.6-1.33-2.25l-.02-.04c1.61.37,3.03.59,4.43.82.83.13,1.64.24,2.44.3.75.05,1.79.1,2.1-.03.5-.12,1.08.02,1.63.16.61.15,2.65.5,2.94.66,1.22.67,2.73.56,4.11.67.68.06,1.37-.05,2.05.03.53.06,1.04.33,1.57.43.36.07.84-.23,1.1.12.32.44.66.52,1.3.46.76-.08,1.48-.34,2.38-.03.6.21,1.29.07,1.98.32.04.02.25.07.38.1.15.04.3.07.45.11.3.06.61.13.93.19.28.4.52.7.78,1.02.12.14.28.33.37.43l.25.23c.71.63.96,1.58,1.71,2.09.75.46,1.06,1.15,1.58,1.74.49.56,1,1.09,1.58,1.54.59.44,1.22.82,1.9,1.1.68.28,1.34.6,1.93,1.02.59.42,1.13.92,1.64,1.45.75.77,1.57,1.42,2.56,1.9,1.32.67,2.65,1.34,3.77,2.31.32.29.7.34,1.07.48.94.37,1.9.66,2.82,1.05.93.37,1.78.91,2.65,1.43.52.33,1.24.52,1.89.69.65.16,1.3.27,1.96.34,1.24.74,2.85.83,4.11,1.58.26.13.47.18.75.14.38-.05.8-.12,1.17-.04.92.2,1.87.28,2.81.41.94.07,1.88.17,2.79.49l.59-.02c.1-.02.15-.04.22-.06.13-.04.22-.07.31-.09.01,0,.03,0,.02-.03,0-.1.02-.19.04-.27.04-.13-.01-.04.19-.51.28-.7.6-1.37.92-2.04.4-.86.91-1.55,1.54-2.25,1.69-1.85,3.7-3.42,5.91-4.52.56-.25,1.11-.56,1.68-.75l1.73-.6c.58-.17,1.17-.29,1.76-.43.29-.07.59-.14.88-.2l.89-.12c.37-.05.74-.07,1.1-.09h.55s.07-.02.07-.02h.03s0,0,0,0h0c-.03-.31.25,2.71.13,1.43h0s0-.04,0-.04v-.07s-.03-.27-.03-.27c-.04-.34-.11-.75-.19-1.03,0,0,.02,0,.02,0,.03,0,.12,0,.18,0,.25-.03.54-.07.82-.14.14-.03.28-.07.42-.12l.52-.2c.37-.14.77-.26,1.17-.28.41-.02.8.1,1.18.27.62.33.81.41,1.15.61.31.18.64.39.97.63.8.58,1.65,1.32,2.28,2.47.65,1.15.78,2.71.45,3.91-.09.29-.17.59-.28.87l-.38.79c-.28.51-.66,1.02-1.03,1.42-.76.83-1.65,1.45-2.55,1.93-1.27.65-2.55.72-3.83,1.03-1.03.25-2.22.35-3.24.02-.38-.01-.75-.04-1.13-.07l-.57-.06c-.13,0-.15,0-.23-.01-.42,0-1.02.09-1.58.19-1.17.22-2.38.55-3.52.95-.72.25-1.43.53-2.03.83-.32.16-.58.16-.85.06-.14-.03-.14.04-.24.03-.02-.05-.14-.23-.7-.45-.08-.02-.27-.13-.41-.33-.14-.2-.2-.49-.16-.57.25-.66.71-.97,1.18-1.25.48-.26,1-.48,1.58-.85.81-.52,1.99-.79,2.94-1.09Z"/>
  <path class="cls-4" d="M102.24,293.95c-27.13,2.79-47.77-2.03-61.89-14.47-14.17-12.41-22.34-29.41-24.55-50.96-2.21-21.55,2.33-39.83,13.68-54.89,11.32-15.06,30.29-23.94,56.87-26.67,26.58-2.73,47.61,2.04,61.5,14.51,13.88,12.44,21.94,29.45,24.16,51,2.21,21.55-2.23,39.82-13.29,54.84-11.06,15-29.89,23.9-56.45,26.62"/>
  <path class="cls-3" d="M84.56,140.37c2.68-12.43,10.67-28.48,32.58-28.98-.69,8.76-5.35,29.3-29.48,35.89.4,1.2.7,2.31.92,3.28l.13.62.02.14c.21,1.41-.73,2.76-2.14,3.04-1.42.28-2.8-.6-3.15-1.98l-.03-.14-.11-.54c-1.27-5.68-5.67-15.95-16.44-19.74l-.54-.18-.13-.05c-1.33-.51-2.05-1.98-1.6-3.36.45-1.37,1.89-2.14,3.27-1.77l.13.04.66.22c7.81,2.75,12.8,8.17,15.89,13.5Z"/>
  <ellipse class="cls-3" cx="89.6" cy="205.62" rx="3.92" ry="5.23" transform="translate(-18.22 8.94) rotate(-5.19)"/>
  <ellipse class="cls-3" cx="120.06" cy="202.92" rx="3.92" ry="5.23" transform="translate(-17.85 11.68) rotate(-5.19)"/>
  <path class="cls-3" d="M116.17,230.69c-.68.73-4.54,2.41-5.57,2.63-2.81.58-8.59.23-11.44-.16-1.38-.19-4.45-1.41-5.27-2.54-2.16-3.01,1.21-3.1,3.6-2.87,1.93.19,2.83,1.13,4.43,1.48.91.2,5.64.15,6.71.03,2.32-.26,4.79-2.57,6.38-2.53,2.61.07,2.66,2.35,1.16,3.96h0Z"/>
  <path class="cls-3" d="M60.8,290.16c-.04.91.29,1.76-.01,2.63-.14.4.26.85-.03,1.27-.18.26-.09.58-.24.85-.21.36-.16.65,0,1.08.05.26.14.42.15.96.01.43-.07.65.11,1.11.16.4-.2,1.04-.08,1.47.24.87-.12,1.48.38,2.42.27.83.11,1.64.15,2.34-.01.91-.04,1.81-.09,2.72-.01.21-.11.43-.2.63-.19.44-.15.85,0,1.3.26.84-.24,3.3-.1,3.68.19.52.29,4.39.22,4.72-.05.21-.16.4,0,.57-.17.34.11.85-.11,1.13-.11.7-.17.95-.14,1.78.03.79-.84,1.62-.56,2.36-.02,1.57.02,2.56.11,2.78.17.4-.15.58.02.99.23.55-.36,1.64-.13,1.78.25.15.15.49.35.71.42.46.33,1.06.08,1.64-.13.3.3.63.12.88-.33.45-.48.97-.47,1.55l.07,3.74c0,.79.05,1.6-.26,2.33.05,1.19-.03,1.77.07,2.26.27.59-.1,1.17.27,1.71.5.74.41.58.38,1.66-.16.2-.34.81-.14.99-.15.57-.06,1.09-.08,1.14-.41.89.2.72-.28,1.65.04.51-.05.78.31,1.01.18.12.21.33.08.57-.12.23-.07.41.04.63.45.9-.21,2,.19,2.93-.1.55.15,1.11.13,1.66-.04.9,0,1.8-.39,2.65-.1.22.02.68.14.95.1.2.06.4.02.58l-1.95-1.97c.24.06.47.14.72.03.51-.23.82.13,1.18.32.29.15.57.28.94.11.52-.24,1.1-.14,1.65-.18.58-.04,1.12.34,1.64.11.72-.32,1.51.14,2.19-.27.45-.27.76.05,1.22-.05.46.54,1.08.63,1.79.51.76-.13,1.47-.4,2.29-.16.26.07.63-.15.96-.22.32-.07.66-.15.98-.15.68,0,1.26.48,1.96.36.65-.11,1.14-.04,1.79-.15.44-.08,1.25.16,1.71.15,1.01,0,1.84-.65,2.75-.12.44,0,.92.12,1.31-.14.23-.15.46-.24.7-.27l-2.08,1.97c-.02-.28.04-.57.19-.86.05-.1.12-.23.1-.31-.17-.66-.31-1.3.05-1.95-.05-.56,0-1.09.16-1.64.16-.53-.3-1.08-.05-1.64.19-.45.13-.86,0-1.3-.13-.44-.08-.88.04-1.32.09-.31.2-.68.15-.97-.34-1.69-.29-3.32.24-4.98.2-.62.11-1.22.12-1.89-.17-.55,0-.89.33-1.15.17-.13.07-.3-.12-.49-.35-.92.38-1.62.26-2.08-.16-.65-.23-1.31.09-1.97.13-.27.23-.71.14-.96-.21-.57-.14-1.04.04-1.61.25-.75.3-1.53-.05-2.29-.28-.61-.2-1.31-.16-1.99.06-.88.5-1.72.2-2.64-.03-.09,0-.24.04-.33.48-1.19.6-2.37.14-3.6-.1-.27-.06-.71.05-.99.38-.98.53-1.93.17-2.94-.07-.19-.07-.48,0-.66.62-1.5.48-3.11.52-4.67.04-1.25.1-2.49.33-3.71.06-.33.14-.64.05-.98-.22-.9-.13-1.79.2-2.65.21-.54.24-1.11.08-1.65-.26-.91-.18-1.76.17-2.63.16-.4.28-.87.29-1.3.03-1.13.37-2.24.24-3.36-.13-1.14.26-2.23.2-3.36-.04-.66-.34-1.32-.11-1.98.23-.67.15-1.31.11-1.98-.03-.59.32-1.06.57-1.54.27-.52,1.67-.6,2.02-.15.02.03.22.29.17.35.1.22.42,1.49.34,2.52-.04.57-.03,1.14-.26,1.66-.19.43-.21.85-.04,1.29.21.53.24,1.13.09,1.66-.52,1.75-.52,3.57-.68,5.37-.05.56-.12,1.12-.2,1.67-.03.22-.17.44-.14.64.34,2.25-.05,4.52.03,6.78.02.68-.01,1.11.13,1.78.23,1.09-.04,1.97-.19,3.49-.19.39-.28.84-.46,1.25-.14.32-.17.64-.1.98.32,1.55.13,3.16.23,4.73-.32,1.85-.36,4.43-.26,4.66-.05.56-.16,1.11-.27,1.66-.09.44-.23.86-.32,1.3-.12.57-.07,1.13.19,1.63.26.52.28,1.06.04,1.61-.43.96-.51,1.92-.19,2.93.32,1,.23,1.98-.15,2.96-.32.86-.36,1.74-.03,2.63.24.65.13,1.32-.11,1.97-.11.31-.31.69-.25.94.16.58-.07,1.81.05,1.96.12.14.06.46.03.64-.08.55-.14,1.03-.15,1.57-.02.55.19,1.1.22,1.66.02.44.04.99-.15,1.32-.44.77.03,1.54-.17,2.3-.16.64-.22,1.33-.26,2-.06.79-.04,1.57.28,2.31.08.18.1.38.1.59l-.03,2.04-2.22.09c-.24.01-.5-.02-.74-.05-.51-.06-2.19-.1-2.44-.21-1.06-.48-2.27-.14-3.39-.05-.56.05-1.1.25-1.65.28-.43.02-.87-.17-1.32-.19-.3-.01-.65.35-.9.05-.31-.39-.59-.42-1.1-.26-.6.19-1.15.56-1.91.38-.51-.12-1.05.13-1.63-.03-.63-.16-1.37-.2-2.01-.1-.82.13-1.55-.35-2.3-.16-.72.18-1.32-.06-1.98-.16-1.24-.18-2.47-.18-3.67.25-.24.09-.49.16-.74.21l-1.69.36-.53-2.61c-.19-.96-.14-1.95.14-2.91.26-.88.3-1.75.26-2.67-.05-1.24-.17-2.5.25-3.7.12-.35,0-.65-.04-.98-.21-1.69-.31-3.36.21-5.02.16-.5.1-1.12.06-1.68-.04-.56-.18-1.1-.27-1.65.42-1.17.12-2.49.54-3.65.09-.24.1-.41.01-.64-.11-.3-.25-.64-.23-.95.08-1.57-.31-3.17.17-4.72-.09-.66-.21-1.31-.25-1.97-.07-1.13,0-2.28-.16-3.39-.09-.68-.09-1.29-.05-1.97.11-1.81.08-3.62.1-5.44l.08-5.44c.01-.56.11-1.12.21-1.67.08-.45.15-.92,0-1.34-.3-.86-.3-1.76-.31-2.67l-.12-7.82c-.02-.9.28-1.75.19-2.68-.07-.74-.09-1.56.21-2.3l.06-6.46.04-2.04c.01-.36.16-.66.4-.85.24-.31-.2-.5.98-.67.14-.07.93.27,1.02.4.6.88.24,1.58.52,2.64.19.73.08,1.68.13,2.46Z"/>
  <g>
    <path class="cls-3" d="M57.64,379.62l1.24-19.67h25.78s-.78,6.11,9.36,6.84c7.54,1.6,9.89,8.52,9.06,11.14s-24.05,2.17-24.05,2.17l-21.79-1.51"/>
    <path class="cls-3" d="M56.83,375.72c.07-.64-.24-1.24.1-1.83.15-.27-.23-.61.07-.89.19-.17.1-.4.27-.58.22-.24.18-.44.04-.75-.05-.18-.12-.3-.12-.68,0-.3.09-.45-.07-.78-.14-.29.24-.72.13-1.02-.22-.62.17-1.03-.3-1.71-.25-.59-.06-1.15-.07-1.64.04-.63.1-1.27.18-1.9.02-.15.13-.29.22-.43.2-.29.17-.59.05-.91-.23-.6.34-2.29.22-2.56,0-.02-.02-.04-.02-.16v-.72s1.36-.55,1.36-.55c.45-.18,2.92-.32,3.13-.26.15.04.28.15.4,0,.24.16.59-.12.79.1.49.1.67.16,1.25.12.55-.04,1.14.82,1.66.53,1.1,0,1.79-.05,1.94-.15.28-.17.41.14.69-.03.39-.24,1.15.34,1.24.11.1-.25.34-.16.49-.36.32-.43.74-.34,1.14-.1.21.13.44-.31.62-.13.32.32.68.47,1.09.45l2.61-.12c.55-.02,1.12-.06,1.63.23.83-.06,1.24,0,1.58-.09.41-.27.82.08,1.19-.29.51-.51.4-.42,1.16-.4.14.15.57.33.7.12.4.14.76.05.8.07.63.4.5-.21,1.16.26.22-.03.38,0,.5-.07l1.36,1.54s.11.05.25.08c.18.04.21.12.09.24-.1.11-.05.2.08.28.26.16.27.37.3.61.03.23.09.48.38.55.05.27.42.32.57.51.27.33.62.55.81,1.11.06.15.34.17.53.13.31-.07.36.38.67.3.35-.1.38.31.54.54.12.19.26.37.52.27.36-.13.7.03,1.05.06.36.02.64.49,1.01.29.46-.24.89.17,1.33-.04l.24.03s.09-.02.14-.04c.4-.17.58.2.95.2.21.59.61.85,1.17.94.6.07,1.23.12,1.69.61.15.14.5.13.76.21.25.08.53.16.75.31.44.36.51.99.99,1.29.44.29.69.59,1.1.92.3.22.53.87.72,1.17.24.32.57.54.83.82.27.26.47.57.37,1.02.16.33.19.72.54.93.46.26.62.7.51,1.22-.02.09-.05.22-.01.28.15.25.29.52.36.8.06.29.04.61-.11.92.07.53.03,1.08-.27,1.67-.03.05-.18.46-.36.77-.21.37-.32.48-.48.68-.08.09-.16.18-.25.26-.08.08-.13.11-.21.16-.14.09-.3.17-.48.2-.49.02-.81.23-1.11.47-.32.27-.66.3-1.04.29-.26-.02-.55-.06-.76.05-1.17.64-2.38.82-3.63.49-.47-.12-.88.03-1.36.1-.37.23-.63.1-.85-.21-.11-.16-.22-.04-.34.17-.62.44-1.18-.22-1.5-.06-.44.22-.9.34-1.39.08-.2-.11-.52-.17-.68-.06-.39.25-.73.22-1.13.08-.55-.19-1.1-.18-1.61.22-.42.33-.91.29-1.39.29-.62,0-1.24-.39-1.87-.03-.06.04-.17.02-.24-.02-.86-.41-1.69-.46-2.54.06-.19.11-.5.1-.7,0-.73-.33-1.32-.43-2.15-.03-.13.07-.34.07-.46,0-1.05-.61-2.17-.45-3.27-.48-.88-.02-1.75-.08-2.6-.3-.23-.06-.45-.13-.69-.04-.64.23-1.25.15-1.85-.18-.38-.2-.78-.23-1.16-.07-.64.27-1.24.19-1.84-.14-.28-.16-.6-.27-.91-.28-.79-.02-1.56-.35-2.35-.21-.8.14-1.56-.24-2.35-.17-.47.04-.93.35-1.4.12-.46-.22-.92-.13-1.39-.1-.42.03-.74-.31-1.06-.56-.36-.27-.37-1.66-.04-2.02.02-.02.21-.22.25-.17.16-.1,1.05-.43,1.77-.36.39.04.79.02,1.15.25.3.19.59.2.9.03.38-.21.79-.25,1.16-.1,1.21.5,2.49.49,3.74.64.39.05.78.11,1.17.18.15.03.31.16.44.13,1.58-.35,3.16.01,4.74-.08.47-.03.78,0,1.24-.14.77-.24,1.38.03,2.44.17.27.19.59.28.87.45.23.13.45.17.68.09.27-.08.55-.13.82-.17l.21-.02s.05,0,.07-.01h.1s.41-.05.41-.05c.55-.04,1.1-.06,1.65-.15,1.3.22,3.09.11,3.25,0,.39.01.78.09,1.17.16.31.06.61.17.92.23.4.08.79,0,1.12-.3.35-.3.72-.36,1.11-.16.69.35,1.37.36,2.04-.04.67-.4,1.34-.39,2.05-.11.62.24,1.23.2,1.8-.22.42-.31.88-.27,1.35-.11.22.07.5.23.67.13.37-.22,1.22-.16,1.3-.3.07-.14.29-.12.41-.12.37,0,.69-.02,1.04-.09.35-.08.65-.37.95-.51.26-.1.51-.24.75-.13.23.12.44.02.45-.07.07-.06-.03-.07-.08-.04-.01,0-.02.02-.03.03-.04.04-.09.08-.12.14-.07.08-.12.29-.1.31.15-.13.23-.43.21-.78,0-.2-.03-.4-.13-.6-.08-.19-.23-.37-.46-.52-.23-.15-.25-.41-.3-.66-.01-.29-.39-1.15-.38-1.33.13-.79-.6-1.21-1.09-1.62-.23-.23-.63-.27-.86-.48-.18-.17-.27-.44-.45-.63-.13-.12-.49.04-.44-.27.07-.41-.06-.54-.4-.56-.39-.05-.86.18-1.16-.19-.21-.25-.61-.1-.86-.37-.27-.31-.71-.42-1.1-.44-.11,0-.21-.03-.31-.08l.28.04c-.46-.11-.86-.42-1.32-.32-.57.14-1-.21-1.47-.4-.45-.18-.9-.32-1.37-.44-.47-.11-.96-.13-1.5-.15-.54,0-1.07-.1-1.55-.38-.49-.24-.91-.65-1.23-1.13-.46-.7-.96-1.29-1.49-1.98-.7-.91-1.24-2.12-.95-3.3.09-.36-.05-.57-.05-1.05h0c-.37-.43,3.26,3.7,1.72,1.95h0s0,0,0,0h-.01s-.03,0-.03,0h-.06s-.11.03-.11.03l-.22.04-.44.06c-.29.04-.59.06-.88.06-.59,0-1.17-.1-1.75-.34-.35-.15-.79-.09-1.17-.04-.39.04-.77.19-1.16.29-.82-.41-1.74-.09-2.56-.5-.17-.08-.29-.09-.45,0-.21.11-.45.26-.67.25-1.1-.06-2.21.35-3.3-.11-.46.1-.92.23-1.38.28-.79.08-1.6.04-2.37.2-.47.1-.9.1-1.38.07-1.26-.08-2.54-.03-3.8-.03-1.27,0-2.54.02-3.8,0h-.24s1.97-1.86,1.97-1.86c-.05.31-.14.62-.24.92-.1.31-.18.64-.04.93.28.62.25,1.25.23,1.88-.06,1.82-.11,3.65-.13,5.47,0,.63-.33,1.2-.27,1.86.05.52.04,1.1-.28,1.6l-.26,4.51c-.03.47-.06.95-.1,1.42-.02.25-.18.45-.42.58-.25.21.19.36-1,.41-.14.04-.92-.24-1-.33-.57-.65-.19-1.11-.43-1.88-.17-.52-.03-1.18-.06-1.73Z"/>
  </g>
  <path class="cls-3" d="M110.59,291.96c-.01.95.35,1.82.07,2.73-.13.42.29.88,0,1.32-.17.28-.07.6-.22.9-.19.39-.14.68.03,1.12.06.27.15.43.18,1,.02.44-.05.67.14,1.15.17.42-.17,1.09-.04,1.53.27.89-.07,1.55.45,2.51.3.85.16,1.7.22,2.43.02.94.01,1.89,0,2.83,0,.22-.1.45-.18.66-.17.46-.12.89.03,1.35.28.87-.13,3.44.02,3.83.21.53.43,4.56.37,4.9-.04.23-.15.43.01.59-.15.36.14.88-.08,1.18-.09.73-.14,1-.09,1.86.05.82-.79,1.71-.48,2.47.03,1.64.1,2.66.2,2.89.18.42-.13.61.05,1.03.25.57-.31,1.71-.08,1.85.25.15.17.51.37.73.44.46.37,1.1.13,1.7-.12.31.32.65.15.91-.31.48-.45,1.02-.42,1.63l.19,3.89c.03.82.1,1.66-.19,2.43.08,1.24.02,1.84.14,2.35.28.61-.06,1.22.32,1.77.52.75.43.59.44,1.72-.15.21-.31.85-.1,1.04-.13.6-.03,1.14-.05,1.19-.38.94.22.74-.22,1.72.05.53-.03.81.34,1.05.19.12.22.33.1.59-.11.24-.06.43.06.66.48.92-.15,2.09.28,3.04-.06.47.1.93.16,1.4l-2.11-2.07c.11-.01.22-.02.32-.01.94.03,1.87-.02,2.76.36.23.1.71-.02.99-.16.48-.22.9.2,1.35,0,.53-.23.85.13,1.23.32.3.15.59.28.97.11.54-.24,1.14-.14,1.72-.18.6-.04,1.17.34,1.7.11.75-.32,1.57.14,2.28-.27.46-.27.79.05,1.27-.05.48.54,1.13.63,1.87.51.79-.13,1.53-.4,2.39-.16.27.07.66-.15,1-.22.34-.07.68-.15,1.02-.15.71,0,1.31.48,2.04.36.68-.11,1.18-.04,1.86-.15.26-.04.64.01,1,.07l-1.63,1.59c.05-.3.1-.57.1-.78.02-1.05-.6-1.93-.05-2.86.01-.46.15-.95-.11-1.37-.32-.52-.34-1.06-.1-1.64.04-.1.11-.24.09-.33-.19-.68-.35-1.34-.01-2.03-.06-.58-.04-1.13.11-1.71.15-.55-.33-1.11-.1-1.7.18-.47.1-.9-.04-1.35-.15-.45-.11-.91,0-1.38.08-.33.18-.72.12-1.02-.39-1.74-.39-3.45.09-5.19.18-.65.08-1.27.07-1.97-.19-.57-.03-.92.3-1.21.17-.14.06-.31-.13-.51-.38-.95.33-1.7.2-2.18-.18-.67-.26-1.35.03-2.05.12-.29.21-.74.11-1-.22-.59-.17-1.08,0-1.67.22-.79.25-1.6-.12-2.38-.3-.63-.24-1.36-.22-2.07.03-.92.45-1.81.12-2.75-.03-.09-.01-.25.03-.35.45-1.25.53-2.49.04-3.75-.11-.28-.08-.73.02-1.03.35-1.03.48-2.03.08-3.07-.07-.19-.08-.5-.01-.69.58-1.58.38-3.25.38-4.88,0-1.3.02-2.59.22-3.87.05-.35.12-.67.02-1.02-.25-.93-.19-1.85.12-2.76.19-.57.21-1.16.03-1.72-.29-.94-.23-1.83.09-2.74.15-.42.25-.91.25-1.37,0-1.17.3-2.34.14-3.5-.17-1.18.2-2.33.1-3.5-.06-.69-.38-1.36-.17-2.06.21-.7.11-1.37.05-2.06-.05-.62.29-1.11.52-1.62.26-.55,1.65-.68,2.02-.22.02.03.23.29.18.36.11.22.47,1.54.42,2.61-.03.59,0,1.18-.21,1.73-.18.46-.18.89,0,1.34.22.54.28,1.16.13,1.72-.47,1.84-.41,3.73-.52,5.61-.03.58-.09,1.17-.15,1.75-.02.23-.15.47-.12.67.4,2.33.09,4.7.23,7.05.04.7.02,1.16.18,1.85.26,1.13.02,2.06-.09,3.64-.18.41-.26.89-.42,1.31-.13.34-.15.67-.07,1.02.37,1.61.23,3.28.37,4.91-.26,1.94-.23,4.62-.12,4.86-.03.58-.12,1.16-.22,1.74-.07.46-.2.9-.28,1.36-.1.6-.03,1.17.23,1.69.28.53.31,1.1.09,1.67-.4,1.01-.46,2.02-.1,3.06.35,1.03.28,2.05-.06,3.09-.3.9-.31,1.82.04,2.73.26.67.17,1.37-.05,2.06-.1.32-.29.73-.22.99.17.6-.02,1.89.11,2.03.12.14.07.47.05.67-.06.57-.11,1.07-.11,1.64,0,.57.22,1.14.27,1.72.04.46.07,1.03-.11,1.38-.42.82.07,1.6-.1,2.4-.14.67-.18,1.39-.2,2.09-.03.82,0,1.63.35,2.39.18.41.11.91.05,1.38-.07.53-.16,2.27-.28,2.54-.35.75-.31,1.58-.24,2.41l.14,1.54-1.96.23c-.37.04-.75.1-1.11.12-.58.05-1.14.25-1.72.28-.45.02-.91-.17-1.37-.19-.31-.01-.68.35-.94.05-.33-.39-.62-.42-1.14-.26-.63.19-1.2.56-1.99.38-.53-.12-1.09.13-1.7-.03-.65-.16-1.42-.2-2.09-.1-.85.13-1.61-.35-2.39-.16-.75.18-1.38-.06-2.06-.16-1.29-.18-2.57-.18-3.82.25-1.24.42-2.54.44-3.8.1-.55-.15-1.09-.22-1.65-.24l-1.9-.07.04-1.76c0-.37,0-.75-.04-1.14-.09-1.29-.25-2.59.13-3.85.11-.37-.02-.68-.07-1.02-.26-1.75-.42-3.48.04-5.23.14-.53.07-1.17.01-1.75-.06-.58-.21-1.14-.32-1.71.39-1.23.04-2.59.43-3.81.08-.25.08-.43,0-.66-.12-.31-.27-.66-.26-.98.03-1.64-.41-3.29.02-4.92-.11-.68-.25-1.36-.32-2.04-.11-1.17-.08-2.37-.27-3.52-.12-.7-.13-1.34-.11-2.05.05-1.88-.04-3.77-.07-5.66l-.1-5.66c0-.58.08-1.17.16-1.74.07-.47.12-.96-.04-1.39-.33-.89-.36-1.82-.4-2.77l-.37-8.13c-.05-.94.22-1.82.11-2.79-.09-.77-.14-1.63.14-2.4l-.15-6.72-.02-2.12c0-.37.14-.69.37-.9.23-.34-.22-.51.96-.73.14-.08.94.25,1.03.38.62.9.29,1.63.6,2.73.21.76.13,1.74.21,2.56Z"/>
  <g>
    <path class="cls-3" d="M109.56,379.62l1.24-19.67h25.78s-.78,6.11,9.36,6.84c7.54,1.6,9.89,8.52,9.06,11.14s-24.05,2.17-24.05,2.17l-21.79-1.51"/>
    <path class="cls-3" d="M108.76,375.72c.07-.64-.24-1.24.1-1.83.15-.27-.23-.61.07-.89.19-.17.1-.4.27-.58.22-.24.18-.44.04-.75-.05-.18-.12-.3-.12-.68,0-.3.09-.45-.07-.78-.14-.29.24-.72.13-1.02-.22-.62.17-1.03-.3-1.71-.25-.59-.06-1.15-.07-1.64.04-.63.1-1.27.18-1.9.02-.15.13-.29.22-.43.2-.29.17-.59.05-.91-.23-.6.34-2.29.22-2.56,0-.02-.02-.04-.02-.16v-.72s1.36-.55,1.36-.55c.45-.18,2.92-.32,3.13-.26.15.04.28.15.4,0,.24.16.59-.12.79.1.49.1.67.16,1.25.12.55-.04,1.14.82,1.66.53,1.1,0,1.79-.05,1.94-.15.28-.17.41.14.69-.03.39-.24,1.15.34,1.24.11.1-.25.34-.16.49-.36.32-.43.74-.34,1.14-.1.21.13.44-.31.62-.13.32.32.68.47,1.09.45l2.61-.12c.55-.02,1.12-.06,1.63.23.83-.06,1.24,0,1.58-.09.41-.27.82.08,1.19-.29.51-.51.4-.42,1.16-.4.14.15.57.33.7.12.4.14.76.05.8.07.63.4.5-.21,1.16.26.22-.03.38,0,.5-.07l1.36,1.54s.11.05.25.08c.18.04.21.12.09.24-.1.11-.05.2.08.28.26.16.27.37.3.61.03.23.09.48.38.55.05.27.42.32.57.51.27.33.62.55.81,1.11.06.15.34.17.53.13.31-.07.36.38.67.3.35-.1.38.31.54.54.12.19.26.37.52.27.36-.13.7.03,1.05.06.36.02.64.49,1.01.29.46-.24.89.17,1.33-.04l.24.03s.09-.02.14-.04c.4-.17.58.2.95.2.21.59.61.85,1.17.94.6.07,1.22.12,1.69.61.15.14.5.13.76.21.26.08.53.16.75.31.44.36.51.99.99,1.29.44.29.69.59,1.1.92.3.22.53.87.72,1.17.24.32.57.54.83.82.27.26.47.57.37,1.02.16.33.19.72.54.93.46.26.62.7.51,1.22-.02.09-.05.22-.01.28.15.25.29.52.36.8.06.29.04.61-.11.92.07.53.03,1.08-.27,1.67-.03.05-.18.46-.36.77-.21.37-.32.48-.48.68-.08.09-.16.18-.25.26-.08.08-.13.11-.21.16-.14.09-.3.17-.48.2-.49.02-.81.23-1.11.47-.32.27-.66.3-1.04.29-.26-.02-.55-.06-.76.05-1.17.64-2.38.82-3.63.49-.47-.12-.88.03-1.36.1-.37.23-.63.1-.85-.21-.11-.16-.22-.04-.34.17-.62.44-1.18-.22-1.49-.06-.44.22-.9.34-1.39.08-.2-.11-.52-.17-.68-.06-.39.25-.73.22-1.13.08-.55-.19-1.1-.18-1.61.22-.42.33-.91.29-1.39.29-.62,0-1.24-.39-1.87-.03-.06.04-.17.02-.24-.02-.86-.41-1.69-.46-2.54.06-.19.11-.5.1-.7,0-.73-.33-1.32-.43-2.15-.03-.13.07-.34.07-.46,0-1.05-.61-2.18-.45-3.27-.48-.88-.02-1.75-.08-2.6-.3-.23-.06-.45-.13-.69-.04-.64.23-1.25.15-1.85-.18-.38-.2-.78-.23-1.16-.07-.64.27-1.24.19-1.84-.14-.28-.16-.6-.27-.91-.28-.79-.02-1.56-.35-2.35-.21-.8.14-1.56-.24-2.35-.17-.47.04-.93.35-1.4.12-.46-.22-.92-.13-1.39-.1-.42.03-.74-.31-1.06-.56-.36-.27-.37-1.66-.04-2.02.02-.02.21-.22.25-.17.16-.1,1.05-.43,1.77-.36.39.04.79.02,1.15.25.3.19.59.2.9.03.38-.21.79-.25,1.16-.1,1.21.5,2.49.49,3.74.64.39.05.78.11,1.17.18.15.03.31.16.44.13,1.58-.35,3.16.01,4.74-.08.47-.03.78,0,1.24-.14.77-.24,1.38.03,2.44.17.27.19.59.28.87.45.23.13.45.17.68.09.27-.08.55-.13.82-.17l.21-.02s.05,0,.07-.01h.1s.41-.05.41-.05c.55-.04,1.1-.06,1.65-.15,1.3.22,3.09.11,3.25,0,.39.01.78.09,1.17.16.31.06.61.17.92.23.4.08.79,0,1.12-.3.35-.3.72-.36,1.11-.16.69.35,1.37.36,2.04-.04.67-.4,1.34-.39,2.05-.11.62.24,1.23.2,1.8-.22.42-.31.88-.27,1.35-.11.22.07.5.23.67.13.37-.22,1.22-.16,1.3-.3.07-.14.29-.12.41-.12.37,0,.69-.02,1.04-.09.35-.08.65-.37.95-.51.26-.1.51-.24.75-.13.23.12.44.02.45-.07.07-.06-.03-.07-.08-.04-.01,0-.02.02-.03.03-.04.04-.09.08-.12.14-.07.08-.12.29-.1.31.15-.13.23-.43.21-.78,0-.2-.03-.4-.13-.6-.08-.19-.23-.37-.46-.52-.23-.15-.25-.41-.3-.66-.01-.29-.39-1.15-.38-1.33.13-.79-.6-1.21-1.09-1.62-.23-.23-.63-.27-.86-.48-.18-.17-.27-.44-.45-.63-.13-.12-.49.04-.44-.27.07-.41-.06-.54-.4-.56-.39-.05-.86.18-1.16-.19-.21-.25-.61-.1-.86-.37-.27-.31-.71-.42-1.1-.44-.11,0-.21-.03-.31-.08l.28.04c-.46-.11-.86-.42-1.32-.32-.57.14-1-.21-1.47-.4-.45-.18-.9-.32-1.37-.44-.47-.11-.96-.13-1.5-.15-.54,0-1.07-.1-1.55-.38-.49-.24-.91-.65-1.23-1.13-.46-.7-.96-1.29-1.49-1.98-.7-.91-1.24-2.12-.95-3.3.09-.36-.05-.57-.05-1.05h0c-.37-.43,3.26,3.7,1.72,1.95h0s0,0,0,0h-.01s-.03,0-.03,0h-.06s-.11.03-.11.03l-.22.04-.44.06c-.29.04-.59.06-.88.06-.59,0-1.17-.1-1.75-.34-.35-.15-.78-.09-1.17-.04-.39.04-.77.19-1.16.29-.82-.41-1.74-.09-2.56-.5-.17-.08-.29-.09-.45,0-.21.11-.45.26-.66.25-1.1-.06-2.22.35-3.31-.11-.46.1-.92.23-1.38.28-.79.08-1.6.04-2.37.2-.47.1-.9.1-1.38.07-1.26-.08-2.54-.03-3.8-.03-1.27,0-2.54.02-3.8,0h-.24s1.97-1.86,1.97-1.86c-.05.31-.14.62-.24.92-.1.31-.18.64-.04.93.28.62.25,1.25.23,1.88-.06,1.82-.11,3.65-.13,5.47,0,.63-.33,1.2-.27,1.86.05.52.04,1.1-.28,1.6l-.26,4.51c-.03.47-.06.95-.1,1.42-.02.25-.18.45-.42.58-.25.21.19.36-1,.41-.14.04-.92-.24-1-.33-.57-.65-.19-1.11-.43-1.88-.17-.52-.03-1.18-.06-1.73Z"/>
  </g>
  <path class="cls-3" d="M27.38,229.7c-.16.75.07,1.5-.33,2.18-.18.31.15.74-.18,1.05-.21.19-.15.47-.34.68-.25.28-.23.52-.13.9.02.22.09.37.05.82-.03.36-.14.53-.01.94.11.36-.31.84-.23,1.22.16.75-.27,1.22.14,2.07.2.72-.04,1.38-.07,1.97-.1.75-.19,1.51-.32,2.26-.03.18-.15.35-.25.51-.22.35-.21.7-.11,1.08.19.73-.47,2.74-.35,3.06.15.45.05,3.69-.03,3.96-.06.18-.18.33-.03.47-.18.28.08.71-.15.94-.13.58-.21.79-.2,1.48,0,.66-.88,1.33-.62,1.96-.06,1.32-.03,2.15.06,2.34.16.34-.16.49,0,.83.22.47-.39,1.37-.16,1.49.24.13.15.42.34.6.42.4.32.9.06,1.38-.13.25.29.54.11.74-.33.38-.49.81-.49,1.3l.04,3.15c0,.66.04,1.35-.27,1.96.04,1.01-.04,1.49.06,1.91.26.5-.1.99.26,1.44.5.63.41.49.38,1.4-.16.17-.34.68-.14.84-.15.48-.06.92-.08.96-.41.75.2.61-.27,1.39.04.43-.05.66.31.86.19.1.21.28.08.48-.12.19-.07.35.04.54.45.76-.2,1.69.2,2.47-.09.46.16.93.13,1.4-.04.76.01,1.52-.37,2.23-.1.19.02.57.15.8.22.39-.21.73,0,1.1.23.43-.14.69-.32.99-.15.24-.28.48-.11.79.24.44.13.93.17,1.4.04.48-.34.94-.12,1.38.04.08.07.15.09.23v.15c.07.59-.3,1.13,0,1.69.22.42-.13.65-.09,1.05-.59.32-.75.83-.73,1.46.03.66.18,1.32-.18,1.98-.12.2.04.57.06.86.01.29.03.59-.03.88-.13.59-.73.97-.76,1.59-.05.59-.23.98-.3,1.57-.05.4-.5,1.02-.67,1.41-.16.43-.19.89-.31,1.33-.09.43-.32.85-.79,1.1-.14.21-.25.34-.34.47-.09.14-.15.29-.12.48.1.5-.06.81-.45,1.07-.07.05-.17.11-.18.17-.02.52-.04.99-.48,1.33-.07.4-.15.75-.38,1.1-.1.17-.04.37,0,.56.06.19.12.36-.01.54-.18.28-.09.55.08.78.19.23.19.45.16.68-.05.18-.03.37.08.47.32.19.63.38.93.56.12.11.3.2.46.34.17.17.27.2.42.4.1.09.22.09.33.1.11-.02.22-.1.33-.12.13-.3.29-.15.58.03.15.1.17-.05.14-.26.09-.26.29-.42.53-.46.23-.07.46-.15.52-.3.08-.21.15-.45.27-.64.13-.19.3-.35.55-.49.2-.12.46-.34.45-.57,0-.49.21-.77.53-1.11.45-.44.7-1.03.54-1.71-.12-.55.09-1.05.27-1.55.2-.6.7-1.12.64-1.8l4,1.25c0,.05.01.1.02.16.01.07-.04.17-.1.24-.7.76-1.03,1.7-.75,2.75.06.23-.03.56-.17.76-.48.69-.72,1.44-.38,2.23.06.14.06.36-.02.49-.63,1.07-.34,2.32,0,3.02.12.29.27.46.38.59.12.13.22.24.44.4.11.06.25.16.37.05.28-.27.33-.25.87-.29.32-.02.57-.3.62-.68.08-.63.37-1.1.91-1.58.25-.22.47-.52.58-.84.27-.83.79-1.62.82-2.54.03-.93.54-1.74.58-2.67.03-.55-.23-1.11.05-1.63.27-.52.23-1.06.23-1.62,0-.49.37-.85.63-1.23.29-.42,1.69-.4,2.02,0,.02.03.21.26.15.31.09.19.36,1.3.22,2.18-.08.48-.11.98-.38,1.4-.23.35-.28.7-.15,1.1.15.48.12,1.01-.1,1.44-.73,1.42-1.03,2.98-1.67,4.46-.19.46-.44.91-.7,1.35-.1.17-.32.3-.36.47-.29.99-.91,1.97-1.94,2.7-1.03.75-2.57.94-3.77.6-.76-.19-1.24-.49-1.94-.93-.58-.39-.94-.93-1.15-1.52-.23-.6-.32-1.25-.39-2,.12-.42.15-.86.29-1.24.1-.31.14-.59.05-.9-.34-1.42,0-2.85.12-4.23.56-1.57,1.17-3.72,1.15-3.97l.04-.09.06-.14c.33-.8,1.24-1.19,2.04-.86.77.31,1.15,1.16.9,1.94-.14.45-.33.88-.54,1.3-.17.36-.39.68-.58,1.03-.24.45-.34.93-.23,1.44.11.53-.05,1-.44,1.37-.72.65-1.11,1.38-1.29,2.36-.15.98-.82,1.76-1.75,2.27-.45.2-.78.46-1.18.72-.19.13-.38.28-.56.45-.2.15-.41.31-.62.5-.62.55-1.62.6-2.41.3-.39-.1-.75-.45-1.06-.44-.37.02-.79-.22-1.19-.41-.39-.2-.69-.47-.79-.45-.2.02-.47-.25-.61-.43-.44-.48-.74-.97-1.06-1.51-.14-.28-.33-.54-.51-.82-.15-.27-.31-.56-.42-.87-.12-.47-.27-1.1-.08-1.46.19-.43.17-.81.16-1.21-.03-.4-.05-.78.1-1.15.25-.61.45-1.24.69-1.84.27-.71.52-1.39.52-2.17,0-.43.3-.81.57-1.16.08-.1.2-.25.34-.43.11-.15.25-.32.37-.49.19-.24.39-.49.47-.56.78-.43.8-1.49.98-2.32.09-.43,0-.9.1-1.32.06-.34.33-.63.44-.97.07-.23-.23-.59.11-.72.43-.17.52-.38.44-.82-.09-.52-.36-1.02-.09-1.6.19-.39.01-.86.24-1.31.24-.48.36-1.08.33-1.62-.04-.67.5-1.23.37-1.83v.17s0,0,0,0c-.18-.61.06-1.12.16-1.68.19-1.05.18-2.08-.24-3.1-.42-1.01-.43-2.06-.08-3.09.25-.75.29-1.48.24-2.26-.06-1.05-.18-2.11.23-3.13.12-.3,0-.55-.04-.83-.22-1.43-.32-2.84.2-4.25.16-.42.1-.95.07-1.42-.04-.47-.17-.93-.27-1.4.42-.98.13-2.1.56-3.08.09-.2.1-.35.02-.54-.11-.26-.25-.54-.23-.81.1-1.33-.28-2.69.22-3.99-.08-.56-.19-1.11-.23-1.68-.06-.96.03-1.93-.11-2.88-.08-.58-.06-1.1,0-1.67.14-1.53.17-3.08.26-4.62.1-1.54.19-3.09.35-4.63.05-.47.18-.94.31-1.4.11-.38.21-.77.1-1.13-.24-.76-.18-1.52-.11-2.29l.59-6.64c.07-.77.46-1.44.47-2.24,0-.64.09-1.33.46-1.91.26-1.81.54-3.62.85-5.43.1-.57.2-1.14.32-1.71.06-.3.25-.53.51-.65.28-.22-.13-.46,1.06-.39.15-.03.88.39.95.51.46.83.02,1.35.15,2.28.09.64-.14,1.41-.18,2.07Z"/>
  <path class="cls-3" d="M35.78,321.01c.41-.1.65-.5,1.1-.4.22.05.23-.39.52-.22.18.09.26-.06.45,0,.25.09.34-.03.43-.26.07-.11.07-.23.26-.4.14-.13.27-.13.32-.4.04-.22.47-.18.53-.41.09-.45.57-.4.43-1.08-.01-.47.35-.63.47-.94.2-.35.43-.69.67-1.02.05-.08.18-.13.29-.18.25-.11.28-.31.24-.56-.05-.24.17-.55.35-.87.17-.32.35-.62.31-.73-.06-.15.04-.66.11-1.17.06-.52.15-1.01.2-1.08.07-.09.19-.16.06-.26.19-.13-.03-.42.22-.51.01-.02.03-.05.04-.06l-.02.24c.09-.31.14-.44.12-.83-.03-.4.84-.81.55-1.19.02-.8-.03-1.3-.12-1.42-.17-.21.14-.29-.02-.5-.23-.28.36-.83.13-.9-.25-.08-.15-.25-.35-.36-.43-.24-.33-.54-.08-.83.13-.15-.3-.32-.12-.45.33-.23.48-.49.47-.79l-.08-1.9c0-.4-.05-.81.26-1.18-.05-.61.03-.9-.07-1.15-.27-.3.09-.6-.27-.87-.5-.38-.42-.3-.39-.85.16-.1.34-.41.13-.5.15-.29.06-.55.08-.58.41-.45-.2-.37.27-.84-.04-.26.05-.4-.31-.52-.19-.06-.21-.17-.08-.29.12-.12.07-.21-.04-.32-.45-.46.21-1.02-.19-1.49.09-.28-.16-.56-.13-.85.04-.46,0-.91.38-1.34.1-.11-.02-.35-.15-.49-.22-.24.21-.44.01-.66-.23-.26.14-.41.33-.6.15-.15.28-.29.12-.47-.24-.27-.12-.56-.16-.84-.04-.29.35-.57.13-.83-.31-.37.15-.77-.25-1.12-.26-.23.05-.39-.04-.62.54-.23.65-.54.52-.91-.13-.39-.4-.75-.16-1.17.07-.13-.15-.32-.22-.49-.07-.17-.15-.34-.15-.5,0-.35.48-.64.36-1-.11-.33-.04-.58-.16-.91-.08-.22.16-.64.15-.87,0-.52-.65-.94-.12-1.4,0-.23.12-.47-.14-.67-.33-.26-.37-.52-.14-.8.04-.05.11-.12.08-.16-.21-.33-.38-.66-.06-.99-.08-.28-.07-.55.07-.84.13-.27-.36-.54-.14-.83.17-.23.08-.44-.08-.66-.16-.22-.13-.44-.03-.67.07-.16.17-.35.09-.5-.43-.85-.48-1.69-.04-2.54.16-.32.04-.62.02-.97-.2-.28-.06-.45.26-.59.16-.07.06-.15-.14-.25-.4-.46.28-.83.14-1.06-.2-.33-.3-.66-.02-1,.11-.14.19-.36.09-.49-.24-.29-.2-.53-.05-.82.2-.39.21-.78-.18-1.17-.32-.31-.28-.67-.27-1.01,0-.45.4-.89.05-1.35-.04-.05-.02-.12.02-.17.42-.62.45-1.19-.04-1.9-.11-.14-.09-.38.02-.52.35-.5.48-.99.1-1.53-.07-.1-.08-.25,0-.34.59-.75.43-1.59.46-2.41.02-.65.08-1.29.31-1.91.06-.17.14-.32.05-.5-.22-.49-.13-.94.21-1.36.21-.26.25-.55.1-.85-.25-.5-.15-.94.21-1.35.16-.19.29-.42.32-.64.06-.58.41-1.11.33-1.71-.09-.61.33-1.12.32-1.71,0-.35-.28-.74-.02-1.05.25-.31.21-.65.21-1.01,0-.31.37-.49.64-.69.29-.22,1.67,0,1.99.3.02.02.2.19.15.21.09.13.34.83.22,1.33-.07.27-.08.57-.33.79-.2.19-.24.39-.09.64.18.3.2.6.03.85-.57.81-.62,1.73-.81,2.62-.06.28-.14.55-.22.83-.03.11-.17.21-.14.31.3,1.17-.09,2.29-.02,3.43.02.34,0,.56.13.91.23.57-.03.99-.16,1.75-.19.18-.27.41-.44.61-.13.16-.16.32-.09.49.35.8.2,1.6.35,2.39-.27.88-.13,2.2-.03,2.32-.02.28-.09.57-.17.85-.06.22-.18.44-.24.67-.09.29,0,.57.28.83.29.26.34.54.13.82-.37.49-.4.99-.03,1.49.38.5.34,1,.02,1.51-.28.44-.27.89.11,1.34.28.33.21.67,0,1.01-.09.16-.27.36-.19.48.19.29.03.92.16.99.13.07.09.23.07.33-.05.28-.08.52-.06.8.01.28.25.56.31.84.05.22.1.5-.07.67-.4.4.11.78-.04,1.17-.12.33-.14.68-.15,1.02-.01.4.05.8.41,1.17.19.2.14.45.09.68-.06.26-.1,1.11-.21,1.24-.48.53-.14,1.15-.05,1.72.05.28.25.56.28.84.02.22-.17.44-.19.67-.01.15.35.33.05.46-.39.16-.42.3-.26.56.19.31.56.59.38.98-.12.26.13.53-.03.83-.17.32-.22.69-.12,1.02.12.42-.37.78-.19,1.17.18.37-.07.67-.18,1.01-.19.63-.2,1.25.21,1.87.41.61.42,1.25.07,1.86-.26.45-.29.89-.25,1.36.06.63.17,1.27-.24,1.88-.12.18,0,.33.04.5.22.86.32,1.71-.19,2.56-.15.25-.1.57-.06.85.04.28.18.56.28.85-.42.59-.11,1.27-.54,1.85-.09.12-.1.21-.01.32.11.16.25.33.24.49-.08.8.31,1.62-.16,2.4.09.34.21.67.26,1.01.07.58.01,1.16.17,1.73.1.35.09.66.05,1-.09.83-.07,1.66-.08,2.49v.18s-.03.14-.03.14l-.06.29c-.24.97-.36,1.94-.74,2.9-.1.29-.29.56-.47.82-.15.21-.27.44-.24.7.1.56-.11,1.04-.3,1.53-.31.69-.69,1.37-1.08,2.04-.46.65-.87,1.32-1.45,1.92-.19.21-.42.36-.66.51-.25.13-.5.27-.7.48-.31.36-.76.66-1.31.65-1.17.67-2.47,1.14-3.82,1.32-.42.06-.86.09-1.3.08-.24-.01-.43-.16-.55-.4-.19-.25-.37.18-.35-1.01,0-.14.28-.9.34-.99.44-.57.75-.23,1.22-.56.31-.22.73-.21,1.06-.35Z"/>
  <path class="cls-3" d="M222.39,262.82c-1.09-.4-2.25-1.04-3.27-1.82-.1.14-.2.28-.3.42-1,.75-1.58,1.77-2.14,2.82-.07.13-.28.29-.42.41-.81.65-1.36,1.41-1.65,2.32-.23.72-.86,1.32-1.36,1.95-1.44.97-1.86,2.54-2.99,3.98-.51.65-1.61,1.66-2.04,2.33-.64,1-1.25,1.64-1.89,2.64-.7,1.07-1.73,1.6-2.5,2.56-.37.47-.68.99-.99,1.49-.32.5-.56,1.17-.91,1.49-.28.25-.52.51-.75.78-.11.14-.22.27-.32.41-.1.14-.22.3-.24.34-.08.14-.15.29-.24.46l-.11.22c-.05.03-.12.02-.19.03-.13,0-.27,0-.39-.05-.09-.03-.18-.07-.27-.1-.12-.04-.22-.11-.32-.17-.41-.23-.69-.57-.81-.96-.14-.07-.26-.15-.36-.23-.09-.1-.17-.19-.26-.28-.16-.19-.31-.36-.59-.49-.11-.05-.2-.12-.29-.2-.09-.07-.18-.2-.18-.19-.06-.07-.1-.18-.11-.27,0-.05-.02-.1-.02-.14,0-.05.06-.08.08-.12.03-.04.05-.08.06-.13,0-.02.01-.05.02-.08v-.05s.04-.07.06-.1c.41-.87,1.34-1.39,1.96-2.23.6-.81,1.35-1.56,1.76-2.44.29-.62.71-.93,1.15-1.25.56-.39,1.19-.59,1.6-1.46.35-.74,1.14-1.04,1.49-1.83.21-.47.64-1.18.97-1.44,1.27-.96,2.25-2.25,3.31-3.5.65-.76,1.09-1.71,1.79-2.43.74-1.55,2.51-2.7,3.18-4.25.16-.38.34-.67.69-.92.38-.27.6-.58.59-.86-.02-.55.37-.88.91-1.62.09-.06.17-.12.25-.18-.83-2.36,1.02-4.32,3.06-5.67,1.78-1.18,2.42-1.99,3.5-3.93.94-1.7,1.75-3.43,2.57-5.19.33-.7.69-1.44,1.08-2.16-1.45,1.35-2.63,3.16-4.14,4.42-.55.84-1.06,1.7-1.67,2.51-.6.81-1.27,1.72-1.96,2.33-2.3,2.04-4.12,4.46-5.87,6.97-.34.49-.59.99-1.08,1.41-1.69,1.44-3.03,3.29-4.4,5.07-1.01,1.32-2.03,2.53-3.24,3.62-1.66,1.49-3.08,3.26-4.11,5.2-1.04,1.96-2.45,3.69-4.01,5.31-.43.42-.83.83-1.25,1.24-.2.21-.4.43-.6.67-.1.12-.19.24-.28.37-.15.21-.3.42-.46.64l-.27.37c-.09.12-.14.25-.22.37l-.22.37-.11.18-.06.09s0,.07.01.11c.06.57.13,1.14.31,1.73.17.56.5,1.28.72,1.61.12.21.26.41.42.59.15.2.32.37.51.53,1.16,1.08,2.66,1.88,3.94,2.45,1.02.48,1.9.34,2.76.37.73-.36,1.22-1.05,1.82-1.53.11-.1.22-.19.32-.28.11-.1.22-.2.25-.24.11-.12.2-.24.29-.37.18-.25.34-.49.47-.74.28-.5.5-.99.76-1.48.45-.82.79-1.19,1.45-1.4.52-.16.63-.9.98-1.31.52-.62,1.16-1.13,1.63-1.75.61-.8,1.05-1.7,1.64-2.52,1.19-1.65,2.29-3.58,3.86-4.79.38-.29,2.3-2.66,2.91-3.35.55-.62,1.14-1.27,1.42-1.95.53-1.25,1.35-2.39,2.25-3.51.33-.41.67-.83,1.01-1.23Z"/>
  <path class="cls-3" d="M240.55,222.53c.99-1.12,1.6-2.39,2.75-3.29.52-.41.68-1.23,1.35-1.58.41-.21.67-.67,1.08-.92.54-.33.8-.72,1.13-1.35.23-.36.33-.61.88-1.3.43-.54.73-.77,1.07-1.46.3-.61,1.24-1.18,1.59-1.79.71-1.24,1.64-1.79,2.23-3.28.65-1.21,1.62-2.12,2.32-3.03.95-1.13,1.92-2.25,2.9-3.36.23-.26.54-.47.81-.67.6-.43,1-.97,1.36-1.62.68-1.22,3.62-3.99,3.91-4.55.39-.77,4.34-5.7,4.74-6.06.26-.24.54-.41.6-.71.49-.33.8-1.13,1.26-1.35.81-.81,1.13-1.09,1.97-2.15.8-1.01,2.34-1.51,2.89-2.61,1.65-1.96,2.65-3.22,2.81-3.56.29-.61.72-.64,1.01-1.25.4-.84,1.99-1.83,1.95-2.15-.03-.34.39-.71.46-1.11.15-.84.85-1.54,1.64-2.11.41-.29.42-.98.83-1.18.73-.36,1.38-.91,1.99-1.65l3.84-4.74c.82-.99,1.63-2.03,2.63-2.76,1.21-1.53,1.87-2.21,2.3-2.88.41-.91,1.3-1.41,1.57-2.31.38-1.24.28-.98,1.43-2.33.33-.15,1.1-.8,1.14-1.16.71-.62,1.18-1.33,1.25-1.38,1.25-.86.59-1.03,1.93-1.9.5-.66.85-.95.82-1.47-.02-.27.18-.54.54-.77.33-.21.49-.48.63-.82.59-1.41,2.25-2.39,2.9-3.79.65-.63,1.04-1.49,1.63-2.17.98-1.11,1.87-2.26,3.06-3.08.31-.22.7-.86.88-1.29.31-.72,1.06-.95,1.37-1.62.36-.79.96-.93,1.48-1.27.42-.27.81-.53,1.06-1.1.36-.8,1.05-1.46,1.6-2.18.57-.75,1.44-1.18,1.81-1.97.26-.55.68-1,1.09-1.45l.35-.39c.16-.18.34-.34.52-.5.37-.31.76-.58,1.16-.83.53-.33,1.1-.4,1.63-.35.54.05,1.05.19,1.66.39.93.97,1.98,2.09,2.29,3.85.16.91.02,1.9-.47,2.75l-.2.31-.15.2c-.09.12-.19.25-.29.37-.2.24-.43.48-.68.7-.32.28-.53.9-.81,1.35-.28.45-.55.93-.89,1.35-.7.86-1.67,1.3-2.29,2.27-.58.9-1.14,1.47-1.71,2.37-.39.6-1.41,1.49-1.87,2.07-1.03,1.29-1.38,2.74-2.72,3.56-.46.56-1.04,1.09-1.23,1.75-.25.84-.74,1.51-1.5,2.08-.13.1-.33.23-.39.36-.5.95-1.02,1.87-1.95,2.52-.51.75-1.06,1.42-1.74,2.04-.65.6-.81,1.57-1.56,2.16-.6.48-.96,1.05-1.27,1.69-.32.65-.79,1.19-1.33,1.7-.38.36-.84.77-1.08,1.19-1.37,2.39-3.01,4.49-5.08,6.36-.77.7-1.29,1.53-1.96,2.4-.4.81-.87,1.16-1.4,1.31-.27.08-.36.35-.39.71-.61,1.4-1.9,1.91-2.26,2.57-.5.94-1.09,1.83-2.01,2.52-.38.28-.89.79-1.06,1.17-.39.86-.91,1.44-1.61,2.07-.94.85-1.75,1.83-2.2,3.02-.36.96-1.12,1.82-1.82,2.69-.91,1.11-2.11,1.97-2.75,3.33-.06.13-.23.31-.36.41-1.57,1.28-2.82,2.76-3.65,4.62-.18.41-.64.96-1.01,1.26-1.28,1.06-2.34,2.22-3.02,3.74-.13.28-.41.66-.65.86-1.99,1.61-3.44,3.78-5.01,5.8-1.26,1.61-2.52,3.19-3.91,4.66-.38.4-.74.76-1,1.25-.7,1.3-1.64,2.4-2.76,3.34-.7.59-1.29,1.32-1.69,2.11-.67,1.33-1.57,2.39-2.72,3.34-.53.44-1.08.97-1.52,1.54-1.13,1.45-2.5,2.71-3.49,4.24-1.01,1.56-2.4,2.76-3.46,4.26-.62.88-1,1.9-1.85,2.65-.84.74-1.4,1.63-2.03,2.52-.56.79-1.31,1.2-1.98,1.69-.74.53-1.98-.14-1.83-.93,0-.05.1-.5.21-.56.13-.34,1.11-2.18,2.18-3.47.59-.71,1.14-1.46,1.84-2.02.58-.46,1-.99,1.29-1.66.35-.8.9-1.6,1.55-2.21,2.15-1.99,3.93-4.37,5.83-6.62.59-.7,1.2-1.39,1.8-2.07.24-.27.57-.49.74-.75,1.92-3.12,4.47-5.86,6.61-8.84.64-.89,1.1-1.45,1.64-2.39.88-1.55,1.97-2.55,3.58-4.44.54-.4,1.06-.94,1.6-1.37.43-.35.77-.74,1.04-1.22,1.25-2.2,2.98-4.19,4.44-6.29,2.08-2.24,4.63-5.57,4.78-5.93.59-.7,1.22-1.36,1.85-2.02.52-.51,1.02-1.01,1.54-1.52.66-.68,1.16-1.43,1.44-2.23.29-.83.81-1.54,1.54-2.11,1.29-1.01,2.31-2.22,3.03-3.71.72-1.48,1.75-2.7,3.03-3.78,1.11-.94,2.01-2.06,2.6-3.4.44-.98,1.19-1.79,2.02-2.51.39-.34.94-.72,1.13-1.09.44-.85,1.84-2.33,1.87-2.58.04-.25.4-.63.6-.85.6-.67,1.12-1.26,1.66-1.96.55-.71.92-1.54,1.44-2.28.41-.58.93-1.31,1.41-1.64,1.13-.76,1.48-2.02,2.39-2.9.77-.75,1.49-1.62,2.18-2.47.82-1,1.57-2.02,2.03-3.16.25-.61.79-1.2,1.29-1.74.57-.61,2.32-2.72,2.67-2.97,1.46-1.05,2.44-2.79,3.51-4.27.53-.73.93-1.55,1.47-2.27.43-.56,1.03-1,1.5-1.55.32-.37.39-1.05.88-1.17.62-.16.93-.49,1.33-1.23.23-.44.42-.9.66-1.34.12-.22.26-.45.42-.67.08-.11.17-.23.26-.32.01-.02.05-.03.08-.05.19-.11-.03-.3.03-.48.09-.27-.3-.54-.54-.38-.14.08-.28.05-.47.13h-.03s-.08.09-.08.09l-.17.16-.32.33c-.21.22-.4.46-.56.73-.62,1.02-1.44,1.61-2.2,2.37-1.44,1.43-2.73,2.96-3.66,4.74-.92,1.76-2.22,3.33-3.76,4.62-1.12.94-2.06,2.01-2.98,3.19-1.25,1.59-2.47,3.24-4.04,4.49-.46.36-.68.82-.99,1.26-1.59,2.25-3.25,4.41-5.39,6.18-.64.53-1.25,1.34-1.8,2.07-.55.72-1.01,1.5-1.51,2.25-1.54,1.2-2.68,3.05-4.22,4.24-.32.24-.5.46-.67.79-.23.45-.47.96-.81,1.34-1.7,1.92-3.06,4.17-5.05,5.82-.62.88-1.2,1.78-1.86,2.64-1.12,1.46-2.37,2.87-3.41,4.36-.63.91-1.28,1.68-2.02,2.5-1.96,2.2-3.84,4.5-5.74,6.76l-5.72,6.78c-.59.69-1.26,1.33-1.91,1.96-.54.52-1.07,1.06-1.39,1.68-.66,1.28-1.6,2.4-2.54,3.55l-8.05,9.89c-.92,1.15-2.03,2.02-2.94,3.24-.72.98-1.56,2.02-2.56,2.76l-6.77,8.07-2.15,2.53c-.38.44-.81.73-1.2.83-.51.25-.36.75-1.46.23-.18,0-.45-.92-.38-1.14.45-1.48,1.45-2.13,2.35-3.64.62-1.04,1.68-2.16,2.46-3.18Z"/>
  <g>
    <text class="cls-2" transform="translate(398.02 169.46)"><tspan x="0" y="0">7</tspan></text>
    <g>
      <path class="cls-1" d="M404.98,169.46l39.32-81.67h-47.49v-25.41h78.8v19.51l-40.08,87.57h-30.55Z"/>
      <path class="cls-5" d="M409.41,157.83c.92-1.85,1.43-3.7,2.55-5.35.51-.75.59-1.84,1.26-2.58.42-.46.64-1.14,1.05-1.64.54-.66.77-1.26,1.05-2.2.2-.55.28-.91.79-2.03.4-.87.69-1.29.97-2.3.25-.89,1.19-2.04,1.5-2.96.62-1.87,1.55-2.98,2-5.1.55-1.79,1.48-3.38,2.13-4.83.89-1.85,1.8-3.68,2.72-5.51.22-.43.52-.83.79-1.2.59-.81.95-1.67,1.26-2.64.58-1.82,3.41-6.63,3.65-7.46.33-1.13,3.98-9.07,4.36-9.71.25-.42.54-.76.55-1.15.48-.63.72-1.77,1.2-2.26.78-1.38,1.08-1.87,1.86-3.58.73-1.61,2.35-2.99,2.78-4.56.42-.88.76-1.61.97-2.08-.94.02-1.47.07-1.66.12-.3.09-.45.05-.64.02-.26-.03-.64-.07-1.08.02-1.24.24-3.7-.34-4.01-.11-.33.25-1.11.16-1.59.36-1.02.43-2.39.34-3.69.1-.68-.13-1.41.31-1.99.13-1.03-.32-2.2-.47-3.52-.45l-8.43.12c-1.78.02-3.6.06-5.27-.23-2.69.06-4,0-5.1.09-1.33.27-2.65-.08-3.85.29-.83.25-1.15.36-1.57.4-.21.02-.45.02-.78.02-.5,0-1.14,0-2.04-.02-.47-.1-1.48-.2-2.36-.22,0-.54-.02-.99-.09-1.2.04-.57.06-1.1.07-1.59,0-.46,0-.88.01-1.24,0-.47-.02-.79,0-.85.4-2.02-.21-1.62.26-3.73-.05-1.14.04-1.76-.32-2.28-.19-.27-.21-.73-.09-1.29.11-.52.06-.94-.05-1.43-.46-2.02.19-4.53-.22-6.6.09-1.24-.17-2.5-.15-3.75.02-1.7.03-3.39.05-5.05.97.02,1.94.05,2.88.1l1.38.09c.27.02.31.04.45.06l.37.07c.51.1,1.53-.02,2.15-.16,1.04-.22,1.95.2,2.93,0,1.16-.24,1.84.13,2.66.32.66.15,1.29.28,2.11.1,1.16-.24,2.48-.14,3.73-.18,1.3-.04,2.53.34,3.69.11,1.62-.32,3.41.14,4.95-.27,1.01-.27,1.72.05,2.76-.05,1.03.54,2.44.63,4.05.51,1.71-.13,3.33-.4,5.18-.16.58.07,1.42-.15,2.16-.22.73-.07,1.48-.15,2.22-.15,1.54,0,2.85.48,4.43.36,1.47-.11,2.57-.04,4.04-.15.99-.08,2.83.16,3.85.15,2.29,0,4.15-.65,6.2-.12,1,0,2.07.12,2.96-.14,1.11-.33,2.27-.37,3.54-.14.23.04.54.11.72.08,1.46-.21,2.9-.38,4.4-.06,1.25-.08,2.45-.07,3.71.07.27.03.55.03.82,0,.46-.03.91-.06,1.38-.09,1.01-.07,2.13-.15,3.18-.11-.01.23-.03.47-.04.71-.08,1.03-.1,1.9-.08,2.77l.02.65.02.31.02.18c.03.24.07.48.1.72.16.97.13,1.97.03,2.99-.07.72-.17,1.56-.09,2.22.21,1.84.33,3.66.34,5.49,0,.91-.01,1.83-.06,2.75-.03.46-.06.92-.09,1.38l-.06.69-.02.17-.02.33-.04.65c-.07.14-.15.28-.22.42-.2.39-.4.76-.6,1.14-.16.31-.3.63-.44.95-.27.65-.55,1.31-.85,2.01-.32,1.2-.78,1.85-1.34,2.28-.28.22-.34.6-.33,1.06-.48,2.02-1.8,3.25-2.1,4.24-.42,1.4-.94,2.78-1.83,4.06-.37.53-.85,1.4-.99,1.94-.31,1.25-.79,2.21-1.47,3.32-.9,1.49-1.65,3.09-1.98,4.77-.27,1.36-.97,2.78-1.61,4.18-.83,1.8-2.01,3.42-2.53,5.41-.05.2-.21.49-.33.68-1.52,2.32-2.68,4.74-3.34,7.43-.14.59-.57,1.48-.92,2.04-1.23,1.91-2.22,3.84-2.77,6.06-.1.4-.36,1.01-.59,1.37-1.93,2.92-3.21,6.3-4.64,9.53-1.14,2.58-2.3,5.13-3.61,7.6-.36.67-.7,1.28-.92,2.02-.59,1.94-1.46,3.74-2.54,5.43-.68,1.06-1.22,2.23-1.55,3.41-.28.98-.62,1.91-1.04,2.8-.21.45-.43.89-.68,1.32l-.38.65c-.13.22-.24.37-.49.83-.34.61-.68,1.23-1.02,1.87-.49-.02-.99-.04-1.49-.06-.44,0-.88,0-1.31-.01-2.54.03-5.09-.24-7.6-.05-2.56.2-5.06-.14-7.6-.01-1.49.07-2.92.41-4.46.22-1.53-.19-2.97-.07-4.48,0-1.34.06-2.43-.26-3.54-.48-1.21-.24-1.57-1.63-.58-2.01.06-.02.62-.24.78-.19.48-.11,3.3-.51,5.63-.49,1.28.01,2.57-.03,3.77.17,1,.17,1.93.16,2.91-.03,1.17-.23,2.51-.31,3.73-.18,2.01.21,4.03.29,6.07.32,1.96.02,3.92.04,5.88.05l.55.02.97-1.92c.22-.44.55-.87.7-1.28,1.67-4.76,4.05-9.36,5.98-14.06.58-1.41,1-2.31,1.46-3.72.75-2.33,1.79-4.08,3.28-7.18.53-.74,1.02-1.66,1.55-2.45.42-.63.73-1.28.97-2,1.07-3.32,2.67-6.58,3.97-9.87,1.95-3.75,4.27-9.07,4.38-9.59.54-1.14,1.14-2.26,1.73-3.36.49-.87.97-1.73,1.46-2.6.62-1.15,1.06-2.32,1.27-3.44.21-1.16.67-2.29,1.39-3.34,1.26-1.85,2.2-3.84,2.78-6.02.58-2.17,1.54-4.17,2.77-6.1,1.07-1.69,1.89-3.5,2.36-5.43.34-1.42,1.05-2.78,1.85-4.06.06-.09.17-.28.21-.31l.12-.11s.03-.08.05-.12c0-.02.01-.03.02-.07v-.17c.03-.22.03-.43,0-.6-.19-1.29-.03-4.1-.16-4.4-.13-.3-.09-1.02-.07-1.44.05-1.24.08-2.33.06-3.55-.01-1.24-.25-2.45-.31-3.71-.02-.49-.05-1.05-.05-1.58,0-.26,0-.52.03-.76.01-.12.02-.23.04-.34.01-.12.03-.07.05-.11.16-.17.17-.43.14-.57-.16.02-.32.07-.44.1-.06.02-.11.03-.17.03-.15,0-.48,0-.72-.03-1.47-.13-3.03-.14-4.55-.15-1.79-.01-3.54.05-5.17.41-.88.19-1.97.14-3,.09-1.15-.06-4.94-.1-5.52-.21-2.39-.48-5.12-.14-7.65-.05-1.26.05-2.47.25-3.73.28-.98.02-1.97-.17-2.97-.19-.67-.01-1.47.35-2.03.05-.71-.39-1.34-.42-2.48-.26-1.36.19-2.6.56-4.31.38-1.15-.12-2.36.13-3.68-.03-1.42-.16-3.09-.2-4.54-.1-1.85.13-3.49-.35-5.19-.16-1.63.18-2.98-.06-4.47-.16-2.79-.18-5.57-.18-8.28.25-1.32.21-2.68.32-4.05.34h-1.03c-.29-.01-.85-.02-.71-.04-.02-.04-.09-.1-.24-.18h-.01c-.06,0-.11.04-.15.12-.02.04-.03.08-.05.13l-.03.73c-.03,1-.03,2.01,0,3.05.07,2.79.2,5.64-.2,8.35-.12.79,0,1.47.05,2.21.09,1.46.16,2.91.19,4.36v1.09s0,.92,0,.92c-.01.14-.04.28-.08.49l.25.1.16.07.1.04s.2.03.29.04c1.14.15,2.53.09,3.79.04,1.26-.04,2.49-.19,3.73-.29,2.64.41,5.62.09,8.25.5.54.08.93.09,1.44,0,.68-.11,1.44-.26,2.14-.25,3.55.06,7.15-.35,10.67.11,1.48-.1,2.95-.23,4.45-.28,1.27-.04,2.56-.05,3.84-.07.64-.01,1.28-.03,1.91-.04.92-.03,1.84-.06,2.74-.09,1.75-.06,3.44-.09,5.13-.09-.45.93-.92,1.88-1.4,2.87-1.15,2.36-2.31,4.73-3.47,7.09l-2.65,5.54-5.33,11.05c-.55,1.13-1.19,2.24-1.81,3.32-.51.89-1.03,1.82-1.29,2.72-.56,1.89-1.43,3.71-2.3,5.57-2.49,5.33-4.98,10.67-7.46,16-.85,1.85-1.94,3.45-2.76,5.38-.66,1.54-1.44,3.23-2.42,4.61l-6.3,13.15-2.01,4.14c-.36.72-.78,1.28-1.19,1.58-.52.55-.3,1.09-1.54.97-.19.08-.59-.92-.55-1.22.31-2.04,1.31-3.31,2.09-5.6.54-1.58,1.55-3.45,2.26-5.08Z"/>
    </g>
  </g>
</svg>