<?xml version="1.0" encoding="UTF-8"?>
<svg id="illuer_hvid_bg" xmlns="http://www.w3.org/2000/svg" viewBox="0 0 71 81.25">
  <defs>
    <style>
      .cls-1 {
        fill: #ff9400;
      }

      .cls-2 {
        fill: #0354f0;
      }
    </style>
  </defs>
  <g>
    <g>
      <path class="cls-1" d="M37.76,80.39c-11.91.77-20.86-1.68-26.83-7.35-5.99-5.66-9.28-13.23-9.9-22.69-.61-9.46,1.68-17.38,6.89-23.78,5.2-6.4,13.64-9.97,25.31-10.72,11.67-.75,20.79,1.68,26.65,7.36,5.87,5.67,9.11,13.24,9.72,22.7.61,9.46-1.63,17.38-6.72,23.77-5.09,6.38-13.47,9.96-25.13,10.71"/>
      <path class="cls-1" d="M30.88,81.07c-1.15-.07-2.23.04-3.31-.26-.49-.14-1.09,0-1.59-.23-.31-.14-.72-.16-1.05-.32-.43-.21-.79-.24-1.34-.26-.32-.04-.53-.04-1.21-.2-.53-.11-.78-.26-1.37-.32-.52-.04-1.23-.52-1.76-.64-.55-.11-.98-.32-1.42-.51-.45-.18-.91-.37-1.51-.51-.51-.16-.99-.39-1.43-.65-.44-.26-.86-.51-1.24-.77-.49-.33-.98-.65-1.43-1.03-.47-.36-.92-.74-1.34-1.14-.2-.19-.38-.42-.53-.63-.32-.48-.72-.82-1.18-1.17-.42-.34-1.12-1.14-1.7-1.94-.59-.79-1.07-1.56-1.25-1.73-.23-.24-1.07-1.38-1.77-2.57-.7-1.19-1.25-2.43-1.33-2.62-.09-.26-.12-.52-.28-.67-.08-.45-.48-.98-.47-1.38-.25-.86-.32-1.18-.64-2.19-.3-.97-.07-2.12-.41-2.99-.4-1.95-.55-3.18-.65-3.45-.16-.49-.01-.74-.15-1.24-.21-.68.05-2.08-.08-2.25-.15-.18-.13-.61-.25-.88-.25-.57-.23-1.35-.06-2.08.09-.38-.16-.8-.04-1.12.22-.57.36-1.22.41-1.96.14-1.57.37-3.14.71-4.7.23-.98.49-1.98.95-2.81.46-1.44.8-2.11.99-2.7.15-.76.68-1.33.8-2.04.21-.96.11-.78.86-1.96.21-.18.72-.78.76-1.04.48-.56.83-1.13.89-1.17.89-.76.45-.82,1.46-1.55.4-.52.69-.73.75-1.09.03-.19.21-.39.49-.57.25-.17.42-.34.59-.58.68-1,2.07-1.59,2.92-2.44.61-.38,1.17-.84,1.79-1.21.52-.27,1.04-.54,1.56-.79.53-.22,1.07-.41,1.61-.54.29-.06.81-.34,1.1-.54.5-.35,1.08-.28,1.57-.57.58-.35,1.02-.26,1.5-.27.38-.02.74-.04,1.17-.27.6-.29,1.34-.41,2.03-.59.72-.16,1.44-.08,2.06-.32.87-.32,1.9-.22,2.74-.55.55-.22.97-.1,1.54-.19.61.28,1.39.25,2.29.13.95-.12,1.85-.33,2.9-.2.32.04.8-.11,1.21-.14.41-.03.84-.07,1.25-.06.87.01,1.59.37,2.48.34.83.02,1.44.11,2.28.15.56.05,1.58.3,2.14.43,1.27.23,2.39.11,3.44.72.55.17,1.11.4,1.64.42.66.04,1.32.21,1.93.65.11.07.26.18.36.21.82.2,1.61.52,2.3,1.08.64.33,1.26.66,1.81,1.16.54.44,1.26.62,1.77,1.2.42.44.83.78,1.32,1.09.5.31.86.74,1.24,1.2.26.32.53.73.82.98,1.62,1.45,2.91,3.22,3.76,5.26.31.76.74,1.41,1.12,2.19.4.59.51,1.03.46,1.44-.02.21.11.38.31.55.65,1.01.57,2.05.81,2.58.36.75.63,1.55.67,2.44.03.36.08.93.21,1.22.29.67.35,1.29.38,2.02.02.99.14,1.97.44,2.89.26.74.28,1.65.32,2.52.03,1.13-.2,2.24-.04,3.4.02.11,0,.3-.03.43-.35,1.55-.52,3.04-.49,4.63.02.35-.11.9-.24,1.26-.45,1.23-.84,2.39-.99,3.7-.03.24-.16.6-.27.81-.97,1.76-1.73,3.68-2.76,5.44-.81,1.41-1.75,2.72-2.86,3.89-.31.31-.58.61-.85.96-.68.95-1.56,1.75-2.57,2.33-.62.38-1.22.81-1.73,1.28-.86.81-1.85,1.36-2.95,1.73-.5.19-1.08.37-1.59.62-1.32.62-2.73.95-4.05,1.48-1.36.52-2.78.69-4.16,1.03-.81.21-1.58.55-2.45.56-.87.03-1.66.18-2.5.32-.74.13-1.38-.03-2-.11-.69-.09-.93-.89-.41-1.16.03-.02.33-.17.42-.15.26-.08,1.78-.44,3.03-.59.69-.07,1.38-.22,2.05-.2.55.02,1.05-.1,1.55-.31.6-.24,1.29-.47,1.95-.55,2.17-.29,4.28-1.06,6.3-1.95.64-.26,1.25-.57,1.87-.87.24-.11.52-.2.71-.34,1.12-.79,2.2-1.63,3.26-2.5,1.02-.91,2.04-1.85,2.84-2.95.5-.64.81-1.08,1.2-1.78.6-1.17,1.3-2,2.19-3.62.3-.39.58-.87.87-1.3.22-.34.38-.7.49-1.1.46-1.82,1.06-3.69,1.32-5.58.61-2.2.73-5.36.64-5.64.04-.68.09-1.36.13-2.04.04-.54.09-1.07.1-1.62.03-.71-.08-1.39-.3-1.97-.21-.6-.33-1.25-.29-1.94.06-1.21-.14-2.4-.61-3.53-.49-1.11-.77-2.25-.99-3.47-.18-1.06-.58-2.07-1.22-2.93-.46-.64-.79-1.37-1.06-2.14-.14-.35-.29-.82-.48-1.05-.44-.54-1.21-1.84-1.38-1.91-.15-.08-.36-.41-.48-.6-.39-.53-.73-1.01-1.17-1.49-.45-.49-.98-.88-1.48-1.32-.38-.37-.89-.77-1.12-1.11-.26-.42-.64-.68-1.02-.93-.37-.26-.77-.47-1.13-.76-.59-.51-1.31-.92-2.01-1.32-.42-.22-.84-.43-1.27-.6-.44-.15-.87-.27-1.31-.34-.47-.07-1.01-.28-1.5-.5-.56-.24-2.49-.81-2.78-.93-1.18-.59-2.68-.63-4.03-.76-.68-.05-1.34,0-2.01-.04-.53-.02-1.05-.16-1.59-.21-.36-.04-.8.19-1.1,0-.38-.23-.72-.27-1.34-.18-.74.13-1.4.33-2.33.27-.62-.03-1.27.12-1.99.09-.77-.03-1.68,0-2.46.16-.99.18-1.9.02-2.8.28-.86.23-1.59.26-2.39.35-1.49.23-2.96.6-4.25,1.32-1.29.67-2.64,1.27-4.04,1.71-.5.18-.99.38-1.46.62-.46.26-.93.53-1.38.84-1.22.84-2.33,1.84-3.54,2.64-.34.25-.55.56-.8.85-1.27,1.55-2.4,3.21-3.69,4.78-.37.49-.73,1.15-.99,1.77-.28.61-.48,1.25-.68,1.88-.77,1.21-1.12,2.78-1.68,4.09-.12.27-.19.47-.19.75-.01.37-.01.79-.1,1.16-.4,1.88-.35,3.82-.69,5.7.02.8.12,1.6.15,2.4.1,1.37.15,2.78.42,4.11.15.81.26,1.54.38,2.36.33,2.16.92,4.29,1.7,6.33.78,2.04,1.78,3.98,2.96,5.8.36.57.71,1.14,1.07,1.7.29.47.64.91,1.02,1.24.41.33.81.68,1.18,1.06.39.37.78.74,1.18,1.11,2.27,2.08,4.97,3.66,7.88,4.7,1,.36,1.92.83,3.01,1.06.44.08.9.18,1.35.3.46.1.91.23,1.34.4,2.56.46,5.18.65,7.81.66l2.49-.03c.44-.02.81.05,1.06.18.4.12.6-.15.87.53.09.08-.28.57-.44.63-1.07.42-1.96.25-3.3.43-.92.13-2.11.04-3.11.03Z"/>
    </g>
    <g>
      <path class="cls-2" d="M33.11,17.87s-.97-6.98-7.66-9.97c-1.3-.37,4.82,2.53,7.03,6.61.05.1,2.2-12.75,14.08-13.13.07,0,.13.06.11.13-.31,1.37-2.96,12.78-13.92,13.76"/>
      <path class="cls-2" d="M31.98,16.07c-.09-.32-.4-.52-.35-.88.02-.17-.27-.22-.18-.42.05-.13-.05-.21,0-.34.05-.17-.02-.26-.18-.35-.08-.07-.15-.09-.25-.26-.08-.13-.08-.23-.26-.31-.16-.07-.11-.38-.25-.47-.29-.18-.25-.48-.69-.57-.3-.13-.41-.41-.6-.58-.21-.23-.4-.5-.62-.72-.05-.06-.07-.15-.08-.23-.04-.19-.17-.27-.33-.31-.33-.07-.84-.83-1-.83-.11,0-.47-.17-.8-.34-.33-.18-.68-.31-.72-.36-.06-.06-.09-.15-.18-.09-.07-.14-.29-.07-.33-.23-.02-.02-.03-.03-.05-.04l.12.04-.02-.02s-.02.06.01-.09c.02-.12.04-.18.06-.23.03-.11.05-.22.05-.33,0-.05-.01-.12,0-.15.01-.01.02-.04,0-.05-.02,0,.11,0,.12-.07.02-.06.18-.17.26-.26l.14-.15.06-.08h0s.08.07.2.14c.25.14.24.74.57.75.5.33.83.52.93.53.19,0,.14.2.32.2.26,0,.39.54.51.46.13-.08.21.04.35,0,.29-.09.45.09.54.35.04.13.31.01.32.16.02.26.12.46.29.6.38.3.76.61,1.12.95.11.1.23.22.33.34.12.15.09.17.11.33.18.15.24.28.31.31.01,0,.02,0,.03,0,.09-.14.15.28.2,0,.03-.43,0-.39.07-.26.02.1.05.23.07.3.03.09.02,0,0-.12.05.1.05-.08.05-.06.16.27-.05-.28.15,0,0-.11.06-.11-.08-.38-.07-.14-.08-.16-.02-.12.06.04.04-.01,0-.09-.09-.15-.07-.13-.02-.18.03,0,.16-.23.11-.44.13-.18.07-.45.17-.65.16-.33.27-.67.63-.88.09-.06.11-.25.08-.38-.03-.22.26-.25.24-.46-.03-.25.22-.25.39-.32.13-.06.25-.11.24-.29-.02-.25.16-.42.25-.62.1-.21.41-.26.42-.51,0-.34.41-.44.39-.81-.01-.24.21-.23.28-.41.36.06.56-.1.7-.36.14-.27.22-.6.56-.74.1-.04.11-.24.18-.36.07-.12.13-.25.23-.34.21-.19.57-.12.75-.36.16-.22.35-.31.52-.52.12-.14.47-.22.62-.32.33-.23.44-.73.92-.64.16-.09.36-.11.44-.32.09-.27.28-.38.55-.35.05,0,.12.02.14,0,.19-.22.41-.41.73-.33.2-.12.41-.19.65-.18.23,0,.36-.33.62-.27.21.05.36-.04.51-.17.15-.13.34-.15.53-.13.15.01.26.05.44-.02.57-.22,1.22-.35,1.8-.36.27.02.56.03.77.11.14.13.27.26.39.4.04.04.08.11.14.19.05.07.05.12.08.18.04.13.16.18.14.4.12.24.03.51-.19.73-.1.11-.07.19.03.27.05.27-.08.57-.2.79-.13.23-.26.4-.26.55,0,.37,0,.57-.26.79-.1.08-.21.23-.18.34.05.26-.04.43-.2.6-.22.24-.36.51-.27.87.07.29-.06.55-.19.79-.17.31-.54.51-.52.93,0,.04-.04.09-.08.11-.47.3-.73.68-.73,1.26,0,.13-.12.27-.23.33-.4.22-.65.5-.71.97-.01.08-.08.18-.16.22-.65.27-.94.86-1.41,1.31-.35.37-.71.74-1.18.96-.12.06-.24.11-.32.25-.19.34-.48.58-.9.61-.25.03-.45.15-.58.35-.23.34-.53.54-.95.52-.19,0-.39.02-.55.1-.42.19-.88.26-1.27.48-.4.24-.89.18-1.31.37-.24.13-.46.36-.75.29-.29-.07-.53.04-.79.12-.23.07-.45-.09-.66-.19-.23-.11-.35-.92-.22-1.17,0-.02.09-.15.11-.13.07-.08.49-.38.85-.42.2-.02.4-.08.61,0,.18.08.32.03.44-.13.14-.19.33-.29.54-.27.34.03.67,0,.98-.1l.91-.36c.19-.07.39-.13.58-.19.07-.03.18-.01.23-.07.28-.33.61-.56.95-.78.33-.24.65-.5.93-.78.17-.18.3-.26.4-.51.16-.39.48-.51.9-.87.17-.04.3-.14.47-.2.13-.04.21-.13.25-.25.19-.56.56-1.01.8-1.53.49-.48.9-1.33.88-1.43.1-.18.24-.33.37-.49.11-.13.24-.23.35-.36.14-.17.17-.38.1-.61-.08-.24-.03-.43.17-.56.34-.24.48-.58.4-.99-.1-.39.07-.83.26-.82.2-.09.26-.32,0-.28-.2.04-.11,0,.02-.2.04-.07.1-.18.01-.13-.18.13-.26.04-.32.12-.05.08-.07.06-.09.05-.05-.02-.11-.03-.16-.02,0,0-.13.06-.21.12-.09.06-.17.12-.26.15-.15.05-.32.13-.46.06-.33-.17-.5.19-.78.19-.24,0-.47.07-.69.14-.26.09-.5.23-.64.52-.07.16-.24.2-.39.24-.17.05-.69.3-.79.29-.46-.06-.71.35-.99.62-.14.13-.21.35-.35.48-.11.1-.29.12-.42.21-.08.06-.03.31-.21.23-.23-.09-.32-.04-.38.15-.07.23-.05.51-.3.63-.17.08-.19.32-.39.41-.22.1-.4.29-.49.5-.12.27-.5.31-.56.59-.06.27-.29.37-.47.53-.33.31-.55.71-.53,1.2.02.49-.15.88-.52,1.19-.26.23-.4.51-.49.83-.06.22-.09.38-.25.81-.14.4-.31.8-.5,1.08-.12.15-.1.45-.16.66-.02.19-.11.2-.19.24l-.22.1c-.13.06-.24.1-.34.13-.08.02-.16.05-.25.07,0,0,0,0-.01,0h0s0,0,0,0h0c.23,1.31.06.36.11.66h0s0,0,0,0h0s-.03.04-.03.04c-.02.02-.04.04-.06.05-.04.03-.08.03-.12.02-.09-.1-.17-.17-.26-.21-.05-.03-.08,0-.14-.07l-.16-.18c-.17-.18-.35-.33-.55-.55l-.14-.16c-.2-.51-.43-.86-.68-1.17-.11-.14-.27-.34-.33-.43-.06-.09-.11-.19-.14-.31-.02-.1-.07-.14-.16-.17-.13-.03-.27-.05-.35-.14-.39-.42-.97-.61-1.24-1.18-.22-.11-.46-.19-.67-.31-.36-.21-.68-.48-1.07-.63-.24-.09-.42-.22-.62-.37-.24-.19-.48-.35-.74-.53l-.41-.28-.13-.09-.08-.06c-.05-.04-.1-.09-.15-.14.04.06-.24-.25-.29-.51-.04-.14-.05-.27-.05-.39,0-.22.15-.68.53-.92.17-.12.35-.17.49-.19h.11s.02-.01.02-.01h.09c.06,0,.12,0,.18.02.17.03.17.04.26.06l.08.02.08.04.21.11,1,.51c.32.19.63.4.95.61.2.12.35.3.49.49.12.15.25.3.44.33.4.07.68.33.96.58.82.72,1.53,1.55,2.17,2.42.22.31.27.69.5,1,.19.25.37.54.34.89.4.79.71,1.61.97,2.46.09.27.15.54.21.82.03.15-.03.29-.15.4-.11.16.16.19-.51.38-.08.04-.56-.02-.62-.05-.41-.24-.27-.53-.54-.87-.19-.22-.23-.57-.36-.82Z"/>
    </g>
  </g>
  <path class="cls-2" d="M35.23,66.18c-1.86,0-3.64-.24-5.32-.72-1.68-.48-3.19-1.23-4.54-2.25-1.35-1.01-2.45-2.3-3.32-3.84-.87-1.55-1.4-3.39-1.6-5.52h8.79c.13.83.47,1.54,1,2.12.53.58,1.23,1.02,2.1,1.32.86.3,1.85.45,2.95.45.73,0,1.39-.07,1.97-.2.58-.13,1.07-.33,1.47-.6.4-.27.7-.59.9-.97.2-.38.3-.84.3-1.37,0-.43-.07-.82-.22-1.17s-.37-.66-.65-.92c-.28-.27-.65-.47-1.1-.62s-.97-.22-1.57-.22h-4.59v-7.54h3.24c.67,0,1.23-.08,1.7-.25.47-.17.84-.38,1.12-.65.28-.27.49-.57.62-.92.13-.35.2-.71.2-1.07,0-.57-.13-1.06-.4-1.47-.27-.42-.68-.75-1.25-1-.57-.25-1.28-.37-2.15-.37-.93,0-1.75.14-2.45.42-.7.28-1.25.67-1.65,1.15-.4.48-.63,1.02-.7,1.62h-8.69c.2-2,.7-3.72,1.5-5.17s1.83-2.65,3.09-3.59c1.26-.95,2.7-1.65,4.29-2.1,1.6-.45,3.28-.67,5.04-.67,1.53,0,3.03.17,4.49.52,1.46.35,2.79.92,3.97,1.7,1.18.78,2.13,1.81,2.85,3.07.72,1.27,1.07,2.8,1.07,4.59,0,.93-.16,1.83-.47,2.7-.32.87-.75,1.64-1.3,2.32-.55.68-1.16,1.24-1.82,1.67,1.13.47,2.05,1.12,2.77,1.97.72.85,1.25,1.83,1.6,2.95.35,1.12.52,2.29.52,3.52,0,2.03-.38,3.76-1.15,5.19-.77,1.43-1.81,2.58-3.12,3.44-1.32.87-2.79,1.5-4.42,1.9-1.63.4-3.33.6-5.09.6Z"/>
</svg>