<?xml version="1.0" encoding="UTF-8"?>
<svg id="illuer_hvid_bg" xmlns="http://www.w3.org/2000/svg" viewBox="0 0 96.33 144.62">
  <defs>
    <style>
      .cls-1 {
        fill: #ff9400;
      }

      .cls-2 {
        fill: #0354f0;
      }
    </style>
  </defs>
  <path class="cls-2" d="M47.45,120.01c0-.58-.31-1.11-.02-1.65.14-.24-.24-.54.05-.79.18-.15.1-.35.26-.52.21-.21.17-.39.04-.67-.04-.16-.12-.27-.11-.6,0-.26.1-.39-.06-.69-.14-.27.26-.62.17-.89-.19-.56.22-.89-.22-1.53-.21-.54.02-1.01.05-1.45.09-.55.18-1.11.33-1.64.03-.13.15-.24.26-.35.23-.23.23-.49.14-.78-.18-.56.57-1.95.49-2.2-.12-.34.21-2.7.33-2.88.07-.12.21-.21.08-.34.21-.17,0-.53.25-.65.2-.39.29-.53.37-1.03.08-.48,1.02-.77.86-1.27.24-.93.34-1.52.28-1.67-.1-.28.22-.31.12-.59-.14-.38.58-.88.38-1.02-.22-.15-.07-.33-.25-.5-.36-.36-.21-.67.1-.94.16-.14-.23-.41-.02-.52.37-.19.58-.46.63-.8l.16-2.19c.05-.46.04-.93.35-1.35-.02-.71.07-1.05-.02-1.34-.25-.36.12-.69-.23-1.02-.5-.45-.42-.35-.4-.99.15-.12.33-.48.12-.59.14-.34.05-.64.07-.67.4-.54-.21-.42.26-.98-.05-.3.02-.47-.34-.59-.19-.06-.22-.19-.1-.34.11-.14.05-.25-.07-.37-.49-.51.13-1.2-.3-1.72.08-.33-.19-.64-.21-.97-.01-.54-.11-1.06.23-1.6.09-.14-.06-.4-.2-.55-.24-.25.16-.53-.06-.77-.26-.28.09-.5.25-.73.13-.19.24-.37.04-.57-.28-.28-.21-.64-.29-.96-.08-.34.26-.71,0-.99-.37-.39.04-.92-.42-1.27-.3-.23-.02-.46-.15-.72.49-.34.53-.73.36-1.13-.19-.43-.52-.82-.35-1.34.05-.16-.2-.35-.3-.53-.1-.18-.22-.37-.25-.56-.06-.4.35-.82.17-1.22-.17-.37-.15-.67-.32-1.04-.12-.25.03-.77-.01-1.04-.12-.6-.83-.97-.41-1.6-.05-.26.02-.56-.28-.75-.38-.23-.47-.53-.3-.9.03-.07.08-.16.04-.2-.27-.34-.51-.69-.28-1.14-.14-.31-.2-.63-.13-.98.07-.34-.47-.55-.33-.93.11-.3-.02-.53-.23-.75-.2-.22-.23-.49-.19-.77.03-.2.08-.44-.03-.6-.63-.89-.88-1.84-.67-2.92.08-.4-.11-.73-.23-1.12-.27-.27-.17-.51.1-.74.14-.12.01-.19-.2-.25-.51-.44.06-1.03-.14-1.26-.28-.33-.46-.69-.28-1.15.08-.19.09-.47-.05-.58-.31-.27-.34-.56-.27-.93.09-.5-.01-.96-.5-1.3-.39-.27-.45-.69-.54-1.09-.12-.52.13-1.12-.34-1.55-.05-.04-.05-.13-.03-.2.22-.81.1-1.52-.59-2.09-.15-.13-.21-.38-.16-.58.16-.66.11-1.25-.45-1.72-.1-.09-.16-.25-.13-.38.28-1.02-.19-1.92-.47-2.85-.23-.74-.4-1.49-.41-2.28,0-.21.01-.41-.14-.59-.38-.48-.44-1.04-.27-1.63.11-.37.04-.72-.19-1.02-.39-.5-.46-1.04-.23-1.64.1-.28.16-.58.11-.85-.13-.7.1-1.43-.15-2.12-.23-.71.07-1.43-.04-2.16-.06-.43-.39-.87-.15-1.32.23-.44.17-.88.18-1.37.03-.44.42-.72.77-1.02.18-.16.63-.15,1.03,0,.38.19.75.43.9.57.02.01.18.2.12.21.07.13.29.82.2,1.36-.04.31-.04.61-.25.9-.17.24-.19.48,0,.73.24.3.3.63.18.94-.38,1.03-.21,2.1-.13,3.16.02.33.02.67.03,1,0,.13-.1.29-.04.39.65,1.23.65,2.61,1.15,3.88.15.38.19.64.45.98.42.56.35,1.12.51,2.02-.11.27-.11.55-.18.84-.06.23-.03.42.11.59.63.8.79,1.77,1.21,2.64.08,1.15.55,2.64.7,2.75.07.33.07.68.08,1.03,0,.28-.04.56-.05.83,0,.36.16.67.5.89.36.23.48.54.35.92-.22.67-.12,1.24.39,1.74.5.5.59,1.09.42,1.76-.15.58-.02,1.1.47,1.53.36.32.38.73.27,1.17-.05.21-.18.48-.07.61.26.3.26,1.07.41,1.13.14.05.14.25.15.36.02.34.06.63.14.95.08.32.39.6.51.92.1.25.21.57.09.81-.3.55.29.89.24,1.38-.05.41.02.83.09,1.23.09.47.23.93.66,1.3.23.2.23.5.23.78,0,.32.14,1.33.06,1.51-.35.72.1,1.39.3,2.05.1.33.36.62.44.95.06.26-.08.55-.06.82.02.18.41.34.14.54-.35.25-.36.42-.15.7.24.34.65.62.54,1.1-.07.33.21.62.11.99-.11.4-.09.86.07,1.24.2.48-.23.98.01,1.42.23.42.03.81-.02,1.23-.1.78,0,1.52.49,2.21.48.69.57,1.46.29,2.24-.21.56-.17,1.09-.1,1.66.1.76.27,1.54-.1,2.29-.11.22.03.4.08.6.26,1.03.37,2.09-.12,3.11-.15.31-.08.69-.06,1.04.03.35.15.69.24,1.04-.46.71-.14,1.55-.65,2.24-.1.14-.12.25-.05.4.09.2.21.43.17.62-.09.49-.07,1-.09,1.5-.05.5-.18,1-.51,1.44,0,.43.05.87,0,1.3-.08.7-.31,1.34-.31,2.03,0,.42-.1.77-.23,1.16-.36,1.03-.55,2.1-.8,3.15l-.71,3.17c-.08.32-.24.63-.4.94-.13.25-.24.51-.14.78.21.56.13,1.09.05,1.62-.21,1.53-.39,3.06-.48,4.58-.04.53-.37.98-.32,1.53.04.44.02.91-.28,1.31-.07,1.24-.07,2.46.03,3.59.03.36.08.69.12,1,.03.15-.09.31-.29.44-.18.21.23.04-.84.53-.06.03-.25.17-.48.21-.23.05-.46.06-.52.03-.77-.39-.5-.94-.88-1.57-.25-.45-.2-1.06-.27-1.56Z"/>
  <path class="cls-2" d="M43.97,24.1S38.55-5.06,0,.77c-.2-.11,8.04,28.72,43.96,23.33Z"/>
  <path class="cls-2" d="M43.33,24.1S48.74-5.06,87.29.77c.2-.11-8.04,28.72-43.96,23.33Z"/>
  <g>
    <path class="cls-1" d="M4.57,131.65s-.54-17.96,10.34-24.5c10.89-6.53,13.43-17.6,20.32-19.89,12.03-4.01,25.32-9.78,40.1,13.91,0,0,18.51,15.24,19.05,29.94,0,3.27-14.7,8.71-26.67,9.8-11.98,1.09-58.79,5.44-63.14-9.25Z"/>
    <path class="cls-1" d="M4.17,123.97c.26-1.25.16-2.5.77-3.62.26-.51.05-1.23.52-1.72.28-.3.33-.75.6-1.08.38-.41.48-.79.57-1.42.1-.35.06-.61.41-1.31.26-.55.47-.79.61-1.46.14-.59.96-1.18,1.18-1.76.21-.61.63-.98.95-1.43.35-.43.64-.91.99-1.55.34-.52.77-.97,1.2-1.38.48-.35.97-.66,1.39-.99l.83-.57.74-.48c.49-.32,1.01-.61,1.48-.97.23-.16.51-.26.77-.35.58-.2.96-.6,1.3-1.1.7-.85,3.23-2.94,3.45-3.42.15-.33,1.03-1.49,1.86-2.68.84-1.18,1.67-2.35,1.83-2.51.21-.21.45-.36.46-.63.41-.28.61-1.01,1.02-1.2.67-.72.95-.96,1.68-1.9.73-.9,2.16-1.18,2.8-2.06,1.77-1.48,3.3-1.96,3.53-2.16.47-.34.8-.12,1.27-.46.64-.47,2.25-.39,2.36-.67.12-.3.59-.36.81-.65.47-.59,1.32-.76,2.16-.76.44.01.77-.52,1.17-.44.71.15,1.43.1,2.25-.06.86-.19,1.72-.4,2.6-.5l1.32-.19c.44-.05.89-.05,1.34-.07.57,0,1.14-.08,1.71,0,.57.07,1.12.19,1.63.38.86,0,1.47.24,1.98.32.5.11.88.18,1.23.21.9,0,1.57.64,2.43.56.61-.06.83-.05,1.09.04.26.09.56.27,1.27.65.19.29.91.81,1.22.81.61.59,1.28.94,1.33,1,.82,1.07,1.03.39,1.74,1.64.57.44.81.76,1.3.71.25-.03.5.15.68.48.18.29.4.44.69.6,1.2.63,1.87,2.19,3,2.93.41.67,1.1,1.13,1.58,1.77.38.52.8,1.01,1.13,1.55.32.54.6,1.1.77,1.7.09.32.55.78.88,1.03.51.36.64,1.33.75,1.1.03,0,0-.03.05,0l.11.07c.07.05.13.09.19.15.11.1.2.22.27.34.14.24.22.5.35.74.21.38.4.74.89.97.7.31,1.21.96,1.79,1.47.61.53.86,1.36,1.53,1.71.93.5,1.34,1.64,2.29,2.07.61.3.67.84,1.16,1.27.02.83.5,1.56,1.21,2.27.77.74,1.59,1.39,2.07,2.47.15.34.65.62.96.97.31.35.64.7.89,1.09.26.41.41.85.56,1.28.14.45.28.89.58,1.29.54.76.86,1.37,1.34,2.18.33.54.64,1.69.88,2.29.48,1.37,1.6,2.28,1.36,3.75.15.64.21,1.33.58,1.85.41.68.54,1.47.4,2.33-.03.22-.04.49-.02.69.08.79-.14,1.61-.63,2.29-.12.16-.26.35-.38.48-.12.11-.23.21-.35.32-.24.2-.49.33-.76.45-.67.62-1.38,1.04-2.17,1.33-.75.28-1.22,1.04-2.07,1.21-.67.12-1.18.44-1.68.82-.51.38-1.11.59-1.75.72-.45.09-.98.18-1.34.39-2.09,1.18-4.33,1.88-6.74,2.03-.9.05-1.68.36-2.61.58-.7.36-1.22.3-1.66.06-.23-.12-.43.03-.65.27-1.19.63-2.33.09-2.94.32-.87.32-1.79.52-2.77.34-.39-.08-1-.1-1.33.03-.74.31-1.4.32-2.2.24-1.07-.11-2.14-.03-3.13.44-.8.38-1.77.41-2.71.47-1.22.08-2.44-.24-3.65.19-.12.04-.32.04-.46,0-1.7-.32-3.33-.29-4.98.3-.36.13-.97.14-1.37.06-1.39-.28-2.72-.35-4.09.1-.25.08-.66.1-.91.04-2.13-.51-4.34-.28-6.52-.29-1.74,0-3.47-.07-5.17-.33-.46-.07-.89-.15-1.37-.08-1.26.19-2.5.04-3.69-.37-.75-.24-1.54-.36-2.31-.26-1.28.16-2.48-.07-3.67-.58-.55-.24-1.18-.46-1.79-.56-.78-.16-1.55-.4-2.31-.63-.76-.27-1.52-.48-2.31-.64-.8-.19-1.56-.44-2.29-.83l-1.1-.53c-.37-.19-.73-.39-1.11-.55-.45-.19-.92-.33-1.37-.57-.45-.23-.92-.43-1.26-.88-.34-.43-.73-.75-1.11-1.11-.37-.38-.75-.75-1.13-1.13-.59-.8-.77-1.64-.81-2.47-.1-.92,1.18-1.42,1.75-1.04.04.03.35.23.33.33.1.1.35.47.77.86.34.43.89.85,1.28,1.32.52.45,1.02.9,1.49,1.41.37.45.82.75,1.42.82.35.05.69.15,1.03.28.35.11.68.27.97.47,1.98,1.27,4.4,1.82,6.76,2.37.74.15,1.47.36,2.22.51.29.06.58.23.85.23,3.05,0,6.11.54,9.18.51.92-.01,1.51.04,2.41-.11,1.47-.23,2.68.02,4.76.11.54.17,1.17.24,1.73.39.45.12.89.13,1.34.04,2.09-.41,4.28-.38,6.41-.63,2.55.12,6.06-.17,6.37-.31.76-.03,1.53,0,2.29.03.61.04,1.21.08,1.81.12.8.03,1.54-.11,2.19-.44.67-.34,1.4-.45,2.17-.31,1.37.26,2.69.17,4.01-.33,1.3-.49,2.56-.6,3.95-.49,1.2.1,2.38-.13,3.44-.73.78-.45,1.67-.57,2.59-.58.43,0,.99.04,1.29-.12.7-.37,2.35-.68,2.48-.86.13-.17.56-.26.8-.32.72-.17,1.34-.34,2.02-.59.69-.25,1.28-.72,1.95-1.04.52-.25,1.17-.57,1.64-.59,1.12-.05,1.78-.93,2.69-1.26.78-.29,1.53-.74,2.08-1.2.09-.07.16-.13.22-.2.06-.06.15-.15.15-.17.04-.06.07-.13.07-.2,0-.18-.14-.11-.37-.69-.25-.45-.25-1.04-.26-1.6-.05-.31-.19-.98-.31-1.61-.06-.32-.11-.63-.16-.88-.06-.25-.11-.44-.11-.52,0-.71-.22-1.42-.51-2.1-.34-.67-.77-1.31-1.11-1.95-.32-.64-.9-1.14-1.26-1.76-.3-.47-.39-1.09-.71-1.58-.2-.34-.76-.53-.69-.97.09-.56-.07-.9-.59-1.36-.63-.54-1.35-.91-1.8-1.82-.33-.6-.96-1.01-1.33-1.71-.38-.76-1.03-1.52-1.66-2.11-.81-.74-1.13-1.77-1.96-2.38-.81-.56-1.18-1.32-1.76-2-.53-.65-1.1-1.26-1.72-1.79-.31-.27-.64-.52-.98-.74-.17-.11-.34-.22-.52-.32l-.27-.14-.14-.07-.07-.03-.13-.08c-.35-.17-.59-.48-.85-.8-.15-.14-.29-.29-.42-.44-.27-.3-.52-.62-.76-.96-.47-.67-.85-1.39-1.17-2.16-.5-1.08-1.21-2-2-2.93-.51-.65-1.13-1.18-1.68-1.78-.56-.59-1.03-1.25-1.47-1.93-.27-.39-.65-.55-1-.8-.45-.32-.89-.63-1.32-.96-.44-.31-.91-.56-1.34-.87-.44-.3-.86-.64-1.28-.96-.44-.29-.87-.6-1.29-.96-.25-.21-.56-.41-.89-.57-.35-.12-.71-.22-1.05-.32-.68-.19-1.36-.33-2.07-.34-1.34-.76-3.04-.64-4.52-1.04-.31-.08-.54-.08-.82.01-.39.13-.81.25-1.21.31-1.02.09-2.02.27-3.03.54-1.01.21-2.01.48-3.08.52-.82.32-1.62.72-2.45,1.02-1.42.55-2.93,1-4.32,1.65-.23.1-.4.19-.54.27-.15.08-.3.16-.46.22-.31.11-.6.35-.93.51-1.73,1.03-3.18,2.97-4.65,4.89-1.47,1.95-2.92,4.04-4.61,6-.5.62-1.14,1.14-1.72,1.67-.49.43-1.02.85-1.33,1.39-.32.56-.76,1.03-1.21,1.5-.23.23-.47.46-.71.68l-.78.62-1.13.89-1.19.81c-.87.57-1.41,1.01-2.04,1.46-.15.12-.31.22-.46.34l-.41.41-.82.82c-.5.59-.98,1.22-1.43,1.86-.28.47-.62.89-.96,1.31-.33.44-.6.93-.83,1.46-.19.42-.35.89-.55,1.34-.19.46-.47.87-.74,1.28-.91,2.61-1.47,5.39-1.78,8.19-.1.88-.18,1.77-.23,2.66-.04.47-.18.85-.42,1.11-.24.41.2.63-.97.89-.14.11-.94-.32-1.03-.51-.59-1.23-.2-2.2-.35-3.7-.1-1.04.17-2.35.29-3.44Z"/>
  </g>
</svg>