<?xml version="1.0" encoding="UTF-8"?>
<svg id="illuer_hvid_bg" xmlns="http://www.w3.org/2000/svg" viewBox="0 0 205.61 149.82">
  <defs>
    <style>
      .cls-1 {
        fill: #ff9400;
      }

      .cls-2 {
        fill: #0354f0;
      }
    </style>
  </defs>
  <path class="cls-1" d="M83,106.15H26.11c-.37-1.12-.68-2.29-.95-3.5-.97-4.31-1.16-8.35-.57-12.13h59.06c1.13,5.69.92,10.9-.64,15.63Z"/>
  <path class="cls-1" d="M118.39,106.15h-56.89c-.37-1.12-.68-2.29-.95-3.5-.97-4.31-1.16-8.35-.57-12.13h59.06c1.13,5.69.92,10.9-.64,15.63Z"/>
  <path class="cls-1" d="M159.21,106.15h-56.89c-.37-1.12-.68-2.29-.95-3.5-.97-4.31-1.16-8.35-.57-12.13h59.06c1.13,5.69.92,10.9-.64,15.63Z"/>
  <path class="cls-1" d="M180,106.15h-56.9c-.37-1.12-.68-2.29-.95-3.5-.97-4.31-1.15-8.35-.56-12.13h59.06c1.13,5.69.92,10.9-.64,15.63Z"/>
  <g>
    <path class="cls-1" d="M91.13,49.15h-17.79s-42.26-.02-42.26-.02c-.14-5.28,1.06-10.1,3.6-14.47,3.41-5.85,9.63-9.92,18.67-12.23h0c.53-.14,1.06-.26,1.61-.39.43-.1.86-.19,1.28-.27,0,0,0,0,.01,0,8.56-1.71,15.74-1.05,21.16,2.08.49.29.97.59,1.43.92,5.8,4.08,9.61,10.14,11.41,18.19.48,2.13.77,4.2.87,6.2Z"/>
    <path class="cls-2" d="M53.99,19.63c.46-4.82,2.75-11.24,11.01-12.41.13,3.34-.71,11.31-9.53,14.88.2.44.37.84.49,1.2l.08.23.02.05c.14.52-.15,1.07-.67,1.24-.52.17-1.08-.1-1.28-.61l-.02-.05-.07-.2c-.74-2.09-2.86-5.77-7.09-6.72l-.21-.04h-.05c-.53-.14-.86-.67-.76-1.21.11-.54.62-.89,1.16-.82h.05s.26.06.26.06c3.07.69,5.2,2.51,6.61,4.39Z"/>
  </g>
  <g>
    <path class="cls-1" d="M132.2,42.79c-.13,2.25-.43,4.38-.91,6.38h-9.94s-30.23-.02-30.23-.02h-17.79c-.73-3.04-.98-6.31-.77-9.84.35-6.04,1.96-11.19,4.85-15.47,1.04-1.55,2.26-2.99,3.63-4.31,4.88-4.69,11.99-6.89,21.31-6.63.55.02,1.1.04,1.66.07.44.02.87.05,1.3.09,9.5.77,16.65,3.82,20.91,9.1.25.31.49.62.73.94,3.95,5.35,5.7,11.92,5.24,19.68Z"/>
    <path class="cls-2" d="M103.75,10.39c1.76-4.51,5.74-10.04,14-8.9-.79,3.25-3.79,10.68-13.25,11.68.08.47.12.91.15,1.29v.24s.01.05.01.05c0,.54-.44.99-.99,1.01-.55.02-1.01-.39-1.06-.94v-.05s-.01-.21-.01-.21c-.13-2.21-1.16-6.33-4.97-8.41l-.19-.1-.05-.03c-.47-.27-.65-.87-.4-1.36.25-.49.84-.69,1.34-.47l.05.02.23.12c2.77,1.51,4.31,3.85,5.15,6.04Z"/>
  </g>
  <g>
    <path class="cls-1" d="M179.82,49.18l-48.52-.02h-9.94c-.14-.6-.26-1.21-.37-1.82-1.46-8.11-.26-15.17,3.61-21.22.69-1.07,1.47-2.08,2.36-3.02,3.8-4.05,9.41-6.85,16.81-8.41.53-.11,1.08-.22,1.64-.32.43-.08.85-.15,1.28-.21h0c9.41-1.48,17.08-.19,22.46,3.95,5.62,4.32,9.17,10.54,10.63,18.65.8,4.46.81,8.59.04,12.41Z"/>
    <path class="cls-2" d="M144.54,11.93c.66-4.79,3.23-11.11,11.53-11.93,0,3.34-1.19,11.27-10.15,14.46.19.44.33.86.44,1.22l.07.23v.05c.13.53-.18,1.07-.71,1.21-.53.15-1.08-.15-1.25-.66l-.02-.05-.06-.2c-.65-2.12-2.61-5.89-6.8-7.02l-.21-.05h-.05c-.52-.17-.83-.71-.7-1.24.13-.53.66-.87,1.19-.77h.05s.26.08.26.08c3.04.82,5.09,2.73,6.42,4.67Z"/>
  </g>
  <g>
    <g>
      <path class="cls-2" d="M7.28,48.74c1.05.07,1.89.38,2.57.85,0,0,0-.01,0-.02.29-1.32-.05-2.59-.02-3.97-.06-1.19.03-2.62-.16-3.73-.11-.63-.13-1.18-.14-1.69.26-.11.49-.28.59-.54.28-.7.67-1.38.71-2.24.03-.49.04-.96.11-1.42l.02-.12v-.05s.03-.07.04-.1c.03-.07.07-.12.13-.15.06-.02.08-.08.14-.09.05,0,.09-.03.15-.07.05-.04.11-.08.18-.12.03,0,.01-.02.08-.03l.19-.03c.12-.02.25-.03.37-.04,1.7-.12,3.38.21,5.09.01,1.68-.19,3.39.08,5.09.05.87-.01.86.08.97.22.07.18.02.34,0,.42,0,.02,0,.04,0,.06l.02.03s.01-.01.02.1c.04.33.09.67.17,1,.19.81.19,1.67.01,2.51-.28,1.33-.32,2.67-.05,4.02.1.51.05.98,0,1.49-.15,1.68-.15,3.36-.13,5.06.7-.16,1.41-.3,2.11-.47.51-.13,1.03-.1,1.53.04,0-.56-.04-1.11-.14-1.68-.18-.99-.17-1.66-.23-2.68-.1-1.7-.09-3.42-.11-5.13,0-.86-.03-1.71-.07-2.56-.02-.43-.05-.85-.09-1.27l-.06-.73c-.02-.29-.04-.58-.1-.85-.06-.36-.03-.86-.29-1.24-.31-.48-.83-.82-1.37-.9-.27-.06-.57-.08-.88-.08l-.84-.02c-2.73-.06-5.48.04-8.17-.38-.82-.13-1.72-.06-2.5.18-.16.05-.32.09-.49.11l-.12.02h-.17s-.35.02-.35.02c-.24,0-.47,0-.72-.03-.22.02-.46.02-.71.02-.14,0-.32,0-.43.03-.13.03-.26.13-.36.23-.2.2-.36.45-.49.74-.25.57-.38,1.3-.49,1.9-.12.64-.15,1.34-.15,1.96-.76.25-.44.51-.65.94-.23.3-.38.76-.38,1.3l-.02,3.08.02,6.05c.17-.03.35-.04.54-.03Z"/>
      <path class="cls-2" d="M27.11,103.98c-.01-.82.02-1.55.06-2.38.02-.28.06-.77-.07-.96-.13-.2.03-2.08-.16-2.95-.08-.38.1-.97.19-1.44.2-1.01.27-2.03,0-2.99-.2-.7-.3-1.41-.3-2.12-.25.07-.51.11-.75.1-.87-.05-1.74-.12-2.61-.21.02.09.03.17.05.26.2.28.31.52.14.74-.32.42-.47.95-.26,1.76.03,1.02.15,1.92-.02,2.87-.43,2.55-.39,5.03.04,7.55.07.44-.02,1-.09,1.48-.04.3-.07.59-.07.88h.29c.15,0,.28.02.42.04,1.16.06,2.3.16,3.46.34,0,0,0,0,.01,0,0-.17-.02-.33-.03-.49-.06-.84-.3-1.65-.31-2.48Z"/>
      <path class="cls-2" d="M9.72,103.95c-.23-.21.35-1.86.11-2.69-.17-.61.14-.89-.03-1.49-.1-.34-.15-1.82-.15-4.2-.29-1.11.57-2.39.53-3.58-.03-1.06,0-1.5.08-2.24-1.15,0-2.31.07-3.46.21,0,2.32.03,4.64-.04,6.95-.03,1.02-.03,1.95.07,2.98.17,1.67.12,3.42.2,5.13.04.73.12,1.46.19,2.19.2-.04.41-.08.61-.08.81,0,1.62.01,2.43.02.17-.76.18-1.53-.19-2.12-.2-.32-.11-.84-.36-1.06Z"/>
    </g>
    <g>
      <path class="cls-2" d="M179.56,48.74c1.05.07,1.89.38,2.57.85,0,0,0-.01,0-.02.29-1.32-.05-2.59-.02-3.97-.06-1.19.03-2.62-.16-3.73-.11-.63-.13-1.18-.14-1.69.26-.11.49-.28.59-.54.28-.7.67-1.38.71-2.24.03-.49.04-.96.11-1.42l.02-.12v-.05s.03-.07.04-.1c.03-.07.07-.12.13-.15.06-.02.08-.08.14-.09.05,0,.09-.03.15-.07.05-.04.11-.08.18-.12.03,0,.01-.02.08-.03l.19-.03c.12-.02.25-.03.37-.04,1.7-.12,3.38.21,5.09.01,1.68-.19,3.39.08,5.09.05.87-.01.86.08.97.22.07.18.02.34,0,.42,0,.02,0,.04,0,.06l.02.03s.01-.01.02.1c.04.33.09.67.17,1,.19.81.19,1.67.01,2.51-.28,1.33-.32,2.67-.05,4.02.1.51.05.98,0,1.49-.15,1.68-.15,3.36-.13,5.06.7-.16,1.41-.3,2.11-.47.51-.13,1.03-.1,1.53.04,0-.56-.04-1.11-.14-1.68-.18-.99-.17-1.66-.23-2.68-.1-1.7-.09-3.42-.11-5.13,0-.86-.03-1.71-.07-2.56-.02-.43-.05-.85-.09-1.27l-.06-.73c-.02-.29-.04-.58-.1-.85-.06-.36-.03-.86-.29-1.24-.31-.48-.83-.82-1.37-.9-.27-.06-.57-.08-.88-.08l-.84-.02c-2.73-.06-5.48.04-8.17-.38-.82-.13-1.72-.06-2.5.18-.16.05-.32.09-.49.11l-.12.02h-.17s-.35.02-.35.02c-.24,0-.47,0-.72-.03-.22.02-.46.02-.71.02-.14,0-.32,0-.43.03-.13.03-.26.13-.36.23-.2.2-.36.45-.49.74-.25.57-.38,1.3-.49,1.9-.12.64-.15,1.34-.15,1.96-.76.25-.44.51-.65.94-.23.3-.38.76-.38,1.3l-.02,3.08.02,6.05c.17-.03.35-.04.54-.03Z"/>
      <path class="cls-2" d="M199.39,103.98c-.01-.82.02-1.55.06-2.38.02-.28.06-.77-.07-.96-.13-.2.03-2.08-.16-2.95-.08-.38.1-.97.19-1.44.2-1.01.27-2.03,0-2.99-.2-.7-.3-1.41-.3-2.12-.25.07-.51.11-.75.1-.87-.05-1.74-.12-2.61-.21.02.09.03.17.05.26.2.28.31.52.14.74-.32.42-.47.95-.26,1.76.03,1.02.15,1.92-.02,2.87-.43,2.55-.39,5.03.04,7.55.07.44-.02,1-.09,1.48-.04.3-.07.59-.07.88h.29c.15,0,.28.02.42.04,1.16.06,2.3.16,3.46.34,0,0,0,0,.01,0,0-.17-.02-.33-.03-.49-.06-.84-.3-1.65-.31-2.48Z"/>
      <path class="cls-2" d="M182,103.95c-.23-.21.35-1.86.11-2.69-.17-.61.14-.89-.03-1.49-.1-.34-.15-1.82-.15-4.2-.29-1.11.57-2.39.53-3.58-.03-1.06,0-1.5.08-2.24-1.15,0-2.31.07-3.46.21,0,2.32.03,4.64-.04,6.95-.03,1.02-.03,1.95.07,2.98.17,1.67.12,3.42.2,5.13.04.73.12,1.46.19,2.19.2-.04.41-.08.61-.08.81,0,1.62.01,2.43.02.17-.76.18-1.53-.19-2.12-.2-.32-.11-.84-.36-1.06Z"/>
    </g>
  </g>
  <path class="cls-2" d="M186.24,107.2c-2.56-.03-4.91.31-7.35.02-1.11-.13-2.37.27-3.56-.01-.74-.18-1.62-.08-2.4-.23-1.03-.2-1.82-.15-3.02,0-.72.06-1.16.14-2.69.16-1.19.02-1.81-.06-3.1.12-1.12.16-2.93-.19-4.11-.06-2.42.25-4.16-.1-6.77.41-2.3.28-4.57.13-6.55.18-2.54,0-5.08-.02-7.62-.06-.6,0-1.21-.11-1.77-.19-1.23-.18-2.38-.13-3.63,0-2.35.27-9.25-.2-10.29-.06-1.44.2-12.28.35-13.2.28-.6-.04-1.14-.15-1.59,0-.97-.16-2.36.12-3.17-.1-1.96-.1-2.67-.16-5-.12-2.21.04-4.57-.82-6.63-.53-4.4,0-7.15.05-7.78.15-1.13.17-1.64-.14-2.76.03-1.54.24-4.59-.34-4.98-.11-.41.25-1.37.16-1.97.36-1.27.43-2.96.34-4.58.1-.84-.13-1.75.31-2.46.13-1.28-.32-2.73-.47-4.37-.45l-10.46.12c-2.21.02-4.47.06-6.53-.23-3.34.06-4.96,0-6.33.09-1.65.27-3.29-.08-4.78.29-2.05.51-1.6.42-4.64.4-.57-.15-2.27-.33-2.79-.12-1.6-.14-3.05-.05-3.19-.07-2.51-.4-2.01.21-4.63-.26-1.42.04-2.19-.04-2.83.32-.33.19-.91.21-1.6.09-.64-.11-1.16-.06-1.78.05-2.51.46-5.62-.18-8.19.22-.76-.04-1.56,0-2.31.05-.15.06-.22.16-.29.25-.03.04-.05.08-.07.12-.01.06-.02,0-.02.42-.01.63-.02,1.25-.03,1.87-.04,1.24-.12,2.46-.31,3.66-.1.63.02,1.9.16,2.66.22,1.29-.2,2.41,0,3.64.24,1.44-.13,2.28-.32,3.3-.15.81-.28,1.6-.11,2.62.24,1.44.14,3.07.18,4.63.04,1.61-.34,3.14-.11,4.58.32,2.01-.14,4.23.27,6.14.13.62.12,1.16.09,1.7-.02.27-.03.54-.05.82,0,.14,0,.29,0,.44,0,.1,0,.1.03.15-.25.19-.24.62.07.87.17.12.3.2.62.19.46,0,.95-.02,1.44-.05,2.12-.13,4.13-.4,6.42-.16.72.07,1.76-.15,2.68-.22.91-.07,1.84-.15,2.76-.15,1.91,0,3.53.48,5.5.36,1.83-.11,3.19-.04,5.01-.15,1.22-.08,3.51.16,4.78.15,2.84,0,5.14-.65,7.69-.12,1.25,0,2.57.12,3.67-.14,1.38-.33,2.82-.37,4.39-.14.28.04.66.11.89.08,1.81-.21,3.59-.38,5.46-.06,1.55-.08,3.04-.07,4.6.07,1.5.13,2.96-.36,4.57-.14,1.28.17,2.44.08,3.63-.08,1.21-.16,2.44-.13,3.71-.03.89.07,1.94.17,2.75.09,4.66-.43,9.25-.48,13.97-.04,1.76.16,3.43.04,5.31.02,1.52-.2,2.49-.06,3.26.26.4.16.85.06,1.36-.14,2.53-.4,4.6.28,5.87.14,1.8-.2,3.62-.3,5.52-.02.78.11,2.02.19,2.7.09,1.57-.24,2.9-.2,4.5-.05,2.15.2,4.33.21,6.4-.18,1.67-.32,3.64-.28,5.55-.27,2.46,0,4.9.4,7.4.05.25-.04.66-.02.94.02,3.4.41,6.72.46,10.1-.06.74-.12,1.96-.1,2.78,0,2.79.33,5.48.42,8.26,0,.51-.08,1.33-.09,1.85-.03,4.29.54,8.76.3,13.15.25,3.5-.04,6.98-.04,10.43.12.94.04,1.81.1,2.75,0,2.49-.27,4.97-.23,7.43.05,1.55.18,3.15.18,4.64-.01.63-.08,1.24-.13,1.86-.17l.46-.02h.23c.06-.01.04-.02.06-.02.05-.01.1-.03.15-.05.09-.04.19-.11.27-.2.04-.05.08-.1.11-.18.03-.3.07-.6.1-.91.14-1.15.23-2.47.22-3.69-.03-3.15.24-6.31.05-9.43-.2-3.17.14-6.27.01-9.42-.07-1.85-.41-3.63-.22-5.53.19-1.9.07-3.69,0-5.55-.02-.41,0-.81.02-1.19.02-.19.03-.38.05-.56.01-.1.02-.19.03-.19.01-.03.02-.06.03-.09.07-.25.04-.6-.19-.87-.21-.29-.47-.72-.61-1.14-.13-.41.02-.93.85-.93.05,0,.31.01.58.1.27.07.55.22.64.32.17.1.56.36.94.9.18.27.36.6.48,1,.05.2.1.41.12.64.02.17.03.34.05.52.11,1.31.2,2.91.19,4.35-.01,1.59.03,3.18-.17,4.68-.17,1.24-.16,2.4.03,3.61.23,1.45.31,3.11.18,4.62-.42,4.98-.31,10.06-.38,15.12l-.04,2.36-.03,1.18c0,.45-.1,1.07-.34,1.54-.37.79-1.13,1.33-1.77,1.64-.45.25-1.05.36-1.49.38l-1.17.06-2.36.09c-1.58.04-3.16.06-4.74.07-3.17.02-6.34,0-9.49.11-1.89.06-3.12.05-4.95.23-3.02.29-5.53.07-9.8,0-1.11-.17-2.4-.24-3.56-.38-.93-.12-1.82-.13-2.75-.05-4.29.41-8.8.31-13.18.5-5.23-.21-12.43-.11-13.08,0-1.57-.02-3.13-.09-4.69-.17-1.24-.08-2.45-.16-3.68-.24-1.62-.09-3.16,0-4.53.28-1.42.29-2.93.34-4.48.13-2.74-.37-5.46-.4-8.23-.03-2.75.38-5.49.34-8.31.02-2.45-.28-4.92-.27-7.35.11-1.78.28-3.67.21-5.53,0-.88-.09-1.98-.27-2.67-.19-1.61.19-5.08.03-5.46.16-.37.13-1.27.08-1.79.07-1.54-.05-2.89-.08-4.41-.06-1.54.01-3.04.25-4.6.31-1.23.05-2.76.1-3.71-.07-2.23-.4-4.29.11-6.45-.04-1.82-.12-3.76-.14-5.65-.15-2.22-.01-4.39.05-6.41.41-1.09.19-2.45.14-3.72.09-1.43-.06-6.13-.1-6.84-.21-2.97-.48-6.35-.14-9.49-.05-1.56.05-3.07.25-4.62.28-1.21.02-2.45-.17-3.69-.19-.83-.01-1.82.35-2.52.05-.88-.38-1.66-.42-3.08-.26-1.69.19-3.23.56-5.35.38-.71-.06-1.44-.03-2.2,0-.38,0-.76.02-1.16.03-.2,0-.39,0-.6-.01-.2-.01-.35-.01-.8-.06-1.65-.21-3.24-1.4-3.82-3.07-.15-.41-.24-.85-.27-1.28v-.31s-.01-.18-.01-.18v-.36c-.01-.48-.03-.94-.05-1.4-.13-2.3.35-4.33.16-6.44-.18-2.02.06-3.7.16-5.54.18-3.46.18-6.91-.25-10.27-.42-3.33-.45-6.82-.1-10.23.06-.62.11-1.24.15-1.85,0-.1.02-.46.06-.71.04-.27.11-.54.2-.8.18-.52.46-1,.81-1.42.7-.83,1.72-1.4,2.82-1.54.65-.07.85-.03,1.19-.04.32,0,.64-.01.96-.02,3.46-.07,6.99-.2,10.36.2.99.12,1.83,0,2.74-.05,4.71-.23,9.39-.35,14.07.14,1.41.15,3.14.09,4.7.04,1.56-.04,3.08-.19,4.62-.29,3.28.41,6.96.09,10.23.5.67.08,1.15.09,1.78,0,.84-.11,1.78-.26,2.66-.25,4.41.06,8.87-.35,13.23.11,1.84-.1,3.66-.23,5.52-.28,3.16-.08,6.39-.04,9.48-.2,1.9-.1,3.62-.1,5.51-.07,5.06.08,10.15.03,15.22.03h15.22c1.57.01,3.14.11,4.68.2,1.27.08,2.58.14,3.74-.02,2.41-.31,4.92-.33,7.46-.35,7.3-.07,14.6-.14,21.89-.22,2.52-.03,4.9.25,7.5.16,2.08-.08,4.38-.11,6.45.18l18.08-.03,5.7.02c1,0,1.85.15,2.41.38.89.23,1.38-.21,1.91.97.2.14-.71.94-1.07,1.02-2.44.61-4.4.26-7.38.55-2.05.2-4.69.1-6.9.17Z"/>
  <path class="cls-2" d="M187.18,50.23c-2.56-.03-4.92.31-7.37.02-1.12-.13-2.38.27-3.57-.02-.74-.18-1.62-.08-2.41-.23-1.03-.2-1.82-.15-3.03,0-.72.06-1.16.14-2.7.16-1.19.02-1.81-.06-3.1.12-1.13.16-2.93-.19-4.12-.07-2.42.25-4.17-.1-6.79.4-2.31.28-4.58.13-6.56.17-2.54,0-5.09-.02-7.63-.06-.6,0-1.21-.11-1.77-.19-1.23-.18-2.39-.14-3.64,0-2.36.27-9.27-.2-10.32-.06-1.44.2-12.3.35-13.22.28-.6-.04-1.14-.15-1.59,0-.97-.16-2.37.12-3.18-.1-1.96-.1-2.68-.16-5.01-.12-2.22.04-4.58-.82-6.64-.53-4.41,0-7.17.05-7.8.15-1.13.17-1.64-.14-2.77.03-1.54.23-4.6-.34-4.99-.11-.41.25-1.37.16-1.97.36-1.27.43-2.97.34-4.59.1-.84-.13-1.75.31-2.47.13-1.28-.32-2.73-.47-4.38-.45l-10.48.11c-2.21.01-4.48.06-6.54-.24-3.34.06-4.97-.01-6.34.09-1.66.27-3.3-.08-4.79.29-2.05.51-1.6.42-4.65.4-.57-.15-2.28-.33-2.8-.12-1.6-.14-3.06-.05-3.2-.07-2.51-.4-2.02.21-4.63-.26-1.42.04-2.19-.04-2.84.32-.33.19-.91.21-1.61.09-.64-.11-1.16-.07-1.78.05-2.51.46-5.63-.19-8.21.22-.77-.04-1.55,0-2.32.05l-.56.04s-.07.03-.09.05c-.05.04-.1.06-.14.1-.08.06-.13.14-.14.24-.01.56-.02,1.12-.03,1.68-.04,1.24-.12,2.47-.31,3.66-.1.63.02,1.91.16,2.67.22,1.29-.2,2.42,0,3.65.24,1.44-.13,2.29-.32,3.31-.15.82-.28,1.6-.11,2.62.24,1.45.14,3.08.18,4.64.04,1.61-.34,3.14-.11,4.59.32,2.01-.14,4.24.27,6.15.27,1.25-.05,2.14.05,3.43-.13.18-.23.24-.25.43-.02.16.03.34.15.5.12.15.31.27.52.3.05.01.11.01.17.01h.34c.24-.02.49-.03.74-.04,2.12-.13,4.14-.4,6.44-.16.72.07,1.77-.15,2.68-.22.91-.07,1.84-.15,2.76-.15,1.91,0,3.54.48,5.51.36,1.83-.11,3.19-.04,5.02-.16,1.23-.08,3.52.16,4.79.15,2.84,0,5.15-.65,7.71-.12,1.25,0,2.57.12,3.68-.14,1.38-.33,2.83-.37,4.4-.14.28.04.67.11.9.08,1.81-.21,3.6-.38,5.47-.06,1.55-.08,3.04-.07,4.61.07,1.5.13,2.97-.36,4.58-.14,1.29.17,2.44.08,3.64-.08,1.21-.16,2.44-.13,3.72-.03.89.07,1.94.17,2.75.09,4.67-.43,9.27-.48,14-.04,1.76.16,3.43.04,5.32.02,1.52-.2,2.49-.06,3.27.26.4.16.85.06,1.36-.14,2.53-.4,4.61.28,5.88.14,1.8-.2,3.62-.3,5.53-.02.78.11,2.02.19,2.7.09,1.57-.24,2.91-.2,4.51-.05,2.15.2,4.34.21,6.41-.18,1.68-.32,3.65-.28,5.56-.27,2.47,0,4.91.4,7.42.05.25-.04.66-.02.94.02,3.41.41,6.74.46,10.12-.06.74-.11,1.97-.1,2.78,0,2.8.33,5.49.42,8.28,0,.51-.08,1.33-.09,1.85-.03,4.3.54,8.78.3,13.18.25,3.51-.04,6.99-.04,10.45.12.94.04,1.81.1,2.75,0,2.49-.27,4.98-.23,7.45.05,1.55.18,3.15.18,4.65-.01.63-.08,1.25-.13,1.86-.17l.46-.02h.23s.12-.01.12-.01h.02c.06-.02.1-.03.15-.05.09-.04.2-.1.28-.19.04-.05.08-.1.11-.17,0-.01,0-.01.01-.03v-.12s.04-.23.04-.23l.05-.47c.14-1.15.23-2.47.22-3.7-.03-3.16.24-6.32.05-9.45-.2-3.18.14-6.29.01-9.44-.07-1.85-.41-3.63-.22-5.54.19-1.9.07-3.69,0-5.57-.02-.42,0-.81.02-1.19.02-.37.07-.84.1-.86.07-.25.04-.6-.19-.87-.21-.29-.47-.72-.61-1.14-.13-.41.02-.93.86-.93.05,0,.31.01.58.1.27.07.55.22.64.32.17.11.56.36.94.9.18.27.36.6.47,1,.05.2.1.41.12.64.01.17.03.34.05.51.11,1.31.2,2.92.19,4.36-.01,1.59.03,3.19-.17,4.69-.17,1.24-.16,2.4.03,3.61.23,1.45.31,3.12.18,4.63-.42,4.99-.31,10.08-.38,15.15l-.04,2.36-.03,1.18c0,.51-.14,1.09-.39,1.56-.39.77-1.18,1.28-1.83,1.58-.24.11-.49.2-.75.25-.26.06-.56.07-.72.08l-1.18.06-2.36.09c-1.58.04-3.16.06-4.75.07-3.17.02-6.36,0-9.51.11-1.89.06-3.12.05-4.96.23-3.02.29-5.54.07-9.81,0-1.11-.17-2.41-.24-3.57-.38-.93-.12-1.83-.13-2.76-.05-4.3.41-8.82.31-13.21.5-5.24-.21-12.45-.11-13.11,0-1.57-.02-3.14-.09-4.7-.17-1.24-.08-2.45-.16-3.69-.24-1.62-.09-3.17,0-4.54.28-1.42.29-2.93.34-4.49.13-2.75-.37-5.47-.4-8.24-.03-2.76.38-5.5.34-8.33.02-2.46-.28-4.93-.27-7.36.11-1.79.28-3.68.21-5.55,0-.88-.09-1.98-.27-2.68-.19-1.61.19-5.09.03-5.47.16-.37.13-1.27.08-1.79.07-1.54-.05-2.9-.08-4.41-.06-1.54.01-3.05.25-4.61.31-1.23.05-2.77.1-3.72-.07-2.23-.4-4.3.11-6.46-.04-1.83-.12-3.77-.14-5.66-.15-2.22-.01-4.4.05-6.42.41-1.09.19-2.45.14-3.73.09-1.43-.06-6.14-.1-6.86-.21-2.97-.48-6.36-.14-9.51-.05-1.56.05-3.08.25-4.63.28-1.21.02-2.45-.17-3.69-.19-.83-.01-1.83.35-2.52.05-.88-.38-1.66-.42-3.08-.26-1.69.19-3.23.56-5.36.38-.71-.06-1.45-.03-2.21,0-.38,0-.77.02-1.16.03h-.3s-.39-.02-.39-.02c-.38-.02-.76-.1-1.12-.22-1.58-.52-2.91-2-3.15-3.77-.04-.22-.05-.43-.05-.65v-.39s0-.72,0-.72c0-.48-.02-.95-.05-1.4-.13-2.3.35-4.34.16-6.45-.18-2.03.06-3.71.16-5.56.18-3.47.18-6.92-.25-10.29-.42-3.33-.45-6.84-.1-10.25l.08-.93.03-.46c.01-.21.04-.53.1-.79.22-1.09.85-2.07,1.72-2.72.44-.33.94-.57,1.46-.72.26-.07.54-.12.81-.15l.4-.02h.24c.63,0,1.27-.01,1.91-.02,3.47-.07,7.01-.2,10.38.2.99.12,1.83,0,2.75-.05,4.72-.23,9.41-.35,14.1.15,1.41.15,3.15.09,4.71.05,1.56-.04,3.09-.19,4.63-.29,3.28.41,6.98.09,10.25.5.67.08,1.16.09,1.79,0,.85-.11,1.79-.26,2.67-.24,4.42.06,8.88-.34,13.26.12,1.84-.09,3.67-.23,5.53-.27,3.17-.08,6.4-.03,9.5-.2,1.9-.1,3.62-.1,5.52-.07,5.07.08,10.17.04,15.25.04h15.25c1.57.02,3.15.11,4.69.21,1.27.08,2.59.14,3.75-.01,2.41-.31,4.93-.32,7.48-.34,7.31-.07,14.62-.14,21.93-.21,2.53-.03,4.91.26,7.51.16,2.08-.08,4.39-.11,6.47.18l18.12-.02,5.71.02c1,0,1.86.15,2.41.38.89.23,1.38-.21,1.91.97.2.14-.72.93-1.07,1.02-2.45.61-4.41.26-7.4.55-2.05.2-4.7.1-6.91.16Z"/>
</svg>