<?xml version="1.0" encoding="UTF-8"?>
<svg id="illuer_hvid_bg" xmlns="http://www.w3.org/2000/svg" viewBox="0 0 114.4 153.59">
  <defs>
    <style>
      .cls-1 {
        fill: #ff9400;
      }

      .cls-2 {
        fill: #0354f0;
      }
    </style>
  </defs>
  <path class="cls-2" d="M62.69,92.91c-2.5.97-4.85,1.95-7.47,2.03-.59-.01-1.21.11-1.84.22-.63.1-1.28.22-1.91.04-.78-.19-1.7-.09-2.52-.27-1.05-.33-1.87-.34-3.14-.36-.75-.1-1.22-.11-2.8-.43-1.2-.37-1.8-.61-3.14-.9-.58-.16-1.27-.51-1.97-.86-.71-.32-1.34-.82-1.93-1.05-1.2-.46-2.08-1.14-3.02-1.77-.23-.16-.47-.31-.71-.47-.23-.17-.46-.35-.71-.53-.49-.35-1.03-.7-1.65-1.05-.97-.76-1.89-1.58-2.67-2.47-.37-.46-.74-.91-1.1-1.35-.18-.22-.35-.44-.53-.65-.16-.23-.31-.45-.46-.67l-1.13-1.7c-.35-.58-.65-1.2-.97-1.8-.69-1.18-1.11-2.49-1.63-3.74-.23-.6-.29-1.27-.39-1.86-.08-.66-.29-1.26-.4-1.88-.13-.62-.3-1.24-.49-1.88-.69-2.39-1.15-9.37-1.46-10.42-.2-.71-.72-3.79-1.21-6.82-.12-.76-.18-1.58-.27-2.33-.09-.75-.15-1.46-.12-2.09,0-1.25.01-2.17.05-2.41.11-.64.29-1.2.19-1.7.22-1.01.28-2.53.68-3.33.24-1.02.54-1.68.78-2.4.25-.72.48-1.5.98-2.63.23-.54.5-1.08.81-1.59.35-.49.72-.98,1.08-1.45.68-.98,1.5-1.81,1.98-2.79.31-.49.67-.91,1-1.31.33-.4.65-.78.94-1.14.59-.72,1.21-1.26,1.67-1.77.24-.25.46-.48.65-.68.21-.19.4-.36.56-.5.32-.29.55-.5.66-.62.41-.44.76-.7,1.12-.93.38-.21.76-.42,1.2-.82.31-.27.72-.56,1.18-.85.48-.24,1-.47,1.49-.68.48-.21.93-.41,1.28-.57.36-.13.61-.24.68-.34.3-.39,1.27-.7,1.79-1.13.56-.44,1.3-.72,2.11-.98.41-.11.82-.24,1.25-.3.44-.05.88-.08,1.31-.1.9-.05,1.78-.68,2.58-.53.7.1,1.43.15,2.2.16.77.06,1.58.12,2.45.12,3.68.11,7.34.85,10.76,2.25.54.23,1.08.46,1.62.68.52.27,1.03.56,1.54.85,1.03.54,1.93,1.27,2.74,2,.75.46,1.32.97,1.85,1.39.51.44.99.79,1.36,1.16.74.74,1.3,1.29,1.84,1.77.67.56,1.2,1.27,1.73,1.92.55.65.95,1.37,1.56,1.92.84.76,1.12,1.1,1.42,1.58.15.24.3.52.51.91.21.4.5.91.79,1.68.07.64.67,2.36.97,2.84.18.84.4,1.63.58,2.22.16.6.23,1.02.24,1.1.13,2.71.62,2.09.53,4.79.06.36.11.67.15.95.05.29.07.41.14.58.11.31.3.52.55.62.28.1.48.37.74.75.25.36.61.5,1.01.52.44.02.76.02,1.28-.03.69-.06,1.41-.09,2.13-.12.72-.03,1.44-.05,2.14-.11.67-.06,1.52-.14,1.76-.31.95-.11,1.56-1,1.84-1.78.13-.33.18-.68.17-1.04-.01-.11,0-.14-.03-.31l-.06-.47-.11-.94c-.15-1.24-.21-2.53-.24-3.7-.02-.62-.38-1.83-.65-2.53-.4-1.19-.37-2.33-.9-3.43-.31-.64-.44-1.18-.5-1.69-.06-.51-.14-.97-.24-1.47-.17-.79-.34-1.56-.89-2.42-.79-1.2-1.52-2.61-2.26-3.95-.87-1.31-1.42-2.76-2.39-3.81-1.52-1.31-2.46-3.37-4.15-4.36-1.06-.66-1.39-1.56-2.45-2.26-.63-1.18-1.84-2.47-3.58-3.41-.45-.26-.9-.52-1.34-.78-.44-.27-.89-.51-1.37-.72-.94-.45-1.86-.95-2.8-1.6-.6-.39-1.65-.56-2.5-.86-.85-.28-1.69-.61-2.56-.84-.89-.28-1.67-.66-2.47-1.03-.4-.2-.81-.35-1.25-.46-.43-.12-.89-.22-1.36-.3-.89-.12-1.65-.32-2.43-.41-.78-.08-1.56-.15-2.45-.19-1.19-.14-3.42-.34-4.68-.36-1.4-.07-2.65.31-3.85.49-.6.1-1.2.18-1.8.23-.6.1-1.2.16-1.84.15-1.19.25-2.52.29-3.47.92-.6.36-1.23.64-1.9.87-.34.11-.68.21-1.04.29-.36.09-.71.21-1.09.3-.27.07-.64.15-.83.26-.77.44-1.55.83-2.33,1.23-.76.44-1.56.83-2.44,1.12-1.33.72-2.47,1.62-3.83,2.32-.32.18-.63.38-.91.61-.27.25-.52.52-.78.78-.52.53-1.05,1.05-1.73,1.47-.56.31-.99.73-1.38,1.16-.4.43-.76.87-1.12,1.34-.76.9-1.51,1.82-2.37,2.71-.6.63-1.37,1.32-1.72,2.04-.55,1-1.12,1.97-1.69,2.94-.49,1.01-1,2.01-1.53,2.99-.29.48-.51,1-.73,1.51l-.71,1.53c-.24.51-.52,1.01-.74,1.53-.22.53-.43,1.05-.65,1.59-.32.79-.63,1.57-.82,2.4-.16.83-.32,1.68-.49,2.58-.16,1.47-.31,2.38-.74,3.1-.21.37-.15.82,0,1.33,0,1.23.03,2.35-.11,3.31-.1.97-.3,1.79-.16,2.41.18.87.33,1.74.43,2.63.05.44.08.89.09,1.35.03.47.06.95.06,1.44,0,.8.1,2.06.3,2.73.46,1.55.61,2.9.69,4.53.1,2.19.41,4.4,1.09,6.43.55,1.64.79,3.63,1.06,5.56.34,2.48.27,5.05,1.13,7.32.08.23.14.62.15.9.02.84.23,1.64.4,2.44.18.8.39,1.6.63,2.38.27.77.65,1.51,1.01,2.24.39.72.73,1.47,1.24,2.13.44.58.99,1.62,1.27,2.37.13.32.25.63.38.95.15.3.32.59.48.88.33.58.68,1.15,1.04,1.71.68,1.15,1.67,2.08,2.67,3,.38.32.85.96,1.18,1.34,2.43,3.45,6.09,6.02,9.75,8.17,1.51.79,2.97,1.67,4.55,2.28l2.32,1.03c.8.27,1.59.56,2.38.85.43.16.84.32,1.26.46.42.14.86.19,1.32.24,1.22.09,2.4.37,3.59.52,1.2.14,2.38.36,3.56.63,1.5.21,3.08.22,4.53.04,1.21-.27,2.39-.45,3.57-.54.59-.03,1.18-.11,1.78-.18.59-.07,1.2-.1,1.81-.15,1.12-.14,2.42-.29,3.55-.69,2.95-.91,5.96-1.84,8.55-3.51,2.62-1.68,5.31-3.16,7.58-5.3.33-.31.65-.63.95-.96l.88-1.02c.6-.66,1.18-1.35,1.87-1.98,1.39-1.25,2.38-2.73,3.36-4.26.47-.66.87-1.28,1.34-1.82.47-.54.92-1.06,1.34-1.6.92-1.17,2.39-.97,2.12.32-.02.08-.18.81-.32.97-.14.61-1.74,3.95-3.65,6.32-1.03,1.31-2.13,2.58-3.35,3.57-1.04.79-1.88,1.65-2.73,2.61-.49.59-1.06,1.19-1.71,1.7-.64.52-1.29,1.05-2,1.43-2.24,1.36-4.59,2.55-6.97,3.68-2.4,1.09-4.89,2-7.44,2.69-1.59.38-3.19.73-4.81.93-.31.05-.64.07-.96.09-.32.01-.63.01-.91.06-6.4,1.26-13.23.4-19.54-1.41-.95-.28-1.74-.48-2.51-.75-.75-.29-1.51-.57-2.43-.87-1.54-.44-2.81-1.19-4.22-1.98-1.45-.74-2.82-1.91-4.68-3.17-.83-.84-1.81-1.79-2.65-2.66-.69-.68-1.31-1.38-2.06-2-.43-.37-.85-.74-1.28-1.11l-.64-.57-.58-.63c-.77-.85-1.52-1.73-2.28-2.61-1.34-1.89-2.75-3.77-3.84-5.81-.31-.62-.63-1.26-.95-1.92-.29-.67-.55-1.38-.83-2.07-.28-.69-.56-1.38-.83-2.05-.26-.67-.43-1.36-.63-1.99-.37-1.28-.79-2.39-.97-3.26-.19-.87-.33-1.46-.39-1.62-.15-.81-.28-1.63-.41-2.44-.09-.8-.16-1.59-.23-2.38-.09-1.26-.19-2.49-.28-3.75-.15-1.64-.45-3.19-.92-4.53-.49-1.39-.76-2.91-.77-4.5-.02-2.82-.38-5.56-1.15-8.3-.19-.68-.36-1.36-.49-2.06-.11-.72-.2-1.44-.26-2.17-.06-.73-.11-1.46-.13-2.2-.01-.74.1-1.48.17-2.22.21-2.59.54-5.12.5-7.73.06-.94.21-1.91.43-2.87.11-.48.22-.96.38-1.43.18-.46.37-.92.57-1.38.37-.86.89-1.9,1.04-2.62.48-1.63,2.04-4.95,2.21-5.31.08-.4.57-1.21.85-1.69.77-1.44,1.69-2.54,2.55-3.89.23-.34.44-.68.65-1.03l.69-.99c.46-.66.92-1.34,1.43-1.99.2-.26.41-.54.64-.8.25-.25.5-.51.74-.76.5-.49.99-.94,1.4-1.23.5-.34.91-.73,1.36-1.1.45-.35.87-.73,1.29-1.11l1.25-1.14.65-.55c.23-.17.48-.31.72-.46.84-.49,1.69-1.01,2.53-1.55l.63-.41.67-.35c.44-.23.89-.47,1.33-.7,2.04-1.19,4.17-2.01,6.02-3.18,1.03-.56,2.46-.9,3.77-1.25.72-.25,2.34-.5,3.86-.76.76-.12,1.49-.27,2.09-.32.6-.03,1.06-.05,1.25-.04,1.6.12,3.26-.1,4.96-.04.85-.02,1.71-.04,2.57-.06.86-.05,1.7.08,2.53.13.82.07,1.64.1,2.47.13.81.07,1.62.21,2.44.36.64.13,1.27.3,1.9.49.63.17,1.23.47,1.86.67.84.28,1.97.26,2.57.77.75.68,1.47,1.07,2.92,1.5,1.75.46,3.31,1.05,5.23,2.26,1.23.88,2.67,1.63,4.03,2.73.68.65,1.43,1.35,2.21,2.01.39.33.79.66,1.18.98.37.34.74.68,1.09,1.01.9.83,1.68,1.68,2.37,2.58.66.92,1.29,1.82,2.08,2.63.18.2.36.39.54.58.16.2.3.41.44.62.28.41.54.83.78,1.24.47.84.98,1.62,1.4,2.51.39.83.8,1.65,1.21,2.46l.63,1.21.53,1.25c.36.83.74,1.65,1.13,2.46.41.81.68,1.66,1.06,2.48.35.82.7,1.65,1,2.52.23.88.43,1.77.62,2.67.41,1.83.53,3.56.61,5.3l.05.95.03.51c0,.22.03.44.02.67-.02.89-.2,1.78-.55,2.59-.69,1.63-2.01,2.99-3.73,3.69-.57.23-1.18.38-1.8.45l-1.35.13c-.88.07-1.77.15-2.65.22l-1.32.08-.7.03c-.31,0-.62,0-.92-.04-1.22-.14-2.37-.66-3.24-1.44-1.01-.9-1.78-1.8-2.28-2.99-.15-.38-.26-.78-.34-1.19l-.17-.9-.32-1.77c-.18-1.22-.46-2.24-.66-3.36-.24-1.09-.59-2.15-.85-3.24-.19-.52-.37-1.05-.54-1.59-.17-.54-.33-1.08-.56-1.6-.26-.63-.58-1.32-.97-1.99-.45-.64-.9-1.29-1.33-1.9-.96-1.16-1.97-2.24-3.11-3.17-1.94-2.54-5.06-4.36-7.73-6.06-.56-.33-1-.53-1.59-.69-.39-.12-.82-.21-1.26-.28-.43-.09-.86-.19-1.26-.32l-.76-.25-.78-.16-1.57-.31c-1.05-.16-2.12-.2-3.18-.31-1.06.03-2.12-.04-3.18,0-.53.04-1.06.06-1.59.08-.53,0-1.06.01-1.59.08-.86.24-1.74.4-2.57.7-.83.32-1.67.58-2.5.9-2.82,1.1-5.54,2.66-7.74,4.62-.67.61-1.33,1.16-1.91,1.79-.6.62-1.24,1.18-1.8,1.89l-1.17,1.38-1.03,1.49c-.17.25-.35.49-.51.75l-.44.79c-.29.53-.59,1.05-.86,1.59-.45,1.12-1.02,2.2-1.32,3.37-.17.58-.38,1.15-.53,1.73l-.38,1.77c-.15.59-.22,1.18-.27,1.78-.06.6-.14,1.2-.19,1.8l-.02,1.81v.9s.07.9.07.9l.16,1.8.26,1.91.53,3.84c.22,1.58.35,3.18.48,4.75.11,1.29.23,2.62.55,3.77.34,1.17.55,2.49.84,3.59.13.58.25,1.16.38,1.74.16.57.35,1.14.53,1.72,2.09,6.57,6.76,12.24,12.76,15.55.52.28,1.03.57,1.53.87l1.56.76c1.02.56,2.17.87,3.34,1.23.96.19,1.97.39,2.98.59,1.02.11,2.03.36,3.01.52l2.14.02c.71-.03,1.43-.12,2.14-.18,1.43-.1,2.83-.41,4.22-.77,2.77-.73,5.4-1.92,7.8-3.46,1.51-.98,2.94-2.1,4.25-3.33.68-.66,1.34-1.15,1.87-1.4.76-.49.68-1.14,1.94-.82.24-.07.28,1.13.12,1.48-1.17,2.33-2.91,3.54-5.22,5.62-1.63,1.43-4.12,2.73-6.24,3.66Z"/>
  <g>
    <path class="cls-1" d="M105.01,140.16l-36.67,7.22c-3.2.63-6.42,1.09-9.67,1.37l-38.71,3.4c-5.17.45-9.79-3.22-10.52-8.36L1.7,88.93c-.43-3.05,1.97-4.73,4.75-6.31,0,0,21.73-6.31,45.63-9.68,23.91-3.38,46.65-3.35,46.65-3.35,4.19,1.36,5.88,1.69,6.31,4.75l7.75,54.88c.72,5.13-2.69,9.94-7.78,10.94Z"/>
    <path class="cls-1" d="M94.67,143.26c-1.76.31-3.3.97-5.04,1.01-.79.02-1.57.58-2.45.47-.54-.07-1.12.14-1.69.1-.74-.06-1.28.1-2.07.41-.48.15-.77.3-1.81.52-.81.18-1.25.18-2.1.54-.74.31-2.04.21-2.83.49-1.61.58-2.87.46-4.57,1.31-1.53.59-3.09.75-4.47,1.05-1.78.33-3.57.59-5.36.77-.42.04-.87,0-1.27-.04-.88-.08-1.7.04-2.56.26-1.61.41-6.46.37-7.17.57-.98.28-8.52,1.1-9.16,1.09-.42,0-.81-.08-1.11.1-.69-.1-1.63.26-2.22.1-1.37.02-1.87,0-3.49.18-1.54.17-3.25-.54-4.66-.12-3.07.27-4.98.49-5.4.62-.77.24-1.15-.04-1.92.2-1.06.33-3.21-.05-3.49.19-.3.27-1.05.2-1.53.35-1.04.37-2.47-.01-3.55-.75-.28-.2-.63-.27-.96-.37-.33-.11-.65-.22-.84-.45-.68-.85-1.43-1.67-2.25-2.65-.86-1.04-1.54-2.24-1.96-3.54-.22-.63-.36-1.34-.46-1.96l-.28-1.81c-.23-1.52-.5-3.08-.41-4.55-.39-2.3-.48-3.44-.71-4.36-.43-1.11-.24-2.29-.75-3.27-.7-1.35-.57-1.05-.85-3.15.1-.41.1-1.62-.15-1.95-.02-1.12-.25-2.12-.24-2.22.15-1.79-.41-1.36-.2-3.24-.18-.97-.17-1.52-.59-1.91-.22-.2-.3-.6-.24-1.1.05-.46-.05-.81-.22-1.22-.7-1.67-.37-3.92-1.02-5.64-.06-1.08-.47-2.12-.6-3.2-.21-1.76-.52-3.48-.37-5.19.04-.45-.21-1.31-.41-1.82-.34-.86-.04-1.7-.35-2.52-.37-.96-.09-1.6,0-2.33.07-.58.12-1.14-.15-1.83-.38-.97-.44-2.11-.63-3.18-.11-.67-.05-1.48.16-2.18.21-.71.53-1.34.78-1.96.37-.88,1.07-1.53,1.74-2.04.67-.52,1.34-.93,1.84-1.48.16-.17.34-.32.51-.42l.13-.08.21-.12c.15-.09.3-.17.47-.19.4-.1.49-.1.71-.15.2-.04.4-.1.61-.18,1.01.28,2.22.04,3.54-.43,1.4-.5,2.7-1.12,4.33-1.28.51-.05,1.16-.45,1.77-.67.6-.22,1.22-.45,1.85-.6,1.3-.32,2.52-.1,3.84-.53,1.22-.4,2.17-.53,3.4-.93.82-.27,2.44-.37,3.31-.56,1.94-.43,3.41-1.36,5.26-1.21.86-.17,1.79-.22,2.5-.62.89-.51,1.88-.74,3.01-.7.2,0,.48.02.63-.03,1.21-.43,2.42-.82,3.77-.72,1.06-.25,2.09-.42,3.2-.45,1.06-.02,2.01-.66,3.16-.62.92.03,1.71-.16,2.52-.43.82-.27,1.68-.36,2.58-.38.63-.01,1.37,0,1.93-.14,3.2-.82,6.42-1.21,9.76-1.07,1.25.04,2.4-.17,3.72-.3,1.04-.29,1.74-.2,2.31.08.29.14.6.01.94-.21,1.74-.53,3.24.06,4.12-.13,1.25-.28,2.52-.45,3.87-.24.55.09,1.42.12,1.89,0,1.09-.29,2.03-.29,3.15-.18,1.51.15,3.04.1,4.49-.33,1.17-.35,2.55-.34,3.89-.36.43,0,.87.02,1.3.04l.65.05c.23.02.36.03.84.04h.3s.28.11.28.11l.48.17c.2.07.41.14.62.2.42.12.85.22,1.32.28.19.03.47.14.67.26.58.33,1.2.66,1.87,1.14.66.46,1.36,1.17,1.8,1.97.44.79.67,1.58.83,2.27.16.63.32,1.16.54,1.73.19.5.29,1.34.28,1.92-.05,1.98.11,3.85.81,5.72.13.34.22.91.21,1.27-.11,3.04.56,6.1,1.03,9.13.38,2.42.73,4.82.9,7.24.05.66.08,1.26.27,1.9.51,1.68.72,3.41.68,5.15-.02,1.09.13,2.2.46,3.21.55,1.69.75,3.35.71,5.11-.02.81.01,1.74.15,2.58.34,2.18.38,4.4.87,6.53.25,1.08.37,2.17.48,3.26.13,1.17.12,2.5-.04,3.75-.17,1.47-.39,3.02-1.4,4.27-.99,1.21-1.91,2.34-3.14,3.3-1.1.84-2.29,1.01-3.38,1.13-1.25.07-1.72-1.25-1.04-1.81.04-.04.42-.34.54-.35.16-.11.74-.43,1.39-.92.66-.47,1.36-1.14,1.96-1.76.67-.69,1.15-1.51,1.71-2.25.46-.62.67-1.35.6-2.11-.09-.93-.17-1.82-.18-2.81-.07-3.5-.67-7.01-1.11-10.52-.14-1.09-.25-2.18-.36-3.27-.04-.42.01-.89-.08-1.26-1.07-4.25-1.44-8.72-2.26-13.05-.24-1.3-.35-2.15-.71-3.39-.58-2.05-.61-3.82-.96-6.78.06-.79,0-1.7.03-2.52.03-.66-.05-1.28-.22-1.91-.82-2.91-1.17-6.04-1.78-9.05-.08-.91-.18-1.92-.3-2.88-.05-.4-.14-.77-.26-1.05-.12-.27-.27-.46-.46-.63-.37-.35-1.03-.61-1.52-.78-.51-.17-.89-.27-1-.27l-1.52-.56-.19-.07-.07-.04s-.1-.04-.15-.05c-.02,0-.19-.02-.32-.03l-.4-.03c-.86-.07-1.7-.14-2.56-.21-1.13-.06-2.2.04-3.15.35-.98.32-2.03.4-3.11.23-1.92-.3-3.82-.25-5.72.23-1.89.47-3.8.55-5.77.35-1.72-.15-3.44-.04-5.09.49-1.21.38-2.53.4-3.84.33-.61-.04-1.39-.15-1.87-.02-1.1.28-3.52.39-3.76.54-.24.15-.87.18-1.23.2-1.07.07-2,.15-3.05.29-1.06.14-2.07.5-3.13.7-.84.16-1.89.35-2.56.27-1.59-.18-2.93.55-4.43.62-1.27.07-2.6.28-3.9.48-1.52.23-3,.58-4.31,1.17-.71.32-1.65.45-2.52.56-.98.12-4.2.72-4.7.71-2.12-.06-4.35.76-6.47,1.32-1.05.28-2.03.71-3.07.98-.82.21-1.69.22-2.54.4-.57.12-1.15.64-1.69.46-.69-.23-1.22-.14-2.14.26-1.09.47-2.04,1.08-3.51,1.28-.99.13-1.93.63-3.07.78-.61.08-1.26.2-1.91.36-.59.15-1.51.4-1.38.45-.63.44-1.25.72-1.81,1.03-.55.3-1.03.64-1.26,1.09-.39.85-.69,1.11-.65,2.23.16,2.42.5,4.8,1.25,7.07.74,2.24,1.11,4.66,1.1,7.06,0,1.75.21,3.44.51,5.21.41,2.39.88,4.81.81,7.2-.02.7.19,1.26.32,1.89.69,3.23,1.27,6.45,1.23,9.75-.01,1,.22,2.19.42,3.26.2,1.07.49,2.11.74,3.16-.08,2.32.6,4.83.51,7.15-.02.47.02.81.17,1.23.2.56.43,1.22.51,1.78.18,1.28.76,2.49,1.55,3.5.8,1,1.74,1.85,2.8,2.63,1.02.41,2.09.56,3.15.58.46.02.89-.02,1.38-.05l1.66-.17c1.1-.12,2.2-.24,3.27-.42,1.31-.22,2.51-.32,3.83-.41,3.53-.23,7.07-.59,10.6-.9l10.6-.92c1.09-.09,2.19-.09,3.28-.09.89,0,1.81-.02,2.6-.24,1.66-.47,3.4-.61,5.1-.83,2.47-.31,4.92-.73,7.37-1.26l7.48-1.6c1.72-.37,3.41-.41,5.17-.86,1.41-.36,2.98-.7,4.46-.69l12.39-2.47,3.91-.76c.69-.13,1.3-.1,1.73.05.66.11.91-.39,1.49.69.16.11-.31,1.01-.54,1.15-1.56.93-2.97.85-4.96,1.54-1.37.47-3.2.73-4.7,1.09Z"/>
  </g>
</svg>