<?xml version="1.0" encoding="UTF-8"?>
<svg id="illuer_hvid_bg" xmlns="http://www.w3.org/2000/svg" viewBox="0 0 119.84 137.64">
  <defs>
    <style>
      .cls-1 {
        fill: #ff9400;
      }

      .cls-2 {
        fill: #0354f0;
      }
    </style>
  </defs>
  <g>
    <path class="cls-1" d="M66.72,135.92c-19.99,2.34-35.27-.99-45.83-10.03-10.59-9.01-16.79-21.47-18.65-37.35-1.86-15.88,1.3-29.42,9.52-40.65,8.2-11.23,22.1-17.98,41.69-20.28,19.59-2.29,35.16,1.01,45.54,10.06,10.37,9.03,16.5,21.5,18.36,37.38,1.86,15.88-1.22,29.41-9.23,40.61-8.01,11.19-21.81,17.95-41.38,20.24"/>
    <path class="cls-1" d="M55.19,137.68c-.97-.03-1.91.06-2.83.08-.93,0-1.84-.03-2.76-.22-.84-.18-1.83.11-2.71-.25-.54-.22-1.22-.21-1.79-.45-.75-.31-1.35-.33-2.28-.33-.55-.05-.9-.03-2.05-.23-.9-.14-1.34-.36-2.34-.41-.89-.03-2.12-.76-3.02-.92-.93-.13-1.67-.45-2.44-.73-.39-.14-.78-.27-1.2-.39-.42-.13-.87-.26-1.39-.34-.44-.12-.86-.26-1.28-.41-.41-.17-.8-.37-1.18-.56-.77-.39-1.49-.79-2.16-1.18-.85-.51-1.71-1.02-2.5-1.61l-1.21-.87-1.15-.94c-.36-.3-.67-.67-.95-1.01-.58-.77-1.28-1.31-2.08-1.87-.74-.54-1.99-1.82-3.04-3.11-1.06-1.28-1.94-2.53-2.25-2.81-.2-.19-.68-.75-1.28-1.49-.59-.75-1.26-1.72-1.92-2.68-1.28-1.95-2.32-3.98-2.47-4.3-.17-.44-.24-.86-.53-1.11-.17-.74-.89-1.6-.91-2.27-.49-1.43-.64-1.96-1.27-3.64-.6-1.61-.3-3.57-.96-5.01-.85-3.25-1.21-5.31-1.39-5.76-.32-.82-.09-1.25-.36-2.07-.19-.57-.23-1.44-.24-2.21.01-.77.03-1.43-.1-1.56-.27-.29-.26-1.02-.5-1.46-.47-.94-.51-2.25-.28-3.5.11-.65-.33-1.34-.17-1.89.32-.99.5-2.08.52-3.34.1-2.66.35-5.33.78-7.97.16-.83.32-1.67.52-2.5.22-.82.5-1.6.84-2.33.32-1.24.63-2.14.85-2.86.26-.72.45-1.26.59-1.76.19-1.29,1.04-2.3,1.17-3.5.12-.82.16-1.15.31-1.53.14-.39.38-.83.98-1.85.34-.32,1.14-1.37,1.19-1.81.77-.98,1.3-1.97,1.39-2.04,1.44-1.36.69-1.42,2.32-2.74.63-.91,1.1-1.29,1.17-1.9.03-.32.32-.67.77-.99.41-.31.68-.61.94-1.03.27-.43.61-.83.99-1.21.38-.38.83-.71,1.26-1.06.86-.71,1.78-1.33,2.46-2.1.99-.69,1.9-1.52,2.91-2.2.85-.5,1.71-1,2.56-1.47.87-.42,1.76-.79,2.67-1.04.48-.13,1.33-.64,1.81-1.01.82-.63,1.8-.56,2.6-1.09.95-.64,1.7-.52,2.5-.59.64-.06,1.25-.13,1.94-.55.99-.55,2.22-.81,3.36-1.17,1.19-.34,2.41-.26,3.44-.72,1.44-.62,3.19-.54,4.56-1.16.9-.41,1.62-.25,2.58-.46,1.05.41,2.37.29,3.86.02,1.59-.29,3.09-.73,4.86-.58.55.04,1.33-.25,2.03-.34.69-.09,1.4-.2,2.11-.22,1.47-.06,2.71.48,4.21.36,1.4-.05,2.44.06,3.85.05.95.03,2.68.37,3.64.53,2.15.27,4.04-.03,5.86.92.94.24,1.9.57,2.79.57,1.11.01,2.24.25,3.3.92.19.12.45.28.63.32,1.4.26,2.76.73,3.96,1.62,1.11.51,2.18,1,3.14,1.79.47.36,1.02.58,1.56.84.53.28,1.07.57,1.53,1.03.75.7,1.47,1.25,2.31,1.71.86.47,1.51,1.18,2.19,1.91.47.52.96,1.19,1.46,1.58,2.85,2.3,5.18,5.17,6.8,8.52.32.61.63,1.21.99,1.78.36.58.74,1.16,1.08,1.81.73.95.96,1.7.91,2.39-.02.35.23.62.57.9.61.8.86,1.68,1.06,2.43.2.75.3,1.4.52,1.85.67,1.24,1.19,2.56,1.34,4.05.07.61.21,1.55.45,2.03.55,1.11.71,2.13.82,3.37.12,1.66.42,3.3,1,4.83.51,1.23.62,2.75.75,4.22.15,1.91-.15,3.79.23,5.72.04.19.03.51,0,.73-.45,2.64-.6,5.16-.41,7.84.07.59-.11,1.53-.3,2.15-.64,2.11-1.21,4.1-1.35,6.31-.03.4-.21,1.02-.39,1.39-1.49,3.05-2.58,6.34-4.17,9.4-1.25,2.44-2.7,4.73-4.48,6.8-.49.55-.92,1.08-1.35,1.69-1.06,1.67-2.48,3.08-4.12,4.14-.52.33-1,.71-1.47,1.1-.48.37-.93.78-1.34,1.21-1.38,1.43-2.99,2.45-4.82,3.17-.83.36-1.79.71-2.62,1.18-1.07.6-2.23,1-3.34,1.48-1.14.42-2.26.86-3.35,1.36-2.24,1-4.62,1.4-6.92,2.1-.68.21-1.33.48-1.99.71-.67.22-1.35.39-2.09.45-1.46.13-2.78.45-4.18.76-1.24.28-2.32.06-3.38,0-1.16-.09-1.65-1.42-.79-1.92.05-.03.54-.31.69-.28.21-.09.95-.31,1.9-.55.95-.24,2.1-.55,3.16-.72,1.16-.18,2.3-.5,3.43-.52.93-.02,1.77-.26,2.59-.66.99-.46,2.13-.9,3.24-1.09,3.63-.68,7.12-2.16,10.44-3.83,1.05-.5,2.05-1.07,3.07-1.63.4-.21.86-.38,1.17-.64,1.81-1.44,3.56-2.94,5.27-4.5,1.64-1.62,3.27-3.29,4.52-5.22.4-.55.7-1.04,1-1.52.29-.49.59-.96.86-1.58.91-2.02,2.01-3.49,3.37-6.29.46-.68.91-1.52,1.35-2.27.34-.6.58-1.22.73-1.89.62-3.11,1.46-6.3,1.73-9.51.22-.93.32-1.98.46-3.01.11-1.04.16-2.07.22-3,.03-1.86,0-3.31-.09-3.54.01-1.15.03-2.31.04-3.45.02-.92.06-1.81.03-2.73-.02-1.2-.25-2.33-.67-3.29-.41-1-.67-2.07-.66-3.24,0-2.05-.44-4.03-1.33-5.89-.93-1.83-1.49-3.73-1.96-5.76-.4-1.77-1.16-3.44-2.31-4.83-.82-1.04-1.46-2.23-1.97-3.51-.27-.58-.56-1.35-.9-1.73-.8-.87-2.19-2.99-2.49-3.1-.27-.13-.64-.66-.87-.96-.71-.87-1.32-1.64-2.1-2.41-.79-.79-1.73-1.4-2.61-2.1-.67-.59-1.56-1.22-1.98-1.78-.48-.68-1.14-1.08-1.8-1.47-.65-.41-1.34-.72-1.96-1.18-1.03-.81-2.29-1.44-3.5-2.05-.73-.33-1.46-.64-2.19-.89-.75-.21-1.5-.38-2.23-.46-.8-.08-1.72-.39-2.58-.72-.48-.19-1.55-.45-2.56-.74-1.01-.27-1.97-.46-2.21-.58-2.04-.89-4.57-.83-6.85-.93-1.14-.02-2.26.13-3.39.11-.89.01-1.79-.18-2.7-.21-.61-.03-1.33.38-1.85.09-.66-.36-1.24-.4-2.27-.18-1.23.29-2.33.68-3.9.67-1.05,0-2.13.32-3.34.33-1.3.02-2.83.14-4.12.49-.82.21-1.62.24-2.41.3-.78.08-1.54.16-2.28.41-1.42.47-2.65.58-4,.79-2.49.52-4.94,1.27-7.05,2.59-2.11,1.25-4.33,2.37-6.66,3.24-.82.35-1.64.73-2.41,1.18-.75.48-1.52.97-2.25,1.54-1.99,1.53-3.76,3.3-5.73,4.76-.56.45-.87.99-1.28,1.51-2,2.73-3.76,5.62-5.79,8.38-.58.85-1.13,2-1.52,3.06-.2.53-.38,1.07-.55,1.6l-.42,1.63c-1.19,2.11-1.63,4.78-2.48,7.04-.18.46-.28.81-.26,1.28.02.63.05,1.33-.06,1.96-.51,3.2-.26,6.46-.66,9.67.1,1.35.34,2.68.46,4.03.29,2.3.5,4.67,1.06,6.88.32,1.35.58,2.58.85,3.93.75,3.62,1.93,7.14,3.41,10.51,1.49,3.36,3.34,6.55,5.49,9.51.65.93,1.3,1.86,1.95,2.78.53.76,1.16,1.48,1.82,2.01.72.52,1.42,1.07,2.08,1.68.7.56,1.38,1.18,2.08,1.76,4.01,3.3,8.69,5.72,13.69,7.22,1.72.52,3.31,1.23,5.17,1.52.75.1,1.53.23,2.3.39.78.13,1.56.3,2.29.55,4.36.54,8.79.64,13.22.42l4.19-.27c.73-.07,1.37.01,1.81.2.68.17.99-.31,1.52.82.16.12-.43.98-.68,1.1-1.77.8-3.28.6-5.51,1.02-.77.16-1.66.21-2.56.25-.91.03-1.82.07-2.66.08Z"/>
  </g>
  <g>
    <path class="cls-2" d="M53.39,31.04s-2.25-11.67-13.77-16.12c-2.23-.51,8.34,3.83,12.43,10.51.09.16,2.58-21.66,22.56-23.35.12,0,.22.09.2.21-.41,2.33-3.86,21.77-22.24,24.39"/>
    <path class="cls-2" d="M51.34,28.11c-.17-.54-.71-.85-.67-1.46.02-.28-.47-.34-.34-.7.08-.22-.1-.35-.05-.58.07-.3-.06-.43-.34-.57-.13-.11-.26-.14-.45-.42-.15-.21-.15-.38-.46-.51-.27-.11-.21-.63-.47-.76-.5-.28-.46-.79-1.22-.9-.52-.2-.72-.66-1.06-.92-.38-.38-.72-.8-1.12-1.16-.09-.09-.12-.25-.16-.39-.08-.31-.3-.44-.59-.5-.56-.09-1.48-1.32-1.76-1.31-.19,0-.8-.24-1.37-.51-.57-.28-1.17-.46-1.24-.54-.1-.09-.16-.24-.31-.14-.12-.23-.5-.09-.58-.36-.03-.03-.06-.05-.08-.07l.2.06s-.05-.03-.05-.04c-.02.15.06-.45.08-.57.03-.2.04-.48.05-.58,0-.15-.01-.27-.04-.28-.02,0,.09-.03.18-.12.05-.07.25-.24.34-.38l.4-.51s.15.13.35.22c.43.21.47,1.23,1.02,1.22.87.51,1.44.81,1.61.8.31,0,.25.32.56.31.43,0,.71.87.91.73.22-.15.35.05.58-.04.49-.19.77.11.94.54.09.22.52,0,.55.24.05.44.23.76.55.98.67.48,1.34.96,1.96,1.5.2.17.41.34.58.54l.12.15s.03.07.05.11c.02.08.04.17.05.28.31.24.43.45.55.5.02.01.03.01.04.01.14-.24.27.46.34,0,.02-.72-.02-.65.1-.45.04.17.1.38.14.5.05.15.04,0,0-.21.1.17.07-.14.08-.1.14.25.12.09.1-.02-.02-.12-.04-.19.15,0,0-.19.09-.18-.17-.63-.13-.23-.14-.27-.04-.19.1.06.07-.03-.01-.15-.17-.25-.13-.22-.05-.3.06-.01.24-.4.14-.75.2-.32.08-.76.23-1.11.24-.56.4-1.15.98-1.54.15-.1.16-.43.11-.65-.08-.37.42-.45.36-.8-.07-.42.36-.44.63-.58.22-.11.42-.21.38-.51-.06-.42.22-.72.37-1.06.15-.36.67-.48.65-.89-.01-.58.66-.78.58-1.39-.05-.4.33-.4.44-.71.62.06.94-.21,1.14-.66.22-.47.32-1.03.88-1.29.17-.08.17-.42.28-.63.1-.21.2-.44.36-.59.34-.34.95-.26,1.22-.67.26-.38.56-.54.83-.91.18-.25.77-.41,1.02-.6.54-.41.68-1.27,1.49-1.15.26-.17.6-.21.71-.58.13-.46.44-.67.89-.64.08,0,.2.02.24-.03.31-.39.65-.73,1.2-.62.33-.21.67-.36,1.08-.35.39,0,.57-.59,1.02-.5.35.06.6-.1.84-.33.25-.24.55-.28.88-.26.12,0,.24.02.36.02.14,0,.18,0,.38-.09.48-.21.98-.39,1.49-.51.5-.11,1.06-.28,1.52-.26.45.01.95,0,1.31.11.25.2.48.42.69.64.08.07.15.18.24.3.08.11.1.2.16.3.05.09.11.19.16.28.03.05.06.09.09.15l.02.23c.22.4.1.85-.25,1.24-.16.19-.1.32.08.46.11.44-.08.96-.27,1.35-.19.4-.4.7-.4.94,0,.2,0,.32.01.42,0,.11,0,.22-.03.33-.05.22-.15.42-.34.6-.16.15-.33.4-.28.59.11.43-.03.72-.29,1.03-.35.42-.56.89-.37,1.5.15.49-.05.93-.26,1.34-.26.54-.86.91-.79,1.61,0,.07-.05.15-.12.2-.76.54-1.17,1.21-1.12,2.19,0,.21-.17.46-.36.58-.65.4-1.06.89-1.11,1.69-.01.14-.12.32-.25.38-1.08.51-1.51,1.53-2.26,2.33-.56.65-1.12,1.31-1.9,1.72-.2.12-.4.21-.51.44-.3.59-.77,1.02-1.45,1.1-.42.07-.74.29-.94.65-.35.58-.84.96-1.55.95-.32,0-.65.07-.91.22-.69.35-1.45.52-2.1.93-.66.44-1.48.37-2.17.74-.4.24-.74.65-1.24.56-.5-.09-.89.11-1.32.28-.38.14-.77-.11-1.12-.26-.39-.17-.67-1.52-.47-1.95.01-.03.13-.27.18-.23.11-.14.79-.68,1.4-.79.34-.06.66-.17,1.03-.04.31.12.55.02.74-.25.23-.33.54-.51.88-.5.57.01,1.13-.06,1.64-.25l1.5-.69c.31-.14.64-.25.97-.37.12-.06.3-.04.38-.14.45-.58.98-1,1.54-1.4.54-.43,1.05-.89,1.5-1.4.26-.31.49-.46.62-.89.23-.68.76-.91,1.43-1.54.28-.08.5-.26.77-.37.22-.09.35-.23.4-.45.28-.96.85-1.75,1.21-2.65.78-.86,1.4-2.32,1.36-2.49.15-.3.37-.58.58-.86.17-.22.39-.42.56-.64.22-.29.26-.65.11-1.03-.16-.4-.09-.72.23-.96.55-.44.76-1.01.59-1.7-.21-.64.05-1.41.37-1.4.33-.18.41-.57,0-.48-.33.08-.18,0,.02-.35.07-.12.16-.31.01-.21-.3.23-.43.09-.53.24-.08.14-.11.11-.14.09-.08-.04-.18-.05-.27-.01,0,0-.21.11-.34.21-.14.11-.28.21-.43.28-.24.1-.53.25-.77.14-.57-.25-.83.37-1.29.39-.4,0-.79.15-1.16.3-.43.17-.82.43-1.03.94-.11.28-.38.35-.63.44-.28.09-1.13.56-1.31.56-.79-.06-1.17.65-1.61,1.13-.22.24-.32.6-.54.83-.17.18-.48.22-.69.38-.13.11-.02.52-.34.4-.4-.14-.54-.04-.63.29-.1.4-.04.87-.45,1.09-.28.15-.29.55-.61.73-.35.19-.65.52-.78.89-.17.46-.81.56-.88,1.05-.07.46-.46.64-.74.94-.52.56-.86,1.24-.78,2.07.08.82-.18,1.5-.76,2.06-.42.41-.63.9-.76,1.44l-.12.55-.09.37-.14.47c-.2.69-.45,1.37-.75,1.86-.18.27-.13.76-.22,1.13l-.04.18-.02.09-.05.03-.2.11-.35.19c-.21.11-.39.19-.55.25-.14.05-.27.09-.41.14h-.02s0,0,0,0h0s0,0,0,0h0c-.22-.98.31,1.34.25,1.1h0s0,.03,0,.03l-.03.07s-.05.08-.07.11c-.07.04-.16.03-.24,0-.26-.2-.58-.29-.98-.69-.31-.3-.63-.6-.99-.92l-.24-.25c-.38-.89-.8-1.41-1.25-1.92l-.33-.37c-.1-.12-.23-.26-.27-.32-.11-.15-.2-.32-.26-.51-.05-.16-.12-.24-.28-.27-.21-.04-.46-.07-.59-.2-.69-.68-1.69-.95-2.19-1.88-.38-.16-.79-.28-1.15-.47-.62-.32-1.19-.75-1.86-.97-.41-.13-.73-.33-1.08-.58-.41-.29-.84-.56-1.3-.82l-.72-.42-.22-.14c-.11-.08-.15-.09-.41-.32l-.05-.05-.1-.11c-.08-.09-.11-.12-.21-.28-.1-.17-.19-.38-.24-.58-.03-.1-.04-.21-.05-.31v-.15c0-.09,0-.21.02-.32.06-.47.39-1.01.75-1.27l.12-.09.05-.03.1-.06c.07-.04.13-.07.2-.1.14-.06.29-.1.43-.13l.13-.02h.06c.08-.01.15-.01.23-.01.15,0,.15,0,.23.02.22.03.3.05.4.07l.16.03.12.05.36.16,1.73.77c.56.28,1.1.62,1.65.94.34.19.62.48.87.79.21.25.44.48.76.52.69.08,1.17.49,1.67.89,1.44,1.14,2.71,2.47,3.87,3.88.39.5.52,1.13.92,1.64.34.4.68.87.66,1.47.74,1.29,1.34,2.65,1.85,4.05.17.44.3.9.42,1.36.06.25-.02.49-.21.69-.17.27.29.31-.83.69-.13.07-.95.02-1.06-.03-.71-.37-.5-.87-.98-1.41-.34-.36-.43-.93-.69-1.35Z"/>
  </g>
</svg>