<?xml version="1.0" encoding="UTF-8"?>
<svg id="illuer_hvid_bg" xmlns="http://www.w3.org/2000/svg" viewBox="0 0 126.13 126.38">
  <defs>
    <style>
      .cls-1 {
        fill: #0354f0;
      }
    </style>
  </defs>
  <path class="cls-1" d="M49.43,99.35c-1.4,1.38-2.4,2.94-3.95,4.08-.71.52-1.12,1.5-1.99,1.93-.53.27-.98.81-1.54,1.11-.73.39-1.17.83-1.8,1.55-.42.39-.61.7-1.59,1.42-.76.58-1.23.76-2.02,1.46-.72.6-2.18.97-3.07,1.38-.44.25-.89.4-1.33.52-.43.14-.87.22-1.32.28-.44.08-.89.15-1.38.19-.24.03-.49.07-.75.12-.26.03-.54.06-.82.09-2.06.12-3.95-.75-5.44-1.49-1.91-1.05-3.52-2.38-4.99-3.96-.33-.4-.63-.85-.82-1.3-.47-.94-.99-1.73-1.58-2.62-.57-.83-1.2-2.73-1.37-4.54-.23-1.81.03-3.47,0-3.91-.04-.31.04-1.1.21-2.13.21-1.02.55-2.27,1.1-3.43,1.02-2.37,2.77-4.24,3.06-4.49.38-.35.73-.53.87-.89.64-.41,1.2-1.37,1.8-1.66,1.14-.99,1.57-1.34,2.81-2.64,1.18-1.23,3.07-1.91,3.99-3.24,2.4-2.4,3.86-3.94,4.13-4.34.49-.73.99-.8,1.48-1.53.67-1,2.75-2.26,2.79-2.63.05-.4.63-.86.81-1.32.38-.99,1.37-1.85,2.42-2.57.55-.37.73-1.17,1.25-1.43.47-.24.92-.53,1.37-.87.44-.35.85-.76,1.3-1.23,1.88-1.99,3.97-3.93,6.57-5.26,1.62-.85,3.55-1.43,5.31-1.2.1,0,.21-.02.24-.02l-.94.97h0s-.02-.9-.02-.9l.91-.07c2.61-.2,3.87.2,4.94.33.52.02,1.01.15,1.48.31l.8.28v.83s0,0,0,0l-.79-1.1c.81.29,1.53.67,2.33.83.88.2,1.23.31,1.63.52.39.23.85.55,1.82,1.43.27.44,1.14,1.59,1.56,1.82.77,1.13,1.45,2.16,1.5,2.28.1.31.19.56.28.76.04.1.08.19.11.27.01.04.03.07.04.1.07.13.14.18.24.25.1.07.17.22.47.38.12-.03.23-.07.32-.09.12-.05.23-.09.32-.13.25-.14.44-.28.53-.55.1-.26.4-.44.85-.6.42-.14.68-.4.93-.76.52-.72,1.27-1.39,2.05-2.11.38-.36.8-.76,1.15-1.11l.13-.14.04-.08.09-.16c.04-.11.06-.24.06-.34.12-.21.1-.49.02-.79-.13-.33-.26-.67-.46-1.07-.61-1.33-1.85-2.63-2.84-4.06-.26-.38-1.05-.9-1.57-1.14-.86-.42-1.28-1.24-2.13-1.6-1-.4-1.32-1.04-1.88-1.59-.44-.44-.88-.85-1.63-1.05-1.05-.29-2.08-.9-3.12-1.24-.53-.16-1.02-.42-1.45-.56-.14-.05-.14-.05-.37-.1-.28-.04-.35-.08-.5-.11-.27-.06-.53-.1-.8-.09-1.47.04-3.03-.56-4.42-.15-.89.28-1.53-.02-2.44.17-.97-.46-2.28-.34-3.66.12-1.48.49-2.74,1.24-4.35,1.71-.51.14-1.08.7-1.62,1.07-.53.39-1.05.8-1.59,1.18-.28.2-.56.36-.85.51-.28.16-.56.32-.85.49-.3.16-.56.33-.79.52-.25.19-.53.46-.77.74-.92,1.06-1.72,1.74-2.64,2.81-.62.72-2.03,1.79-2.72,2.49-1.54,1.55-2.35,3.25-4.12,4.27-.68.68-1.49,1.31-1.9,2.1-.52.99-1.28,1.8-2.3,2.49-.18.12-.44.29-.54.43-.84,1.13-1.69,2.23-2.93,3.02-.79.9-1.61,1.7-2.56,2.46-.91.72-1.36,1.87-2.39,2.6-.82.58-1.39,1.27-1.93,2.03-.55.77-1.23,1.42-2,2.05-.53.44-1.17.94-1.56,1.43l-.85,1.05-.87,1.03c-.51.65-1.14,1.23-1.61,1.88-.49.64-1.05,1.23-1.51,1.91-.24.33-.49.65-.75.97-.23.34-.46.68-.69,1.03-.18.26-.35.51-.49.79-.12.28-.24.56-.34.85-.11.29-.21.58-.32.87-.08.31-.16.62-.25.94-.13,1.07-.37,1.69-.8,2.18-.21.25-.19.59-.02.97.18,1.8-.51,3.24-.32,4.17.26,1.28.52,2.53.53,3.93.03.57.11,1.47.39,1.91.29.51.49.99.65,1.49.2.49.35,1,.49,1.56.19.76.53,1.48.88,2.19.4.67.87,1.31,1.42,1.84.47.42.89.92,1.29,1.46.44.51.85,1.07,1.27,1.61.6.64,1.06,1.41,1.69,2.04.3.33.6.65.94.95.35.27.72.53,1.12.75.16.09.37.29.5.44,1.67,1.81,3.83,3.09,6.24,3.46.52.11,1.33.37,1.85.62.44.23.9.43,1.36.56.47.14.93.29,1.41.37.96.11,1.94.19,2.91-.05.36-.08.92-.04,1.29-.03,1.51.18,3.08.06,4.6-.34l1.14-.32.28-.08.53-.13.48-.12c.65-.23,1.32-.5,1.99-.86,2.15-1.12,4.21-2.69,6.3-4.21.57-.41,1.1-.8,1.57-1.34,1.23-1.45,2.62-2.7,4.16-3.8.97-.69,1.84-1.56,2.5-2.5,1.12-1.58,2.42-2.87,3.95-4.06.71-.55,1.47-1.22,2.11-1.91,1.65-1.79,3.52-3.37,5.07-5.24.4-.48.82-.93,1.26-1.36l.67-.64.35-.31.17-.16.06-.05.52-.39c.17-.13.29-.37.18-.56-.15-.23-.54-.23-.76-.18-.12.02-.22.05-.3.07-.04,0-.08,0-.12,0-.02,0-.04-.01-.06-.02h-.04s-.14-.04-.14-.04c-1.53-.25-2.98-.28-4.49-.46-1.34-.17-2.35-.74-3.35-1.25-1.1-.57-.96-2,.02-2.09.06,0,.62-.06.75.02.46.03,3.07.28,5.19.48.58.06,1.17.1,1.75.14l.46.03c.24.02.47.02.71.03.49.01.89.02,1.23.12,1.14.32,2.2.83,2.81,1.96.32.68.26,1.49-.15,2.15l-.32.5c-.06.08-.1.17-.18.25l-.27.25c-.37.33-.73.65-1.1.95l-1.23,1c-.37.3-.72.62-1.08.95-.71.65-1.4,1.32-2.09,2.01-1.35,1.4-2.71,2.8-4.06,4.21-.85.87-1.71,1.72-2.58,2.57-.34.33-.78.61-1.04.93-3.03,3.79-6.73,7.12-10.41,10.43-1.12.98-1.88,1.58-2.99,2.56-.9.82-1.86,1.43-3,2.01-.29.14-.59.28-.9.42-.33.13-.66.26-1.02.39-.36.12-.76.23-1.16.35-.39.08-1.02.2-1.11.23-.93.05-1.94.34-2.9.33-.76,0-1.46.15-2.2.29-3.42.78-7.19.29-10.63-.65-1.99-.79-4.3-1.84-6.02-2.97-1.75-1.08-3.01-2.06-3.24-2.19-.99-.8-1.84-1.76-2.66-2.71-.61-.79-1.21-1.56-1.74-2.4-.76-1.06-1.47-2.04-2.33-2.81-.82-.84-1.51-1.89-1.83-3.13-.61-2.17-1.32-4.19-2.17-6.3-.47-1.04-.68-2.16-.84-3.29-.08-1.14-.1-2.29.11-3.44.12-1,.33-1.99.41-2.99.04-.5.14-.99.18-1.49.05-.5.05-1.01.12-1.51.09-.74.21-1.51.51-2.22.31-.71.62-1.43,1.06-2.07.43-.6.98-1.32,1.2-1.86.29-.59.82-1.5,1.37-2.24.57-.72,1.07-1.33,1.12-1.49.08-.34.64-.81.94-1.11.44-.43.86-.83,1.28-1.23.38-.37.78-.76,1.19-1.18.83-.85,1.48-1.84,2.29-2.73.63-.7,1.44-1.58,2.07-1.97,1.5-.93,2.26-2.42,3.54-3.49,1.08-.91,2.15-1.95,3.19-2.97,1.22-1.2,2.36-2.43,3.21-3.78.46-.73,1.24-1.43,1.97-2.09.82-.74,3.42-3.27,3.89-3.58,1.96-1.28,3.57-3.35,5.24-5.13.82-.88,1.51-1.85,2.36-2.71.35-.35.67-.61,1.14-.99.45-.36.87-.59,1.28-.92.54-.42,1.03-1.19,1.68-1.27.84-.06,1.37-.39,2.34-1.07,1.13-.82,2.19-1.69,3.93-2.11,1.16-.27,2.31-.85,3.68-.96,1.47-.13,3.17-.29,4.67-.42,1.93-.17,3.58.41,5.32.51.42.02.81.09,1.19.16.19.04.37.08.56.13.04.01.02.01.07.02l.36.07c.87.22,1.56.55,2.27.87,2.63,1.23,4.96,2.59,7.45,3.77,2.45,1.19,4.76,3.02,6.39,5.52.58.92,1.15,1.86,1.63,2.95.46,1.08.86,2.41.62,3.97-.17,1.03-.74,2.02-1.37,2.73-.49.53-.92.99-1.42,1.49-.97.98-2.08,1.94-3.4,2.63-.77.4-1.36.88-2.15,1.26-.18.09-.36.17-.56.24-.27.1-.54.2-.82.25-.28.05-.55.14-.83.16-.28.02-.56,0-.83-.05-1.11-.21-2.05-.99-2.54-2.05l-.26-.52-.18-.33c-.12-.22-.25-.43-.38-.65-.26-.43-.55-.84-.84-1.26-.6-.82-1.25-1.6-1.97-2.36-.67-.73-1.75-1.31-2.74-1.69-.31-.13-.63-.21-.94-.3l-.99-.29-.1-1.24h0s1.1,1.53,1.1,1.53c-.72-.17-1.44-.27-2.16-.32-.97-.36-2.07-.46-3.16-.4l1.47-1.6h0s-.03,1.59-.03,1.59h-1.54c-1.24.02-2.46.31-3.67.57-.46.08-.77.26-1.13.52-.47.39-.96.85-1.47,1.19-1.31.87-2.46,2.02-3.58,3.21l-.85.9c-.29.32-.59.64-.9.92-.62.58-1.26,1.14-1.94,1.65-.93,1.07-1.84,2.16-2.81,3.2-1.66,1.78-3.46,3.51-5.03,5.32-.96,1.11-1.9,2.05-2.96,3.06-2.82,2.71-5.56,5.52-8.34,8.29-.67.68-1.43,1.41-2.03,2.06-.59.62-1.11,1.29-1.57,2.01-.91,1.43-1.54,3.04-1.86,4.71-.22,1.03-.34,2.08-.39,3.13-.02.43.03.87.06,1.3.07.42.2.83.35,1.19.71,1.49,1.43,2.96,2.47,4.28.18.24.39.43.57.66.18.22.38.44.64.63.48.4.93.84,1.45,1.19l.76.55c.26.17.53.31.79.47.52.34,1.07.54,1.6.79,1.09.4,2.19.65,3.3.67,1.11-.01,2.23-.22,3.33-.61,1.51-.55,3.1-1.11,4.56-2.26,1.17-.91,2.43-2.01,3.76-2.84,3.32-3.04,6.37-6.53,9.83-9.83,1.09-1.04,2.23-2.06,3.48-3.01.64-.51,1.33-.79,1.84-.86.74-.21.9-.79,1.83,0,.2.04-.02,1.1-.2,1.31-1.22,1.49-2.56,2.13-4.06,3.87-1.01,1.19-2.51,2.55-3.64,3.8Z"/>
  <g>
    <path class="cls-1" d="M123.45,33.62c5.14-21.44-21.35-39.38-39.51-27.83-3.72,1.53-25.68,24.89-29.11,27.95-1.21,2.15,2.12,1.41,3.28,1.46,3.78-.72,9.21,2.67,11.91.65,5.95-4.72,17.76-21.77,26.63-20.55,12.75-.43,19.62,16.53,10.15,25.31-3.61,3.62-20.15,20.15-23.39,23.39-6.58,8.79-19.29,10.61-25.84.87-3.16-4.41-7.34-1.34-9.91,1.82-6.08,6.09,10.49,16.63,15.84,17.22l2.14.18c9.59,2.37,17.65-1.63,24.01-9.03,7.65-9.31,35.07-29.49,34.66-43"/>
    <path class="cls-1" d="M122.15,22.08c-.49-1.86-1.55-3.29-2.16-5.02-.15-.39-.44-.74-.71-1.1-.29-.35-.58-.7-.72-1.15-.15-.57-.68-1.01-.92-1.57-.32-.74-.81-1.13-1.52-1.7-.44-.33-.72-.52-1.59-1.28-.7-.55-.98-.96-1.88-1.37-.75-.39-1.69-1.42-2.52-1.78-1.68-.68-2.72-1.59-4.72-1.82-1.69-.3-3.24-.93-4.68-1.1-1.83-.31-3.68-.5-5.53-.41-.44-.01-.88-.03-1.3-.07-.92-.11-1.75.14-2.62.45-.37.17-.93.35-1.57.52-.62.24-1.34.44-2.02.72-1.37.52-2.61,1.21-3.06,1.5l-.21.11c-.13.09-.17.12-.2.15-.08.08-.21.19-.42.33-.24.21-.54.47-.88.76-.68.61-1.54,1.38-2.37,2.18-1.67,1.58-3.29,3.19-3.57,3.4-.37.29-.74.5-.88.86-.65.4-1.23,1.36-1.82,1.65-1.15.99-1.59,1.34-2.84,2.65-1.19,1.24-3.09,1.94-4.01,3.28-2.41,2.44-3.87,4-4.14,4.42-.49.75-.99.81-1.48,1.56-.67,1.02-2.75,2.31-2.8,2.68-.03.2-.19.42-.36.65l-.26.35c-.04.07-.05.13-.05.2.06.56-.11.58-.95,1.09-.19.15-.08.27.11.31.2.05.42,0,.36.11-.17.39.42.49,1.12.41h.32c.2-.02.39-.02.57,0,.38.02.75.05,1.11.1.73.09,1.41.24,2.09.38,1.35.29,2.64.62,3.85.75.76.07,1.46.03,1.96-.16.14-.03.22-.11.34-.15.11-.04.3-.21.45-.3.32-.22.65-.45.98-.66,1.79-1.79,2.68-2.7,3.33-3.53.67-1.12,1.8-1.82,2.32-2.92.72-1.52.54-1.2,2.2-2.92.42-.22,1.48-1.06,1.62-1.49.99-.8,1.76-1.66,1.86-1.72,1.73-1.06,1.02-1.26,2.92-2.27.84-.76,1.39-1.07,1.59-1.67.1-.32.48-.61,1.02-.84.5-.21.84-.47,1.21-.84,1.6-1.49,4.34-2.12,6.85-2.52.38,0,.77.06,1.15.07.02,0-.03,0-.04,0h-.08s.06,0,.06,0h.26s.52-.04.52-.04c.69-.05,1.4-.03,2.09.08,2.24.38,4.46,1.23,5.98,2.74.41.38,1.36.96,1.93,1.33,1.01.61,1.34,1.65,2.14,2.37.93.89,1.01,1.74,1.24,2.59.1.34.18.68.3,1.02.12.34.28.69.5,1.07.65,1.08.91,2.48,1.11,3.8.21,1.39-.18,2.7-.09,3.94.12,1.8-.86,3.54-1.24,5.2-.26,1.12-.97,1.63-1.55,2.59-1.12.58-2.23,1.51-3.22,2.67-1.08,1.25-1.99,2.56-3.42,3.65-.45.34-.86,1.08-1.32,1.63-.45.55-.9,1.12-1.41,1.63-1.05,1.05-2.28,1.6-3.28,2.77-.93,1.08-1.72,1.78-2.65,2.87-.62.73-2.04,1.82-2.73,2.52-1.55,1.57-2.37,3.29-4.14,4.32-.68.68-1.5,1.33-1.92,2.12-.13.25-.28.49-.44.71-.08.11-.17.23-.25.33l-.14.16s-.02.03-.03.05c0,0-.01.02.01-.01.08-.09.03-.04.03-.04l-.04.05-.07.09-.15.18-.33.36c-.23.23-.47.46-.73.68-.18.16-.47.33-.59.49-.48.6-.94,1.25-1.56,1.74-.59.51-1.23.99-2.01,1.27-.54.39-1.08.77-1.68,1.03-.6.28-1.19.57-1.86.72-1.23.35-2.34,1.17-3.79,1.19-.57-.01-1.1.04-1.62.11-.52.03-1.04.09-1.57.17-.54.11-1.09.02-1.64-.02-.28-.03-.55-.07-.83-.12-.27-.08-.54-.17-.82-.26-.38-.13-.79-.27-1.19-.41-.39-.18-.77-.33-1.12-.43-.51-.13-1.01-.29-1.48-.54-.47-.22-.96-.44-1.42-.7-.86-.59-1.77-1.16-2.47-1.93-.36-.37-.76-.73-1.07-1.13-.3-.41-.6-.82-.89-1.24l-.4-.59c-.09-.12-.17-.25-.24-.38-.07-.15-.18-.22-.26-.34-.08-.13-.17-.22-.26-.3-.26-.3-.56-.38-.88-.4-.32-.03-.7.09-1.15.29-.65.5-1.2.74-1.81.81-.31.04-.48.33-.59.71-.4.59-.83,1.08-1.26,1.48l-.14.15c-.51.38-.87.7-.88,1.04-.01.38.09.76.2,1.21.1.44.28.96.46,1.55.12.49.58,1.23.96,1.53.88.69,1.51,1.38,2.28,2.27,1.03,1.19,2.36,2.19,3.86,2.7,1.2.41,2.42,1.17,3.66,1.79,1.59.77,3.08,1.87,4.66,1.58.19-.02.51.03.72.08.42.1.84.19,1.25.29l.87.28c.58.2,1.17.28,1.77.36,1.19.14,2.4.03,3.55-.3.5-.19,1.34-.22,1.91-.26,1.96-.02,3.88-.6,5.42-1.88.28-.25.79-.51,1.13-.66,2.91-1.11,5.28-3.58,7.33-6.04,1.82-2.22,3.81-4.14,5.87-5.9.56-.48,1.09-.9,1.56-1.49,1.23-1.53,2.67-2.82,4.26-3.93,1-.69,1.9-1.54,2.61-2.48,1.19-1.56,2.55-2.81,4.12-3.96.73-.52,1.51-1.18,2.17-1.86,1.68-1.76,3.55-3.34,4.97-5.26,1.44-1.95,3.2-3.58,4.47-5.6.76-1.18,1.16-2.48,2.02-3.6.82-1.13,1.31-2.38,1.63-3.64.19-.56.32-1.04.56-1.5.18-.46.4-.9.54-1.37.27-.97,1.68-1.47,2.02-.45.02.06.22.66.16.82.01.13.02.4.01.79,0,.2-.01.42-.02.66-.03.24-.07.5-.11.77-.14,1.11-.54,2.38-1.03,3.47-.27.6-.58,1.17-.87,1.74-.33.54-.67,1.07-1.06,1.53-.67.75-1.16,1.53-1.56,2.42-.47,1.08-1.22,2.19-2.07,3.05-2.78,2.82-5.43,5.8-8.26,8.57-.88.86-1.78,1.7-2.69,2.52-.35.32-.81.59-1.08.91-3.18,3.71-7.05,6.9-10.43,10.42-1.01,1.05-1.69,1.71-2.56,2.84-.7.93-1.41,1.69-2.17,2.55-.77.86-1.8,1.9-3.04,3.07-.79.49-1.59,1.15-2.43,1.61-.64.4-1.25.78-1.81,1.3-1.33,1.14-2.87,2.11-4.55,2.85-1.68.73-3.47,1.24-5.27,1.6-2.19.23-4.79.14-6.86-.21-.52-.08-1-.19-1.44-.27-.11-.02-.22-.04-.32-.06-.06-.01-.11-.02-.07-.01-.02,0-.04,0-.05,0-.17,0-.33-.02-.48-.03-.66-.03-1.11-.04-1.24-.03-.27-.02-.69-.09-1.06-.17-.34-.09-.69-.18-1.01-.3-.65-.22-1.24-.49-1.82-.77-.92-.45-1.75-.99-2.6-1.51-1.11-.69-2.2-1.25-3.27-1.63-1.11-.39-2.16-1.08-3.01-2.04-1.5-1.72-3.04-3.21-4.68-5.04-.8-.92-1.48-2.1-1.66-3.58-.21-1.46.33-3.2,1.39-4.22l.64-.61-.1.11c1.31-1.28,2.5-2.58,4.11-3.85.66-.53,1.55-.94,2.59-1.05,1.02-.11,2.19.1,3.06.68.85.51,1.54,1.38,2.01,1.84.64.63,1.11,1.25,1.61,1.9.5.61,1.01,1.05,1.13,1.11.14.04.29.19.47.34.19.13.37.29.51.4.41.34.77.68,1.21.9.43.23.82.55,1.32.7.98.41,2.03.46,3.05.57.41.03.87.06,1.31.09.44,0,.86.02,1.18.11,1.56.28,2.91-.47,4.32-.89,1.24-.3,2.45-.97,3.57-1.7,1.28-.9,2.42-1.99,3.03-3.32.08-.18.19-.35.3-.52l.18-.26.23-.28c.07-.09.18-.19.2-.22.35-.35.73-.7,1.1-1.03.83-.75,3.45-3.31,3.92-3.62,1.97-1.3,3.6-3.4,5.27-5.19.83-.89,1.51-1.87,2.35-2.75.65-.68,1.47-1.23,2.16-1.9.47-.45.76-1.26,1.35-1.42.75-.21,1.21-.61,1.88-1.51.8-1.07,1.39-2.18,2.68-3.22.87-.7,1.53-1.7,2.53-2.5,1.04-.76,1.94-1.76,2.44-2.87.63-1.34,1.52-2.5,1.55-3.97.01-1.36.25-2.48.18-3.77-.13-2.39-1.13-4.8-2.84-6.37-1.68-1.56-3.4-2.92-5.35-4.04-.71-.42-1.49-.68-2.3-.84-.41-.07-.82-.12-1.25-.14h-.64s-.16,0-.16,0h-.19s-.24-.01-.24-.01h-.31c-1.97-.09-4.17,1.11-6.4,2.13-.66.31-1.1.78-1.6,1.23-2.62,2.34-5.03,4.94-7.87,7.22-.86.69-1.73,1.71-2.52,2.63-.79.92-1.49,1.89-2.25,2.85-1.04.8-2.01,1.78-3.06,2.73-.27.24-.53.47-.82.71l-.44.35c-.11.1-.42.27-.62.38-.92.47-1.86.56-2.61.45-.63-.08-1.05-.12-1.59-.12-.74.02-1.52-.01-2.21-.18-1.68-.43-3.34-.79-4.72-.76-.22-.02-.71.06-1.04.08l-1.08.07c-.76.03-1.44.01-1.97-.11-.54-.12-.95-.31-1.29-.56-.17-.13-.33-.27-.48-.47-.14-.2-.27-.47-.28-.74-.06-.21-.07-.41-.06-.61,0-.2.02-.39.1-.54l.17-.49.08-.25.04-.12.13-.16,1.04-1.28.54-.66.65-.67c.91-.95,1.82-1.91,2.74-2.87.85-.89,1.69-1.79,2.48-2.71.96-1.13,1.9-2.08,2.96-3.11,2.83-2.75,5.58-5.61,8.42-8.39,1.42-1.39,2.85-2.77,4.31-4.14,1.49-1.36,2.91-2.71,4.66-4.01.38-.33,1.13-.74,1.77-1.05l-.3.16c.67-.35,1.34-.68,2.01-.99,1-.39,2-.82,2.87-1.26,1.79-1,3.9-1.53,6.05-1.74,6.18-.71,12.41.86,17.74,3.83,1.84,1.06,3.32,2.41,5,3.78,1.35,1.09,2.75,2.47,3.59,4.02,3.15,3.91,5.33,8.73,5.86,13.84.13,1.61.18,3.23,0,4.83-.1.84-.3,1.54-.65,1.95-.37.68-.02,1.18-1.25,1.33-.16.12-.8-.77-.84-1.04-.21-1.92.24-3.36-.12-5.6-.22-1.52-.51-3.46-1.01-5.03Z"/>
  </g>
</svg>