<?xml version="1.0" encoding="UTF-8"?>
<svg id="illuer_hvid_bg" xmlns="http://www.w3.org/2000/svg" viewBox="0 0 114.4 136.61">
  <defs>
    <style>
      .cls-1 {
        fill: #ff9400;
      }

      .cls-2 {
        fill: #0354f0;
      }
    </style>
  </defs>
  <path class="cls-2" d="M79.65,76.13c.5-1.03.54-2.12,1.15-3.05.26-.44.06-1.07.45-1.51.25-.27.25-.68.48-.98.28-.41.3-.77.25-1.33,0-.33-.07-.54.01-1.21.07-.52.15-.8.02-1.38-.1-.5.25-1.28.16-1.82-.25-1.07.08-1.86-.51-2.97-.2-.49-.29-.98-.34-1.45-.07-.5-.11-.99-.2-1.43-.16-1.16-.31-2.32-.43-3.48-.03-.27.03-.57.08-.83.1-.58-.02-1.1-.24-1.65-.42-1.03-.4-4.24-.61-4.7-.3-.61-1.1-5.59-1.18-5.89,0-.26.06-.52-.13-.68.07-.45-.28-.99-.2-1.37-.15-.84-.18-1.16-.51-2.13-.34-.89,0-2.17-.6-2.92-.9-1.75-1.51-2.81-1.78-2.97-.42-.32-.29-.68-.71-1-.29-.21-.49-.69-.69-1.1-.21-.4-.39-.75-.53-.74-.31.01-.51-.37-.83-.45-.34-.07-.6-.27-.83-.53-.24-.24-.44-.55-.6-.89-.17-.35-.76-.32-.85-.67-.15-.65-.58-1.14-1.15-1.6-.6-.49-1.21-.96-1.88-1.36-.66-.4-1.27-.88-1.97-1.21-.43-.23-.87-.45-1.29-.7-.41-.26-.81-.54-1.17-.84-1.39-.52-2.02-.91-2.64-.96-.78.04-1.37-.52-2.09-.37-1,.31-.78.27-2.07-.03-.21-.21-.91-.53-1.17-.33-.67-.22-1.32-.19-1.37-.22-1.06-.53-.88.1-2-.37-.62.04-.97-.05-1.24.3-.14.19-.39.19-.69.09-.28-.09-.51-.02-.76.12-.52.28-1.12.29-1.74.29-.61.02-1.22.11-1.73.41-.67.04-1.28.39-1.9.59-1.05.29-2.06.6-3.13.68-.29.01-.75.34-1,.58-.43.39-1.02.27-1.4.69-.43.5-.93.34-1.41.39-.4.02-.73.14-1.02.52-.39.56-1.04.84-1.57,1.28-.51.48-1.27.6-1.61,1.17-.25.38-.6.67-.93.98-.34.3-.67.61-.81,1.04-.2.55-.67.63-.95,1.13-.75.08-1.36.6-1.77,1.38-.41.86-.71,1.69-1.41,2.43-.21.24-.24.75-.37,1.13-.13.38-.25.77-.43,1.11-.32.75-1.04,1.21-1.27,2.05-.19.78-.4,1.33-.54,2.12-.04.27-.21.61-.34.97-.13.36-.26.73-.32,1-.12.61-.1,1.18-.09,1.73.04.55,0,1.07-.32,1.59-.06.53-.26,1.1.02,1.59.33.61.36,1.21.12,1.89-.04.12-.12.29-.08.39.28.77.52,1.5.28,2.34.12.64.25,1.36.2,2.08-.03.7.54,1.3.44,2.06-.09.61.08,1.12.31,1.64.23.53.29,1.09.27,1.68-.01.41-.04.91.09,1.26.73,2.06,1.07,4.14.94,6.35-.04.81.17,1.59.34,2.4.33.61.26,1.03,0,1.43-.13.2.01.38.25.55.28.49.36.97.39,1.41.02.44,0,.82.14,1.07.38.7.79,1.36.85,2.23.02.36.16.88.36,1.11.51.51.76,1.01.95,1.7.22.94.8,1.72,1.61,2.25.63.44,1.14,1.09,1.65,1.72.62.84,1.1,1.84,2.1,2.35.1.05.21.19.27.3.81,1.25,1.89,2.29,3.41,2.62.33.08.75.38.98.66.42.44.9.8,1.4,1.1.51.3,1.06.52,1.7.53.23.01.56.14.73.28.37.29.75.59,1.18.78.43.19.87.35,1.32.5.89.33,1.85.43,2.77.61.37.06.73.16,1.11.2l1.11.13c.74.09,1.47.25,2.21.31.4.05.78.11,1.18,0,.27-.07.53-.11.8-.14.26-.04.53-.09.79-.1.53-.04,1.06,0,1.61.09.69.14,1.38-.02,1.98-.3,1-.53,1.98-.73,3.09-.77.51-.02,1.09-.11,1.58-.32,1.27-.51,2.64-.84,3.74-1.68,1.11-.83,2.42-1.3,3.43-2.24.61-.54.96-1.3,1.7-1.71.74-.41,1.21-1.06,1.71-1.69.43-.58,1.07-.8,1.61-1.14.6-.35,1.84.32,1.78,1,0,.04-.04.43-.14.47-.08.29-.86,1.84-1.88,2.8-.56.52-1.08,1.09-1.77,1.4-.56.26-.97.61-1.32,1.11-.4.62-1.03,1.13-1.7,1.44-2.23.96-4.34,2.13-6.63,2.9-.71.23-1.43.44-2.16.59-.28.06-.61.02-.85.13-1.38.56-2.86.95-4.37,1.05-.75.07-1.51.17-2.26.2-.76,0-1.51.02-2.27.06-.91.08-1.49-.08-2.39.02-1.49.17-2.66-.35-4.64-.89-.47-.33-1.04-.58-1.52-.89-.38-.26-.79-.36-1.22-.47-1.01-.23-2.04-.52-3-.98-.94-.49-1.94-.91-2.85-1.45-.5-.4-1.05-.81-1.6-1.22-.56-.4-1.05-.87-1.53-1.25-.47-.39-.91-.71-1.22-.98-.3-.27-.52-.45-.59-.48-.52-.55-1.02-1.13-1.46-1.74-.33-.5-.61-1.03-.93-1.52-.21-.33-.45-.61-.71-.88-.24-.27-.51-.51-.81-.71-.61-.41-1.1-.99-1.29-1.74-.28-1.37-.95-2.46-1.75-3.57-.43-.54-.77-1.13-1.01-1.76-.19-.65-.3-1.32-.35-2.02-.13-1.2-.28-2.35-.89-3.44-.46-.83-.47-1.67-.4-2.55.04-.41.15-.94.02-1.24-.29-.7-.36-2.31-.51-2.46-.15-.15-.17-.56-.18-.8-.05-.71-.11-1.33-.22-2.01-.11-.7-.44-1.35-.6-2.05-.13-.55-.27-1.24-.17-1.7.25-1.07-.39-1.94-.38-2.94.01-.86-.12-1.7-.18-2.64-.04-.54-.1-1.07-.21-1.58-.05-.26-.12-.51-.19-.77-.05-.25-.12-.5-.21-.75-.19-.53-.13-1.21-.07-1.84.01-.71.4-3,.52-3.33.31-.69.56-1.42.67-2.2.06-.39.11-.78.16-1.18.07-.39.16-.77.25-1.14.2-.73.19-1.52.46-2.25.22-.56.63-1.05.89-1.6.18-.36.02-.99.47-1.15.55-.21.76-.52.95-1.2.11-.41.19-.82.31-1.24.15-.41.37-.8.74-1.19.51-.5.68-1.3,1.33-1.82.69-.56,1.34-1.33,1.87-2.05.72-.88,1.74-1.27,2.37-2.09.65-.77,1.44-1.1,2.19-1.59,1.5-.81,2.85-1.75,4.13-2.85.31-.29.64-.56.99-.8.36-.21.74-.4,1.13-.57.79-.32,1.59-.65,2.46-.69,1.25-.09,2.37-.49,3.6-.73.83-.18,1.65-.44,2.5-.52.85-.07,1.7-.08,2.52.05.48.06.89-.02,1.33-.07,1.15-.1,2.3-.21,3.44-.04.57.06,1.14.15,1.7.27.56.14,1.1.37,1.63.6.63.3,1.47.37,2.2.59.73.18,1.48.27,2.23.41,1.32.99,3.11,1.38,4.27,2.56.24.23.44.35.75.42.42.08.86.25,1.21.49.86.63,1.82,1.13,2.65,1.82.42.33.84.67,1.23,1.03.39.36.7.81,1,1.26.69.56,1.43,1.08,2.02,1.77.51.57,1.04,1.15,1.51,1.77.45.63.9,1.26,1.39,1.84.61.71.95,1.5,1.38,2.32l.42.83.35.87.71,1.73c.42,1.17.77,2.37,1.11,3.57.22,1.2.51,2.47.67,3.63l.48,3.47c.09.71.1,1.44.11,2.16,0,.59.03,1.19.26,1.7.47,1.05.64,2.19.82,3.35l.8,4.97c.27,1.7.49,3.55.51,5.35.01,1.26-.34,2.41-.41,3.69-.05,1.03-.22,2.17-.73,3.1-.65,2.89-1.71,5.68-3.13,8.28-.46.81-.94,1.62-1.47,2.38-.27.41-.64.67-.99.74-.44.21-.23.67-1.31.15-.16-.01-.54-.84-.52-1.02.09-.63.32-1.06.59-1.52.28-.45.58-.91.79-1.56.3-.88.91-1.88,1.26-2.8Z"/>
  <path class="cls-2" d="M97.27,82.61c.45-1.68.37-3.3.87-4.9.23-.74-.09-1.62.24-2.4.22-.49.14-1.09.31-1.62.24-.69.16-1.24.01-2.06-.06-.49-.17-.79-.23-1.82-.07-.8-.03-1.23-.29-2.08-.25-.73-.05-1.99-.3-2.8-.49-1.62-.3-2.87-1.06-4.6-.5-1.54-.57-3.12-.81-4.47-.25-1.74-.47-3.49-.68-5.24-.05-.41-.01-.85.02-1.24.06-.87-.1-1.65-.36-2.49-.51-1.56-.65-6.42-.99-7.04-.09-.23-.26-.85-.46-1.65-.2-.8-.39-1.81-.75-2.75-.31-.96-.61-1.9-.85-2.65-.21-.75-.5-1.25-.52-1.41-.11-.39-.15-.76-.41-.98-.1-.66-.71-1.41-.72-2-.51-1.21-.7-1.66-1.46-3.02-.19-.32-.31-.68-.45-1.05-.15-.35-.28-.72-.42-1.08-.28-.73-.58-1.43-1.09-1.93-.39-.64-.84-1.15-1.23-1.61-.39-.46-.73-.86-1.02-1.2-.59-.67-.96-1.11-1.16-1.21-.66-.42-.68-.88-1.35-1.31-.45-.29-.94-.9-1.36-1.44-.44-.52-.85-.94-1.02-.95-.38,0-.82-.47-1.26-.57-.46-.11-.9-.35-1.3-.69-.41-.33-.84-.68-1.21-1.09-.4-.42-1.14-.41-1.44-.82-.27-.37-.57-.76-.97-1.05-.39-.3-.83-.58-1.33-.84-2.05-1.18-4.27-2.01-6.46-2.85-1.43-.41-2.87-.91-4.16-1.51-2.23-.39-3.28-.77-4.22-.75-1.15.15-2.21-.33-3.24-.07-1.4.38-1.09.38-3.12.31-.38-.16-1.53-.35-1.87-.14-1.07-.04-2.04.14-2.13.12-.86-.12-1.19-.04-1.53.04-.34.08-.69.12-1.59.07-.93.23-1.46.24-1.81.67-.18.22-.55.32-1.03.29-.45-.04-.78.08-1.14.32-1.45.96-3.68.81-5.09,1.94-.97.33-1.85.9-2.77,1.35-.74.38-1.47.78-2.22,1.13-.37.18-.75.34-1.13.49-.37.18-.73.35-1.11.49-.4.15-1.04.73-1.39,1.11-.29.33-.65.51-1.01.68-.34.2-.68.41-.93.75-.59.79-1.25.86-1.91,1.15-.26.12-.51.23-.75.39-.22.18-.43.4-.61.71-.52.86-1.36,1.55-2.07,2.31-.67.84-1.6,1.39-2.05,2.27-.66,1.18-1.78,2.21-2.18,3.48-.25.83-.85,1.14-1.16,1.95-.87.48-1.54,1.47-2.05,2.71-.44,1.37-.75,2.69-1.53,4.04-.21.43-.21,1.18-.33,1.78-.12.6-.22,1.21-.41,1.79-.33,1.22-.98,2.19-1.15,3.5-.04.3-.08.59-.13.86-.02.28-.05.54-.07.81-.05.53-.1,1.06-.11,1.67,0,.41-.11.99-.23,1.57-.11.58-.13,1.18-.15,1.6,0,.95.15,1.81.23,2.64.09.83.25,1.62.05,2.49.08.83.03,1.72.36,2.43.46.9.64,1.89.56,3-.01.2-.04.47,0,.63.38,1.21.73,2.42.59,3.74.23,1.05.36,2.08.38,3.17.01,1.05.64,1.98.59,3.12-.04.91.16,1.69.43,2.48.27.81.37,1.66.39,2.54.02.62.02,1.36.18,1.9.44,1.57.77,3.15,1.03,4.72.32,1.49.45,3.02.62,4.59.18,1.16.61,2.19,1,3.37.5.89.66,1.5.54,2.11-.05.31.17.55.48.78.94,1.41,1.06,2.87,1.57,3.57.37.48.72.97,1.02,1.5.33.51.65,1.04.88,1.64.19.5.59,1.23.93,1.54.37.38.71.72,1.03,1.09.31.37.58.78.86,1.24.39.61.77,1.24,1.29,1.74.52.49,1.09.93,1.72,1.28.5.28.97.66,1.43,1.07.5.37.98.79,1.46,1.19.63.51,1.17,1.14,1.79,1.66.64.5,1.32.97,2.1,1.29.16.06.37.23.5.36.21.2.41.4.62.59.23.17.45.33.69.49.46.32.94.61,1.43.88.49.26.99.52,1.51.72.54.16,1.09.3,1.66.4.5.09,1.23.42,1.68.72.78.53,1.64.83,2.49,1.15.87.26,1.74.55,2.7.49.35,0,.88.09,1.2.23.66.28,1.35.51,2.05.72.71.15,1.43.24,2.16.32.73.08,1.46.15,2.19.21.73-.01,1.46-.02,2.19-.03,1.16,0,2.32.03,3.46-.11,1.15-.11,2.3-.12,3.45-.21.62-.06,1.2-.11,1.8-.32,1.57-.6,3.16-.93,4.8-1.17,1.05-.1,2.04-.53,2.91-1.03,1.43-.91,2.86-1.52,4.46-2.05.76-.21,1.54-.61,2.24-1.03.91-.53,1.79-1.12,2.69-1.67.87-.59,1.72-1.22,2.47-1.95.73-.79,1.58-1.4,2.33-2.13l1.16-1.06c.37-.37.71-.77,1.05-1.18.81-.95,1.24-2.12,2.2-2.98.88-.92,1.52-1.95,2.09-3.05.55-.96,1.27-1.58,1.9-2.29.7-.76,2.09-.42,2.01.51,0,.06-.05.59-.16.69-.06.21-.27.92-.66,1.77-.42.84-.9,1.89-1.53,2.71-.66.92-1.29,1.88-2.14,2.57-.67.59-1.19,1.22-1.64,1.98-.26.46-.57.93-.94,1.36-.38.42-.8.81-1.23,1.14-2.85,2.16-5.65,4.43-8.79,6.21-.96.58-1.98,1.03-2.98,1.51-.39.19-.86.27-1.19.46-3.83,2.27-8.35,3.35-12.74,4.19-1.33.19-2.21.25-3.5.55-.53.11-1.05.24-1.57.24-.52.01-1.05,0-1.6-.01-.55-.03-1.13-.05-1.77-.08-.32-.02-.65-.03-.99-.05-.34-.05-.7-.1-1.08-.15-.78-.26-1.69-.43-2.49-.67-.32-.1-.64-.17-.96-.21-.32-.07-.63-.12-.97-.15-3.08-.17-6.19-1.14-9.15-2.17-.84-.42-1.77-.85-2.7-1.27-.89-.49-1.78-.97-2.57-1.41-1.63-.81-2.78-1.63-3.01-1.7-.91-.67-1.84-1.3-2.64-2.08-.63-.63-1.24-1.24-1.87-1.87-.86-.77-1.65-1.52-2.55-2.01-.46-.26-.89-.57-1.29-.94-.2-.18-.39-.38-.57-.59-.16-.22-.31-.46-.45-.71-.97-1.77-2.2-3.23-3.55-4.71-.68-.73-1.38-1.47-1.83-2.36-.47-.88-.87-1.81-1.2-2.77-.32-.82-.57-1.68-.92-2.48-.35-.8-.77-1.57-1.28-2.32-.68-1.12-.98-2.47-1.18-3.8-.04-.31-.09-.67-.13-1.01-.02-.34-.06-.66-.14-.9-.4-1.09-.73-3.58-.9-3.82-.16-.24-.21-.86-.24-1.22-.1-1.07-.2-2-.36-3.04-.16-1.06-.54-2.06-.75-3.12-.17-.84-.37-1.88-.29-2.56.18-1.59-.53-2.93-.59-4.43-.05-1.27-.23-2.6-.4-3.9-.2-1.53-.48-3.01-1.03-4.34-.3-.72-.37-1.66-.45-2.54-.04-1.04-.32-4.45-.23-4.96.53-2.16.09-4.58.35-6.86.11-1.12-.07-2.26.19-3.36.16-.87.54-1.71.74-2.58.07-.29.05-.64.07-.96.04-.32.12-.62.34-.82.56-.5.76-1.02.92-2.05.11-.61.12-1.22.27-1.83.16-.61.38-1.24.76-1.92.53-.89.68-2.03,1.43-2.99.38-.52.76-1.11,1.11-1.71.36-.6.66-1.24,1.01-1.79.41-.72.93-1.33,1.43-1.91.5-.59.96-1.17,1.39-1.8.8-1.23,1.74-2.04,2.7-2.96.95-.82,1.86-1.66,2.71-2.55.87-.87,1.79-1.68,2.59-2.63.77-.97,1.77-1.72,2.8-2.43.52-.35,1.05-.69,1.59-1,.54-.32,1.15-.52,1.73-.75.85-.32,1.67-.67,2.48-1.07.81-.38,1.67-.69,2.51-1.08,1.14-.51,2.29-1.07,3.51-1.37,1.21-.33,2.41-.69,3.64-.76.72-.02,1.29-.26,1.93-.43.82-.21,1.65-.45,2.48-.61.84-.11,1.68-.21,2.53-.29.84-.05,1.69-.17,2.53-.1.85.06,1.69.16,2.53.29.5.08,1.07.11,1.64.11.57.04,1.16.09,1.72.13,1.11.09,2.23.02,3.34.12,1.12.45,2.34.73,3.56,1.01,1.21.3,2.38.77,3.43,1.3.43.23.75.34,1.21.39.6.11,1.27.26,1.84.51.72.33,1.46.63,2.19.92.73.31,1.43.7,2.14,1.05.71.37,1.41.74,2.09,1.15.65.46,1.26.96,1.84,1.49l1.72.99c.56.35,1.08.76,1.62,1.16l1.35,1.06c.45.35.9.72,1.29,1.13.82.8,1.65,1.59,2.5,2.33,1,.95,1.75,1.95,2.61,3.02.59.7,1.06,1.5,1.57,2.26l1.52,2.3,1.31,2.43c.43.81.9,1.61,1.22,2.47.68,1.71,1.49,3.37,1.94,5.16l.79,2.64c.21.89.36,1.8.53,2.7.2,1.11.35,2.26.39,3.32.05.88.12,1.79.38,2.57.54,1.61.8,3.33,1.07,5.08.78,5,1.56,10.01,2.34,15.01.28,1.69.22,3.51.44,5.37.15,1.5.23,3.19-.14,4.69-.17,4.37-.93,8.72-2.3,12.87-.44,1.31-.92,2.6-1.49,3.86-.31.66-.67,1.17-1.07,1.43-.49.47-.25.99-1.47.79-.18.06-.61-.87-.59-1.13.19-1.76,1.04-2.85,1.46-4.86.3-1.37.89-3.06,1.18-4.53Z"/>
  <g>
    <path class="cls-1" d="M105.01,123.17l-36.67,7.22c-3.2.63-6.42,1.09-9.67,1.37l-38.71,3.4c-5.17.45-9.79-3.22-10.52-8.36L1.7,71.95c-.43-3.05,1.97-4.73,4.75-6.31,0,0,21.73-6.31,45.63-9.68,23.91-3.38,46.65-3.35,46.65-3.35,4.19,1.36,5.88,1.69,6.31,4.75l7.75,54.88c.72,5.13-2.69,9.94-7.78,10.94Z"/>
    <path class="cls-1" d="M94.67,126.28c-1.76.31-3.3.97-5.04,1.01-.79.02-1.57.59-2.45.47-.54-.07-1.12.14-1.69.1-.74-.06-1.28.1-2.07.41-.48.15-.77.3-1.81.52-.81.18-1.25.18-2.1.54-.74.31-2.04.21-2.83.49-1.61.58-2.87.46-4.57,1.31-1.53.59-3.09.75-4.47,1.05-1.78.33-3.57.59-5.36.77-.42.04-.87,0-1.27-.04-.88-.08-1.7.04-2.56.26-1.61.41-6.46.37-7.17.57-.98.28-8.52,1.1-9.16,1.09-.42,0-.81-.08-1.11.1-.69-.1-1.63.26-2.22.1-1.37.02-1.87,0-3.49.18-1.54.17-3.25-.54-4.66-.12-3.07.27-4.98.49-5.4.62-.77.24-1.15-.04-1.92.2-1.06.33-3.21-.05-3.49.19-.3.27-1.05.2-1.53.35-1.04.37-2.47-.01-3.55-.75-.28-.2-.63-.27-.96-.37-.33-.11-.65-.22-.84-.45-.68-.85-1.43-1.67-2.25-2.65-.86-1.04-1.54-2.24-1.96-3.54-.22-.63-.36-1.34-.46-1.96l-.28-1.81c-.23-1.52-.5-3.08-.41-4.55-.39-2.3-.48-3.44-.71-4.36-.43-1.11-.24-2.29-.75-3.27-.7-1.35-.57-1.05-.85-3.15.1-.41.1-1.62-.15-1.95-.02-1.12-.25-2.12-.24-2.22.15-1.79-.41-1.36-.2-3.24-.18-.97-.17-1.52-.59-1.91-.22-.2-.3-.6-.24-1.1.05-.46-.05-.81-.22-1.22-.7-1.67-.37-3.92-1.02-5.64-.06-1.08-.47-2.12-.6-3.2-.21-1.76-.52-3.48-.37-5.19.04-.45-.21-1.31-.41-1.82-.34-.86-.04-1.7-.35-2.52-.37-.96-.09-1.6,0-2.33.07-.58.12-1.14-.15-1.83-.38-.97-.44-2.11-.63-3.18-.11-.67-.05-1.48.16-2.18.21-.71.53-1.34.78-1.96.37-.88,1.07-1.53,1.74-2.04.67-.52,1.34-.93,1.84-1.48.16-.17.34-.32.51-.42l.13-.08.21-.12c.15-.09.3-.17.47-.19.4-.1.49-.1.71-.15.2-.04.4-.1.61-.18,1.01.28,2.22.04,3.54-.43,1.4-.5,2.7-1.12,4.33-1.28.51-.05,1.16-.45,1.77-.67.6-.22,1.22-.45,1.85-.6,1.3-.32,2.52-.1,3.84-.53,1.22-.4,2.17-.53,3.4-.93.82-.27,2.44-.37,3.31-.56,1.94-.43,3.41-1.36,5.26-1.21.86-.17,1.79-.22,2.5-.62.89-.51,1.88-.74,3.01-.7.2,0,.48.02.63-.03,1.21-.43,2.42-.82,3.77-.72,1.06-.25,2.09-.42,3.2-.45,1.06-.02,2.01-.66,3.16-.62.92.03,1.71-.16,2.52-.43.82-.27,1.68-.36,2.58-.38.63-.01,1.37,0,1.93-.14,3.2-.82,6.42-1.21,9.76-1.07,1.25.04,2.4-.17,3.72-.3,1.04-.29,1.74-.2,2.31.08.29.14.6.01.94-.21,1.74-.53,3.24.06,4.12-.13,1.25-.28,2.52-.45,3.87-.24.55.09,1.42.12,1.89,0,1.09-.29,2.03-.29,3.15-.18,1.51.15,3.04.1,4.49-.33,1.17-.35,2.55-.34,3.89-.36.43,0,.87.02,1.3.04l.65.05c.23.02.36.03.84.04h.3s.28.11.28.11l.48.17c.2.07.41.14.62.2.42.12.85.22,1.32.28.19.03.47.14.67.26.58.33,1.2.66,1.87,1.14.66.46,1.36,1.17,1.8,1.97.44.79.67,1.58.83,2.27.16.63.32,1.16.54,1.73.19.5.29,1.34.28,1.92-.05,1.98.11,3.85.81,5.72.13.34.22.91.21,1.27-.11,3.04.56,6.1,1.03,9.13.38,2.42.73,4.82.9,7.24.05.66.08,1.26.27,1.9.52,1.68.72,3.41.68,5.15-.02,1.09.13,2.2.46,3.21.55,1.69.75,3.35.71,5.11-.02.82.01,1.74.15,2.58.34,2.18.38,4.4.87,6.53.25,1.08.37,2.17.48,3.26.13,1.17.12,2.5-.04,3.75-.17,1.47-.39,3.02-1.4,4.27-.99,1.21-1.91,2.34-3.14,3.3-1.1.84-2.29,1.01-3.38,1.13-1.25.07-1.72-1.25-1.04-1.81.04-.04.42-.34.54-.35.16-.11.74-.43,1.39-.92.66-.47,1.36-1.14,1.96-1.76.67-.69,1.15-1.51,1.71-2.25.46-.62.67-1.35.6-2.11-.09-.93-.17-1.82-.18-2.81-.07-3.5-.67-7.01-1.11-10.52-.13-1.09-.25-2.18-.36-3.27-.04-.42.01-.89-.08-1.26-1.07-4.25-1.44-8.72-2.26-13.05-.24-1.3-.35-2.15-.71-3.39-.58-2.05-.61-3.82-.96-6.78.06-.79,0-1.7.03-2.52.03-.66-.05-1.28-.22-1.91-.82-2.91-1.17-6.04-1.78-9.05-.08-.91-.18-1.92-.3-2.88-.05-.4-.14-.77-.26-1.05-.12-.27-.27-.46-.46-.63-.37-.35-1.03-.61-1.52-.78-.51-.17-.89-.27-1-.27l-1.52-.56-.19-.07-.07-.04s-.1-.04-.15-.05c-.02,0-.19-.02-.32-.03l-.4-.03c-.86-.07-1.7-.14-2.56-.21-1.13-.06-2.2.04-3.15.35-.98.32-2.03.4-3.11.23-1.92-.3-3.82-.25-5.72.23-1.89.47-3.8.55-5.78.35-1.72-.15-3.44-.04-5.09.49-1.21.38-2.53.4-3.84.33-.61-.04-1.39-.15-1.87-.02-1.1.28-3.52.39-3.76.54-.24.15-.87.18-1.23.2-1.07.07-2,.15-3.05.29-1.06.14-2.07.5-3.13.7-.84.16-1.89.35-2.56.27-1.59-.18-2.93.55-4.43.62-1.27.07-2.6.28-3.9.48-1.52.23-3,.58-4.31,1.17-.71.32-1.65.45-2.52.56-.98.12-4.2.72-4.7.71-2.12-.06-4.35.76-6.47,1.32-1.05.28-2.03.71-3.07.98-.82.21-1.69.22-2.54.4-.57.12-1.15.64-1.69.46-.69-.23-1.22-.14-2.14.26-1.09.47-2.04,1.08-3.51,1.28-.99.13-1.93.63-3.07.78-.61.08-1.26.2-1.91.36-.59.15-1.51.4-1.38.45-.63.44-1.25.72-1.81,1.03-.55.3-1.03.64-1.26,1.09-.39.85-.69,1.11-.65,2.23.16,2.42.5,4.8,1.25,7.07.74,2.24,1.11,4.66,1.1,7.06,0,1.75.21,3.44.51,5.21.41,2.39.88,4.81.81,7.2-.02.7.19,1.26.32,1.89.69,3.23,1.27,6.45,1.23,9.75-.01,1,.22,2.19.42,3.26.2,1.07.49,2.11.74,3.16-.08,2.32.6,4.83.51,7.15-.02.47.02.81.17,1.23.2.56.43,1.23.51,1.78.18,1.28.76,2.49,1.55,3.5.8,1,1.74,1.85,2.8,2.63,1.02.41,2.09.56,3.15.58.46.02.89-.02,1.38-.05l1.66-.17c1.1-.12,2.2-.24,3.27-.42,1.31-.22,2.51-.32,3.83-.41,3.53-.23,7.07-.59,10.6-.9l10.6-.92c1.09-.09,2.19-.09,3.28-.09.89,0,1.81-.02,2.6-.24,1.66-.47,3.4-.61,5.1-.83,2.47-.31,4.92-.73,7.37-1.26l7.48-1.6c1.72-.37,3.41-.41,5.17-.86,1.41-.36,2.98-.7,4.46-.69l12.39-2.47,3.91-.76c.69-.13,1.3-.1,1.73.05.66.11.91-.39,1.49.69.16.11-.31,1.01-.54,1.15-1.56.93-2.97.85-4.96,1.54-1.37.47-3.2.73-4.7,1.09Z"/>
  </g>
</svg>