<svg width="129" height="103" viewBox="0 0 129 103" fill="none" xmlns="http://www.w3.org/2000/svg">
<g clip-path="url(#clip0_40000120_27573)">
<path d="M8.32322 55.7097C7.94764 55.5141 6.97857 54.8284 6.39718 54.5201C6.14628 54.3876 5.3561 54.5329 5.41552 54.0017C5.4575 53.6303 6.30281 53.3555 5.32527 53.1464C5.60079 52.7409 5.76812 52.8361 5.36015 52.5057L5.86807 52.1271L5.12418 52.1415C5.14025 51.7908 5.61537 51.826 5.683 51.5348C5.73193 51.3227 5.50311 50.9909 5.63433 50.7672C5.73983 50.5846 6.17219 50.5934 6.35834 50.2512C6.52548 49.9469 6.06845 49.9816 6.17204 49.636C6.24661 49.3882 6.57086 48.2555 6.60325 48.1849C6.7937 47.7621 7.33699 47.7993 6.79118 47.4271L7.37431 47.3516C7.54428 47.1025 7.09936 47.1714 7.12767 46.965C7.18919 46.5278 7.64796 46.1672 8.03642 46.0054L7.79597 45.6434L8.12638 45.6774C8.42971 44.4195 9.14028 43.1205 10.0986 42.2682C9.55694 42.1737 9.4213 42.2205 9.77641 41.5952C9.86874 41.434 10.2452 41.7905 10.3502 41.6041C10.5085 41.3247 10.9207 40.059 11.1166 39.9312L11.3846 40.2153C11.4888 40.1312 11.8266 39.0126 12.0191 38.7473C12.6796 37.8372 13.4192 37.2036 14.144 36.3538C14.3827 36.0732 14.7073 35.5079 14.9492 35.1501C15.0582 34.9893 15.0201 34.6865 15.0561 34.6583C15.1709 34.5705 15.7724 34.6956 16.0166 34.4525C16.1692 34.2998 16.4948 33.6527 16.5875 33.4115C16.8395 32.7568 16.2401 32.4047 17.5642 32.7282C17.2111 31.8164 17.537 32.1474 17.7486 31.9803C17.9091 31.8528 17.9797 31.6373 18.1764 31.5601C18.6223 31.3833 18.82 31.8608 19.1856 30.8006C19.4279 30.0996 18.8572 29.8137 20.1613 30.115C20.3336 29.8593 19.8539 29.9157 19.9099 29.7416C20.0691 29.2442 20.5745 29.3462 20.747 29.2007C21.3426 28.7004 21.1603 27.9317 22.4084 28.4967C22.2154 27.3846 23.3892 28.0649 23.4899 27.0222C24.2623 27.5798 23.0118 28.2269 23.7386 28.4136C23.7214 27.8887 24.2242 28.0402 24.2774 27.9528C24.4847 27.6088 24.0517 27.6333 24.0564 27.5044C24.0795 26.9863 24.518 27.225 24.5829 27.1101C24.9387 26.4775 24.1502 26.3602 25.4132 26.3091L24.7832 25.9909C24.8837 25.6069 25.4589 25.48 25.5491 25.3723C25.6598 25.2382 25.6815 24.8821 25.7453 24.8489C25.8332 24.8056 26.2383 25.1126 26.3929 25.0595C26.8082 24.9166 26.4929 23.6451 27.688 24.6074L27.6996 24.0535C28.1341 24.5931 27.9116 24.0751 28.173 23.9146C28.5045 23.7139 30.6593 22.4937 30.9053 22.4453C30.9854 22.4291 31.1375 22.6887 31.1554 22.6801C31.2522 22.6326 32.0032 21.1296 32.4926 20.9983C32.6921 20.9445 32.8896 21.265 33.1454 21.2519C33.4924 21.2339 33.7942 20.7594 33.9394 20.7328C35.4823 20.4588 37.62 19.6076 39.1811 18.9295C39.3678 18.8487 39.47 18.581 39.4928 18.5742C39.7516 18.4949 39.9317 19.1751 40.0289 19.137C40.0507 19.128 40.1264 18.8508 40.3482 18.7919C40.7986 18.6709 40.9247 19.2142 40.8806 18.3232C41.448 18.9027 41.2919 18.386 41.7584 18.2932C42.2249 18.2003 42.5137 18.5255 42.5846 18.5303C42.6394 18.5331 42.6429 18.26 42.7057 18.2245C43.2601 17.9092 43.8196 18.527 43.9689 18.4889C44.1572 18.4404 44.4522 17.3905 44.86 17.3215C44.7477 19.5862 45.0798 17.9841 45.858 17.6778C46.1044 17.581 46.4378 17.7485 46.5335 17.6147C46.7209 17.3532 46.7624 16.7148 46.9554 16.3899L47.2497 16.8682L47.6131 16.6247L47.6031 17.1792C47.7711 16.0727 48.3016 16.7249 48.9313 16.7071C49.0894 16.702 49.1515 16.5002 49.294 16.497C49.8405 16.4831 50.4541 16.9951 50.5609 16.1878C50.8304 16.1889 50.4594 16.8906 50.9406 16.6929C50.9931 16.6706 50.7946 16.2899 50.9746 16.3337C51.6191 16.5899 52.1093 16.0035 52.8235 16.6205L52.748 16.0393C53.6694 17.1334 54.0369 16.2307 54.4678 16.1699C54.8988 16.1091 55.5369 17.257 55.8857 15.8494C56.618 15.9204 55.6748 16.6195 56.0858 16.852C56.7716 15.365 57.5203 16.6475 57.8927 16.7469C58.3214 16.8608 58.209 15.9789 58.2627 15.9533C58.732 15.7364 59.1408 16.4908 59.1939 16.4724C59.2636 16.4488 59.2101 16.0265 59.4763 16.2L59.5249 16.5887L60.0792 16.6C60.1879 16.5137 60.0138 16.0746 60.0903 16.0478C60.5822 15.867 60.4852 16.7151 60.6319 16.6107C60.6383 16.2714 61.7781 16.3163 62.0996 16.3546C62.6213 16.4158 62.8613 16.7161 63.0741 16.751C63.1797 16.7682 63.4595 16.1402 63.6267 16.562C63.6722 16.6753 63.2719 17.0549 63.6145 17.1175C64.0365 16.0663 64.1683 16.8934 64.7755 17.0654C65.4832 17.264 66.025 16.6474 66.4302 17.5647L66.7706 17.1282L66.7613 17.681C66.8887 17.1573 67.43 17.4476 67.5812 17.3672C67.6798 17.3147 67.9241 16.4819 68.0475 17.1698L68.2221 18.0178L68.9332 17.3385C69.2192 17.6926 69.4513 18.2047 69.9685 18.2736C70.0962 18.2913 70.1893 17.9755 70.2931 17.9976C70.6007 18.0645 71.1452 18.7983 71.6603 18.831C71.7821 18.839 71.8182 18.5477 71.9295 18.5856C72.1884 18.6743 72.4032 19.2772 72.9119 19.4701C73.4597 19.6787 74.0282 19.5289 74.5409 19.3368L74.3645 19.8356C74.4285 20.0021 75.3432 19.7782 75.5538 19.872C75.6451 19.914 75.5129 20.2195 75.6021 20.2513C76.253 20.4893 77.2033 20.6755 77.8926 20.9049L77.7163 21.4036C78.566 20.9269 78.7156 22.0404 79.5136 21.8624L79.3129 22.1565C80.0574 22.1667 80.6148 23.4481 81.0418 22.7775C81.0619 23.4995 82.7846 24.038 82.8735 24.1761C82.8977 24.2127 82.4549 24.8124 82.5811 25.003C82.6005 25.0323 83.0819 24.9392 83.2387 25.2377L82.8618 24.7299C83.1348 23.9054 83.5672 24.7615 83.8388 24.8828C85.0254 25.4109 84.8662 25.5612 85.5686 25.98C86.2946 26.4109 88.2289 26.5509 87.7946 27.6108L87.9565 27.6686C88.0093 27.0772 88.7162 27.6412 89.0426 27.8865C89.1672 27.9814 89.0615 28.2329 89.136 28.2539C90.3021 28.5769 89.5886 28.4528 89.9401 28.7481C90.3206 29.0669 90.7498 28.6845 90.1421 29.382L90.6495 29.0051C91.0928 29.0197 90.8934 29.4785 91.0255 29.647C91.065 29.6984 91.8577 30.4984 91.9091 30.5373C92.2537 30.789 92.9337 30.6922 92.6572 31.2112L92.8191 31.269L92.9368 30.9415C93.508 30.9942 93.0542 31.2988 93.1409 31.522C93.2197 31.7255 94.1719 32.4536 94.3656 32.674C94.4742 32.7986 94.3875 33.07 94.4215 33.1213C94.4679 33.1901 94.8409 33.0825 95.0197 33.1557C95.1985 33.2289 94.8505 33.5712 95.1583 33.5953C95.575 32.6485 95.7153 34.1674 95.8331 34.3027C95.9248 34.4064 97.301 35.3512 97.3962 35.5662C97.9561 36.8299 98.7542 36.9991 99.1783 38.1471C99.1962 38.1964 99.8925 38.822 99.9223 38.8849C100.039 39.1187 99.8706 39.4207 99.9677 39.5618C100.065 39.7028 100.844 40.0741 101.009 40.344C101.292 40.8015 100.922 40.4457 101.549 41.1472C101.839 41.4707 101.925 42.1846 102.023 42.3952C102.207 42.7856 102.925 43.0194 102.56 43.6935C102.784 43.8966 102.96 42.8248 103.226 43.3732C103.342 43.6142 102.859 44.2742 103.546 44.0456C103.353 44.6353 102.998 44.923 103.751 45.0518C102.852 45.873 104.472 45.7479 104.564 45.9C104.816 46.3185 103.794 46.0134 104.002 46.4421C104.018 46.4758 104.447 46.6253 104.584 46.7789C104.722 46.9324 104.964 47.4781 105.108 47.6451C105.236 47.7935 105.636 47.9029 105.669 47.9909C105.756 48.248 105.07 48.6953 105.953 48.8184L105.644 49.1765C106.744 49.2239 106.238 49.9185 106.437 50.5812C106.62 51.1896 107.322 51.1717 106.56 51.8288L107.277 51.9001C106.77 52.7588 107.37 52.5418 107.487 52.7628C107.54 52.8618 107.38 53.0827 107.423 53.1987C107.483 53.3602 108.157 53.7372 108.191 53.9415C108.235 54.2111 107.903 54.6338 107.952 54.7444C107.976 54.7977 108.497 54.8551 108.697 55.2831C108.8 55.5027 109.427 57.8131 108.726 57.2659C108.551 57.5227 109.033 57.4557 108.979 57.6493C108.925 57.8429 108.569 58.0983 108.598 58.1478C108.852 58.5819 109.254 57.8913 109.454 58.084C109.769 58.3886 109.616 58.7315 109.171 58.6324C109.199 58.8176 109.51 58.9569 109.533 59.0786C109.649 59.7286 108.808 59.6375 110.391 59.9078C110.371 60.4287 109.614 60.2853 109.508 60.3577C109.444 60.4037 109.463 61.6797 109.302 61.9396C109.61 62.1278 109.858 61.7779 110.161 61.8653C110.484 61.9603 110.208 62.9572 110.223 63.0165C110.232 63.0534 110.824 62.8729 110.853 63.333C110.851 63.4927 110.484 63.2499 110.467 63.3725C110.451 63.4862 110.383 64.5669 110.389 64.6304C110.404 64.841 110.709 64.8044 110.79 64.9434C110.884 65.1039 111.116 66.8644 111.174 67.1354C111.242 67.4528 111.593 67.6991 111.571 68.3557C111.541 69.3137 111.071 68.868 111.078 69.0011C111.09 69.1827 111.148 70.0133 111.164 70.0637C111.251 70.3297 111.642 70.3705 111.683 70.4392C111.696 70.4606 111.46 70.591 111.472 70.6814C111.655 72.027 111.346 72.4485 111.227 73.6283C111.187 74.0208 111.756 74.4891 111.032 74.3893C111.546 75.1268 111.245 75.7716 111.134 76.4748C111.104 76.6711 111.276 76.826 111.207 77.0588C111.149 77.2545 110.819 76.8606 110.784 77.1898C111.702 77.258 111.575 78.1605 111.007 78.6708L111.528 78.7615C111.529 79.2623 111.144 78.9212 111.043 79.081C110.596 79.7857 111.089 79.9076 111.076 80.0336C111.039 80.3861 110.489 81.4475 110.536 81.5764L111.252 81.6472L110.632 82.3572L111.348 82.428C111.172 82.7721 110.883 83.0533 110.781 83.4423C110.747 83.5685 110.775 85.0211 110.642 85.4495C110.552 85.7403 110.25 85.955 110.194 86.1853C110.168 86.2972 110.47 86.3829 110.457 86.52C110.416 86.9793 110.072 87.1848 109.965 87.4436C109.934 87.5203 110.229 87.5975 110.216 87.7346C110.206 87.8412 109.778 89.4297 109.693 89.7501C109.575 90.195 109.218 91.6837 108.742 91.3759L108.685 91.5366C108.77 91.5539 108.932 91.6117 108.945 91.6799C109.044 92.217 107.749 96.7304 107.429 97.1255C107.224 97.3806 106.872 97.0964 106.802 97.3887C108.19 97.9961 106.526 98.686 106.331 99.1839C106.265 99.3545 106.771 100.06 106.466 100.438L105.804 100.201C105.742 101.361 105.388 101.051 104.547 101.309C104.307 101.382 104.107 101.884 103.861 101.471L103.849 100.994C103.602 100.828 103.676 101.256 103.463 101.233C103.097 101.193 102.639 100.874 102.248 100.794L102.508 100.333C101.481 100.636 101.019 100.359 100.191 99.7817C99.7292 99.4602 98.6201 98.6761 98.9788 97.9512C98.3827 98.2106 98.5067 97.6073 98.4659 97.5964C98.3479 97.5618 98.108 97.6665 97.9204 97.5865C97.8572 97.5601 97.9878 96.9592 96.8921 96.8368C96.7383 96.8192 96.7164 97.3283 96.0658 96.7265C96.2847 97.581 95.1098 98.4773 95.5004 97.2674C95.0788 97.1337 94.7055 97.4577 94.2484 97.3243C93.7912 97.191 92.5245 96.1733 92.2682 96.1508C92.158 96.1414 92.0923 96.4221 91.9869 96.3938C91.2229 96.1808 91.1208 95.3381 91.0567 95.2984C90.6441 95.0335 89.9801 95.5747 89.2482 94.8394C89.1013 94.6917 89.2426 94.4921 89.2306 94.4785C89.1542 94.384 88.9166 94.6351 88.745 94.5888C88.2622 94.4594 87.6195 93.9667 87.1523 93.7458C86.3598 93.3714 86.6845 93.4743 86.3806 93.2706C85.8473 92.9104 84.7826 92.9372 84.3738 92.1828C84.2313 92.0965 84.2614 92.6167 84.0182 92.4254C84.0377 91.1651 83.3981 92.0267 83.3376 91.9976C82.8838 91.7759 81.8252 90.8381 81.2084 90.672C81.103 90.6437 81.026 90.9615 80.8979 90.9344C80.8526 90.9257 80.0436 90.6611 80.016 90.6233C79.8669 90.4133 80.4528 89.6669 79.5214 89.8905L79.6978 89.3918C79.4354 89.1917 79.2192 89.5083 78.9927 89.4648C78.2584 89.3258 78.4279 89.4516 78.2552 89.4348C78.0183 89.4099 77.1817 89.1075 76.9456 88.9859C76.6436 88.8295 76.8456 88.5583 76.7404 88.5188C76.534 88.4395 76.1626 88.5794 75.8823 88.4141C75.7743 88.3512 75.9106 88.0658 75.8191 88.035C74.9548 87.7321 74.7427 87.6582 74.059 87.3077C73.6888 87.1177 72.7321 86.513 72.4812 86.4384C72.2303 86.3637 72.6554 87.0194 71.5819 86.1976C71.2053 85.9101 70.3377 85.5163 69.6815 85.1776C68.9478 84.7999 67.7508 84.4957 67.1527 84.1609C66.8218 83.9756 66.5099 83.3473 66.1713 83.2469C66.1156 83.2308 65.4365 84.1566 65.8022 82.9435C65.5848 82.8584 65.1928 83.3567 65.0512 83.3621C64.1784 83.3939 64.575 82.8039 64.3191 82.6118C64.0632 82.4197 63.756 82.5675 63.6149 82.519C63.5621 82.5001 63.7111 81.484 63.0686 82.5274C63.0991 81.7937 62.2228 81.5667 61.5958 81.4454C61.2819 81.3856 61.1213 81.5821 60.9796 81.5931C60.838 81.6042 61.0556 81.331 60.8962 81.1975C60.2187 80.6347 58.681 80.6941 58.7119 79.8541C58.4239 79.658 58.5824 80.2203 58.2704 80.066C58.2029 78.799 57.7931 79.4421 57.6051 79.4422C56.2809 79.4453 56.7509 79.0738 56.4967 78.7087C56.4648 78.6618 56.0779 78.7458 55.8892 78.6635C55.6087 78.541 55.3609 78.2472 55.1396 78.1887C55.0938 78.1761 54.3891 78.9901 54.7885 78.0764C54.1422 77.6833 53.1212 77.5446 52.509 77.2496C51.9859 76.9975 51.5389 76.5038 51.1178 76.2788C50.3646 75.8774 49.3229 76.1867 49.9378 75.2268C49.6108 75.041 49.7464 75.9049 49.3551 75.5749C49.0925 75.3542 49.0663 74.6021 49.0315 74.5636C48.9555 74.4786 48.2002 74.7464 48.5795 73.8105C48.2227 73.672 48.2521 74.5204 48.1251 74.5796C48.0513 74.6148 46.8351 74.1228 46.6091 73.9936C46.1099 73.7053 46.0735 73.3451 45.8853 73.0353C45.37 74.0084 44.3807 72.4907 43.6206 72.5982C43.6491 72.3228 43.876 72.5811 44.0425 72.426C44.2091 72.2708 44.3399 71.9797 44.4634 71.7831C44.168 71.7186 44.1398 72.1826 43.6956 72.0334C43.4378 71.9469 43.4293 71.6024 43.1728 71.5015C43.0699 71.461 42.9912 71.8099 42.8674 71.7862C42.6481 71.7434 42.1982 71.2263 42.0401 71.2893C41.9294 71.3338 42.0325 72.0107 41.5344 71.6668L41.7895 71.198C41.427 71.2178 40.5842 71.1857 40.8038 70.5698C41.0077 69.9932 41.7745 70.6141 42.0578 70.1814C41.7671 70.0982 41.2286 69.9265 40.9534 69.9626C40.6504 70.0037 40.8351 70.6445 40.3396 70.3089C40.9076 69.6868 40.4069 69.8029 40.2101 69.5069C40.1276 69.3822 40.1702 68.7461 39.832 69.1237C39.7923 69.1674 39.3852 69.8189 39.3722 69.8609C39.3297 69.9969 39.9167 70.0684 39.5598 70.4038C39.0613 69.8768 37.4365 70.5565 37.7416 69.7565C37.4965 69.5813 37.5483 69.9507 37.4518 69.9815C36.9341 70.1457 37.073 69.5738 37.0447 69.5488C36.9328 69.4547 36.6428 69.6274 36.5655 69.4934C36.5204 69.4157 36.6618 69.2105 36.6441 69.1762C36.5821 69.057 36.1223 69.4416 36.039 69.3297C36.0304 69.3173 36.1441 69.1377 36.0749 69.0439C35.5365 68.3142 35.4659 68.9086 35.3242 68.8935C34.3796 68.7914 34.4433 68.0322 34.3755 68.0136C33.7752 67.8534 32.5771 67.6048 32.0212 67.3298C31.8882 67.2637 32.1215 66.9513 31.8035 66.877C31.3243 66.7638 30.5484 67.2109 30.1872 66.4007C30.1096 66.2256 30.2891 65.3285 29.7351 65.5899C29.5052 65.6981 30.0282 66.3663 28.6422 65.7651C27.5817 65.3063 26.6162 64.5529 25.471 64.2653L25.5594 63.7258C25.3136 63.5578 25.3771 63.9836 25.1767 63.9662C24.824 63.9373 24.5239 63.7649 24.7332 63.4309L24.5713 63.3731C24.1197 64.2345 24.2195 63.3258 24.1909 63.2858C23.8891 62.8552 22.8086 62.9845 22.4664 62.8157C22.4158 62.7902 22.4156 62.0436 21.6556 62.1455C21.9078 62.969 20.9829 62.0005 20.6908 61.8477C20.0215 61.4986 18.5139 60.994 18.0277 60.4322C17.9403 60.332 18.029 60.0128 17.9052 59.8734L17.706 60.1737C17.3626 60.0921 17.8424 59.7614 17.4948 59.7288C17.3159 60.4189 16.6822 59.6216 16.2166 59.4964C15.725 59.3657 15.7639 59.7715 15.4479 59.7389C15.5219 58.6138 14.0598 59.0698 13.2201 58.4079C12.8141 58.0876 13.2132 57.659 12.2527 57.4859C11.8173 57.4069 11.6646 57.8545 11.3401 57.1563L11.1409 57.4566L10.8527 56.4243C10.6016 56.2712 10.5223 56.8009 10.2882 56.7472C10.1899 56.7252 9.04877 55.9315 8.75666 55.7786C8.59962 55.6965 8.39193 55.7417 8.32109 55.7053L8.32322 55.7097ZM42.772 72.1086L42.8306 71.9429C42.9187 72.0359 42.8988 72.0923 42.772 72.1086ZM40.1661 70.805C39.9221 70.9213 39.7099 70.4742 39.9539 70.3579C40.1979 70.2415 40.4101 70.6887 40.1661 70.805Z" fill="#FFEFD7"/>
<path d="M40.1667 70.806C40.4107 70.6897 40.1985 70.2425 39.9545 70.3589C39.7105 70.4752 39.9227 70.9223 40.1667 70.806Z" fill="#FF9400"/>
<path d="M8.32404 55.711C8.39488 55.7475 8.60258 55.7022 8.75961 55.7844C9.05172 55.9372 10.1929 56.7309 10.2911 56.7529C10.5252 56.8066 10.6046 56.2769 10.8557 56.43L11.1439 57.4623L11.3431 57.1621C11.6692 57.8608 11.8202 57.4127 12.2557 57.4916C13.2145 57.6641 12.8149 58.0944 13.223 58.4136C14.0634 59.0738 15.5254 58.6179 15.4508 59.7446C15.7691 59.7761 15.7285 59.3697 16.2196 59.5021C16.6858 59.6256 17.3189 60.4246 17.4978 59.7345C17.8437 59.7666 17.365 60.0995 17.7089 60.1794L17.9081 59.8791C18.0319 60.0185 17.9432 60.3377 18.0306 60.4379C18.5168 60.9997 20.0244 61.5044 20.6938 61.8534C20.9859 62.0062 21.9091 62.9741 21.6586 62.1512C22.4202 62.0499 22.4188 62.7959 22.4693 62.8214C22.8099 62.9896 23.892 62.8609 24.1938 63.2915C24.2225 63.3316 24.1226 64.2402 24.5748 63.3771L24.7368 63.4349C24.5275 63.7689 24.827 63.943 25.1802 63.9702C25.3796 63.9854 25.3172 63.5619 25.563 63.7299L25.4745 64.2694C26.6203 64.5553 27.5869 65.311 28.6457 65.7692C30.0323 66.3687 29.5087 65.7022 29.7387 65.5939C30.2926 65.3326 30.1131 66.2296 30.1908 66.4048C30.5519 67.2149 31.3279 66.7678 31.807 66.881C32.1234 66.9548 31.8912 67.2694 32.0247 67.3339C32.5807 67.6089 33.7787 67.8574 34.379 68.0176C34.4468 68.0362 34.3831 68.7955 35.3277 68.8975C35.4694 68.9127 35.54 68.3183 36.0785 69.048C36.146 69.1412 36.0339 69.3214 36.0426 69.3338C36.1258 69.4456 36.5873 69.0617 36.6477 69.1803C36.6643 69.2123 36.5245 69.4181 36.569 69.4975C36.6463 69.6315 36.9346 69.4582 37.0482 69.5528C37.0771 69.5762 36.9376 70.1498 37.4553 69.9856C37.5541 69.9537 37.5017 69.586 37.7452 69.7606C37.4383 70.5599 39.0638 69.8787 39.5634 70.4079C39.9185 70.0718 39.3316 70.0004 39.3757 69.865C39.3904 69.8235 39.7959 69.1714 39.8355 69.1277C40.1743 68.7485 40.1334 69.3852 40.2137 69.5109C40.4082 69.8081 40.9106 69.6926 40.3432 70.313C40.8387 70.6485 40.6529 70.0055 40.9569 69.9667C41.2321 69.9305 41.7706 70.1023 42.0613 70.1855C41.778 70.6181 41.0107 69.9989 40.8074 70.5739C40.5894 71.1903 41.43 71.2236 41.793 71.202L41.5379 71.6708C42.036 72.0147 41.933 71.3378 42.0436 71.2933C42.2023 71.2287 42.6516 71.7474 42.871 71.7903C42.9947 71.8139 43.0734 71.465 43.1764 71.5055C43.4323 71.6081 43.4413 71.951 43.6992 72.0374C44.1433 72.1867 44.1715 71.7227 44.4669 71.7871C44.3434 71.9838 44.2064 72.282 44.0461 72.43C43.8858 72.5781 43.651 72.3263 43.6241 72.6022C44.3842 72.4948 45.3735 74.0125 45.8888 73.0394C46.0754 73.3486 46.1129 73.711 46.6126 73.9976C46.8381 74.1285 48.0548 74.6189 48.1287 74.5837C48.2563 74.5229 48.2269 73.6744 48.583 73.8146C48.2037 74.7504 48.9574 74.482 49.0351 74.5676C49.0692 74.6078 49.096 75.3583 49.3586 75.5789C49.7505 75.9073 49.616 75.0456 49.9413 75.2308C49.3271 76.1891 50.3688 75.8798 51.1214 76.2829C51.5424 76.5079 51.9894 77.0015 52.5126 77.2536C53.1247 77.5487 54.1457 77.6874 54.7921 78.0805C54.3933 78.9926 55.0974 78.1802 55.1432 78.1928C55.3644 78.2512 55.6123 78.545 55.8928 78.6675C56.0814 78.7498 56.4678 78.6676 56.5002 78.7127C56.7545 79.0778 56.2844 79.4494 57.6087 79.4462C57.7966 79.4462 58.2064 78.803 58.2739 80.0701C58.5876 80.225 58.4275 79.6621 58.7154 79.8582C58.684 80.6998 60.2217 80.6404 60.8997 81.2016C61.0591 81.335 60.8377 81.6087 60.9832 81.5972C61.1287 81.5857 61.286 81.388 61.5993 81.4495C62.2264 81.5707 63.1027 81.7977 63.0721 82.5315C63.713 81.4875 63.5639 82.5036 63.6185 82.5231C63.7579 82.571 64.0624 82.4203 64.3226 82.6158C64.5829 82.8114 64.1819 83.398 65.0548 83.3662C65.1963 83.3607 65.5884 82.8624 65.8058 82.9475C65.4401 84.1607 66.1192 83.2348 66.1749 83.251C66.5135 83.3513 66.8254 83.9797 67.1563 84.165C67.7543 84.4998 68.9497 84.8034 69.685 85.1816C70.3429 85.521 71.2094 85.9125 71.5854 86.2016C72.6589 87.0234 72.2322 86.3672 72.4847 86.4424C72.7373 86.5177 73.694 87.1224 74.0625 87.3118C74.7457 87.6639 74.9578 87.7378 75.8226 88.0391C75.9135 88.0715 75.7778 88.3553 75.8859 88.4181C76.1661 88.5835 76.5375 88.4436 76.7439 88.5229C76.8491 88.5623 76.6488 88.8342 76.9491 88.9899C77.1853 89.1116 78.0213 89.4156 78.2587 89.4388C78.4314 89.4557 78.2619 89.3299 78.9962 89.4688C79.2228 89.5124 79.4389 89.1958 79.6997 89.3952L79.5233 89.894C80.458 89.6716 79.8721 90.4179 80.0195 90.6273C80.0471 90.6652 80.8545 90.9292 80.9014 90.9385C81.0296 90.9655 81.1066 90.6478 81.212 90.6761C81.8288 90.8421 82.8873 91.7799 83.3411 92.0017C83.4016 92.0307 84.0412 91.1692 84.0218 92.4294C84.2649 92.6207 84.2348 92.1005 84.3774 92.1869C84.7862 92.9412 85.8508 92.9145 86.3841 93.2747C86.6874 93.48 86.3633 93.3755 87.1558 93.7499C87.623 93.9708 88.2641 94.4628 88.7485 94.5929C88.9201 94.6392 89.1594 94.3887 89.2342 94.4826C89.2461 94.4962 89.1048 94.6958 89.2517 94.8434C89.9836 95.5787 90.6477 95.0376 91.0602 95.3024C91.1237 95.3438 91.2281 96.1854 91.9904 96.3978C92.0952 96.4278 92.1616 96.1454 92.2717 96.1549C92.5281 96.1773 93.7914 97.1938 94.2519 97.3284C94.7124 97.4629 95.0817 97.1394 95.504 97.2715C95.1123 98.4791 96.2866 97.5845 96.0693 96.7306C96.7206 97.3307 96.7418 96.8232 96.8957 96.8408C97.9913 96.9632 97.8607 97.5642 97.924 97.5905C98.1115 97.6706 98.3514 97.5658 98.4694 97.6005C98.5097 97.613 98.3846 98.2141 98.9823 97.9553C99.2132 97.8548 99.8538 96.7958 100.008 96.5019C100.258 96.0274 100.545 95.068 100.829 94.5108C101.006 94.1633 101.718 94.1021 100.895 93.6031L100.952 93.4423C101.462 93.7064 101.169 93.2659 101.367 93.0308C101.619 92.7288 102.247 92.4339 102.123 91.9885C102.083 91.8436 101.746 91.7344 101.789 91.5817C101.827 91.4462 102.118 91.2608 102.178 91.0061C102.251 90.6888 102.153 90.3569 102.223 90.0423C102.375 89.3555 102.837 88.358 102.974 87.7444C103.059 87.3639 102.689 86.963 102.713 86.8951C102.743 86.8106 103.28 86.7709 103.423 86.4172C103.586 86.0144 104.227 83.959 104.248 83.5728C104.259 83.3899 103.881 83.2905 104.007 82.8669C104.115 82.4985 104.51 82.1266 104.552 81.6824L104.108 81.8954C104.667 81.2269 104.289 80.4949 104.405 79.7823C104.473 79.3698 104.604 78.6459 104.692 78.2404C104.743 78.0012 105.105 77.6452 105.074 77.5856C105.056 77.5513 104.734 77.4886 104.617 77.3254C104.293 76.8777 104.861 75.9457 104.766 75.5944C104.702 75.3589 104.259 75.2753 104.237 75.2265C104.128 74.9822 104.772 74.587 104.859 74.3996C104.958 74.183 104.824 73.5716 104.885 73.1979C104.927 72.9551 105.248 72.4782 105.218 72.4208C105.191 72.3663 104.864 72.3596 104.787 72.224C104.714 72.0974 104.884 71.4076 104.558 71.1551L105.083 71.2492C105.004 70.5322 104.985 69.7546 105.287 69.0881L104.405 68.9578C105.353 68.438 104.657 67.6856 104.691 66.8279L104.377 67.4585L103.672 66.83C103.802 66.1689 104.488 66.5857 104.783 66.3029C104.182 66.0732 104.395 65.5056 104.27 65.1381C104.202 64.9364 103.754 64.4127 103.858 64.1979C103.925 64.0613 104.352 64.1556 104.428 64.0932C104.519 64.0194 104.432 63.4641 104.73 63.3016C104.272 63.0241 104.084 63.4592 103.732 63.5016C103.693 63.1347 104.471 62.8379 104.409 62.6291C104.403 62.6062 104.133 62.495 104.053 62.3209C103.754 61.6672 103.81 60.9296 104.121 60.2867L103.502 60.9951C103.88 60.3725 103.536 60.1563 103.43 59.7841C103.383 59.6202 103.539 59.3808 103.518 59.3381C103.406 59.1133 102.593 59.3176 102.345 59.0088C102.051 58.6407 102.254 57.6251 102.104 57.3233C101.974 57.0602 101.593 56.9824 101.58 56.9532C101.555 56.9032 102.292 56.4536 102.093 56.0223L101.732 56.2648C101.444 55.983 101.94 54.7397 100.786 54.9977L100.812 53.7493C99.8468 53.1171 100.258 52.7806 100.056 52.1784C99.9993 52.007 99.1285 50.9328 99.1277 50.8299C99.1257 50.6463 99.4273 50.5039 99.4099 50.4267C99.3925 50.3496 99.0141 50.2145 99.0506 49.9849C99.072 49.8508 99.3753 49.7034 99.3356 49.6369C99.2411 49.4725 98.41 49.6125 98.2933 49.4477C98.215 49.3376 98.4861 48.5815 98.4233 48.4117C98.3938 48.3321 98.1183 48.2953 98.0638 48.1863C97.6192 47.3016 97.504 47.1802 96.8896 46.4178C96.8571 46.3782 96.1483 46.1774 96.7309 46.014C96.9026 45.9652 97.1069 46.1296 97.1351 45.8709L96.2067 45.3491C96.2974 45.1874 96.9818 45.2096 96.7688 44.807C96.6997 44.6759 95.9587 44.4506 95.9901 44.8985C95.6977 44.8781 95.9719 44.6606 95.891 44.5421C95.7928 44.3988 95.4978 44.3962 95.3561 44.2392C95.0183 43.8629 95.2997 43.2038 95.1819 43.0106C95.1002 42.8787 94.3618 42.9511 93.9586 42.3704C93.7195 42.0256 93.9338 41.7774 93.8258 41.5933C93.6658 41.3197 92.9045 41.7515 93.237 41.1218L92.9563 41.3893C92.8604 41.4185 91.9737 40.4263 91.942 40.2844C91.8749 39.9898 92.3873 39.667 92.0779 39.4053C91.6975 39.081 91.7728 40.1997 91.2456 39.6644C91.2005 39.6184 90.8817 38.7935 90.6458 38.5451C90.4098 38.2966 89.2065 37.5049 89.1744 37.417C89.1111 37.2432 89.7249 36.4601 88.9126 36.6572C88.8759 36.6665 88.7166 37.1378 88.4597 36.796C88.4457 36.7779 88.5406 36.5935 88.4822 36.5166C87.927 35.7921 88.0708 35.4012 88.0286 35.3469C87.9977 35.3079 87.6811 35.4244 87.5717 35.376C87.4496 35.3212 87.6091 35.0124 87.5024 34.9668C87.2774 34.8716 86.7932 35.141 86.6732 34.6801L86.8594 34.1905C86.0629 34.7273 86.5698 33.9042 85.9802 33.5033C85.5094 33.1822 85.7532 34.5085 85.009 33.8975C86.2108 32.8671 84.7586 33.3005 84.2628 33.0973C83.9634 32.9755 84.1641 32.687 84.0416 32.6283C83.7942 32.512 83.4852 32.6648 83.1204 32.2808C82.9269 32.0755 83.3023 31.7821 82.389 31.8442C83.0252 31.2185 82.3699 31.4772 82.1008 30.8119L81.809 31.6372C81.3948 31.3717 81.6474 31.0047 81.5118 30.7883C81.2787 30.4158 80.6525 30.2184 80.3843 30.0032C80.1855 29.8445 80.6174 29.1757 79.5451 29.8977C79.9954 29.1663 79.1808 29.3701 78.7881 28.8809C78.9779 29.544 77.5705 29.2244 77.3392 29.0784C76.9951 28.8622 77.3515 28.228 77.0318 28.0691L76.7717 28.5361L76.6427 28.1168L76.137 28.4943L76.4261 27.6662C76.1315 27.4995 76.2317 27.9738 76.0758 28.0675C75.9002 28.1746 75.4408 27.8687 75.3271 27.8692C75.2672 27.8702 74.6288 28.6389 74.9898 27.523C74.2186 27.5463 73.9133 27.6519 73.5082 26.9922C73.546 26.6697 73.8238 26.9891 73.8928 26.9466C74.0303 26.8631 73.94 26.4763 73.8179 26.3637C73.5738 26.1384 73.5151 26.5728 73.3429 26.5599C73.1075 26.5412 72.8946 26.3382 72.5985 26.3968C72.3023 26.4553 72.1345 27.0037 71.302 26.3949L72.0392 25.3573C71.1874 24.8665 71.3672 25.821 71.312 25.8404C71.2567 25.8599 70.407 25.5472 70.2424 25.4548C69.9609 25.2984 69.9601 25.048 69.8577 24.948C69.7554 24.848 69.7526 25.1979 69.5452 25.2003C68.9162 25.2109 68.2507 24.7456 67.6784 24.5432L67.6674 25.0954L66.8998 24.6347L66.9369 24.2822C66.2163 24.2676 66.2242 24.7033 66.1105 25.2879C65.9387 24.8422 65.0052 24.9456 64.9588 24.8768C64.8821 24.7673 65.2861 23.0564 64.2365 24.8037L64.1415 24.0251C63.658 24.082 63.7549 24.6709 63.1039 24.5859C62.0064 24.4423 62.3533 22.6719 61.4208 24.3564C60.7626 23.597 59.5618 23.7245 59.0174 22.7537C58.6388 23.7085 58.4952 23.1253 57.8839 22.8119C58.041 24.473 56.7124 23.157 56.6272 23.2031C56.4266 23.3125 56.6802 24.269 55.7441 23.0744C55.4233 23.9079 54.97 23.7424 55.245 22.8963C54.4075 23.228 53.761 23.1353 53.2096 22.3581L53.0239 23.4096L52.3629 23.1737L52.3529 23.7281C51.4349 23.4825 50.5521 23.1897 49.7704 22.6214C49.6533 23.7105 49.035 23.1539 48.3322 23.7838L48.0121 23.1153C48.0025 23.8005 47.7076 23.4974 47.5541 23.6423C47.3864 23.8007 46.9466 24.3604 46.9002 24.3756C46.8629 24.3865 46.6946 24.1678 46.5667 24.1557C46.2407 24.1252 45.1113 23.9086 45.0409 23.9394C44.938 23.9829 44.9196 24.372 44.8595 24.4103C44.4498 24.669 44.7364 23.6217 44.3168 23.8451C44.216 23.8987 44.3539 24.4929 44.25 24.5603C44.2186 24.5808 43.7553 24.4752 43.4939 24.5778C43.329 24.644 43.2081 25.17 42.8238 25.1728C42.7105 25.1249 43.2781 23.8513 42.7058 24.2013C42.6823 24.2153 42.6626 24.4919 42.4117 24.6487C41.9943 24.9084 40.9208 24.8443 40.3327 25.1233C39.7446 25.4023 39.5857 25.9465 39.0945 26.2619C39.0185 26.2348 38.8633 25.3843 38.3746 25.4768C37.8857 25.6176 37.7378 26.3095 37.6811 26.3172C37.5092 26.3454 37.1173 25.9591 36.7099 26.1534C36.3249 26.3369 35.8995 27.3085 35.8302 27.336C35.7195 27.3805 35.3226 26.9346 34.9663 27.0108C34.7531 27.056 34.4696 27.4102 34.2576 27.5678C34.0855 27.6967 33.7786 27.4751 33.7423 27.9829C33.7381 28.0318 34.3106 28.3967 33.792 28.8162C33.2789 29.2302 31.3363 27.7771 31.6344 29.7498C31.2712 29.7452 31.3058 29.3264 31.1726 29.2135C31.1278 29.177 30.9399 29.7874 30.3743 29.1133C29.8048 30.082 29.8197 31.2817 28.4101 30.4631C28.1649 31.1724 28.8063 31.0375 29.2811 31.1473C29.2526 31.4226 29.0191 31.162 28.8564 31.3167C28.5588 31.6005 28.5311 32.2158 28.0201 31.8187C27.9518 31.7645 28.1569 31.3319 27.8113 31.3672C27.5082 31.8823 26.7279 31.684 26.6697 31.7117C26.5118 31.7897 26.6416 32.5173 26.5417 32.5842C26.5001 32.6123 25.9316 32.4411 25.5768 32.7287C25.3234 32.935 25.2812 33.2278 25.1127 33.4308C25.0066 33.5572 24.7658 33.4488 24.7449 33.5235C24.7082 33.6485 24.8066 34.1017 24.6829 34.162C24.6376 34.185 24.3273 33.9361 24.1367 34.0752C23.8651 34.275 23.7465 35.1789 23.0709 34.5159C23.0518 34.496 23.4835 34.1593 23.0825 33.962C22.835 34.2936 22.9739 34.9534 22.7935 35.2212C22.6726 35.4001 21.5038 36.3583 21.4776 36.4534C21.1122 37.7656 21.2154 36.9477 20.6641 37.391C20.2473 37.7275 20.2967 38.751 19.5082 38.281L19.4508 38.4434C20.3297 38.8841 19.4075 38.7975 19.2888 38.8857C18.8261 39.2207 18.9891 40.0385 18.8638 40.0982C18.7989 40.1292 18.3983 39.7305 17.8646 40.4451C17.4475 41.0035 16.9521 41.3361 16.9133 41.3988C16.6687 41.7799 16.8095 42.4815 16.0534 42.2675C15.901 42.5826 16.4586 42.4215 16.2667 42.7114C16.135 42.6681 15.902 42.6483 15.7962 42.7263C15.5797 42.886 15.1378 44.6094 15.0938 44.9707C15.0669 45.1888 15.4987 45.1097 15.3304 45.3594C14.3398 44.9609 14.5368 45.9775 14.3022 46.099C14.2243 46.1402 13.9657 45.8874 13.7791 46.0466C13.2477 46.497 12.7921 49.0591 12.6454 49.8055C12.0562 49.4981 12.0897 49.7191 11.9147 50.293L12.3011 50.2424C12.3358 50.3705 11.5603 51.4374 11.415 51.5535C11.2878 51.6555 11.0061 51.568 10.8629 51.6886C10.7993 51.7424 11.5857 52.1762 10.9661 53.2072C10.6672 53.7052 9.60417 54.438 9.43283 54.7594C9.32537 54.958 9.41185 55.3398 9.38392 55.3503C9.32748 55.3731 8.42311 55.1361 8.3217 55.7176L8.32404 55.711ZM78.8824 88.5436C78.7218 89.2608 78.3963 89.1445 78.7204 88.4858L78.8824 88.5436ZM99.6274 94.6994C99.4869 94.7388 99.5522 95.0645 99.3152 94.9034C99.7568 94.0439 99.4455 93.4979 98.6554 93.0852L100.12 93.1417C99.3563 93.7871 100.248 94.1969 100.241 94.3959C100.219 95.0302 99.876 94.6277 99.6274 94.6994ZM63.2229 81.8313C62.9494 81.868 62.8186 81.5694 62.9515 81.5515C63.225 81.5148 63.3558 81.8134 63.2229 81.8313ZM70.0615 82.3487C69.1995 82.5653 69.8575 81.3464 70.9179 82.158L70.7427 82.6535C70.2156 82.6444 70.606 82.2613 70.4458 82.1723C70.1023 81.9806 70.145 82.3281 70.0615 82.3487ZM63.1157 76.6925C62.4274 76.7865 60.5494 76.661 61.0364 75.6311C61.1901 75.3071 61.6482 75.4482 61.8067 75.2473C62.368 74.5388 61.6672 74.2681 61.6859 74.0732C61.7454 73.4524 62.4972 72.4947 61.0815 73.43C61.2843 72.5301 60.694 72.7785 60.6806 72.727C60.516 72.0505 61.5143 72.5954 61.5701 72.606C61.7558 72.6387 61.8676 72.3278 62.0867 72.2978C62.4052 72.2547 62.8813 72.5031 63.1481 72.4378C63.3559 72.387 64.1592 71.3786 64.7288 71.2833C64.9424 71.2476 65.1739 71.4086 65.3827 71.3656C65.543 71.3333 65.9322 70.9273 66.3892 71.04L65.8204 71.8541C66.0218 72.3422 66.1789 71.8085 66.3473 71.7585C66.5447 71.7002 66.9324 71.8144 66.9571 71.7971C66.9981 71.7706 66.8764 71.2886 66.9648 71.2437C67.4027 71.0211 67.0465 71.9074 67.5059 71.8082C67.6423 71.633 68.1792 70.8094 68.2562 70.7809C68.3333 70.7524 69.5412 71.389 69.7347 71.2994C69.7991 71.2701 69.8831 70.7851 69.9691 70.6366L70.6754 71.2601C70.9228 70.0551 71.1588 70.5351 72.125 70.8445L72.1344 70.2917C73.4571 71.0458 73.2249 70.1604 73.6054 69.9211C73.6531 69.8915 74.6397 69.7379 74.6946 69.7407C75.1349 69.7692 75.2304 70.0515 75.4499 70.1466C75.5192 70.177 75.5581 69.9352 75.7543 69.9119C75.8977 69.8959 76.1441 70.1201 76.2805 70.0606C76.3661 70.0239 76.3737 69.7075 76.4907 69.6504C76.6608 69.5693 77.0533 70.0118 77.1398 69.2831C77.4164 69.4061 78.1655 69.9348 78.431 69.8523C78.7429 69.7546 78.701 69.0361 79.3297 69.1318C79.4329 69.54 78.6323 69.7357 79.3421 69.8808C79.4237 69.0869 79.9069 69.6047 80.0126 69.5584C80.1003 69.5207 79.9536 68.3411 81.0637 68.1645C81.7696 68.0526 81.4351 68.7879 81.8383 68.874C82.2812 68.9687 82.4639 68.1941 82.6125 68.1053C82.6972 68.0553 83.0122 68.1696 83.222 68.1027C83.3269 68.0692 84.5595 67.4623 84.504 67.9034C84.4435 68.3745 84.0985 67.8501 84.0282 68.1964L84.5222 68.3728L84.8983 67.5777C85.0652 68.9268 85.5164 67.4717 86.1148 67.5267C86.9568 67.6034 86.9324 68.7723 87.8857 67.8025C87.2838 67.3469 87.7217 67.2662 88.2515 67.2837L88.264 68.0327C89.1351 67.9164 89.112 66.9134 89.8404 66.7218C90.255 66.6123 90.7531 67.1036 91.0473 67.1135C91.11 67.1153 92.1355 66.6361 92.1796 66.5902C92.3216 66.4412 92.123 66.124 92.208 66.089L93.1375 66.6075C93.2312 65.9056 93.5306 66.2906 93.7683 66.2131C94.637 65.9297 94.8213 66.1243 95.6193 65.9781C95.9192 65.9247 96.5118 65.4382 96.5652 65.4293C96.7142 65.4079 96.8211 65.6793 96.9617 65.6922C97.0856 65.7047 97.6455 65.0741 97.7096 65.0559C98.1317 64.9304 98.3849 65.3511 98.6494 65.4138C98.6941 65.4242 99.1054 64.9029 99.3687 65.2899C99.3978 65.3339 98.7656 65.7483 99.3689 66.1895C99.9027 66.5798 100.72 65.9944 100.752 66.6238C100.775 67.0665 100.314 66.5943 100.281 66.9162C100.918 67.0616 100.307 67.2934 100.221 67.6956C100.095 68.2833 100.966 68.6092 100.342 69.3626C99.7538 69.0797 99.3558 68.6315 98.6371 68.7538C98.3377 68.8055 98.5175 69.2075 97.6426 68.5872C97.8644 69.3178 97.2831 69.0094 97.2724 69.1027C97.2531 69.3048 97.5552 69.687 97.337 69.9674C97.2893 69.997 96.7426 69.1748 96.4655 69.2849C96.0263 69.4584 97.0202 69.9159 96.5611 70.0618C96.3658 70.1246 95.7085 69.373 95.372 70.3035C95.3504 70.3648 96.2098 71.0132 94.8335 70.7477L95.2777 70.5386C94.7712 70.145 94.0879 70.0299 93.8879 70.7852L93.8984 70.2291C93.0621 70.0574 93.297 70.8299 93.0411 71.0222C92.9572 71.0856 92.5069 70.9435 92.2933 70.9792C91.8922 71.045 91.059 71.0331 91.0028 71.0709C90.9607 71.1006 90.9703 71.5576 90.4263 71.7907C89.6984 72.102 89.3187 71.8022 88.8564 71.8834C88.3607 71.9696 87.8657 73.1273 87.3311 71.9865C87.2432 72.6774 86.9235 72.3131 86.7045 72.3955C86.5219 72.4646 86.0627 72.8158 86.0264 72.8028C85.5097 72.6221 85.7214 72.1023 85.2808 72.001C84.515 74.2508 84.4498 72.9827 83.7555 72.9569C83.3992 72.9436 83.3096 73.4864 83.2569 73.5143C82.8639 73.7099 83.0133 73.0559 82.9731 73.0434C82.6224 72.935 82.3304 73.2189 82.0773 73.2611C81.1844 73.4126 79.8944 73.5978 78.9779 73.6476C78.6687 73.6641 78.3495 73.5986 78.0515 73.5203L78.104 73.9085C77.663 73.5663 77.4872 74.0373 77.2896 74.075C76.8333 74.1603 76.5658 73.6747 76.263 74.4625C76.2076 74.6088 76.3017 74.9111 76.2559 74.9246C76.1951 74.944 75.8414 74.7076 75.5579 74.7725C75.0667 74.8827 75.4071 75.4465 74.3791 74.4431C74.2102 74.9893 74.2496 75.2777 73.614 75.2859L73.7198 74.2077L73.1423 75.3042C72.6126 74.376 72.6684 74.9708 72.3621 75.0107C71.9068 75.0721 71.5857 74.5749 71.3644 75.6007L70.9624 74.901L69.5625 75.7021L69.4932 75.1193C69.2357 75.9474 67.7035 76.0387 67.1024 75.5703C66.9296 75.7642 67.7225 75.969 67.2566 76.1815C67.1084 76.248 66.1736 75.7444 66.0883 76.3224C65.7418 76.292 66.2178 75.9562 65.8788 75.8781C65.6823 75.9759 65.0716 76.7768 65.011 76.785C64.9087 76.8008 64.0395 76.3747 63.5859 76.405C63.336 76.4222 63.216 76.6668 63.1087 76.6807L63.1157 76.6925ZM51.1584 72.3098C51.1131 72.3328 50.3263 71.9213 50.238 71.8655C49.7378 71.5488 48.4365 70.2239 48.1181 69.7295C48.0029 69.5502 48.1232 69.373 48.1119 69.3577C48.0258 69.2486 47.6408 69.6374 47.423 69.485C47.3573 69.4392 46.9429 68.1584 46.6407 68.2764C46.5804 68.2996 46.6038 68.6439 46.4427 68.5733C46.395 68.2185 45.9295 67.9982 45.8218 67.803C45.6706 67.5306 45.8431 66.9689 45.6691 66.6716C45.5063 66.3952 45.0146 66.27 44.9263 65.9828C44.8736 65.8109 45.2279 65.5511 45.0792 65.3767C44.7363 64.9781 43.986 65.2738 44.4409 64.5031C44.3381 64.2518 43.1002 64.9632 43.5318 63.9005L43.9562 63.7739C42.5813 63.3782 43.1098 63.5203 43.3158 62.4274L42.9184 63.0302C42.8401 63.0675 42.0239 62.5914 41.9884 62.5078C41.8047 62.0746 42.7373 62.4056 42.5488 61.9651C42.4898 61.8265 42.0877 62.2689 41.9646 62.0383C41.8971 61.9134 42.0001 61.6273 41.8358 61.5183C41.6096 61.3685 40.8482 61.2534 40.7997 61.1484C40.7386 61.0109 41.3436 60.2471 40.4251 60.0871L40.9296 59.7129C40.4626 59.4809 40.3925 58.9109 40.1468 58.5004L39.3972 58.7889L39.9708 57.6929C39.5279 57.3034 39.1601 58.0753 38.7473 57.7954C38.5551 57.6652 38.5061 56.7669 38.248 56.5179L37.8869 56.7604L38.1754 55.934L36.7965 55.6284L37.0895 54.7998C36.1805 55.0128 36.6687 54.2372 35.8284 54.1611L36.1682 53.7263C35.9673 53.6471 35.1268 53.2295 35.0931 53.1353C35.0384 52.9795 35.3441 52.5624 35.3062 52.4854C35.2683 52.4084 34.7557 52.3896 34.6743 52.2355C34.6283 52.15 34.7854 51.874 34.7383 51.7284C34.6383 51.4165 34.2365 51.4317 34.0805 51.2098C33.9417 51.0129 34.117 50.6593 33.9838 50.4307C33.8125 50.1362 32.6807 49.1107 32.5227 48.7893C32.3972 48.5336 32.0943 46.38 31.6529 46.5229C31.575 46.7116 31.1525 47.3856 30.9224 47.0049C30.8917 46.9547 31.2254 46.9003 31.0022 46.7422C30.965 46.7159 30.738 46.7842 30.6667 46.6542C30.5612 46.4579 30.7227 46.1852 30.6563 46.0309C30.5395 45.7615 29.5296 45.0912 29.805 44.3702L29.2792 44.552C28.8685 43.8977 29.9303 44.3739 29.8758 43.649C29.5136 43.5943 27.6329 42.3872 27.6048 42.2559C27.5581 42.0302 27.913 41.5317 27.8665 41.4423C27.8365 41.385 27.4755 41.3587 27.3401 41.2469C27.2047 41.1351 27.288 40.9521 27.188 40.8455C26.9483 40.5864 26.4744 40.4321 26.4266 39.9989C26.3513 39.3169 26.9669 38.8182 27.1515 38.2066C26.3641 38.2913 25.9757 38.0425 25.5633 37.4511C25.623 37.1085 26.0107 37.512 26.117 37.464C26.2165 37.4193 26.049 36.7194 26.6079 36.3441C27.3729 35.8278 28.0767 36.4953 28.9035 36.4097C28.4783 37.0753 29.2384 37.0257 29.6945 37.4778C29.9302 37.7112 29.9579 38.0645 30.189 38.274C30.3198 38.3934 30.8754 38.5433 30.9133 38.6203C30.9314 38.6584 30.4876 39.198 30.6612 39.4279C30.7424 39.5353 31.0605 39.604 31.2292 39.7688C31.7182 40.2438 31.8994 40.6575 32.7535 40.7684C32.1342 41.4356 32.6302 41.1013 32.8362 41.4082C32.9425 41.5655 32.8521 41.7684 33.1182 42.037C33.5546 42.4765 34.0905 42.2292 33.5957 43.1182C33.9515 43.4487 34.0135 42.8997 34.108 42.9428C34.2268 42.9964 34.4031 43.2926 34.6418 43.3069C34.6082 43.6178 34.3587 43.3234 34.2745 43.3773C34.215 43.414 34.0761 44.4487 33.7884 44.6782C34.2309 44.6794 35.7024 45.2495 35.9912 45.4851C36.2572 45.7014 36.0052 46.0668 36.0775 46.199C36.3129 46.6227 37.361 46.827 37.5689 47.002C37.6933 47.108 37.752 48.2263 38.3189 48.16L37.6518 48.478C38.4993 48.2655 38.7323 49.2855 38.2906 49.8239C38.6856 49.9071 39.1048 49.732 39.2489 50.2612L38.7858 50.0026C38.4264 50.4136 38.7709 50.671 39.1453 50.5751C39.454 50.4968 39.7792 49.8982 39.9971 50.2503C40.0176 50.2819 39.6532 50.5231 39.7404 50.9499C39.8109 51.298 40.1621 51.9627 40.5779 51.7603L39.8418 52.8001C40.5627 52.8298 40.9792 53.1148 41.5578 52.6681C41.1639 53.3767 40.6987 54.0504 41.9525 53.9307C41.3365 54.7465 42.4122 54.4251 42.6511 55.1076C43.1598 54.3636 43.2776 55.2883 43.0486 55.6937C42.9424 55.8835 42.3223 56.0111 42.38 56.1268C42.6096 56.5933 42.8529 55.4895 43.6279 56.145C44.1436 56.5811 43.8078 57.5623 43.892 57.7453C43.9761 57.9284 44.4997 58.037 44.5659 58.2603C44.6103 58.4086 44.4133 58.6761 44.434 58.7283C44.4546 58.7804 44.8636 58.6447 45.0465 58.7697C45.2408 58.9043 45.0679 59.8355 46.0281 59.6408C46.371 59.571 46.3769 59.2334 46.6357 59.3277C46.5206 60.69 45.9139 61.9795 47.6636 60.6259C47.6415 61.2619 47.8015 61.6568 47.3043 62.1736C47.9157 62.4758 49.4785 62.3507 48.9428 63.3184L48.3907 63.3061C48.9443 63.472 49.1595 63.853 48.6249 64.2332C48.9076 64.3864 49.2375 63.9798 49.5801 64.1898C50.114 64.5166 49.8376 65.0245 49.5158 65.3874C50.1638 65.3388 50.5392 65.6613 50.3163 66.3338C50.2175 66.6345 49.9733 66.4409 49.8931 66.5467C49.6076 66.9225 49.686 67.6112 49.9945 67.9807C50.2741 67.4217 50.5175 67.1858 51.1777 67.2871C51.2446 67.2979 51.0262 67.8787 51.4639 67.7513C51.4845 67.7456 51.5581 67.2587 51.8271 67.5189C52.0673 67.7502 51.9219 68.2508 51.9486 68.5384C51.9736 68.7992 52.4013 68.6739 51.824 69.3803L53.5791 70.1955C53.3964 71.4068 52.5094 70.8997 51.8648 71.3489C51.4996 71.603 51.2066 72.2841 51.1523 72.3113L51.1584 72.3098ZM58.1456 51.5077C58.782 51.2553 58.6345 53.7986 58.4874 54.1567C58.3403 54.5147 57.9409 54.5812 57.8753 54.9982C57.8495 55.1607 58.1394 55.9883 58.2519 56.1385C58.3644 56.2888 58.6399 56.32 58.6543 56.3531C58.7058 56.4704 58.1736 57.1389 58.1579 57.3778C58.1467 57.5623 58.6938 58.5676 58.6673 58.7634C58.608 59.205 58.2015 59.2652 58.1208 59.5723C58.1071 59.6216 58.0876 60.5608 58.1151 60.6042C58.1915 60.7248 58.5511 60.7132 58.6917 60.8735C58.7237 60.9092 58.9771 61.7294 58.9734 61.7766C58.9166 62.3162 58.0717 61.869 58.0019 61.8926C57.9238 61.9188 57.6458 63.4208 57.6508 63.5066C57.672 63.9098 58.2982 63.9019 58.0743 64.3352L58.5771 63.9605C58.8937 63.9914 58.4333 64.4671 58.8693 64.4343C59.1519 64.4139 59.2012 64.243 59.2342 63.9916C59.2849 63.601 58.879 63.6278 58.9756 63.3599C59.3104 63.5392 59.4108 63.3026 59.4808 62.9786L59.8582 63.4847C59.8886 63.1092 60.4653 62.0311 60.7907 61.9738C61.0489 61.9278 61.3125 62.3877 61.3742 62.35C61.4359 62.3123 61.4449 61.8975 61.637 61.7384C62.0471 61.3996 62.6655 61.2191 63.0863 61.0446C63.1501 61.017 64.0198 60.0995 64.0542 60.039C64.0886 59.9785 63.5165 59.7966 63.8683 59.5173C63.8864 59.5032 64.1012 59.6377 64.3242 59.4542C64.4899 59.3174 65.5742 58.2824 65.6354 58.183C66.1088 57.4337 65.5899 57.3064 65.5961 57.2414C65.6311 56.8321 66.5245 56.5949 66.6177 56.4471C66.7617 56.2186 66.7568 55.8959 66.8854 55.6899C66.9666 55.5602 67.756 55.633 67.7212 54.9263L67.9891 55.2105C68.583 54.3046 69.2613 53.4233 69.9732 52.6099C70.1954 52.3552 70.9916 51.8351 71.3154 51.3666C71.5606 51.0099 71.0939 50.6511 71.8944 51.0134C71.9005 50.3381 72.4612 49.5734 73.1661 49.5116C72.6715 49.4208 73.2285 48.5036 73.4081 48.4166C73.5117 48.3659 73.761 48.5818 73.9274 48.4639C74.1916 48.2745 74.8482 47.1597 75.2756 47.7508C75.5034 47.4645 75.4385 46.8534 75.5619 46.6306C75.6601 46.4529 76.01 46.4528 76.148 46.252C76.286 46.0512 76.1708 45.6667 76.4142 45.4046C76.4685 45.3456 77.5338 45.054 77.7734 44.7869C78.0929 44.4306 78.4728 43.5193 78.7584 43.1696C78.9032 42.9917 79.1911 43.13 79.3583 42.9415C79.4908 42.7928 79.4057 42.2548 79.5304 42.1127C79.8851 41.7093 80.2002 42.4918 79.9967 41.2359C81.1133 41.4517 80.5609 41.1033 80.8337 40.5531C80.9392 40.3388 81.9006 39.2357 82.0437 39.2047C82.0921 39.194 82.3719 39.529 82.7578 39.4167C83.1436 39.3044 83.2816 38.7826 83.5764 38.7963C83.8052 38.8071 84.1548 39.2604 84.2428 39.2116C84.356 39.1493 84.6453 37.7521 85.2708 38.9254C83.9414 38.964 85.1914 40.0709 85.8496 40.304C86.1206 40.4008 86.4383 40.1129 86.4942 40.202C86.5432 40.2792 86.0927 41.9006 86.0397 41.9769C85.9035 42.1727 85.5132 42.0185 85.4126 42.1766C85.1583 42.5748 85.4683 43.1035 85.3462 43.4276C85.2843 43.5921 85.0475 43.683 84.9329 43.8492C84.8645 43.948 84.928 44.2208 84.869 44.2613C84.7803 44.3229 84.3373 44.1442 84.171 44.2566C83.921 44.4267 83.5282 45.6059 83.4578 45.6368C83.3649 45.6783 82.9726 45.3721 82.8129 45.4289C82.6996 45.4706 81.6083 47.0462 81.3513 47.3519C80.9253 47.8568 80.104 48.4164 79.6054 49.2108C79.4601 49.4426 79.3768 50.0362 79.2604 50.0916C79.1865 50.1269 78.9088 49.9176 78.8048 49.9644C78.7181 50.0044 78.5656 50.4725 78.3778 50.6667C77.7154 51.3559 76.803 51.8626 76.6194 52.8869L76.185 52.5471L75.9976 53.5981L75.5003 53.4205C75.5932 54.5473 74.9624 53.5943 74.5191 53.8111C74.3344 53.9019 73.3952 55.3004 73.4337 55.5754C72.2938 54.8363 72.5101 57.293 71.563 56.6768C71.7303 57.4718 71.0785 57.9259 70.5609 58.4055C70.4446 58.5133 70.2383 58.4546 70.2281 58.4677C69.9694 58.7784 70.7416 58.9627 69.2787 58.9369C70.0417 59.7579 69.3322 59.3646 69.0982 59.5685C68.9454 59.7006 68.6572 59.984 68.5279 60.1077C68.2964 60.3255 68.932 60.6121 67.7517 60.6293C67.5145 60.9422 67.9615 60.9412 67.9748 60.9983C68.0759 61.3964 67.3982 61.2552 67.1878 61.503C66.9462 61.7862 66.875 62.5297 66.3899 62.9015C66.2087 63.0402 66.0066 62.8486 65.8074 62.9436C65.4851 63.0973 64.8517 64.0413 64.5999 64.3956C64.4153 64.6544 64.7163 64.9821 63.9038 65.1903C63.7813 65.2212 63.4717 64.7598 63.2492 65.7311C63.2058 65.9172 63.4111 66.1734 63.2791 66.4678C63.2513 66.5306 62.3791 66.7287 62.3879 67.3776C61.6623 66.5717 61.8435 67.633 61.5561 68.0511C61.2687 68.4692 60.4903 68.7232 60.4417 68.7711C60.3145 68.8993 60.4821 69.3305 60.1265 69.6048C59.9734 69.7218 59.5311 69.6834 59.493 69.7911C59.4731 69.8474 59.7762 70.09 59.5499 70.4776C59.4031 70.7294 59.1014 70.646 59.0315 70.7069C58.8132 70.8977 58.835 71.5624 58.1451 71.2769C58.0543 71.2389 58.1533 70.9588 58.0358 70.8702C57.846 70.7278 56.828 70.0545 56.6994 70.018C56.3399 69.9139 55.6737 70.5084 55.1359 70.0085C55.9639 68.5405 54.8354 69.095 54.6793 68.6156C54.597 67.8957 55.895 67.4932 54.7983 67.2789C54.9224 67.8122 54.3527 68.3814 54.0158 67.9289C53.9758 67.8736 54.1099 66.7103 54.1331 66.5655C54.2007 66.1586 54.8409 66.0008 53.8882 65.6476C53.8307 65.2893 54.5262 65.0225 54.5077 64.9431C54.5031 64.9247 54.2746 64.9233 54.2356 64.7022C54.1282 64.1059 54.4834 63.154 54.4121 62.8505C54.3756 62.6956 54.0519 62.6006 54.0904 62.4445C54.1889 62.0448 55.1482 60.8159 54.1488 60.711C54.3999 60.4219 54.8356 59.5528 54.6733 59.2224C54.2765 58.4182 54.2772 60.3426 54.2643 60.379L53.5292 58.8793C53.5564 58.6706 53.5999 58.4212 53.713 58.2488C53.8261 58.0764 54.1177 58.3989 54.1411 58.1011L53.7643 57.5933L54.4341 57.2726L53.5532 57.1429C54.7434 55.961 53.8025 56.2222 53.6675 55.8512C53.5874 55.6304 54.0816 54.3119 53.7123 53.9561C54.0155 53.1723 54.1618 52.827 54.1929 51.9759C54.1987 51.8175 54.3854 51.6788 54.3735 51.6652C54.2639 51.5384 53.7832 51.5665 53.6185 51.1269C53.2807 50.2244 54.1085 49.8201 54.1423 49.6455C54.2014 49.3363 53.4343 48.79 54.1079 48.2112C53.2708 48.1418 53.9144 46.9271 53.9626 46.2855C53.9921 45.8706 53.8158 44.9006 53.8768 44.6704C53.8947 44.5985 54.1675 44.6902 54.1869 44.6617C54.6738 43.9005 54.2042 44.0707 54.0477 43.845C53.9143 43.6537 53.6056 43.0004 53.7803 42.8854C53.814 42.8639 54.0709 43.0265 54.1356 42.891C54.2501 42.6463 53.9939 42.2917 54.6156 42.0546C53.7556 41.908 54.3729 41.5779 54.3991 40.9881C54.411 40.7386 54.1575 40.5398 54.1784 40.286C54.2209 39.7973 54.5395 38.9331 54.5336 38.3077C54.5259 37.3401 53.4459 37.3893 54.0863 36.4571L53.6703 36.3124C54.0043 35.8101 54.8613 34.5391 53.9136 34.393C53.6841 34.3577 53.4675 34.6704 53.2057 34.4687C53.6046 34.0457 53.3556 33.2289 54.0839 33.5692C53.9824 32.8406 54.4833 31.6029 53.6652 31.2903L53.3175 31.5263C53.4401 31.2902 53.1618 30.4929 53.3357 30.4168C53.3581 30.4062 53.5909 30.5583 53.7963 30.5197C53.902 30.4996 53.9374 30.2677 53.9519 30.2636C54.0914 30.2219 54.233 30.8529 54.354 30.9633C54.5873 31.1772 54.768 30.861 54.714 30.7241C54.6325 30.5177 53.988 30.0301 54.2394 29.4349L53.2916 30.026C53.1757 29.2064 54.2837 28.6781 53.1557 28.2997C53.8529 27.9439 55.6655 27.3649 56.3904 27.7674C56.6099 27.8887 56.3266 28.6162 56.3705 28.6972C56.4799 28.893 57.4769 28.8103 57.7388 29.0065L57.4458 29.835L57.967 29.9241C57.6582 30.0079 57.7803 30.6468 57.71 30.6721C57.5938 30.7165 57.2182 30.3155 57.1562 30.6592C58.343 30.9765 58.2441 31.4246 57.6789 32.3388L58.3465 32.0191L57.8723 33.8971L58.6571 33.246C58.6805 33.706 58.2539 34.4495 58.231 34.7773C58.2023 35.1795 58.541 35.8323 58.4109 36.4633C58.2808 37.0943 57.8101 37.5571 58.1208 38.4574L58.354 37.7979L58.953 38.1984L58.5656 38.2467C58.4304 38.5343 58.8663 38.3541 58.7691 38.771C58.672 39.1879 58.0505 40.056 58.0864 40.1229C58.125 40.1927 58.5479 40.2335 58.5821 40.2999C58.6478 40.4353 58.2159 40.8093 58.1619 40.9673C58.1267 41.0667 58.6277 41.6076 58.6248 41.6476C58.6175 41.7682 58.4 41.8622 58.3675 41.9701C58.3468 42.0336 58.949 42.5938 58.1427 43.1215C59.0549 43.0628 58.4876 43.2671 58.5873 43.801C58.6594 44.1813 59.1211 44.1334 58.6099 44.8317C58.5119 44.9666 58.1134 45.1043 58.158 45.1781C58.8049 45.2802 58.748 45.7675 58.3575 46.1824C59.2244 46.2885 58.5571 46.9125 58.4736 47.575C58.3518 48.53 58.2382 49.8985 58.2171 50.8371C58.2137 50.9889 58.4825 51.1129 58.4633 51.1565C58.4541 51.1774 58.1706 51.5054 58.1494 51.5128C58.0416 51.5546 57.573 51.1167 57.9518 51.8137L58.1494 51.5128L58.1456 51.5077ZM103.437 61.1568L103.204 61.8163L103.042 61.7585L103.275 61.099L103.437 61.1568Z" fill="#FF9400"/>
<path d="M42.7726 72.1104C42.8999 72.0943 42.9198 72.0379 42.8312 71.9447L42.7726 72.1104Z" fill="#FF9400"/>
<path d="M98.9788 97.9512C98.6184 98.6755 99.7276 99.4596 100.191 99.7817C101.019 100.359 101.481 100.636 102.508 100.333L102.248 100.794C102.639 100.872 103.097 101.193 103.463 101.233C103.676 101.257 103.602 100.828 103.849 100.994L103.861 101.471C104.107 101.884 104.307 101.382 104.547 101.309C105.388 101.051 105.742 101.361 105.803 100.203L106.466 100.439C106.771 100.06 106.265 99.3545 106.331 99.1839C106.524 98.6854 108.189 97.9938 106.802 97.3887C106.871 97.0981 107.224 97.3806 107.429 97.1255C107.749 96.7304 109.044 92.217 108.945 91.6799C108.932 91.6117 108.77 91.5539 108.685 91.5366L108.742 91.3759C109.218 91.6837 109.576 90.1956 109.693 89.7501C109.778 89.4297 110.207 87.8396 110.216 87.7346C110.229 87.5975 109.935 87.5186 109.965 87.4436C110.072 87.1848 110.416 86.9793 110.457 86.52C110.47 86.3829 110.168 86.2972 110.194 86.1853C110.25 85.955 110.553 85.7387 110.642 85.4495C110.775 85.0227 110.747 83.5701 110.781 83.4423C110.882 83.0511 111.171 82.7715 111.348 82.428L110.632 82.3572L111.252 81.6472L110.536 81.5764C110.488 81.4492 111.038 80.3877 111.076 80.0336C111.088 79.9092 110.596 79.7857 111.043 79.081C111.144 78.9212 111.529 79.2623 111.528 78.7615L111.007 78.6708C111.573 78.1599 111.702 77.258 110.784 77.1898C110.819 76.8606 111.149 77.2545 111.207 77.0588C111.276 76.826 111.102 76.6705 111.134 76.4748C111.245 75.7716 111.546 75.1268 111.032 74.3893C111.756 74.4891 111.187 74.0208 111.227 73.6283C111.346 72.4485 111.655 72.027 111.472 70.6814C111.46 70.591 111.694 70.46 111.683 70.4392C111.642 70.3705 111.251 70.3297 111.164 70.0637C111.148 70.0133 111.089 69.1821 111.078 69.0011C111.069 68.869 111.539 69.3131 111.571 68.3557C111.591 67.6985 111.242 67.4528 111.174 67.1354C111.116 66.8644 110.884 65.1039 110.79 64.9434C110.709 64.8044 110.404 64.8394 110.389 64.6304C110.385 64.5675 110.451 63.4862 110.467 63.3725C110.484 63.2499 110.851 63.4927 110.853 63.333C110.826 62.8735 110.233 63.054 110.223 63.0165C110.206 62.9566 110.484 61.9603 110.161 61.8653C109.858 61.7779 109.612 62.1284 109.302 61.9396C109.463 61.6797 109.444 60.4037 109.508 60.3577C109.612 60.2847 110.371 60.4286 110.391 59.9078C108.808 59.6375 109.649 59.7286 109.533 59.0786C109.511 58.9553 109.199 58.8176 109.171 58.6324C109.616 58.7315 109.77 58.3869 109.454 58.084C109.254 57.8913 108.852 58.5819 108.598 58.1478C108.569 58.0983 108.927 57.8452 108.979 57.6493C109.032 57.4534 108.55 57.5204 108.726 57.2659C109.426 57.8125 108.8 55.5043 108.697 55.2831C108.497 54.8551 107.975 54.7994 107.952 54.7444C107.903 54.6338 108.235 54.2111 108.191 53.9415C108.157 53.7372 107.483 53.3602 107.423 53.1987C107.379 53.0844 107.54 52.8618 107.487 52.7628C107.37 52.5418 106.77 52.7588 107.277 51.9001L106.56 51.8288C107.321 51.1711 106.62 51.1896 106.437 50.5812C106.237 49.9201 106.744 49.2239 105.644 49.1765L105.953 48.8184C105.07 48.6953 105.756 48.248 105.669 47.9909C105.639 47.9018 105.237 47.7918 105.108 47.6451C104.962 47.4775 104.725 46.9375 104.584 46.7788C104.443 46.6202 104.018 46.4758 104.002 46.4421C103.796 46.014 104.815 46.3201 104.564 45.9C104.472 45.7479 102.852 45.8713 103.751 45.0517C102.998 44.923 103.353 44.6353 103.546 44.0456C102.857 44.2753 103.342 43.6142 103.226 43.3732C102.961 42.8232 102.784 43.8966 102.56 43.6935C102.927 43.02 102.209 42.7862 102.023 42.3952C101.924 42.1862 101.838 41.4724 101.549 41.1472C100.922 40.4457 101.292 40.8015 101.009 40.344C100.843 40.0758 100.064 39.7045 99.9677 39.5617C99.8712 39.419 100.039 39.1187 99.9223 38.8849C99.8919 38.8236 99.1962 38.1964 99.1783 38.1471C98.7548 36.9974 97.9584 36.8288 97.3962 35.5662C97.301 35.3512 95.9232 34.4058 95.8331 34.3027C95.7153 34.1674 95.575 32.6485 95.1583 33.5953C94.8521 33.5718 95.2035 33.2307 95.0197 33.1557C94.8359 33.0808 94.4662 33.1895 94.4215 33.1213C94.3875 33.07 94.4742 32.7986 94.3656 32.674C94.1735 32.4542 93.2197 31.7255 93.1409 31.522C93.0542 31.2988 93.508 30.9942 92.9368 30.9415L92.8202 31.2712L92.6566 31.2128C92.9315 30.6932 92.2515 30.7901 91.9085 30.5389C91.8566 30.5017 91.0644 29.7 91.0249 29.6486C90.8928 29.4801 91.0922 29.0213 90.6489 29.0068L90.1416 29.3837C90.7492 28.6861 90.3183 29.0679 89.9395 28.7498C89.588 28.4545 90.3016 28.5786 89.1354 28.2555C89.061 28.2346 89.1666 27.983 89.042 27.8881C88.7156 27.6428 88.0088 27.0788 87.9559 27.6702L87.794 27.6124C88.2283 26.5525 86.2935 26.4142 85.5674 25.9833C84.8644 25.5662 85.0237 25.4159 83.8376 24.8861C83.5676 24.7654 83.1352 23.9093 82.8607 24.7333L83.2375 25.2411C83.0807 24.9425 82.5993 25.0356 82.5799 25.0063C82.4554 24.8163 82.8965 24.216 82.8723 24.1794C82.7834 24.0413 81.0613 23.5011 81.0406 22.7808C80.6142 23.4498 80.0562 22.17 79.3117 22.1598L79.5125 21.8657C78.7145 22.0437 78.5648 20.9302 77.7184 21.4081L77.8948 20.9093C77.2038 20.6794 76.2535 20.4932 75.6026 20.2552C75.5133 20.2234 75.6478 19.9168 75.5543 19.8759C75.3437 19.7821 74.4289 20.006 74.3666 19.8401L74.543 19.3413C74.027 19.5322 73.4586 19.682 72.9108 19.4734C72.4004 19.28 72.1872 18.6776 71.9283 18.5889C71.8176 18.5493 71.781 18.8423 71.6591 18.8343C71.1446 18.7999 70.5995 18.0678 70.292 18.0009C70.1881 17.9788 70.0951 18.2946 69.9673 18.277C69.4507 18.2064 69.2187 17.6943 68.932 17.3419L68.221 18.0211L68.0463 17.1731C67.9229 16.4852 67.6787 17.318 67.5801 17.3706C67.4288 17.4509 66.8876 17.1607 66.7601 17.6843L66.7695 17.1316L66.429 17.568C66.0239 16.6507 65.4804 17.2667 64.7744 17.0687C64.1649 16.8978 64.0347 16.0712 63.6133 17.1208C63.2707 17.0582 63.6694 16.678 63.6255 16.5653C63.4583 16.1435 63.1763 16.7725 63.073 16.7543C62.8601 16.7194 62.6218 16.4197 62.0984 16.3579C61.777 16.3196 60.6372 16.2747 60.6307 16.614C60.484 16.7184 60.5811 15.8703 60.0891 16.0511C60.012 16.0796 60.1878 16.5193 60.0781 16.6033L59.5238 16.592L59.4751 16.2033C59.2095 16.0282 59.2647 16.451 59.1927 16.4757C59.1397 16.4941 58.7309 15.7397 58.2615 15.9566C58.2078 15.9822 58.3197 16.8657 57.8916 16.7502C57.5191 16.6509 56.7705 15.3683 56.0846 16.8553C55.672 16.6222 56.6169 15.9238 55.8846 15.8527C55.5357 17.2603 54.8931 16.1146 54.4667 16.1732C54.0402 16.2319 53.6682 17.1367 52.7468 16.0426L52.8223 16.6238C52.1092 16.009 51.6173 16.5948 50.9734 16.337C50.7935 16.2933 50.992 16.6739 50.9394 16.6962C50.4599 16.8945 50.8292 16.1922 50.5597 16.1911C50.4529 16.9984 49.8393 16.4864 49.2929 16.5003C49.1503 16.5035 49.0883 16.7053 48.9301 16.7105C48.3004 16.7282 47.7699 16.076 47.602 17.1825L47.6119 16.628L47.2485 16.8715L46.9543 16.3932C46.7612 16.7181 46.7197 17.3565 46.5323 17.618C46.4372 17.7502 46.1032 17.5843 45.8568 17.6811C45.0792 17.9857 44.7471 19.5879 44.8588 17.3248C44.451 17.3938 44.1583 18.4427 43.9677 18.4922C43.8178 18.532 43.2589 17.9125 42.7045 18.2278C42.6418 18.2633 42.6383 18.5364 42.5834 18.5336C42.5119 18.5305 42.2059 18.2066 41.7572 18.2965C41.3086 18.3864 41.449 18.905 40.8794 18.3265C40.9235 19.2175 40.7996 18.6731 40.347 18.7952C40.1269 18.8547 40.0495 19.1313 40.0278 19.1403C39.9289 19.1778 39.7494 18.496 39.4917 18.5775C39.4688 18.5843 39.3667 18.8521 39.1799 18.9328C37.6188 19.611 35.4811 20.4621 33.9382 20.7361C33.793 20.7627 33.4912 21.2372 33.1443 21.2552C32.889 21.2667 32.691 20.9478 32.4914 21.0016C32.0021 21.1329 31.2527 22.6365 31.1542 22.6834C31.1363 22.692 30.9843 22.4324 30.9041 22.4486C30.6581 22.497 28.5017 23.7166 28.1718 23.9179C27.9087 24.0778 28.1329 24.5964 27.6984 24.0568L27.6868 24.6107C26.4912 23.6501 26.8048 24.921 26.3917 25.0628C26.2371 25.1159 25.8321 24.8089 25.7442 24.8522C25.6787 24.8848 25.6586 25.2415 25.5479 25.3756C25.4571 25.485 24.8825 25.6102 24.782 25.9942L25.4121 26.3125C24.149 26.3636 24.9375 26.4808 24.5817 27.1134C24.5169 27.2283 24.0783 26.9897 24.0552 27.5077C24.05 27.6383 24.4835 27.6121 24.2763 27.9561C24.223 28.0435 23.7208 27.8903 23.7374 28.4169C23.0106 28.2303 24.2612 27.5831 23.4888 27.0255C23.3897 28.0688 22.2159 27.3885 22.4072 28.5C21.1591 27.935 21.3414 28.7037 20.7458 29.204C20.5734 29.3496 20.0673 29.2491 19.9088 29.7449C19.8522 29.9207 20.3324 29.8626 20.1601 30.1183C18.856 29.817 19.4257 30.1006 19.1844 30.8039C18.8183 31.8658 18.6205 31.3883 18.1752 31.5634C17.9786 31.6406 17.9096 31.8567 17.7475 31.9836C17.5358 32.1507 17.211 31.822 17.5631 32.7315C16.2389 32.408 16.8383 32.7601 16.5863 33.4148C16.4936 33.6561 16.1697 34.3037 16.0154 34.4558C15.7707 34.7006 15.1697 34.5738 15.055 34.6616C15.0189 34.6898 15.0586 34.9932 14.948 35.1534C14.7045 35.5106 14.3816 36.0765 14.1428 36.3571C13.4163 37.2063 12.6784 37.8405 12.0179 38.7506C11.8255 39.016 11.4876 40.1345 11.3835 40.2187L11.1155 39.9345C10.9189 40.064 10.5073 41.328 10.349 41.6074C10.244 41.7938 9.86815 41.4357 9.77523 41.5985C9.42013 42.2238 9.55576 42.1771 10.0974 42.2715C9.13911 43.1238 8.42912 44.4212 8.12521 45.6807L7.7948 45.6467L8.03525 46.0087C7.64679 46.1705 7.18802 46.5312 7.1265 46.9683C7.09653 47.1741 7.54311 47.1058 7.37314 47.3549L6.79001 47.4304C7.33581 47.8026 6.79418 47.766 6.60208 48.1882C6.56969 48.2588 6.24544 49.3916 6.17087 49.6393C6.06786 49.9832 6.52489 49.9486 6.35717 50.2545C6.16878 50.5978 5.73807 50.5896 5.63316 50.7705C5.50359 50.9948 5.73241 51.3266 5.68182 51.5381C5.61419 51.8294 5.13908 51.7941 5.12301 52.1448L5.86689 52.1305L5.35898 52.509C5.76753 52.8378 5.59962 52.7442 5.3241 53.1497C6.30329 53.3594 5.45633 53.6337 5.41435 54.005C5.35493 54.5362 6.14345 54.3903 6.39601 54.5234C6.97799 54.8301 7.94812 55.518 8.32205 55.7131C8.42181 55.1309 9.32618 55.368 9.38427 55.3458C9.4122 55.3352 9.32737 54.9541 9.43318 54.7548C9.60452 54.4334 10.6676 53.7007 10.9665 53.2027C11.586 52.1716 10.7996 51.7378 10.8633 51.684C11.0081 51.564 11.2898 51.6516 11.4154 51.549C11.5607 51.4329 12.3361 50.366 12.3014 50.2379L11.9151 50.2885C12.0901 49.7145 12.0543 49.4946 12.6457 49.801C12.7924 49.0546 13.2486 46.4908 13.7795 46.0421C13.9655 45.8845 14.2247 46.1357 14.3025 46.0944C14.5372 45.9729 14.3402 44.9564 15.3308 45.3548C15.4991 45.1051 15.0673 45.1842 15.0941 44.9662C15.1381 44.6049 15.5801 42.8815 15.7966 42.7217C15.9023 42.6438 16.1348 42.6652 16.2671 42.7068C16.4589 42.417 15.9036 42.577 16.0537 42.263C16.8099 42.477 16.669 41.7754 16.9136 41.3942C16.9536 41.3338 17.4479 40.999 17.865 40.4406C18.3986 39.726 18.7986 40.1263 18.8641 40.0937C18.9901 40.0323 18.8264 39.2161 19.2891 38.8812C19.4089 38.7952 20.3317 38.8801 19.4511 38.4389L19.5086 38.2765C20.2965 38.7481 20.2477 37.7229 20.6644 37.3865C21.2157 36.9432 21.1126 37.7611 21.4779 36.4489C21.5036 36.3554 22.6729 35.3956 22.7939 35.2167C22.9742 34.9489 22.8353 34.289 23.0828 33.9575C23.4845 34.1531 23.0522 34.4915 23.0712 34.5113C23.7474 35.1727 23.8654 34.2705 24.1371 34.0707C24.3283 33.9299 24.6369 34.1782 24.6833 34.1575C24.807 34.0971 24.7085 33.6439 24.7453 33.5189C24.7661 33.4443 25.0086 33.5532 25.113 33.4263C25.2832 33.2239 25.3231 32.9321 25.5772 32.7242C25.9326 32.4349 26.4994 32.6055 26.542 32.5797C26.642 32.5127 26.5122 31.7852 26.67 31.7072C26.7266 31.6788 27.5085 31.8778 27.8117 31.3626C28.1572 31.3274 27.9505 31.7593 28.0205 31.8142C28.5314 32.2112 28.5592 31.5959 28.8568 31.3121C29.0194 31.1574 29.2529 31.4181 29.2814 31.1427C28.805 31.0323 28.1653 31.1679 28.4105 30.4585C29.8207 31.2755 29.8051 30.0774 30.3747 29.1088C30.9409 29.7812 31.1304 29.1714 31.173 29.209C31.3067 29.3202 31.2716 29.7406 31.6347 29.7452C31.336 27.7742 33.2804 29.2279 33.7923 28.8116C34.311 28.3921 33.7401 28.0278 33.7427 27.9783C33.7795 27.4689 34.0858 27.6921 34.2579 27.5632C34.47 27.4056 34.7534 27.0515 34.9666 27.0063C35.3213 26.9295 35.7199 27.376 35.8305 27.3315C35.8998 27.304 36.3252 26.3324 36.7102 26.1488C37.1176 25.9546 37.5095 26.3409 37.6814 26.3127C37.7387 26.3033 37.8844 25.6125 38.375 25.4722C38.862 25.3792 39.0194 26.2286 39.0948 26.2574C39.586 25.9419 39.7572 25.3946 40.3331 25.1187C40.9089 24.8428 41.9968 24.9028 42.4121 24.6442C42.6629 24.4874 42.682 24.2124 42.7062 24.1967C43.2801 23.8473 42.7108 25.1203 42.8242 25.1683C43.2085 25.1655 43.33 24.6378 43.4942 24.5733C43.7557 24.4706 44.2189 24.5763 44.2504 24.5558C44.3542 24.4884 44.2163 23.8942 44.3171 23.8406C44.7367 23.6171 44.4501 24.6645 44.8598 24.4057C44.9199 24.3675 44.9378 23.9801 45.0412 23.9349C45.1117 23.9041 46.2394 24.12 46.5671 24.1512C46.6949 24.1632 46.8643 24.3842 46.9006 24.371C46.9469 24.3558 47.3867 23.7962 47.5544 23.6377C47.708 23.4929 48.0022 23.7976 48.0125 23.1107L48.3325 23.7793C49.0337 23.1487 49.6514 23.7071 49.7708 22.6169C50.5524 23.1852 51.4336 23.4774 52.3533 23.7236L52.3627 23.1708L53.0236 23.4068L53.21 22.3535C53.7614 23.1308 54.4079 23.2235 55.2454 22.8917C54.972 23.7385 55.4236 23.9034 55.7444 23.0699C56.6789 24.2638 56.4264 23.3096 56.6275 23.1985C56.7133 23.1508 58.0419 24.4668 57.8843 22.8074C58.4955 23.1208 58.6398 23.7023 59.0177 22.7492C59.5622 23.7199 60.7629 23.5925 61.4212 24.3519C62.3542 22.6657 62.0073 24.4361 63.1042 24.5814C63.7553 24.6664 63.6583 24.0775 64.1418 24.0206L64.2369 24.7991C65.2864 23.0519 64.8841 24.7633 64.9591 24.8722C65.0061 24.9394 65.9397 24.836 66.1108 25.2834C66.2239 24.7004 66.2167 24.263 66.9373 24.2777L66.9001 24.6302L67.6677 25.0909L67.6787 24.5386C68.2488 24.7422 68.9171 25.2047 69.5456 25.1958C69.7536 25.1917 69.753 24.8406 69.8581 24.9435C69.9632 25.0463 69.9613 25.2938 70.2428 25.4503C70.4079 25.541 71.2593 25.8543 71.3123 25.8359C71.3654 25.8175 71.1877 24.862 72.0396 25.3528L71.3024 26.3903C72.1348 26.9992 72.3033 26.4491 72.5988 26.3922C72.8943 26.3354 73.1096 26.5372 73.3432 26.5553C73.5154 26.5683 73.5741 26.1339 73.8183 26.3592C73.9404 26.4718 74.0306 26.8586 73.8932 26.942C73.8242 26.9846 73.5463 26.6652 73.5086 26.9876C73.9136 27.6473 74.219 27.5417 74.9902 27.5185C74.6291 28.6343 75.2659 27.8651 75.3274 27.8647C75.4411 27.8642 75.9011 28.1684 76.0762 28.0629C76.2327 27.9676 76.1335 27.4955 76.4265 27.6617L76.1374 28.4898L76.6431 28.1123L76.7721 28.5316L77.0321 28.0646C77.3535 28.2241 76.9955 28.8577 77.3396 29.0739C77.5708 29.2199 78.9799 29.54 78.7884 28.8763C79.1812 29.3656 79.9958 29.1618 79.5455 29.8931C80.6178 29.1711 80.1859 29.8399 80.3847 29.9986C80.6551 30.2128 81.2791 30.4113 81.5121 30.7837C81.6478 31.0001 81.3952 31.3672 81.811 31.6332L82.1028 30.808C82.3702 31.4727 83.0239 31.2134 82.3877 31.8391C83.3027 31.7776 82.9256 32.0703 83.1191 32.2757C83.4834 32.6614 83.7929 32.5069 84.0403 32.6232C84.1634 32.6802 83.9611 32.9682 84.2615 33.0922C84.7556 33.2947 86.2095 32.862 85.0077 33.8924C85.7519 34.5033 85.5081 33.1771 85.9789 33.4982C86.5669 33.8985 86.0616 34.7221 86.8581 34.1853L86.6719 34.675C86.7919 35.1359 87.2761 34.8664 87.5011 34.9617C87.6061 35.0067 87.4467 35.3155 87.5704 35.3709C87.6798 35.4193 87.9964 35.3028 88.0273 35.3418C88.0679 35.3955 87.9263 35.7854 88.4809 36.5115C88.5393 36.5884 88.4449 36.7711 88.4584 36.7909C88.7148 37.1344 88.8762 36.662 88.9113 36.6521C89.7236 36.455 89.1115 37.2387 89.1731 37.4118C89.2052 37.4998 90.4134 38.2988 90.6445 38.5399C90.8756 38.7811 91.1992 39.6132 91.2443 39.6592C91.7709 40.1962 91.694 39.077 92.0766 39.4002C92.3854 39.6635 91.8736 39.9847 91.9407 40.2792C91.9724 40.4212 92.8602 41.4156 92.955 41.3841L93.2357 41.1167C92.9032 41.7464 93.6645 41.3145 93.8245 41.5882C93.9325 41.7723 93.7182 42.0205 93.9573 42.3653C94.3605 42.9459 95.0994 42.872 95.1806 43.0055C95.2984 43.1987 95.017 43.8578 95.3548 44.234C95.4965 44.391 95.7898 44.3931 95.8897 44.537C95.9706 44.6555 95.6964 44.873 95.9888 44.8934C95.9558 44.4449 96.6968 44.6702 96.7675 44.8018C96.9805 45.2045 96.2961 45.1822 96.2054 45.344L97.1338 45.8658C97.1056 46.1244 96.9024 45.9623 96.7296 46.0089C96.147 46.1723 96.8564 46.3714 96.8883 46.4126C97.5043 47.1757 97.6179 47.2965 98.0625 48.1812C98.117 48.2902 98.3935 48.3292 98.422 48.4066C98.4854 48.5747 98.2143 49.3309 98.292 49.4426C98.4081 49.6091 99.2398 49.4674 99.3343 49.6318C99.3718 49.6993 99.0707 49.8456 99.0493 49.9798C99.0128 50.2094 99.3912 50.3445 99.4086 50.4216C99.426 50.4987 99.1244 50.6411 99.1264 50.8248C99.1283 50.93 99.9974 52.0035 100.055 52.1733C100.257 52.7754 99.845 53.1137 100.811 53.7442L100.785 54.9926C101.939 54.7329 101.443 55.9779 101.731 56.2597L102.092 56.0172C102.291 56.4485 101.552 56.8975 101.578 56.9481C101.592 56.9773 101.972 57.0551 102.103 57.3181C102.253 57.6199 102.05 58.6356 102.344 59.0037C102.59 59.3119 103.403 59.1076 103.517 59.333C103.537 59.3757 103.382 59.6151 103.428 59.779C103.533 60.1506 103.877 60.3667 103.501 60.99L104.12 60.2815C103.809 60.9245 103.753 61.6621 104.052 62.3158C104.132 62.4899 104.401 62.601 104.408 62.624C104.47 62.8328 103.691 63.1296 103.731 63.4965C104.083 63.4541 104.272 63.0195 104.729 63.2964C104.433 63.4595 104.518 64.0126 104.426 64.0881C104.35 64.1521 103.922 64.0556 103.857 64.1928C103.753 64.4076 104.201 64.9313 104.269 65.133C104.393 65.5021 104.18 66.068 104.782 66.2978C104.487 66.5805 103.8 66.1638 103.671 66.8249L104.375 67.4534L104.689 66.8228C104.657 67.6827 105.351 68.4345 104.403 68.9527L105.286 69.083C104.983 69.7495 105.002 70.527 105.082 71.2441L104.557 71.15C104.88 71.4036 104.713 72.0939 104.786 72.2189C104.862 72.3545 105.189 72.3628 105.217 72.4157C105.247 72.473 104.925 72.95 104.884 73.1928C104.821 73.5659 104.956 74.1779 104.858 74.3945C104.77 74.5835 104.127 74.9771 104.236 75.2213C104.258 75.2702 104.701 75.3537 104.764 75.5893C104.86 75.9406 104.292 76.8726 104.616 77.3203C104.733 77.4835 105.057 77.5468 105.073 77.5805C105.102 77.6395 104.741 77.9977 104.69 78.2353C104.603 78.6408 104.472 79.3647 104.404 79.7772C104.288 80.4897 104.667 81.2223 104.107 81.8902L104.551 81.6773C104.509 82.1215 104.113 82.4934 104.005 82.8617C103.882 83.2859 104.258 83.3848 104.247 83.5676C104.226 83.9538 103.586 86.0098 103.422 86.4121C103.279 86.7641 102.741 86.8054 102.711 86.89C102.687 86.9579 103.057 87.3587 102.973 87.7392C102.836 88.3545 102.375 89.351 102.222 90.0372C102.152 90.3517 102.251 90.682 102.177 91.0009C102.118 91.2579 101.826 91.4411 101.787 91.5766C101.745 91.7293 102.082 91.8385 102.122 91.9834C102.245 92.4288 101.619 92.722 101.366 93.0256C101.169 93.2614 101.461 93.7035 100.952 93.4378L100.896 93.5985C101.717 94.0954 101.006 94.1588 100.83 94.5062C100.545 95.0635 100.258 96.0229 100.008 96.4973C99.8541 96.7913 99.2136 97.8503 98.9826 97.9508L98.9788 97.9512ZM24.5027 27.5685L24.5613 27.4028C24.6493 27.4958 24.6294 27.5522 24.5027 27.5685ZM86.9946 26.9575L87.0532 26.7918C87.1413 26.8848 87.1214 26.9412 86.9946 26.9575Z" fill="#FFEFD7"/>
<path d="M51.1584 72.3104C51.211 72.2825 51.5056 71.602 51.8709 71.3479C52.5154 70.8987 53.4031 71.4041 53.5852 70.1945L51.83 69.3794C52.4074 68.6729 51.9791 68.7999 51.9547 68.5374C51.9274 68.2514 52.0733 67.7492 51.8331 67.5179C51.5636 67.2593 51.4906 67.7446 51.47 67.7503C51.0322 67.8777 51.2512 67.2953 51.1838 67.2861C50.5236 67.1848 50.2807 67.4191 50.0006 67.9797C49.692 67.6102 49.6136 66.9215 49.8991 66.5457C49.9799 66.4383 50.2235 66.6335 50.3224 66.3328C50.5447 65.662 50.1699 65.3378 49.5218 65.3864C49.8437 65.0235 50.12 64.5157 49.5861 64.1888C49.2429 63.9804 48.9136 64.3854 48.631 64.2322C49.1655 63.852 48.9498 63.4727 48.3968 63.3051L48.9489 63.3174C49.4846 62.3497 47.9218 62.4748 47.3103 62.1726C47.807 61.6575 47.6459 61.2603 47.6696 60.6249C45.9183 61.9779 46.526 60.6907 46.6417 59.3267C46.3846 59.233 46.3771 59.57 46.0341 59.6398C45.0739 59.8345 45.2468 58.9034 45.0525 58.7687C44.8703 58.642 44.4596 58.7772 44.44 58.7273C44.4204 58.6774 44.6163 58.4076 44.572 58.2593C44.5058 58.036 43.98 57.9229 43.898 57.7444C43.816 57.5658 44.1497 56.5801 43.6339 56.144C42.8573 55.4879 42.6146 56.59 42.386 56.1259C42.3289 56.0084 42.9468 55.8819 43.0547 55.6927C43.2836 55.2874 43.1636 54.3636 42.6571 55.1066C42.4183 54.4241 41.3409 54.7449 41.9585 53.9297C40.7069 54.0483 41.1716 53.3763 41.5638 52.6671C40.9853 53.1138 40.5693 52.8272 39.8478 52.7991L40.584 51.7593C40.1681 51.9617 39.817 51.297 39.7465 50.949C39.6592 50.5221 40.0237 50.2809 40.0032 50.2493C39.7847 49.8988 39.4584 50.4953 39.1514 50.5741C38.7775 50.6683 38.4325 50.4126 38.7918 50.0016L39.2549 50.2602C39.1092 49.7304 38.6899 49.9055 38.2967 49.823C38.7383 49.2845 38.5064 48.2667 37.6579 48.477L38.3249 48.159C37.7597 48.2259 37.6994 47.107 37.575 47.001C37.3676 46.8244 36.3206 46.6223 36.0836 46.198C36.0096 46.0652 36.2632 45.7004 35.9973 45.4841C35.7084 45.2485 34.2392 44.6773 33.7945 44.6772C34.0816 44.4493 34.2205 43.4146 34.2805 43.3763C34.3664 43.323 34.6142 43.6168 34.6478 43.3059C34.4091 43.2916 34.2323 42.9971 34.1141 42.9418C34.0195 42.8987 33.9559 43.4471 33.6017 43.1172C34.0966 42.2282 33.5606 42.4755 33.1242 42.036C32.8582 41.7674 32.9485 41.5646 32.8423 41.4072C32.6352 41.0981 32.1403 41.4346 32.7596 40.7674C31.9038 40.656 31.7242 40.2429 31.2353 39.7678C31.0665 39.6031 30.7484 39.5343 30.6673 39.4269C30.4936 39.197 30.9391 38.658 30.9194 38.6193C30.8814 38.5423 30.3259 38.3925 30.1951 38.273C29.9639 38.0635 29.9362 37.7103 29.7005 37.4768C29.2444 37.0247 28.486 37.0749 28.9095 36.4087C28.0828 36.4943 27.379 35.8268 26.6139 36.3431C26.0551 36.7184 26.222 37.42 26.123 37.4631C26.0173 37.5093 25.629 37.1075 25.5693 37.4501C25.9812 38.0432 26.3702 38.2903 27.1575 38.2056C26.9729 38.8172 26.3596 39.3149 26.4326 39.9979C26.4798 40.4328 26.9544 40.5854 27.194 40.8445C27.2934 40.9528 27.2151 41.1376 27.3461 41.2459C27.4771 41.3543 27.8426 41.384 27.8725 41.4413C27.9191 41.5307 27.5625 42.0286 27.6109 42.2549C27.6389 42.3862 29.5175 43.5944 29.8819 43.648C29.9347 44.3723 28.8735 43.8945 29.2853 44.551L29.8111 44.3692C29.5373 45.0908 30.5455 45.7605 30.6624 46.0299C30.7288 46.1842 30.5672 46.4569 30.6728 46.6532C30.7435 46.7848 30.971 46.7149 31.0082 46.7413C31.2315 46.8993 30.8983 46.9521 30.9284 47.0039C31.1585 47.3846 31.5811 46.7106 31.659 46.5219C32.1003 46.379 32.4049 48.5332 32.5287 48.7883C32.6868 49.1097 33.818 50.1369 33.9898 50.4297C34.123 50.6583 33.9478 51.0119 34.0865 51.2088C34.2426 51.4307 34.6444 51.4155 34.7444 51.7274C34.7904 51.8707 34.6333 52.1468 34.6804 52.2346C34.7623 52.387 35.2722 52.4029 35.3122 52.4844C35.3523 52.5659 35.0455 52.9808 35.0992 53.1343C35.1329 53.2285 35.9734 53.6461 36.1743 53.7253L35.8344 54.1601C36.6737 54.2339 36.1865 55.0118 37.0939 54.7982L36.8009 55.6268L38.1814 55.933L37.8929 56.7594L38.2541 56.517C38.5122 56.7659 38.5611 57.6642 38.7533 57.7944C39.1667 58.0726 39.5346 57.3007 39.9769 57.6919L39.4032 58.7879L40.1529 58.4994C40.3979 58.9116 40.467 59.4793 40.9356 59.712L40.4311 60.0861C41.3497 60.2461 40.743 61.0093 40.8058 61.1474C40.852 61.2535 41.6151 61.3692 41.8418 61.5173C42.0061 61.6263 41.9037 61.9108 41.9706 62.0373C42.0938 62.2679 42.4965 61.8238 42.5548 61.9641C42.7433 62.4046 41.8108 62.0736 41.9944 62.5068C42.03 62.5904 42.8461 63.0665 42.9244 63.0292L43.3218 62.4264C43.1153 63.5209 42.5868 63.3789 43.9623 63.7729L43.5379 63.8995C43.1057 64.9639 44.3458 64.2514 44.447 64.5021C43.9921 65.2728 44.7424 64.9771 45.0853 65.3757C45.2345 65.5485 44.8813 65.8105 44.9324 65.9818C45.0201 66.2707 45.5107 66.3936 45.6751 66.6706C45.8492 66.9679 45.6772 67.528 45.8278 67.802C45.9356 67.9972 46.4011 68.2175 46.4487 68.5723C46.6115 68.6435 46.5881 68.2992 46.6467 68.2754C46.9473 68.1569 47.3617 69.4376 47.429 69.484C47.6485 69.637 48.0335 69.2482 48.1179 69.3567C48.1293 69.372 48.0089 69.5492 48.1242 69.7285C48.4425 70.2229 49.7438 71.5478 50.2441 71.8645C50.3323 71.9203 51.1191 72.3318 51.1645 72.3088L51.1584 72.3104ZM46.707 67.5523C46.5465 68.2694 46.221 68.1532 46.5451 67.4944L46.707 67.5523Z" fill="#FFEFD7"/>
<path d="M63.1155 76.6927C63.2211 76.6781 63.3411 76.4336 63.5926 76.417C64.0446 76.3861 64.9138 76.8121 65.0178 76.797C65.0806 76.7877 65.6897 75.9862 65.8856 75.89C66.2246 75.9681 65.7491 76.3023 66.0951 76.3343C66.1787 75.7558 67.1152 76.2599 67.2634 76.1934C67.7293 75.9809 66.9364 75.7762 67.1092 75.5822C67.7103 76.0506 69.2447 75.9583 69.4999 75.1312L69.5693 75.714L70.9691 74.913L71.3712 75.6127C71.5941 74.5874 71.9136 75.0841 72.3689 75.0227C72.6758 74.9811 72.6194 74.388 73.1491 75.3161L73.7266 74.2197L73.6208 75.2979C74.2564 75.2897 74.217 75.0013 74.3859 74.455C75.4144 75.4568 75.0735 74.8946 75.5647 74.7844C75.8476 74.7212 76.1997 74.957 76.2627 74.9366C76.3068 74.9225 76.2127 74.6201 76.2698 74.4744C76.5731 73.685 76.8384 74.1717 77.2964 74.087C77.4939 74.0493 77.6698 73.5783 78.1108 73.9205L78.0583 73.5322C78.3562 73.6106 78.6755 73.6761 78.9847 73.6595C79.8995 73.6091 81.1895 73.424 82.084 73.273C82.3377 73.2292 82.6292 72.947 82.9798 73.0554C83.0201 73.0679 82.8707 73.7218 83.2637 73.5262C83.318 73.4989 83.4059 72.9555 83.7622 72.9689C84.4566 72.9947 84.5218 74.2628 85.2876 72.013C85.7298 72.1149 85.5187 72.633 86.0332 72.8148C86.0712 72.8284 86.5293 72.4749 86.7113 72.4074C86.9286 72.3245 87.25 72.6893 87.3379 71.9985C87.8741 73.1398 88.3668 71.9832 88.8631 71.8954C89.3255 71.8141 89.7052 72.1139 90.4331 71.8027C90.9771 71.5695 90.9674 71.1126 91.0096 71.0829C91.0658 71.0451 91.899 71.057 92.3 70.9911C92.5136 70.9554 92.9623 71.097 93.0478 71.0342C93.3038 70.8419 93.0672 70.0688 93.9052 70.241L93.8946 70.7971C94.0925 70.0429 94.7774 70.1586 95.2845 70.5506L94.8403 70.7596C96.2165 71.0252 95.3571 70.3768 95.3788 70.3155C95.7153 69.3849 96.3726 70.1365 96.5679 70.0737C97.0276 69.9262 96.0331 69.4704 96.4722 69.2968C96.7494 69.1867 97.2961 70.009 97.3438 69.9794C97.5609 69.6967 97.2588 69.3145 97.2792 69.1146C97.2882 69.0208 97.8706 69.3314 97.6494 68.5992C98.5243 69.2195 98.3451 68.8158 98.6438 68.7657C99.3609 68.6429 99.7606 69.0916 100.349 69.3745C100.973 68.6211 100.102 68.2952 100.228 67.7075C100.313 67.307 100.925 67.0736 100.287 66.9282C100.321 66.6062 100.781 67.0785 100.759 66.6357C100.727 66.0064 99.91 66.5901 99.3756 66.2015C98.7707 65.7597 99.4046 65.3459 99.3755 65.3019C99.1122 64.9149 98.7009 65.4361 98.6561 65.4258C98.3917 65.3631 98.1385 64.9424 97.7164 65.0679C97.6517 65.0877 97.0924 65.7167 96.9684 65.7041C96.8268 65.689 96.7215 65.4182 96.5719 65.4413C96.5169 65.4496 95.9249 65.9344 95.6261 65.99C94.827 66.134 94.6438 65.9417 93.775 66.225C93.5374 66.3025 93.238 65.9176 93.1443 66.6194L92.2147 66.1009C92.1314 66.1365 92.3284 66.4532 92.1864 66.6022C92.1429 66.6464 91.1167 67.1273 91.0541 67.1255C90.7599 67.1156 90.2618 66.6242 89.8471 66.7338C89.1187 66.9253 89.1425 67.9267 88.2707 68.0447L88.2583 67.2956C87.7285 67.2782 87.2889 67.3582 87.8925 67.8145C86.9392 68.7842 86.9619 67.6147 86.1216 67.5387C85.5232 67.4837 85.0719 68.9388 84.9051 67.5896L84.529 68.3848L84.0349 68.2084C84.1059 67.8604 84.4502 68.3865 84.5107 67.9154C84.5685 67.4732 83.3359 68.0801 83.2288 68.1146C83.019 68.1816 82.704 68.0673 82.6193 68.1173C82.4713 68.2044 82.288 68.9806 81.845 68.886C81.4419 68.7999 81.7769 68.0629 81.0705 68.1765C79.9603 68.3531 80.1049 69.5338 80.0193 69.5704C79.9136 69.6167 79.4305 69.0989 79.3489 69.8928C78.6391 69.7476 79.4396 69.5519 79.3365 69.1437C78.7078 69.048 78.7496 69.7666 78.4378 69.8643C78.1723 69.9468 77.4248 69.4186 77.1466 69.295C77.0607 70.0221 76.6676 69.5813 76.4975 69.6624C76.3794 69.7173 76.3728 70.0359 76.2873 70.0726C76.1509 70.1321 75.9045 69.9079 75.7611 69.9239C75.5649 69.9472 75.5243 70.1883 75.4566 70.1586C75.2372 70.0634 75.14 69.7805 74.7013 69.7527C74.6465 69.7499 73.6582 69.9028 73.6121 69.933C73.2322 70.1707 73.4644 71.0561 72.1412 70.3037L72.1318 70.8565C71.1672 70.5476 70.9296 70.0671 70.6822 71.2721L69.9759 70.6486C69.8899 70.797 69.8064 71.2804 69.7415 71.3114C69.5502 71.3998 68.3378 70.7655 68.263 70.7929C68.1859 70.8213 67.6491 71.6449 67.5126 71.8202C67.0533 71.9193 67.4095 71.0331 66.9716 71.2556C66.8831 71.3006 67.0049 71.7826 66.9639 71.809C66.9375 71.8257 66.5498 71.7116 66.3541 71.7705C66.184 71.8199 66.028 72.3558 65.8271 71.866L66.396 71.052C65.9373 70.9386 65.5481 71.3446 65.3894 71.3776C65.179 71.42 64.9475 71.259 64.7356 71.2953C64.1676 71.3911 63.3644 72.3995 63.1549 72.4498C62.8886 72.5134 62.412 72.2667 62.0934 72.3097C61.8744 72.3398 61.7626 72.6507 61.5769 72.618C61.5227 72.608 60.5244 72.0631 60.6873 72.739C60.6991 72.7899 61.2905 72.5437 61.0882 73.442C62.5039 72.5067 61.7521 73.4644 61.6927 74.0852C61.674 74.2801 62.3748 74.5508 61.8135 75.2593C61.655 75.4602 61.1968 75.319 61.0432 75.643C60.5562 76.6729 62.4342 76.7984 63.1225 76.7045L63.1155 76.6927ZM64.6821 71.9201C64.7191 72.1945 64.4222 72.3237 64.4036 72.192C64.3667 71.9175 64.6636 71.7884 64.6821 71.9201Z" fill="#FFEFD7"/>
<path d="M99.6271 94.6996C99.8752 94.6295 100.219 95.032 100.241 94.396C100.247 94.1987 99.3561 93.7872 100.12 93.1418L98.6552 93.0854C99.4436 93.4975 99.7566 94.0441 99.3149 94.9035C99.552 95.0647 99.4866 94.739 99.6271 94.6996Z" fill="#FFEFD7"/>
<path d="M70.0614 82.3491C70.1472 82.3275 70.1022 81.9811 70.4457 82.1728C70.606 82.2617 70.2155 82.6449 70.7411 82.6533L70.9163 82.1579C69.8575 81.3469 69.1995 82.5658 70.0614 82.3491Z" fill="#FFEFD7"/>
<path d="M103.204 61.8164L103.042 61.7586L103.276 61.0991L103.437 61.1569L103.204 61.8164Z" fill="#FFEFD7"/>
<path d="M78.8821 88.5437L78.7202 88.4859C78.3944 89.1441 78.7199 89.2603 78.8821 88.5437Z" fill="#FFEFD7"/>
<path d="M63.2225 81.832C63.3552 81.8144 63.2258 81.5177 62.9509 81.5532C62.8182 81.5707 62.9477 81.8675 63.2225 81.832Z" fill="#FFEFD7"/>
<path d="M58.1454 51.5078C58.1671 51.4988 58.45 51.1724 58.4593 51.1515C58.4784 51.1079 58.2096 50.984 58.2131 50.8322C58.2358 49.8941 58.3494 48.5256 58.4696 47.57C58.5547 46.9081 59.2204 46.2835 58.3534 46.1774C58.7433 45.7642 58.8009 45.2752 58.154 45.1731C58.1094 45.0993 58.5079 44.9616 58.6058 44.8268C59.1171 44.1284 58.6537 44.1757 58.5833 43.796C58.4819 43.2615 59.0486 43.0589 58.1386 43.1166C58.9449 42.5889 58.3428 42.0287 58.3634 41.9651C58.3976 41.8579 58.6135 41.7632 58.6208 41.6426C58.6243 41.601 58.1227 41.0617 58.1579 40.9623C58.2135 40.8049 58.6437 40.4303 58.5781 40.2949C58.5445 40.2269 58.121 40.1877 58.0824 40.1179C58.0438 40.0482 58.6644 39.1929 58.7651 38.766C58.8658 38.3391 58.4258 38.531 58.5616 38.2417L58.949 38.1934L58.3499 37.7929L58.1167 38.4524C57.8083 37.551 58.2779 37.086 58.4085 36.4589C58.5391 35.8318 58.1999 35.1751 58.2286 34.7729C58.2515 34.4451 58.6782 33.7017 58.6547 33.2417L57.8699 33.8927L58.3442 32.0148L57.6765 32.3344C58.2417 31.4202 58.3423 30.9727 57.1539 30.6548C57.2158 30.3111 57.5936 30.711 57.7076 30.6677C57.7769 30.6402 57.6564 30.0019 57.9647 29.9197L57.4451 29.8312L57.7381 29.0027C57.4745 28.806 56.4792 28.8892 56.3682 28.6928C56.322 28.6129 56.6069 27.886 56.388 27.763C55.6631 27.3605 53.8521 27.9401 53.1534 28.2953C54.2813 28.6737 53.1733 29.202 53.2892 30.0216L54.237 29.4306C53.984 30.0251 54.6301 30.5134 54.7116 30.7198C54.7656 30.8566 54.5872 31.1717 54.3516 30.9589C54.2306 30.8485 54.0884 30.2192 53.9496 30.2592C53.9351 30.2634 53.9013 30.4958 53.7939 30.5153C53.5891 30.5523 53.3557 30.4018 53.3334 30.4125C53.1595 30.4885 53.4383 31.2841 53.3151 31.522L53.6628 31.2859C54.4809 31.5985 53.9784 32.8356 54.0815 33.5648C53.3532 33.2246 53.6028 34.0396 53.2033 34.4643C53.4651 34.6661 53.6817 34.3533 53.9112 34.3886C54.8589 34.5347 54.0019 35.8058 53.668 36.308L54.0839 36.4528C53.4435 37.385 54.5235 37.3357 54.5312 38.3033C54.5365 38.9304 54.2169 39.7923 54.176 40.2816C54.1551 40.5354 54.4076 40.732 54.3967 40.9838C54.3705 41.5735 53.7509 41.9047 54.6132 42.0502C53.9899 42.2868 54.246 42.6413 54.1333 42.8866C54.0702 43.0227 53.8116 42.8595 53.7779 42.8811C53.6016 42.9954 53.9103 43.6487 54.0453 43.8406C54.2035 44.0669 54.672 43.8945 54.1845 44.6573C54.1651 44.6859 53.894 44.5947 53.8744 44.6661C53.8135 44.8962 53.9914 45.8668 53.9602 46.2811C53.9142 46.9217 53.2685 48.1375 54.1056 48.2068C53.4319 48.7856 54.199 49.3319 54.1399 49.6411C54.1061 49.8157 53.28 50.2206 53.6161 51.1226C53.7808 51.5621 54.2638 51.533 54.3711 51.6609C54.3831 51.6745 54.1964 51.8131 54.1906 51.9715C54.1578 52.822 54.0132 53.1679 53.71 53.9517C54.0792 54.3075 53.5851 55.626 53.6652 55.8468C53.8001 56.2178 54.7394 55.956 53.5508 57.1385L54.4317 57.2682L53.7619 57.589L54.1388 58.0968C54.1137 58.3939 53.8215 58.0731 53.7106 58.2444C53.5998 58.4157 53.554 58.6662 53.5268 58.8749L54.2619 60.3747C54.2748 60.3382 54.2725 58.4133 54.6709 59.218C54.8332 59.5484 54.3975 60.4175 54.1464 60.7067C55.1481 60.8105 54.1888 62.0394 54.088 62.4401C54.0496 62.5962 54.3733 62.6913 54.4097 62.8461C54.481 63.1496 54.1258 64.1015 54.2332 64.6979C54.2739 64.9196 54.5018 64.9225 54.5053 64.9387C54.5254 65.0187 53.83 65.2855 53.8859 65.6432C54.8379 65.9981 54.1984 66.1542 54.1308 66.5612C54.1069 66.7075 53.9712 67.8703 54.0134 67.9246C54.3503 68.377 54.9201 67.8078 54.796 67.2745C55.8926 67.4888 54.5946 67.8913 54.6769 68.6112C54.8331 69.0906 55.9615 68.5361 55.1335 70.0041C55.6713 70.504 56.3375 69.9095 56.6971 70.0136C56.8256 70.0502 57.8453 70.724 58.0334 70.8658C58.1509 70.9544 58.0519 71.2345 58.1427 71.2725C58.831 71.5574 58.8092 70.8927 59.0291 70.7025C59.099 70.6416 59.3991 70.7245 59.5475 70.4732C59.7733 70.0873 59.4707 69.843 59.4906 69.7867C59.5281 69.6806 59.9711 69.7175 60.1241 69.6004C60.4792 69.3278 60.3122 68.8949 60.4394 68.7667C60.4879 68.7188 61.2806 68.4456 61.5537 68.0467C61.8269 67.6478 61.6594 66.569 62.3855 67.3732C62.3773 66.7227 63.2495 66.5246 63.2767 66.4634C63.4071 66.1684 63.204 65.9111 63.2469 65.7267C63.4694 64.7555 63.7789 65.2168 63.9015 65.1859C64.7133 64.9794 64.4129 64.65 64.5975 64.3912C64.8499 64.0353 65.4827 63.0929 65.8051 62.9392C66.0065 62.8432 66.2064 63.0359 66.3876 62.8971C66.8726 62.5253 66.9438 61.7819 67.1854 61.4986C67.3958 61.2509 68.073 61.3937 67.9724 60.9939C67.9574 60.9363 67.5121 60.9378 67.7493 60.6249C68.928 60.6072 68.2941 60.3211 68.5255 60.1033C68.6565 59.9802 68.943 59.6962 69.0958 59.5641C69.3298 59.3603 70.0399 59.7519 69.2764 58.9325C70.7393 58.9583 69.967 58.7741 70.2257 58.4633C70.236 58.4502 70.4422 58.5089 70.5585 58.4011C71.0761 57.9215 71.728 57.4674 71.5606 56.6724C72.5071 57.2902 72.2914 54.8319 73.4314 55.571C73.3944 55.2966 74.332 53.8976 74.5168 53.8067C74.9601 53.5899 75.5908 54.5429 75.4979 53.4161L75.9953 53.5937L76.1827 52.5427L76.6171 52.8825C76.8006 51.8582 77.713 51.3515 78.3754 50.6624C78.5616 50.4675 78.7163 49.9984 78.8024 49.9601C78.9048 49.9126 79.1848 50.1208 79.258 50.0873C79.3744 50.0318 79.4572 49.4399 79.603 49.2064C80.1016 48.4121 80.9213 47.8518 81.349 47.3476C81.6076 47.0424 82.6972 45.4662 82.8105 45.4246C82.9702 45.3677 83.3631 45.6722 83.4554 45.6324C83.5259 45.6016 83.9186 44.4223 84.1686 44.2522C84.3349 44.1398 84.7779 44.3185 84.8667 44.2569C84.9257 44.2164 84.8637 43.9442 84.9305 43.8449C85.0451 43.6786 85.282 43.5877 85.3439 43.4232C85.4659 43.0991 85.1576 42.571 85.4103 42.1723C85.5109 42.0141 85.9017 42.1667 86.0373 41.9725C86.0898 41.8979 86.5409 40.2748 86.4919 40.1976C86.4353 40.1102 86.1182 40.3964 85.8472 40.2996C85.189 40.0665 83.939 38.9596 85.2684 38.921C84.643 37.7478 84.3536 39.1449 84.2404 39.2072C84.153 39.2544 83.8034 38.8011 83.574 38.792C83.2793 38.7782 83.1346 39.3032 82.7554 39.4123C82.3763 39.5214 82.0898 39.1896 82.0413 39.2003C81.8976 39.233 80.9368 40.3344 80.8313 40.5487C80.5586 41.0989 81.1109 41.4473 79.9943 41.2316C80.1979 42.4874 79.8828 41.705 79.528 42.1083C79.4039 42.2488 79.4885 42.7885 79.3559 42.9371C79.1887 43.1256 78.9008 42.9874 78.756 43.1652C78.4705 43.5149 78.0905 44.4262 77.771 44.7825C77.5314 45.0496 76.4662 45.3412 76.4118 45.4002C76.1684 45.6623 76.2854 46.0418 76.1457 46.2476C76.0059 46.4534 75.6577 46.4486 75.5596 46.6263C75.4361 46.8491 75.501 47.4601 75.2733 47.7464C74.8475 47.1559 74.1892 48.2702 73.925 48.4595C73.7603 48.578 73.5087 48.3631 73.4057 48.4122C73.2261 48.4993 72.6692 49.4165 73.1637 49.5072C72.4583 49.5707 71.8982 50.3337 71.892 51.009C71.0915 50.6467 71.5583 51.0056 71.3131 51.3622C70.9909 51.8313 70.1947 52.3514 69.9708 52.6056C69.2589 53.4189 68.5801 54.3019 67.9868 55.2061L67.7188 54.9219C67.7536 55.6286 66.9653 55.5581 66.8831 55.6855C66.7527 55.8909 66.7594 56.2143 66.6153 56.4428C66.5227 56.5889 65.6293 56.8261 65.5938 57.237C65.5875 57.302 66.1064 57.4294 65.633 58.1786C65.5702 58.2774 64.4875 59.313 64.3219 59.4498C64.0982 59.635 63.884 59.4988 63.866 59.5129C63.5125 59.7917 64.0851 59.9774 64.0518 60.0346C64.0186 60.0918 63.1477 61.0126 63.084 61.0402C62.6642 61.217 62.0458 61.3974 61.6346 61.734C61.4431 61.8915 61.438 62.3058 61.3718 62.3456C61.3056 62.3855 61.0465 61.9234 60.7884 61.9694C60.4629 62.0267 59.8879 63.1055 59.8559 63.4803L59.4784 62.9742C59.4079 63.2999 59.3064 63.5342 58.9732 63.3556C58.8783 63.624 59.2825 63.5966 59.2318 63.9872C59.1988 64.2386 59.1495 64.4095 58.8669 64.4299C58.431 64.4628 58.8914 63.987 58.5748 63.9561L58.0719 64.3308C58.2958 63.8976 57.6713 63.906 57.6484 63.5022C57.644 63.4148 57.922 61.9128 57.9996 61.8882C58.0671 61.8657 58.9142 62.3118 58.9711 61.7722C58.9764 61.7256 58.7213 60.9048 58.6893 60.8691C58.5487 60.7088 58.1892 60.7204 58.1127 60.5998C58.0852 60.5564 58.1047 59.6172 58.1184 59.5679C58.1997 59.2592 58.6056 59.2007 58.665 58.759C58.6914 58.5632 58.1427 57.5573 58.1556 57.3734C58.1712 57.1345 58.7018 56.4655 58.6519 56.3487C58.6359 56.315 58.3555 56.2765 58.2495 56.1342C58.1435 55.9918 57.8472 55.1563 57.873 54.9938C57.9402 54.5774 58.3455 54.4944 58.485 54.1523C58.6246 53.8102 58.7796 51.2509 58.1432 51.5033L57.9456 51.8042C57.5691 51.1061 58.0371 51.5457 58.1432 51.5033L58.1454 51.5078Z" fill="#FFEFD7"/>
<path d="M24.5034 27.5699C24.6307 27.5537 24.6507 27.4974 24.562 27.4041L24.5034 27.5699Z" fill="#FFEFD7"/>
<path d="M86.9952 26.9589C87.1226 26.9428 87.1425 26.8864 87.0538 26.7932L86.9952 26.9589Z" fill="#FFEFD7"/>
<path d="M46.7069 67.5519L46.5449 67.4941C46.2191 68.1523 46.5447 68.2685 46.7069 67.5519Z" fill="#FF9400"/>
<path d="M64.6821 71.9201C64.6641 71.7868 64.3672 71.9159 64.4036 72.192C64.4216 72.3254 64.7185 72.1962 64.6821 71.9201Z" fill="#FF9400"/>
</g>
<defs>
<clipPath id="clip0_40000120_27573">
<rect width="111.683" height="67.6561" fill="white" transform="matrix(0.941781 0.336228 0.333372 -0.942795 0.660156 64.7271)"/>
</clipPath>
</defs>
</svg>
