<svg width="105" height="27" viewBox="0 0 105 27" fill="none" xmlns="http://www.w3.org/2000/svg">
<path d="M0 13.5C0 6.04416 6.04416 0 13.5 0H91.5C98.9558 0 105 6.04416 105 13.5C105 20.9558 98.9558 27 91.5 27H13.5C6.04416 27 0 20.9558 0 13.5Z" fill="white"/>
<path d="M8.11719 20.12H24.1172V4.12H8.11719V20.12ZM37.9616 11.352C37.6096 10.7013 37.1669 10.2373 36.6336 9.96C36.1002 9.672 35.5242 9.528 34.9056 9.528C34.2336 9.528 33.6309 9.69333 33.0976 10.024C32.5642 10.3547 32.1376 10.8133 31.8176 11.4C31.5082 11.976 31.3536 12.6427 31.3536 13.4C31.3536 14.168 31.5029 14.8453 31.8016 15.432C32.1109 16.008 32.5322 16.4613 33.0656 16.792C33.6096 17.112 34.2282 17.272 34.9216 17.272C35.3802 17.272 35.8069 17.192 36.2016 17.032C36.6069 16.872 36.9589 16.6533 37.2576 16.376C37.5669 16.0987 37.8176 15.7733 38.0096 15.4V14.472H34.9536V12.744H40.1216V15.672C39.8656 16.2907 39.4869 16.8667 38.9856 17.4C38.4842 17.9227 37.8816 18.3387 37.1776 18.648C36.4842 18.9573 35.7109 19.112 34.8576 19.112C34.0362 19.112 33.2789 18.9733 32.5856 18.696C31.9029 18.4187 31.3002 18.0293 30.7776 17.528C30.2656 17.016 29.8656 16.4133 29.5776 15.72C29.2896 15.016 29.1456 14.2427 29.1456 13.4C29.1456 12.568 29.2896 11.8053 29.5776 11.112C29.8656 10.408 30.2656 9.8 30.7776 9.288C31.2896 8.776 31.8922 8.38133 32.5856 8.104C33.2789 7.82667 34.0309 7.688 34.8416 7.688C35.5882 7.688 36.2976 7.81067 36.9696 8.056C37.6416 8.29067 38.2336 8.63733 38.7456 9.096C39.2576 9.544 39.6522 10.0933 39.9296 10.744L37.9616 11.352ZM48.7738 19H46.9018L46.7578 18.168C46.5018 18.4667 46.1871 18.7013 45.8138 18.872C45.4511 19.032 45.0618 19.112 44.6458 19.112C44.0271 19.112 43.4938 18.9787 43.0458 18.712C42.5978 18.4453 42.2511 18.0613 42.0058 17.56C41.7605 17.048 41.6378 16.4187 41.6378 15.672V11H43.7018V15.416C43.7018 16.024 43.8191 16.488 44.0538 16.808C44.2991 17.1173 44.6725 17.272 45.1738 17.272C45.6645 17.272 46.0431 17.112 46.3098 16.792C46.5871 16.472 46.7258 16.008 46.7258 15.4V11H48.7738V19ZM50.7342 7.48H52.7822V19H50.7342V7.48ZM56.3018 11L58.2058 16.696L60.1258 11H62.3178L59.3418 19H57.0538L54.0938 11H56.3018ZM65.1768 11L67.0808 16.696L69.0008 11H71.1928L68.2168 19H65.9288L62.9688 11H65.1768ZM77.2038 19L77.0438 18.024C76.7771 18.3547 76.4731 18.616 76.1318 18.808C75.8011 19 75.3531 19.096 74.7878 19.096C74.2545 19.096 73.7851 19.0053 73.3798 18.824C72.9851 18.632 72.6758 18.3707 72.4518 18.04C72.2278 17.6987 72.1158 17.2987 72.1158 16.84C72.1158 16.168 72.3558 15.6133 72.8358 15.176C73.3265 14.728 74.0625 14.4453 75.0438 14.328L77.0438 14.104V13.544C77.0438 13.32 76.9425 13.112 76.7398 12.92C76.5371 12.728 76.2171 12.632 75.7798 12.632C75.3958 12.632 75.0598 12.728 74.7718 12.92C74.4945 13.1013 74.3078 13.3787 74.2118 13.752L72.4518 13.112C72.6651 12.3973 73.0705 11.848 73.6678 11.464C74.2651 11.08 75.0011 10.888 75.8758 10.888C76.9425 10.888 77.7425 11.1547 78.2758 11.688C78.8198 12.2107 79.0918 12.904 79.0918 13.768V19H77.2038ZM77.0438 15.528L75.3158 15.752C74.9638 15.7947 74.6971 15.9013 74.5158 16.072C74.3345 16.232 74.2438 16.4293 74.2438 16.664C74.2438 16.888 74.3345 17.08 74.5158 17.24C74.6971 17.3893 74.9531 17.464 75.2838 17.464C75.6571 17.464 75.9718 17.3947 76.2278 17.256C76.4945 17.1173 76.6971 16.9147 76.8358 16.648C76.9745 16.3813 77.0438 16.0507 77.0438 15.656V15.528ZM82.4086 16.392C82.4726 16.6587 82.5792 16.8613 82.7286 17C82.8886 17.1387 83.0646 17.24 83.2566 17.304C83.4592 17.3573 83.6619 17.384 83.8646 17.384C84.2379 17.384 84.5312 17.3147 84.7446 17.176C84.9579 17.0267 85.0646 16.84 85.0646 16.616C85.0646 16.424 84.9899 16.2747 84.8406 16.168C84.6912 16.0507 84.4992 15.9653 84.2646 15.912C84.0299 15.848 83.7899 15.784 83.5446 15.72C83.2566 15.6453 82.9472 15.5653 82.6166 15.48C82.2966 15.384 81.9926 15.2507 81.7046 15.08C81.4166 14.9093 81.1766 14.6907 80.9846 14.424C80.7926 14.1467 80.6966 13.8 80.6966 13.384C80.6966 12.8933 80.8299 12.4613 81.0966 12.088C81.3739 11.7147 81.7526 11.4213 82.2326 11.208C82.7232 10.9947 83.2886 10.888 83.9286 10.888C84.6859 10.888 85.3259 11.048 85.8486 11.368C86.3712 11.688 86.7499 12.1467 86.9846 12.744L85.1766 13.256C85.1232 13.1067 85.0326 12.984 84.9046 12.888C84.7766 12.792 84.6219 12.7227 84.4406 12.68C84.2699 12.6373 84.0939 12.616 83.9126 12.616C83.6032 12.616 83.3472 12.68 83.1446 12.808C82.9419 12.9253 82.8406 13.0907 82.8406 13.304C82.8406 13.432 82.8779 13.5387 82.9526 13.624C83.0272 13.6987 83.1286 13.7627 83.2566 13.816C83.3952 13.8693 83.5499 13.9173 83.7206 13.96C83.9019 14.0027 84.0992 14.0507 84.3126 14.104C84.6432 14.1893 84.9739 14.2907 85.3046 14.408C85.6459 14.5147 85.9552 14.6533 86.2326 14.824C86.5206 14.9947 86.7499 15.224 86.9206 15.512C87.0912 15.8 87.1872 16.1627 87.2086 16.6C87.2086 17.0693 87.0752 17.496 86.8086 17.88C86.5419 18.2533 86.1579 18.552 85.6566 18.776C85.1552 19 84.5472 19.112 83.8326 19.112C83.0006 19.112 82.2912 18.936 81.7046 18.584C81.1286 18.232 80.7499 17.6827 80.5686 16.936L82.4086 16.392ZM88.7811 7.48H90.8451V14.12H91.3571L93.9971 11H96.6851L93.1491 14.968L96.7011 19H94.0131L91.3411 15.832H90.8451V19H88.7811V7.48Z" fill="black"/>
</svg>
