<svg width="88" height="27" viewBox="0 0 88 27" fill="none" xmlns="http://www.w3.org/2000/svg">
<path d="M0 13.5C0 6.04416 6.04416 0 13.5 0H74.5C81.9558 0 88 6.04416 88 13.5C88 20.9558 81.9558 27 74.5 27H13.5C6.04415 27 0 20.9558 0 13.5Z" fill="white"/>
<path d="M8.35938 20.12H24.3594V4.12H8.35938V20.12ZM29.9318 7.8H32.0918V19H29.9318V7.8ZM34.1795 11H36.0355L36.1795 11.816C36.4355 11.528 36.7448 11.304 37.1075 11.144C37.4808 10.9733 37.8808 10.888 38.3075 10.888C38.9368 10.888 39.4702 11.0213 39.9075 11.288C40.3555 11.5547 40.6968 11.944 40.9315 12.456C41.1768 12.9573 41.2995 13.5813 41.2995 14.328V19H39.2355V14.6C39.2355 13.9813 39.1128 13.5173 38.8675 13.208C38.6222 12.8987 38.2542 12.744 37.7635 12.744C37.2622 12.744 36.8782 12.904 36.6115 13.224C36.3555 13.5333 36.2275 13.9973 36.2275 14.616V19H34.1795V11ZM48.9563 12.2L48.7003 12.232V7.48H50.7483V19H48.8923L48.7643 18.008C48.5083 18.3067 48.1669 18.568 47.7403 18.792C47.3243 19.0053 46.8389 19.112 46.2843 19.112C45.5909 19.112 44.9776 18.9413 44.4443 18.6C43.9109 18.2587 43.4949 17.784 43.1963 17.176C42.8976 16.5573 42.7483 15.832 42.7483 15C42.7483 14.168 42.8976 13.4427 43.1963 12.824C43.4949 12.2053 43.9109 11.7307 44.4443 11.4C44.9776 11.0587 45.5909 10.888 46.2843 10.888C46.9136 10.888 47.4523 11.016 47.9003 11.272C48.3589 11.528 48.7109 11.8373 48.9563 12.2ZM44.9563 15C44.9563 15.672 45.1269 16.216 45.4683 16.632C45.8096 17.0373 46.2576 17.24 46.8123 17.24C47.1536 17.24 47.4629 17.1547 47.7403 16.984C48.0283 16.8027 48.2576 16.5467 48.4283 16.216C48.6096 15.8853 48.7003 15.48 48.7003 15C48.7003 14.52 48.6096 14.1147 48.4283 13.784C48.2576 13.4533 48.0283 13.2027 47.7403 13.032C47.4629 12.8507 47.1536 12.76 46.8123 12.76C46.2576 12.76 45.8096 12.968 45.4683 13.384C45.1269 13.7893 44.9563 14.328 44.9563 15ZM52.7108 7.48H54.7748V14.12H55.2868L57.9268 11H60.6148L57.0788 14.968L60.6308 19H57.9428L55.2708 15.832H54.7748V19H52.7108V7.48ZM67.5005 11.848L68.6525 12.664L63.8685 17.912L62.7165 17.096L67.5005 11.848ZM65.4365 19.112C64.6578 19.112 63.9645 18.9467 63.3565 18.616C62.7485 18.2747 62.2685 17.8 61.9165 17.192C61.5752 16.5733 61.4045 15.848 61.4045 15.016C61.4045 14.1733 61.5805 13.4427 61.9325 12.824C62.2952 12.2053 62.7858 11.7307 63.4045 11.4C64.0232 11.0587 64.7165 10.888 65.4845 10.888C66.2525 10.888 66.9458 11.0587 67.5645 11.4C68.1832 11.7307 68.6738 12.2053 69.0365 12.824C69.3992 13.432 69.5805 14.152 69.5805 14.984C69.5805 15.8267 69.3938 16.5573 69.0205 17.176C68.6578 17.7947 68.1618 18.2747 67.5325 18.616C66.9138 18.9467 66.2152 19.112 65.4365 19.112ZM65.4205 17.272C65.7512 17.272 66.0658 17.192 66.3645 17.032C66.6632 16.8613 66.9085 16.6107 67.1005 16.28C67.2925 15.9387 67.3885 15.5067 67.3885 14.984C67.3885 14.4827 67.2978 14.0667 67.1165 13.736C66.9352 13.3947 66.6952 13.144 66.3965 12.984C66.1085 12.8133 65.7938 12.728 65.4525 12.728C65.1218 12.728 64.8125 12.8133 64.5245 12.984C64.2472 13.144 64.0232 13.3947 63.8525 13.736C63.6925 14.0667 63.6125 14.4933 63.6125 15.016C63.6125 15.5173 63.6925 15.9387 63.8525 16.28C64.0125 16.6107 64.2312 16.8613 64.5085 17.032C64.7858 17.192 65.0898 17.272 65.4205 17.272ZM72.9403 12.2C73.1856 11.8373 73.5323 11.528 73.9803 11.272C74.4389 11.016 74.9776 10.888 75.5963 10.888C76.3003 10.888 76.9136 11.0587 77.4363 11.4C77.9696 11.7307 78.3856 12.2053 78.6843 12.824C78.9936 13.4427 79.1483 14.168 79.1483 15C79.1483 15.832 78.9936 16.5573 78.6843 17.176C78.3856 17.784 77.9696 18.2587 77.4363 18.6C76.9029 18.9413 76.2896 19.112 75.5963 19.112C75.0416 19.112 74.5509 19.0053 74.1243 18.792C73.6976 18.568 73.3669 18.3067 73.1323 18.008L73.0043 19H71.1483V7.48H73.1963V12.232L72.9403 12.2ZM76.9403 15C76.9403 14.328 76.7643 13.7893 76.4123 13.384C76.0709 12.968 75.6229 12.76 75.0683 12.76C74.7269 12.76 74.4123 12.8507 74.1243 13.032C73.8469 13.2027 73.6229 13.4533 73.4523 13.784C73.2816 14.1147 73.1963 14.52 73.1963 15C73.1963 15.48 73.2816 15.8853 73.4523 16.216C73.6229 16.5467 73.8469 16.8027 74.1243 16.984C74.4123 17.1547 74.7269 17.24 75.0683 17.24C75.6229 17.24 76.0709 17.0373 76.4123 16.632C76.7643 16.216 76.9403 15.672 76.9403 15Z" fill="black"/>
</svg>
