<svg width="120" height="132" viewBox="0 0 120 132" fill="none" xmlns="http://www.w3.org/2000/svg">
<path d="M45.8311 115.514H95.6692L90.2847 187.267H73.3234L73.827 132.575H66.7547L63.2406 187.267H46.6888L45.8311 115.514Z" fill="#755E59"/>
<path d="M18.837 199.994H24.3709V122.149C24.3709 115.642 19.075 110.346 12.5671 110.346C6.05927 110.346 0.757812 115.642 0.757812 122.155H6.29169C6.29169 118.696 9.1029 115.885 12.5616 115.885C16.0203 115.885 18.8315 118.696 18.8315 122.155V200L18.837 199.994Z" fill="#AF6C46"/>
<path d="M11.8926 103.212H23.7849C25.7384 103.212 27.5203 104.524 27.9242 106.439C28.4721 109.067 26.4578 111.403 23.9232 111.403H17.1996C16.1426 111.403 15.2849 112.26 15.2849 113.317V113.832C15.2849 115.52 13.9014 116.903 12.2136 116.903H11.8981C10.2103 116.903 8.82682 115.52 8.82682 113.832C8.45052 111.087 8.36751 108.514 8.82682 106.284C8.82682 104.596 10.2103 103.212 11.8981 103.212H11.8926Z" fill="#F7D9B5"/>
<path d="M24.4375 113.007C25.8819 112.803 38.892 110.545 50.5242 94.9725C62.2394 79.295 60.4243 58.1389 60.3413 57.248L53.7283 57.8622C53.7283 57.8622 47.3478 61.2988 47.0489 65.333C46.6118 71.3317 45.0291 80.1306 39.8826 87.0203C31.4489 98.3038 22.6501 99.8423 22.5615 99.8533L24.432 113.002L24.4375 113.007Z" fill="#65AB8E"/>
<path d="M41.3378 88.1326C41.3378 54.3648 51.3209 45.4166 72.0066 45.4166C81.3976 45.4166 96.5161 49.1077 101.973 55.2226C108.536 62.5827 104.49 73.4512 104.49 85.6368C102.869 98.9735 102.498 109.344 95.6695 115.514C78.769 117.335 62.1508 117.401 45.8313 115.514C43.1529 110.667 41.7141 102.344 41.3378 88.1381V88.1326Z" fill="#5FA185"/>
<path d="M92.8026 91.4142C92.8026 91.4142 88.5692 90.6948 84.2362 91.1485C79.9031 91.5968 73.8325 95.0223 74.325 97.4627C74.812 99.9031 79.798 102.404 86.0181 102.222C88.9234 102.155 93.6659 99.3055 93.6659 99.3055L92.8081 91.4142H92.8026Z" fill="#F7D9B5"/>
<path d="M89.8539 62.0403C87.3858 61.1217 85.626 58.7477 85.626 55.9641C85.626 52.3782 88.5313 49.4729 92.1172 49.4729C92.9694 49.4729 93.7774 49.6389 94.5245 49.9377C94.5245 49.9377 94.5411 49.9433 94.5521 49.9488C94.945 50.1093 95.3158 50.303 95.6644 50.5299C100.927 53.3743 119.56 64.6357 119.56 81.4643C119.56 86.7436 117.645 91.3865 114.015 94.895C106.97 101.707 95.5648 102.233 92.2334 102.233C91.8516 102.233 91.5804 102.227 91.4255 102.222L91.8516 89.3445C94.8178 89.4496 101.923 88.6638 105.055 85.6368C106.173 84.5577 106.671 83.2683 106.671 81.4698C106.671 73.1413 95.1941 65.0286 89.8428 62.0459L89.8539 62.0403Z" fill="#65AB8E"/>
<path d="M67.6677 49.4674C71.8458 50.137 74.4079 49.9322 77.922 49.4674C81.2201 49.4674 83.9207 46.7668 83.9207 43.4686C83.9207 40.1704 81.2201 37.4699 77.922 37.4699H67.6677C64.3695 37.4699 61.6689 40.1704 61.6689 43.4686C61.6689 46.7668 64.3695 49.4674 67.6677 49.4674Z" fill="#65AB8E"/>
<path d="M72.837 28.7098C82.3359 28.7098 90.0363 22.2829 90.0363 14.3549C90.0363 6.4269 82.3359 0 72.837 0C63.3381 0 55.6377 6.4269 55.6377 14.3549C55.6377 22.2829 63.3381 28.7098 72.837 28.7098Z" fill="#E8C4A3"/>
<path d="M56.6945 9.40206C55.5878 9.40206 55.9419 33.3195 56.8163 36.3797C58.0337 40.9673 62.732 43.4354 67.4579 43.4354C72.6764 42.9927 78.9463 41.5982 81.0436 39.2463C84.2588 36.3963 84.1149 32.2791 84.1149 32.2791V10.6638C78.4482 2.88315 65.5764 4.01206 56.6945 9.40206Z" fill="#E8C4A3"/>
<path fill-rule="evenodd" clip-rule="evenodd" d="M71.3481 17.1772C73.6048 17.1657 75.4708 17.378 77.1096 17.6703C77.7113 17.7776 78.1122 18.3524 78.0049 18.9542C77.8976 19.5559 77.3227 19.9568 76.721 19.8494C75.1944 19.5772 73.4634 19.38 71.3593 19.3907C70.7481 19.3938 70.2501 18.9008 70.247 18.2896C70.2439 17.6783 70.7369 17.1803 71.3481 17.1772Z" fill="#A0A0A0"/>
<path fill-rule="evenodd" clip-rule="evenodd" d="M64.5635 18.1273C64.5676 18.7385 64.0753 19.2373 63.4641 19.2413C61.8097 19.2522 60.8067 19.2623 58.8578 19.7012C58.2615 19.8355 57.6692 19.461 57.5349 18.8647C57.4006 18.2684 57.7752 17.6761 58.3715 17.5418C60.5508 17.051 61.7392 17.039 63.4495 17.0278C64.0608 17.0238 64.5595 17.516 64.5635 18.1273Z" fill="#A0A0A0"/>
<path d="M71.9961 22.4731C71.9961 23.5135 72.6491 24.3602 73.457 24.3602C74.265 24.3602 74.918 23.5135 74.918 22.4731C74.918 21.4327 74.265 20.586 73.457 20.586C72.6491 20.586 71.9961 21.4327 71.9961 22.4731Z" fill="#755E59"/>
<path d="M61.6641 24.3602C62.4709 24.3602 63.125 23.5153 63.125 22.4731C63.125 21.4309 62.4709 20.586 61.6641 20.586C60.8572 20.586 60.2031 21.4309 60.2031 22.4731C60.2031 23.5153 60.8572 24.3602 61.6641 24.3602Z" fill="#755E59"/>
<path fill-rule="evenodd" clip-rule="evenodd" d="M66.6085 23.9524C66.904 23.8744 67.2067 24.0507 67.2848 24.3462L66.7497 24.4874C67.2848 24.3462 67.2848 24.3465 67.2849 24.3468L67.2851 24.3474L67.2854 24.3487L67.2862 24.3517L67.288 24.3589C67.2893 24.3642 67.2908 24.3706 67.2925 24.3781C67.2959 24.3932 67.2999 24.4125 67.3043 24.4359C67.3129 24.4826 67.3226 24.5458 67.3301 24.6233C67.3448 24.7781 67.3505 24.9916 67.3189 25.246C67.2551 25.7597 67.0406 26.4269 66.468 27.0987C66.1832 27.4328 65.8959 27.6687 65.6375 27.8577C65.5154 27.947 65.4163 28.0152 65.3287 28.0755C65.21 28.1572 65.1122 28.2246 65.0059 28.3108C64.8529 28.4349 64.7558 28.5461 64.689 28.6864C64.6204 28.8306 64.5638 29.0485 64.5638 29.4126C64.5638 29.6623 64.655 29.8224 64.7992 29.95C64.9614 30.0937 65.2058 30.2055 65.5011 30.2829C65.7904 30.3588 66.0881 30.3913 66.3192 30.404C66.4333 30.4102 66.5277 30.4114 66.5923 30.4111C66.6246 30.411 66.6492 30.4104 66.6649 30.41L66.6816 30.4094L66.6838 30.4093C66.9889 30.3945 67.2487 30.6297 67.2637 30.9349C67.2787 31.2401 67.0434 31.4998 66.7381 31.5148L66.711 30.9621C66.7381 31.5148 66.7383 31.5148 66.7381 31.5148L66.7363 31.5149L66.7335 31.515L66.7248 31.5154C66.7178 31.5156 66.7083 31.516 66.6963 31.5163C66.6725 31.517 66.6391 31.5177 66.5975 31.5179C66.5145 31.5183 66.3979 31.5167 66.2588 31.5091C65.9835 31.4941 65.6061 31.4547 65.2203 31.3535C64.8404 31.2538 64.4097 31.0834 64.0656 30.7788C63.7034 30.4581 63.457 30.004 63.457 29.4126C63.457 28.9355 63.5311 28.544 63.6896 28.2109C63.8499 27.8739 64.0762 27.6399 64.3085 27.4514C64.4385 27.3459 64.6052 27.23 64.7575 27.1243C64.84 27.0669 64.9182 27.0126 64.9841 26.9644C65.2004 26.8062 65.4153 26.6276 65.6257 26.3807C66.0437 25.8904 66.1806 25.4315 66.2206 25.1096C66.2409 24.9462 66.2365 24.8145 66.2283 24.7286C66.2242 24.6857 66.2192 24.6546 66.216 24.6372C66.2145 24.6291 66.2134 24.6241 66.213 24.6222C66.1392 24.3287 66.3151 24.0298 66.6085 23.9524Z" fill="#D89773"/>
<path d="M80.5363 21.9397C80.6794 21.0434 81.522 20.4326 82.4182 20.5754L82.5334 20.594C83.4296 20.737 84.0405 21.5796 83.8976 22.4758L83.0344 27.8801C83.9824 25.9954 84.0796 24.2159 84.0871 23.7072V35.7492C84.0919 35.7773 84.9525 40.8372 81.7297 43.6848C79.6213 46.0421 72.588 46.4794 67.342 46.9221C62.594 46.9221 57.3197 44.3103 55.6262 39.9719C55.2222 38.035 56.2072 35.976 56.091 32.1135C56.091 30.946 56.0917 29.9444 56.1027 29.0813C56.1027 28.9872 56.0965 28.8872 56.091 28.7932H56.0969C56.0803 12.419 56.9325 27.5856 57.2922 28.8371C57.8787 31.0395 59.1292 32.4784 60.7893 33.3859C61.0604 33.2587 61.3651 33.1483 61.6916 33.0432C65.2831 32.0914 68.9243 32.119 72.6154 33.0432C73.2573 33.1871 73.7557 33.3866 74.132 33.6633C75.9576 33.2245 77.642 32.6675 78.9582 31.9963C78.9564 31.9005 78.9621 31.8032 78.9777 31.7053L80.5363 21.9397Z" fill="#A0A0A0"/>
<path fill-rule="evenodd" clip-rule="evenodd" d="M62.4931 35.0986C62.5955 34.8107 62.9119 34.6602 63.1999 34.7626C65.6347 35.6285 68.2062 35.5686 70.9065 34.7542C71.1991 34.666 71.5078 34.8316 71.5961 35.1243C71.6843 35.4169 71.5187 35.7256 71.2261 35.8139C68.3482 36.6818 65.5297 36.7658 62.8291 35.8054C62.5411 35.703 62.3907 35.3866 62.4931 35.0986Z" fill="#E8C4A3"/>
<path d="M81.238 21.8285L88.0487 22.9732C88.956 23.1256 89.815 22.5138 89.9675 21.6066L91.0818 14.9759C91.2343 14.0687 90.6225 13.2096 89.7152 13.0572L82.9045 11.9125C81.9972 11.7601 81.1382 12.3719 80.9857 13.2791L79.8714 19.9098C79.7189 20.817 80.3308 21.6761 81.238 21.8285Z" fill="#A0A0A0"/>
<path d="M54.9437 12.5551L54.447 12.6386C53.9769 12.7176 53.6598 13.1628 53.7388 13.633L55.1191 21.8463C55.1981 22.3165 55.6433 22.6336 56.1135 22.5546L56.6102 22.4711C57.0803 22.3921 57.3974 21.9469 57.3184 21.4767L55.9381 13.2634C55.8591 12.7932 55.4139 12.4761 54.9437 12.5551Z" fill="#A0A0A0"/>
<path d="M86.5778 21.2003C84.9564 20.9347 83.4124 22.0414 83.1468 23.6573L82.5823 27.0662C82.3167 28.6876 83.4235 30.2316 85.0394 30.4972C86.6608 30.7628 88.2048 29.6561 88.4704 28.0402L89.0349 24.6313C89.3005 23.0099 88.1937 21.4659 86.5778 21.2003Z" fill="#E8C4A3"/>
</svg>
