<svg width="150" height="124" viewBox="0 0 150 124" fill="none" xmlns="http://www.w3.org/2000/svg">
<path d="M115.921 52.891H137.162C140.514 52.891 143.231 55.6085 143.231 58.9606V102.879C143.231 106.231 140.514 108.949 137.162 108.949H115.921C112.569 108.949 109.851 106.231 109.851 102.879V58.9606C109.851 55.6085 112.569 52.891 115.921 52.891Z" fill="#AF6C46"/>
<path d="M91.7418 58.9782C92.7036 57.2072 94.5626 55.9874 96.7207 55.9874C99.864 55.9874 102.409 58.5325 102.409 61.6758C102.409 62.8428 101.488 64.8543 101.488 64.8543C101.436 64.9306 96.234 72.6892 96.234 82.9636C96.234 93.238 101.483 101.348 101.524 101.413L92.6156 108.339C92.3224 107.899 84.857 96.8681 84.857 82.9636C84.857 70.7246 90.2288 61.3709 91.7477 58.9723L91.7418 58.9782Z" fill="#DBB88C"/>
<path d="M130.935 57.1075C130.935 57.1075 128.601 53.7882 112.943 53.7882C97.2847 53.7882 93.4024 57.2482 93.4024 57.2482C93.4024 57.2482 92.036 70.3786 93.7308 80.9169C95.4257 91.4552 97.7245 98.5746 97.7245 98.5746C106.245 101.935 114.626 101.595 123.962 99.5012C123.962 99.5012 124.449 91.1562 125.874 84.1423C127.299 77.1285 130.284 71.4225 130.284 71.4225L130.935 57.1016V57.1075Z" fill="#CCAE8C"/>
<path d="M123.967 99.507C124.659 99.5305 125.304 99.8589 125.721 100.41C127.093 102.216 130.195 106.814 132.382 113.904C134.746 121.551 136.317 131.585 136.81 134.969C136.927 135.784 136.611 136.605 135.96 137.11C133.614 138.91 126.506 142.593 107.582 142.593C88.6575 142.593 83.7842 138.265 80.4474 135.989C79.4446 135.303 79.1396 133.966 79.7554 132.917L97.7356 98.5805C105.447 101.354 114.215 101.618 123.973 99.507H123.967Z" fill="#4C8691"/>
<path d="M119.85 105.125C119.85 105.125 116.577 107.342 113.974 110.403C111.376 113.464 109.517 119.616 111.399 120.924C113.276 122.237 118.196 120.724 122.219 116.643C124.113 114.749 125.45 109.828 125.45 109.828L119.85 105.125Z" fill="#F7D9B5"/>
<path d="M129.949 85.8782C129.949 75.5686 124.771 66.7544 123.973 65.4525C123.317 64.5201 122.918 63.3941 122.918 62.1685C122.918 59.0193 125.469 56.4683 128.618 56.4683C130.612 56.4683 132.365 57.4945 133.38 59.0486C133.82 59.723 141.32 71.3814 141.32 85.8782C141.32 101.507 126.542 113.535 125.915 114.039L118.795 105.16C118.907 105.072 129.938 95.9415 129.938 85.8782H129.949Z" fill="#DBB88C"/>
<path d="M106.304 53.2076V56.4096C106.304 59.3242 108.609 61.7169 111.482 61.8811C110.485 63.6873 108.568 64.9071 106.357 64.9071C103.126 64.9071 100.504 62.2857 100.504 59.0544C100.504 55.8232 103.096 53.2311 106.304 53.2018V53.2076Z" fill="#FFF1DC"/>
<path d="M116.702 56.4096V53.8C116.772 53.8 116.848 53.7882 116.919 53.7882C120.15 53.7882 122.771 56.4096 122.771 59.6409C122.771 62.8722 120.15 65.4936 116.919 65.4936C114.479 65.4936 112.392 64.004 111.512 61.8811C114.391 61.7228 116.702 59.3242 116.702 56.4096Z" fill="#FFF1DC"/>
<path d="M89.995 7.68822C89.995 7.68822 89.0156 0 83.3213 0C77.627 0 72.132 3.0964 72.132 10.4504C72.132 17.8043 81.4271 20.4198 81.4271 26.8296C81.4271 33.2394 75.551 30.7001 75.551 30.7001C75.551 30.7001 77.0992 34.8638 82.7759 34.8638C88.4526 34.8638 91.1033 30.8409 91.1033 26.5657C91.1033 22.2906 84.4179 15.9981 84.4179 11.588C84.4179 7.17802 90.0008 13.535 90.0008 13.535V7.68822H89.995Z" fill="#D38653"/>
<path d="M88.5175 13.3884C87.3974 12.8254 86.9458 11.4473 87.5088 10.3331L89.0453 7.28357C89.6082 6.16348 90.9864 5.71192 92.1006 6.2749C93.2207 6.83788 93.6723 8.21601 93.1093 9.33025L91.5728 12.3797C91.0098 13.4998 89.6317 13.9514 88.5175 13.3884Z" fill="#4C8691"/>
<path d="M131.292 10.2451C131.292 10.2451 132.312 2.27539 138.206 2.27539C144.1 2.27539 149.806 5.48321 149.806 13.1128C149.806 20.7424 140.17 23.4459 140.17 30.0902C140.17 36.7346 146.264 34.1015 146.264 34.1015C146.264 34.1015 144.657 38.4177 138.775 38.4177C132.893 38.4177 130.142 34.2481 130.142 29.8146C130.142 25.3811 137.074 18.854 137.074 14.2915C137.074 9.72904 131.286 16.3089 131.286 16.3089V10.2451H131.292Z" fill="#D38653"/>
<path d="M111.793 61.8987C114.813 61.8987 117.282 59.4298 117.282 56.4096V42.3527C117.282 39.3325 114.813 36.8636 111.793 36.8636C108.773 36.8636 106.304 39.3325 106.304 42.3527V56.4096C106.304 59.4298 108.773 61.8987 111.793 61.8987Z" fill="#F7D9B5"/>
<path opacity="0.1" d="M117.252 54.3805C112.648 54.4099 109.118 53.2898 106.426 51.2548V47.3198L117.387 42.7397L117.252 54.3805Z" fill="#231F20"/>
<path d="M92.469 20.5547C91.3196 20.5547 92.1406 38.5525 93.0496 41.5023C94.3163 45.9299 98.5093 52.4042 103.418 52.4042C108.831 51.9761 115.346 47.8476 117.522 45.5781C120.859 42.8277 120.712 41.5258 120.712 41.5258V20.6661C114.83 13.1538 101.694 15.3588 92.469 20.5606V20.5547Z" fill="#F7D9B5"/>
<path d="M122.008 7.61783C127.051 7.61783 131.145 13.494 131.145 20.7482C131.145 26.8589 128.236 31.9785 124.301 33.4446C123.978 33.2511 123.615 33.1104 123.21 33.0517C122.295 32.911 121.415 33.1983 120.782 33.7496C116.319 32.8875 112.871 27.4043 112.871 20.7482C112.871 13.494 116.959 7.61783 122.008 7.61783Z" fill="#D38653"/>
<path d="M112.685 28.8411C111.271 27.9614 109.594 27.463 107.424 27.6623" stroke="#D38653" stroke-width="1.13769" stroke-linecap="round" stroke-linejoin="round"/>
<path d="M99.1553 27.4923C97.4956 27.3809 96.4459 27.5157 94.6221 28.7179" stroke="#D38653" stroke-width="1.13769" stroke-linecap="round" stroke-linejoin="round"/>
<path d="M107.101 43.895C104.462 45.0561 101.518 44.9858 99.3303 43.895" stroke="#D89773" stroke-width="1.17288" stroke-linecap="round" stroke-linejoin="round"/>
<path d="M107.993 32.0665C107.993 33.0752 108.626 33.8903 109.4 33.8903C110.174 33.8903 110.807 33.0752 110.807 32.0665C110.807 31.0578 110.174 30.2427 109.4 30.2427C108.626 30.2427 107.993 31.0578 107.993 32.0665Z" fill="#755E59"/>
<path d="M96.6158 32.0665C96.6158 33.0752 97.2491 33.8903 98.0232 33.8903C98.7973 33.8903 99.4307 33.0752 99.4307 32.0665C99.4307 31.0578 98.7973 30.2427 98.0232 30.2427C97.2491 30.2427 96.6158 31.0578 96.6158 32.0665Z" fill="#755E59"/>
<path d="M102.932 34.0135C102.932 34.0135 103.073 34.6586 102.897 36.1833C102.721 37.7081 100.926 37.0982 100.926 38.7285C100.926 40.3588 102.897 40.2591 102.897 40.2591" stroke="#D89773" stroke-width="1.17288" stroke-linecap="round" stroke-linejoin="round"/>
<path d="M122.073 30.835C120.507 30.577 119.017 31.6443 118.759 33.2101L118.214 36.5C117.956 38.0658 119.023 39.5553 120.589 39.8134C122.155 40.0714 123.644 39.0041 123.902 37.4383L124.448 34.1484C124.706 32.5826 123.639 31.093 122.073 30.835Z" fill="#F7D9B5"/>
<path d="M119.669 6.90238C119.669 6.90238 120.238 5.98167 119.669 4.86744L119.1 3.7532C119.1 3.7532 120.689 4.24581 121.188 5.32486C121.686 6.40977 121.188 7.54747 121.188 7.54747L119.669 6.90238Z" fill="#D38653"/>
<path d="M121.622 8.74968C121.622 8.74968 121.745 7.67649 122.883 7.15456L124.021 6.63263C124.021 6.63263 122.472 6.03446 121.411 6.57399C120.349 7.11351 120.033 8.31571 120.033 8.31571L121.622 8.74968Z" fill="#D38653"/>
<path d="M86.3822 20.5019C87.209 25.5218 96.1581 24.0616 106.075 22.4254C115.986 20.7893 123.351 15.394 122.524 10.3741C121.698 5.35419 112.989 2.60378 103.078 4.23995C93.1673 5.87612 85.5553 15.4761 86.3822 20.5019Z" fill="#D38653"/>
<path opacity="0.1" d="M94.6742 9.9343C93.2785 11.6995 92.6921 13.4998 93.2257 15.048C94.5335 18.8599 102.011 19.7513 109.922 17.0419C113.212 15.916 116.044 14.3385 118.155 12.6085C116.12 15.1888 112.338 17.7046 107.646 19.3173C99.7352 22.0325 92.2581 21.1412 90.9503 17.3234C90.188 15.095 91.7069 12.3622 94.6742 9.9343Z" fill="white"/>
<path d="M132.729 16.8015C133.849 16.2385 134.3 14.8604 133.737 13.7461L132.201 10.6967C131.638 9.57656 130.26 9.125 129.145 9.68798C128.025 10.251 127.574 11.6291 128.137 12.7433L129.673 15.7928C130.236 16.9129 131.614 17.3645 132.729 16.8015Z" fill="#4C8691"/>
<path d="M111.482 65.4877C110.491 65.4877 109.687 64.6843 109.687 63.6932C109.687 62.7021 110.491 61.8987 111.482 61.8987C112.473 61.8987 113.276 62.7021 113.276 63.6932C113.276 64.6843 112.473 65.4877 111.482 65.4877Z" fill="#4C8691"/>
<path d="M76.4093 49.4421C76.4093 49.4421 72.3511 57.0013 73.0842 60.2561C73.8172 63.5108 74.9432 63.5401 75.2364 64.1735C75.5296 64.8127 75.2833 65.4637 73.6237 65.2701C72.4508 65.0766 72.4039 64.5488 71.6474 64.1735C70.8909 63.804 71.665 66.2436 73.0842 67.1233C74.5034 68.003 72.1107 69.1524 70.2224 67.1233C69.0788 65.7803 68.7563 65.0356 68.3458 64.4902C67.9353 63.9448 67.1318 65.0238 67.9353 66.3902C69.548 68.4897 68.9381 69.7388 67.9353 69.1524C66.9324 68.5659 66.3812 67.5397 65.9707 66.8653C65.5602 66.1909 64.6805 66.4372 64.8975 67.5397C65.1145 68.6422 66.5864 69.9265 64.7509 70.249C63.6777 70.3194 62.6866 68.1672 62.6866 68.1672L69.1492 50.9669L76.4034 49.4363L76.4093 49.4421Z" fill="#755E59"/>
<path d="M39.1348 47.7943C39.1348 47.7943 40.6302 56.2449 38.9178 59.1067C37.2054 61.9685 36.1263 61.646 35.6513 62.1562C35.1763 62.6722 35.1998 63.3642 36.8418 63.6985C38.0147 63.8803 38.2258 63.3936 39.0644 63.2763C39.903 63.159 38.4017 65.2408 36.7773 65.6337C35.1528 66.0267 37.0705 67.8681 39.4984 66.5251C40.9996 65.6044 41.5392 64.9945 42.1022 64.6075C42.6593 64.2204 43.0874 65.493 41.8969 66.5427C40.7064 67.5925 40.5657 68.9354 41.7092 68.6891C42.8469 68.4487 43.017 68.1144 43.6152 67.6042C44.2133 67.094 44.9757 67.6042 44.4245 68.5777C43.8732 69.5512 42.9525 69.7154 43.9494 70.12C44.9464 70.5247 46.3304 69.862 46.3304 69.862L45.5563 51.5064L39.1406 47.7825L39.1348 47.7943Z" fill="#755E59"/>
<path d="M39.3754 51.4067C37.0143 51.4067 35.1002 46.917 35.1002 41.3786C35.1002 35.8402 37.0143 31.3505 39.3754 31.3505C41.7365 31.3505 43.6505 35.8402 43.6505 41.3786C43.6505 46.917 41.7365 51.4067 39.3754 51.4067Z" fill="#755E59"/>
<path d="M27.9567 112.437C36.3193 101.735 35.422 81.5673 35.4103 81.3679H35.422C35.422 81.2975 35.4045 81.2389 35.4045 81.1685C35.4045 78.3419 37.6916 76.0547 40.5182 76.0547C43.3448 76.0547 45.632 78.3419 45.632 81.1685C45.632 81.2623 45.6085 81.3562 45.6026 81.45C45.7258 85.2853 45.89 106.034 35.9792 118.712C25.7399 131.808 15.1606 137.396 14.7149 137.631L10.0175 128.594C10.1055 128.547 19.0662 123.814 27.9567 112.443V112.437Z" fill="#65AB8E"/>
<path d="M78.8839 76.0548C78.8839 76.0548 72.1575 72.8 58.7163 72.8C45.2751 72.8 39.1292 76.782 39.1292 76.782C38.4313 81.7843 37.9974 85.9539 37.798 93.3313C37.5106 104.11 39.8388 132.277 39.8388 132.277C52.5938 134.071 64.5337 134.042 75.7054 132.277C74.9724 119.932 77.107 97.3543 78.8839 76.0548Z" fill="#5FA185"/>
<path d="M84.1262 106.837C84.1262 93.8767 73.6172 84.6344 73.5116 84.5464C73.5116 84.5464 71.6526 82.8927 71.6526 80.588C71.6526 77.7848 73.928 75.5094 76.7312 75.5094C78.5022 75.5094 80.1325 76.8113 80.1325 76.8113C80.7131 77.3039 94.3068 89.1031 94.3068 106.843C94.3068 124.583 77.734 135.086 77.0303 135.502L71.852 126.735C71.9751 126.665 84.1203 119.246 84.1203 106.843L84.1262 106.837Z" fill="#65AB8E"/>
<path d="M56.4109 60.2561H57.1205C60.1974 60.2561 62.6917 62.7504 62.6917 65.8273V73.5507C62.6917 76.6276 60.1974 79.1219 57.1205 79.1219H56.4109C53.3341 79.1219 50.8398 76.6276 50.8398 73.5507V65.8273C50.8398 62.7504 53.3341 60.2561 56.4109 60.2561Z" fill="#E8C4A3"/>
<path opacity="0.1" d="M62.6917 64.1794H50.8398V70.9234C50.8398 73.5507 52.9744 75.6853 55.6017 75.6853H62.6858V64.1735L62.6917 64.1794Z" fill="#231F20"/>
<path d="M41.4856 33.4147C40.606 33.4147 39.0754 53.3126 39.4038 60.0919C39.4741 61.4876 39.5738 62.5197 39.7204 62.9772C40.8875 67.0295 46.1185 72.4012 50.6458 72.4012C55.6364 72.0083 62.1987 69.0468 64.2043 66.9708C67.2772 64.455 69.4295 59.7635 69.4295 59.7635L69.8282 34.3882C64.4037 27.5152 49.9949 28.6529 41.4915 33.4089L41.4856 33.4147Z" fill="#E8C4A3"/>
<path d="M60.8975 47.1374C59.361 46.205 57.5489 45.6831 55.2031 45.9294" stroke="#755E59" stroke-width="1.8121" stroke-linecap="round" stroke-linejoin="round"/>
<path d="M47.2277 46.3457C45.4507 46.1112 44.3072 46.1874 42.2605 47.3544" stroke="#755E59" stroke-width="1.8121" stroke-linecap="round" stroke-linejoin="round"/>
<path d="M55.8247 51.4067C55.8247 52.4916 56.5049 53.3772 57.3435 53.3772C58.1822 53.3772 58.8624 52.4975 58.8624 51.4067C58.8624 50.3159 58.1822 49.4363 57.3435 49.4363C56.5049 49.4363 55.8247 50.3159 55.8247 51.4067Z" fill="#755E59"/>
<path d="M43.5446 51.4067C43.5446 52.4916 44.2249 53.3772 45.0635 53.3772C45.9021 53.3772 46.5824 52.4975 46.5824 51.4067C46.5824 50.3159 45.9021 49.4363 45.0635 49.4363C44.2249 49.4363 43.5446 50.3159 43.5446 51.4067Z" fill="#755E59"/>
<path d="M50.3592 53.5062C50.3592 53.5062 50.6582 54.638 49.6261 55.8519C48.594 57.06 47.5032 56.8841 47.5032 58.6375C47.5032 60.391 50.3181 60.2502 50.3181 60.2502" stroke="#D89773" stroke-width="1.17288" stroke-linecap="round" stroke-linejoin="round"/>
<path d="M54.8634 64.1794C54.8634 64.1794 53.8958 64.8186 50.6704 64.8186C47.4449 64.8186 46.4773 64.1794 46.4773 64.1794" stroke="#D89773" stroke-width="1.17288" stroke-linecap="round" stroke-linejoin="round"/>
<path d="M71.0252 50.0814C69.3362 49.7999 67.7294 50.9552 67.4479 52.6441L66.8615 56.1979C66.58 57.8869 67.7353 59.4937 69.4242 59.7752C71.1132 60.0508 72.72 58.9014 73.0015 57.2125L73.5879 53.6587C73.8694 51.9697 72.7141 50.3629 71.0252 50.0814Z" fill="#E8C4A3"/>
<path d="M35.4334 30.248C35.2458 33.1802 39.1397 37.5843 49.5373 38.2529C59.9349 38.9214 70.8074 34.8691 71.1007 30.3594C71.388 25.8438 65.3477 21.8384 54.9443 21.1699C44.5467 20.5014 35.7266 25.7324 35.4334 30.248Z" fill="#755E59"/>
<path opacity="0.1" d="M45.6321 23.7795C43.7497 25.099 42.5826 26.6414 42.4888 28.0957C42.3305 30.5471 45.5911 34.2358 54.2938 34.7987C58.4927 35.0685 62.7738 34.4117 66.1165 33.2447C62.9028 35.6139 56.4285 37.2735 50.1477 36.8689C41.4449 36.3118 38.1843 32.6231 38.3427 30.1659C38.4952 27.826 41.3863 25.2574 45.6321 23.7737V23.7795Z" fill="white"/>
<path d="M65.3604 41.7715C65.3604 48.5859 68.2457 54.1102 71.7995 54.1102C75.3533 54.1102 79.0244 45.0028 79.0244 38.1825C79.0244 31.3622 75.3592 29.427 71.7995 29.427C68.2398 29.427 65.3604 34.9512 65.3604 41.7657V41.7715Z" fill="#755E59"/>
<path opacity="0.1" d="M75.353 41.103C75.353 35.8837 72.544 34.4 69.8229 34.4C69.1544 34.4 68.521 34.658 67.9404 35.1154C68.8377 32.799 70.2745 31.2918 71.893 31.2918C74.6141 31.2918 77.4232 32.7755 77.4232 37.9948C77.4232 42.1996 75.5993 46.5041 73.4647 48.4217C74.5848 45.9821 75.353 43.8241 75.353 41.103Z" fill="white"/>
<path d="M38.7947 51.2601C37.3243 51.2601 36.1323 46.8019 36.1323 41.3023C36.1323 35.8028 37.3243 31.3446 38.7947 31.3446C40.2651 31.3446 41.4572 35.8028 41.4572 41.3023C41.4572 46.8019 40.2651 51.2601 38.7947 51.2601Z" fill="#755E59"/>
<path d="M70.0925 28.172C70.0925 28.172 71.1422 27.6911 71.2947 26.3716L71.4471 25.0521C71.4471 25.0521 72.5614 26.4244 72.362 27.6794C72.1626 28.9344 71.0483 29.6439 71.0483 29.6439L70.0925 28.172Z" fill="#755E59"/>
<path d="M72.4263 30.0075C72.4263 30.0075 72.7606 28.905 74.0508 28.5708L75.3409 28.2424C75.3409 28.2424 73.8279 27.3216 72.614 27.6852C71.4001 28.0488 70.843 29.251 70.843 29.251L72.4322 30.0017L72.4263 30.0075Z" fill="#755E59"/>
</svg>
