<svg width="121" height="147" viewBox="0 0 121 147" fill="none" xmlns="http://www.w3.org/2000/svg">
<path d="M88.5975 0.623407C88.452 0.7205 88.2888 0.980795 88.1566 1.03657C87.3542 0.978729 86.9375 0.956005 86.1748 0.829989C87.0014 0.652328 87.7466 0.602748 88.5975 0.623407Z" fill="#FFE6C4"/>
<path d="M77.8069 141.585C77.7275 141.519 77.657 141.426 77.5864 141.378C77.593 141.393 77.7914 141.581 77.8069 141.585Z" fill="#FFE6C4"/>
<path d="M84.1931 0.419369L81.7727 0.62802L83.6552 1.23329C85.0109 1.11348 86.9706 1.53698 88.1587 1.03912C89.0912 1.10522 89.9707 0.849062 90.7996 1.45228C91.2404 1.07217 89.6423 0.650742 89.4814 0.625952C91.6086 0.442093 93.727 0.359462 95.8675 0.421437L94.9879 0.62802C94.9284 0.93996 95.55 0.92342 95.7573 0.92342C101.065 0.915156 106.51 0.239636 111.827 0L112.826 0.212786L111.726 0.419369C113.028 0.278893 114.272 0.764355 115.568 0.617681C116.095 0.557772 117.195 -0.0805613 117.841 0.471015C117.94 0.555714 117.902 0.877961 118.028 1.01637C118.18 1.18577 119.185 2.14226 119.205 2.22077C119.313 2.63393 119.126 3.13801 119.421 3.58217C119.556 3.78462 120.047 3.86311 120.093 4.03457C120.151 4.24735 118.793 5.40215 118.691 5.63766C118.513 6.05289 118.44 7.74066 118.279 8.31703C118.094 8.97603 116.965 10.5915 116.796 11.2959C116.659 11.864 116.868 12.8846 116.56 13.4775C116.441 13.7068 116.145 13.6138 116.134 13.6324C115.751 14.1716 116.703 13.9877 116.769 14.0538C116.954 14.2377 116.375 17.1299 116.152 17.4294C115.98 17.6629 115.517 17.5058 115.471 17.5513C115.33 17.6794 115.738 18.3942 115.702 18.6586C115.685 18.7949 115.295 18.766 115.253 18.9272C114.964 20.0055 114.858 23.1683 114.62 24.697C114.367 26.3435 113.981 30.6259 113.483 31.8882C113.311 32.322 112.907 32.5368 112.83 32.9252C112.729 33.4272 112.949 34.0965 112.83 34.5324C112.768 34.7596 112.261 34.6729 112.158 35.1852C111.902 36.4495 112.363 38.4058 112.18 39.7445C112.144 40.0048 111.534 40.5543 111.494 41.5831C111.393 44.1881 111.585 46.822 111.501 49.4312C111.452 50.9681 110.778 52.7158 110.624 54.2838C110.61 53.5546 110.659 52.7055 110.63 51.9143C110.621 51.6953 110.544 50.9764 110.185 50.9826C110.465 52.4679 109.475 54.4656 110.403 55.7278C110.191 57.271 109.658 61.2621 109.74 62.6256C109.746 62.7516 110.136 62.7227 110.183 62.8818C110.421 63.7019 109.768 64.0944 109.724 64.7038C109.623 66.059 109.792 67.815 109.755 69.2549C109.744 69.6618 109.468 70.232 109.508 70.4634C109.541 70.6555 109.925 70.5005 109.969 70.6927C110.075 71.1595 109.669 70.9302 109.585 71.0438C109.305 71.4157 109.614 74.907 109.742 75.6507C108.565 75.5474 109.737 76.0411 109.751 76.0866C109.909 76.6629 109.673 77.8115 109.751 78.5284C110.169 82.3894 110.057 86.0211 110.458 89.8367C110.659 91.7497 110.701 93.518 110.851 95.4537C110.992 97.2758 111.734 99.2424 111.95 101.027C112.257 103.558 112.008 106.355 112.156 108.884C112.18 109.293 112.546 109.596 112.544 109.704C112.541 109.888 112.08 110.082 112.171 110.212C112.184 110.231 112.579 110.158 112.623 110.344C112.705 110.691 112.374 111.166 112.387 111.557C112.407 112.108 112.751 112.701 112.61 113.313L113.046 113.104C113.154 115.403 114.75 116.973 113.712 119.295L114.369 119.089L114.153 122.597L114.589 122.186C114.924 123.863 113.551 121.981 113.712 123.421L114.148 123.01C114.234 123.535 114.027 124.245 114.153 124.727C114.195 124.888 114.58 124.861 114.602 124.995C114.666 125.419 114.188 125.912 114.212 126.381C114.234 126.815 114.671 127.563 114.755 128.119C115.301 131.736 114.966 136.186 114.79 139.807C114.732 140.968 114.219 142.236 114.371 143.443C113.364 142.966 113.853 143.908 113.05 143.856L112.94 143.236C112.48 143.978 111.505 145.22 110.507 145.292C110.183 145.315 109.839 145.098 109.468 145.139C108.922 145.199 108.351 145.534 107.762 145.507L107.659 145.916C106.819 145.848 105.675 144.391 105.518 144.311C105.097 144.092 104.147 144.544 103.719 143.652C103.644 143.497 103.779 143.234 103.68 143.044C103.27 142.257 102.357 142.491 102.253 142.41C102.172 142.346 102.558 141.927 102.276 141.689C101.927 141.394 101.403 141.497 101.114 141.359C99.3195 140.487 97.2364 138.528 95.3759 137.394C94.6815 136.971 93.9541 136.77 93.5617 136.016C93.1804 136.555 91.9569 136.5 91.6901 136.642C91.6615 136.657 91.926 136.911 91.6041 137.256C91.1302 137.762 90.0788 138.059 89.4748 138.584C86.8825 140.834 86.9419 141.786 83.3598 143.292C83.3179 143.311 83.3003 143.676 82.8925 143.776C82.5927 143.848 80.137 143.621 79.8417 143.497C79.5132 143.358 78.2765 141.968 77.8136 141.584C77.9723 141.631 78.2722 141.555 78.4728 141.582C78.6513 141.499 77.214 140.532 77.5932 141.377C77.4234 141.263 76.9782 141.206 76.9429 141.158C76.8063 140.968 77.1722 140.497 77.1171 140.262C77.0686 140.051 75.1045 139.185 74.6746 138.894C74.1434 138.532 71.6458 136.252 71.313 136.254C69.8382 137.551 68.0306 138.458 66.4501 139.611C65.985 139.95 65.716 140.53 65.2708 140.877C64.788 141.255 63.6263 141.619 63.2803 141.896C62.9871 142.131 62.9297 142.606 62.6034 142.91C61.9267 143.538 60.3837 143.78 60.1677 145.077C57.9258 144.749 56.3938 143.408 55.1285 141.79C55.7325 141.817 56.1249 142.168 56.6385 142.6C56.9361 142.85 56.8501 143.057 56.8876 142.513C55.6994 142.007 55.997 140.743 54.4672 140.964C54.2622 140.371 52.0798 139.138 51.4736 138.504C51.0724 138.084 51.3876 137.477 50.5059 137.659C50.4177 137.283 50.8763 137.528 50.9446 137.452C51.1386 137.239 49.4082 136.221 49.0709 136.219C48.9761 136.219 47.4882 136.942 47.3625 137.033C47.012 137.285 46.5028 138.287 45.9715 138.679C45.6343 138.929 45.2441 138.873 45.2154 138.9C45.125 138.983 45.469 139.441 45.4293 139.501C45.3058 139.683 41.9728 141.361 41.4658 141.691C41.5099 142.825 40.2379 142.772 39.8875 143.821C38.5957 143.767 37.1783 144.381 35.8645 144.288C35.4324 144.257 35.4942 143.997 35.3112 143.852C35.1283 143.707 34.8196 143.689 34.8725 143.441L35.9703 143.028C35.2715 142.962 34.4449 143.114 33.7682 143.028C32.4367 142.854 32.9679 142.239 32.6373 141.819C32.6042 141.776 31.3301 141.935 32.4477 141.48L29.496 138.26C29.1566 137.814 28.0765 135.752 27.4967 135.781C26.6833 135.82 26.3328 136.38 25.892 136.617C23.5421 137.878 21.1282 139.239 18.8974 140.545C16.6556 141.858 13.7062 143.74 12.1477 145.248C12.0375 145.354 11.5855 145.296 11.3276 145.414C10.7148 145.697 8.62954 146.796 8.13796 146.752C8.03877 146.744 7.92186 146.071 7.34211 146.329C7.38399 146.304 7.87121 145.585 7.78083 145.503C7.69045 145.42 5.83878 146.333 6.89908 144.472L6.13197 145.091L6.01733 144.059L4.91956 144.47C4.75203 144.226 4.29354 143.738 4.2759 143.693C3.75788 142.375 4.90411 137.768 5.11352 136.087C5.356 134.132 5.30311 132.203 5.78807 130.319C5.94899 129.691 5.21489 130.56 5.35818 129.922C5.56539 129.005 5.77706 128.317 5.80131 127.342C4.51396 127.489 5.49272 126.829 5.48831 126.206C5.4861 125.834 5.35383 124.702 5.30974 124.191C4.87327 119.169 3.91657 113.635 3.80855 108.654C3.71597 104.362 2.37346 100.292 2.38669 95.6706C2.3911 94.3216 1.63508 92.7165 1.6439 91.9459C1.64831 91.3386 2.63799 89.6239 1.1787 89.7768C1.43661 88.0787 1.02884 86.2174 0.947283 84.5234C0.81943 81.8171 1.02224 78.863 0.896587 76.2146C0.876748 75.7849 0.29039 75.4131 0.515235 74.6405C0.561527 74.4814 0.960514 74.5021 0.951696 74.4112C0.918631 74.1075 0.449053 73.4898 0.40717 72.963C0.354265 72.3123 0.731264 69.228 0.515235 68.9305L0.0787744 69.1392C-0.143867 67.2221 0.186789 65.2988 0.0787744 63.3569L0.521801 63.4581C0.338838 62.5016 0.0434356 61.3262 0.0632749 60.3635C0.0809099 59.4628 0.618776 58.3824 0.669477 57.6552C0.892118 54.5131 1.10822 52.0982 1.51161 49.0159C1.6042 48.3136 1.20962 47.041 1.4014 46.2291L1.83786 47.0534C1.71441 46.477 2.16411 45.9379 2.22803 45.4586C2.75929 41.4839 2.94883 38.1373 3.78649 34.1234C4.43237 31.0225 5.11573 27.7689 5.82994 24.6867C6.03274 23.8107 6.34794 22.9679 6.46477 22.0796L6.90123 22.2882C6.94753 21.7903 6.81969 21.2367 6.91447 20.7492C7.66396 16.8406 10.2189 12.8453 10.9904 9.2983C11.504 6.93706 10.6354 7.70141 12.1873 5.21622C12.3306 4.98691 12.7451 3.21647 13.2918 3.85068C13.3557 3.92505 13.1396 4.19982 13.5078 4.12339C13.5276 3.64825 15.0684 1.6196 15.3197 1.48739C16.0185 1.1176 19.0055 1.30352 19.9953 1.22502C21.3862 1.11347 23.1365 0.609399 24.6487 0.805653C25.0609 0.859365 24.933 1.20643 25.0984 1.22502C27.9332 1.55556 31.5439 0.177661 34.5021 0.826332C34.6851 0.865582 34.5771 1.24985 34.9739 1.26018C35.7234 1.2767 37.6941 1.32834 38.3025 1.2519C38.7346 1.19613 38.5296 0.807763 38.9418 0.7995C39.354 0.791237 39.742 1.01019 40.1586 1.02878L39.9404 0.413166H41.8119L40.6017 0.822196C41.4526 1.18165 42.6826 0.809813 43.3196 0.886249C48.3125 1.48121 54.2093 0.429686 59.4138 0.613545C59.5659 0.619743 59.438 1.04946 59.8547 1.04946C60.7188 1.04946 63.256 0.937876 64.043 0.815992C64.4243 0.758149 64.6866 0.402815 65.1605 0.39042C65.5617 0.38009 65.4405 0.747836 65.5926 0.78089C67.0761 1.11349 70.6252 0.541239 72.4305 0.611477C73.6672 0.658991 75.0736 0.979207 76.3742 1.03705C77.9128 1.10522 79.4691 0.977137 81.0078 1.03291C81.4178 0.689987 79.9011 0.960613 80.4588 0.415234C80.9394 -0.0537095 83.4347 0.00619748 84.2019 0.413166L84.1931 0.419369ZM110.399 0.625952L101.257 0.830467L100.931 1.24157H105.441L110.396 0.625952H110.399ZM117.226 0.625952H116.346V0.8284H117.226V0.625952ZM72.521 1.2457L70.5392 1.03912C70.742 1.51219 72.3446 1.82413 72.521 1.2457ZM70.3187 1.2457H69.4393V1.44815H70.3187V1.2457ZM116.785 2.0679C116.91 1.95428 116.754 1.35106 116.454 1.2457C115.852 1.05771 115.967 1.58035 115.744 1.64232C115.189 1.79933 114.307 1.80554 113.705 1.86338C113.659 2.16499 114.269 2.24144 114.468 2.23731C114.794 2.23318 116.703 2.14226 116.787 2.06583L116.785 2.0679ZM108.748 2.06996C107.683 2.18772 106.424 1.9832 105.335 2.06996C105.456 2.50999 105.939 2.49348 106.325 2.50174C106.9 2.5162 109.255 2.30134 109.751 2.17119C109.964 2.11541 110.535 1.93362 110.18 1.6568C110.017 1.52872 109.001 2.04104 108.75 2.0679L108.748 2.06996ZM111.28 1.65887C110.363 1.55558 110.363 1.96254 111.28 1.86131V1.65887ZM34.813 2.73309L32.4433 3.09874C33.4044 3.18551 35.4148 3.80733 35.9659 3.10288C35.0422 3.41689 34.899 2.7744 34.8153 2.73309H34.813ZM111.942 2.68765H108.419C108.39 3.17105 108.344 3.0533 108.745 3.10081C109.424 3.18138 110.654 3.14626 111.338 3.0471C111.536 3.01818 111.999 2.95827 111.942 2.68558V2.68765ZM57.5445 3.10495C57.1323 2.99752 56.8479 2.88182 56.3938 2.9314C56.1667 2.95619 55.1792 3.2165 55.1241 3.51191C55.5914 3.52224 56.061 3.53874 56.5283 3.48916C56.7575 3.46437 57.5621 3.40862 57.5445 3.10495ZM89.2588 3.30946L87.7201 3.41069C88.0067 3.77634 89.4638 4.0511 89.2588 3.30946ZM89.9178 3.30946C89.6092 3.16072 89.3293 3.43961 89.4792 3.51191C89.7878 3.66065 90.0677 3.38177 89.9178 3.30946ZM65.2554 3.51398H59.5306L63.3949 3.93541L65.2554 3.51398ZM24.5142 3.92714L22.0937 3.72263C22.3561 4.16265 24.6707 4.82578 24.5142 3.92714ZM64.3736 134.566C64.4001 134.541 64.6601 134.626 64.7527 134.516C64.8828 134.362 64.7836 133.983 64.9291 133.752C65.0195 133.607 67.2459 131.713 67.5655 131.469C67.8411 131.261 69.7192 129.988 69.889 129.93C70.8633 129.598 71.1366 130.061 71.8288 130.118C72.2851 130.158 72.7723 129.932 73.2506 130.023C73.427 130.058 73.4203 130.416 73.6783 130.509C74.0905 130.655 74.3946 130.383 74.8377 130.622C75.6908 131.089 75.909 132.155 76.3389 132.637C76.7357 133.081 77.8511 133.727 78.3603 134.147L78.1355 133.331C78.6469 133.467 81.5082 135.876 81.1092 136.215L79.791 135.905L81.2216 137.245L81.3319 136.421C81.6206 136.442 82.2797 137.355 82.4252 137.248C82.4561 137.225 82.4561 136.836 82.6457 136.715C82.8639 136.574 83.1372 136.826 83.2717 136.781C83.8669 136.576 85.8111 133.975 86.6069 133.422C87.5636 132.756 88.9105 132.397 89.8143 131.473C90.5483 130.726 90.7974 129.41 92.4595 129.426C92.6072 129.426 94.8865 129.918 95.1246 129.986C95.7947 130.176 95.0077 130.116 96.1628 130.217C96.24 130.224 96.4273 130.866 96.963 130.643C97.0975 130.897 96.0174 130.889 96.5244 131.259C96.7735 131.44 97.8646 131.087 98.2416 131.089C98.9536 131.781 99.67 132.884 100.501 133.413C102.038 134.393 103.911 135.306 105.531 136.13C107.151 136.954 108.92 138.944 109.292 135.896L108.858 136.006C108.6 135.481 109.272 135.663 109.294 135.471C109.367 134.814 109.01 134.306 108.855 133.835C108.814 133.709 109.294 133.765 109.308 133.622C109.341 133.294 108.893 132.106 108.86 131.566C108.765 130.063 108.283 125.245 108.684 124.435C108.825 124.15 108.968 124.022 108.853 123.625L108.417 124.036C108.338 123.353 108.532 122.541 108.401 121.882C108.271 121.223 107.674 119.99 107.595 119.161C107.559 118.8 107.864 118.364 107.765 117.975C107.716 117.787 107.33 117.86 107.315 117.841C107.233 117.732 107.718 117.504 107.712 117.163C107.705 116.726 107.096 115.627 106.991 115.056C106.825 114.147 107.127 113.259 107.086 112.592C107.055 112.11 106.519 111.222 106.49 110.462C106.459 109.656 107.088 108.685 106.21 108.043C106.336 107.801 106.748 108.107 106.649 107.737C105.913 107.851 106.23 106.57 106.213 105.979C106.204 105.686 105.966 105.33 105.979 105.165C105.99 105.027 106.44 105.083 106.437 104.946C106.437 104.628 106.021 104.461 105.986 104.118C105.95 103.775 106.239 103.382 106.193 102.915C106.016 101.118 105.181 99.3478 105.108 97.722C105.077 97.0072 105.115 96.4474 105.324 95.7636L104.667 95.9681C104.978 95.2822 104.193 94.2473 104.211 93.8135C104.215 93.6812 104.68 93.7948 104.683 93.4044C104.683 92.8693 104.319 92.1008 104.308 91.4976C104.255 88.6695 104.185 85.9075 104.002 83.0732C103.788 79.7844 104.028 76.822 103.94 73.5848C103.9 72.1057 103.263 70.4345 103.814 68.8541C103.922 68.5484 104.396 68.6847 104.46 68.2199C104.643 66.9101 104.057 65.0839 104.665 63.675L104.438 64.1874H104.222C104.101 63.0883 104.271 62.2166 104.663 61.1981L104.222 61.5039V57.585L104.658 58.6138C104.553 58.2791 104.91 57.7048 104.857 57.49C104.786 57.1966 103.437 57.0582 104.661 56.6636C104.019 55.0812 105.016 53.2592 105.11 51.5011C105.119 51.3338 105.177 50.745 104.881 51.0859L104.656 52.6311L104.217 52.1126C104.616 49.3051 104.855 46.4647 105.333 43.6675C105.395 43.3081 105.752 43.0788 105.781 42.6263C105.816 42.0954 105.434 41.5603 105.534 40.984C105.617 40.4985 106.215 40.2671 106.307 39.8664C106.378 39.5606 106.131 39.1123 106.193 38.7157C106.554 36.34 106.817 34.0779 107.103 31.7063C107.266 30.3553 108.077 28.8018 108.318 27.521C109.446 21.5363 109.62 15.818 111.141 9.69492C111.366 8.78596 112.061 7.99062 111.924 7.01968L108.84 7.2242L109.72 6.60859C108.437 6.62718 107.143 6.57965 105.858 6.59825C102.772 6.64163 99.3944 7.2552 96.3942 7.24074C96.1055 7.24074 94.1811 7.07343 94.0952 6.99906C93.9541 6.87511 94.3376 6.26565 93.7557 6.39787C93.5352 6.44745 93.7138 6.79449 93.5529 6.79449C92.9908 6.79449 91.8886 6.46398 91.1237 6.45158C84.1468 6.34829 77.2913 7.21386 70.2505 6.75112C68.7736 6.65402 69.3136 6.01981 69.08 5.97229C68.4165 5.83802 67.5765 6.1789 66.8976 6.20162C65.6874 6.24294 64.464 6.15204 63.256 6.19542L65.1187 6.61479C65.9916 6.79038 66.9638 6.31729 67.7662 6.39166C68.099 6.42265 68.4318 6.57553 68.099 6.81103L59.072 6.60445C59.0213 6.245 59.5725 6.41026 59.8393 6.39993C60.4609 6.37514 61.0913 6.41853 61.713 6.39787L59.6144 6.18508C55.6113 7.91831 51.2422 6.01365 47.0561 6.37724C46.6417 6.41236 46.7563 6.80278 46.5998 6.82344C46.1722 6.87509 45.3411 6.39785 44.6445 6.38132C39.6979 6.27597 34.3303 6.75526 29.4388 6.81517C28.7422 6.82343 27.3865 6.55901 26.8156 6.60859C26.2887 6.65403 24.9727 7.38741 24.1681 7.23247L24.382 6.60445L21.4126 7.22833C21.3531 7.57126 21.9505 7.45352 22.1886 7.44112C22.6779 7.41427 23.1276 7.25312 23.6126 7.22833C23.6655 7.51962 23.2224 7.52787 23.002 7.57951C21.1878 8.00094 19.0937 7.80883 17.2266 8.05467C17.522 8.50502 16.9818 8.98635 17.6652 8.881V9.08138C17.2133 9.04832 16.7812 10.5812 16.6379 11.0749C16.2786 12.3124 16.1464 12.4983 15.7099 13.5849C15.0089 15.3264 14.5284 17.196 13.8957 18.9623C12.8773 18.7164 13.4747 19.4519 13.424 19.8981C13.4108 20.0241 12.8398 21.9164 12.7274 22.3068C11.7487 25.732 10.62 29.2563 10.0138 32.7641C9.86173 33.642 10.1549 34.8939 9.66994 35.6459C9.58617 35.776 9.17392 35.805 9.14306 35.9971C8.79918 38.1972 8.65595 40.8187 8.42449 43.0312C8.04313 46.6774 6.70288 51.1251 6.89026 54.7816C6.9145 55.2547 7.31574 55.6865 7.32015 56.2381C7.33338 57.9114 6.57939 59.7934 6.28621 61.4646C5.56979 65.5508 6.5177 69.9366 6.42732 73.9815C6.35678 77.1608 6.45373 80.7512 6.888 83.8851C6.9431 84.2776 7.28924 84.5998 7.32672 84.9407C7.37301 85.3559 6.94753 85.1948 6.90123 85.2547C6.55735 85.6906 7.30026 85.6617 7.42811 85.8476C7.71688 86.2628 7.4722 88.1469 7.53833 88.8493C7.75215 91.0948 7.50746 92.9954 7.74994 95.0488C7.99242 97.1023 8.89623 99.8581 8.87419 101.852C8.86537 102.649 8.57442 103.355 8.62953 104.118C8.69346 104.996 9.47815 105.791 9.49578 106.173C9.73385 111.542 10.5694 116.723 10.8427 122.08C10.8582 122.384 10.6134 122.675 10.6112 122.89C10.6112 122.966 11.3078 123.064 11.299 124.156C11.2946 124.813 10.889 124.615 10.8405 124.799C10.7457 125.167 10.7589 127.02 10.8184 127.458C10.8713 127.852 11.2395 127.654 11.2946 128.048C11.4004 128.842 11.235 129.903 11.2681 130.755C11.3144 131.932 11.6605 134.233 11.515 135.299C11.4709 135.615 10.3423 136.066 11.4974 136.522C10.8008 136.983 11.1469 137.712 11.0521 138.378C11.0168 138.632 10.188 139.574 11.3497 139.28C11.7134 139.187 11.9934 138.601 12.2712 138.487C12.6746 138.322 12.6525 139.375 13.0383 138.898C13.1132 138.805 12.928 138.241 13.0602 138.092C13.1374 138.004 14.9473 137.723 15.0222 137.659C15.7276 137.051 14.4181 137.442 14.3873 137.415C14.3167 137.351 14.3962 137.074 14.3565 137.045C14.1008 136.861 13.0933 138.272 12.3791 138.07C13.6246 136.498 15.7363 135.919 17.4734 134.901C19.8563 133.506 26.1256 129.251 28.7686 129.616C29.2315 129.68 30.3382 130.139 30.7702 130.23C30.8209 130.24 31.2441 129.315 31.5351 129.815C31.7004 130.098 31.4712 131.203 32.6351 131.056L32.1964 131.465C32.926 131.312 33.2743 132.261 33.8078 132.637C33.9952 132.769 34.3898 132.663 34.7248 132.913C35.1459 133.229 35.4236 134.601 35.7719 134.913C35.9615 135.083 36.4067 135.018 36.6691 135.167C37.2731 135.514 37.4979 136.903 39.0234 136.417L38.5846 136.111C39.1423 135.461 40.0595 135.308 40.7715 134.857C43.183 133.335 45.3609 131.63 47.7769 130.083C47.9907 129.947 48.1009 129.658 48.209 129.608C48.7446 129.362 50.1951 129.286 50.7638 129.406C50.9445 129.443 50.9358 129.751 51.0725 129.813C53.6935 131.003 53.4289 131.347 55.318 133.017C56.4335 134 58.3513 134.944 59.2815 135.911C59.5306 136.169 59.4689 136.553 59.524 136.611C59.5505 136.64 60.3065 136.58 60.344 136.564C60.3925 136.543 60.4145 136.285 60.5446 136.219C61.0604 135.96 61.6402 135.832 62.0414 135.388L62.2552 136.206C62.835 135.913 63.1502 135.616 63.4632 135.074L62.6939 135.382C62.6939 134.519 63.3089 134.715 63.9085 134.562C63.8556 134.676 63.622 134.934 63.6881 134.973C64.561 135.159 64.2656 134.64 64.3494 134.562L64.3736 134.566ZM100.49 6.19749H97.4061C97.3488 6.53835 97.7191 6.34832 97.9991 6.48053C98.0873 6.52185 98.0696 6.7904 98.1666 6.78834C98.6515 6.77388 99.6347 6.67056 100.166 6.61272C100.499 6.57554 100.836 6.44126 100.492 6.19956L100.49 6.19749ZM104.672 59.2356C104.83 58.9464 104.533 58.684 104.456 58.8245C104.297 59.1137 104.595 59.3761 104.672 59.2356ZM3.36983 76.9852C3.21993 76.1816 3.78426 74.8119 2.93337 74.3037C2.94219 74.878 2.88715 75.4585 2.95769 76.0329C2.98415 76.2498 3.04358 77.0017 3.36983 76.9852ZM104.564 84.8292V85.0358C104.707 84.9676 104.707 84.8973 104.564 84.8292ZM105.115 89.5744V86.1699C105.115 86.1182 104.899 85.1824 104.676 85.2423L104.663 87.0044L105.115 89.5744ZM107.756 88.3369C107.831 88.244 107.842 86.5211 107.319 86.4818C107.478 86.9528 106.889 88.4877 107.756 88.3369ZM110.291 90.6073V90.8139C110.434 90.7457 110.434 90.6755 110.291 90.6073ZM110.178 91.0205H109.74V92.0492H110.178V91.0205ZM104.892 92.4645V91.2291H104.676V92.4645H104.892ZM6.67423 99.48L6.01733 96.3875C5.97104 97.2654 6.00184 98.1269 6.2311 98.9801C6.32368 99.3251 6.01066 99.5833 6.67638 99.48H6.67423ZM7.11285 102.577V101.752H6.89682V102.577H7.11285ZM7.77642 104.847C7.71469 104.254 7.67061 103.161 7.11952 102.785C7.15258 103.294 7.22969 103.835 7.34652 104.331C7.42808 104.68 7.09742 104.948 7.77857 104.847H7.77642ZM7.33328 107.942C7.17016 107.169 7.3884 105.762 6.67638 105.26C6.79763 105.934 6.80209 106.719 6.95419 107.374C7.00048 107.574 7.03128 107.991 7.33328 107.942ZM113.813 119.5V119.707C113.956 119.638 113.956 119.568 113.813 119.5ZM112.16 121.979C112.105 121.929 110.919 121.944 110.621 121.77V123.832L111.062 122.181C111.492 122.923 111.865 122.599 111.911 122.634C112.023 122.725 111.787 123.092 112.16 123.006C112.12 122.776 112.233 122.041 112.16 121.977V121.979ZM24.0711 131.678C23.2863 131.75 22.7198 132.422 22.0937 132.814L24.0711 131.678ZM114.803 133.12C114.962 132.831 114.664 132.568 114.587 132.709C114.428 132.998 114.726 133.26 114.803 133.12ZM21.7609 132.915V133.122C21.9042 133.054 21.9042 132.984 21.7609 132.915ZM75.0869 135.054C74.8422 134.835 74.4211 134.568 74.0662 134.568L75.499 135.801C75.5894 135.63 75.2059 135.159 75.089 135.054H75.0869ZM24.0734 135.188C23.7383 135.188 23.5663 134.946 23.207 135.078C23.088 135.122 22.1401 135.69 22.312 136.01L24.0734 135.188ZM103.131 135.597C103.29 135.308 102.992 135.045 102.915 135.186C102.756 135.475 103.054 135.737 103.131 135.597ZM61.8407 136.217V136.423C61.984 136.355 61.984 136.285 61.8407 136.217ZM70.5392 136.63C70.7883 136.39 70.4444 135.967 70.1006 136.529C70.0719 136.708 70.5237 136.644 70.5392 136.63ZM16.034 136.63V136.836C16.1773 136.768 16.1773 136.698 16.034 136.63ZM15.7033 136.838C15.463 136.613 15.0243 137.024 15.2646 137.25C15.5049 137.475 15.9436 137.064 15.7033 136.838ZM17.9054 138.078C17.5968 137.929 17.3169 138.208 17.4668 138.28C17.7754 138.429 18.0553 138.15 17.9054 138.078ZM17.4646 138.489C17.2441 138.278 16.5807 138.892 16.8055 139.107C17.0304 139.322 17.6894 138.704 17.4646 138.489ZM16.5851 138.902C16.2125 138.968 15.0597 139.117 15.4873 139.518C15.6174 139.642 16.8033 138.989 16.5851 138.902ZM104.235 140.759C104.202 140.73 103.547 140.671 103.358 140.652C103.691 141.356 104.713 141.179 104.235 140.759ZM5.5742 140.759C4.56901 140.664 5.48603 142.319 5.35818 142.821L5.5742 140.759ZM104.561 141.175C104.343 141.319 104.68 141.458 104.786 141.58C105.004 141.443 104.683 141.307 104.561 141.175ZM105.005 141.79V141.997C105.148 141.929 105.148 141.858 105.005 141.79ZM57.324 143.234C57.4828 142.945 57.1852 142.683 57.108 142.823C56.9493 143.112 57.2469 143.375 57.324 143.234ZM114.034 142.821V143.028C114.177 142.96 114.177 142.889 114.034 142.821ZM107.205 144.476C106.986 144.62 107.324 144.759 107.429 144.881C107.648 144.744 107.326 144.608 107.205 144.476Z" fill="#FFE6C4"/>
<path d="M63.9327 134.566C64.065 134.285 63.6484 134.035 64.5941 134.155C64.6139 134.169 64.3957 134.556 64.3736 134.566C64.281 134.605 64.0628 134.533 63.9327 134.566Z" fill="#FFE6C4"/>
<path d="M85.5161 0.623148C85.4257 0.895838 85.2757 1.00739 84.9671 1.03838C84.3852 1.09622 84.7401 0.792546 84.6343 0.623148C84.9165 0.650004 85.2449 0.583897 85.5161 0.623148Z" fill="#FFE6C4"/>
<path d="M5.57417 145.298C5.34051 145.222 5.25234 145.069 5.1333 144.885L5.24578 144.681C6.10108 144.788 5.56095 145.222 5.57417 145.298Z" fill="#FFE6C4"/>
<path d="M6.45591 146.124C6.44268 146.074 6.27956 145.996 6.23547 145.917C6.46693 145.907 6.73812 145.399 6.67419 146.019L6.45591 146.124Z" fill="#FFE6C4"/>
<path d="M112.713 111.244C112.856 111.312 112.856 111.383 112.713 111.451V111.244Z" fill="#FFE6C4"/>
<path d="M112.052 144.886C112.195 144.954 112.195 145.024 112.052 145.092V144.886Z" fill="#FFE6C4"/>
<path d="M6.01509 145.918C5.80347 145.87 5.62051 145.705 5.57422 145.505L6.01509 145.918Z" fill="#FFE6C4"/>
<path d="M77.4768 23.1213C76.5576 23.2535 76.2402 24.241 76.0418 24.3546C75.5194 24.6562 75.6362 23.9745 75.6031 23.9477C75.2239 23.6399 75.0696 24.2018 75.1622 24.5653L74.9439 24.1542C74.3003 24.1191 73.7779 24.5013 73.1827 24.1542L73.4031 24.7719C72.2833 25.1128 71.1304 25.8007 69.9357 25.9618C69.0958 26.0755 65.4013 26.1684 64.7047 26.0114C64.4027 25.9432 64.8921 25.4619 64.8149 25.3917C64.5879 25.1872 63.3314 25.4351 63.2719 25.3896C63.1969 25.3318 63.5958 24.867 63.4944 24.774C63.4261 24.712 62.26 24.4187 61.8323 23.9518C61.4951 23.5841 61.5414 23.1523 61.5084 23.1193C60.7545 22.4169 61.5502 23.9559 60.9638 23.7369C60.653 23.5221 60.4083 23.0615 60.0358 22.9561C58.9843 22.6607 55.162 23.5862 53.976 23.9601C53.7688 24.0262 53.771 24.336 53.5308 24.4166C51.9105 24.9455 50.2572 25.3855 48.5224 25.3917L49.3997 25.8007C48.745 25.9701 48.2579 26.2986 47.5194 26.2387C47.1182 26.2056 47.2262 25.8482 47.0477 25.809C46.1351 25.6086 43.6728 26.185 43.1328 25.3835C42.5177 24.4704 42.8793 24.3485 41.539 23.5738C40.04 22.7061 40.4676 23.1523 39.1715 23.1337C39.0414 23.1337 39.0922 22.4128 38.6138 22.7123C38.594 22.7247 38.6733 23.0077 38.4506 23.1131C37.5424 23.5428 36.491 23.3754 35.6886 23.5799C34.582 23.863 32.2872 24.5819 31.282 25.0322C30.9271 25.1913 30.9404 25.5322 30.6318 25.6644C29.8536 25.999 28.8616 25.8296 28.0394 25.8048C27.9402 25.8771 28.3326 26.3647 28.2598 26.4205C27.7771 26.7778 27.5347 25.9908 27.4906 26.0094C27.3296 26.0796 27.2172 26.4184 26.8667 26.3916C26.7477 26.3833 24.8078 25.6541 24.6513 25.5714C23.5887 24.9992 24.2325 24.0509 24.2942 23.2226C24.3185 22.9044 24.0252 22.5471 24.1046 22.2289C24.2104 21.7972 25.0194 21.5947 25.3853 21.3468C25.5462 21.2394 25.5859 20.9047 25.652 20.8717C25.846 20.7704 26.2825 21.0927 26.5757 21.0658C26.7035 21.0534 26.7124 20.7518 26.7895 20.7209C29.9594 19.438 40.0246 17.0974 43.2893 17.5973C44.0586 17.7151 44.894 18.5455 45.3393 18.5744C45.4605 18.5827 45.3173 17.9382 45.875 18.1675L45.6611 18.8905C46.5693 18.6261 46.2078 19.0744 46.6398 19.4049C47.1931 19.8284 48.0242 19.8842 47.8611 20.6423C49.7348 19.7747 51.9414 19.1074 53.976 18.6344C55.0518 18.3844 57.362 17.7874 58.3297 17.7502C59.0373 17.7213 59.8043 18.0291 60.2849 17.9609C60.6155 17.9134 60.8338 17.5891 61.171 17.5684C61.4466 17.5498 64.0279 17.996 64.3211 18.1138C65.0066 18.3864 66.574 20.0061 67.1295 20.2292C67.3059 20.2994 67.1449 19.9255 67.3984 19.8263C67.6519 19.7272 68.5866 19.5351 68.9239 19.4772C70.09 19.2768 72.2392 18.6922 73.3039 18.7604C73.7536 18.7893 73.5222 19.2541 73.9388 19.2066C74.3114 19.1632 74.6397 18.8616 75.0718 18.7976C76.8485 18.5352 78.8964 18.4691 80.6731 18.5806C80.8407 18.8575 78.6408 18.8595 79.679 19.1963C81.2243 19.2086 83.0957 18.2171 84.5373 18.3514C84.9407 18.3885 84.8328 18.7438 85.007 18.781C85.4677 18.876 86.0451 18.6839 86.475 18.7852C86.6535 18.8265 86.5919 19.2045 86.7286 19.2045C87.1188 19.2045 87.3722 18.6943 87.4934 18.7852C87.5221 18.8079 87.4956 19.2686 87.8527 19.3781C88.8756 19.6921 91.2938 19.5722 92.4158 19.8181C92.5855 19.8553 92.5414 20.2126 92.6979 20.223C93.1697 20.2581 93.6591 20.004 94.3248 20.4378C94.4218 20.8159 93.8773 20.5081 93.8817 20.7477C93.8883 21.1154 94.4901 21.3819 94.327 21.8798L93.4452 21.9831L94.5453 22.3962L93.2248 23.4291C94.7194 24.429 92.9581 23.9621 92.1249 23.739C92.0521 24.1439 92.6715 23.8444 92.7839 23.9477C92.8963 24.051 92.7795 24.8422 92.4533 24.9744C92.03 23.8981 91.9176 24.9413 91.7611 24.9785C91.0755 25.1479 90.218 24.6521 89.4818 24.9764C89.3936 24.8835 89.7001 24.0055 89.0432 24.4559C89.0873 24.7245 89.5854 24.9806 88.933 24.9764C88.675 24.9764 88.9902 24.4166 88.7014 24.3423C88.578 24.3113 87.5486 24.3216 87.5001 24.3567C86.9645 24.7637 88.2408 24.7223 87.8264 24.9785C87.1695 24.805 86.0804 24.1171 85.4235 24.144C85.364 24.146 85.1414 24.8835 84.4184 24.5612L84.857 24.1522C83.3426 24.3897 81.8768 24.0551 80.3822 24.0221C79.8752 24.0097 79.2579 24.2555 78.6583 24.239C78.3277 24.2307 76.7383 24.1067 76.9301 23.5324H81.4447C81.4821 23.5324 81.7907 23.2535 81.7753 23.1193C80.4461 23.2535 78.7553 22.9354 77.4812 23.1193L77.4768 23.1213ZM82.6527 20.2333C81.9583 20.2478 81.2551 20.2064 80.5585 20.2333C80.2918 20.2436 79.7385 20.0784 79.7914 20.4378C80.5409 20.4089 82.2118 20.9047 82.6527 20.2354V20.2333ZM61.2901 21.0555C60.5803 20.4068 58.6889 20.4006 57.7675 20.6465L59.4208 21.0534H61.2901V21.0555ZM37.2868 21.2621C37.3022 21.2456 37.3661 20.8262 37.181 20.8551C36.5726 21.1402 35.8385 21.1092 35.1794 21.2579C34.8046 21.3426 34.5379 21.0555 34.6459 21.6752C35.0383 21.572 37.1964 21.353 37.2868 21.2621ZM55.1245 21.0576C54.7277 21.1671 53.231 20.977 53.3654 21.6752C53.7622 21.5658 55.259 21.7558 55.1245 21.0576ZM62.1718 21.0596C61.8632 20.9109 61.5833 21.1898 61.7332 21.2621C62.0418 21.4108 62.3217 21.1319 62.1718 21.0596ZM93.7737 21.4707V21.6773C93.917 21.6091 93.917 21.5389 93.7737 21.4707ZM33.1006 23.9477C32.6884 23.9167 32.133 23.8898 32.0007 24.3567L33.1006 24.1501V23.9477ZM72.9623 24.3608H72.0827V24.5633H72.9623V24.3608Z" fill="#FFE6C4"/>
<path d="M78.0163 38.4094C78.0913 38.4817 78.003 38.8515 78.0294 39.0127C78.7525 38.2524 79.4227 38.8061 80.0928 38.7462C83.0687 38.4797 83.6484 38.6842 86.5185 39.0003C87.8963 39.1531 89.1197 38.7647 90.4798 39.4155C90.7025 39.5229 91.8884 40.5124 91.906 40.6013C91.9523 40.8347 91.7892 41.8015 91.679 41.9007C90.8854 42.6155 91.8818 40.4112 91.0221 40.8698C90.9758 41.5722 91.2182 42.5679 90.6848 43.134C89.3577 44.5408 83.5713 43.6215 81.6226 43.6339C79.7203 43.6463 77.8134 44.0925 75.9441 44.1793C71.3348 44.3941 66.9988 44.1152 62.2726 44.3693C61.5584 44.4086 60.6392 44.7515 60.0638 44.766C59.9823 44.768 59.6406 44.0058 58.6486 44.3797L59.3078 44.7887C58.3004 44.892 57.0725 44.6585 56.1004 44.7742C55.6749 44.8238 55.8778 45.1998 55.4634 45.2266C52.115 45.4436 47.4218 44.5036 43.7736 44.5759C41.7433 44.6172 40.5022 45.049 38.461 44.8631C33.5144 44.4148 28.4686 44.7969 23.5242 44.6007C23.2178 44.5883 22.2589 44.4706 22.0275 44.3797C21.796 44.2888 21.58 43.2579 21.6594 43.1525C21.7453 43.0369 22.7858 43.0596 22.5301 42.6258C22.345 42.3097 21.527 42.2891 21.4322 42.0019C21.1765 41.2252 22.0716 41.409 22.3581 41.2623C22.7725 41.0516 22.4529 40.6901 23.63 41.0723C23.7204 40.7376 22.8298 40.9731 23.1957 40.4587C23.2156 40.4298 23.7271 40.0414 23.7623 40.0414C23.9629 40.0476 24.1966 40.2501 24.3862 40.2522C24.4567 40.2522 24.7411 39.4754 25.6118 39.8349L25.3914 40.4505H26.0527L25.83 40.0414C26.9123 39.9299 28.1777 39.6882 29.2468 39.6283C32.1169 39.4713 35.1324 39.3101 37.8262 39.6324C39.4949 39.8328 41.7324 39.3721 43.3261 39.2006C43.5377 39.1779 44.177 39.087 44.1086 39.4196L43.2291 39.6262C44.4327 39.5663 45.5988 39.8927 46.6392 39.213C46.5268 39.7233 46.6635 39.7377 47.3226 39.8142C50.6358 40.1964 55.9506 38.6346 58.7192 39.2089C58.8824 39.242 58.8603 39.6283 58.9904 39.6365C59.5327 39.6675 62.0368 38.9507 62.7223 38.8908C63.0706 38.8598 63.6923 39.2977 64.1486 39.2172C64.2301 39.7832 62.6121 38.7668 63.2646 39.527C65.4623 39.7564 67.7814 39.2977 69.9813 39.1986C70.5545 39.1717 73.3629 39.399 73.6164 39.213C74.1234 38.8433 73.0432 38.8515 73.1777 38.5974C73.861 38.8598 77.8421 38.2421 78.0096 38.4053L78.0163 38.4094ZM84.6338 38.8061C84.1665 38.7957 83.6992 38.7833 83.2296 38.8308C83.0048 38.8536 82.1958 38.9135 82.2134 39.2172C82.8747 39.2213 83.5735 39.2316 84.226 39.1407C84.506 39.1015 84.7131 39.4899 84.6316 38.8081L84.6338 38.8061ZM61.9508 40.6633H57.8771C57.8396 40.6633 57.531 40.9421 57.5465 41.0744C58.4216 41.2355 59.31 40.938 60.1035 40.8925C60.5665 40.8657 61.6245 41.3037 61.9508 40.6633ZM35.5248 41.4896C34.8304 41.504 34.1272 41.4607 33.4307 41.4896C33.1639 41.4999 32.6129 41.3346 32.6636 41.6941C33.5828 41.4338 34.9605 42.4027 35.5248 41.4917V41.4896ZM78.909 41.9007H75.6046V42.1073H78.909V41.9007Z" fill="#FFE6C4"/>
<path d="M65.0351 105.258C64.4729 104.667 65.5002 104.175 66.0116 104.214C66.1417 104.225 66.1262 104.64 66.2584 104.648C66.523 104.665 67.0565 104.303 67.4555 104.435L67.0167 104.845C68.1013 105.481 68.3769 104.638 68.4607 104.636C69.9839 104.586 71.9876 104.958 73.7379 104.855C74.6571 104.801 75.4286 104.427 76.3743 104.415C77.6661 104.398 79.3788 104.818 80.5824 104.824C81.3848 104.828 82.3482 104.458 83.1925 104.425C84.6011 104.373 89.7923 104.349 90.6057 105.355C90.8394 105.644 90.6013 105.958 90.6807 106.086C90.8328 106.328 91.2229 106.059 91.2362 106.082C91.7321 106.927 90.6983 106.611 90.1384 106.497L91.018 107.012C90.5022 107.078 90.5485 108.195 89.9246 107.73C89.8607 107.683 89.9621 106.933 89.4793 106.908C89.5807 109.185 88.311 108.945 86.3932 109.181L86.6158 109.59C86.0272 109.86 85.917 109.172 85.831 109.168C85.5092 109.154 84.4931 109.555 83.867 109.602C83.3071 109.645 82.6282 109.555 82.0484 109.528C75.5345 109.226 68.443 109.988 61.8387 109.964C60.3243 109.957 58.5938 109.662 57.2161 109.598C56.7311 109.575 55.7348 110.387 54.7957 109.796C54.8773 110.959 54.3901 109.788 54.3306 109.784C53.7773 109.734 52.8559 110.271 52.0381 109.802L52.263 110.212C51.6656 110.478 51.5642 109.794 51.4782 109.792C50.8323 109.78 49.9814 110.036 49.071 109.9C48.8352 109.864 48.7161 109.606 48.4119 109.59C48.1562 109.577 48.4824 110.1 48.0812 110.005C48.2025 109.21 47.3361 109.858 46.7674 109.914C45.8372 110.003 45.5109 109.674 45.3302 109.641C44.1552 109.424 44.4264 109.918 44.12 110.114C43.8312 110.3 38.0029 110.178 37.2137 110.135C35.7059 110.055 33.9491 109.548 32.5515 109.575C31.7359 109.59 30.94 109.916 30.1156 109.817C29.71 109.767 29.8246 109.433 29.6482 109.391C28.9539 109.232 28.3146 109.517 27.682 109.571C27.5894 109.579 26.053 109.305 26.496 109.796C26.5644 109.873 27.0229 109.627 26.9348 110.003C24.4725 110.949 20.9256 107.567 23.5246 105.879L23.8508 106.497C23.5708 105.202 24.5584 105.778 25.6143 105.671L25.1757 105.262C26.9833 105.532 28.8635 104.921 30.5697 104.89C31.5551 104.871 33.0981 105.258 34.0702 105.241C34.8682 105.227 36.5061 104.692 36.9117 104.692C37.3658 104.692 38.6641 105.107 39.1447 105.061C39.3828 105.039 39.1601 104.683 39.3784 104.64C39.4467 104.626 39.5966 105.38 40.4761 105.264C40.9192 103.555 41.4064 105.448 41.5783 105.462C41.9442 105.247 42.3345 105.109 42.3521 104.644C42.804 104.747 42.3322 105.729 43.1809 105.196C43.2603 105.146 43.0906 104.741 43.5601 104.845C43.7717 104.892 43.5204 105.282 43.9877 105.28C44.5741 105.276 45.1517 104.851 45.7689 104.836C46.2869 104.824 46.8512 105.13 47.2701 105.061C47.4442 105.033 47.3207 104.634 47.7373 104.619C48.6169 104.588 49.2319 104.838 49.9528 105.055C50.0718 105.09 50.0585 104.652 50.1665 104.636C50.9293 104.508 50.8566 105.243 51.0373 105.245C51.5487 105.254 51.8397 104.702 51.9851 104.654C52.0469 104.634 53.202 104.464 53.2659 104.464C53.3717 104.464 53.3563 104.764 53.5326 104.832C54.6767 105.285 56.3145 104.487 57.4498 104.421C57.8885 104.396 58.3029 104.661 58.5278 104.646C58.6622 104.638 58.638 104.225 58.7747 104.216C59.037 104.198 63.7411 104.605 63.9968 104.667C64.3936 104.764 64.5148 105.357 65.0372 105.256L65.0351 105.258ZM62.392 105.055C62.3104 104.983 60.073 104.485 60.408 105.258C60.4764 105.202 63.1569 105.735 62.392 105.055ZM63.2716 107.739C62.3501 107.425 61.3758 107.54 60.4124 107.53C60.2449 108.286 61.0649 107.693 61.6116 107.726C62.026 107.751 63.0885 108.245 63.2737 107.739H63.2716Z" fill="#FFE6C4"/>
<path d="M26.9653 87.2645C27.0491 87.3451 28.8744 86.872 29.3593 87.1013L29.1367 87.5104C30.4593 88.1136 30.4989 87.2335 30.7767 87.1715C31.0721 87.1034 34.6476 86.8513 34.9761 86.8741C35.3045 86.8968 37.4471 87.0683 37.5772 87.1013C37.7447 87.1426 37.7138 87.5062 37.8637 87.5227C39.1621 87.6611 40.0064 87.217 41.8074 87.5042C43.4342 87.7644 43.1983 86.9319 43.9875 86.9278C44.6488 86.9257 45.546 87.2748 46.3109 87.1033L45.8722 87.5124C46.9259 87.7314 48.1185 87.2852 49.0641 87.2914C49.8908 87.2955 51.9541 87.4318 52.7808 87.5227C52.9924 87.5454 54.5596 87.9153 54.6302 87.9752C54.7272 88.0557 54.6875 88.3862 54.8131 88.5226C55.0005 88.7271 55.2893 88.756 55.4128 89.0081C55.6134 89.4171 55.6045 90.1422 55.7786 90.6091L53.5787 89.5783V90.8157L54.0151 90.4067L54.8947 90.7185L54.0174 91.3363C55.1989 91.7598 53.8983 91.9994 53.2436 92.0552C50.0142 92.3382 47.2015 92.1192 44.0052 92.049C42.4026 92.0139 41.5054 92.0097 40.0241 91.8527C39.484 91.7949 38.4259 92.2762 37.7227 92.0593L38.2694 92.4725C38.0291 92.3527 37.2708 92.4724 37.1605 92.4311C36.9776 92.3609 37.1098 91.5655 36.7197 92.4828C34.1736 92.1089 31.3917 91.9642 28.806 92.0613C27.7611 92.1006 26.2754 92.4683 25.2658 92.489C24.8535 92.4972 25.0674 92.0779 24.6309 92.0386C22.8917 91.8816 21.4809 93.0344 20.6719 90.3942C20.0238 88.2788 20.7777 88.3987 22.3605 87.9173C22.5412 87.8615 22.5302 87.5248 22.6558 87.5186C23.9233 87.4607 25.5766 88.1487 26.8221 86.9009C27.0249 86.8389 26.8771 87.1922 26.9609 87.2728L26.9653 87.2645ZM28.8083 87.3038V87.5104C28.9515 87.4422 28.9515 87.3719 28.8083 87.3038ZM44.1131 87.3079C43.8045 87.1592 43.5246 87.4381 43.6745 87.5104C43.9831 87.6591 44.263 87.3802 44.1131 87.3079ZM52.04 89.572C51.7138 88.8883 50.6822 89.2271 50.0584 89.163C50.3559 89.7476 51.4757 89.539 52.04 89.572ZM53.6956 91.2309L53.3671 91.5387C53.3627 91.7556 53.9182 91.4168 53.6956 91.2309Z" fill="#FFE6C4"/>
<path d="M33.9181 56.2735C34.0128 56.2095 33.971 55.9492 33.9887 55.9389C34.4229 55.691 34.5199 56.3892 34.7007 56.4987C34.8021 56.5607 36.5545 57.0338 36.6251 56.9677C36.7111 56.8871 36.4818 56.3541 36.7397 56.3459C37.4627 56.3872 38.5693 56.8623 39.1865 56.9015C39.6318 56.9305 41.3071 56.7693 41.997 56.7404C43.6856 56.6702 45.4535 56.1889 47.195 56.5566L46.8687 56.9697C47.81 56.7032 48.813 56.8602 49.719 56.7507C50.0761 56.7074 50.3428 56.352 50.8278 56.3272C51.8263 56.2756 54.2733 56.7363 55.2057 56.5669C55.3733 56.5359 55.3335 56.1083 55.4504 56.1393C55.6113 56.1827 57.884 57.1866 57.9854 57.2775C58.2103 57.4779 58.4769 58.2299 58.4417 58.5046C58.4152 58.7071 57.895 58.5583 57.6592 58.8186C57.4586 59.0397 57.5026 59.4983 57.3483 59.7194C57.1257 60.0437 56.3431 59.8784 56.4445 60.4734C55.6135 59.1512 54.8706 60.463 53.5855 60.2709L55.3467 60.4775C54.5818 61.4815 53.279 60.8184 52.3752 60.87C51.1805 60.9382 49.5603 61.3204 48.4118 61.3183C47.1795 61.3163 45.6365 61.1386 44.2367 61.1055C42.1338 61.056 40.0506 60.9217 37.9499 60.8907L38.0579 61.5104C36.9513 61.0952 35.7257 61.0435 34.5596 61.2811C33.0694 60.4279 24.878 61.2791 24.4041 60.6862C24.3445 60.6097 24.554 60.2916 24.5143 60.2709C24.3512 60.1842 23.9521 60.4879 23.7537 60.4899C23.6171 60.4899 23.6853 59.7689 23.196 60.0705C23.1365 60.1057 23.3614 60.6758 22.7508 60.4734L22.9712 59.8578C21.955 59.74 20.7691 59.4384 20.7669 58.3146C20.7624 56.4016 22.2151 57.2548 22.3077 57.1743L22.0895 56.35C23.487 56.7032 25.1689 56.1062 26.6392 56.0153C28.1095 55.9244 30.0891 55.9843 31.6167 56.1909C32.3574 56.2901 32.882 56.9842 33.9136 56.2756L33.9181 56.2735ZM42.9031 56.7611V56.9677C43.0464 56.8995 43.0464 56.8293 42.9031 56.7611ZM43.3417 56.7611V56.9677C43.485 56.8995 43.485 56.8293 43.3417 56.7611ZM29.1368 57.5895L26.7164 57.9985C27.424 57.9324 28.6849 58.2547 29.1368 57.5895ZM33.9843 58.8228C33.1245 57.8229 31.4206 58.3167 30.2412 58.2072L33.9843 58.8228ZM29.3572 59.0335C28.9626 59.0108 28.5703 59.0211 28.1757 59.0583C27.9288 59.081 26.9633 59.1512 26.9368 59.4425C27.4042 59.4508 27.8737 59.4715 28.341 59.4198C28.5725 59.395 29.3727 59.3392 29.3572 59.0335Z" fill="#FFE6C4"/>
<path d="M31.7812 71.2089C33.0817 71.7543 34.4904 71.0705 35.6411 71.1904C39.2717 71.5705 42.9595 71.3308 46.6276 71.8431C47.3969 71.9506 48.0296 72.4918 49.037 72.2377C49.2222 72.1902 49.1626 71.7873 49.2861 71.8245C51.151 72.3699 51.691 72.0786 53.4721 72.2418C54.6735 72.3513 54.3804 72.5125 55.0395 73.0413C55.3856 73.3202 55.9653 73.0475 55.7934 73.7809C55.7449 73.9916 55.6721 74.1982 55.4539 74.3015C55.0351 74.4998 55.1673 73.5082 54.6845 73.8924C54.603 73.9585 55.0263 74.2002 54.775 74.3035C54.5523 74.3944 54.204 74.3035 54.0255 74.6155L54.4641 74.9212C54.1665 75.1113 53.0005 75.0886 52.941 75.1464C52.7514 75.322 53.2826 76.2103 51.9446 76.3776C50.6131 76.545 48.5234 76.3714 47.0817 76.3776C43.7686 76.39 40.3275 76.4231 36.9504 76.3776C36.0356 76.3652 35.22 75.9583 34.2082 76.3714L34.5345 76.9932C34.2413 76.8652 33.2691 76.8631 33.1391 76.7391C33.0509 76.6544 33.1479 76.3446 33.0619 76.2206C32.9274 76.0306 28.8979 75.9355 28.263 76.1628L29.1426 75.7537C28.5496 75.5451 27.659 75.9459 27.2534 75.9397C27.1542 75.9397 27.1982 75.2455 26.7265 75.5513C26.7067 75.5637 26.8015 75.8756 26.5634 75.95C25.6905 76.2247 22.6352 75.9872 21.5771 75.8839C21.1252 75.8405 18.361 75.01 19.0135 74.3056C19.8776 74.6878 19.5601 74.3056 20.1112 73.7891L19.4521 73.6858C19.3573 73.3347 19.7828 73.5599 19.871 73.4586C19.9988 73.314 19.5602 72.8988 19.7652 72.6467C19.9834 72.3782 21.037 72.403 21.436 72.2398L21.2156 71.6241C22.353 71.6469 23.4993 71.5911 24.6368 71.6138C25.1217 71.6221 25.5538 71.8349 25.9638 71.8452C26.3452 71.8555 26.1887 71.1821 27.1587 71.4176L27.0572 71.839C28.7876 71.147 30.1146 70.8557 31.9024 71.6179L31.7856 71.211L31.7812 71.2089ZM42.3489 71.8287C42.0403 71.6799 41.7604 71.9588 41.9103 72.0311C42.2189 72.1799 42.4988 71.901 42.3489 71.8287ZM20.9886 75.3323L20.5499 74.9212C20.4859 75.353 20.5279 75.3901 20.9886 75.3323Z" fill="#FFE6C4"/>
<path d="M88.8157 57.3811C88.8465 57.41 88.8046 57.5154 88.8157 57.5836C87.7289 57.3976 87.6187 58.9264 87.1271 59.2528C86.155 59.8932 82.6919 60.3394 81.4045 60.4654C80.7895 60.5274 80.3421 59.9779 80.4457 60.6802L80.1326 60.2795C79.1384 60.9777 78.1334 60.4179 77.2538 60.4571C75.5124 60.5356 73.7069 61.1285 71.9897 61.0769C70.4973 61.0314 70.4026 60.608 69.8537 59.6102C69.7633 59.4449 69.4349 59.4304 69.426 59.3106C69.4018 59.0235 69.6795 58.7219 69.6707 58.5256C69.6685 58.4512 68.6634 58.4616 69.7413 57.4472C70.9361 56.3193 72.8825 56.5465 74.3815 56.3379C74.7474 56.2883 75.0119 55.9433 75.4946 55.9123C76.2066 55.8668 76.3411 56.2924 76.9275 56.3461C77.0729 56.249 76.081 55.9557 77.7343 55.8049C78.9467 55.6954 82.4936 55.1996 83.8118 55.3628C84.4665 55.4434 85.0727 55.5178 85.7472 55.5901C87.881 55.8194 87.2109 55.8916 88.2778 57.1621C88.4321 57.346 88.7937 57.3605 88.8135 57.3811H88.8157ZM75.6048 56.1416C75.2962 55.9929 75.0163 56.2718 75.1662 56.3441C75.4748 56.4928 75.7547 56.2139 75.6048 56.1416Z" fill="#FFE6C4"/>
<path d="M81.581 71.3767C81.8102 71.5626 83.2563 70.9429 83.8449 71.0028C83.9948 71.0172 85.9985 71.5007 86.1242 71.5502C86.1903 71.575 87.1227 72.3951 87.1624 72.4509C87.3652 72.7484 87.1845 74.1841 87.0522 74.304C86.4857 74.8266 86.3314 73.6656 86.2851 73.6863C85.8751 73.8722 86.2278 74.2709 86.0646 74.5003C85.9787 74.6221 84.8434 75.3803 84.6428 75.4464C83.8492 75.7149 83.0976 75.5352 82.3746 75.591C80.0644 75.7728 77.6264 75.9608 75.2699 75.9504C74.8555 75.9504 74.4829 76.2045 74.0597 76.1591L74.2822 75.75H73.6209L73.7268 76.3698C72.6092 76.188 71.4828 75.9794 70.3652 75.8058C69.7193 75.7046 69.6818 75.7955 68.8684 75.56C68.4738 75.4464 67.8852 75.7067 67.7044 75.2047C67.6361 75.0126 67.6229 73.7441 67.6758 73.6863C68.0902 73.2297 68.0042 74.4486 68.6236 73.897C69.027 73.5396 68.8397 72.5666 69.21 72.3208C69.4128 72.1865 69.77 72.453 69.8471 72.4117C69.9243 72.3704 69.9838 71.9407 70.1822 71.8085C70.5878 71.5379 70.9735 71.7135 71.2556 71.6081C71.454 71.5337 71.4166 71.2486 71.5709 71.2135C72.6488 70.9718 73.4446 71.4015 74.3043 71.5192C75.164 71.637 76.8768 71.2383 77.7013 71.2404C78.7616 71.2424 79.9277 71.9303 81.1687 71.4056C81.4112 71.3023 81.2481 70.98 81.4377 70.9986C81.6538 71.0193 81.4707 71.2899 81.5787 71.3788L81.581 71.3767Z" fill="#FFE6C4"/>
<path d="M87.9379 89.5739C87.4617 89.64 87.8255 90.6791 87.7174 91.0179L86.3992 90.4002C86.9151 92.0054 84.4616 91.7657 83.2117 91.7884C80.9809 91.8297 78.6796 91.5405 76.3672 91.6294C75.2408 91.6727 73.4244 92.1189 72.4038 92.0756C71.9849 92.057 72.0995 91.6521 71.9871 91.6603C71.7622 91.6769 71.4933 91.8876 71.0965 91.8628C70.0979 91.7967 69.214 90.7762 69.1919 89.8755C69.1875 89.671 69.9149 88.6029 70.1023 88.4439C70.6247 87.9997 71.1935 88.2455 71.7049 88.1216C71.8834 88.0782 71.8504 87.7539 72.0113 87.7208C72.5117 87.6155 78.0161 87.3324 78.5495 87.3696C80.2799 87.4956 79.9977 87.4357 81.6466 87.2932C83.2955 87.1506 84.9201 87.8262 86.6153 87.3035C86.1788 88.2476 86.8577 87.8985 87.2876 88.2745C87.5499 88.5058 87.8387 89.2124 87.9357 89.5739C88.0768 89.5553 88.2311 89.5801 88.3743 89.5739V90.3981C87.6293 90.5469 88.0548 90.0139 87.9357 89.5739H87.9379ZM87.4949 89.5759C87.1267 89.7681 86.0069 89.5367 86.1766 90.1936C86.9834 89.8321 87.7109 90.6502 87.4949 89.5759Z" fill="#FFE6C4"/>
<path d="M107.535 6.81775C107.711 7.60896 106.256 7.09251 105.775 7.22885C105.599 6.43764 107.054 6.9541 107.535 6.81775Z" fill="#FFE6C4"/>
<path d="M65.2557 39.4228H64.3761V39.0138C64.7861 38.96 65.1389 39.0138 65.2557 39.4228Z" fill="#FFE6C4"/>
<path d="M32.3311 55.9345C32.4743 56.0027 32.4743 56.0729 32.3311 56.1411V55.9345Z" fill="#FFE6C4"/>
</svg>
